<?xml version="1.0" encoding="utf-8"?>
<!-- Generator: Adobe Illustrator 26.0.0, SVG Export Plug-In . SVG Version: 6.00 Build 0)  -->
<svg version="1.1" id="Capa_1" xmlns="http://www.w3.org/2000/svg" xmlns:xlink="http://www.w3.org/1999/xlink" x="0px" y="0px"
	 viewBox="0 0 160 280" style="enable-background:new 0 0 160 280;" xml:space="preserve">
<style type="text/css">
	.st0{fill:#FFFFFF;stroke:#42210B;stroke-width:6.97;stroke-linecap:round;stroke-linejoin:round;}
</style>
<g>
	<g id="Capa_2_00000034051407858154306380000008437677408496632732_">
		<g id="AssetsE3">
			<g id="BeardE3">
				<path class="st0" d="M28.1,36.8c0.5,4.2,2.4,13.4,1.3,19c-4.1,22.4-8.9,51.9-3,69.6S56,162.8,56,162.8l2.1-13.6
					c0,0-4,5.5,12.6,17.1s31,32.1,31,32.1l6.7,17.5c0,0,6.2-44.7,4.3-56.5s-7.1-35-7.1-35s16.6,8.6,19,20.3l2.4,11.8
					c0,0,11.1-5.1,6-25.6s1.4,1.6-14.6-31.8S101.8,66.9,98,53.8c-2.1-7.1-8.8-28.8-12.5-40.9"/>
			</g>
		</g>
	</g>
</g>
</svg>
