<svg xmlns="http://www.w3.org/2000/svg" viewBox="0 0 130 250"><defs><style>.cls-1{isolation:isolate;}.cls-2{fill:#39b54a;}.cls-3{fill:#8cc63f;}.cls-4{fill:#42210b;}.cls-5{fill:none;mix-blend-mode:multiply;opacity:0.4;}</style></defs><g class="cls-1"><g id="Layer_2" data-name="Layer 2"><g id="Variacion_A" data-name="Variacion A"><g id="AssetsW3"><g id="TailW3"><path class="cls-2" d="M116.45,174.46c2.28-1.31,8-4.59,6.22-6.78s-1.46-1.57-6,1-3.38,5.14-5.09,6.13-4.17-.41-5,.87,0,1.59.91,3.48-.5,5.1-1.66,4.16-3.71-2.67-4,.29-.51,7.1,1.84,10.56,1.79,5.37.65,6-4.34-3.1-4.89-1.19.69,6.46,1.57,8.93,3.77,4,2.65,6.26-6.37,1.39-6.37,1.39l-.38-12.72-2.5-4.57s3.59.74,4.44-.55,1.14-.65-.62-2.85-2.34-3.45-1.77-3.78,4-3.93,3-6.11-3.65-1.51-4-3.73,3.67-4.51,4.49-7.38,1.4-3.2.53-3.51-1.83-1.35-1.65-2.25a10.66,10.66,0,0,0-.21-7.88c-1.78-3.79-3.78-3.44-3.82-6.61s3.07-5.78-.09-6.36-4.58,1-4.92-2.78,3.58-10.86.1-13.66-6.86,2.34-8.93-2.08S81.38,119,78.79,118s-6.21,3.1-7.71,1,.72-8.18-1.06-12-6.08-3.72-7.47-.51-1.35,6.37.72,10.79,5.88,9.43,3.6,10.74-6.07-.91-6.16,2.14.5,4.32,3.37,4.27,10.3-2.72,10.37,2.05-8,7.23-6.23,9.69,7,1.1,7.54,2.36,1.18,2.52-1.1,3.83-4.78,6.76-3,8.95,10.36,2.05,11.5,1.4,3.71-1.33,2.6.91-2.26,2.9-.23,4.14,5.15-1.36,6.33,1.16a8.66,8.66,0,0,1,.36,5.4s-.44,9.86-1.54,13.69-3,10.54-2.71,11.17a5.05,5.05,0,0,1,.27,1.43c-.18-.67-.83-1.63-2.87-2.34-3.46-1.22-6-.54-5.51-4s2.76-8,.14-10.49-10.06-1.42-12.68-3.92-1.88-11.73-1.63-14.27-1.21-4.12-3.53-6-4.4,2.18-4.4,2.18a10.86,10.86,0,0,1-2.67,4.29c-2,1.94-4.85,3.58-3.66,6.1s6.44,3.22,6.58,5.69-2.8,6.15-2.8,6.15l-6.4-1.62s-1.9,1.74-3.48-1.63-5.66-7.44-8-7.72-2.91-3.13-3.8-5-.89-1.89-3.48-2.8-1.8-5.37-1.25-7.29.87-3.59-.62-5.59-4.05.27-4.39-3.54.68-4,0-5.81a26.42,26.42,0,0,0-2.72-4.63L16,134.51s.26,5,.75,6.13a10.6,10.6,0,0,1,1.13,5.6c-.25,2.54-3.39,2.42-2.81,3.45s4.85,5.91,3.19,6.8-4.19,4.75-3,7.27,8.11,5,7.27,6.24-4.81,5.16-2.2,7.66,9.23,2.71,10.94,1.72,7.53,5.28,8.42,7.17,8.08,3.36,10.66,2.68,13.41,6.21,16.79,6.11,10.58,1.38,11.19,4.23,1,3.63,0,6.11-2.42,4.1-1.24,6.62,4.42,7.87,4.42,7.87l7.33,11s-2.67-5.67-2.14-9.18A13.32,13.32,0,0,1,88,217.2s1.73.61,2,1.24-.85,1.28.34,3.81a12.24,12.24,0,0,0,2.85,4.4c1.24,1.25,2.2-2.87,1.62,2s-1.65,5.61-.65,7.8,1.16,6.41,2,7.53c0,0,.44-.44.89-.92.47-.77,1.26-2,1.79-2.77-.08-1.32,3-5.21,4.46-5.53a58.86,58.86,0,0,1,7.15-8.31c-.27,0-1.85-.11-2.24-.1-2.87,0-4.62-.92-3.48-2.19s8.82-6.48,11.64-9.71,3.08-5.77,1.62-7.34-5.12,3-5.76-1.49,2-3.53,3.38-5.14,3.67-5.32.38-4.22-3,3.31-4.16.79a5.64,5.64,0,0,1,1.92-6.71c1.7-1,7.3-4.2,5.31-6.26s-2.85-2.36-5.7-.72-4.87.4-4.32-1.52S114.17,175.77,116.45,174.46Z"/><path class="cls-2" d="M46,210.61a5.28,5.28,0,0,0,3.21-1.44c1.3-1.36,2.36-4.14,4.74-5.21s3.47-4.63,5.49-2.47.28,5,3.25,6.46,7.51,1,8,3.05,1.5,2.82,1.19,5.82-2,9.87.08,9.72,6.43-1.36,8.58.73,9.36,10.37,9.36,10.37l2.63,1.58s-3.43,5.68-5.7,5.17-2.75-1.83-6.44-2.47-7,.76-8.45-2.75-1.26-6.68-5.07-5.74-6.07.44-5.85-2.73,2.95-7.8-.34-8.84-6.44-.38-6.55-3.4,2.62-5,1.9-7-7.59,1.4-7.59,1.4l-2.89.25Z"/><path class="cls-3" d="M52.55,106.79s-4.89-.1-9.57-7.19-6.85-9.19-7.91-6.42,2.34,10.12,4.19,11.38a13.69,13.69,0,0,0,4.11,1.76s3,1.74-.82,5-6.51,5.23-5.31,8.52-1.65,3.05-1.87,6.22,1.23,7.12.64,7.38-3.76,6.76,2.37,6.45,8.87,1.53,9.6,3.5,0,7.65,3.26,7,6.53-2.94,7.15.62-2.47,6.48,1.82,6.85S72,159.65,72,159.65s-3.84-4.79-3-8.17S68,147,66.89,145.81a11,11,0,0,1-2.73-7.43c.22-3.17.42-5.47-5-5.73s-9.43-5.39-8.13-7.51,5.76-3.17,9.29-6.77,1-8.6-1.27-9.11A45.76,45.76,0,0,1,52.55,106.79Z"/><path class="cls-3" d="M31.54,133.52s-1-6.46-6.85-9.19-8.82-1.4-7.5.31,5.67,1.36,8.27,3.22A51.57,51.57,0,0,1,31.54,133.52Z"/><path class="cls-3" d="M33.24,183.38s1.52-4.79,2.7-7.49l1.18-2.69s4.06-1.83,6,1.5,3.47,10.18,6.78,8.38,4.59-7.75,7.69-6.85a6.17,6.17,0,0,1,4,3.32s-1.36,3.74,3,8,11,7.41,11,7.41a9.68,9.68,0,0,1,4.56,4.85l1.6,4.36-1.21,2.37s-6-5-8-4.83S60.19,208.56,59,203.87s-.66-12.6-2.51-12.92-7.9,3.94-10.3,1.19-1.47-7.78-4.69-7.09-2.95,5.16-5.59,1.75Z"/><path class="cls-3" d="M27.23,195.06s-3.37-5.15-5.75-4.08-3,1.34-1.89,2.39a16.81,16.81,0,0,1,3.12,4.73c.48,1.32,2.05,3.68,3.83,2.88s4-4.12,5.26,1.08-.09,7.33,4.31,6.11.73,2,5.15,4.59,2.64,3.41,6,1.14,5.41-8,5.41-8-4.6,4.59-5.8,1.3.08-5.41-3.13-4.73-2.68,5.11-5.35.14-.17-7.63-4.58-6.41-2.24,3.31-4.4,1.22S27.23,195.06,27.23,195.06Z"/><path class="cls-3" d="M97.7,241.87s-8.61-.8-10.17-3.16,2.68-6.44-.25-9.41-6.88-8.09-6.17-10,6.76-6.11,6.76-6.11a24.58,24.58,0,0,0,1,10.21c1.72,4.68,3.41,9.29,5.22,12.31Z"/><path class="cls-3" d="M97.64,239.82s1.32-4,0-5.67S93,230,94.28,228.33s6.69-3.27,6.42-4.34-3.94.6-5.27-2.26-1-3.7,1-5,1.14-2.82,0-4.43-2.8-3.69-1.15-4.17,4.25-.67,4.49-2-.49-3.34-.38-4.92-.74-5-1.6-9.64-1.69-5-.64-7.77,4.15-5.7,4.37-8.87a17.26,17.26,0,0,0,0-4.21s-2.73,2.38-5.84,1.48-7.29-2.85-5,3.4,5.89,8.47,3.51,9.54-6.56-.88-5.94,2.68-.13,3.13,1.74,4.59,10.84,8.92,11.57,10.89-1.72,12.29.08,15.31a11.47,11.47,0,0,1,.77,9.63c-1.06,2.77-3.56,7.67-2.59,10.31,0,0-2.06,2.51-2.08,2.45S97.64,239.82,97.64,239.82Z"/><path class="cls-4" d="M94.33,247S94,240,111,226C120,218.59,94.33,247,94.33,247Z"/><path class="cls-4" d="M94.33,247S94,240,111,226C120,218.59,94.33,247,94.33,247Z"/></g></g></g><g id="Layer_94" data-name="Layer 94"><g id="Cola"><rect class="cls-5" width="130" height="250"/></g></g></g></g></svg>