<svg xmlns="http://www.w3.org/2000/svg" xmlns:xlink="http://www.w3.org/1999/xlink" viewBox="0 0 464 265"><defs><style>.cls-1{isolation:isolate;}.cls-2{fill:url(#Degradado_sin_nombre_7);}.cls-3{fill:#42210b;}.cls-4{fill:#fff;}.cls-5{fill:#69a7cf;}.cls-6{fill:none;mix-blend-mode:multiply;opacity:0.4;}</style><radialGradient id="Degradado_sin_nombre_7" cx="371.05" cy="139.25" r="45.9" gradientTransform="matrix(1.76, -0.15, 0.11, 1.77, -328.07, -88.75)" gradientUnits="userSpaceOnUse"><stop offset="0.05" stop-color="#e6e8ea"/><stop offset="0.13" stop-color="#dce4ea"/><stop offset="0.32" stop-color="#c9dde9"/><stop offset="0.53" stop-color="#bed8e9"/><stop offset="0.74" stop-color="#bad7e9"/><stop offset="1" stop-color="#afd3e8"/></radialGradient></defs><g class="cls-1"><g id="Layer_2" data-name="Layer 2"><g id="Variacion_B" data-name="Variacion B"><g id="AssetsW3"><g id="HornW6_3"><path class="cls-2" d="M406.93,139.32a17.85,17.85,0,0,0-11.57-13.95c-1.87-.71-1.73-3.74-3.78-4.16-1.35-.67-2.54-2.82-4-3-7.28-5.62-19-4.26-28.36-3.53-3.2.25-5.1-2.25-8.05-1.09-1.36-5.85-6.49-7-11.48-9.57a64.33,64.33,0,0,0-5.07-8.9c.05-.32.11-.63.15-1,5-18.16-.16-44.74-15.64-55.33a21.47,21.47,0,0,0-7-3.08c-.56-.63-1.12-1.23-1.63-1.8-3.91-4.28-8.9-8.92-13.75-7.49-2.87-3.09-6.52-3.27-8.73-5.39C281.72,15,256.58,17.21,279,31.2c1.08.67,2.47,2.82,4.4,5.17a7.74,7.74,0,0,0,0,1.8,56.61,56.61,0,0,0,8,23.62A12.2,12.2,0,0,0,286,69.71a130.06,130.06,0,0,0-2.18,15.87A15.11,15.11,0,0,0,276.47,90c-6.37,6.94-8,15.39-6.57,24a40.8,40.8,0,0,0,.05,12.67,11.39,11.39,0,0,0,13.67,9.49c0,.13.07.26.11.39,2.19,7,8.17,11.44,13.85,8.74,2.65,3,7.57,1.62,11.38,2.61a17.69,17.69,0,0,0,4.73,3.1c1.25,9,5.6,16.89,12.87,19l.2.17a10.1,10.1,0,0,0,2,10.23c1.13,1.23-.27,3.63.86,4.86.12.13.87,4.88,1,5,2.06-1,6.45-5.83,9-6,11.39-2.6,24.1-3.5,33.91.49a2.15,2.15,0,0,1,.18-.24c8.34-8.36,17.7-8.79,27.91-14.25,3.25-1.74,6.61-.51,10-2,.3-.34,2.71-9.66,3-10C419.53,152.44,412.89,142.74,406.93,139.32Z"/><path class="cls-3" d="M324.83,198.33c11.08-6.28,9.1-24.15,4.55-33.86-3.29-7-9.54-10.56-16.21-14-8.67-4.47-18.1-7.47-26.6-12.22-7.18-4-14.48-10.2-15.15-19-.64-8.39,4.82-16,9.26-22.59,5-7.47,10-14.87,12.1-23.76a49.7,49.7,0,0,0-1-26.85c-4.49-13.5-19.68-34.82-36.6-29.1-1.67.57-1.6,3.06-.31,3.93,5.71,3.83,12.43,5.05,17.56,10A43.49,43.49,0,0,1,284,50.72a40.81,40.81,0,0,1-2,26.38c-3.16,7.22-8.24,13.41-12.37,20.07-7.9,12.7-10.41,27.15.1,39.24,11.08,12.74,29.46,16.3,43.65,24.42,6.68,3.82,9.41,8.23,10.82,15.83,1.2,6.47,1,13.36-1.78,19.42a1.8,1.8,0,0,0,2.42,2.25Z"/><path class="cls-3" d="M248.76,20.29c18,1.56,36.13,1.21,52.93,8.92,9.5,4.35,17.65,11.06,22.64,20.35,4.68,8.7,6.56,18.52,7.81,28.22,2.07,16.15,5,33.62,23.71,37.45,8.69,1.78,17.81.43,26.36,2.92a36.76,36.76,0,0,1,17.29,11.51c8.56,9.81,15,25.8,11.37,38.87-1.52,5.44,7.11,7.83,8.42,2.36,6.66-27.79-15.44-60.27-44.07-62.3-9.52-.67-21.64,1.14-28.56-7-5.92-7-6.72-17.37-7.87-26.07-2.66-20.16-10-38.91-28.55-49.28-18-10.08-41.44-12.8-61.67-9.89-2.25.33-2,3.77.19,4Z"/><path class="cls-4" d="M340.81,114.09C326.58,99.51,330,80,324.11,62a50.64,50.64,0,0,0-11.22-19c-4.14-4.41-10.84-11.15-17.51-9.38-.74.2-.73,1.39.11,1.4,8.3.18,15.81,9.48,20,15.82,5.11,7.77,7.25,16.41,8.44,25.52,1.75,13.49,2.73,31.18,15.78,39.09A.9.9,0,0,0,340.81,114.09Z"/><path class="cls-5" d="M374.91,159a28.53,28.53,0,0,0-5.13-13.22c-6.56-9.21-15.1-14.38-25.78-17.64-5.79-1.77-11.45-3.63-17-5.72-1-.42-2-.8-3-1.15a152.32,152.32,0,0,1-16.63-7.64c-5.6-3-11.5-7-13.11-13.58a15.66,15.66,0,0,1-.16-6.56c.38-.55.74-1.13,1.09-1.71.57-1.19,1.2-2.36,1.65-3.59.45-1.55.9-3.1,1.32-4.66.24-1.12.46-2.24.64-3.37a1.56,1.56,0,0,1,.32-.75,37.25,37.25,0,0,0,.68-5.23c-.87,2.9-1.91,5.71-3,8.47-.31.4-.62.8-.95,1.2-2.84,5.55-7.12,10.74-10.24,15.62a40.56,40.56,0,0,0-2.63,7.86,23,23,0,0,0,8.94,23c8.47,6.36,19.5,8.18,28.51,13.62,7.05,4.25,12.65,9.6,15.9,16.18.71,3.56,1.82,7,2,10.67.16,3-.68,6.25-.05,9.18a.86.86,0,0,0,.74,1.19c5.49-.4,10.62-2.74,16.26-2.94,6-.21,11.29,1.39,17,2.23l.23.24a.84.84,0,0,0,1.42-.4.88.88,0,0,0,.76-.74,37.58,37.58,0,0,0,.68-5.45C376.19,169.26,375.52,163.79,374.91,159Z"/></g></g></g><g id="Layer_94" data-name="Layer 94"><g id="Cuerno"><rect class="cls-6" width="464" height="265"/></g></g></g></g></svg>