<svg xmlns="http://www.w3.org/2000/svg" xmlns:xlink="http://www.w3.org/1999/xlink" viewBox="0 0 464 265"><defs><style>.cls-1{isolation:isolate;}.cls-2{fill:url(#Degradado_sin_nombre_7);}.cls-3{fill:#42210b;}.cls-4{fill:#fff;}.cls-5{fill:#69a7cf;}.cls-6{fill:none;mix-blend-mode:multiply;opacity:0.4;}</style><radialGradient id="Degradado_sin_nombre_7" cx="323.14" cy="126.18" r="93.05" gradientUnits="userSpaceOnUse"><stop offset="0.05" stop-color="#e6e8ea"/><stop offset="0.13" stop-color="#dce4ea"/><stop offset="0.32" stop-color="#c9dde9"/><stop offset="0.53" stop-color="#bed8e9"/><stop offset="0.74" stop-color="#bad7e9"/><stop offset="1" stop-color="#afd3e8"/></radialGradient></defs><g class="cls-1"><g id="Layer_2" data-name="Layer 2"><g id="Variacion_C" data-name="Variacion C"><g id="AssetsW3"><g id="HornW3"><g id="Capa_43" data-name="Capa 43"><path class="cls-2" d="M395.46,170.39c-1.08-2.61-13-6.58-16-6.92a33.38,33.38,0,0,0-3.6-.18l-14.15-6.72c-4.25-4.55-10-8.41-15.2-11.88-1.85-2.59-3.84-5.08-5.9-7.51a8.38,8.38,0,0,0-1.13-5.42c-6.84-11.94-11.45-21.62-21.05-31.37,4.08.89-.66-3.18-2-5,5.1.33-2.84-4.24-3-5,3-1.58,1.63-3.55.43-7.68A190.85,190.85,0,0,1,307.07,45a6.7,6.7,0,0,0-3.58-5.47l8.08-14.33c3.57-6.32-6.13-11.37-9.87-5.28-8.33,13.61-17.88,23.87-26.24,37.47-1,1.65-3,4.33-4,6-13.84,12.52-18.78,32.78-20,52-1.27,1-.31,4.6-.52,6.31a160.81,160.81,0,0,0,16.26,92.69,7.48,7.48,0,0,0,6.32,4.31c.47.76,1,1.5,1.47,2.24,1.35,2-.53,7.41,1.47,7.45.14,1.75,4.15-1.09,4.37.66a7.15,7.15,0,0,0,5.6,6.14c2.06-10.77,7.84-20.45,15.5-28.39a1.66,1.66,0,0,1,.35-.51c.64-.61,1.29-1.2,2-1.78a78.35,78.35,0,0,1,17.05-12.21A80.53,80.53,0,0,1,349,183.52a46.59,46.59,0,0,1,8.67-.22c2.39-.16,4.76-.24,7-.28a86.72,86.72,0,0,1,8.9.25c4.9-4.15,11.53-6.7,17.45-8.54,1.7-.53,3.52-1.07,5.4-1.54A2.84,2.84,0,0,0,395.46,170.39Z"/></g><g id="Capa_42" data-name="Capa 42"><path class="cls-3" d="M309.18,13.88a112.71,112.71,0,0,0,2.18,82.06c5.88,13.82,14.76,26,24.16,37.66,8.9,11,18.82,21.75,30.58,29.77,12.83,8.74,28.78,10.71,43.86,12,5.77.5,5.74-8.51,0-9-16.65-1.45-32-4.35-45.19-15.32s-24.5-24.68-34.11-38.86c-19.3-28.45-24.62-63.4-12.8-95.94,2-5.45-6.71-7.8-8.68-2.39Z"/><path class="cls-3" d="M311,9.4c-28.41,23.05-50.78,54.1-61.73,89.15-10.23,32.71-7.86,66.6,4.65,98.37,6.63,16.82,15.67,32.69,27.82,46.15,3.89,4.31,10.24-2.07,6.37-6.36-20.45-22.64-32.95-53.81-36-84C249,120.22,259.58,87.81,277,60.63A189.88,189.88,0,0,1,317.4,15.76c4.5-3.65-1.9-10-6.36-6.36Z"/></g><path class="cls-4" d="M329.79,145.83c-9-13.23-18.71-25.7-24.2-40.94-5.85-16.23-8.35-34.4-9.52-51.5,0-.54-.92-.75-1-.14-1.37,8.41.31,17.18,1.43,25.55,1.23,9.14,2.77,18.26,5.78,27a116.57,116.57,0,0,0,25.56,41.55C328.78,148.36,330.6,147,329.79,145.83Z"/><path class="cls-5" d="M303.05,191.43c-4.77-5.05-9.69-9.45-13.56-15.34a142.32,142.32,0,0,1-9.82-18.35c-6.19-13.34-9.39-27-13-41.19a.56.56,0,0,0-1-.15.44.44,0,0,0-.14.22c-3.6,14.73-2.46,32-.43,46.86a180.82,180.82,0,0,0,3.58,18.73,32.17,32.17,0,0,0,2.12,7.91,94.84,94.84,0,0,0,5.75,16.14c.49,1.65,1.35,3.3,1.92,4.71,1,2.5,1.84,6.09,4,7.79a.5.5,0,0,0,.84-.35c0-.16,0-.33,0-.49,3.15-3.92,5.24-8.69,8.52-12.62,3.48-4.19,7.63-7.76,11.1-11.93a1.19,1.19,0,0,0,.3-.77A.88.88,0,0,0,303.05,191.43Z"/></g></g></g><g id="Layer_94" data-name="Layer 94"><g id="Cuerno"><rect class="cls-6" width="464" height="265"/></g></g></g></g></svg>