<svg xmlns="http://www.w3.org/2000/svg" viewBox="0 0 275 259.5"><defs><style>.cls-1{isolation:isolate;}.cls-2{fill:#c7b299;stroke:#42210b;stroke-linejoin:round;}.cls-2,.cls-4,.cls-5{stroke-linecap:round;}.cls-2,.cls-4{stroke-width:7.72px;}.cls-3{fill:#a67c52;}.cls-4,.cls-7{fill:none;}.cls-4{stroke:#754c24;}.cls-4,.cls-5{stroke-miterlimit:10;}.cls-5{fill:#f15a24;stroke:#c1272d;stroke-width:2.83px;}.cls-6{fill:#f7931e;}.cls-7{mix-blend-mode:multiply;opacity:0.4;}</style></defs><g class="cls-1"><g id="Layer_2" data-name="Layer 2"><g id="Variacion_A" data-name="Variacion A"><g id="AssetsW3"><g id="LoinW3"><path class="cls-2" d="M16.42,207.54C19.35,214,27.5,217.86,31.07,219.6c8.77,4.25,24.54,2.22,34.18,5.62,15.88,5.62,34.09,7.94,50.78,9.65s34.9,3.92,40.06,4.6,73.41,2.49,82.4-5.86,16.57-23.74,18.17-34.91-3-27.1-2.93-27.33c1-6.43,3.86-17.06,2-20.89,0-.07-22.48-23.33-41.85-27.66s-17-4.32-17-4.32-31.3-17.11-48.18-17.16-22,4-22,4-23.38-11-43.13-7S55.3,115.07,55.3,115.07s-23.94,7-32,15.75-9,24.37-9,24.37-5,8.51-5.15,12.59C8.05,195.43,13.26,200.6,16.42,207.54Z"/><path class="cls-3" d="M76.48,184.64s24,3.7,37.11,6.42A167.79,167.79,0,0,0,137,194.28s-.17-20.3.54-28.05,2.51-11.74,1.33-13.95-22.51-12.85-24.13-14.14-11.24-1.66-11.46-.21,16.78,9.42,18.55,14.7.86,20-11.1,24.7S80,179.49,80,179.49Z"/><path class="cls-3" d="M140.94,195.89s23.56,5.26,34.18,6.43a45,45,0,0,0,19.53-2.41s-8.19-33-7.88-36.09-31.17-10.46-31.17-10.46S179,165,180.06,167.83s-3,19.33-7.22,21.22-32.13-6.55-32.13-6.55Z"/><path class="cls-3" d="M199.15,189.84l4.57,14.46s16.38,4.32,24.74-2.2,14.67-12.51,15.24-15.23-26.34-34.8-26.34-34.8l-19.71,8s11.28-.76,14.7.11,15.49,9.86,16.71,13.24-5.83,11.75-11.27,13.21-21.41-2.17-21.41-2.17Z"/><path class="cls-3" d="M223.47,130l-1.25,15.55s1.43-7.25,7.45-4.45,13.72,9.83,14.59,15.13-1.72,17.1-1.72,17.1l4.07,8.23,3.7-9.78,3.91-19.29s-8.84-7.39-15.18-14.08S223.47,130,223.47,130Z"/><path class="cls-3" d="M61.92,118.49s19.13,5.37,25.24,9.66l6.11,4.28S79,173.23,77.89,172.31s-2.56,12-18,9.91c-29.3-4-40.05-26.26-40.05-26.26s.14-10.24,4.07-15.37,6.29-6.17,6.29-6.17,8.66,17.11,20.13,17.84,20.36,3.49,25.51-6.24S61.92,118.49,61.92,118.49Z"/><path class="cls-3" d="M97.29,131s1-3.83,10.66-10.79A89.7,89.7,0,0,1,126.14,110l-9.59-2.44s-12.54,14.9-21,12.76-30.79-6-30.79-6S83.84,121.2,89.89,124,97.29,131,97.29,131Z"/><path class="cls-3" d="M106.59,133.36s10.1,2,20,5.08a59.42,59.42,0,0,1,17.6,9.34l-3.14-34-10.46-2.66s10.07,9.76,5.59,12.5-21.4,1.59-21.4,1.59Z"/><path class="cls-3" d="M147.55,114.34s11,4.52,18.93,4.81,11.41.53,11.41.53l8,38.71s-25-7.13-28.92-7.36a30.12,30.12,0,0,1-8.45-2.15l-.32-14.39s20.49,13.95,23.23,7.66,1.11-16.35-5.44-18.26-18.85-5.6-18.85-5.6Z"/><path class="cls-3" d="M182.37,120.82l10.74,34.54s14-4,16.36-7.59-4.63-14.9-7.7-17a37.29,37.29,0,0,0-5.05-2.9s5.83,14.61.95,12.69S182.37,120.82,182.37,120.82Z"/><path class="cls-3" d="M200.06,122.14l19.8,5-3.66,12.93s-.32-4.52-5.72-8.38A73.35,73.35,0,0,1,200.06,122.14Z"/><path class="cls-3" d="M147.91,110.76a82.55,82.55,0,0,0,15,1.94c9.33.47,12.24-.69,12.24-.69s-10.67-5.26-14.77-6.3-11.86-1.12-11.86-1.12Z"/><path class="cls-4" d="M24.38,161.71S28.22,177,49,184.17c7.68,2.64,13.69,4.75,18.23,6.36a71.1,71.1,0,0,0,19.7,4,77.36,77.36,0,0,1,22.3,4.47c9.22,3.25,16.68,3.39,21.91,2.68a17.63,17.63,0,0,1,12.61,3.14c3.81,2.75,11.2,5.42,25.52,5.07l28.62-.68s24.14,3.6,34.71-3.43,11.85-11.52,11.85-11.52"/><path class="cls-3" d="M16.09,173.11c-2-.67-4.15.7-3.86,2.48.66,3.91,1.58,9.47,1.75,10.65.27,1.88,7,9.33,6.66,9.87-.26.35,6.5-3.6,11.15-6.34a2.69,2.69,0,0,0,0-4.86,59.29,59.29,0,0,1-8.07-5.31c-3-2.52-5.25-4.7-6.23-5.68a3.5,3.5,0,0,0-1.36-.81Z"/><path class="cls-3" d="M26.68,197.49s-4.26,2.7-3.91,3.22c1.42,2.09,4.61,4.93,7.55,7.5,6.12,5.36,12,4.67,12,4.67S52,195.79,50.14,196s-5.54,6.39-12.55,4.55-6-6.31-6-6.31Z"/><path class="cls-3" d="M49.12,206.61,49,214.44a58.24,58.24,0,0,0,13.57,3.17c6.2.43,14.46,2.94,15.87,2.2s-.72-15.71-.72-15.71A28.4,28.4,0,0,1,68.84,209c-4.54,1.27-8.46,2.35-11.5.67s-6.8-4.4-7.42-4.21S49.12,206.61,49.12,206.61Z"/><path class="cls-3" d="M86.07,213.17c-1.64.63-4.56.9-3,3.51s3.31,6.77,5.63,6.21,15.69.76,18.15.74,3.79-7,1.79-11.91S107,205,103,205.64s-10.37.86-10.37.86,11.06,3.39,8.88,4.63S86.07,213.17,86.07,213.17Z"/><path class="cls-3" d="M115.89,212.05a62.87,62.87,0,0,0-2,8.12c-.25,2.47-3.54,3.3.81,3.89s13.28,2.33,19.15,3.14,13.42,6.64,13.52,3.44-3.37-20.86-4-20.24-8.75-4.15-8.75-4.15,1.83,10.66-2.58,9.91S115.89,212.05,115.89,212.05Z"/><path class="cls-3" d="M149.85,221.61s-.65,10.88,1.31,11.61,16.62,1.35,17.61,1.89,3-19.57,2.66-19.5-2.88,6.8-9,6.95A75.07,75.07,0,0,1,149.85,221.61Z"/><path class="cls-3" d="M174.69,224.87s-2.62,8.69-.89,8.88,12.53-2.86,18.68-1.25,8.84-7.19,6.68-12.2-2.35-8.06-3.34-6.18-6.74,14.11-11.28,12.14-10.3-4.7-10.3-4.7Z"/><path class="cls-3" d="M203.93,221.51s-.77,9.3.59,9.65a125.43,125.43,0,0,0,14.11,1c5.39.13,6.56,2.33,6.94-1.38s-4-16.4-4.31-16.41-5.41,9.41-7.13,8.7S203.93,221.51,203.93,221.51Z"/><path class="cls-3" d="M227.8,222.48s2.09,7.13,2.07,7.32,2.23.76,5.89-5.3,7.38-15.89,7.66-18.35-6.77,4.61-7.53,5.37-2.81,7.23-3.62,8.29S227.8,222.48,227.8,222.48Z"/><path class="cls-5" d="M60.52,97.3c1.48-1.15,3-2.5,4.65-3.94,8-7.19,17.37-16.71,23.26-12,8.49,7.07-9.19,23.33-2.12,32.52,2.83,3.54,13.43.71,20.88.08,2.28,0,4.44,0,6.31.17a16.76,16.76,0,0,1,4.58.91c6.76,2.73,10.2,6.19-3.54,11.88s-27.9,10.19-27.9,10.19,6.47,42.71-1.7,40.32-24.79-28.75-29.73-30.32-30.42,13.06-35,5.3c-1.52-2.59-.37-5.87,1.84-9.11a37.83,37.83,0,0,1,3.9-4.72c18.65-9.85,6.63-24.7-.44-38.13a3.12,3.12,0,0,1,.71-3.54c10.61-3.53,18.38,12.73,28.55,5Z"/><path class="cls-6" d="M31.88,145.34a2.48,2.48,0,1,0-2.48,2.47A2.47,2.47,0,0,0,31.88,145.34Z"/><path class="cls-6" d="M84.31,87.77A3.3,3.3,0,0,0,80,85.6c-1.41.71-.71,3.54,1.69,4.33A2.39,2.39,0,0,0,84.31,87.77Z"/><path class="cls-6" d="M112.47,120.6a2.48,2.48,0,1,0-2.47,2.47A2.48,2.48,0,0,0,112.47,120.6Z"/><path class="cls-6" d="M84.19,165.84a2.48,2.48,0,1,0-2.47,2.48A2.48,2.48,0,0,0,84.19,165.84Z"/><path class="cls-6" d="M42.48,139a3.89,3.89,0,1,0-3.89,3.89A3.89,3.89,0,0,0,42.48,139Z"/><path class="cls-6" d="M42.11,106.73a2.92,2.92,0,0,0-3.37-3,4.16,4.16,0,0,0-3.59,3.75,2.93,2.93,0,0,0,3.34,3A4,4,0,0,0,42.11,106.73Z"/><path class="cls-6" d="M78.56,98.61c-.73-3.11-5.68-5.94-7.8-2.4-.71,2.82,0,5.65,3.56,5.87A4,4,0,0,0,78.56,98.61Z"/><path class="cls-6" d="M100.45,124.13A3.89,3.89,0,1,0,96.56,128,3.89,3.89,0,0,0,100.45,124.13Z"/><path class="cls-6" d="M80.66,155.24a3.89,3.89,0,1,0-3.89,3.89A3.89,3.89,0,0,0,80.66,155.24Z"/><path class="cls-6" d="M53.09,131.2a4.6,4.6,0,1,0-4.6,4.6A4.6,4.6,0,0,0,53.09,131.2Z"/><path class="cls-6" d="M51.72,113a3.87,3.87,0,0,0-4.25-4,4.89,4.89,0,0,0-4.34,4.51,3.91,3.91,0,0,0,4.17,4A4.56,4.56,0,0,0,51.72,113Z"/><path class="cls-6" d="M71.48,110.69a4.52,4.52,0,0,0-4.57-4.6,4.6,4.6,0,1,0,4.57,4.6Z"/><path class="cls-6" d="M76.42,142.51a4.6,4.6,0,1,0-4.6,4.6A4.59,4.59,0,0,0,76.42,142.51Z"/><path class="cls-6" d="M86.31,127a4.6,4.6,0,1,0-4.59,4.59A4.59,4.59,0,0,0,86.31,127Z"/></g></g></g><g id="Layer_94" data-name="Layer 94"><g id="Espalda"><rect class="cls-7" width="275" height="259.5"/></g></g></g></g></svg>