<svg xmlns="http://www.w3.org/2000/svg" viewBox="0 0 130 250.24"><defs><style>.cls-1{isolation:isolate;}.cls-2{fill:#f2ff49;}.cls-3{fill:#b3bd36;}.cls-4{fill:#faffbf;}.cls-5,.cls-6{fill:none;}.cls-5{stroke:#42210b;stroke-linecap:round;stroke-linejoin:round;stroke-width:5.57px;}.cls-6{mix-blend-mode:multiply;}</style></defs><g class="cls-1"><g id="Layer_2" data-name="Layer 2"><g id="Variacion_C" data-name="Variacion C"><g id="AssetsC4"><g id="TailA4"><path class="cls-2" d="M125,164.45l0-.08.07-.11a1,1,0,0,0-.43-1.32c-2.72-.85-6.5,2.06-9,3.18q-6.57,3-13.22,5.76-6.25,2.61-12.56,5.06c-2.3.9-5,1.55-7.27,2.84.34-.86.66-1.76,1-2.68q2.05-5.19,4.07-10.41,3.86-10,7.55-20.08c2.45-6.72,4.87-13.46,7.19-20.24,2.15-6.26,4.74-12.63,6.16-19.18l.36-.2c1.3-.75.24-2.8-1-2.48-5.19,1.35-10.26,4-15.27,6.07s-10.1,4.19-15.16,6.27c-9.05,3.74-18.51,7-27.28,11.6.34-7.15-.27-14.51-.44-21.64q-.3-13.2-.51-26.39C49.07,72,49.05,63.5,49,55c0-8.12.46-16.35,0-24.45,0-.43-.57-.36-.63,0-.27,1.67-.5,3.35-.7,5a24.75,24.75,0,0,0-.93-6.23.42.42,0,0,0-.8,0,20.87,20.87,0,0,0-.57,3.45.91.91,0,0,0-.15.39c-3.19,22.15-6.18,44.35-9.56,66.47q-2.49,16.34-5.45,32.56c-1,5.2-2,10.38-2.81,15.61-.39,2.44-.74,4.9-1,7.37-.2,1.72,0,5.06-.51,7.09l-.1.07a1.69,1.69,0,0,0-.37,2.09l.22.42a1.35,1.35,0,0,0,2,.42,3.2,3.2,0,0,0,1.16-1.63.91.91,0,0,0,.62-.13l.21-.12a7.56,7.56,0,0,0-.6,1c-.18.33,0,.78.38.71,2.94-.58,5.38-2.71,8.08-4.08s5.59-2.54,8.39-3.79c2.47-1.1,6-2.38,8.6-4.37-1.13,2.93-1.72,6.33-2.52,9.19-1.66,6-3.27,12-4.91,18q-2.33,8.52-4.65,17l-2.31,8.53c-.36,1.35-1.58,8.87-2.39,9.21a1.19,1.19,0,0,0-.75,1.15v.35a1.51,1.51,0,0,0,1.13,1.43,1.8,1.8,0,0,0,2.39,1.76c4.42,2.92,9.5,4.8,14.19,7l15.7,7.28q7.47,3.45,14.94,6.87C89,242.46,93,244.94,97,246.3l1.37-1.93c.72-1.19,1.58-2.24,2.41-3.38,1.13-1.57,2.25-3.12,3.51-4.56.56-.64,1.13-1.28,1.71-1.91q2.1-2.49,4.38-4.9c.45-.47.91-.92,1.38-1.36a42.55,42.55,0,0,1,9-8.89c.93-8.32,1.7-16.67,2.48-25,.5-5.23.95-10.46,1.39-15.69C124.93,174.12,126,169,125,164.45ZM36.82,113.26c-.29,1.59-.5,3.2-.64,4.81a1.2,1.2,0,0,0-.18.26.21.21,0,0,1,0,.06l-.16-.07q.59-3.45,1.14-6.89C36.89,112,36.84,112.65,36.82,113.26Zm10.92,17a1.38,1.38,0,0,0,.08.29l-.36.1q0-2-.06-4C47.49,127.84,47.6,129.06,47.74,130.27Zm-1.07-48.4c0,2.31.06,4.61.09,6.91q-.1-3-.22-5.91c0-1,0-1.94-.07-2.94C46.54,80.58,46.59,81.23,46.67,81.87Zm-8.22,20c-.16,1.53-.35,3.09-.55,4.67a1.25,1.25,0,0,0-.23.23c.08-.53.17-1.07.26-1.61l.57-3.8C38.48,101.58,38.46,101.75,38.45,101.92Zm11,50.42c-2,1.06-4,1.95-6,2.84l2.19-1.35.27-.09,5.54-2.65A19.08,19.08,0,0,1,49.47,152.34Zm1.65-12,1.93-1.69a1.2,1.2,0,0,0,.62.32C52.81,139.37,52,139.83,51.12,140.3ZM65.69,214l-.36-.15,2.55-2Zm6.57-68.47a1.79,1.79,0,0,0-.19-.45l.12-.73a2.72,2.72,0,0,0,.27.44Zm2.66,20h0q1.88-9.12,3.8-18.22l.28-.36c-1.22,5.41-2.44,10.82-3.59,16.25C75.25,164,75.08,164.73,74.92,165.51Zm4.51,53.56-.34,0L80,217C79.79,217.65,79.6,218.36,79.43,219.07Zm-1.14-35.86c-.18-.14-.37-.29-.57-.43.34-1.12.68-2.21,1-3.21s.74-2.14,1.12-3.2a1.24,1.24,0,0,0,.31-.1C79.23,178.6,78.29,180.58,78.29,183.21ZM97,242.43l-.45-.22a1.68,1.68,0,0,0,.71-.87h0l.09.34C97.25,241.93,97.13,242.18,97,242.43Zm4.2-50.41.27-3.63a3.23,3.23,0,0,0,0-.44h0a2.05,2.05,0,0,0,.11.7Zm5.27,24.39-.32,0c.12-1.49.23-3,.35-4.46Zm4.13-1.47c.1-1.5.19-3,.3-4.51,0,1.42,0,2.84,0,4.26Zm4.34-29.24L115,184l.32,0C115.18,184.57,115.05,185.13,114.93,185.7Zm2.5,34s0-.1-.05-.16a1.4,1.4,0,0,0-.17-.37,2,2,0,0,0,0-.49,1.89,1.89,0,0,0,.42-.71ZM119.75,168a2.59,2.59,0,0,0-.25.65l0,.17a1.4,1.4,0,0,0-1.91.45l-.08.11a6.07,6.07,0,0,0-.79-.34c.87-.37,2-.74,3.1-1.17A.93.93,0,0,1,119.75,168Zm3-.3a1.66,1.66,0,0,0-.78-.77,10.23,10.23,0,0,0,1.12-.65C122.93,166.78,122.82,167.25,122.72,167.73Z"/><path class="cls-3" d="M100.74,241c1.13-1.57,2.25-3.12,3.51-4.56l.66-.75,0-.06c0-1.94-1.23-4.22-1.79-5.76-1.56-4.31-3.4-8.5-5.2-12.69l-2.25-5.23c-1-3.41-2.11-6.73-3.37-10a80.13,80.13,0,0,0-4-9.57c-.19-.87-.38-1.75-.56-2.62a.89.89,0,0,0-.5-.68l-.09-.34a.62.62,0,1,0-1.21.24c-4.74,1.08-9.67,4.29-14.14,6.34-5.45,2.49-11.65,4.57-16.5,8.43a1.88,1.88,0,0,0,.13-.38c2.2-11,4.74-22,7.54-32.78s6.44-21.41,8.73-32.34c.12-.57-.52-.86-.75-.32,0,.11-.09.23-.14.34.07-.45.12-.9.18-1.35h0c1.73-.75.61-3.44-.86-2.83V134c-6.58,2.58-13.1,5.41-19.64,8.14-4.3,1.8-8.88,3.41-13.21,5.47,1.92-19.34,3.47-38.74,5.12-58.12q1.26-14.7,2.51-29.4c.79-9.36,2.22-19.06,1.73-28.47a.16.16,0,0,0-.32-.05c-.06.26-.1.52-.16.78,0-.8.12-1.59.15-2.39s-1-1-1.15-.26c-2.81,11.5-4,23.77-5.83,35.53S35.64,89,33.77,100.82q-2.72,17.3-5.54,34.58c-1.88,11.44-4.57,23.11-5.46,34.71a1.54,1.54,0,0,0-.17.19c-.55.65.1,1.91.85,1.36.22-.16.45-.3.68-.46a.8.8,0,0,0,.19-.13c4.77-3.27,9.93-5.38,15-8,3.39-1.76,8-3.65,11.68-6.28C48.1,166.06,46.25,176,44,185.46c-2,8.28-4.7,16.8-6.38,25.32a12.34,12.34,0,0,0-.74,2.84,1.83,1.83,0,0,0,.08.82c-.16,1.05-.32,2.09-.44,3.14a.69.69,0,0,0,1,.77c8.46,6,18.08,10.27,27.31,14.38q7.09,3.15,14.33,5.9c2.53,1,5.08,1.89,7.64,2.78,2.37.82,6.71,1.52,8.39,3.6a.6.6,0,0,0,.2.14c-.11.49.24,1,.72.89a4.82,4.82,0,0,0,1.86-.94A32.79,32.79,0,0,1,100.74,241Zm0-9.83c.21.66.49,1.65.78,2.52a12.19,12.19,0,0,1-.42-1.15,1.87,1.87,0,0,0-.5-.77A2,2,0,0,0,100.7,231.16ZM43.18,55.74,43.45,54c-.11,1.33-.22,2.66-.34,4C43.15,57.24,43.16,56.49,43.18,55.74Zm-1,12.13q-.39,4.3-.8,8.61v-.09c0-.22-.21-.37-.36-.31C41.43,73.36,41.84,70.62,42.19,67.87Zm-9.37,81.55-.26-.17c.13-.93.25-1.86.38-2.79C32.89,147.45,32.85,148.44,32.82,149.42Zm30.72,73.63h0l-.29-.11a1.75,1.75,0,0,0-.26-1.06l.59.48A1.16,1.16,0,0,0,63.54,223.05Zm8.7,10.09.41.11a2,2,0,0,0,.24,0,28.82,28.82,0,0,0,4.37,1.65q.33.25.69.48C76,234.67,74.13,233.92,72.24,233.14Z"/><path class="cls-3" d="M71.73,153.32c-2.17,10.68-4.37,21.41-7.44,31.81-.08.29.29.47.39.18a154.42,154.42,0,0,0,7.68-31.91C72.42,152.92,71.82,152.87,71.73,153.32Z"/><path class="cls-3" d="M43.79,107.34c-.69,9.14-1.32,18.47-2.62,27.53a.13.13,0,1,0,.25,0,180.75,180.75,0,0,0,2.9-27.5C44.33,107,43.82,106.94,43.79,107.34Z"/><path class="cls-3" d="M102.44,215.52c-.8-3.74-1.76-7.42-2.74-11.1-.85-3.22-1.5-6.65-3.08-9.52-.09-.18-.29,0-.29.14.09,6.74,3.24,14.5,5.54,20.67A.3.3,0,0,0,102.44,215.52Z"/><path class="cls-3" d="M119.7,170.11c-1.55,6.8-2.06,14-2.84,20.92-.84,7.56-1.73,15.17-1.91,22.79,0,.38.46.45.52.07,1.14-7.22,1.76-14.55,2.55-21.83s2.07-14.51,2.32-21.77C120.36,169.89,119.8,169.67,119.7,170.11Z"/><path class="cls-4" d="M105.69,107.37c-9.46,2.87-18.69,7.69-28,11.34-4.54,1.79-9.09,3.52-13.64,5.26-4.2,1.61-9.08,2.67-12.77,5.51-.61.47-.5,1.73.36,1.72,4.27-.08,8.6-2.27,12.64-3.73,4.85-1.75,9.66-3.62,14.47-5.5,9.3-3.64,19.32-6.78,28.11-11.83C108.35,109.3,107.1,107,105.69,107.37Z"/><path class="cls-4" d="M123.36,166c-7,.81-14.42,5-21.2,7.43q-5.59,2-11.22,3.84c-2.85,1-5.94,1.2-7.93,3.83a.52.52,0,0,0,.19.72c2.92,1.12,5.83-.53,8.72-1.44,3.77-1.18,7.53-2.44,11.28-3.74,6.65-2.3,14.9-4,20.79-8.23C124.9,167.77,124.53,165.88,123.36,166Z"/><line class="cls-5" x1="120.34" y1="224.51" x2="125.39" y2="162.27"/><line class="cls-5" x1="82.52" y1="179.78" x2="125.39" y2="162.27"/><line class="cls-5" x1="109.24" y1="105.19" x2="82.52" y2="179.78"/><line class="cls-5" x1="50.15" y1="128.45" x2="109.39" y2="104.12"/><line class="cls-5" x1="47.4" y1="26.26" x2="50.15" y2="128.45"/><line class="cls-5" x1="22.6" y1="170.3" x2="47.4" y2="26.26"/><line class="cls-5" x1="51.02" y1="156.79" x2="22.77" y2="170.11"/><line class="cls-5" x1="36.48" y1="217.58" x2="51.02" y2="156.79"/><path class="cls-5" d="M97.17,247.45,74.94,236.51,43.56,221.06l-7.08-3.48"/></g></g></g><g id="PixelsASSETS"><g id="Cola"><rect class="cls-6" width="130" height="250"/></g></g></g></g></svg>