<?xml version="1.0" encoding="utf-8"?>
<!-- Generator: Adobe Illustrator 26.0.0, SVG Export Plug-In . SVG Version: 6.00 Build 0)  -->
<svg version="1.1" id="Capa_1" xmlns="http://www.w3.org/2000/svg" xmlns:xlink="http://www.w3.org/1999/xlink" x="0px" y="0px"
	 viewBox="0 0 130 250" style="enable-background:new 0 0 130 250;" xml:space="preserve">
<style type="text/css">
	.st0{fill:url(#SVGID_1_);}
	.st1{fill:#42210B;}
	.st2{fill:#FCEE21;}
	.st3{fill:#F15A24;}
</style>
<g>
	<g id="Capa_2_00000013914016554095624910000015929452694473079687_">
		<g id="AssetsE4">
			<g id="TailE4">
				
					<radialGradient id="SVGID_1_" cx="64.5489" cy="107.44" r="83.0758" gradientTransform="matrix(1 0 0 -1 0 252)" gradientUnits="userSpaceOnUse">
					<stop  offset="0" style="stop-color:#FFFFFF"/>
					<stop  offset="9.000000e-02" style="stop-color:#FFEDD8"/>
					<stop  offset="0.21" style="stop-color:#FFD5A7"/>
					<stop  offset="0.33" style="stop-color:#FFC17D"/>
					<stop  offset="0.46" style="stop-color:#FFB05B"/>
					<stop  offset="0.59" style="stop-color:#FFA340"/>
					<stop  offset="0.72" style="stop-color:#FF9A2D"/>
					<stop  offset="0.86" style="stop-color:#FF9522"/>
					<stop  offset="1" style="stop-color:#FF931E"/>
				</radialGradient>
				<path class="st0" d="M88.7,245.7c-3.4,0.1-6.9-0.5-10.1-1.7c-7-3.1-24.8-16.9-25.6-17.5c-0.4-0.3-0.8-0.8-1-1.3
					c-0.2-0.1-0.3-0.2-0.5-0.3c-0.1-0.1-8.3-6-13.6-9.9c-5.7-4.2-7.6-7.2-7.8-7.6c-0.9-1.5-0.4-3.4,1.1-4.3c0.5-0.3,1-0.4,1.6-0.4
					l0,0c0.5-1.1,1.6-1.8,2.8-1.8c0.2,0,0.4,0,0.6,0.1c0.1,0,8.2,1.6,12.2,2.1c2.6,0.6,5.2,1.5,7.6,2.6c-5.1-6-10.7-12.7-12.2-15.1
					c-2.5-3.9-17-21.2-19.3-23.9c-1.3-1.3-1.2-3.4,0.1-4.6c0.7-0.6,1.5-1,2.4-0.9c0.9,0.1,1.8,0.2,2.6,0.5
					C18.9,148,8.4,135,6.6,133.6c-1.6-0.9-2.2-2.9-1.3-4.6c0.6-1.1,1.9-1.8,3.2-1.7c3.5,0,15.4,4.2,21.7,9.7
					c4.5,3.9,18,19.2,28.8,31.7c-0.2-0.6-0.5-1.4-0.9-2.2c-3.8-9.5-12.7-31.8-22.3-59.7C25,75.4,26.3,55,27.4,47.7
					c0.4-2.9,1.7-4.3,3.7-4.3c3.2,0,4.2,3.2,5.7,12.8c0.2,1.2,0.4,2.3,0.5,3.5c0.8,5.9,2,11.7,3.8,17.4c2.1,6.9,8.5,21.9,13.2,32.9
					c2.3,5.3,4.1,9.5,5,11.8c1.3,3.5,11.3,21.7,20.7,38.5c-0.8-2.8-1.6-5.5-2.1-6.8c-0.1-0.3-0.3-0.7-0.5-1.2
					c-3.3-8.7-7-17.3-11.1-25.6c-7-14.1-9-33.8-9.1-34.6c-0.1-1.4,0.7-2.7,2-3.2c0.4-0.1,0.7-0.2,1.1-0.2c1,0,1.9,0.5,2.5,1.2
					c0.5,0.7,12.2,16.3,15.1,22c1.3,2.6,6.1,12.5,10.7,22.1c6.2,12.9,8.1,16.9,8.7,18.6s2.6,5.9,4.9,11.9c0.8,2,1.6,4.8,2.5,8
					c0.5-13.6,3.2-39.2,3.3-40.3c0.1-1.4,1.3-2.6,2.7-2.8c0.1,0,0.3,0,0.4,0c1.3,0,2.4,0.8,2.9,2c2.8,8,4.9,16.1,6.3,24.4
					c1.4,7.5,2.3,15.1,2.8,22.7c0,0.4,0,0.8-0.2,1.1l-0.7,2l1,1.4c0.3,0.4,0.5,0.9,0.6,1.4c0.3,2.7,0.4,5.4,0.4,8.2
					c0,5.4-2.9,26.2-3,27.1c-0.1,0.6-0.4,1.2-0.8,1.7c-6.4,7-13.5,15.6-14.4,17.9c-2.3,6.5-15.7,6.7-17.2,6.7L88.7,245.7z"/>
				<path class="st1" d="M31.1,46.5c0.8,0,1.9,5.4,2.7,10.2c1,6.3,1.3,10.9,4.5,21.2s15.6,38,18.3,44.9s34.7,63.5,34.7,63.5
					s-4.6-14.8-5.8-18.9S82,155,81,152.3c-3.4-9.2-7.3-18.3-11.7-27.1c-6.8-13.8-8.8-33.5-8.8-33.5s12,16,14.8,21.5
					s19.3,39.8,19.3,40.4l0,0c-0.1-0.3-0.2-0.5-0.2-0.5s0.1,0.7,0.2,0.7s0-0.1,0-0.2c0.6,1.4,2.5,5.8,4.9,11.8
					c2.9,7.4,7.5,29.1,7.5,29.1s0.5-7.8,0.9-21.1s3.3-41.2,3.3-41.2c2.7,7.8,4.8,15.8,6.2,23.9c1.4,7.4,2.3,14.8,2.8,22.3l-1.3,3.6
					l1.9,2.7c0.3,2.6,0.4,5.1,0.3,7.7c0,5.2-3,26.7-3,26.7s-13.4,14.7-15,19c-1,2.9-7.8,4.6-14.3,4.6c-3,0.1-6-0.4-8.8-1.5
					c-6.8-3-24.9-17.1-24.9-17.1l2.6-1.7h-4.1c0,0-8.2-5.9-13.6-9.9s-7-6.7-7-6.7l6.9,1.6l-4.1-3.4c0,0,8.3,1.6,12.3,2.2
					s19.7,8.3,19.7,8.3S49.2,193.4,46.4,189s-17.9-22.4-19.5-24.2c-0.2-0.3-0.1-0.4,0.2-0.4c1.8,0,11.7,4,11.7,4s-27-35-30.2-37.4
					c-0.6-0.5-0.6-0.7,0-0.7c2.4,0,13.6,3.6,19.7,8.9c7.5,6.5,43,48.4,43,48.4s-6.9-14-8.9-19s-12.4-30.4-23.6-63s-9-52.6-8.2-57.6
					C30.6,46.9,30.8,46.4,31.1,46.5 M31.1,40.2c-1.4,0-5.8,0.5-6.8,7c-3.3,22.7,4.9,49.9,8.5,60.6C39,125.9,45,141.6,49.4,153
					c-7.4-8.4-14.2-15.8-17.2-18.4c-7.1-6.1-19.6-10.4-23.7-10.4c-2.9-0.1-5.5,1.7-6.4,4.4c-0.9,2.8,0.2,5.8,2.6,7.4
					c1.9,1.7,9.9,11.7,18.9,23.1c-1.1,0.7-2,1.6-2.5,2.8c-1,2.3-0.6,5,1.1,6.9c2,2.3,16.6,19.8,19,23.5c0.9,1.4,3.1,4.2,5.8,7.5
					c-4.1-0.7-10.1-1.8-10.1-1.8c-0.4-0.1-0.8-0.1-1.2-0.1c-1.7,0-3.4,0.7-4.6,2c-3.3,1-5.2,4.4-4.2,7.7c0.1,0.5,0.4,1,0.6,1.4
					c0.4,0.6,2.6,4,8.6,8.5c5,3.7,12.6,9.2,13.5,9.8c0.4,0.6,0.9,1.2,1.4,1.6c1.9,1.5,19,14.7,26.2,17.9c3.6,1.4,7.5,2.1,11.3,2
					c3.7,0,7.4-0.5,11-1.5c4.9-1.5,7.9-3.9,9.1-7.2c1-2.2,7.9-10.6,13.8-16.9c0.9-0.9,1.4-2.1,1.6-3.3c0.3-2.2,3-22,3.1-27.5
					c0.1-2.9-0.1-5.8-0.4-8.6c-0.1-1-0.5-1.9-1.1-2.7l0,0l0.2-0.5c0.3-0.7,0.4-1.5,0.4-2.3c-0.5-7.8-1.4-15.5-2.8-23.1
					c-1.5-8.5-3.6-16.9-6.5-25c-0.9-2.4-3.2-4-5.8-4c-0.3,0-0.5,0-0.8,0c-2.9,0.4-5.1,2.7-5.4,5.5c-0.1,0.8-1.3,13.1-2.3,25.2
					c-1.1-2.6-1.9-4.5-2.3-5.5c-0.8-2.2-3-6.7-8.8-18.9c-4.7-9.6-9.5-19.5-10.8-22.1c-2.9-5.9-14.1-20.8-15.3-22.5
					c-2.1-2.7-5.9-3.3-8.7-1.2c-1.7,1.3-2.7,3.4-2.4,5.6c0.6,5.2,1.5,10.3,2.6,15.3c-4.6-10.8-10.7-25-12.7-31.5
					c-1.8-5.5-3-11.2-3.7-16.9c-0.2-1.1-0.3-2.3-0.5-3.5c-0.3-2-0.8-5-1.4-7.4S36.5,40.3,31.1,40.2L31.1,40.2z"/>
				<path class="st2" d="M61.2,93.2C61,93,60.6,93,60.4,93.2c-0.1,0.1-0.2,0.3-0.2,0.4c0.3,7,1.8,32.9,7.1,43.3
					c6.2,12,22.8,42.9,27.2,58.2c3.4,11.8,6.8,32.2,8.2,41.2c0.1,0.3,0.4,0.5,0.7,0.5c0.2,0,0.4-0.2,0.5-0.5
					c1.1-11.9,3.6-43.6,0.5-54.6c-5.2-18.3-12.4-30.7-21.7-53.1c-3.4-7.9-7.3-15.5-11.8-22.8l0,0L61.2,93.2z"/>
				<path class="st3" d="M26.9,164.8c0,0,28,5.8,39.1,12.2s26.6,51.2,26.6,51.2l-28.1-16.4L26.9,164.8z"/>
				<path class="st1" d="M114.1,225.9c0,0-1.1-39.7-1-49.6s0.2-15.9,0.2-15.9l3.3,61.8L114.1,225.9z"/>
				<path class="st1" d="M106.7,177.3c0,0,0.5,25.4,0.7,27s3.9,2.5,3.9,2.5l-3.1,0.9c0,0,0.6,15.6,1.9,17.7s0,3.1,0,3.1
					s-5.5-26.2-5.7-33.2s-3-23.7-3-23.7L106.7,177.3z"/>
				<path class="st1" d="M58.5,159.2c0,0,15,35.6,22.1,44.8s9.3,11.3,9.3,11.3l4.5-2l-2.2,3c0,0,4,5.3,8.2,11s5.9,3.9,5.9,3.9
					s-15.5-45.3-24-60.6s2.1-6.4,2.1-6.4l24.7,67.5l-5.4,3.9c0,0-26.2-30.6-27.5-32.7s-14.7-25.9-18.5-30.9s-4-8.1-4-8.1L58.5,159.2
					z"/>
				<path class="st1" d="M39.6,93.5c0,0,24.2,66,33.8,81.9s32.4,58.6,32.4,58.6S83,187.5,73.6,169.6S39.6,93.5,39.6,93.5z"/>
				<path class="st1" d="M26.9,164.8c0,0,22.3,7.8,28.8,10.7l6.5,2.9l0.1,5.4l2.7-2.7l-3.6-8.4L29.9,161L26.9,164.8z"/>
				<path class="st1" d="M54.3,206.2l13.4,8.4c7.5,2,14.7,5.2,21.2,9.3l11.5,7.2l-5.5-9.2l-42.5-18.7L54.3,206.2z"/>
				<path class="st1" d="M37.9,171.4c0,0,22.4,18.3,33.2,28.4s20.8,20.7,20.8,20.7l-40.1-32.3L37.9,171.4z"/>
				<polygon class="st1" points="55.7,169.1 20.1,138.4 51.8,169.1 				"/>
				<path class="st1" d="M99.5,234.8c0,0-55.4-26.4-52.2-23s48.8,25.8,48.8,25.8L99.5,234.8z"/>
				<path class="st1" d="M100.5,205.9c0,0-11.4-43.7-12.5-47.8s-7.2-21-7.2-21s13.8,37.2,18.3,53.7s7.7,34.4,7.7,34.4L100.5,205.9z"
					/>
			</g>
		</g>
	</g>
</g>
</svg>
