<svg xmlns="http://www.w3.org/2000/svg" viewBox="0 0 130 250"><defs><style>.cls-1{isolation:isolate;}.cls-2{fill:#707070;}.cls-3{fill:#9d9d9d;}.cls-4{fill:#d9d9d9;}.cls-5{fill:#42210b;}.cls-6{fill:none;mix-blend-mode:multiply;}</style></defs><g class="cls-1"><g id="Layer_2" data-name="Layer 2"><g id="Variación_B" data-name="Variación B"><g id="AssetsB4"><g id="TailA4"><path class="cls-2" d="M116.13,220.43l.88-.67c.23-.23.47-.45.7-.69s.71-.71,1.07-1a1.87,1.87,0,0,0-.49-.58l-.26-.21a1.7,1.7,0,0,0-.74-1.11l-1.6-1c.15-3-2.07-7.42-4.61-7.49a3.93,3.93,0,0,0-2.37-.78c-.08-.1-.17-.19-.25-.3a1.74,1.74,0,0,0-3,.38,4.29,4.29,0,0,0-.62-1,4.34,4.34,0,0,0-1-1.17,1.05,1.05,0,0,0-.31-.17,2,2,0,0,0,.07-1.27c3-3.67,5.16-11.69.82-13.62h-.08c.61-1.1,1.16-2.22,1.69-3.37a75.92,75.92,0,0,0,4.77-6.58c3-4.63,5.69-11,5.9-16.63,0-.37-.49-.66-.74-.35a20,20,0,0,0-2.22,3.51c.34-1.12.68-2.24,1-3.38a.79.79,0,0,0,0-.37,21.23,21.23,0,0,0,.53-3.78c.14-2.55,0-11.44-3.77-11.18a.88.88,0,0,0-.65.36,11.75,11.75,0,0,0-2.37-2.11,1.9,1.9,0,0,0-.68-1.2,10.27,10.27,0,0,0-2.14-6.55c-1.77-2.22-5-6.46-8-6.63.1-.28.18-.56.28-.84,1.55-2.18,1.83-5.46,1.83-8.18,0-4.11-.43-7.9-3.91-10.29a2.21,2.21,0,0,0-.35-.16,1.42,1.42,0,0,0-.12-.13,1.49,1.49,0,0,0-.2-.15c.09-.47.17-.94.23-1.41,4.78-5.8.93-19.4-5.31-22.05a.92.92,0,0,0-1.14.5c-.41-.53-.78,0-1.27-.53C81.92,82.47,70.1,83.7,63,84.74c-6.55,1-15.53,2.77-19.88,8.65h0c-3.32-.71-6.47,1.06-9.52,2.73-4.09,2.24-8.27,4.4-12.21,6.93a37.89,37.89,0,0,0-9.21,8.49c-2.46,3.11-5.92,7.5-6.28,11.66a4,4,0,0,0,.43,2.18c-.06.1-.12.2-.17.3a4,4,0,0,0-.33,3.07,4.43,4.43,0,0,0-.58,2.17c-1.17,5.25,1.88,11.54,7.39,12.63a6.12,6.12,0,0,0,.69,3.95,24.42,24.42,0,0,0,3.22,4.8,30.41,30.41,0,0,0,2.86,3.12h0c-1.91,3.28-.74,6.58,1.26,9.47a23.22,23.22,0,0,0,1.94,4c.36.61.79,1.29,1.29,2-1.48,3.78.95,7.44,4.1,9.46,2.91,1.86,6.31,2.12,9.67,1.92,0,0,0,0,.06.05a16,16,0,0,0,7.58.85,25.68,25.68,0,0,0,3.38-.5l.74-.14c.43-.09.83-.16,1.17-.21,1.25-.18,2.59-.36,3.94-.61,1.15,2.34,2.36,4.5,4.68,5.73l.31.15a2.11,2.11,0,0,0-.2.29.31.31,0,0,0-.13.06l-.21-.35a.5.5,0,0,0-.93.24c-.22,2.92,1.63,6.82,4.15,9.54a1.69,1.69,0,0,0-.59.77c-1.65,4,0,9.2.88,13.47a1.36,1.36,0,0,0-.44.11.81.81,0,0,0-1.27,0,20.55,20.55,0,0,0,.21-3.52.36.36,0,0,0-.61-.19c-1.86,2.32-1.28,5.45-.34,8.1.89,2.48,2.09,5.75,4.76,6.51a.46.46,0,0,0,.55-.34,1.37,1.37,0,0,0,1.33.06,1.44,1.44,0,0,0,.51.32c1.1.39,2.22.89,3.37,1.33a10,10,0,0,0,2.5.79l.14,0a.85.85,0,0,0,.3,1.29l.08.05a1.42,1.42,0,0,0,.61.8c.53.34,1.06.64,1.59.91a4,4,0,0,0,2.8,1.53c5,2.88,10.67,1.2,15.62-2.2a1.76,1.76,0,0,0,.67-.1c2-.73,3.75-2.65,5.45-3.8a3.18,3.18,0,0,0,2.65,2.13,4,4,0,0,0,1.64-.18l.18.06.59.25v0l.47.14a1.39,1.39,0,0,0,1.28-.29,1.29,1.29,0,0,0,1.21-.41l.48-.52a1.66,1.66,0,0,0,1.6.69,5,5,0,0,0,1-.26l.55-.5A18.58,18.58,0,0,1,116.13,220.43Zm-38.28,5.31-1.78-.81.36-.06a14.16,14.16,0,0,0,1.61.19c0,.11,0,.22,0,.33A.86.86,0,0,0,77.85,225.74ZM106,212.55a2,2,0,0,0-.3-.42,9.37,9.37,0,0,0,.21-1.08l.12.12.45.32C106.36,211.85,106.19,212.2,106,212.55Z"/><path class="cls-3" d="M93.37,92.13a.41.41,0,0,0-.63.32,10.14,10.14,0,0,0-1.67-2c-.3-.29-.7-.07-.67.35.46,5,1.9,8.91.94,14.07a45.47,45.47,0,0,1-6.27,15.69c-5.32,8.15-11.33,16.3-18.78,22.39-.88.71.2,2,1.09,1.55,5.78-2.74,10.73-7.94,14.89-13.68a21.67,21.67,0,0,0-.93,2.4c-.23.7.63,1.56,1.26,1.07,4.27-3.25,6.85-9.68,9-14.62a55.68,55.68,0,0,0,2-5.34C97.56,107.58,99.82,97.35,93.37,92.13Z"/><path class="cls-3" d="M37.35,153.23c-4.52.37-9,1-13.45-.3-4.86-1.4-6.58-4.63-9.89-8.1a.48.48,0,0,0-.82.44c2,10.77,16.41,13.8,24.45,9.29C38.18,154.25,38,153.18,37.35,153.23Z"/><path class="cls-3" d="M91.31,162.41c-10.92,6.13-21.16,11.2-33.43,13.79-5.78,1.23-12.21,2.85-18.13,2.69-6.45-.18-10.91-2.5-15.85-6.52-.3-.24-.66.1-.62.44A6.69,6.69,0,0,0,25.67,177a.52.52,0,0,0-.48.64c.39,3.22,5,3.91,7.51,4.45,3.18.68,7.19,1.18,10.5.16C48.41,183,54,182.05,59,181c5.34-1.17,12.54-2.83,17-6.68,6.17-2.45,11.88-5.83,16.19-10.69C92.64,163,92,162,91.31,162.41Z"/><path class="cls-3" d="M102.49,136.2a.43.43,0,0,0-.74.4c2,7.69,3.4,14.52-.32,22-2.91,5.85-7.92,10.26-12.62,14.31-.59.5,0,1.61.72,1.38C102.72,170.06,112.9,148.49,102.49,136.2Z"/><path class="cls-3" d="M79.86,187.13c-5.14,1-9.3,1.89-14.45.27a89.9,89.9,0,0,1-9.74-4.2c-.33-.14-.56.26-.45.55,1.49,4,6.85,5.38,10.41,6.44,5.11,1.52,10.52,1.62,14.91-1.75C81.17,188,80.51,187,79.86,187.13Z"/><path class="cls-3" d="M115.07,164.94c-3.13,9.17-9,15.84-16,21.92-7.67,6.64-16.59,7.46-25.86,9.52-.81.18-.72,1.52.06,1.68,9.58,2,21-2.85,28.31-9.29,7-6.16,14.43-13.45,14.79-23.66A.64.64,0,0,0,115.07,164.94Z"/><path class="cls-3" d="M92.42,210.49c-5.71,2.12-12,5.11-18.11,3.44-2.24-.61-5.31-1.65-7.16-3.25-3.82-3.3-3.63-7.48-3.87-12.22,0-.26-.37-.37-.45-.1-2.53,8.08,1.16,13,7.81,16.1,7.06,3.32,15.79,1.13,22.09-3.14C93.1,211.06,92.9,210.32,92.42,210.49Z"/><path class="cls-3" d="M105,189.51c-.1-.2-.35-.1-.38.09-.28,1.68-.15,3.41-.5,5.07a10.46,10.46,0,0,1-4,6A35.59,35.59,0,0,1,89.22,206c-.4.12-.37.82.09.8a20.44,20.44,0,0,0,11.47-4.33l.12-.09a13.79,13.79,0,0,0,1.8-1.65C105.38,197.85,106.69,193.33,105,189.51Z"/><path class="cls-3" d="M101.11,221.28C97.4,223.1,93.94,226,90,227.13c-7,2-11.53,1.29-18-1.67a.32.32,0,0,0-.45.2,1.89,1.89,0,0,1-.21-.09c-.2-.08-.28.2-.15.32.63.58,1.17,1.44,1.8,2.07a13.64,13.64,0,0,0,1.45,1.29,7.18,7.18,0,0,0,4.2,1.56.58.58,0,0,0,.38-1,3.32,3.32,0,0,0-.82-.63c8.13,2.21,17.75-.9,23.69-6.91A.65.65,0,0,0,101.11,221.28Z"/><path class="cls-3" d="M110.8,207.33a.24.24,0,0,0-.3.28c.19,1.17.89,1.86,1.17,3a8.39,8.39,0,0,1-.58,5.16c-1.2,2.79-3.67,4.49-5.61,6.65a.65.65,0,0,0,.61,1.08,10.94,10.94,0,0,0,7.38-8.22C114,212.91,113.6,208,110.8,207.33Z"/><path class="cls-3" d="M96.2,113c-.17-.25-.59-.15-.51.19,2,9-3.67,19.15-9.29,25.55-5.23,5.95-11.62,9.74-18.21,13.75a.55.55,0,0,0,.38,1c9-2.19,17.08-8.84,22.53-16.52C95.1,131.3,100.76,119.79,96.2,113Z"/><path class="cls-3" d="M55,165.88a38.85,38.85,0,0,1-16.28,2.84c-6.21-.4-16.83-1.87-16.89-10.47,0-.23-.35-.34-.4-.09-1.4,6.72,5.31,9.55,10.43,10.76,7.73,1.83,16.34,1.69,23.37-2.39C55.51,166.35,55.33,165.74,55,165.88Z"/><path class="cls-3" d="M53,125.68c-7.89,6-16.14,10.89-25.82,12.93-6.05,1.28-15.3,1.72-17.36-6.33-1.64-6.44,2.68-13.38,5.32-18.88a.2.2,0,0,0-.33-.22c-6,7.52-11.84,23,.85,27.26,6.22,2.1,14-.17,19.85-2.34a45.53,45.53,0,0,0,18.1-11.56C54,126.12,53.47,125.31,53,125.68Z"/><path class="cls-3" d="M80.36,92.62c-8.36-4.45-22.9-.25-30,5.08-.32.23-.17.92.28.75C58,95.59,64.79,92.21,72.9,92.54a15.64,15.64,0,0,1,6.78,1.36,9.09,9.09,0,0,1,4.41,7.91c-.16,3.5-3.76,8.31-5.16,11.38-.21.46.36,1.08.73.61C84.54,107.54,89.58,97.53,80.36,92.62Z"/><path class="cls-3" d="M38.21,124c-3.59,1.11-20.09,6.92-20.71-.62a.17.17,0,0,0-.33,0c-1.81,8.22,18.5,2.32,21.19,1.07C38.59,124.3,38.46,123.89,38.21,124Z"/><path class="cls-3" d="M44.65,101.54c-8.79,2.46-16.28,7.83-23.24,13.76-.23.19.05.62.29.45,3.47-2.38,6.83-5,10.43-7.17,4.11-2.47,8.62-4,12.75-6.42C45.19,102,45,101.43,44.65,101.54Z"/><path class="cls-3" d="M67.91,133.37c-6.26,4.46-12.34,8.62-19.56,11.25s-14.53,3-22.11,3.85c-.27,0-.2.44,0,.48,14,2.23,32-4.82,41.93-15.12C68.42,133.62,68.17,133.18,67.91,133.37Z"/><path class="cls-3" d="M92.44,145.67C84,153.3,75.16,159.09,65.52,164.84c-.28.17-.13.71.2.59,10.11-3.91,19.64-11.26,27-19.44C92.9,145.79,92.64,145.48,92.44,145.67Z"/><path class="cls-3" d="M110.66,159.56c-4.7,8.82-15,15.34-22.38,21.42-.29.24,0,.71.37.55,4.94-2.66,9.36-7.34,13.56-11.14,3.45-3.14,7-6.18,8.84-10.63C111.14,159.53,110.78,159.34,110.66,159.56Z"/><path class="cls-3" d="M99,213.61c-4.24,3.63-8,8.86-12.65,11.92-.21.13,0,.48.17.36a34.5,34.5,0,0,0,13-11.84A.34.34,0,0,0,99,213.61Z"/><path class="cls-3" d="M71.21,218.48c-4.16.05-7.46-2.23-10.71-4.73-.19-.15-.39.18-.2.33,3.2,2.6,6.67,5.06,10.88,4.83C71.44,218.89,71.47,218.48,71.21,218.48Z"/><path class="cls-4" d="M63.62,88A69.72,69.72,0,0,0,41.24,97c-6.56,4.11-14,8.47-19.5,14.12-.19.19.08.52.27.33,5.39-5.3,12.51-9.45,19-13.16,7.25-4.19,14.59-8.13,22.72-10.07C63.85,88.2,63.8,87.91,63.62,88Z"/><path class="cls-4" d="M79.85,95.92c-1.43,4.58-2.68,8.52-5.69,12.31-3.16,4-7.24,6.84-11,10.08a.41.41,0,0,0,.46.67c7.56-4.19,17.16-13,16.66-23C80.22,95.78,79.92,95.68,79.85,95.92Z"/><path class="cls-4" d="M68.64,128.15c-7.59,7.71-17.53,10.53-26.67,15.58-.33.18-.13.8.24.67,9.3-3.35,20.54-7.59,26.81-15.91C69.19,128.26,68.84,128,68.64,128.15Z"/><path class="cls-4" d="M63.47,141c-8.87,4.39-17.39,8.07-27.08,10-.17,0-.16.35,0,.34,9.59-.55,18.81-5.58,27.17-10.11C63.74,141.19,63.63,140.94,63.47,141Z"/><path class="cls-4" d="M95.08,117.08c-5.41,14.38-18.31,23.75-29.36,32.81a.31.31,0,0,0,.34.5c12-6.73,25.13-19.2,29.34-33.19A.17.17,0,0,0,95.08,117.08Z"/><path class="cls-4" d="M59.07,157.08c-4.77,2.08-9.55,4.33-14.55,5.71-5.26,1.45-12.62,3.43-17.81,1-.15-.07-.28.19-.13.28,4.17,2.52,10.26,1.12,14.69.11a75.8,75.8,0,0,0,17.94-6.75A.17.17,0,0,0,59.07,157.08Z"/><path class="cls-4" d="M79.87,163.6a132,132,0,0,1-19.18,8.28c-5.59,1.81-11.35,2.34-17,3.89-.14,0-.14.27,0,.28,6.29.18,12.87-1.91,18.82-3.83A73.22,73.22,0,0,0,80.06,164C80.29,163.84,80.11,163.47,79.87,163.6Z"/><path class="cls-4" d="M98.74,133.35c0-.27-.41-.17-.39.09.88,9.65-4.68,17.67-9.24,25.27-.19.32.25.74.5.44C95.47,152.26,100,142.9,98.74,133.35Z"/><path class="cls-4" d="M100.87,152.27c-5.79,12.12-16.61,19.11-27.46,25.28-.26.15-.12.64.19.54,12-4,22.76-13.21,27.65-25.63C101.33,152.23,101,152,100.87,152.27Z"/><path class="cls-4" d="M86.7,180.34c-7,6.35-18.25,3.54-26.52,2.5-.13,0-.21.19-.09.27,4.26,2.56,10.16,2.28,14.91,2.21s8.81-.81,12-4.62C87.2,180.47,86.93,180.13,86.7,180.34Z"/><path class="cls-4" d="M85.24,203.44c-7,.32-15.16-3.4-20.08-8.76a.18.18,0,0,0-.27.24c2.69,3.3,6.57,5.31,10.26,7.12,3.27,1.6,6.56,2.8,10.12,1.81C85.47,203.8,85.47,203.43,85.24,203.44Z"/><path class="cls-4" d="M103,193.57c-5.5,7.85-13.8,11.27-22.48,13.07-.26.05-.24.52,0,.51,9-.53,18-4.87,22.84-13.31A.24.24,0,0,0,103,193.57Z"/><path class="cls-4" d="M78.91,212a24.43,24.43,0,0,1-6-1.53c-1.79-.68-5.09-1.45-5.76-3.5-.08-.22-.42-.15-.35.08.59,1.86,2.54,2.4,4.12,3.1a23.58,23.58,0,0,0,8,2.18C79.09,212.37,79.1,212.05,78.91,212Z"/><path class="cls-4" d="M95.51,213.37c-3.56,3-7,5.9-11.16,7.87-.21.1-.08.49.14.41A30.86,30.86,0,0,0,91.68,218c1.38-1,4.13-2.6,4-4.56C95.71,213.37,95.6,213.29,95.51,213.37Z"/><path class="cls-4" d="M70.74,221.28A8.59,8.59,0,0,0,67.91,220a8,8,0,0,1-3.54-1.49c-.14-.13-.36.05-.22.2,1.77,2,4.11,2.09,6.42,3C70.78,221.72,70.92,221.41,70.74,221.28Z"/><path class="cls-4" d="M109.66,209.85c.3,3.76-2,6.54-3.35,9.79-.09.23.24.46.4.27A13.26,13.26,0,0,0,110,209.77C110,209.52,109.64,209.61,109.66,209.85Z"/><path class="cls-5" d="M119.1,150c-1.9-3.94-6.93-10.19-11.69-9.6a12.17,12.17,0,0,0-.63-1.11,20.7,20.7,0,0,0-4.74-5.17,13.65,13.65,0,0,1,.71,1.18c1.59,2,2.16,5.31,2.63,7.64a21.39,21.39,0,0,1,.21,8.73,23.81,23.81,0,0,1-.75,4l.14,0c.26-.28.51-.56.76-.85a21.06,21.06,0,0,0,2.26-3.52,14.63,14.63,0,0,0,.81-4.84,15.32,15.32,0,0,1,4.49,4.93A11,11,0,0,1,113,163a33.06,33.06,0,0,1-13.49,12.28,43.93,43.93,0,0,0,4.75-1,29,29,0,0,0,8.45-5.55c.66-.67,1.34-1.31,2-2,.92-.91,1.84-1.85,2.82-2.7A13.12,13.12,0,0,0,119.1,150Z"/><path class="cls-5" d="M98.74,115.61a.54.54,0,0,0,0-.11c.89,4.17-.76,8.54-2.23,12.31-1.6,4.11-3,9.12-6,12.21a30.06,30.06,0,0,1-3.08,3.77,43.54,43.54,0,0,1-4.61,4.12,59.9,59.9,0,0,1-4.45,4.27,63.38,63.38,0,0,1-16.54,10.64h0c5.61-.12,12-5,16.67-8a56.75,56.75,0,0,0,15-14.25c.19-.25.36-.52.54-.78l-.06.36a25.54,25.54,0,0,1,2.38-3.8l.37-.65c.68-1.27,1.3-2.62,2-3.94C101.24,127.12,101,120.48,98.74,115.61Z"/><path class="cls-5" d="M95.73,142.33c-1.7,3.19-3.73,7.13-6.16,9.33l-.12.14c-3.13,3.59-7.5,5.1-10.8,8.19,4.26-1.89,8.53-3.89,12.17-6.84l.22-.27a43.75,43.75,0,0,0,4.49-9.5C95.58,143,95.65,142.68,95.73,142.33Z"/><path class="cls-5" d="M101.78,136.92a20.83,20.83,0,0,0-1.12-2.77,23.78,23.78,0,0,1,.13,5.7,27,27,0,0,1-1.4,7.88c-1,3.31-3.36,6.43-5.4,8.76s-4.32,5.4-6.89,7.23c3.94-2.21,7.54-6.07,10.82-9.17.19-.22.39-.44.57-.68A13.49,13.49,0,0,0,99.73,152c.47-1,.87-2,1.36-2.9a35,35,0,0,0,1.07-5.76A18.41,18.41,0,0,0,101.78,136.92Z"/><path class="cls-5" d="M34.65,143.07c-10,2.19-25.18,3.27-29.11-8.6a1.16,1.16,0,0,1-.22-.79l-.12-.38.13,0a.13.13,0,0,1,0-.06,6.37,6.37,0,0,1-.07-.74.53.53,0,0,1-.09-.34,22.63,22.63,0,0,1,2.1-8.28,39.72,39.72,0,0,1,2.56-5.42,44.45,44.45,0,0,1,5.37-8.88c.29-.42.58-.83.88-1.24-6.92,6.17-13.78,14.23-12,23.73.28,6,3.87,10.65,9.37,13,6.07,2.66,12.35,1.94,18.35,0l1.48-.66c.62-.35,1.24-.72,1.85-1A.42.42,0,0,0,34.65,143.07Z"/><path class="cls-5" d="M93.41,91.9a15.37,15.37,0,0,0-4.64-6.56c-.77-.66-1.54-.27-2.4-.82-8.92-4.25-20.17-2.17-29.1.67a122.44,122.44,0,0,0-22.12,9.44,92.68,92.68,0,0,0-11.61,9.79,54.25,54.25,0,0,0-6,7.29c2.67-2.34,5.41-4.41,7.76-6.15A108.82,108.82,0,0,1,52.38,91c10-3.71,21.37-7.38,31.74-2.85,5,2.19,8.31,5.52,9.37,11,.1-.31.19-.64.27-1A13.93,13.93,0,0,0,93.41,91.9Z"/><path class="cls-5" d="M97.5,99.67c-.44,1.76-1,3.48-1.63,5.2-1.12,3.26-2.32,6.48-3.66,9.65-.36.86-.74,1.72-1.13,2.57-.09.22-.17.46-.27.68a31.72,31.72,0,0,1-1.16,3.49c-.33.61-.68,1.19-1,1.77-.22.39-.44.78-.67,1.16A25.25,25.25,0,0,1,83.69,130a19,19,0,0,1-2.5,2.57c-4.66,4.84-10.63,8.37-16.21,11.86a95.31,95.31,0,0,1-18.39,8.75,36.05,36.05,0,0,0,9.3-2.37,18.17,18.17,0,0,0,2-.78c1.91-.78,3.75-1.6,5.46-2.35a67.36,67.36,0,0,0,23.94-17.46,53.4,53.4,0,0,0,7.35-12.88,47.82,47.82,0,0,0,2.88-10.54,36.81,36.81,0,0,0,.33-4.68A16,16,0,0,1,97.5,99.67Z"/><path class="cls-5" d="M116.24,167.37c-.83.78-1.68,1.52-2.49,2.28s-1.38,1.39-2.07,2.09a15.66,15.66,0,0,1-.83,1.56c-.32.51-.67,1-1,1.47a44.75,44.75,0,0,0,4.16-3.54c.64-.63,1.28-1.28,1.9-1.95.1-.32.2-.64.29-1a.17.17,0,0,1,0-.13C116.19,167.92,116.21,167.65,116.24,167.37Z"/><path class="cls-5" d="M87.23,191.63c5.46-.58,10.63-3.68,15.26-6.76h0c.42-.31.84-.59,1.19-.83,0,0,.53-.31,1-.56,1.8-1.68,3.51-3.49,5.34-5.12.57-.63,1.12-1.28,1.65-2a.76.76,0,0,0,.08.11,46.38,46.38,0,0,0,3.5-5.75,36.19,36.19,0,0,1-7.17,6.16,36.23,36.23,0,0,1-3.42,3.37A50.6,50.6,0,0,1,87,190.45.61.61,0,0,0,87.23,191.63Z"/><path class="cls-5" d="M86.12,201.73c5.91.77,11.73-4.5,15.84-8.62a33.34,33.34,0,0,0,2.59-2.89,20.58,20.58,0,0,1,.7,3,3.45,3.45,0,0,1,.1.56s.06,0,.06.06c.16,3.09-1.41,6.15-3.24,8.45-.47.59-1,1.21-1.61,1.82a.35.35,0,0,0,.35,0,13.36,13.36,0,0,0,2.8-1.63,1.17,1.17,0,0,1,0,.11q-.24.66-.51,1.26s.06.09,0,.19c-1.4,3.06-4,6.55-7.08,8a.47.47,0,0,0,.29,0c1.26-.25,2.38-1.59,3.47-2.1a19.25,19.25,0,0,0,3.2-3.18,28.73,28.73,0,0,0,2.47-4.27,10.61,10.61,0,0,0,.32-2.28,12,12,0,0,0,1.56-3.14,11,11,0,0,0,.52-3,6.62,6.62,0,0,0,.49-4c-.14-1.12-.44-2.78-1.4-3.48l.13-.23a8.81,8.81,0,0,0,1.87-2.72,13.09,13.09,0,0,0,.89-2.53c0-.12,0-.22.07-.32a24.41,24.41,0,0,1-3.54,3.63l0,0c-.74.79-1.51,1.56-2.3,2.33a20.9,20.9,0,0,1-2.43,2.89c-.47.56-1,1.11-1.47,1.63-4,3.95-8.82,8.22-14.16,9.5A.49.49,0,0,0,86.12,201.73Z"/><path class="cls-5" d="M111.9,224.31l.09-.12a13,13,0,0,1-2.42.39,41.66,41.66,0,0,1-4.33-.28c.73-.3,1.45-.63,2.15-1,1.08-.8,2.15-1.63,3.18-2.5a10.67,10.67,0,0,0,.79-.73.44.44,0,0,0-.46,0,84.83,84.83,0,0,1-9.12,3.95c4.72-4.89,9.64-13.05,5-17.24,2.64,0,5.38.87,6.49,3.64.78,2,.75,5.65-1.22,7a.47.47,0,0,0-.2.27l.74-.28a6.08,6.08,0,0,1,1.36-.71c.54-.35,1-.75,1.55-1.14l.08-.1s.06,0,.06,0h0c.06-.13.11-.27.16-.4a11.82,11.82,0,0,0,1.62,1.82,16.22,16.22,0,0,1,1.21,1.28,6.1,6.1,0,0,1,1.51-1.05,29.86,29.86,0,0,0-4-3.58,8.61,8.61,0,0,0-.61-4.32,7.89,7.89,0,0,0-3.7-4v0c-1-.32-2-.82-3-1.1l-.7,0a10,10,0,0,1-2.45.29.06.06,0,0,1,0-.07h0a.21.21,0,0,1-.15,0c-.25.52-.54,1-.84,1.53a15.73,15.73,0,0,0-.09,1.95l.13-.23c1.21,6.2-1.32,11.6-5.63,15.34-.12.11-.23.23-.36.34-1.09,1-2.33,3.13-3.74,3.6a1.12,1.12,0,0,1-.4.07q-.66.33-1.35.63A30.48,30.48,0,0,1,83.46,230,11,11,0,0,1,78,228.88a16.39,16.39,0,0,1-2.43-.5c-.58,0-1.36-.11-2.17-.25,5.85,6.85,17.54,4.16,24.27.36.2-.11.4-.24.61-.38,2,.81,4.19.25,6.09.65a21.18,21.18,0,0,0,2.74.44,39.64,39.64,0,0,1,4-4,.23.23,0,0,1,.07-.28Z"/><path class="cls-5" d="M119.67,219.77a16.82,16.82,0,0,0,1,2,.59.59,0,0,0,1.11-.25,4.87,4.87,0,0,0-.6-2.86Z"/><path class="cls-5" d="M118.63,223.16a8.85,8.85,0,0,0-3,.16l-.32.27a40.63,40.63,0,0,0-3.85,4c3.35-.4,6.51-1.57,7.78-3.29C119.58,223.82,119.11,223.24,118.63,223.16Z"/><path class="cls-5" d="M86.28,222.45c-4.67.5-9,1.83-13.8,1.21a15.51,15.51,0,0,1-9.16-4.35,14.21,14.21,0,0,1-3-3.68,21.05,21.05,0,0,1-1.42-2.53c-.23,4.72,3.14,9,7.37,11,5.91,2.79,14.8,3,20.45-.4A.68.68,0,0,0,86.28,222.45Z"/><path class="cls-5" d="M70.81,214.69l-.4-.05a.54.54,0,0,0-.2-.31c-.75-.44-1.48-.92-2.2-1.44a15.2,15.2,0,0,1-3.64-3.1c-.25-.26-.51-.51-.76-.78a1.49,1.49,0,0,1-.32-.95,12.68,12.68,0,0,1-.95-6.44c.24-.41.5-.81.8-1.24a6,6,0,0,0,.53-.82c.21.18.44.36.67.54a3.51,3.51,0,0,1,1,.39,37.19,37.19,0,0,0,4.52,1.78,42.81,42.81,0,0,0,5.6,1.16c-1.08-.51-2.2-.76-3.34-1.19a19.79,19.79,0,0,1-5.7-3.39,18.9,18.9,0,0,1-3.51-3.74c-.13-.15-.28-.3-.41-.44-.69-.75-1.4-1.51-2.06-2.32-.29-.34-.58-.67-.86-1l-.47-.49a10.58,10.58,0,0,0-.07,3.81,15.37,15.37,0,0,0,.77,3.15c-2.66,3.56-2.56,8.77-.34,12.63,0,.06,0,.11-.05.16a7,7,0,0,0,.44.75l.6.82c0-.09,0-.19,0-.27s0,0,0,0,.06.19.08.28a6.08,6.08,0,0,0,.61.63.31.31,0,0,1,.09.07c.61.51,1.29.92,1.87,1.46,4.09,2.82,9.74,3.57,14.73,3.39A36.44,36.44,0,0,1,70.81,214.69Z"/><path class="cls-5" d="M59.25,179.79C54.88,181,49.4,182.32,44.74,182c-.46.06-.91.11-1.37.15A29.37,29.37,0,0,1,31,180.91c-2.9-1-5.23-2.54-6.38-5.67-.45-1.24-.69-2.36-1.17-3.49,8.93,5.31,25.61,2.8,36.28-1.38-2.6.31-5.2.5-7.7.71-2.93.25-6,.72-9.13,1a34.53,34.53,0,0,1-4.47.46c-5.15.19-10.49-.2-14.7-3.62s-4.89-8-3.9-13.33c5.16,2.92,12.24,3.19,16.69.32a.39.39,0,0,0,.1-.08,14.81,14.81,0,0,1-2.88.49,25.82,25.82,0,0,1-9.8-1c0,.12-.13.22-.25.18a12.9,12.9,0,0,1-3.86-2.14A24.7,24.7,0,0,1,17,150.81,25.59,25.59,0,0,1,14.37,148c-.26-.19-.53-.38-.78-.58a11.36,11.36,0,0,0,4.54,7.06c-2.09,8.28,0,13.53,4.3,16.6-2.58,8.69,7.48,12.65,13.7,13.42a45.6,45.6,0,0,0,14.95-1.08l2.06-.44a12.63,12.63,0,0,0,3.75,5.26c.66.29,1.32.59,2,.82a15.19,15.19,0,0,0,5.28.81l.62,0c-.86-.41-1.69-.87-2.45-1.29-2-1.14-4.54-2.56-6-4.61a5.8,5.8,0,0,1-.47-.52,4.08,4.08,0,0,1-.58-.8s0-.08.05-.07h0l-.08-.05c4.14-1,8.36-2.19,11.86-4.39a.62.62,0,0,0,.26-.37C64.74,178.53,62,179.05,59.25,179.79Z"/><path class="cls-5" d="M77,97.57c-1.83-3.17-6.06-2-8.87-1.61a.69.69,0,0,0-.35.18,8.49,8.49,0,0,1,6.43,1.62c.85.62.65,2.23,0,3.7-.07.21-.14.42-.23.63s0,.27,0,.43l-.34.35a5,5,0,0,1-1.29,1.64c-1.91,2.32-5.28,4.51-7.32,6.12A94.11,94.11,0,0,1,48.25,121.2a86,86,0,0,1-19.06,6.69,69.12,69.12,0,0,1-10.57,1.73c-2.94.19-5.44-1.49-4.58-4.91a6.83,6.83,0,0,1,.76-1.78,13.7,13.7,0,0,1,3.09-4.48.31.31,0,0,0-.29,0c-3.55,2.32-10.19,11.15-2.72,12.91,4.75,1.12,10.94-.59,15.58-1.66a92.2,92.2,0,0,0,16-5.3,88.64,88.64,0,0,0,27.8-18.81C76.19,103.65,78.76,100.66,77,97.57Z"/><path class="cls-5" d="M74.79,113.27c-4.7,5.86-9.15,11.55-15.17,16-6.25,4.64-13.46,7.38-20.18,11.14-.42.23-.15,1,.32.84,13.64-5.53,28.45-13.3,35.58-27.52C75.51,113.4,75.07,112.92,74.79,113.27Z"/><path class="cls-5" d="M62.18,150.59c-11.6,7.69-25,14-38.92,9.19a.23.23,0,0,0-.19.41c5.86,3.82,13.39,2.89,19.82,1.37,7.11-1.69,14.43-5,19.74-10.32C62.94,150.93,62.56,150.33,62.18,150.59Z"/><path class="cls-5" d="M71.2,170.75c-12.23,4.74-24.61,8.11-37.79,6.61-.29,0-.33.39-.09.5,5.39,2.51,12.41,1,18,.08,6.91-1.1,14-2.9,20.11-6.48C71.8,171.26,71.6,170.6,71.2,170.75Z"/><path class="cls-5" d="M109.53,153.66a76.44,76.44,0,0,1-17.39,18.25A48.73,48.73,0,0,1,68.3,182.29a.52.52,0,0,0,0,1c9.08,1.57,18-4.12,25-9.6,6.25-4.94,14.16-11.66,17-19.64C110.51,153.53,109.8,153.26,109.53,153.66Z"/><path class="cls-5" d="M95.7,204.8c-4.68,1.36-8.94,3.88-13.84,4.44-5.89.66-10.74-2-15.53-5.28-.37-.25-.82.3-.49.63,8.3,8.53,21,7.32,30.24,1.18C96.54,205.46,96.27,204.64,95.7,204.8Z"/><path class="cls-5" d="M87,217.2c-5.22,2.42-10.5,3.76-16.25,3-.21,0-.28.33-.07.38,5.7,1.66,11.85,1.16,16.77-2.51A.48.48,0,0,0,87,217.2Z"/><path class="cls-5" d="M102.51,211.7c-2.11,2.48-3.17,6.7-5.33,9.19a21.85,21.85,0,0,1-8.62,5.75c-.34.14-.19.74.17.73,6.52-.1,13.54-8.79,14.1-15.5C102.85,211.7,102.62,211.57,102.51,211.7Z"/><path class="cls-5" d="M62.3,98.89c-14.58,2-28.21,9.88-40.1,18.4-.11.08,0,.3.14.22,12.47-8.45,26.22-13,40.1-18A.31.31,0,0,0,62.3,98.89Z"/><path class="cls-5" d="M65.74,103.66c-6.46,5.29-12.95,10-20.57,13.32a88.35,88.35,0,0,1-10.58,3.81c-3.85,1.14-9.61,3.6-13.51,2-.41-.16-.68.49-.31.73,2.86,1.94,5.7,1,8.84.23a94.78,94.78,0,0,0,14.5-4.72c8.12-3.41,16.2-8.08,21.92-15.16C66.18,103.74,65.9,103.53,65.74,103.66Z"/><path class="cls-5" d="M51,106a55.06,55.06,0,0,0-16,7c-1.62,1.09-6.31,3.8-5.25,6.56a.53.53,0,0,0,.46.38c3.87.49,9.06-1.83,12.54-3.47a.44.44,0,0,0-.3-.81c-2.41.73-4.76,1.58-7.18,2.27-1.28.36-4,1.92-3.49-1.19.18-1.15,2.85-2.32,3.68-2.89a53,53,0,0,1,15.64-7.37C51.4,106.4,51.31,106,51,106Z"/><path class="cls-5" d="M53.5,108.72c-.76-.92-3.33-.18-4.23,0a19.74,19.74,0,0,0-6.62,2.88c-.19.13-.1.52.15.43,2.45-.88,4.85-2.07,7.43-2.48.48-.08,2.22-.65,1.84.5-.15.44-1.5,1-1.87,1.22-1.23.69-2.54,1.2-3.79,1.85a.35.35,0,0,0,.24.65C47.78,113.57,55.2,110.79,53.5,108.72Z"/><path class="cls-5" d="M34.1,102.78,32,104.16c-.15.1,0,.35.12.25L34.22,103C34.36,102.94,34.24,102.69,34.1,102.78Z"/><path class="cls-5" d="M81.17,90.31C65.92,87,51.48,93.59,38.35,101c-.16.09,0,.36.12.27C51.73,93.84,65.81,87.72,81.15,90.6,81.33,90.64,81.35,90.35,81.17,90.31Z"/><path class="cls-5" d="M85.36,92.72c-.17-.16-.44.09-.27.25,5.09,4.93,2.7,12.83-.4,18.12-2.84,4.87-7,8.41-11.38,11.64-.38.28-.07.94.36.69,5.75-3.37,11.1-8.54,13.54-15.12C89.08,103.26,89.49,96.65,85.36,92.72Z"/><path class="cls-5" d="M98.88,178.12c-4.72,2.78-9.3,6.08-14.6,7.42-4.94,1.24-11.39,3.16-16.4,1.84a.31.31,0,0,0-.18.59c4.92,1.83,11.19.12,16.09-1.07a38.26,38.26,0,0,0,15.48-8.21C99.56,178.43,99.21,177.92,98.88,178.12Z"/><path class="cls-5" d="M86.31,196.37c-7.08-.29-14.46-.94-21.09-3.85-.26-.12-.49.27-.29.48,2.33,2.4,6.67,2.62,9.73,3.25,3.86.79,7.8,1.43,11.7.73C86.68,196.92,86.63,196.39,86.31,196.37Z"/></g></g></g><g id="PixelsASSETS"><g id="Cola"><rect class="cls-6" width="130" height="250"/></g></g></g></g></svg>