<svg xmlns="http://www.w3.org/2000/svg" viewBox="0 0 464 265"><defs><style>.cls-1{isolation:isolate;}.cls-2{fill:#fff;}.cls-3{fill:#42210b;}.cls-4{fill:#9fa1a4;}.cls-5{fill:none;mix-blend-mode:multiply;}</style></defs><g class="cls-1"><g id="Layer_2" data-name="Layer 2"><g id="Variacion_C" data-name="Variacion C"><g id="AssetsC4"><g id="HornA4"><g id="Capa_45" data-name="Capa 45"><path class="cls-2" d="M436.7,171.1l-.2-.43c-.15-1.52-.36-3-.59-4.53a6.56,6.56,0,0,0,0-4.52c-1.95-5.2-4.09-10.3-6.38-15.33-.49-4.29-2.49-8.37-4.77-12.15-1.48-2.45-3-4.87-4.58-7.28a7.25,7.25,0,0,0-1.42-6.84q-13.65-14.47-27.37-28.9a9.49,9.49,0,0,0-6.33-3.1,6.82,6.82,0,0,0-1.1-.44l-7-2.06q-2.29-.8-4.49-1.77a39.89,39.89,0,0,0-19-12.7,8.89,8.89,0,0,0-5.46,0,5.93,5.93,0,0,0-2.38-1,153.56,153.56,0,0,0-17.36-2,64.79,64.79,0,0,0-24.61-6.59c-12.36-.74-24.83.27-37.22,1.24a216.25,216.25,0,0,0-39.7,3.8,49.66,49.66,0,0,0-20,.45,5.83,5.83,0,0,0-6.15-1.87c-8.32,2.28-17.11.61-25.51-.38L148.53,61.6a202.18,202.18,0,0,1-22-3.31c-3.55-.81-7.1-1.8-10.57-2.88-1.44-.44-2.84-1.08-4.27-1.51-1.63-.49-3.52-.25-4.89-1.29a2.5,2.5,0,0,0-2.76-.24l-.4-.38a3.21,3.21,0,0,0-1.67-.84l-4.19-3.08a2,2,0,0,0-2.08-.17c-.76-.61-1.52-1.21-2.32-1.78a1,1,0,0,0-1.57,1.23c1.9,4,4.79,7.2,7.9,10.33.87,1.4,1.75,2.77,2.66,4.08a4.85,4.85,0,0,0,.82,1.79,50.78,50.78,0,0,0,10,10.6l.74.77a7.88,7.88,0,0,0,.7,1c1.31,1.54,2.66,3,4,4.51a6.23,6.23,0,0,0,1.89,4.48A73.15,73.15,0,0,0,134.84,95.8l2.23,1.84a6.29,6.29,0,0,0,4.33,1.52c1.27.57,2.56,1.12,3.87,1.62a5.54,5.54,0,0,0,3.49,4.82l7.3,3c.12.09.21.19.34.28,16.5,11.19,37.22,11.09,54.33,20.76,3.33,1.88,6.64.27,8.37-2.4q4.07,1.23,8.16,2.32l3.66,1.34a7.11,7.11,0,0,0,3.35.4c.58.14,1.16.29,1.74.42a6.06,6.06,0,0,0,5.27-1c.64,0,1.28,0,1.91,0a121.34,121.34,0,0,0,14.06,2.37c3.36.61,6.72,1.21,10.09,1.78a7.58,7.58,0,0,0,1.37.8c5.29,2.32,11.05,2.4,16.72,2.92l18.87,1.71a8.44,8.44,0,0,0,1.59,0l32.47,5.78a6.84,6.84,0,0,0,2.47,0,80.13,80.13,0,0,0,14.31,8.24c1.05.55,2.13,1.06,3.24,1.51l.57.39c1.69,2.37,3.44,4.67,5.25,6.94a4.77,4.77,0,0,0,.89,3.55,34.28,34.28,0,0,0,11.33,9.71,5.81,5.81,0,0,0,2.33.7,7,7,0,0,0-1.12,1.64.61.61,0,0,0,.53.81h.14a1,1,0,0,0,1,1.08c9.24-.53,18.46-2.3,27.67-3.25s18.48-1.57,27.75-1.93a4.85,4.85,0,0,0,1.9-2.31A1.91,1.91,0,0,0,436.7,171.1Z"/></g><path class="cls-3" d="M438.15,175.77c1.92-13.48,1-25.47-4.32-38.06a106.53,106.53,0,0,0-20.7-31.34c-18.15-19.44-42.44-33-67.72-40.75-55.75-17.14-114.17-4.09-171.16-5.94-30.13-1-60.23-6.74-87.64-19.62-1.63-.76-3,1.71-1.53,2.74C128.25,73.36,186.17,68.23,236.2,65.74c28-1.39,56.5-2.56,84.31,2.18A167.36,167.36,0,0,1,394.8,100.1c11.71,9.05,21.91,20.2,29,33.24a109.89,109.89,0,0,1,8.4,21.19c2.12,7.09,4.12,13.79,4.58,21.24.05.8,1.27.76,1.38,0Z"/><path class="cls-3" d="M85.49,42.08c2.85,4.93,4.59,10.43,7.6,15.37,2.42,4,5,7.8,7.74,11.57a143.47,143.47,0,0,0,20.5,23.38C137.62,107,158.89,115.35,179.11,123c22.22,8.42,45.52,13.83,69,17.49,11.71,1.82,23.38,3.19,35.21,3.85,12.23.69,24.62,1.14,36.58,4,11.45,2.79,21.87,8.21,31.49,14.94,9.13,6.39,16.86,14.43,26,20.69a1.92,1.92,0,0,0,2.86-2.33c-3-9.13-10.32-15.23-17.65-21a120.74,120.74,0,0,0-26.46-15.54c-20.82-9.11-44.36-8.33-66.6-9.82a321.19,321.19,0,0,1-70.67-13c-22.24-6.65-45.47-14.43-64.85-27.52A114.69,114.69,0,0,1,108.3,70.23c-3.76-4.77-7.19-9.76-10.67-14.73s-7.85-9.24-11.15-14.17c-.45-.69-1.38.07-1,.75Z"/><g id="Capa_44" data-name="Capa 44"><path class="cls-2" d="M336.47,181.94a1.22,1.22,0,0,0-1.54-1.27c-.22.05-.44.12-.65.18a9.43,9.43,0,0,0-.19-7.12c-2.13-5.21-4.09-10.37-8.37-14.07a6.5,6.5,0,0,0-1.82-4.25,79.25,79.25,0,0,0-14.4-12.25,10.43,10.43,0,0,0-1.62-2.07,45.72,45.72,0,0,0-8.58-6.44,14.8,14.8,0,0,0-7.24-6.14c-3.08-1.23-6.2-2.29-9.36-3.24a66.77,66.77,0,0,0-11.77-6.39,8.42,8.42,0,0,0-5.36-.48,8.82,8.82,0,0,0-1.11-.72c-4.83-2.71-10.44-3.53-15.83-4.47q-8.49-1.47-17.07-2.46-2.82-.31-5.64-.58-4.87-1.41-9.74-2.85a6.54,6.54,0,0,0-6.29,1.16c-2.87-.32-5.74-.63-8.62-.9a15,15,0,0,0-6.17-.27,7.34,7.34,0,0,0-1-.22c-24.69-4-49.48-7.86-73.93-13.13C97.34,89,74.61,82.49,54.23,70.85a6.21,6.21,0,0,0-6.32,0A5.53,5.53,0,0,0,45,69.76c-.18-.27-.34-.55-.52-.81-2.75-4.13-6.38-7.46-9.93-10.89-.22-.29-.44-.59-.67-.88a2.45,2.45,0,0,0-3.38-.31,3,3,0,0,0-1.36,3.91l-.07,0c2.6,5.5,3.57,11.68,5.58,17.44a124.72,124.72,0,0,0,6.94,15.91c5,9.71,11.78,18,21.54,23.2.16.08.31.13.47.2a7.39,7.39,0,0,0,.54.59c2,2,4,3.86,6.1,5.69A48.29,48.29,0,0,0,78.47,131h0c.53.36,1.06.73,1.61,1.08a7.44,7.44,0,0,0,1.47.73,155.66,155.66,0,0,0,14.36,9,7.16,7.16,0,0,0,5.16.88A61.39,61.39,0,0,0,107,145c1.33.44,2.67.8,4,1.13a65.3,65.3,0,0,0,30.85,11.41,8.47,8.47,0,0,0,5.26-1.13c1.25.26,2.51.51,3.78.74l.77.12a7.25,7.25,0,0,0,1.46.8q7.68,3.1,15.56,5.58a94.22,94.22,0,0,0,25.67,6.18,56.23,56.23,0,0,0,21.06,1.82A133.06,133.06,0,0,1,243,183.37c3.63,2.41,7.43,4.6,10.9,6.9a11.49,11.49,0,0,0,1.49.83c2,1.75,4,3.52,6.06,5.28a9.74,9.74,0,0,0,1.59,1.13,8.29,8.29,0,0,0,6.73,7.78l.39.21c.26.93.53,1.86.8,2.79a8,8,0,0,0,5.42,5l0,.05,8.63,9.7a2.08,2.08,0,0,0,.78.54l1.22,1.41a1.72,1.72,0,0,0,.57.45,7.69,7.69,0,0,0,0,1c0,.24.35.35.52.2a12.27,12.27,0,0,0,1-1,1.84,1.84,0,0,0,1.34-1.76c1.84-2.75,3.13-6.12,4.78-8.85a1.74,1.74,0,0,0,1-1c.22-.53.45-1.05.68-1.57a59.67,59.67,0,0,1,9.3-10.71c.71-.65,1.45-1.29,2.19-1.92,5-2.36,9.26-5.86,13.94-8.75s10.25-4.55,14.57-7.81C337.52,182.74,337,182,336.47,181.94Z"/></g><path class="cls-3" d="M27.34,53.08c.34,5.23.32,10.46,1.7,15.56a112.84,112.84,0,0,0,4.87,13.87,121.08,121.08,0,0,0,14.22,25c12.26,16.62,28.52,29.36,47,38.4,20.42,10,42.69,15.3,64.86,19.75,24.68,4.95,50.25,8.24,73.63,18,12.33,5.13,22.1,13.81,31.2,23.39,8.41,8.87,17.09,18.06,24.07,28.07,1.3,1.87,3.79-.08,3.15-1.95A42,42,0,0,0,285,219.69c-3.3-4.26-7-8.21-10.61-12.17-7.2-7.81-14.57-15.61-23.25-21.81-9.17-6.56-19.39-10.24-30.22-13q-17.28-4.44-34.75-7.89C142.09,156.17,93.66,149,61.39,114.54A123,123,0,0,1,42.12,87.18a116,116,0,0,1-6.81-15.69c-2.12-6.16-4.77-12.34-6.44-18.62a.77.77,0,0,0-1.53.21Z"/><path class="cls-3" d="M338.93,182.52c1.12-9.08-3.75-17.89-8.75-25.17-5.64-8.21-12.9-15.07-20.7-21.19-17.57-13.8-39.07-26.18-61-31.22-11.83-2.72-24-3.44-36-4.48-12.64-1.1-25.27-2.38-37.86-4A561.46,561.46,0,0,1,97.33,81.69C73.27,75.15,45.94,67.38,28.8,48.06c-1.15-1.29-3.68,0-2.74,1.67C36.19,67.79,54.77,76.8,73.7,83.14c23.86,8,48.52,13.52,73.31,17.67,25,4.19,50.18,6.73,75.43,9,12.45,1.1,24.59,2.86,36.39,7.16,11.41,4.15,22.16,10,32.5,16.31,9.7,5.93,19.12,12.52,27,20.75a71.1,71.1,0,0,1,10.34,13.29c2.94,5,4.74,10.57,7.58,15.65a1.4,1.4,0,0,0,2.66-.4Z"/><path class="cls-4" d="M164.25,143c-10.53-3.05-21.32-5-31.87-8.06-10.85-3.1-21.41-7.05-31.89-11.17-9.3-3.66-18.18-7.72-26.4-13.47-8.43-5.9-15-13.14-21.73-20.82-.55-.63-1.76-.06-1.34.78,8.64,17.52,29,28.68,45.66,37.28A183.09,183.09,0,0,0,128.76,140c11.37,3.36,22.81,6.26,34.69,6.47C165.32,146.46,166.31,143.59,164.25,143Z"/><path class="cls-4" d="M308.67,161.81a97.46,97.46,0,0,0-34.87-26.46.56.56,0,0,0-.44,1,101.71,101.71,0,0,1,34.46,26.07C308.27,163,309.11,162.33,308.67,161.81Z"/><path class="cls-4" d="M373.13,158.5c-8.8-15.44-27.13-22.86-42.77-29.48a.78.78,0,0,0-.6,1.44c7.85,3.56,15.67,7.25,22.69,12.3a133.88,133.88,0,0,1,18.87,16.82C372.07,160.38,373.77,159.63,373.13,158.5Z"/><path class="cls-4" d="M424.8,149.44c-5.52-14.76-16.25-28.16-27.63-38.88S372.66,91.19,358,86a.37.37,0,0,0-.27.68c14.08,6.72,27.24,15,38.56,25.82,11.51,11,19.6,23.8,27.53,37.44A.54.54,0,0,0,424.8,149.44Z"/><path class="cls-4" d="M409.56,135.83a.14.14,0,0,0-.23.16,94.3,94.3,0,0,1,13.91,31.08.34.34,0,0,0,.68-.11A55.78,55.78,0,0,0,409.56,135.83Z"/><path class="cls-4" d="M222.41,165.14c-18.56-6.08-37.93-8.5-57.08-11.89A257.18,257.18,0,0,1,137.46,147c-9.42-2.77-18.38-7.87-28-9.77-.27-.05-.35.34-.12.45a204.21,204.21,0,0,0,52.7,17.22c20,3.63,40.31,5.82,60.08,10.83C222.56,165.87,222.83,165.28,222.41,165.14Z"/><path class="cls-4" d="M275.65,240.16c-8-16.94-27-27.62-42.41-36.92-8.71-5.24-17.79-9.54-27.76-11.77-10.54-2.36-21.38-2.55-32.14-2.88-.35,0-.43.53-.06.56,10.3.84,20.63,1.89,30.73,4.21,10.41,2.38,19.77,6.75,28.87,12.29,16,9.72,30.45,20.21,42.51,34.66C275.49,240.44,275.73,240.32,275.65,240.16Z"/><path class="cls-4" d="M126,184.09c-19.39-8.78-39.59-14.06-56.35-27.9a115.36,115.36,0,0,1-19.89-21.63,263,263,0,0,1-18.34-29.4.68.68,0,0,0-1.25.54c4.19,9.89,8.35,19,14.43,28A123.83,123.83,0,0,0,65,157.24c16.64,14.64,39.06,23.85,60.56,28.38C126.49,185.81,126.76,184.45,126,184.09Z"/><path class="cls-4" d="M244.18,226.67c-.62-.53-1.6.43-1,1,7.21,7.48,5.51,23.44-4.21,28.07a.92.92,0,0,0,.51,1.74C254.12,254.87,253.78,234.91,244.18,226.67Z"/><path class="cls-4" d="M226,36.33c-36.08,2.94-75.35,13-109.31-4.07-.76-.38-1.24.82-.51,1.21,16.12,8.61,33.62,11.8,51.8,11,19.34-.86,39.34-2.34,58.27-6.45A.84.84,0,0,0,226,36.33Z"/><path class="cls-4" d="M294.43,69.84c-10.39-.6-21.08.88-31.46,1.33q-16.25.7-32.5.9c-21,.27-42.56,1.08-63.48-.91a.49.49,0,0,0-.13,1c20.78,4.32,43.18,3.2,64.33,2.94q15.76-.19,31.52-.85c10.46-.44,21.49-.21,31.77-2.3C295.6,71.71,295.66,69.92,294.43,69.84Z"/><path class="cls-4" d="M428.75,106.13c-9.2-8.08-18.62-17.52-25.33-27.82A68.8,68.8,0,0,1,395,60.17c-2-6.72-2-13.42-2.56-20.33a1,1,0,0,0-1.93-.22c-3.76,12.82,2.11,28.28,8.86,39.12,7.46,12,17.17,20.49,28.58,28.47A.68.68,0,0,0,428.75,106.13Z"/><path class="cls-4" d="M405.76,28a.73.73,0,0,0-1.14.9c8.41,11.57,10,26,10.88,39.9a.59.59,0,0,0,1.16,0C417.66,54.26,414.91,39.66,405.76,28Z"/><path class="cls-4" d="M411.3,59.87a.8.8,0,0,0-1.58.24c.16,1.58,1.77,9.41-3.42,6.2-1.76-1.09-3-5.28-3.46-7a29.87,29.87,0,0,1-.33-13.6c3.18,2.5,4.12,6,4.26,10.11,0,.94,1.52.87,1.63,0,.6-5.15-2.11-9.29-5.92-12.46a1,1,0,0,0-1.47.42c-3.48,7.33-4.11,18.8,2.62,24.88,1.79,1.62,4.71,2.42,6.63.61C412.74,66.87,411.68,62.76,411.3,59.87Z"/><path class="cls-4" d="M364.44,58.4c-6.06-9.47-16.58-13.92-27.16-16.37-14.62-3.37-30.12-4.67-45-2.86-.79.1-.82,1.44,0,1.44,13.78.07,27.44.6,41,3.23,11.19,2.17,23,5.88,29.72,15.73C363.66,60.57,365.08,59.4,364.44,58.4Z"/><path class="cls-4" d="M92.4,74.51c-3.49-6.25-9.32-11.37-13.24-17.45-4.06-6.3-7.82-12.51-10.3-19.61-.18-.54-1.14-.3-1,.27,2.08,7.75,4.61,15.43,9,22.17,3.62,5.51,8.65,12.49,14.9,15.19C92.14,75.23,92.6,74.86,92.4,74.51Z"/><path class="cls-4" d="M21.69,59.3a167.16,167.16,0,0,1-3.83-20.7.42.42,0,0,0-.84.11,116.71,116.71,0,0,0,3.86,20.8C21,60,21.81,59.76,21.69,59.3Z"/><path class="cls-4" d="M25,76.18c-2-6.35-4.47-12.48-7.07-18.6a.41.41,0,0,0-.25-.6l-.22-.52a.4.4,0,0,0-.73.31c2.22,6.69,4.52,13.32,7.4,19.77A.47.47,0,0,0,25,76.18Z"/><path class="cls-4" d="M213.13,215.22c-3.65-3.25-8.54-5.76-13.55-4.84-4.52.82-7.34,4.32-6.45,9C194.22,225,199,231.1,203.92,234c2.44,1.44,8.84,2.36,7.83-2.37a1,1,0,0,0-1.3-.72c-4.9,1.65-10.08-4.9-11.86-8.75-.53-1.12-1.61-3.15-1.31-4.37.41-1.7,2.82-2.87,4.39-2.95,2.45-.14,5,1.28,6.91,2.67,6.08,4.42,19.53,25.14,5.27,26.62-9.51,1-19.23-6.87-25.88-12.85a61.32,61.32,0,0,1-17-24.5c-.31-.83-1.57-.3-1.27.53,4.3,12.19,11,23.65,21.27,31.73,7.49,5.89,22.89,15.17,31.47,6C230.09,236.85,219.62,221,213.13,215.22Z"/></g></g></g><g id="PixelsASSETS"><g id="Cuernos"><rect class="cls-5" width="464" height="265"/></g></g></g></g></svg>