<svg xmlns="http://www.w3.org/2000/svg" viewBox="0 0 464 265"><defs><style>.cls-1{isolation:isolate;}.cls-2{fill:#fff;}.cls-3{fill:#ccc;}.cls-4{fill:#42210b;}.cls-5{fill:none;mix-blend-mode:multiply;}</style></defs><g class="cls-1"><g id="Layer_2" data-name="Layer 2"><g id="Variación_B" data-name="Variación B"><g id="AssetsB4"><g id="HornA4"><g id="Capa_45" data-name="Capa 45"><path class="cls-2" d="M432.24,173.43l-1.59-2.34a4.54,4.54,0,0,0-2.1-6.91l-.12,0a5.63,5.63,0,0,0-1.07-3.1l-15-21.2a10.42,10.42,0,0,0-3-6.77c-.5-.5-1-1-1.48-1.41a7.43,7.43,0,0,0-1.38-5.27,80,80,0,0,0-8.87-9.84l-1.83-2.19a19.87,19.87,0,0,0-4.24-3.85,11.75,11.75,0,0,0-1.78-3.88c-5-7-11.25-13.22-17.24-19.42-5.75-5.93-10.78-12.63-17-18.09a75.5,75.5,0,0,0-13.05-8.86C325.64,37.52,296,27.72,269.36,22.19a129.56,129.56,0,0,0-32.91-2.78c-18.23-3.12-37.7-.41-53.78,8.17a23.69,23.69,0,0,0-2.52,1.59,116.84,116.84,0,0,0-13.48,6.06c-11.48,6-20.85,14.09-25.24,26.59-.56,1.6-1.07,3.22-1.56,4.85a13.69,13.69,0,0,0-4.24,6.21c-6.9,21.05-6,44.34,4.66,64.05a7.44,7.44,0,0,0,.67,8.42,238.18,238.18,0,0,0,22.27,25.43,9,9,0,0,0,6.32,2.68l.07.1a13.87,13.87,0,0,0,5.93,4.25c.95.93,1.9,1.86,2.87,2.75a10.29,10.29,0,0,0,11.26,1.88l.83.55a9.78,9.78,0,0,0,9.28.21c1.41,1,2.84,1.93,4.29,2.86a9.16,9.16,0,0,0,9.91-.23,11,11,0,0,0,6.34-3.13c4.78-.65,9.42-3,14.28-5,3.64-1.55,4.83-4.91,4.38-8.23a8.66,8.66,0,0,0,4.39-4.86c1.41-3.43-2.89-7.86-6.3-5.66a23.73,23.73,0,0,0-3.07,2.81,7.42,7.42,0,0,0-6.33-.51c-1.35.48-2.69,1-4.05,1.49l-.4-.09c-.81-.17-1.94-.37-3.2-.63l-.82-.5c-3.27-2.7-7.08-4.91-10.5-7.38-.61-.49-1.22-1-1.81-1.48a63.57,63.57,0,0,1-5.8-5.69c-2-5.58-4.19-11.13-6.56-16.59,0-.61.1-2.92.12-3.24q.15-2.59.42-5.19a96.17,96.17,0,0,1,1.61-10.27c.26-1.21.63-2.56,1.08-4a13.11,13.11,0,0,0,4.61-3.59q6.85-8.53,14.36-16.48a22,22,0,0,0,4,0c3.67-.32,7.35-1,11-1.63.63.17,1.26.36,1.88.56,2.28.73,5.33,2,8,2.73a21.8,21.8,0,0,0,7.8.58,135.86,135.86,0,0,0,42.52,19.48,9.81,9.81,0,0,0,2.75.32c9.77,10.73,20.56,20.47,31.41,30.12a10.55,10.55,0,0,0,4.31,2.32l.05.09c.08.16.18.31.27.46,3.08,7.54,9.51,14.28,15.16,19.53a4.73,4.73,0,0,0,2.23,1.22c3.7,4.13,7.53,8.15,11.54,12l.48.61c1.46,1.88,3.11,4.64,5.23,5.83l.06,0a1.42,1.42,0,0,1-.05.22v0a26.36,26.36,0,0,1,9.39,3.5c.07-.09.16-.17.24-.26a.78.78,0,0,0,.77-.08c5.05-3.15,10.7-5,16.29-7,3-.43,5.9-.83,8.81-1.07,4.87-.41,9.75-.71,14.63-.93s10.07-.87,14.88.12a1.4,1.4,0,0,0,1.54-.88A1.42,1.42,0,0,0,432.24,173.43Z"/><path class="cls-3" d="M221.17,68.15c-11.72,1.79-23.91,5.12-33.16,12.92-8.64,7.28-11.93,17.24-11.93,28.33,0,21.92,11.12,44.1,29.73,55.91a.25.25,0,0,0,.3-.4c-16-12.93-27-31.6-27.93-52.42-.49-11.55,2.12-22.28,11.25-30s20.95-10.06,32-13.6C221.87,68.79,221.62,68.08,221.17,68.15Z"/><path class="cls-3" d="M347.46,96.27C336.43,85.1,324,74,310.82,65.48c-12.9-8.32-27.84-13.3-43-15.42-15.51-2.18-31.29-1.39-46.68,1.29-13.93,2.43-30.67,5.28-41.94,14.44-.78.64.17,1.95,1,1.43,13-7.7,28.43-11.07,43.23-13.45,15.3-2.46,31-3,46.33-.5a103.57,103.57,0,0,1,40.4,15.35c12.89,8.52,23.83,19.65,36.47,28.53C347.21,97.53,347.94,96.76,347.46,96.27Z"/><path class="cls-3" d="M396.33,140.47c-4.33-13.94-14.55-27-23.57-38.24-8.82-11-18.83-22.9-30.64-30.8-.43-.29-1,.27-.63.68,10,11.11,21,20.89,30.12,32.79,4.3,5.59,8.37,11.36,12.15,17.32,3.93,6.19,7.31,12.79,11.74,18.64C395.77,141.22,396.48,140.93,396.33,140.47Z"/><path class="cls-3" d="M212.11,171.83c-6.93-3.82-14.15-7.06-20.6-11.72-.38-.28-.79.29-.43.59,6.13,5.21,12.9,9.93,20.86,11.82C212.37,172.62,212.43,172,212.11,171.83Z"/><path class="cls-3" d="M196.16,48.44c-11.81,4.36-23.08,12.76-28.32,24.45a.2.2,0,0,0,.36.15c5.88-12.25,17.28-17.26,28.42-23.65A.53.53,0,0,0,196.16,48.44Z"/><path class="cls-3" d="M168.47,47.65c-17.4,12.22-24.58,35.29-24.83,55.68-.26,20.17,6.4,41.35,21.61,55.16.29.27.74-.2.48-.49C138.28,128.05,136.52,75.43,169,48.29,169.41,48,168.9,47.35,168.47,47.65Z"/><path class="cls-3" d="M340.48,85.5l-2.66-2.67c-.15-.15-.35.11-.2.26l2.67,2.66C340.43,85.89,340.62,85.64,340.48,85.5Z"/><path class="cls-3" d="M366.28,133.49c-6-8.88-13.24-16.65-20.9-24.15-.26-.25-.71.09-.45.36a185.18,185.18,0,0,1,15.32,18.23c4.52,6,9.07,12.41,11.42,19.64.92,2.83,3.19,10.35,1.14,12.84l-4.76,1.67a18.59,18.59,0,0,1-3.19-2.88,21.59,21.59,0,0,1-3.27-4.77c-.65-1.28-4-9.5-2.14-10.14,1.42-.47,4.45,2.7,5.37,3.79a16.22,16.22,0,0,1,3.29,7.27c.08.38.74.41.73,0-.15-6.25-4.37-11.06-10.28-12.79a.72.72,0,0,0-.94.64,24.68,24.68,0,0,0,8.51,19.08c4.78,4.08,8.25,1.45,8.71-4.34C375.53,149,371.13,140.61,366.28,133.49Z"/><path class="cls-3" d="M330,118.1A217,217,0,0,0,308.5,98.91c-6.9-5.55-14.33-12.38-22.55-15.86a.25.25,0,0,0-.24.43c15.45,10.7,29.44,23,43.69,35.21C329.74,119,330.27,118.44,330,118.1Z"/><path class="cls-3" d="M296.11,38.8C278,28.7,255.76,25.22,235.3,27c-.46,0-.34.74.12.71,21.35-1.25,40.92,3.43,60.45,11.71C296.25,39.54,296.45,39,296.11,38.8Z"/><path class="cls-3" d="M372,128.14c-.3-.42-1,0-.77.49a68.32,68.32,0,0,1,8.27,22c1.41,7.93.62,15.46-.16,23.38a.44.44,0,0,0,.84.19C385.63,159.2,381.11,140.73,372,128.14Z"/><path class="cls-3" d="M351.87,132.07c-6.8,3.07-7.21,11.91-2.93,17.29a.41.41,0,0,0,.69-.43c-2.19-5.45-3.81-12.52,2.85-15.65C353.27,132.91,352.66,131.71,351.87,132.07Z"/><path class="cls-3" d="M171.84,125.2c-.88-3.11-2.13-6.25-5.6-6.83a.57.57,0,0,0-.59.38c-1,4.42-.69,8.88,1.89,12.71.25.37.78,0,.64-.39a25.77,25.77,0,0,1-1.83-5.93c-.43-3.26,1.72-6,3.44-2.4,1.84,3.86,2.27,9,2.14,13.13,0,.65.14,4.88-.55,5.33-1.44.93-2.93-1.26-3.93-2.39a30.08,30.08,0,0,1-5.45-9.64c-5.38-14.69-4-30.52-1-45.5.06-.29-.42-.41-.51-.13-3.59,11.16-3.9,23.64-2.07,35.16,1.49,9.44,4.69,19,12.78,24.72a.53.53,0,0,0,.8-.25A36,36,0,0,0,171.84,125.2Z"/><path class="cls-4" d="M363.71,175.3C333.32,139.73,299,101.56,252.33,88.43c-16.56-4.66-37.09-7-50.93,5.5-15.44,13.9-14.85,38.6-2.67,54.31,6.4,8.25,15.81,15.89,26.32,17.82a23.4,23.4,0,0,0,26.62-14.75c2.52-6.55-8-9.38-10.5-2.9-3.36,8.73-13.58,8.24-20.45,4.63a40.19,40.19,0,0,1-16.61-16.47c-7.31-13.94-3.34-34.08,12.92-39.36,13.65-4.43,29.59.21,42.53,5,17.57,6.54,33.42,17.44,47.47,29.69,17.82,15.52,33.65,33.15,49,51.08,4.57,5.34,12.24-2.4,7.71-7.7Z"/><path class="cls-4" d="M434.55,175.05c-2.08-10.59-7.06-20.51-11.81-30.15a270.76,270.76,0,0,0-16.4-29.16,285.35,285.35,0,0,0-41.52-50.17c-31.61-30-72-51.74-115.73-56.34C207.55,4.86,163,19.57,138.37,54.9c-13,18.75-14.43,40.35-10.89,62.38,3.31,20.63,12,41,27.34,55.49,15.52,14.68,36.59,22.6,57.9,18.52a55.16,55.16,0,0,0,28-14.26,41.66,41.66,0,0,0,9.6-13.57,18,18,0,0,0,0-15,2.71,2.71,0,0,0-4.94.25c-2.55,8.21-6.18,16.33-12.57,22.27a46.45,46.45,0,0,1-22.39,11.1c-17.56,3.58-35.53-3-48.63-14.76-14.94-13.46-23.16-32.24-26.45-51.82-1.73-10.3-2.57-21.23-.83-31.58,1.66-9.82,6.25-18.76,12.18-26.67C170.48,25.38,212.83,15,250.8,19.5,289.58,24.1,326,43.68,354.43,69.89a276.92,276.92,0,0,1,42.19,49.41c6.21,9.23,12.15,18.62,17.5,28.37s9.37,19.89,15.24,29.11c1.57,2.49,5.84,1.58,5.19-1.73Z"/></g><g id="Capa_44" data-name="Capa 44"><g id="Capa_42" data-name="Capa 42"><path class="cls-2" d="M310.88,197.68a10.45,10.45,0,0,0-2.5-10.61c-.5-.5-1-1-1.48-1.41a7.43,7.43,0,0,0-1.38-5.27,80,80,0,0,0-8.87-9.84l-1.83-2.19a19.87,19.87,0,0,0-4.24-3.85,11.75,11.75,0,0,0-1.78-3.88c-5-7-11.25-13.22-17.24-19.42-5.75-5.93-10.78-12.63-17-18.09a75.5,75.5,0,0,0-13.05-8.86C224.64,91.52,195,81.72,168.36,76.19a129.56,129.56,0,0,0-32.91-2.78c-18.23-3.12-37.7-.41-53.78,8.17a23.69,23.69,0,0,0-2.52,1.59,116.84,116.84,0,0,0-13.48,6.06c-11.48,6-20.85,14.09-25.24,26.59-.56,1.6-1.07,3.22-1.56,4.85a13.69,13.69,0,0,0-4.24,6.21c-6.9,21.05-6,44.34,4.66,64.05a7.44,7.44,0,0,0,.67,8.42,238.18,238.18,0,0,0,22.27,25.43,9,9,0,0,0,6.32,2.68l.07.1a13.87,13.87,0,0,0,5.93,4.25c1,.93,1.9,1.86,2.87,2.75a10.29,10.29,0,0,0,11.26,1.88l.83.55a9.78,9.78,0,0,0,9.28.21c1.41,1,2.84,1.93,4.29,2.86a9.16,9.16,0,0,0,9.91-.23,11,11,0,0,0,6.34-3.13c4.78-.65,9.42-3,14.28-5,3.64-1.55,4.83-4.91,4.38-8.23a8.66,8.66,0,0,0,4.39-4.86c1.41-3.43-2.89-7.86-6.3-5.66a23.73,23.73,0,0,0-3.07,2.81,7.42,7.42,0,0,0-6.33-.51c-1.35.48-2.69,1-4.05,1.49l-.4-.09c-.81-.17-1.94-.37-3.2-.63l-.82-.5c-3.27-2.7-7.08-4.91-10.5-7.38-.61-.49-1.22-1-1.81-1.48a63.57,63.57,0,0,1-5.8-5.69c-2-5.58-4.19-11.13-6.56-16.59,0-.61.1-2.92.12-3.24q.15-2.59.42-5.19a96.17,96.17,0,0,1,1.61-10.27c.26-1.21.63-2.56,1.08-4a13.11,13.11,0,0,0,4.61-3.59q6.86-8.53,14.36-16.48a22,22,0,0,0,4,0c3.67-.32,7.35-1,11-1.63.63.17,1.26.36,1.88.56,2.28.73,5.33,2,8,2.73a21.8,21.8,0,0,0,7.8.58,135.86,135.86,0,0,0,42.52,19.48,9.81,9.81,0,0,0,2.75.32c9.77,10.73,20.56,20.47,31.41,30.12a10.55,10.55,0,0,0,4.31,2.32l.05.09c.08.16.18.31.27.46,3.08,7.54,9.51,14.28,15.16,19.53a4.73,4.73,0,0,0,2.23,1.22c4.36,4.88,8.89,9.61,13.72,14.06a4.32,4.32,0,0,0,3.76,1.13c0,.06,0,.12-.05.18a4,4,0,0,0,.08,2.19c-.08.37-.16.74-.25,1.11a4.22,4.22,0,0,0,3.89,5.16,4.73,4.73,0,0,0,1,2.2,24.11,24.11,0,0,0,.14,3.06,4.69,4.69,0,0,0,1.11,2.57c.85,3.89,5.39,4.59,7.9,2.21-.11,1.15-.21,2.3-.26,3.45a.68.68,0,0,0,1.32.26c3.67-11.33,5.47-23,11.17-33.64a56.19,56.19,0,0,1,8.89-12.42,12.47,12.47,0,0,0,4-3.33c2.79-2,5.78-3.69,8-6.12C312,198.85,311.77,197.67,310.88,197.68Z"/><path class="cls-3" d="M120.17,122.15c-11.72,1.79-23.91,5.12-33.16,12.92-8.64,7.28-11.93,17.24-11.93,28.33,0,21.92,11.12,44.1,29.73,55.91a.25.25,0,0,0,.3-.4c-16-12.93-27-31.6-27.93-52.42-.49-11.55,2.12-22.28,11.25-30s20.95-10.06,32-13.6C120.87,122.79,120.62,122.08,120.17,122.15Z"/><path class="cls-3" d="M246.46,150.27c-11-11.17-23.42-22.26-36.64-30.79-12.9-8.32-27.84-13.3-43-15.42-15.51-2.18-31.29-1.39-46.68,1.29-13.93,2.43-30.67,5.28-41.94,14.44-.78.64.17,1.95,1,1.43,13-7.7,28.43-11.07,43.23-13.45,15.3-2.46,31-3,46.33-.5a103.57,103.57,0,0,1,40.4,15.35c12.89,8.52,23.83,19.65,36.47,28.53C246.21,151.53,246.94,150.76,246.46,150.27Z"/><path class="cls-3" d="M295.33,194.47c-4.33-13.94-14.55-27-23.57-38.24-8.82-11-18.83-22.9-30.64-30.8-.43-.29-1,.27-.63.68,10,11.11,21,20.89,30.12,32.79,4.3,5.59,8.37,11.36,12.15,17.32,3.93,6.19,7.31,12.79,11.74,18.64C294.77,195.22,295.48,194.93,295.33,194.47Z"/><path class="cls-3" d="M111.11,225.83c-6.93-3.82-14.15-7.06-20.6-11.72-.38-.28-.79.29-.43.59,6.13,5.21,12.9,9.93,20.86,11.82C111.37,226.62,111.43,226,111.11,225.83Z"/><path class="cls-3" d="M95.16,102.44c-11.81,4.36-23.08,12.76-28.32,24.45a.2.2,0,0,0,.36.15c5.88-12.25,17.28-17.26,28.42-23.65A.53.53,0,0,0,95.16,102.44Z"/><path class="cls-3" d="M67.47,101.65c-17.4,12.22-24.58,35.29-24.83,55.68-.26,20.17,6.4,41.35,21.61,55.16.29.27.74-.2.48-.49C37.28,182.05,35.52,129.43,68,102.29,68.41,102,67.9,101.35,67.47,101.65Z"/><path class="cls-3" d="M239.48,139.5l-2.66-2.67c-.15-.15-.35.11-.2.26l2.67,2.66C239.43,139.89,239.62,139.64,239.48,139.5Z"/><path class="cls-3" d="M265.28,187.49c-6-8.88-13.24-16.65-20.9-24.15-.26-.25-.71.09-.45.36a185.18,185.18,0,0,1,15.32,18.23c4.52,6,9.07,12.41,11.42,19.64.92,2.83,3.19,10.35,1.14,12.84l-4.76,1.67a18.59,18.59,0,0,1-3.19-2.88,21.59,21.59,0,0,1-3.27-4.77c-.65-1.28-4-9.5-2.14-10.14,1.42-.47,4.45,2.7,5.37,3.79a16.22,16.22,0,0,1,3.29,7.27c.08.38.74.41.73,0-.15-6.25-4.37-11.06-10.28-12.79a.72.72,0,0,0-.94.64,24.68,24.68,0,0,0,8.51,19.08c4.78,4.08,8.25,1.45,8.71-4.34C274.53,203,270.13,194.61,265.28,187.49Z"/><path class="cls-3" d="M229,172.1a217,217,0,0,0-21.45-19.19c-6.9-5.55-14.33-12.38-22.55-15.86a.25.25,0,0,0-.24.43c15.45,10.7,29.44,23,43.69,35.21C228.74,173,229.27,172.44,229,172.1Z"/><path class="cls-3" d="M195.11,92.8C177,82.7,154.76,79.22,134.3,81c-.46,0-.34.74.12.71,21.35-1.25,40.92,3.43,60.45,11.71C195.25,93.54,195.45,93,195.11,92.8Z"/><path class="cls-3" d="M271,182.14c-.3-.42-1,0-.77.49a68.32,68.32,0,0,1,8.27,22c1.41,7.93.62,15.46-.16,23.38a.44.44,0,0,0,.84.19C284.63,213.2,280.11,194.73,271,182.14Z"/><path class="cls-3" d="M250.87,186.07c-6.8,3.07-7.21,11.91-2.93,17.29a.41.41,0,0,0,.69-.43c-2.19-5.45-3.81-12.52,2.85-15.65C252.27,186.91,251.66,185.71,250.87,186.07Z"/><path class="cls-3" d="M70.84,179.2c-.88-3.11-2.13-6.25-5.6-6.83a.57.57,0,0,0-.59.38c-1,4.42-.69,8.88,1.89,12.71.25.37.78,0,.64-.39a25.77,25.77,0,0,1-1.83-5.93c-.43-3.26,1.72-6,3.44-2.4,1.84,3.86,2.27,9,2.14,13.13,0,.65.14,4.88-.55,5.33-1.44.93-2.93-1.26-3.93-2.39A30.08,30.08,0,0,1,61,183.17c-5.38-14.69-4-30.52-1-45.5.06-.29-.42-.41-.51-.13-3.59,11.16-3.9,23.64-2.07,35.16,1.49,9.44,4.69,19,12.78,24.72a.53.53,0,0,0,.8-.25A36,36,0,0,0,70.84,179.2Z"/></g><g id="Capa_43" data-name="Capa 43"><path class="cls-4" d="M284.23,261.85c-1.42-4.82-4.4-8.51-7.26-12.65-3.44-5-7.14-9.7-10.94-14.42-7.77-9.62-16-18.88-24.45-27.95-17.28-18.64-36-36.64-58.18-49.42a132.47,132.47,0,0,0-34.46-14.18c-11.54-2.83-24.26-4.76-35.68-.57-20.34,7.45-27.45,31.48-18.75,50.3,5.1,11,15.46,21.14,27.41,24.26,10.75,2.8,22.64-1.4,26.76-12.25,1.58-4.15-5-6.37-6.52-2.21-4.2,11.4-18.28,9.68-26.67,4.49a39.94,39.94,0,0,1-17.56-23.53A30.06,30.06,0,0,1,103,158.06c6.92-9.16,17.52-10.5,28.33-9.61,42.83,3.56,76.39,35.43,104.15,65.29,7.65,8.23,14.94,16.77,22.4,25.17,3.77,4.25,7.4,8.62,11.31,12.73s7.47,9,12.36,11.86c1.1.64,3.16-.06,2.69-1.65Z"/><path class="cls-4" d="M319.15,200.08c-2.82-10-8.37-19.12-13.73-28a257.44,257.44,0,0,0-17.78-26.14,239.7,239.7,0,0,0-43.32-43c-33.22-25.39-75.1-42.19-117.38-40.46C88.58,64.09,48.23,83.7,31.05,119.68c-9,18.76-7.47,41.29-2.64,61,4.63,18.92,14.17,36.79,29.27,49.38,15.63,13,36.08,19.38,56.2,14.7A55.26,55.26,0,0,0,139.69,231c7.68-7.45,14.2-17.94,9.58-28.59a2.71,2.71,0,0,0-4.94.25c-2.73,8.22-6.12,16.27-12.57,22.27a46,46,0,0,1-21.66,11c-16.21,3.54-32.61-1.51-45.58-11.43-14.65-11.19-23.83-27.93-28.29-45.57-4.67-18.43-6.32-39.78,2.73-57.12,17-32.59,55.32-48.63,90.62-49.32,37.48-.72,74,13.63,104.1,35.31a235.69,235.69,0,0,1,45.13,43.15c6.64,8.2,13,16.6,18.79,25.41,5.69,8.62,10.36,17.93,16.74,26.05,1.65,2.1,5.57.36,4.81-2.32Z"/></g></g></g></g></g><g id="PixelsASSETS"><g id="Cuernos"><rect class="cls-5" width="464" height="265"/></g></g></g></g></svg>