<?xml version="1.0" encoding="utf-8"?>
<!-- Generator: Adobe Illustrator 26.0.0, SVG Export Plug-In . SVG Version: 6.00 Build 0)  -->
<svg version="1.1" id="Capa_1" xmlns="http://www.w3.org/2000/svg" xmlns:xlink="http://www.w3.org/1999/xlink" x="0px" y="0px"
	 viewBox="0 0 464 265" style="enable-background:new 0 0 464 265;" xml:space="preserve">
<style type="text/css">
	.st0{fill:#FFFFFF;stroke:#999999;stroke-width:3.93;stroke-miterlimit:10;}
	.st1{fill:#E6E6E6;}
	.st2{fill:#FFFFFF;stroke:#42210B;stroke-width:6.97;stroke-linecap:round;stroke-linejoin:round;}
	.st3{fill:none;stroke:#999999;stroke-width:3.93;stroke-miterlimit:10;}
</style>
<g>
	<g id="Capa_2_00000154390890900760066030000002679401755795808914_">
		<g id="AssetsE4">
			<g id="HornE4">
				<path class="st0" d="M352.7,103h-16.5c0,0-28-1.5-28-25s26.1-28.3,26.1-28.3s0-17.2,15.2-24.2s26.3,4.5,26.3,4.5
					S389.6,2.7,419,17.3s16.3,33.4,16.3,33.4s22,3.5,22,25.9s-19.5,26.4-32,26.4H352.7z"/>
				<path class="st1" d="M378.6,39c0,0,10.3-12.9,23.1-12.8s23.3,11.4,22.8,18.9c-0.4,5.3-1.2,10.5-2.2,15.7c0,0-0.8-11.9-11.2-17.3
					C392.8,34,378.6,39,378.6,39z"/>
				<path class="st1" d="M425.1,67.4c0,0,5.2-6.5,11.5-6.4s11.6,5.7,11.4,9.4c-0.2,2.6-0.6,5.3-1.1,7.9c0,0-0.4-5.9-5.6-8.7
					C432.2,64.9,425.1,67.4,425.1,67.4z"/>
				<path class="st2" d="M440.6,163.5c0,0-63.9-146.9-128.7-152.8S184.8,32.4,183.1,93.2s26.5,93.9,26.5,93.9s17.1,17.5,16.2,3.4
					s-11.9-82.3,3.4-104s58-13.3,73.4,0s58,98,58,98s10.6,6.1,31-2c9.5-4.1,19.7-6.2,30-6c20.2,0,28,13,28,13L440.6,163.5z"/>
				<path class="st2" d="M355.9,176.7c0,0-86.2-122-168.8-143C87.5,8.5,20.3,54,18.1,110.8s34.7,87.8,34.7,87.8s22.4,16.3,21.3,3.2
					s-17.7-70.1,2.4-90.4c29-29.1,74-27,98.3-6.9c18.2,15.1,108.7,150.9,108.7,150.9c3-10.9,8.1-21.1,15-30c7-9,10.2-18.2,33-29
					s29-12,29-12L355.9,176.7z"/>
				<path class="st0" d="M195.4,42.5c-0.1,0.2-0.3,0.4-0.5,0.6c-9.1,8.5-46.2,6.1-46.2,6.1s1.2,7.6-5.3,8.5
					c-4.3,0.6-7.9-2.8-7.9-2.8s-6.2,11.3-17.3,12.8c-5,0.7-10.1-1.2-13.4-5c0,0-1.4,16.3-24,15.8c-9.8-0.2-15.6-3.9-19-8
					c-3.1,2.4-7.1,3.8-11.8,2c-3.6-1.3-6.5-4.1-8-7.7c-6.8,1.1-14.6,0.4-20.7-5.6c-5.6-5.5-6-13-3.4-19.5c1.7-4.5,4.8-8.3,8.9-10.8
					c10.8-6.3,22.6-3.9,25.3,1.1c1.2-6.3,7.3-6.8,9.5-5c0.4-8.2,7-15.5,18-16.8s19.1,4.8,20.8,12c2.3-4.2,7.3-6.1,11.8-4.4
					c4.3,2.1,6.4,7,4.9,11.6c8.2-10.7,23.6-12.6,34.2-4.4c4.4,3.4,7.5,8.1,8.8,13.5C174.3,27.4,198.5,37.2,195.4,42.5z"/>
				<path class="st1" d="M195.4,42.5c-0.1,0.2-0.3,0.4-0.5,0.6c-9.1,8.5-46.2,6.1-46.2,6.1s1.2,7.6-5.3,8.5
					c-4.3,0.6-7.9-2.8-7.9-2.8s-6.2,11.3-17.3,12.8c-5,0.7-10.1-1.2-13.4-5c0,0-1.4,16.3-24,15.8c-9.8-0.2-15.6-3.9-19-8
					c-3.1,2.4-7.1,3.8-11.8,2c-3.6-1.3-6.5-4.1-8-7.7c-6.8,1.1-14.6,0.4-20.7-5.6c-5.6-5.5-6-13-3.4-19.5c8.9,2.2,13,12,14,13.2
					C29.3,43.6,38,33.2,47.5,34c8.9,0.8,17.4,6.5,19.2,17.8c-8.8,0.7-17.3,3.7-19.6,11.2c6.2-6.7,18.2-10,24.4-3.3
					c-0.1-3.3,2.8-19.7,13.2-24.9s26,0,29.3,7.2c3.5-10.2,22.5-8.8,28.1-3.6c-5.7,1.6-10.7,5.2-14.1,10.1c5.2-4.1,8.3-3.9,14.2-0.9
					c2.8-9,11.9-7,16.2-4.4c6.1-6.8,17.9-4.9,22.3-3.8C183.3,39.9,189.5,41.5,195.4,42.5z"/>
				<path class="st3" d="M195.4,42.5c-0.1,0.2-0.3,0.4-0.5,0.6c-9.1,8.5-46.2,6.1-46.2,6.1s1.2,7.6-5.3,8.5
					c-4.3,0.6-7.9-2.8-7.9-2.8s-6.2,11.3-17.3,12.8c-5,0.7-10.1-1.2-13.4-5c0,0-1.4,16.3-24,15.8c-9.8-0.2-15.6-3.9-19-8
					c-3.1,2.4-7.1,3.8-11.8,2c-3.6-1.3-6.5-4.1-8-7.7c-6.8,1.1-14.6,0.4-20.7-5.6c-5.6-5.5-6-13-3.4-19.5c1.7-4.5,4.8-8.3,8.9-10.8
					c10.8-6.3,22.6-3.9,25.3,1.1c1.2-6.3,7.3-6.8,9.5-5c0.4-8.2,7-15.5,18-16.8s19.1,4.8,20.8,12c2.3-4.2,7.3-6.1,11.8-4.4
					c4.3,2.1,6.4,7,4.9,11.6c8.2-10.7,23.6-12.6,34.2-4.4c4.4,3.4,7.5,8.1,8.8,13.5C174.3,27.4,198.5,37.2,195.4,42.5z"/>
				<path class="st0" d="M270.7,181.7c0.8-5.4-0.2-10.8-2.7-15.6l-0.6-1c-4-6.7-12.8-10.9-22.6-8.4c-3.1-7.2-11.5-10.6-18.7-7.5
					c-0.2,0.1-0.4,0.2-0.5,0.2c-7.6-9.5-23.8-24.3-48.9-19.2C151.6,135.5,140,161,140,161c-8.7-8.1-26.8-4.6-35.6,3.8
					c-9.3,8.8-9.1,15.5-9.1,15.5c-6.1-3.9-16,0-17.7,5.9c-1.4,4.6,0.6,9.5,4.8,11.8l0.8,0.4c8.2,4.1,13.3,1.8,13.3,1.8
					c9.8,21.1,28.3,15.6,36.8,11.3c2.6-1.4,8.1-3.7,8.1-3.7s15.2,14.4,36.3,15.2c12.6,0.5,34.1-6.1,39.1-17.6
					c22.6,13,62.5,3,67.7-9.9C286.6,190.2,284.6,177.9,270.7,181.7z"/>
				<path class="st1" d="M284.5,194.3c-5.2,12.7-45.1,22.5-67.7,9.9c-5.1,11.3-26.6,17.8-39.2,17.3c-21.1-0.7-36.2-14.8-36.2-14.8
					s-5.4,2.3-8.1,3.6c-8.5,4.2-27,9.6-36.7-11c0,0-5.1,2.2-13.3-1.7l-0.8-0.4c0.9-0.2,1.9-0.4,2.7-0.6c12.1-2.8,28.3-14.2,39-3.6
					c-0.1-8.2-8.5-13.9-16.5-12.9c3.9-5.1,10.6-7.1,16.6-5.1c6.1,2.2,10,8.1,9.6,14.6c6.3-3.2,13.5-4.2,20.4-2.8
					c7.5,1.3,12.5,5.9,15.6,12.8c-2.3-12.2-8.8-19.1-21.4-18.3c-0.4-7,0.4-11.7,4.7-17.3s11.9-9,18.8-7.2s11.8,9.7,9.1,16.2
					c1.1-1.6,5.1-2.6,7.5-1.1c1.9,1.2,2.3,4.7,1.9,6.1c2.1-5.6,7.5-9.2,13.5-9c5.9,0.3,10.9,4.4,12.5,10.1c1-10.3-9-20.2-19.5-19.4
					c14.6-8,34.3-2.8,36.4,13.5c5.7-18.2,30.7-14.6,34.5-7.7c2.8,4.9,3.6,11.6,2.7,15.3C284.5,177.2,286.5,189.2,284.5,194.3z"/>
				<path class="st3" d="M270.7,181.7c0.8-5.4-0.2-10.8-2.7-15.6l-0.6-1c-4-6.7-12.8-10.9-22.6-8.4c-3.1-7.2-11.5-10.6-18.7-7.5
					c-0.2,0.1-0.4,0.2-0.5,0.2c-7.6-9.5-23.8-24.3-48.9-19.2C151.6,135.5,140,161,140,161c-8.7-8.1-26.8-4.6-35.6,3.8
					c-9.3,8.8-9.1,15.5-9.1,15.5c-6.1-3.9-16,0-17.7,5.9c-1.4,4.6,0.6,9.5,4.8,11.8l0.8,0.4c8.2,4.1,13.3,1.8,13.3,1.8
					c9.8,21.1,28.3,15.6,36.8,11.3c2.6-1.4,8.1-3.7,8.1-3.7s15.2,14.4,36.3,15.2c12.6,0.5,34.1-6.1,39.1-17.6
					c22.6,13,62.5,3,67.7-9.9C286.6,190.2,284.6,177.9,270.7,181.7z"/>
			</g>
		</g>
	</g>
</g>
</svg>
