<?xml version="1.0" encoding="utf-8"?>
<!-- Generator: Adobe Illustrator 26.0.0, SVG Export Plug-In . SVG Version: 6.00 Build 0)  -->
<svg version="1.1" id="Capa_1" xmlns="http://www.w3.org/2000/svg" xmlns:xlink="http://www.w3.org/1999/xlink" x="0px" y="0px"
	 viewBox="0 0 275 259.5" style="enable-background:new 0 0 275 259.5;" xml:space="preserve">
<style type="text/css">
	.st0{fill:#D3D3D3;stroke:#42210B;stroke-width:7;stroke-linecap:round;stroke-linejoin:round;}
	.st1{fill:#FFFFFF;stroke:#42210B;stroke-width:7;stroke-linecap:round;stroke-linejoin:round;}
	.st2{fill:#FFFFFF;stroke:#B3B3B3;stroke-width:4.17;stroke-linecap:round;stroke-linejoin:round;}
	.st3{fill:#FFFFFF;stroke:#B3B3B3;stroke-width:4.48;stroke-linecap:round;stroke-linejoin:round;}
</style>
<g>
	<g id="Capa_2_00000053539872757842880280000005153005912216643985_">
		<g id="AssetsE4">
			<g id="LoinE4">
				<path class="st0" d="M204.9,151.8c-11.1-26.3-25.5-69.3-32.4-127.2c-4.7-39.6-31.2-14.7-44.2,4.2s-27.5,32-46.6,49.3
					S62.2,103.5,69,104.1s33.6,2.3,33.6,2.3s-6,20.3,0,20.7s27,9.9,27,9.9L204.9,151.8z"/>
				<path class="st1" d="M160,184.2c0,0-35.4-55.5-47.5-157.7c-4.7-39.6-31.2-14.7-44.2,4.2s-27.5,32-46.5,49.3S2.2,105.5,9,106.1
					s33.6,2.3,33.6,2.3s-6,20.3,0,20.7s18.2,0,18.2,0s-0.3,33.6,14.1,31.1s14.3-6.4,14.3-6.4s-1.7,12.6,5.2,15.3s15.9-5.6,15.9-5.6
					s0.3,15.4,5.5,14.6s4.6-7.4,12.2-5.3c7.6,2.1,15.4,21.7,15.4,21.7"/>
				<path class="st2" d="M130,148.5c0,0-25-59-30.2-124.4C98.8,11.4,64,55.4,64,55.4"/>
				<path class="st3" d="M50.5,76.4c0,0-2.1,18.5,4.6,16.1S71,77.8,71,77.8s-10.2,34.8-3,38s20.1-12.5,20.1-12.5s-4.8,22.2,1.2,24.5
					s17.8-9.7,17.8-9.7s-2.1,19.3,3.1,18.5s6.5-2.8,6.5-2.8"/>
			</g>
		</g>
	</g>
</g>
</svg>
