<svg xmlns="http://www.w3.org/2000/svg" viewBox="0 0 275 259.5"><defs><style>.cls-1{isolation:isolate;}.cls-2{fill:#838383;}.cls-3{fill:#d1d1d1;}.cls-4{fill:#b3b3b3;}.cls-5{fill:#fff;}.cls-6{fill:#919191;}.cls-7{fill:#42210b;}.cls-8{fill:none;mix-blend-mode:multiply;}</style></defs><g class="cls-1"><g id="Layer_2" data-name="Layer 2"><g id="Variación_B" data-name="Variación B"><g id="AssetsB4"><g id="LoinA4"><path class="cls-2" d="M232.7,148.9a2.84,2.84,0,0,0-.38-.13,3.28,3.28,0,0,0,1-3.73c-2.22-6.16-4.89-11.82-9.37-16.39a4,4,0,0,0-1-4.28c-2.3-2.17-5-3.35-7.89-4.6-1.58-.67-3.16-1.47-4.78-2.14a4.9,4.9,0,0,0-2.75-2.07,23.33,23.33,0,0,0-6.79-.78c-7.81-3.09-16.57-4.66-24.86-5.69a100.25,100.25,0,0,0-22.5-.41l-.13,0a5.5,5.5,0,0,0-8.37-1.62c-.18-.44-.37-.87-.55-1.31a4.86,4.86,0,0,0-7.73-1.87c-.47-1.49-1-3-1.61-4.44a5.51,5.51,0,0,0-3.38-2.92L131.08,95a4.11,4.11,0,0,0-1-1.6c-.89-2.09-1.81-4.16-2.74-6.24A11.86,11.86,0,0,0,124.59,81a2.76,2.76,0,0,0-.7-.83l-.7-1.74A1.78,1.78,0,0,0,121,77.16a67.45,67.45,0,0,0-11.43-8.94,2,2,0,0,0-2.74.51l-.08-.08c-4.69-4.1-10.16-7.24-14.82-11.36-2.44-2.15-4.64-4.48-6.85-6.83-1.73-1.85-2.5-3.28-5-3.7a.61.61,0,0,0-.7.5c-.21,2.46,1.14,3.59,2.72,5.6a69.67,69.67,0,0,0,7,7.79c4.75,4.43,10.55,7.64,15.39,12,5.63,5.1,10.37,9.58,11,17.26.35,4.29,1.32,10,7.07,10.29a1.3,1.3,0,0,0,.49-.09l.21.56a4.1,4.1,0,0,0-1.43,4.43c.83,3.06,1.45,6.17,2.21,9.25a4.21,4.21,0,0,0,4.94,3.28l.23.8c1,3.21,4.77,3.87,7.3,2.54h.22a7.19,7.19,0,0,0,2.44-.73,7.92,7.92,0,0,0,3.6,3.3,5.55,5.55,0,0,0,5.28-.18,8.57,8.57,0,0,0,1.25-1,9.68,9.68,0,0,0,10.6-.46c.26-.19.77-.53,1.23-.9a17.55,17.55,0,0,0,4.1,3.42c4.44,2.78,7.81,1.42,12.5.48,2.38-.48,4.2.85,6.48,1.47a20.26,20.26,0,0,0,7.24.44,12,12,0,0,1,7,.95,42.56,42.56,0,0,0,6.24,2.25c5,1.35,8.9,2.8,12.44,6.54a61.8,61.8,0,0,1,8.52,11.58,3.72,3.72,0,0,0,.88,1l-.88.1c-1.19.14-.89,1.76.27,1.72l3.86-.13a5.73,5.73,0,0,0,3.12-.65A.72.72,0,0,0,232.7,148.9Z"/><path class="cls-3" d="M211.09,142.39A19.1,19.1,0,0,0,206,137.6a9.14,9.14,0,0,0-1.78-1.73,10,10,0,0,0-4.08-1.71c-2.36-2.72-6.4-4.17-10.57-4.85-5.65-2.06-12.81-2.17-17.8-2a81.46,81.46,0,0,0-14.67,1.95c-3.36-.7-6.68-1.19-9.61-1.64a109.4,109.4,0,0,0-14.92-1.2,9.46,9.46,0,0,0-3.4-1.46,15.85,15.85,0,0,0-6.44.22c.8-4.36-1.34-9.27-2.93-13.35,0-.68.07-1.36.1-2,.16-3.72-.43-6.6-4.2-8.44a4.79,4.79,0,0,0-3.9-.09,8.16,8.16,0,0,0-1.45-2.1c-1.74-1.85-4.76-2.86-7.09-1.11a18.33,18.33,0,0,0-1.85,1.62,5.07,5.07,0,0,0-5.29,0,7,7,0,0,0-.87.59C91.6,96,84,93.76,79.08,92.05a3.56,3.56,0,0,0-1.82-.17,17.61,17.61,0,0,1-7-4.68c-5.72-6.62-5.44-17.7-11.83-23.83-1.56-7.26-3.82-15.19-10.3-19.52a.46.46,0,0,0-.72.27,17.65,17.65,0,0,0,0,1.78A22.79,22.79,0,0,0,46,43.39c-.25-.4-.89-.08-.84.32C46.78,55.64,48,68,52.31,79.44a44.48,44.48,0,0,0,8.57,14.7c1.46,1.59,4.51,4.16,7.5,5A3.32,3.32,0,0,0,66,103.23l0,.17a9,9,0,0,1-2.85-2.13,1,1,0,0,0-1.73.69c-1.28-1.31-2.06-2.71-3.38-4.19a.56.56,0,0,0-.85,0c-2,2.89,1,5.91,3.28,7.83,5.35,4.52,8.57,8.84,9.85,15.68a65.24,65.24,0,0,0,1.4,6.71c-1.76-2.7-2.43-5.67-3.34-8.72-.15-.5-.93-.41-1.11,0-5,10.82,10.79,20,17.58,26A23.48,23.48,0,0,1,89.43,150a5.11,5.11,0,0,1,.58,1.31,2.53,2.53,0,0,0-.09.78,15,15,0,0,0,.25,2.26c0,.25,0,.51,0,.78a20.32,20.32,0,0,0,2,7.65c2.15,5,5.08,9.37,11.34,9.74,5.88.34,11.78-2.18,17.56-3a61.36,61.36,0,0,1,20.46.3,37,37,0,0,1,3.83,1c8.51,4.54,16.11,10.9,25.64,13.34a22.25,22.25,0,0,0,4.89.89h.51c.25,0,.5.05.75.06v-.13c4.14-.67,5.7-6,2.74-7.94a6.78,6.78,0,0,0,2.92-.32,6.84,6.84,0,0,0,4.49,1.57c4.46-.19,9.6-.39,13.6-2.45,3.81-2,6.27-5.83,8.35-9.3C213.8,158.93,216.87,150.35,211.09,142.39ZM78.17,106.54a4.7,4.7,0,0,0-1.59-1.81l-1.66-3.22a4.33,4.33,0,0,0-1.2-1.42c1.38.63,3.07,1.54,4.83,2.37a32.23,32.23,0,0,0,1.24,7.33Zm21.92,18.68a4.21,4.21,0,0,0-1.47-1.74,12.55,12.55,0,0,0,1.36-1.27,4.53,4.53,0,0,0,1.29,3A5.82,5.82,0,0,0,100.09,125.22Zm77.58,51.21a26.93,26.93,0,0,1-8.41-2.19c-2.81-1.48-5.44-3.45-7.94-5.05A56.24,56.24,0,0,0,155.5,166a58.94,58.94,0,0,0-14.73-7.17c.9-.52,1.8-1.06,2.67-1.62.44,1.45,1.6,2.73,3.83,3.6,2.95,1.15,5.77-.15,8.3-2.07a6.23,6.23,0,0,0,1.88,1.84c-1.3,3.89,3,8,7.2,6.42a5.51,5.51,0,0,0,6.19,3.57,5.55,5.55,0,0,0,4.52,2.72c.07.16.14.31.22.46a7.41,7.41,0,0,0,2.44,2.78Z"/><path class="cls-4" d="M232.1,150.12c.33,0,.67.1,1,.12a2.26,2.26,0,0,1,.53.09c.25,0,.51,0,.76,0s.56,0,.84-.08a1.45,1.45,0,0,1,.75.09c1.51-6.35,0-13-3.22-18.89-1-7.14-6.63-14-12-18.62a24.89,24.89,0,0,0-15.13-5.67c-3-2.15-7.16-3.26-10.65-4-5.11-1-11.62-1.35-16.18,1.51l-1.3-.19A109.24,109.24,0,0,1,161.73,101c-3.44-1.06-6.77-2.47-10.22-3.51a3.83,3.83,0,0,0-2.45-3.79,7.21,7.21,0,0,1-1-.52l-.43-.35-.19-.17a40.24,40.24,0,0,0-3.69-4.15c2.56-3.25,1.85-7.43-.37-11.24a12.14,12.14,0,0,0-1.54-5.59A5.71,5.71,0,0,0,138.18,69c-1.82-5-6.31-7.45-11.48-7.94-2.19-1.75-4.61-3-7.3-2.92A4.21,4.21,0,0,0,117,59c-6.12-3.67-13.67-5.15-20.5-7.16a1.82,1.82,0,0,0-1.91.56C90.42,48.61,86,44.77,80.2,44.75c-1.13,0-2.09,1.25-1.2,2.16,4.18,4.24,9.17,7.83,13.72,11.74a95.32,95.32,0,0,0,15.76,11c5.06,2.81,14.09,5.08,13.55,11.79-.28,3.47,0,6.14,1.32,8.57a17.91,17.91,0,0,0,4,8.2c5.63,6.59,15.41,10.32,23.75,12.75,10.15,3,20.08,2.12,30.49,2.89,5.59.41,11.11,1,16.63,2,2.73.45,5.36,1.06,8,1.7l.2.07c7.34,2.94,14.44,7.3,19.15,13.47A29.88,29.88,0,0,1,232.1,150.12Z"/><path class="cls-4" d="M223.26,159.09a5.28,5.28,0,0,0,.68-.44c-.12-2.69.27-5.49,1.95-7.48a3.06,3.06,0,0,1,.56-.53,17,17,0,0,0-.92-3.4,16.08,16.08,0,0,0-1.9-3.48c-2.69-5.95-8.68-11.27-13.68-14.58-6.53-4.32-17.39-8.86-25.75-6.61-5.31-1-11.24,0-16.56.07-6.33,0-12.71-.24-19-.66-6-.41-13.89-.17-19.53-2.39s-3.79-7.56-6.31-11.2l.17-.1.87-.59a2.25,2.25,0,0,0,.72-2.21,10.74,10.74,0,0,0-.4-1.91c2.1-6.38-7.7-10.83-13-11.71-4.3-.72-8.46.78-12.79.59-4.59-.21-9.15-.94-13.66-.25a62,62,0,0,1-11.19-5.3c-5.55-3.33-7.8-7.2-9.45-13.09-1.32-4.73-2.19-9.56-3.94-14.18-.28-.75-.6-1.49-.92-2.23L60,58.59a1,1,0,0,0,1.81-.51c.25-3.69-2.24-6.78-4.59-9.52s-4.59-6.12-8.17-7.5c-.34-.13-.76.21-.58.55s.41.75.63,1.12a55,55,0,0,0-4.29-3.91c-1-.83-2.57.71-1.63,1.64A53.14,53.14,0,0,1,58,66.2c2,8.27,2.75,17.18,10.36,22.71a63,63,0,0,0,25.9,10.66,90.32,90.32,0,0,0,14.13,1.1l.87,0a12.77,12.77,0,0,1,4.11,4.39,5,5,0,0,1,.37.83c-1.06,7.09.14,14,6.75,19.15l.39.28a12.14,12.14,0,0,0,7,3.78c7.83,2.9,16.73,2.41,25.18,1.39,13.71-1.65,26.91-1.92,40.3,1.91,2.77.8,5.5,1.73,8.17,2.8a35.38,35.38,0,0,1,5.62,5.88,29.63,29.63,0,0,1,2.69,8.29,41.53,41.53,0,0,1,0,10.45,31.32,31.32,0,0,1-1.38,3.47c-1.37,2.89-4,5.49-5.18,8.47l-.35.37a.92.92,0,0,0-.06,1c0,.13-.06.25-.08.39a1.12,1.12,0,0,0,1.57,1.06,8.58,8.58,0,0,0,3.21-2.3,26.67,26.67,0,0,0,8.82-7,15.2,15.2,0,0,0,3.67-3.4,23.11,23.11,0,0,0,1.91-2.81A1.6,1.6,0,0,0,223.26,159.09Z"/><path class="cls-4" d="M195.81,172.37c-.48-1.68-2-3-2.86-4.5a29.24,29.24,0,0,1-1.67-3.42,13.78,13.78,0,0,0-1.3-8.14c2.25-9.54-11.92-17.45-20.39-17.3-6.6.12-13.23,1.27-19.73,2.2a30.74,30.74,0,0,1-11.34-.62c-2.91-.62-5-1.12-7.78.12a30.79,30.79,0,0,1-3.85-2.87,53,53,0,0,1-6.6-7.77c-.31-.42-.62-.82-.94-1.2a7.93,7.93,0,0,0-1-2.64c-2.2-3.42-7.18-3.31-10.82-2.19a33.49,33.49,0,0,0-4.91,0,33.48,33.48,0,0,1-7.81-.44c-1.07-.2-2.08-.49-3.07-.77L90,121.93c-2-1-3.4-2.49-5.16-3.68-.4-.57-.79-1.13-1.16-1.7a15.83,15.83,0,0,1-1.16-2c.4-2-.3-4.87-.93-6.94,1.11-4.34-2.08-8.23-6.51-9.44a31.61,31.61,0,0,0-7.83-.65c-2.38,0-4.69-.93-7-.83a19.9,19.9,0,0,0-2.64-.53,1.92,1.92,0,0,0-.24,0,13.49,13.49,0,0,1-1.82-2.59c-.31-.57-1.44-.38-1.23.32,1.49,5.2,5.11,8.37,10.71,9.55s9.61,1.26,11.24,7.34c.78,2.92,1,6,2.36,8.71,2.4,4.73,7.4,7.73,12.56,9.25,7.5,2.2,17.08-.41,22.66,5.71,2.1,2.31,3.92,4.49,5.89,6.47a12.4,12.4,0,0,0,2.12,2l.16.08a25.45,25.45,0,0,0,6.63,4,37.81,37.81,0,0,0,18.51,2.59c9.1-1,17.25-5.39,26.49-2.27a21.89,21.89,0,0,1,11.21,8.42c2.06,3.07,2.87,6.63,4.42,9.92a1,1,0,0,0,.45.46,17.49,17.49,0,0,0,1.21,2.66c.92,1.61,2,3.67,3.82,4.44C195.22,173.43,196,172.94,195.81,172.37Z"/><path class="cls-4" d="M207.09,96.68c-5.65-.74-11.1-1.71-16.82-2.22-6.27-.57-12.82-1.31-18.19-4.68-4.36-2.73-8.23-7.16-9.63-12-2.72-9.43,8.71-10.06,15.33-12.87a1,1,0,0,0-.31-1.84c-5.69-.62-14.66,1-18.35,5.58-4.26,5.3-1.1,13,2.42,17.82,10.23,14.07,29.71,12.56,45.57,11.6C208,98,207.91,96.79,207.09,96.68Z"/><path class="cls-4" d="M50.77,66A39.29,39.29,0,0,0,40.41,50.75c-4.13-3.71-9.14-7.2-15.09-7.08A17.37,17.37,0,0,0,11,51.87C6.27,59.5,6.14,76.4,19.09,76.21c9.59-.14,20.58-13.54,10.25-20.07-.73-.46-1.95.25-1.44,1.09,2.63,4.4,2.53,9.23-1.65,12.8-4.85,4.12-12.51,4.16-14.51-2.61C9.3,59.14,13.61,46.73,24.21,46.34,32.82,46,40.33,55.2,44,61.58c3.79,6.56,5.39,14.23,6.42,21.55.08.59,1.14.8,1.32.15A26.26,26.26,0,0,0,50.77,66Z"/><path class="cls-4" d="M60,134.93c-7.61-7.82-16.13-14-19.74-24.54-3.66-10.68-2.57-22.39-.67-33.3.18-1-1.57-1.46-1.93-.45-7.93,22.54-2.33,47.86,21.12,59.86C59.68,137,60.64,135.63,60,134.93Z"/><path class="cls-4" d="M98.45,72.64C79.63,65.59,68.33,49.76,62,32.18c-.15-.4-.87-.23-.77.19,1.24,5.08,2.09,9.67,4.4,14.48a57.58,57.58,0,0,0,8.26,12.78C80.12,66.82,88.24,72.43,98.08,74A.71.71,0,0,0,98.45,72.64Z"/><path class="cls-4" d="M126,29.4c-4.19.31-11.34,1.57-12.71,6.21s6.22,5.9,9.42,6.58c4.57,1,15.85,2.59,18.63-2.34,1.36-2.4-.5-5.14-3.22-3.48-.57.34,0,1.25.6,1-.05.59-.09,1.18-.13,1.77l-1.47.36a12.7,12.7,0,0,1-3.32.5,38.18,38.18,0,0,1-8.81-.15,18.71,18.71,0,0,1-4.53-.93,3.17,3.17,0,0,1-2.17-1.45q-2.64-1.14-.19-2.1c1.63-1.89,5.29-2.19,7.68-2.4a68.82,68.82,0,0,1,15.57.74c1.57.23,4.24.35,5.55,1.31L150,41.27l-2,2.38a13.29,13.29,0,0,1-4.9,2.21C124,51.31,104.24,44.52,87,36.57a.62.62,0,0,0-.64,1c5.5,4.06,12.33,6.22,18.88,8.33s13.13,4.23,20.14,4.53c8.47.36,28.11-.48,28-12.15C153.25,28,132.76,28.9,126,29.4Z"/><path class="cls-4" d="M162.55,33.79c-.25-.61-1.39-.51-1.4.19,0,4.35,1.19,8.51-.81,12.68s-6.11,6.43-8.91,9.87a1,1,0,0,0,1.19,1.39C162,52.85,166.56,43.54,162.55,33.79Z"/><path class="cls-4" d="M202.13,173.73c-2.49-.71-4.49.22-7,.7-3,.55-6,.88-9,1.13a22.23,22.23,0,0,1-8.77-.78c-.3-.12-.62-.23-.92-.36-4.31-1.83-8.12-4.42-12.05-6.86-.59-3-4.6-6-7.22-7.53-3.19-1.87-7.43-2.71-10.58-.37a.88.88,0,0,0-.38.79,72.39,72.39,0,0,0-11.71-1.15c-10.41-.22-23.1,2.26-32.91-1.8-2.67-1.11-5.11-2.94-6-5.68a13.63,13.63,0,0,1-.33-4.46,1.32,1.32,0,0,0,.28,0c3-.6,3.79-3.39,2.31-5.83-2-3.23-6.79-3.83-10.18-5-5.27-1.78-10.5-4.24-14.31-8.21s-7-10.64-6.14-16.05c.09-.57-.78-.65-.92-.12-1.14,4.14-1.77,6.73-.29,11a24.32,24.32,0,0,0,6.5,9.61,39.49,39.49,0,0,0,10.34,6.77c1.71.8,5.05,1.57,7.61,2.75,1.16,3.68-.12,7.34,1.25,11.16,1.25,3.47,4.31,6,7.74,7.59,9.32,4.19,21.32,2.67,31.3,2.63,6,0,12.1.18,17.92,1.66,5.5,1.4,10.19,4.11,14.81,7.14,1.75,1.15,3.57,2.3,5.46,3.39a.39.39,0,0,0,.38.46.3.3,0,0,0,.24-.1,53.19,53.19,0,0,0,11.9,5.16c-.34.08-.69.16-1,.22-4,.78-8.24.78-12.22,1.5-2.32-1.65-4.81-3.1-7.07-4.83s-4.4-4-6.76-5.76c-4.79-3.64-10.93-4.28-16.88-4.56-14.52-.69-28.59,4.16-42.64-1a.54.54,0,0,0-.56.9c9.28,8.61,25.26,3.2,36.6,3,8-.14,16.75,0,22.94,5.31,4.4,3.78,8.76,8,14.59,9.69a1.18,1.18,0,0,0,1-.16,8,8,0,0,0,2.36.48,43.28,43.28,0,0,0,7.61-.79c3.8-.56,9.06-.86,12.53-2.94h.07a1.74,1.74,0,0,0,1.56-1.24l0,0a.68.68,0,0,0,.07-.76,2,2,0,0,0-.94-1.74c4.05-.37,8-1.28,9.69-3.72A.75.75,0,0,0,202.13,173.73Z"/><path class="cls-5" d="M125.74,66.35c-3.58-2.67-9-3.5-13.38-4.51-6-1.4-12.17-2.47-17.57-5.47-.42-.24-.8.41-.43.68,7.7,5.65,16.47,6.4,25.47,9.09,11.17,3.34,9.7,17,10.54,25.87.07.72,1.21.67,1.32,0C132.93,84.12,133.13,71.89,125.74,66.35Z"/><path class="cls-5" d="M189.52,109.94a179.45,179.45,0,0,1-26.6-2.34c-8.71-1.57-20.75-2.51-25.44-10.42-.11-.18-.43-.13-.39.11,1.18,8.35,14.13,9.51,20.92,10.88,10.24,2.08,21.07,4,31.54,2.58A.41.41,0,0,0,189.52,109.94Z"/><path class="cls-5" d="M126.85,127c-3.92-3.41-7.23-7.35-8.62-12.29-1.32-4.66-.47-8.89.43-13.5,0-.27-.34-.32-.46-.11-5.13,8.88-.56,21.26,8.27,26.38A.31.31,0,0,0,126.85,127Z"/><path class="cls-5" d="M188.07,125.64a66.06,66.06,0,0,0-17.93-.47c-7.36.86-14.74,2.85-22.2,2.79-.2,0-.25.29,0,.3,10.48.73,20.6-2.44,31.14-2.06,10.84.39,26.14,2.42,29.35,14.06a.48.48,0,0,0,.94-.17C208.79,130.24,196.57,127,188.07,125.64Z"/><path class="cls-5" d="M215.22,142c-.1-.16-.4,0-.3.17,5,8.84.17,18.13-5.11,25.63-.19.26.2.54.41.29C216.85,160.54,221,150.93,215.22,142Z"/><path class="cls-5" d="M148.15,146.69c-6.69.72-13.59.83-19.65-2.35-5.59-2.93-8-7.28-9.86-12.75a.2.2,0,0,0-.37,0c-.31,5.51,4.3,10.6,9,13.3,6.27,3.54,14,3.93,20.94,2.36A.31.31,0,1,0,148.15,146.69Z"/><path class="cls-5" d="M106.56,126c-5.55.38-13.33,2.34-18.45-.38-5.63-3-8.21-10.42-8.58-16.1a.18.18,0,0,0-.32,0c-1.68,5.28,2.23,12.68,6.52,16.11,5.37,4.31,14.77,2.23,20.93,1A.3.3,0,1,0,106.56,126Z"/><path class="cls-5" d="M78.45,103.94c-.87-1.94-2.16-4.21-4.66-4.44-1.72-.15-3.64.77-5.37.93a13.4,13.4,0,0,1-10-3.1c-.14-.12-.3.09-.18.2a13.08,13.08,0,0,0,7.44,3.68,11.48,11.48,0,0,0,4-.19,21.52,21.52,0,0,1,2.07-.79c3.46-.44,4.91,1.07,6.32,3.84C78.21,104.27,78.55,104.15,78.45,103.94Z"/><path class="cls-5" d="M42.8,56.83c-.14-.15-.38,0-.26.19a40.79,40.79,0,0,1,7.22,16.81.19.19,0,0,0,.37,0A29.67,29.67,0,0,0,42.8,56.83Z"/><path class="cls-5" d="M36.65,87.48c0-.21-.3-.25-.34,0a48.84,48.84,0,0,0,2,24.9c.06.18.36.06.3-.12A54.43,54.43,0,0,1,36.65,87.48Z"/><path class="cls-5" d="M84.67,163.78A11.67,11.67,0,0,1,72.47,156c-.9-2.4-1-5.21-3.62-6.63s-6.83-1.09-9.77-.89a39.45,39.45,0,0,0-12.72,3.32c-.22.08-.08.39.14.32a47.61,47.61,0,0,1,16.85-2.28c1.05.05,2.88-.06,3.8.43,1.58.85,2.69,3.37,3.26,4.9a26,26,0,0,0,1.74,4.37c2.54,4.33,7.72,7.3,12.82,5.1C85.51,164.41,85.19,163.75,84.67,163.78Z"/><path class="cls-5" d="M180.36,160.15c-4.52-4.23-10.41-5.88-16.51-7-.67-.12-.85.87-.24,1.08,4.39,1.48,9.09,3,12.89,5.59a16.87,16.87,0,0,1,4.81,4.71c1.24,1.92,1.6,4.19,2.92,6a.23.23,0,0,0,.38-.05C186.37,167,182.92,162.54,180.36,160.15Z"/><path class="cls-5" d="M123.87,148.12a7.06,7.06,0,0,0-9.34,1.4c-.35.41.2.9.65.72,2-.79,5.49-2.31,7.5-.72q2.53,5.1-1,5a19.06,19.06,0,0,1-2.13.15,15.65,15.65,0,0,1-3.35-.23c-6-1.15-7.16-6-8.87-10.78a.23.23,0,0,0-.44.05c-.22,4,.9,8.4,4.45,10.87,3,2.13,9.56,3.09,13,1.29S126.42,149.89,123.87,148.12Z"/><path class="cls-6" d="M173.18,166.73c-4.27-5.95-12.66-12.24-20.37-13.37-5.65-.83-15.57-1.17-20.34,2.31a.25.25,0,0,0,.2.43c7.18-1.13,14.8-2.74,22-.58s11.84,8.06,17.79,11.95A.52.52,0,0,0,173.18,166.73Z"/><path class="cls-6" d="M183.38,132.26a69,69,0,0,0-30,2.89c-.37.13-.16.6.19.58,8.18-.49,15.89-2.86,24.21-2.61a43.86,43.86,0,0,1,11.51,1.78,25.16,25.16,0,0,1,5.43,2.21q4.8,2-.63,6.18c-2.71-.84-2.57-1.31.4-1.43.25.23.73,0,.56-.32-1.15-2.25-6.18-2-5.21.76.63,1.78,4.57,3,6.36,2.63a3.78,3.78,0,0,0,3.16-3.81C199.34,134.88,188.15,132.91,183.38,132.26Z"/><path class="cls-6" d="M199.89,150.44c1.09-3.46,3.44-6.49,2.27-10.16-.07-.22-.48-.16-.48.07-.13,5.8-4.43,10.72-4.6,16.72-.11,4,.73,8.24,4.29,10.7.31.22.77-.12.59-.45C198.93,161.74,198,156.57,199.89,150.44Z"/><path class="cls-6" d="M111.53,118.73c-4.41-2.56-5.79-5.38-7-10-.45-1.65-.87-3.36-2.37-4.49-3.33-2.51-9.89-1.17-13.42,0-.28.1-.13.48.14.46,2.22-.16,4.45-.5,6.69-.55,2.58-.06,2.86,0,5.13,1.83s2.22,1.86,2.76,4.14a25.36,25.36,0,0,0,.84,3.07c1.16,3,3.31,6,6.94,6.29A.47.47,0,0,0,111.53,118.73Z"/><path class="cls-6" d="M61.78,88.61c-3.47-7.56-5-16.47-5.17-24.65,0-.24-.41-.23-.44,0-1,9.07,1,16.7,5.19,24.82C61.49,89,61.9,88.87,61.78,88.61Z"/><path class="cls-6" d="M56.5,112c-3.87-4.68-7.19-9.46-9-15.22-2.14-6.91-1.09-13.28-1.09-20.28,0-.22-.33-.35-.43-.11-4.36,11.37-1.29,29.09,10,36.12C56.33,112.74,56.76,112.33,56.5,112Z"/><path class="cls-6" d="M112.07,142.61c-1.65-8.24-13.37-13.16-21.37-10.74-.23.07-.15.4.07.43,4.64.53,9,.28,13.27,2.58,3.47,1.87,5.48,4.7,7.32,7.93C111.55,143.15,112.15,143,112.07,142.61Z"/><path class="cls-6" d="M121.38,165.62c-4.65-.23-9.32,0-14,0S94.26,164,92.77,159c0-.18-.34-.09-.32.08.34,4.29,5.88,6.44,9.81,7.3,5.91,1.31,13.15.46,19.13-.26A.24.24,0,0,0,121.38,165.62Z"/><path class="cls-6" d="M170.26,180.67c-7.91-1.63-10.76-9.94-18.41-11.71-.24-.05-.3.29-.11.38,6.4,3,10.59,12.27,18.53,11.81C170.58,181.13,170.53,180.72,170.26,180.67Z"/><path class="cls-6" d="M54.35,142.73a63.65,63.65,0,0,1-11.66-9c-3.72-3.67-4.94-7.71-5.88-12.56,0-.18-.34-.2-.35,0-.4,10.31,8.16,17.95,17.67,21.91C54.36,143.19,54.57,142.86,54.35,142.73Z"/><path class="cls-6" d="M86.05,152.16a10.75,10.75,0,0,0-3.22-6.92c-2.22-2-5.37-2.26-8.3-2.53a.18.18,0,1,0,0,.36c5.29.7,9.42,2.81,10.48,8.12a8.62,8.62,0,0,1,.11,2.91C84.65,157,83.65,157.66,81,158q-3.11,1.25-4.77-2l3.22-5c1.81-.66,2.5,3.34,1.29,4.6-.22.22.12.61.4.46,3.26-1.68,1.35-6-2.14-5.82-5.29.3-4.32,7-.52,8.69C83.38,161.12,86.39,156.14,86.05,152.16Z"/><path class="cls-6" d="M80.44,72.39c-4.1-2.31-4.89,2.87-4.14,5.41a.33.33,0,0,0,.65-.1c-.21-2.46,1.9-5.31,4.23-2.81A8,8,0,0,1,83,78.75q2.28,5.09-7.2,3l-.89-1.08a15.59,15.59,0,0,1-2.52-4.34c-2.16-4.8-2.41-9.84-3.9-14.77-.06-.22-.48-.28-.48,0a35.27,35.27,0,0,0,5.31,18.48c1.93,2.93,6.82,7.33,10.11,3.2C85.72,80.35,83.61,74.18,80.44,72.39Z"/><path class="cls-7" d="M226,155.39c2.19-15-7.43-27.68-21.27-32.54-16.08-5.65-33.18-2.1-49.74-2.17a73.11,73.11,0,0,1-13.46-1.15c-4.36-.84-12.33-2.47-15-6.53s.29-8.55-1-12.87A14.53,14.53,0,0,0,120,92.84c-15.11-11-37.71,5.9-49.3-12.67C62.17,66.59,64.83,40.37,44,37.71a1,1,0,0,0-.46,1.87C61.94,46,58.63,68,67.23,81.91c3.46,5.62,8.51,9.71,15,11.11,8,1.72,16.12-.55,24.2-.25,4.76.17,9.78,1.28,13.14,4.93,4.06,4.41.87,8.35,1.7,13.3,1.09,6.4,8.84,9.45,14.25,11.11,16,4.9,32.78,1,49.11,1.44,9,.23,18.44,1.47,26.13,6.43a25.85,25.85,0,0,1,11.76,25.17c-.28,2.19,3.08,2.39,3.4.24Z"/><path class="cls-7" d="M53.21,93.44c3.85,3.87,9.63,4.13,14.82,4.34,3.31.13,7,.06,9.86,1.89,4.84,3,2.91,8,3.32,12.7,1.11,12.65,17.29,11.43,26.18,11.9,3.85.21,7.87.86,11,3.21,3.38,2.51,2.88,5.49,4.37,8.9,1.79,4.09,6.63,5.24,10.65,5.65,8.17.83,16.45-.43,24.59-.95,7.81-.51,18-1.28,24.4,4.14,8.64,7.28,4.59,29.84,20.39,29.37a1.21,1.21,0,0,0,.23-2.41c-13.82-3-9.48-22.23-19.34-29.67-10.25-7.74-26.11-4-37.82-3.25a69.82,69.82,0,0,1-12.85,0,12.49,12.49,0,0,1-5.05-1.39c-2.48-1.54-2.79-3.68-3.47-6.22-1.18-4.36-4.91-7.19-9-8.65-6.31-2.24-13-.89-19.55-1.69-3.49-.43-7.21-1.46-9.75-4-3.52-3.59-2-7.89-2.34-12.31-1.31-15-22.72-5.3-30.22-12.08-.36-.32-.78.25-.45.58Z"/><path class="cls-7" d="M193.5,180c-2.49-1.94-6-2-9-2.85a38.61,38.61,0,0,1-9.3-3.85c-5.56-3.44-8.45-9.58-14.34-12.68-12.58-6.62-27-2.24-40.39-2.37a42,42,0,0,1-11.81-1.55,31.15,31.15,0,0,1-5.71-2.34,14.05,14.05,0,0,1-2.47-1.48q-3.63-4-.55-6.44c1.59-3.89.78-7-3.25-9.17-2.46-1.29-5.32-1.67-7.9-2.67a32.37,32.37,0,0,1-10.17-6.37c-5.1-4.69-6.86-10.2-9.86-16.14-.55-1.08-2.44-.92-2.47.43-.22,11.37,11.62,21.73,21.31,25.5,1.78.7,4.37.87,6,1.87,8.15,5.13,2.64,3.7,1.65,6.36-.77,2.08-1.25,3.39-.29,5.57,2.48,5.65,11.07,8.23,16.46,9.35,15.57,3.25,32.85-5,47.64,2.61,6.42,3.29,9.63,10.18,16.13,13.55,4.52,2.34,13.12,5.64,18.18,4.07a.82.82,0,0,0,.17-1.4Z"/><path class="cls-7" d="M222.65,143.34c-.71,3.18.24,6.46-.26,9.71s-2.27,6.09-2.59,9.29a1,1,0,0,0,1.61.88c4.78-3.52,6.55-15.73,2.44-20.2a.68.68,0,0,0-1.2.32Z"/><path class="cls-7" d="M235.73,152.31c8.48-10.11,2-25.86-5.5-34.36a56,56,0,0,0-16.63-13.2c-6.27-3.08-13.23-3.61-20.11-3.86-7.57-.27-15.15-.53-22.62-1.91a68.45,68.45,0,0,1-10.81-2.82c-3.7-1.33-9.23-3.21-11.7-6.61s-1.07-8.84-1.45-13a17.09,17.09,0,0,0-2.85-8.08c-3.27-4.87-8.2-8-13.54-10.16-8-3.25-16.72-5-25-7.31-8.7-2.38-17.4-5.27-26.42-6.16a1.28,1.28,0,0,0-.57,2.46c8.68,4.09,18.21,6.14,27.42,8.7,8.66,2.4,18.34,4,26.32,8.34,4.12,2.23,8.16,5.64,9.3,10.39,1,4-.47,8.2.06,12.27.93,7,7,10.53,13,13.19a78.56,78.56,0,0,0,23.22,5.85c8.88,1,18.17.06,26.91,2s16.67,8.49,22.29,15.39a34.47,34.47,0,0,1,6.32,11.41c1.79,5.75.77,10.66-.38,16.43-.32,1.64,1.93,2,2.79,1Z"/></g></g></g><g id="PixelsASSETS"><g id="Espalda"><rect class="cls-8" width="275" height="259.5"/></g></g></g></g></svg>