<svg xmlns="http://www.w3.org/2000/svg" viewBox="0 0 160 195"><defs><style>.cls-1{isolation:isolate;}.cls-2{fill:#c2b6d5;}.cls-3{fill:none;mix-blend-mode:multiply;}</style></defs><g class="cls-1"><g id="Layer_2" data-name="Layer 2"><g id="Variación_B" data-name="Variación B"><g id="AssetsB4"><g id="HamA4"><path class="cls-2" d="M70.59,80.81c5.88-.36,7.15-10.09,6.76-14.53a23.29,23.29,0,0,0-9.46-16.41c-4.82-3.33-12-2.32-17.26-.42A18.23,18.23,0,0,0,39.42,61.9C36.5,72,41.47,88.84,55.14,84.26a13.06,13.06,0,0,0,8.58-12.1c0-4.89-4.68-11.07-9.75-7.69a1.91,1.91,0,0,0,.13,3c1.38,1,3.87,2.13,4.63,3.64,1.27,2.54-1.16,5.81-3.15,7.08a7.27,7.27,0,0,1-10.83-3.68c-2.23-5.63-.67-13.9,4.22-17.73,2.88-2.26,6.78-2.93,10.37-2.83,4.17.12,7.09,2.74,9.18,6.26a17.69,17.69,0,0,1,2.42,10.64c-.29,3.25-2.41,6.12-1.48,9.34a1.08,1.08,0,0,0,1.13.62Z"/><path class="cls-2" d="M81.77,84.7c-1.5,5.38,7.12,8.84,11.11,9.67a22.42,22.42,0,0,0,18.23-4.52c5-4.3,6.09-12.11,5.4-18.3a18.27,18.27,0,0,0-9.9-14.15c-5-2.68-11.73-4.15-17.16-2.06-5.19,2-8.93,7.78-7.91,13.39.92,5.08,5.3,9.73,10.5,10.43,4.63.62,11.23-2.55,9.06-8a1.91,1.91,0,0,0-2.93-.64c-1.45,1.37-4.53,3.76-6.53,3.58-2.79-.26-4.53-3.76-4.77-6.15-.46-4.68,3.11-7.9,7.56-8.1,7-.3,14.95,3.82,16.23,11.19,1.43,8.27-2.91,15.57-11.35,16.93a17.73,17.73,0,0,1-10-1.33c-2.3-1-4.11-3-6.72-2.6a1,1,0,0,0-.81.64Z"/><path class="cls-2" d="M78.4,89.38C76.64,83.76,66.76,85,62.61,86.51A23.3,23.3,0,0,0,49.85,98.36c-2.76,5.88-.46,12.42,2.87,17.67a18.1,18.1,0,0,0,14.69,8.3c10.62.57,26.25-8.55,18.22-20.86a13.06,13.06,0,0,0-13.88-5.24c-4.73,1.3-9.47,7.34-4.94,11.38a1.91,1.91,0,0,0,2.87-.89c.55-1.5,1.08-4.46,2.35-5.4,2.32-1.71,5.79-.44,7.63,1.27A7.31,7.31,0,0,1,78.82,116c-5.4,4-14.77,4.17-19.57-.87-5.49-5.75-5.41-13.78.35-19.15a17.64,17.64,0,0,1,9.14-4.47c3-.49,6.43.83,9.12-.78a1.09,1.09,0,0,0,.54-1.38Z"/></g></g></g><g id="PixelsASSETS"><g id="Pierna"><rect class="cls-3" width="160" height="195"/></g></g></g></g></svg>