<svg xmlns="http://www.w3.org/2000/svg" viewBox="0 0 160 195"><defs><style>.cls-1{isolation:isolate;}.cls-2{fill:#c2b6d5;}.cls-3{fill:none;mix-blend-mode:multiply;}</style></defs><g class="cls-1"><g id="Layer_2" data-name="Layer 2"><g id="Variacion_C" data-name="Variacion C"><g id="AssetsC4"><g id="HamA4"><path class="cls-2" d="M104.23,48.74c-2-3.68-10.8-2.89-14-2.57C77.58,47.48,64.08,51.23,54.05,59.4c-.6.49.1,1.57.78,1.14a79.14,79.14,0,0,1,22.62-10A92.78,92.78,0,0,1,89,48.33,37.07,37.07,0,0,1,95.32,48c2,.09,9,1.59,4.48,4.93a.68.68,0,0,0,.59,1.17C102.39,53.52,105.57,51.21,104.23,48.74Z"/><path class="cls-2" d="M96.06,55.74c-5.44,1.66-10.48,4.66-15.92,6.47a56.83,56.83,0,0,1-7.7,2.19,22.76,22.76,0,0,1-7,.09c-.56-.07-5.25-.57-5.47-1.15C59.08,60.92,88.53,51,92,52.45c.51.21.79-.56.31-.79-2.15-1.06-4.82-.39-7.08.05-4.42.86-8.8,2.24-13.11,3.53-2.62.79-15.08,4-14.37,8.24S70.06,66.92,73,66.37c7.6-1.44,17.53-4.65,23.67-9.49A.66.66,0,0,0,96.06,55.74Z"/><path class="cls-2" d="M91,54.41C85.56,57.84,78.57,60,72.31,61.3c-.62.13-4.15,1.3-2,.22a29.32,29.32,0,0,1,4.3-1.31c2.9-.91,5.9-1.57,8.58-3a.46.46,0,0,0-.27-.86c-5.44.39-11.13,2.8-16.11,5a.66.66,0,0,0-.35.72c.92,5.38,22.86-3.7,25-7.13A.36.36,0,0,0,91,54.41Z"/><path class="cls-2" d="M114.87,51.59a4,4,0,0,0-5.33-3,.88.88,0,0,0-.06,1.68c6.2,2.43-3.46,8.3-5,9.22a59.49,59.49,0,0,1-8.34,4.16,95,95,0,0,1-14.82,4.55,94.17,94.17,0,0,1-18.28,2.72,39.06,39.06,0,0,1-10.4-1,25.24,25.24,0,0,1-3.44-1c-2-.29-2.7-1.44-2-3.47-.63-1.59-.29-2.77,1-3.55a.81.81,0,0,0-1.09-1.19c-6.47,5.35-1.38,9.53,4.9,11.1,10.39,2.59,21.24.58,31.48-1.69C93.2,68,103,64.92,110.79,58.71,112.91,57,115.54,54.64,114.87,51.59Z"/><path class="cls-2" d="M114.69,64.26c-1.57-2.17-6-1.66-8.21-1.26a.93.93,0,0,0,0,1.78c.89.32,2.32.33,3.1.73.6,0,1,.32,1.14,1.07,1.16.83,1,1.48-.42,2-1.87,2.24-6,3.58-8.56,4.56a91,91,0,0,1-15.57,4.24C80.58,78.4,75,79.24,69.36,80a69.39,69.39,0,0,1-8.4.65,36.07,36.07,0,0,1-5.39-.36c-1.29-.19-8.18-.85-4.12-4.93a.55.55,0,0,0-.59-.91c-6.19,3-1.2,7,3.34,7.87,9.69,1.89,20.37-.48,30-2.05,9.28-1.51,20.53-3.45,28-9.63C113.89,69.22,116.41,66.64,114.69,64.26Z"/><path class="cls-2" d="M110.19,77.54c-1.78-2-7.12-.49-9.1.33a.58.58,0,0,0,0,1,11.76,11.76,0,0,0,2.77.66c1.35.16,2.88-.68,2.11,1-.68,1.52-6.64,3.07-8.22,3.62a71.66,71.66,0,0,1-17.15,3.54A126,126,0,0,1,63.49,88c-3.22-.14-6.43-.39-9.65-.63-1.28-.09-2.57-.15-3.85-.28-2.05.43-3.05-.41-3-2.52-1.19-1.41-1.06-2.5.36-3.26.75-.72-.21-2.17-1.12-1.53-5.6,4-3.46,8.78,2.8,9.78a128.81,128.81,0,0,0,34.25.71A74.83,74.83,0,0,0,97,87.44c3.7-1.15,9-2.66,11.91-5.33C110.15,81,111.52,79.06,110.19,77.54Z"/><path class="cls-2" d="M101.52,87.29c-1.34-.94-2.2.26-3.45.6-.34.09-.49.63-.08.75a1.77,1.77,0,0,0,.61.23c-1,.42-2,.82-3,1.17A51.47,51.47,0,0,1,89,91.84a90.53,90.53,0,0,1-13.33,1.62c-2.81.16-27.25.4-26.4-1.81.38-1-1.15-1.66-1.68-.76-2.59,4.39,6.59,5.06,9,5.28a129.76,129.76,0,0,0,26.06-.75A67.7,67.7,0,0,0,94.67,93c1.73-.54,6.18-1.42,7.24-3A1.9,1.9,0,0,0,101.52,87.29Z"/><path class="cls-2" d="M98.41,94a9.29,9.29,0,0,0-3.17-.49.7.7,0,0,0-.42,1.27l1,.63c-4.52,3.2-10.71,3.77-16,4.46-3.9.5-22.57,2.82-23.61-2.74A.66.66,0,0,0,55,97c-2.73,7.25,14.86,6.08,18.15,5.94,8.43-.36,19.36-.86,25.94-6.83A1.31,1.31,0,0,0,98.41,94Z"/><path class="cls-2" d="M92,102.25l-1.29.57a.65.65,0,0,0-.39.5C85,106.68,78.16,107.16,72,107.15c-3.82,0-23-.41-19.51-7.84a.37.37,0,0,0-.4-.49c-2.18.48-4.13,2.6-3.08,5,1.69,3.85,9.54,4.6,12.9,5.14,9.78,1.59,23.37,2.16,31.46-4.6C94.29,103.57,93.19,101.73,92,102.25Z"/><path class="cls-2" d="M79.49,112a39.36,39.36,0,0,1-13.6.67c-4.57-.61-8.76-2.4-13.24-3.34-.35-.07-.45.4-.23.59,3.88,3.39,9.16,4.62,14.18,5.21,4.14.49,10.22,1.22,13.43-2A.63.63,0,0,0,79.49,112Z"/><path class="cls-2" d="M81.9,115.34c-3.21-.18-6.18,1.46-9.32,1.91-4.11.6-8.18-.25-12.28.1-.56,0-.56.88-.09,1.05,6.35,2.29,16.47,2.28,21.93-2.28A.44.44,0,0,0,81.9,115.34Z"/><path class="cls-2" d="M82.52,118.92c-3.23.8-5.76,2.74-9.25,2.8-2.91.06-5.75-.81-8.63-.12a.38.38,0,0,0-.08.71c4.94,2.35,15.45,2.83,18.36-2.9A.36.36,0,0,0,82.52,118.92Z"/><path class="cls-2" d="M84.58,122.4a16.85,16.85,0,0,1-7.25,2.81c-2.85.29-5.66-.53-8.49-.2a.53.53,0,0,0-.21.94c4.77,2.51,13.83,2.58,16.45-3.08C85.21,122.6,84.86,122.22,84.58,122.4Z"/><path class="cls-2" d="M85.24,126.09a.45.45,0,0,0-.63-.06c-.53.41-.7,1-1.15,1.46a4.91,4.91,0,0,1-2.35,1.39A10.73,10.73,0,0,1,76,129a.5.5,0,0,0-.49.71C77.78,133.3,87.85,129.87,85.24,126.09Z"/><path class="cls-2" d="M87,129.4a.4.4,0,0,0-.53.44c.28,1.83-2.46,2.88-3.81,2.74-1.11-.11-2.35-.55-3.23.35a.22.22,0,0,0,0,.25c.52,1.08,1.9,1.17,3,1.33a4.65,4.65,0,0,0,3.35-.53C87.08,133.12,89.33,130.53,87,129.4Z"/><path class="cls-2" d="M89.94,132.69a.28.28,0,0,0-.48.07,5.94,5.94,0,0,1-.95,2c-.6.69-1.39.56-2.17.83-.42.14-.39.76-.07,1,1,.69,2.55,0,3.3-.77A2.41,2.41,0,0,0,89.94,132.69Z"/><path class="cls-2" d="M92.92,134.26a.86.86,0,0,0-1.09.64.24.24,0,0,0,.32.24c.43-.22.59.19.35.52a3.45,3.45,0,0,1-.77.65,6,6,0,0,1-.89.5,3.5,3.5,0,0,0-.94.49.54.54,0,0,0,.3.94,3.56,3.56,0,0,0,2.21-.77,2.46,2.46,0,0,0,1.33-1.73A1.33,1.33,0,0,0,92.92,134.26Z"/><path class="cls-2" d="M91.91,72.33c-5.12,1.15-10.08,2.85-15.12,4.31-.14,0-.07.3.07.26,5.07-1.35,10.21-2.44,15.19-4.09C92.32,72.72,92.19,72.27,91.91,72.33Z"/><path class="cls-2" d="M63.69,76.33a47,47,0,0,1-8.95-.52c-.28,0-.34.38-.06.43a39.29,39.29,0,0,0,9.06.48C64,76.71,63.94,76.33,63.69,76.33Z"/><path class="cls-2" d="M102.27,66.46c-4.73,1.63-9.58,2.94-14.38,4.35-.2,0-.11.39.09.34,3.07-.73,6.14-1.43,9.22-2.15,1.91-.44,4-.7,5.29-2.26C102.62,66.59,102.44,66.4,102.27,66.46Z"/><path class="cls-2" d="M74.54,73.32c-3.83.62-7.69.47-11.5,1-.34,0-.43.61-.08.71,3.74,1,8.15.1,11.71-1.2C74.94,73.7,74.81,73.27,74.54,73.32Z"/><path class="cls-2" d="M74.79,84.52c-3.88.08-7.76.31-11.64.23s-11.22.27-14-2.84c-.26-.29-.77,0-.6.36,1.54,3.35,5.92,3.13,9.12,3.41a62.61,62.61,0,0,0,17.24-.57A.3.3,0,0,0,74.79,84.52Z"/><path class="cls-2" d="M94.21,80.87c-3.41.79-6.76,1.79-10.16,2.6-.25.06-.21.44,0,.4a44,44,0,0,0,10.21-2.64C94.5,81.15,94.42,80.82,94.21,80.87Z"/><path class="cls-2" d="M72.24,97.6c-4-.13-7.95.53-11.86-.22a.21.21,0,0,0-.19.34c1.09,1.43,3,1.4,4.67,1.32a51.18,51.18,0,0,0,7.39-1C72.5,98,72.53,97.61,72.24,97.6Z"/><path class="cls-2" d="M90.1,95.92a101.25,101.25,0,0,1-10.66,1.91c-.19,0-.2.34,0,.34a27.43,27.43,0,0,0,10.75-1.91C90.37,96.19,90.3,95.87,90.1,95.92Z"/><path class="cls-2" d="M62.31,104.21c-2.72.72-5.37-1.25-7.7-2.44-.19-.09-.31.2-.13.31,2.35,1.31,5.1,3.45,7.91,2.44C62.56,104.46,62.49,104.16,62.31,104.21Z"/><path class="cls-2" d="M88.83,103c-3,.76-6,1.48-9,2a.13.13,0,0,0,0,.26,57.29,57.29,0,0,0,9.06-1.93C89.09,103.25,89,102.94,88.83,103Z"/><path class="cls-2" d="M66.48,111a20.15,20.15,0,0,1-7.33-1.2.21.21,0,0,0-.16.39,14.42,14.42,0,0,0,7.5,1.16C66.68,111.37,66.69,111,66.48,111Z"/><path class="cls-2" d="M67.21,116.49a35.32,35.32,0,0,1-4.23-.36c-.17,0-.21.24,0,.26a36,36,0,0,0,4.27.35A.13.13,0,0,0,67.21,116.49Z"/><path class="cls-2" d="M81.28,117.73c-2.32,1.15-4.94,1.59-7.26,2.72-.18.08-.1.31.09.31,2.64,0,5.08-1.48,7.29-2.74C81.57,117.92,81.46,117.64,81.28,117.73Z"/><path class="cls-2" d="M83.5,120.88l-.63.5a.14.14,0,0,0,.17.22l.63-.5A.14.14,0,0,0,83.5,120.88Z"/><path class="cls-2" d="M112.85,85.07A17.17,17.17,0,0,1,104,93.31c-.2.08-.07.39.14.32a15.2,15.2,0,0,0,9-8.41A.19.19,0,0,0,112.85,85.07Z"/><path class="cls-2" d="M43.58,74.42c-3.41-4-4.5-9-.85-13.43.12-.14-.08-.33-.22-.22-4.56,3.54-5,11.31.74,14.1A.29.29,0,0,0,43.58,74.42Z"/><path class="cls-2" d="M47.21,95.71c-1.4-.73-2.88-1-4-2.23A7.87,7.87,0,0,1,42,91.73,8.49,8.49,0,0,0,41.14,90a.18.18,0,0,0-.32,0c-.68,1.47.65,3.53,1.67,4.54,1.21,1.21,3,2.22,4.73,1.7C47.51,96.22,47.42,95.83,47.21,95.71Z"/><path class="cls-2" d="M96.43,106a16.93,16.93,0,0,1-5.9,4.57c-2,.93-4.15.89-6,1.76a.23.23,0,0,0,.06.44c4.8,1,9.74-2.76,12.19-6.54C96.86,106,96.58,105.81,96.43,106Z"/><path class="cls-2" d="M121.29,46.33c-2.33-3.44-7.3-7.17-11.61-6.92-.37,0-.33.5-.07.64,2.5,1.32,5.18,1.91,7.44,3.78,2,1.69,4.13,4,3.94,6.92-.15,2.31-1.64,4.28-2.91,6.1-.16.23.15.58.37.36C121.5,54.14,124.07,50.44,121.29,46.33Z"/><path class="cls-2" d="M96.87,38.91c-8.55-.09-17,1.66-25.17,4C64.51,45,57.44,47.29,51.31,51.68c-.19.14,0,.5.22.37,13.58-7.9,30-10.75,45.35-12.63C97.16,39.39,97.17,38.92,96.87,38.91Z"/><path class="cls-2" d="M119.77,62.86a.3.3,0,0,0-.56.09c-.49,2.4-.17,4.66-1.29,7-1.42,2.91-4.18,2.9-6.34,4.82a.38.38,0,0,0,.3.66C116.89,74.92,122.23,67.74,119.77,62.86Z"/></g></g></g><g id="PixelsASSETS"><g id="Pierna"><rect class="cls-3" width="160" height="195"/></g></g></g></g></svg>