<svg xmlns="http://www.w3.org/2000/svg" viewBox="0 0 130 250"><defs><style>.cls-1{isolation:isolate;}.cls-2{fill:#707070;}.cls-3{fill:#9d9d9d;}.cls-4{fill:#d9d9d9;}.cls-5{fill:#42210b;}.cls-6{fill:none;mix-blend-mode:multiply;}</style></defs><g class="cls-1"><g id="Layer_2" data-name="Layer 2"><g id="Variación_B" data-name="Variación B"><g id="AssetsB3"><g id="TailA4"><path class="cls-2" d="M118.16,218.84l.88-.67.71-.69c.36-.36.7-.71,1.06-1a2,2,0,0,0-.48-.58l-.27-.21a1.63,1.63,0,0,0-.74-1.11l-1.6-1.05c.16-3-2.07-7.42-4.6-7.49a4,4,0,0,0-2.38-.78l-.24-.3a1.75,1.75,0,0,0-3,.38,3.94,3.94,0,0,0-.61-1,4.34,4.34,0,0,0-1-1.17,1.19,1.19,0,0,0-.31-.17,2,2,0,0,0,.07-1.28c3-3.66,5.16-11.68.82-13.61h-.08c.6-1.1,1.16-2.22,1.69-3.37a80.41,80.41,0,0,0,4.77-6.58c3-4.63,5.68-11,5.9-16.63,0-.37-.49-.66-.74-.35a21,21,0,0,0-2.23,3.5c.34-1.11.68-2.23,1-3.37a1.23,1.23,0,0,0,0-.38,21,21,0,0,0,.52-3.77c.14-2.55,0-11.44-3.76-11.18a.86.86,0,0,0-.65.36,12,12,0,0,0-2.37-2.11,1.92,1.92,0,0,0-.68-1.2,10.26,10.26,0,0,0-2.15-6.55c-1.77-2.22-5-6.46-8-6.63.1-.28.19-.56.28-.84,1.55-2.18,1.83-5.47,1.83-8.18,0-4.11-.42-7.9-3.9-10.29a2.72,2.72,0,0,0-.35-.16l-.12-.13a1.49,1.49,0,0,0-.2-.15c.09-.47.16-.94.23-1.41,4.78-5.8.93-19.4-5.32-22a.93.93,0,0,0-1.14.5c-.41-.53-.77-.05-1.26-.53C84,80.88,72.13,82.11,65,83.15c-6.56,1-15.54,2.77-19.88,8.65h0c-3.31-.71-6.46,1.06-9.51,2.73-4.09,2.24-8.28,4.4-12.22,6.93A38.26,38.26,0,0,0,14.15,110c-2.46,3.11-5.92,7.5-6.28,11.66a4,4,0,0,0,.43,2.18l-.16.3a4,4,0,0,0-.34,3.07,4.43,4.43,0,0,0-.58,2.17c-1.16,5.25,1.89,11.54,7.4,12.63a6.18,6.18,0,0,0,.68,3.95,24.46,24.46,0,0,0,3.23,4.8,28.3,28.3,0,0,0,2.86,3.12h0c-1.9,3.28-.73,6.58,1.26,9.47a28.53,28.53,0,0,0,3.23,5.93c-1.47,3.78,1,7.45,4.11,9.47,2.9,1.86,6.31,2.12,9.66,1.92,0,0,0,0,.06.05a16.06,16.06,0,0,0,7.58.85,25.19,25.19,0,0,0,3.38-.5l.74-.14c.43-.09.83-.16,1.17-.21,1.25-.18,2.59-.37,3.94-.61,1.15,2.34,2.36,4.5,4.68,5.73l.32.15a1.15,1.15,0,0,0-.2.29.42.42,0,0,0-.14.06c-.07-.12-.13-.24-.2-.35a.5.5,0,0,0-.93.24c-.22,2.92,1.63,6.82,4.14,9.54a1.76,1.76,0,0,0-.59.77c-1.65,4,0,9.2.88,13.47a1.36,1.36,0,0,0-.44.11.81.81,0,0,0-1.26,0,22.6,22.6,0,0,0,.21-3.51.37.37,0,0,0-.62-.19c-1.85,2.32-1.27,5.45-.33,8.1.88,2.47,2.09,5.75,4.75,6.51a.45.45,0,0,0,.55-.34,1.4,1.4,0,0,0,1.33.06,1.58,1.58,0,0,0,.52.32c1.09.39,2.22.89,3.37,1.33a9.9,9.9,0,0,0,2.49.79l.15,0a.85.85,0,0,0,.29,1.29l.08,0a1.42,1.42,0,0,0,.62.81,15.84,15.84,0,0,0,1.59.91,4.09,4.09,0,0,0,2.8,1.53c5,2.88,10.67,1.2,15.61-2.2a1.65,1.65,0,0,0,.68-.11c2-.73,3.74-2.64,5.45-3.79a3.14,3.14,0,0,0,2.65,2.12,3.81,3.81,0,0,0,1.64-.17l.17.06.6.25v0l.47.14a1.41,1.41,0,0,0,1.28-.29,1.29,1.29,0,0,0,1.21-.41l.47-.52a1.69,1.69,0,0,0,1.61.69,5.38,5.38,0,0,0,1-.26c.18-.18.36-.33.54-.5A18.79,18.79,0,0,1,118.16,218.84Zm-38.27,5.31-1.78-.81.36-.06c.52.09,1.06.15,1.6.19,0,.11,0,.22.05.33A.7.7,0,0,0,79.89,224.15ZM108.07,211a2.07,2.07,0,0,0-.31-.42,7.65,7.65,0,0,0,.22-1.08.68.68,0,0,0,.12.12c.15.12.3.21.45.32Z"/><path class="cls-3" d="M95.4,90.54a.4.4,0,0,0-.62.32A10.53,10.53,0,0,0,93.1,88.8a.39.39,0,0,0-.66.36c.45,5,1.9,8.91.93,14.07a45.45,45.45,0,0,1-6.26,15.69c-5.32,8.15-11.33,16.29-18.79,22.39-.87.71.21,2,1.1,1.55,5.78-2.74,10.72-7.94,14.88-13.68a21.67,21.67,0,0,0-.93,2.4c-.22.7.64,1.56,1.27,1.07,4.27-3.25,6.84-9.68,9-14.62a53.13,53.13,0,0,0,2.06-5.34C99.59,106,101.86,95.76,95.4,90.54Z"/><path class="cls-3" d="M39.39,151.64c-4.52.36-9,1-13.46-.3-4.85-1.4-6.57-4.63-9.88-8.1a.48.48,0,0,0-.82.44c2,10.77,16.41,13.8,24.45,9.29C40.22,152.66,40.08,151.59,39.39,151.64Z"/><path class="cls-3" d="M93.35,160.82C82.43,167,72.19,172,59.92,174.61c-5.79,1.23-12.21,2.85-18.13,2.69-6.46-.19-10.92-2.5-15.86-6.52-.3-.24-.65.1-.61.44a6.75,6.75,0,0,0,2.38,4.23.53.53,0,0,0-.48.64c.4,3.22,5.06,3.91,7.52,4.44,3.17.69,7.19,1.19,10.49.17,5.22.68,10.8-.24,15.77-1.32,5.33-1.17,12.53-2.83,17-6.68,6.17-2.46,11.88-5.83,16.19-10.69C94.68,161.42,94.08,160.41,93.35,160.82Z"/><path class="cls-3" d="M104.53,134.61a.43.43,0,0,0-.74.4c2,7.69,3.4,14.51-.32,22-2.92,5.85-7.92,10.26-12.62,14.31-.59.5,0,1.61.71,1.38C104.76,168.47,114.94,146.9,104.53,134.61Z"/><path class="cls-3" d="M81.9,185.54c-5.14,1-9.3,1.89-14.45.27a89.06,89.06,0,0,1-9.74-4.2c-.33-.14-.56.26-.45.55,1.49,4,6.85,5.38,10.4,6.44,5.12,1.52,10.53,1.62,14.91-1.75C83.2,186.36,82.54,185.42,81.9,185.54Z"/><path class="cls-3" d="M117.11,163.35c-3.14,9.17-9,15.84-16,21.92-7.67,6.64-16.59,7.46-25.86,9.52-.82.17-.72,1.52.06,1.68,9.57,2,21-2.85,28.3-9.29,7-6.16,14.43-13.45,14.8-23.66A.64.64,0,0,0,117.11,163.35Z"/><path class="cls-3" d="M94.45,208.9c-5.71,2.12-12,5.11-18.11,3.44-2.23-.61-5.31-1.65-7.15-3.25-3.83-3.3-3.63-7.48-3.88-12.22,0-.26-.36-.37-.45-.1-2.53,8.08,1.17,13,7.81,16.1,7.06,3.32,15.8,1.13,22.09-3.14C95.13,209.47,94.93,208.73,94.45,208.9Z"/><path class="cls-3" d="M107,187.92c-.09-.2-.35-.1-.38.09-.27,1.67-.14,3.41-.49,5.07a10.42,10.42,0,0,1-4,6,35.66,35.66,0,0,1-10.85,5.39c-.4.12-.37.82.08.8a20.47,20.47,0,0,0,11.48-4.33l.11-.09a14.6,14.6,0,0,0,1.81-1.65C107.41,196.26,108.73,191.74,107,187.92Z"/><path class="cls-3" d="M103.15,219.69C99.43,221.5,96,224.37,92,225.54c-7,2-11.53,1.29-18-1.67a.33.33,0,0,0-.46.2l-.2-.09c-.2-.08-.29.2-.15.32.63.58,1.17,1.44,1.8,2.07a13.64,13.64,0,0,0,1.45,1.29,7.14,7.14,0,0,0,4.19,1.55.57.57,0,0,0,.39-1,3.37,3.37,0,0,0-.83-.63c8.14,2.21,17.76-.9,23.69-6.91A.64.64,0,0,0,103.15,219.69Z"/><path class="cls-3" d="M112.84,205.74a.24.24,0,0,0-.3.28c.19,1.17.88,1.86,1.17,3a8.42,8.42,0,0,1-.58,5.17c-1.21,2.79-3.67,4.49-5.61,6.65a.65.65,0,0,0,.6,1.08,11,11,0,0,0,7.39-8.22C116,211.31,115.63,206.45,112.84,205.74Z"/><path class="cls-3" d="M98.24,111.36a.28.28,0,0,0-.52.19c2,9-3.66,19.15-9.28,25.55-5.23,6-11.62,9.74-18.22,13.75a.54.54,0,0,0,.39,1c9-2.18,17.08-8.83,22.53-16.51C97.13,129.71,102.8,118.2,98.24,111.36Z"/><path class="cls-3" d="M57,164.29a38.8,38.8,0,0,1-16.27,2.84c-6.22-.4-16.84-1.87-16.89-10.47,0-.23-.35-.34-.41-.09-1.39,6.72,5.32,9.55,10.44,10.76,7.73,1.83,16.34,1.69,23.37-2.39C57.55,164.76,57.36,164.15,57,164.29Z"/><path class="cls-3" d="M55,124.09c-7.9,6-16.15,10.89-25.82,12.93-6.06,1.28-15.3,1.72-17.36-6.33-1.65-6.44,2.67-13.38,5.31-18.88a.19.19,0,0,0-.32-.22c-6,7.52-11.84,23,.84,27.26,6.23,2.1,14-.17,19.86-2.34A45.53,45.53,0,0,0,55.63,125C56,124.53,55.51,123.72,55,124.09Z"/><path class="cls-3" d="M82.4,91c-8.36-4.45-22.9-.25-30,5.08-.31.23-.17.92.28.75C60,94,66.83,90.62,74.94,91a15.7,15.7,0,0,1,6.78,1.36,9.11,9.11,0,0,1,4.41,7.91c-.17,3.5-3.77,8.31-5.16,11.38-.21.46.36,1.08.72.61C86.58,106,91.61,95.94,82.4,91Z"/><path class="cls-3" d="M40.25,122.37c-3.59,1.12-20.09,6.92-20.72-.61a.17.17,0,0,0-.33,0c-1.8,8.22,18.51,2.32,21.2,1.07C40.62,122.71,40.49,122.3,40.25,122.37Z"/><path class="cls-3" d="M46.69,99.94c-8.8,2.47-16.29,7.84-23.25,13.77-.22.19,0,.62.3.45,3.46-2.38,6.83-5,10.42-7.17,4.11-2.47,8.62-4,12.75-6.42C47.22,100.39,47.05,99.84,46.69,99.94Z"/><path class="cls-3" d="M69.94,131.78c-6.25,4.45-12.33,8.62-19.55,11.24s-14.53,3-22.11,3.86c-.28,0-.2.44,0,.48,14,2.23,32-4.82,41.93-15.12C70.45,132,70.21,131.59,69.94,131.78Z"/><path class="cls-3" d="M94.48,144.08c-8.43,7.63-17.28,13.42-26.93,19.17-.27.17-.12.71.21.59,10.1-3.91,19.64-11.26,27-19.44C94.93,144.2,94.68,143.89,94.48,144.08Z"/><path class="cls-3" d="M112.7,158c-4.7,8.82-15,15.34-22.39,21.42-.29.24.06.71.37.54,4.95-2.65,9.37-7.33,13.56-11.13,3.46-3.14,7-6.18,8.84-10.63C113.18,157.94,112.82,157.75,112.7,158Z"/><path class="cls-3" d="M101.07,212c-4.24,3.64-8,8.86-12.65,11.93-.21.13,0,.48.18.36a34.48,34.48,0,0,0,13-11.84A.34.34,0,0,0,101.07,212Z"/><path class="cls-3" d="M73.24,216.89c-4.16.05-7.45-2.23-10.7-4.73-.19-.15-.39.18-.21.33,3.21,2.6,6.68,5.06,10.89,4.82C73.47,217.3,73.5,216.89,73.24,216.89Z"/><path class="cls-4" d="M65.65,86.36a69.81,69.81,0,0,0-22.38,9.07c-6.55,4.11-14,8.47-19.5,14.12-.19.19.08.52.28.32,5.38-5.29,12.5-9.44,19-13.16,7.25-4.18,14.58-8.12,22.71-10.06C65.89,86.61,65.83,86.32,65.65,86.36Z"/><path class="cls-4" d="M81.88,94.33c-1.43,4.58-2.68,8.52-5.68,12.31-3.16,4-7.24,6.84-11,10.08-.35.3.08.88.47.67,7.56-4.19,17.16-13,16.65-23C82.26,94.19,82,94.09,81.88,94.33Z"/><path class="cls-4" d="M70.68,126.56c-7.6,7.71-17.54,10.53-26.67,15.58-.33.18-.14.8.24.67,9.3-3.35,20.53-7.59,26.8-15.91C71.22,126.67,70.88,126.36,70.68,126.56Z"/><path class="cls-4" d="M65.51,139.43c-8.88,4.39-17.4,8.07-27.08,10-.18,0-.17.35,0,.34,9.6-.55,18.81-5.58,27.18-10.11C65.78,139.6,65.66,139.35,65.51,139.43Z"/><path class="cls-4" d="M97.11,115.49c-5.4,14.38-18.3,23.75-29.35,32.81-.26.22,0,.66.33.5,12-6.73,25.14-19.2,29.34-33.19A.17.17,0,0,0,97.11,115.49Z"/><path class="cls-4" d="M61.1,155.49c-4.77,2.08-9.54,4.33-14.55,5.71-5.26,1.45-12.62,3.43-17.8,1-.16-.07-.28.19-.14.28,4.18,2.51,10.27,1.12,14.7.11a76.4,76.4,0,0,0,17.94-6.75A.17.17,0,0,0,61.1,155.49Z"/><path class="cls-4" d="M81.91,162a132.07,132.07,0,0,1-19.19,8.28c-5.59,1.81-11.34,2.34-17,3.89-.14,0-.14.27,0,.28,6.28.17,12.87-1.91,18.82-3.83a73.22,73.22,0,0,0,17.5-8.23C82.32,162.25,82.15,161.88,81.91,162Z"/><path class="cls-4" d="M100.78,131.76c0-.27-.42-.18-.39.09.88,9.65-4.69,17.67-9.24,25.27-.19.32.25.74.5.44C97.51,150.67,102,141.31,100.78,131.76Z"/><path class="cls-4" d="M102.91,150.68C97.12,162.8,86.29,169.79,75.45,176c-.27.15-.12.64.18.54,12-4,22.77-13.21,27.65-25.63C103.37,150.64,103,150.45,102.91,150.68Z"/><path class="cls-4" d="M88.73,178.75c-7,6.35-18.24,3.54-26.51,2.5a.15.15,0,0,0-.09.27c4.26,2.56,10.15,2.27,14.9,2.21s8.81-.81,12-4.62C89.23,178.88,89,178.54,88.73,178.75Z"/><path class="cls-4" d="M87.27,201.85c-7,.32-15.15-3.4-20.07-8.76a.18.18,0,0,0-.27.24c2.69,3.3,6.56,5.31,10.25,7.12,3.27,1.6,6.56,2.8,10.12,1.81C87.51,202.21,87.51,201.84,87.27,201.85Z"/><path class="cls-4" d="M105,192c-5.51,7.85-13.8,11.27-22.49,13.07-.26,0-.24.52,0,.51,9-.53,18-4.87,22.84-13.31A.24.24,0,0,0,105,192Z"/><path class="cls-4" d="M80.94,210.44a24.43,24.43,0,0,1-6-1.53c-1.78-.68-5.08-1.46-5.76-3.5-.07-.22-.42-.15-.34.08.59,1.86,2.53,2.4,4.12,3.1a23.53,23.53,0,0,0,8,2.18A.17.17,0,0,0,80.94,210.44Z"/><path class="cls-4" d="M97.54,211.78c-3.55,3-7,5.9-11.15,7.87-.21.1-.09.49.14.41a30.6,30.6,0,0,0,7.18-3.61c1.39-1,4.13-2.6,4-4.56A.13.13,0,0,0,97.54,211.78Z"/><path class="cls-4" d="M72.78,219.69A8.68,8.68,0,0,0,70,218.38a8,8,0,0,1-3.54-1.49c-.14-.13-.36.05-.23.2,1.78,2,4.11,2.09,6.43,3C72.82,220.13,73,219.82,72.78,219.69Z"/><path class="cls-4" d="M111.7,208.26c.29,3.76-2,6.54-3.35,9.78-.1.24.24.47.4.28a13.25,13.25,0,0,0,3.31-10.14C112,207.93,111.68,208,111.7,208.26Z"/><path class="cls-5" d="M121.14,148.43c-1.9-3.93-6.93-10.18-11.69-9.59a11,11,0,0,0-.63-1.11,20.75,20.75,0,0,0-4.75-5.17,13.72,13.72,0,0,1,.72,1.18c1.58,2,2.15,5.31,2.63,7.64a21.57,21.57,0,0,1,.21,8.73,25.06,25.06,0,0,1-.75,4l.13,0c.26-.27.52-.55.77-.84a21.06,21.06,0,0,0,2.26-3.52,14.89,14.89,0,0,0,.8-4.84,15.35,15.35,0,0,1,4.5,4.93,11,11,0,0,1-.3,11.49,33.06,33.06,0,0,1-13.49,12.28,44.11,44.11,0,0,0,4.76-1,29,29,0,0,0,8.45-5.55c.66-.67,1.33-1.31,2-2,.92-.91,1.84-1.85,2.82-2.7A13.12,13.12,0,0,0,121.14,148.43Z"/><path class="cls-5" d="M100.78,114s0-.07,0-.11c.88,4.16-.76,8.54-2.23,12.31-1.6,4.11-3,9.12-6,12.21a31,31,0,0,1-3.08,3.77,42.67,42.67,0,0,1-4.62,4.12c-1.41,1.49-2.88,2.92-4.44,4.27a63.27,63.27,0,0,1-16.55,10.64h.06c5.6-.11,12-5,16.67-8a56.75,56.75,0,0,0,15-14.25c.18-.25.35-.52.53-.78,0,.12,0,.24-.05.36a24.69,24.69,0,0,1,2.37-3.8c.12-.22.26-.43.37-.65.69-1.27,1.31-2.62,2-3.94C103.28,125.53,103,118.89,100.78,114Z"/><path class="cls-5" d="M97.77,140.74c-1.71,3.19-3.74,7.13-6.17,9.33l-.11.13c-3.14,3.6-7.51,5.11-10.8,8.2a53.35,53.35,0,0,0,12.17-6.84l.21-.27a43.78,43.78,0,0,0,4.5-9.5C97.62,141.44,97.69,141.09,97.77,140.74Z"/><path class="cls-5" d="M103.82,135.33a20.83,20.83,0,0,0-1.12-2.77,23.78,23.78,0,0,1,.13,5.7,27.65,27.65,0,0,1-1.4,7.88c-1,3.31-3.37,6.43-5.4,8.76s-4.32,5.4-6.89,7.23c3.94-2.21,7.53-6.08,10.82-9.17.19-.22.39-.44.57-.68a15.61,15.61,0,0,0,1.24-1.84c.46-1,.87-2,1.35-2.91a35.9,35.9,0,0,0,1.08-5.76A18.61,18.61,0,0,0,103.82,135.33Z"/><path class="cls-5" d="M36.68,141.48c-10,2.19-25.18,3.27-29.1-8.6a1.16,1.16,0,0,1-.23-.79c0-.13-.08-.25-.11-.38l.13,0v-.06c0-.25,0-.5-.07-.75a.54.54,0,0,1-.08-.33,22.63,22.63,0,0,1,2.1-8.28,38.57,38.57,0,0,1,2.56-5.42A44.45,44.45,0,0,1,17.25,108c.29-.42.58-.83.88-1.24C11.2,112.9,4.34,121,6.08,130.46c.28,6,3.88,10.65,9.37,13,6.07,2.65,12.36,1.94,18.36,0l1.47-.66c.63-.35,1.24-.72,1.86-1.05A.43.43,0,0,0,36.68,141.48Z"/><path class="cls-5" d="M95.44,90.31a15.26,15.26,0,0,0-4.63-6.56c-.78-.67-1.54-.27-2.41-.82-8.91-4.25-20.17-2.17-29.09.67A122.53,122.53,0,0,0,37.18,93a92.58,92.58,0,0,0-11.6,9.79,54.25,54.25,0,0,0-6,7.29c2.66-2.34,5.41-4.41,7.75-6.15A108.88,108.88,0,0,1,54.42,89.38c10-3.71,21.36-7.38,31.73-2.85,5,2.19,8.32,5.52,9.37,11,.11-.31.19-.64.28-1A14.08,14.08,0,0,0,95.44,90.31Z"/><path class="cls-5" d="M99.53,98.08c-.43,1.76-1,3.48-1.62,5.2-1.12,3.26-2.32,6.48-3.66,9.65-.36.86-.74,1.72-1.13,2.57-.1.22-.17.46-.28.68a29.74,29.74,0,0,1-1.16,3.49c-.33.6-.68,1.19-1,1.77-.23.39-.44.78-.67,1.16a25.78,25.78,0,0,1-4.25,5.76,20.24,20.24,0,0,1-2.5,2.57c-4.66,4.84-10.64,8.37-16.22,11.86a95.51,95.51,0,0,1-18.38,8.75,36,36,0,0,0,9.29-2.37,20.67,20.67,0,0,0,2-.78c1.9-.78,3.74-1.6,5.45-2.35a67.59,67.59,0,0,0,24-17.46,53.71,53.71,0,0,0,7.34-12.88,46.68,46.68,0,0,0,2.88-10.55,33.23,33.23,0,0,0,.33-4.67A16,16,0,0,1,99.53,98.08Z"/><path class="cls-5" d="M118.28,165.78c-.84.77-1.69,1.52-2.49,2.28s-1.39,1.38-2.08,2.09a13.83,13.83,0,0,1-.83,1.56c-.31.51-.66,1-1,1.47a46.33,46.33,0,0,0,4.16-3.54c.64-.63,1.28-1.28,1.89-1.95.11-.32.21-.64.29-1a.17.17,0,0,1,0-.13Z"/><path class="cls-5" d="M89.27,190c5.45-.58,10.62-3.68,15.26-6.76h0c.42-.32.84-.59,1.19-.83,0,0,.52-.31,1-.57,1.8-1.67,3.51-3.48,5.34-5.11.56-.63,1.12-1.28,1.65-2a.76.76,0,0,0,.08.11,47.62,47.62,0,0,0,3.5-5.75,36.54,36.54,0,0,1-7.18,6.16,35.07,35.07,0,0,1-3.42,3.37A50.29,50.29,0,0,1,89,188.85.61.61,0,0,0,89.27,190Z"/><path class="cls-5" d="M88.15,200.14c5.91.77,11.74-4.5,15.85-8.62a35.07,35.07,0,0,0,2.59-2.89,22,22,0,0,1,.7,3,5,5,0,0,1,.1.56.09.09,0,0,1,.06.06c.16,3.09-1.41,6.15-3.25,8.45a21.62,21.62,0,0,1-1.61,1.81.35.35,0,0,0,.36,0,13.28,13.28,0,0,0,2.79-1.63s0,.07,0,.11c-.17.44-.33.86-.51,1.26,0,0,.06.09,0,.19-1.39,3.06-4,6.55-7.07,8a.46.46,0,0,0,.29,0c1.26-.25,2.38-1.59,3.47-2.1a19.19,19.19,0,0,0,3.19-3.18,28.73,28.73,0,0,0,2.47-4.27,10,10,0,0,0,.32-2.28,11.68,11.68,0,0,0,1.57-3.14,11,11,0,0,0,.52-3,6.69,6.69,0,0,0,.48-4c-.14-1.12-.44-2.78-1.4-3.48,0-.08.09-.15.14-.23A9,9,0,0,0,111,182a13.83,13.83,0,0,0,.9-2.53c0-.12,0-.22.06-.33a23.49,23.49,0,0,1-3.53,3.64l0,0c-.75.78-1.51,1.56-2.31,2.33a20.71,20.71,0,0,1-2.42,2.89c-.48.56-1,1.11-1.48,1.63-3.94,3.95-8.82,8.22-14.15,9.5A.49.49,0,0,0,88.15,200.14Z"/><path class="cls-5" d="M113.94,222.72l.08-.12a12.86,12.86,0,0,1-2.41.39,41.49,41.49,0,0,1-4.33-.28c.73-.3,1.44-.63,2.15-1,1.07-.81,2.15-1.63,3.18-2.5.26-.22.52-.47.78-.73a.42.42,0,0,0-.46,0,84.6,84.6,0,0,1-9.11,3.94c4.71-4.88,9.63-13,5-17.23,2.64,0,5.38.87,6.49,3.64.78,2,.75,5.65-1.23,7a.5.5,0,0,0-.19.27l.74-.28a6,6,0,0,1,1.35-.71c.54-.35,1-.75,1.56-1.14l.08-.1a0,0,0,0,1,.06,0v0h0c0-.13.11-.27.16-.41a11.36,11.36,0,0,0,1.61,1.83,16.35,16.35,0,0,1,1.22,1.28,5.92,5.92,0,0,1,1.51-1.05,29.92,29.92,0,0,0-4-3.58,8.49,8.49,0,0,0-.6-4.32,7.89,7.89,0,0,0-3.7-4v0c-1-.33-2-.82-3-1.1l-.7,0a9.85,9.85,0,0,1-2.44.29.06.06,0,0,1,0-.07h0a.23.23,0,0,1-.16,0c-.25.52-.53,1-.83,1.53a17.93,17.93,0,0,0-.1,1.95c0-.08.1-.15.14-.23,1.21,6.2-1.32,11.6-5.64,15.34l-.35.34c-1.1,1-2.33,3.13-3.74,3.6a1.12,1.12,0,0,1-.4.07c-.44.22-.89.43-1.36.63a30.36,30.36,0,0,1-9.67,2.38,11,11,0,0,1-5.45-1.13,16.79,16.79,0,0,1-2.44-.5c-.58,0-1.36-.12-2.16-.25,5.85,6.85,17.53,4.16,24.27.36l.61-.38c2,.81,4.19.25,6.08.65a21.34,21.34,0,0,0,2.75.44,38.63,38.63,0,0,1,4-4,.24.24,0,0,1,.06-.28Z"/><path class="cls-5" d="M121.71,218.17a16.16,16.16,0,0,0,1,2,.59.59,0,0,0,1.12-.26,4.78,4.78,0,0,0-.61-2.85C122.71,217.42,122.21,217.8,121.71,218.17Z"/><path class="cls-5" d="M120.67,221.57a8.91,8.91,0,0,0-3,.16l-.32.27a39.56,39.56,0,0,0-3.85,4c3.36-.4,6.51-1.57,7.78-3.29C121.62,222.23,121.15,221.65,120.67,221.57Z"/><path class="cls-5" d="M88.32,220.86c-4.68.5-9,1.83-13.81,1.21a15.49,15.49,0,0,1-9.15-4.36,13.61,13.61,0,0,1-3-3.67A21.05,21.05,0,0,1,61,211.51c-.24,4.72,3.14,9,7.37,11,5.91,2.79,14.8,3,20.44-.4A.68.68,0,0,0,88.32,220.86Z"/><path class="cls-5" d="M72.84,213.1l-.4,0a.52.52,0,0,0-.19-.31c-.75-.45-1.49-.92-2.2-1.44a15,15,0,0,1-3.64-3.1c-.26-.26-.52-.52-.76-.79a1.44,1.44,0,0,1-.33-.94,12.67,12.67,0,0,1-.94-6.44c.23-.41.5-.81.79-1.24a6.94,6.94,0,0,0,.54-.82c.21.18.44.36.67.54a3.51,3.51,0,0,1,1,.39,36.56,36.56,0,0,0,4.52,1.78,42.81,42.81,0,0,0,5.6,1.16c-1.09-.51-2.21-.76-3.34-1.19a19.66,19.66,0,0,1-5.7-3.39,18.62,18.62,0,0,1-3.51-3.74l-.42-.45c-.69-.74-1.4-1.51-2.05-2.31-.29-.34-.59-.67-.86-1-.16-.16-.32-.32-.47-.49a10.42,10.42,0,0,0-.08,3.82,16.06,16.06,0,0,0,.77,3.15c-2.66,3.56-2.55,8.77-.34,12.63,0,.06,0,.11,0,.16a5.59,5.59,0,0,0,.43.75c.21.27.41.54.61.82a1.24,1.24,0,0,1,0-.27s0,0,0,0a2.29,2.29,0,0,0,.08.28,4.54,4.54,0,0,0,.61.63l.09.07c.6.51,1.29.92,1.87,1.46,4.08,2.82,9.74,3.57,14.73,3.39A36.53,36.53,0,0,1,72.84,213.1Z"/><path class="cls-5" d="M61.29,178.19c-4.37,1.19-9.86,2.54-14.52,2.23-.45.06-.91.11-1.36.15A29.36,29.36,0,0,1,33,179.32c-2.9-1-5.23-2.54-6.38-5.67-.46-1.24-.69-2.36-1.18-3.49,8.93,5.31,25.62,2.8,36.29-1.38-2.6.31-5.2.49-7.71.71-2.92.24-6,.71-9.12,1a34.5,34.5,0,0,1-4.48.46c-5.15.19-10.49-.2-14.69-3.63s-4.89-8-3.9-13.32c5.15,2.92,12.24,3.19,16.69.32a.34.34,0,0,0,.09-.08,14.68,14.68,0,0,1-2.88.49,26.22,26.22,0,0,1-9.8-1c0,.11-.12.22-.24.18a13.12,13.12,0,0,1-3.86-2.14A24.7,24.7,0,0,1,19,149.22a25.78,25.78,0,0,1-2.6-2.82l-.78-.57a11.44,11.44,0,0,0,4.54,7.06c-2.08,8.28,0,13.53,4.3,16.6-2.57,8.69,7.49,12.65,13.7,13.42a45.68,45.68,0,0,0,15-1.08l2.05-.44a12.74,12.74,0,0,0,3.76,5.26c.66.29,1.32.58,2,.82a15.17,15.17,0,0,0,5.27.81l.63,0c-.87-.41-1.69-.87-2.45-1.29-2-1.14-4.54-2.56-6-4.61a5.8,5.8,0,0,1-.47-.52,3.7,3.7,0,0,1-.58-.8,0,0,0,0,1,.05-.07h0l-.07-.05c4.13-1,8.36-2.19,11.86-4.39a.7.7,0,0,0,.26-.37C66.77,176.94,64,177.46,61.29,178.19Z"/><path class="cls-5" d="M79,96c-1.83-3.17-6.06-2-8.87-1.61a.65.65,0,0,0-.35.18,8.46,8.46,0,0,1,6.42,1.62c.85.62.65,2.23,0,3.7a6.5,6.5,0,0,1-.22.62c0,.15,0,.28,0,.44s-.23.23-.34.35a5.09,5.09,0,0,1-1.3,1.64c-1.91,2.32-5.27,4.51-7.31,6.12a94.55,94.55,0,0,1-16.79,10.57,86.51,86.51,0,0,1-19.06,6.69A68.92,68.92,0,0,1,20.65,128c-2.93.19-5.44-1.49-4.57-4.91a6.48,6.48,0,0,1,.75-1.78,13.85,13.85,0,0,1,3.09-4.48.3.3,0,0,0-.28,0c-3.55,2.32-10.2,11.15-2.73,12.91,4.76,1.12,11-.59,15.59-1.66a93,93,0,0,0,16-5.3,88.52,88.52,0,0,0,27.8-18.81C78.23,102.06,80.8,99.07,79,96Z"/><path class="cls-5" d="M76.83,111.68c-4.7,5.86-9.15,11.55-15.17,16-6.25,4.64-13.47,7.38-20.18,11.14-.42.23-.15,1,.31.83,13.65-5.52,28.45-13.29,35.58-27.51C77.55,111.8,77.1,111.33,76.83,111.68Z"/><path class="cls-5" d="M64.22,149c-11.6,7.7-25,14-38.92,9.2a.23.23,0,0,0-.19.41C31,162.42,38.5,161.49,44.92,160c7.11-1.69,14.44-5,19.75-10.32C65,149.34,64.6,148.74,64.22,149Z"/><path class="cls-5" d="M73.23,169.16c-12.22,4.74-24.61,8.11-37.78,6.61-.3,0-.33.39-.09.5,5.38,2.51,12.41,1,18,.08,6.91-1.1,14-2.9,20.1-6.48C73.84,169.67,73.63,169,73.23,169.16Z"/><path class="cls-5" d="M111.56,152.07a76.4,76.4,0,0,1-17.38,18.25A48.89,48.89,0,0,1,70.33,180.7c-.46.07-.48.91,0,1,9.09,1.57,18.05-4.12,25-9.6,6.24-4.94,14.16-11.66,17-19.64A.45.45,0,0,0,111.56,152.07Z"/><path class="cls-5" d="M97.74,203.21c-4.68,1.36-8.94,3.88-13.85,4.44-5.88.66-10.73-2-15.52-5.28-.37-.26-.82.3-.5.63,8.31,8.53,21,7.32,30.24,1.17C98.57,203.87,98.31,203.05,97.74,203.21Z"/><path class="cls-5" d="M89.05,215.61c-5.21,2.41-10.49,3.76-16.25,3a.2.2,0,0,0-.07.38c5.71,1.66,11.86,1.16,16.77-2.51A.48.48,0,0,0,89.05,215.61Z"/><path class="cls-5" d="M104.55,210.11c-2.11,2.48-3.18,6.7-5.33,9.19a22,22,0,0,1-8.62,5.75c-.35.14-.19.74.16.73,6.53-.1,13.54-8.79,14.11-15.5C104.88,210.11,104.66,210,104.55,210.11Z"/><path class="cls-5" d="M64.34,97.3c-14.58,2-28.21,9.88-40.1,18.4-.12.08,0,.3.14.22,12.47-8.46,26.22-13,40.09-18A.31.31,0,0,0,64.34,97.3Z"/><path class="cls-5" d="M67.77,102.07c-6.46,5.29-12.94,10-20.56,13.32a91.44,91.44,0,0,1-10.58,3.81c-3.86,1.14-9.61,3.6-13.51,2-.42-.16-.68.49-.32.73,2.87,1.94,5.71,1,8.85.23a95.14,95.14,0,0,0,14.5-4.72c8.12-3.41,16.2-8.08,21.91-15.16C68.21,102.15,67.94,101.93,67.77,102.07Z"/><path class="cls-5" d="M53.07,104.43a55,55,0,0,0-16,7c-1.63,1.08-6.31,3.8-5.25,6.56a.52.52,0,0,0,.46.38c3.86.49,9-1.84,12.53-3.47a.44.44,0,0,0-.3-.81c-2.4.73-4.76,1.58-7.17,2.27-1.28.36-4,1.91-3.5-1.19.18-1.15,2.86-2.32,3.68-2.89a52.91,52.91,0,0,1,15.65-7.37C53.44,104.81,53.35,104.36,53.07,104.43Z"/><path class="cls-5" d="M55.53,107.13c-.75-.92-3.32-.18-4.23,0A19.69,19.69,0,0,0,44.69,110c-.19.13-.11.52.14.43,2.45-.88,4.86-2.07,7.44-2.48.48-.08,2.21-.65,1.84.49-.15.45-1.51,1-1.87,1.22-1.23.7-2.54,1.21-3.79,1.86a.35.35,0,0,0,.23.65C49.82,112,57.24,109.2,55.53,107.13Z"/><path class="cls-5" d="M36.13,101.19l-2.06,1.38c-.14.1,0,.35.12.25l2.06-1.38C36.39,101.35,36.28,101.1,36.13,101.19Z"/><path class="cls-5" d="M83.21,88.72C68,85.42,53.52,92,40.38,99.39c-.16.09,0,.36.13.27C53.76,92.25,67.84,86.13,83.19,89,83.37,89.05,83.38,88.76,83.21,88.72Z"/><path class="cls-5" d="M87.4,91.13c-.17-.16-.44.09-.27.25,5.09,4.93,2.7,12.83-.4,18.12-2.85,4.87-7,8.41-11.38,11.64-.38.28-.08.94.35.69,5.76-3.37,11.11-8.54,13.55-15.12C91.11,101.67,91.53,95.06,87.4,91.13Z"/><path class="cls-5" d="M100.91,176.53c-4.71,2.78-9.3,6.08-14.59,7.42-4.94,1.24-11.39,3.16-16.41,1.84a.31.31,0,0,0-.18.59c4.92,1.83,11.19.12,16.1-1.07a38.16,38.16,0,0,0,15.47-8.21C101.59,176.84,101.24,176.33,100.91,176.53Z"/><path class="cls-5" d="M88.34,194.78c-7.07-.29-14.45-.94-21.08-3.86-.26-.11-.5.28-.3.49,2.33,2.4,6.68,2.62,9.74,3.25,3.86.79,7.8,1.43,11.69.72C88.72,195.33,88.67,194.8,88.34,194.78Z"/></g></g></g><g id="PixelsASSETS"><g id="Cola"><rect class="cls-6" width="130" height="250"/></g></g></g></g></svg>