<svg xmlns="http://www.w3.org/2000/svg" viewBox="0 0 464 265"><defs><style>.cls-1{isolation:isolate;}.cls-2{fill:#fff;}.cls-3{fill:#ccc;}.cls-4{fill:#42210b;}.cls-5{fill:none;mix-blend-mode:multiply;}</style></defs><g class="cls-1"><g id="Layer_2" data-name="Layer 2"><g id="Variación_B" data-name="Variación B"><g id="AssetsB3"><g id="HornA3"><g id="Capa_41" data-name="Capa 41"><path class="cls-2" d="M436,172.59l0-.05a1.45,1.45,0,0,0,.57-1.58,88,88,0,0,0-2.94-11,101.43,101.43,0,0,0-4.52-19,6,6,0,0,0-.74-1.46c1.27-.4,2.54-.82,3.8-1.29,1.43-.53,1.44-3-.36-2.9-.61,0-1.22.11-1.84.19a1.61,1.61,0,0,0-.14-.38c-1.66-3.41-3.32-6.81-5-10.21a2.28,2.28,0,0,0-1.48-1.17,11.54,11.54,0,0,0-1-2.95c-7.59-14.89-20.1-26.31-32.41-37.27a7.43,7.43,0,0,0-5.51-1.95l-2.18-2,0,0c-10.06-13.61-24.47-21.39-39.92-27.09-6.09-4.35-12.47-8.21-19.65-10.52a46.1,46.1,0,0,0-13.15-2c-4.24-.09-8.53.69-12.35-1.51a6.56,6.56,0,0,0-7.26.48c-4.71-1.18-9.5-1.54-14.67.32a6.62,6.62,0,0,0-4.72,7.06,57.55,57.55,0,0,0-38.92,37.63,65.75,65.75,0,0,0-2.69,29.86,59.58,59.58,0,0,0-.67,15.15c.47,6.59,1.81,14.64,5.93,20.14-1.78,2.19-2.13,5.44.57,8.27l19.7,20.64a5.77,5.77,0,0,0,4.16,1.87c1,.73,2,1.43,3.08,2.09a36.58,36.58,0,0,0,17.1,5.19c1,.06,2,.08,3.06.07a48.13,48.13,0,0,0,19.55.19c6.19-1.4,6.22-11.55-.15-12.69-4.5-.81-9.17-.61-13.81-.51l-3.47-.71c-1.15-.23-2.3-.49-3.44-.79a5.85,5.85,0,0,0-1.3-3.12,212.65,212.65,0,0,1-17.06-24.13,10.5,10.5,0,0,0,.48-2.2,40.63,40.63,0,0,0-1-12.73,13,13,0,0,0,2.64-6.56,14.55,14.55,0,0,0,3.57-5.22c3.24-8,9.39-14,15.87-19.92,1.5-1.36,3-2.65,4.51-3.89h.63l25.05-1.06,3.63-.16c5.53.65,11,1.65,16.5,2.76a136.68,136.68,0,0,0,18.47,17.35,8.15,8.15,0,0,0,6.36,1.78c.31.29.62.58.92.88Q368.6,129,377.42,141.6a1.72,1.72,0,0,0,.19,1.06,143.22,143.22,0,0,1,9.2,23.18q.13,1.74.39,3.45c-.28.74-.54,1.49-.75,2.24a1.17,1.17,0,0,0,1.26,1.49c.07.6.15,1.2.21,1.81a1.44,1.44,0,0,0,1.45,1.34c15.4.77,30.61-4.12,45.92-.57C437.22,176.05,437.86,173.06,436,172.59Zm-38.17-12.25a1.51,1.51,0,0,0-.46-.27c.31-.4.61-.8.93-1.19a1.45,1.45,0,0,0-.22.47C398,159.68,397.87,160,397.79,160.34ZM428,170.76v-.14l.22,0c.1.25.21.51.31.77l-.65-.05A2.2,2.2,0,0,0,428,170.76Z"/><path class="cls-3" d="M280,54.5c-25.57,4.92-42.93,29.17-45.44,54.19a75.88,75.88,0,0,0,7.13,39.77c5.57,11.75,14.71,24.52,26.05,31.36.33.2.74-.3.48-.58-8.18-9-16.42-16.81-22.24-27.75a75,75,0,0,1-9-38.44c1.12-26.66,18.11-48.83,43.36-57.21C281.09,55.59,280.73,54.35,280,54.5Z"/><path class="cls-3" d="M388.13,116.23c-6.6-9.65-16.24-17.94-25.41-25.1a132.52,132.52,0,0,0-31.12-18.2,106,106,0,0,0-36.68-8.14c-9.23-.31-23.48-.55-30.37,6.71-.13.13,0,.4.21.31,21-10.43,48.06-5.45,68.73,3.63a134.3,134.3,0,0,1,28.83,17.72c9.13,7.19,16.64,15.87,25.22,23.62C387.89,117.1,388.38,116.6,388.13,116.23Z"/><path class="cls-3" d="M419.86,137.56c-2-5.43-6.12-10.28-9.32-15-3.48-5.19-7-10.32-10.94-15.19a166.52,166.52,0,0,0-25.26-25.17.16.16,0,0,0-.22.24,163.55,163.55,0,0,1,24.2,26c3.38,4.55,6.55,9.26,9.69,14,3.45,5.17,6.57,11.46,11.13,15.75C419.49,138.41,420,138,419.86,137.56Z"/><path class="cls-4" d="M321.65,157.48c-2.57,6.08-3.93,11.74-8.74,16.65-5.17,5.27-11.91,8-19,9.51-7.66,1.6-16.1,2.27-23.7.1-7.15-2-13.31-6.63-18.59-11.71a81.39,81.39,0,0,1-22.43-76.77,98.58,98.58,0,0,1,21.1-41.45c1.11-1.29-.83-3-2.11-2-26.31,20.83-36.2,56.1-26.64,88.06A89.85,89.85,0,0,0,247.35,181c6.1,5.42,13.18,10.11,21.17,12.17,8.71,2.24,18.24,1.33,26.94-.53s17.27-5.75,23.47-12.36c5.18-5.51,11.68-15.42,7.38-23.05a2.57,2.57,0,0,0-4.66.29Z"/><path class="cls-4" d="M387.77,178.41a9.31,9.31,0,0,0,1.06-8.72c-1.63-5.28-3.23-10.55-5.28-15.69a127.42,127.42,0,0,0-16.73-29.67c-12.77-16.76-30.76-31.36-52.28-34-18.36-2.23-39.18,6.33-47.2,23.74-8.63,18.71-5.58,45.48,11.18,58.77,8.2,6.51,19.15,9.64,29.31,6.22,9.32-3.13,16.26-10.32,17.66-20.16a1.22,1.22,0,0,0-2.34-.59c-6.23,17.48-28,19.67-40.67,8-13.41-12.32-16-36.55-6.36-51.94,8.18-13.07,25.64-18.12,40.23-15.27,17.15,3.36,31.35,15,42.18,28.24a122.51,122.51,0,0,1,16.64,26.4c3.7,8,5.47,17.23,10.28,24.67a1.47,1.47,0,0,0,2.32-.05Z"/><path class="cls-4" d="M440.88,177.79c-.65-26.67-9-54.59-25.86-75.6-16.51-20.58-36.31-40.26-59.56-53.09-22.54-12.43-48.42-18-73.95-13.66-21.84,3.72-43.32,16.08-53.25,36.45C222,84.72,217.45,98.81,217.32,113.2c-.06,7,1.57,13.25,3,20,1.29,5.91,2.36,11.23,5.27,16.66,2.73,5.11,10.51.57,7.77-4.54a41.44,41.44,0,0,1-4.11-13.09c-1-5.61-2.75-10.75-2.93-16.53C226,104.12,229,92.62,233.49,82c4.26-10.11,10-18.83,19-25.24a76.88,76.88,0,0,1,27.92-12c22.84-4.88,46.89-.14,67.43,10.49,21.31,11,38.18,27.78,54,45.47,19.06,21.29,29.29,48.5,30,77.06.14,5.79,9.14,5.81,9,0Z"/></g><g id="Capa_40" data-name="Capa 40"><g id="Capa_39" data-name="Capa 39"><path class="cls-2" d="M330.77,185q-.91.12-1.83.3a2.3,2.3,0,0,0-.16-.37c-1.87-3.3-3.73-6.6-5.61-9.89a2.31,2.31,0,0,0-1.55-1.08,11.37,11.37,0,0,0-1.22-2.88c-8.47-14.4-21.64-25.05-34.59-35.24a7.39,7.39,0,0,0-5.62-1.62c-.76-.64-1.52-1.28-2.3-1.9l0-.05c-10.86-13-25.72-19.87-41.48-24.63-6.34-4-12.94-7.44-20.25-9.31a46.13,46.13,0,0,0-13.25-1.25c-4.23.17-8.47,1.2-12.42-.76a6.56,6.56,0,0,0-7.21.92c-4.77-.9-9.58-1-14.63,1.2a6.61,6.61,0,0,0-4.28,7.34,57.54,57.54,0,0,0-36.59,39.9,66,66,0,0,0-.88,30,59.64,59.64,0,0,0,.25,15.16c.86,6.55,2.69,14.51,7.13,19.75-1.65,2.29-1.8,5.56,1.06,8.22l20.92,19.41a5.74,5.74,0,0,0,4.26,1.62c1,.67,2.1,1.31,3.21,1.9a36.47,36.47,0,0,0,17.38,4.15c1,0,2-.05,3-.11a48,48,0,0,0,19.53-1c6.09-1.77,5.51-11.9-.92-12.65-4.54-.54-9.19-.06-13.81.32l-3.51-.5c-1.17-.16-2.33-.35-3.48-.58a5.78,5.78,0,0,0-1.49-3A211.22,211.22,0,0,1,162,205.28a10.09,10.09,0,0,0,.34-2.21,40.51,40.51,0,0,0-1.73-12.66,13,13,0,0,0,2.24-6.71,14.57,14.57,0,0,0,3.25-5.42c2.75-8.2,8.53-14.54,14.64-20.84,1.41-1.45,2.83-2.82,4.27-4.16l.62,0,24.94-2.58,3.62-.37c5.56.31,11.12,1,16.64,1.76a136.39,136.39,0,0,0,19.48,16.2,8.14,8.14,0,0,0,6.46,1.39l1,.83q9.59,12.08,19.16,24.15a1.75,1.75,0,0,0,.25,1.05,142.38,142.38,0,0,1,10.93,23.53,1.39,1.39,0,0,0,.79.85,26.65,26.65,0,0,0-1.15,3.9,1.17,1.17,0,0,0,2.13.88c5.16-8.38,9.22-16.42,16.7-23.14a63,63,0,0,1,11.1-8c4.41-2.49,9.1-3.79,13.68-5.82C332.7,187.3,332.55,184.8,330.77,185Z"/><path class="cls-3" d="M174.32,113.56c-25.23,6.45-41.09,31.71-42.08,56.84a75.75,75.75,0,0,0,9.51,39.26c6.27,11.4,16.16,23.59,27.89,29.74.34.17.72-.35.44-.61-8.7-8.49-17.4-15.79-23.87-26.36A75,75,0,0,1,135,174.6c-.49-26.68,15.13-49.83,39.83-59.72C175.52,114.58,175.09,113.36,174.32,113.56Z"/><path class="cls-3" d="M286,168.66c-7.17-9.24-17.29-16.93-26.87-23.52A133,133,0,0,0,227,128.84a106.29,106.29,0,0,0-37.11-5.91c-9.23.25-23.46.87-29.91,8.53-.12.14.06.4.23.3,20.34-11.68,47.64-8.34,68.83-.52a134.24,134.24,0,0,1,29.84,15.95c9.55,6.62,17.57,14.84,26.6,22.05C285.84,169.54,286.3,169,286,168.66Z"/><path class="cls-3" d="M319,188c-2.33-5.29-6.73-9.88-10.22-14.46-3.78-5-7.63-9.87-11.83-14.5a166.62,166.62,0,0,0-26.74-23.6c-.17-.12-.37.13-.2.26a162.69,162.69,0,0,1,25.72,24.46c3.65,4.34,7.1,8.85,10.52,13.36,3.76,5,7.25,11,12.06,15C318.67,188.91,319.16,188.43,319,188Z"/></g><g id="Capa_38" data-name="Capa 38"><path class="cls-4" d="M222.2,213.7c-2.41,6.72-3.45,12.76-8.61,18.24-4.79,5.08-11.13,8-17.79,9.74-7.68,2-16.14,3.26-24,1.35-7.18-1.75-13.57-5.94-19.1-10.74a81.5,81.5,0,0,1-26.85-73.93,98.45,98.45,0,0,1,18.7-43.62c1-1.3-.85-3.14-2.11-2-25.17,22.51-33,58.81-21.07,90.25a89.91,89.91,0,0,0,28.45,39.09c6.72,5.21,14.37,9.5,22.88,10.78,8.66,1.29,17.93-.11,26.27-2.62,8.83-2.65,16.85-7.22,22.6-14.53,4.4-5.59,9.72-15.4,5.26-22.29-1.14-1.75-3.87-1.93-4.66.29Z"/><path class="cls-4" d="M289.48,236.4c5.53-8.71-2.18-22.54-6.15-30.75a125,125,0,0,0-17.66-27.18c-14-16.33-33.5-30.48-55.77-31.27-17.94-.65-37.08,8.84-44.28,25.87-8.08,19.08-3.21,45.91,14,58.42,8.47,6.16,19.61,8.68,29.58,4.88,9.27-3.52,16-11.26,16.86-21.26.11-1.3-1.95-2-2.34-.59-5,17.54-26,21.37-39.55,11-14.58-11.14-18.87-35.75-10.19-51.76,7.34-13.53,23.94-19.6,38.69-18,17.95,2,33.55,13.68,45.31,26.7a122.76,122.76,0,0,1,17.45,24.67,116.87,116.87,0,0,1,6.4,14.21c1.81,4.87,2.44,10.24,5.12,14.71a1.49,1.49,0,0,0,2.52.27Z"/><path class="cls-4" d="M337.94,185.93c-25.65-35.39-57.26-70.69-98.95-86.88a107.93,107.93,0,0,0-64.51-4.57c-21,5.09-41.58,18.16-50.26,38.56-5.48,12.87-9.3,26.84-8.94,40.94.18,7.11,1.76,13.52,3.87,20.25,1.95,6.2,3.09,11.89,6.55,17.58,3,4.94,10.8.42,7.78-4.55-2.8-4.59-3.86-9.1-5.29-14.19-1.65-5.86-3.53-11.24-3.85-17.41-.59-11.53,2-22.95,5.95-33.72,7.42-20.19,24.46-33.08,45.05-38.4,41.06-10.61,80,8.66,110,35.78,16.86,15.25,31.53,32.78,44.85,51.15,3.37,4.65,11.18.16,7.77-4.54Z"/></g></g></g></g></g><g id="PixelsASSETS"><g id="Cuernos"><rect class="cls-5" width="464" height="265"/></g></g></g></g></svg>