<?xml version="1.0" encoding="utf-8"?>
<!-- Generator: Adobe Illustrator 26.0.0, SVG Export Plug-In . SVG Version: 6.00 Build 0)  -->
<svg version="1.1" id="Capa_1" xmlns="http://www.w3.org/2000/svg" xmlns:xlink="http://www.w3.org/1999/xlink" x="0px" y="0px"
	 viewBox="0 0 464 265" style="enable-background:new 0 0 464 265;" xml:space="preserve">
<style type="text/css">
	.st0{fill:#FFFFFF;stroke:#999999;stroke-width:3.93;stroke-miterlimit:10;}
	.st1{fill:#E6E6E6;}
	.st2{fill:#FFFFFF;stroke:#42210B;stroke-width:6;stroke-linecap:round;stroke-linejoin:round;}
	.st3{fill:none;stroke:#999999;stroke-width:3.93;stroke-miterlimit:10;}
</style>
<g>
	<g id="Capa_2_00000056395961012729512560000018432368862678919837_">
		<g id="AssetsE3">
			<g id="HornE3">
				<path class="st0" d="M352.7,103h-16.5c0,0-28-1.5-28-25s26.1-28.3,26.1-28.3s0-17.2,15.2-24.2s26.3,4.5,26.3,4.5
					S389.6,2.7,419,17.3s16.3,33.4,16.3,33.4s22,3.5,22,25.9s-19.5,26.4-32,26.4H352.7z"/>
				<path class="st1" d="M378.6,39c0,0,10.3-12.9,23.1-12.8s23.3,11.4,22.8,18.9c-0.4,5.3-1.2,10.5-2.2,15.7c0,0-0.8-11.9-11.2-17.3
					C392.8,34,378.6,39,378.6,39z"/>
				<path class="st1" d="M425.1,67.4c0,0,5.2-6.5,11.5-6.4s11.6,5.7,11.4,9.4c-0.2,2.6-0.6,5.3-1.1,7.9c0,0-0.4-5.9-5.6-8.7
					C432.2,64.9,425.1,67.4,425.1,67.4z"/>
				<path class="st2" d="M286.2,242.6c0,0-39.7-92-71.7-131s-83-69-80-71s67-6,116,41c34.1,32.7,87.4,106.6,87.4,106.6
					s-21.1,18.1-29.8,23.8S286.2,242.6,286.2,242.6z"/>
				<path class="st2" d="M376.8,178.5c0,0-22.3-56-49.8-96.8c-28.5-42.1-80.4-62.1-80.4-62.1s56.6-19.3,101.7,20.8
					s89.4,141.5,89.4,141.5s-7.1-3.6-25.2-3.4s-35.9,9.9-35.9,9.9L376.8,178.5z"/>
				<path class="st0" d="M271.7,181.7c0.8-5.4-0.2-10.8-2.7-15.6l-0.6-1c-4-6.7-12.8-10.9-22.6-8.4c-3.1-7.2-11.5-10.6-18.7-7.5
					c-0.2,0.1-0.4,0.2-0.5,0.2c-7.6-9.5-23.8-24.3-48.9-19.2C152.6,135.5,141,161,141,161c-8.7-8.1-26.8-4.6-35.6,3.8
					c-9.3,8.8-9.1,15.5-9.1,15.5c-6.1-3.9-16,0-17.7,5.9c-1.4,4.6,0.6,9.5,4.8,11.8l0.8,0.4c8.2,4.1,13.3,1.8,13.3,1.8
					c9.8,21.1,28.3,15.6,36.8,11.3c2.6-1.4,8.1-3.7,8.1-3.7s15.2,14.4,36.3,15.2c12.6,0.5,34.1-6.1,39.1-17.6
					c22.6,13,62.5,3,67.7-9.9C287.6,190.2,285.6,177.9,271.7,181.7z"/>
				<path class="st1" d="M285.5,194.3c-5.2,12.7-45.1,22.5-67.7,9.9c-5.1,11.3-26.6,17.8-39.2,17.3c-21.1-0.7-36.2-14.8-36.2-14.8
					s-5.4,2.3-8.1,3.6c-8.5,4.2-27,9.6-36.7-11c0,0-5.1,2.2-13.3-1.7l-0.8-0.4c0.9-0.2,1.9-0.4,2.7-0.6c12.1-2.8,28.3-14.2,39-3.6
					c-0.1-8.2-8.5-13.9-16.5-12.9c3.9-5.1,10.6-7.1,16.6-5.1c6.1,2.2,10,8.1,9.6,14.6c6.3-3.2,13.5-4.2,20.4-2.8
					c7.5,1.3,12.5,5.9,15.6,12.8c-2.3-12.2-8.8-19.1-21.4-18.3c-0.4-7,0.4-11.7,4.7-17.3s11.9-9,18.8-7.2s11.8,9.7,9.1,16.2
					c1.1-1.6,5.1-2.6,7.5-1.1c1.9,1.2,2.3,4.7,1.9,6.1c2.1-5.6,7.5-9.2,13.5-9c5.9,0.3,10.9,4.4,12.5,10.1c1-10.3-9-20.2-19.5-19.4
					c14.6-8,34.3-2.8,36.4,13.5c5.7-18.2,30.7-14.6,34.5-7.7c2.8,4.9,3.6,11.6,2.7,15.3C285.5,177.2,287.5,189.2,285.5,194.3z"/>
				<path class="st3" d="M271.7,181.7c0.8-5.4-0.2-10.8-2.7-15.6l-0.6-1c-4-6.7-12.8-10.9-22.6-8.4c-3.1-7.2-11.5-10.6-18.7-7.5
					c-0.2,0.1-0.4,0.2-0.5,0.2c-7.6-9.5-23.8-24.3-48.9-19.2C152.6,135.5,141,161,141,161c-8.7-8.1-26.8-4.6-35.6,3.8
					c-9.3,8.8-9.1,15.5-9.1,15.5c-6.1-3.9-16,0-17.7,5.9c-1.4,4.6,0.6,9.5,4.8,11.8l0.8,0.4c8.2,4.1,13.3,1.8,13.3,1.8
					c9.8,21.1,28.3,15.6,36.8,11.3c2.6-1.4,8.1-3.7,8.1-3.7s15.2,14.4,36.3,15.2c12.6,0.5,34.1-6.1,39.1-17.6
					c22.6,13,62.5,3,67.7-9.9C287.6,190.2,285.6,177.9,271.7,181.7z"/>
			</g>
		</g>
	</g>
</g>
</svg>
