<svg xmlns="http://www.w3.org/2000/svg" viewBox="0 0 464 265"><defs><style>.cls-1{isolation:isolate;}.cls-2{fill:#fff;}.cls-3{fill:#9fa1a4;}.cls-4{fill:#42210b;}.cls-5{fill:none;mix-blend-mode:multiply;}</style></defs><g class="cls-1"><g id="Layer_2" data-name="Layer 2"><g id="Variacion_C" data-name="Variacion C"><g id="AssetsC3"><g id="HornA3"><g id="Capa_42" data-name="Capa 42"><path class="cls-2" d="M334.44,184.13a1.69,1.69,0,0,0-.12-.48,12.41,12.41,0,0,0-1.3-2.44,2.09,2.09,0,0,0-.14-.17,2.19,2.19,0,0,0-1-1.14,7.68,7.68,0,0,0-3.12-5.1c-.16-.31-.3-.62-.46-.93a7.54,7.54,0,0,0-1.25-5,144.81,144.81,0,0,0-11.94-15.72,4.43,4.43,0,0,0-.2-.45c-9.28-18.09-27.74-23.35-43.4-34.25a8.4,8.4,0,0,0-3.05-1.37,8.16,8.16,0,0,0-.93-.49l-2.38-1.1a8,8,0,0,0-2.12-1.72,174.44,174.44,0,0,0-21.28-10.29,8.12,8.12,0,0,0-3.26-.63q-5.6-2.4-11.24-4.74L201.77,86.28a6.51,6.51,0,0,0-3.89-.48C187.81,77.56,178,68.94,169.6,59a7.52,7.52,0,0,0-2.69-2c-1.51-2.2-3-4.44-4.38-6.74a6.12,6.12,0,0,0-4.41-3.06q-.19-1.92-.36-3.84a4,4,0,0,0-1.23-2.62c-.22-1.52-.45-3-.65-4.55-.45-3.43-6.42-3-6.14.52.15,1.83.31,3.65.48,5.47a3.86,3.86,0,0,0-.1,1l.09,5.34A4.37,4.37,0,0,0,149,51.52c-.36,20.27-.45,41.62,10.26,59.36a6,6,0,0,0,.72,4.47,5.26,5.26,0,0,0,1,3.35l5.19,7.4a24.25,24.25,0,0,0,3,4.29l1.47,2.1A7.13,7.13,0,0,0,173,137c1.82,1.7,3.68,3.35,5.56,5a62.67,62.67,0,0,0,12.26,9.81,8.69,8.69,0,0,0,5.68,1.48l0,0a42.7,42.7,0,0,0,4.68,3.81q3.92,3,8.05,5.76a58.4,58.4,0,0,0,11.95,6.93,6.64,6.64,0,0,0,4.58.47A72.46,72.46,0,0,0,241.24,176a6.58,6.58,0,0,0,3.66-.11l1.37,1A90.46,90.46,0,0,0,257.85,186l.2.21q1.5,1.56,3,3.06l6.43,6.49a5.58,5.58,0,0,0,2.48,1.44q3.22,2.59,6.67,5a2.67,2.67,0,0,0-.06,3c2.21,3.8,4.48,8.06,7.91,10.93.67,1,1.33,2.06,2,3.1l.18.24c.36.66.72,1.32,1.1,2a2.68,2.68,0,0,0,.53.65c-.22,1.15-.41,2.36-.61,3.66a.52.52,0,0,0,.71.59c0,.14,0,.28.05.42a.76.76,0,0,0,1.35.32c1.45-1.72,2-3.77,3-5.77a36.36,36.36,0,0,1,5.1-7.44,92.75,92.75,0,0,1,11.5-10.92,127.31,127.31,0,0,1,14-10c3.68-2.28,8.69-4.1,11.29-7.64A.82.82,0,0,0,334.44,184.13Z"/><path class="cls-2" d="M438.74,173a7.34,7.34,0,0,0-3-1.49,4.67,4.67,0,0,0,.13-.67,4.1,4.1,0,0,0,1.66-3.76c-.85-11.4-.23-24.51-4.43-35.29-2.28-5.85-5.94-12.27-10.91-16.71a95.69,95.69,0,0,0-8.75-14.37,86.08,86.08,0,0,0-26.1-22.49c-9.17-5.28-19.08-9.14-29-12.71a106.67,106.67,0,0,0-26.8-6.07,6.16,6.16,0,0,0-1-1.42c-2.89-3.06-8.1-5.2-12-6.57-4.46-1.56-9.63-1.75-14.32-1.51a8.87,8.87,0,0,0-3.7,1c-8.78-2.54-18.55-4.26-26.06-9.49a5.89,5.89,0,0,0-4.85-1c-1.91-5.38-4.23-10.83-4.66-16.52-.39-5.23-7.7-3.92-8.53.45a40.33,40.33,0,0,0,.32,15.36,39.3,39.3,0,0,0,.95,5.55,34.15,34.15,0,0,0,3,11.61,7.43,7.43,0,0,0,.74,4,23.94,23.94,0,0,1,1.52,4.28,6.65,6.65,0,0,0,2.7,3.92,58.4,58.4,0,0,0,4.06,5.78,6,6,0,0,0,2.47,1.88l1.16,1.54c4.75,6.28,11.2,12.3,19.36,12,1.95,1.37,3.91,2.71,5.9,4,6.47,4.25,13.39,8.6,20.82,11.08.91.62,1.86,1.22,2.86,1.79a7.61,7.61,0,0,0,1.11.73,19.06,19.06,0,0,0,5.86,2.33l.12,0a8,8,0,0,0,1.64,2.1,182.83,182.83,0,0,0,23,17.77l.15.09c.12.21.25.42.39.62.71,1.05,1.4,2.1,2.11,3.16a9.31,9.31,0,0,0,1.95,4.86c3.84,5.1,7.73,10.15,11.48,15.31a14.2,14.2,0,0,0,1.17,1.38,2.78,2.78,0,0,0-.1,2.27,122.63,122.63,0,0,1,4.62,15.2c.26,1.29.54,2.58.83,3.86a5.48,5.48,0,0,0-.88,2.42c-.19,1.49-.36,3,.69,4.2a1.51,1.51,0,0,0,.23.21.88.88,0,0,0,1.08.77c9.56-1.87,18.88-4.17,28.62-5.21,5.17-.55,10.35-.81,15.54-1.05,3-.13,6.52.3,9.5-.51a7.85,7.85,0,0,0,5-1.33,1.83,1.83,0,0,0,.36-.31C438.41,176.48,440.37,174.44,438.74,173Z"/><path class="cls-3" d="M322.42,176.21c-6.5-8.58-12.21-18-19.68-25.82-6.49-6.77-14.27-15.23-22.78-19.32a.62.62,0,0,0-.74,1c3.11,3.45,7.09,6.17,10.48,9.37a135.57,135.57,0,0,1,11.94,13.29c3.28,4,6.41,8.11,9.35,12.39,2.84,4.13,5.5,8.11,9.79,10.83A1.19,1.19,0,0,0,322.42,176.21Z"/><path class="cls-3" d="M324.11,192.42c-2.56-6.39-7.84-12.26-11.88-17.79-4.53-6.19-9.1-12.28-14.21-18a1.19,1.19,0,0,0-1.86,1.47c4.21,6.42,8.83,12.53,13.39,18.72,4.06,5.51,7.87,12.26,13,16.82C323.35,194.37,324.47,193.32,324.11,192.42Z"/><path class="cls-3" d="M368,124c-11.44-17.53-32-25.44-50.27-33.74-10.17-4.63-20.25-9.59-29.1-16.5a91.84,91.84,0,0,1-12.22-11.44c-3.58-4-7.7-7.93-10.67-12.44-.38-.59-1.42,0-1.07.61,2.34,4.2,4.2,8.59,7.14,12.46a80.38,80.38,0,0,0,10,10.56c8.07,7.32,17.42,12.82,27.19,17.55,20.29,9.84,41.35,17.63,57.2,34.37A1.16,1.16,0,0,0,368,124Z"/><path class="cls-3" d="M411.8,109.26c-.59-.82-2,0-1.55.91a105.73,105.73,0,0,1,8.65,24.53c1.94,8.23,2.93,16.72,5.61,24.75a1.19,1.19,0,0,0,2.26-.34C427.28,141.86,421.89,123.17,411.8,109.26Z"/><path class="cls-3" d="M419.64,147.08c-1.33-8.1-2.78-16.54-6.07-24.09a1.13,1.13,0,0,0-2.14.62c1.46,7.74,3.78,15.25,4.84,23.09.51,3.75.84,7.52,1.14,11.29.33,4.08,0,8.5,1.22,12.41a1.14,1.14,0,0,0,2.08,0C422.75,163.37,420.8,154.14,419.64,147.08Z"/><path class="cls-3" d="M385.81,85.81c-3.26-3.94-8.8-5.7-13.72-6.33a1.34,1.34,0,0,0-.29,2.67c4.89.68,8.54,3,12.8,5.25C385.53,87.89,386.44,86.57,385.81,85.81Z"/><path class="cls-3" d="M276.31,233.3c-5.26-14.94-16.69-28.41-29.24-37.81s-28.36-17.21-43.24-7.77c-12.84,8.14-14.91,26.11-8.27,38.91a32.49,32.49,0,0,0,14.67,14.55c5.32,2.5,13.2,3.79,18.32.12,3.28-2.35,3.93-6.23,4.82-9.92,1.13-4.67,2.44-9.64,1.8-14.47-.95-7.13-6.38-13.13-13.91-11.8a1.16,1.16,0,0,0,0,2.29c11.26,2,13.32,16.21,9.54,25.12-4,9.37-14.76,8.29-22.12,3.61-13.63-8.67-19.77-29.9-8.13-42.58,12.13-13.23,31.58-1.21,43,7.35,12.47,9.35,21.1,21,29.07,34.14A2,2,0,0,0,276.31,233.3Z"/><path class="cls-3" d="M223.85,228c-3.24,3.23-8,2.2-10.55-1.32s-2.68-7.88-3.32-12c-.1-.66-1.22-.73-1.24,0-.14,5.36.71,11.61,5.19,15.19,3.28,2.62,8.61,2.82,11.16-.89A.78.78,0,0,0,223.85,228Z"/><path class="cls-3" d="M156.81,143.86c-6-8.13-11-16.5-14.25-26.11s-5-19.67-6.41-29.53a.84.84,0,0,0-1.67.24c.77,19.72,5.83,42.77,21,56.76C156.29,146,157.44,144.71,156.81,143.86Z"/><path class="cls-3" d="M197.77,171.72c-7.26-1.77-14.86,2-21.21,5.2-8.07,4.06-15.79,9.26-24.44,12-10.46,3.35-22.29,3.32-31.82-2.64-8.35-5.22-13.54-14-17.33-22.85-.49-1.15-2.42-.66-2.15.62,4,18.57,24.8,31.13,43.08,30.79,9.68-.19,18.53-4.3,26.86-8.9,4.46-2.46,8.89-5,13.58-7.05,4.49-2,9.27-3,13.77-4.93A1.2,1.2,0,0,0,197.77,171.72Z"/><path class="cls-3" d="M272.94,93.81c-13.3-6.39-26-13.29-36.86-23.45-10.62-9.93-20.33-22.24-26.16-35.59a.66.66,0,0,0-1.22.51c5.76,14.91,13.51,27.84,25.31,38.77,10.75,10,24,18.44,38.44,21.62C273.57,95.92,273.88,94.26,272.94,93.81Z"/><path class="cls-3" d="M401.51,60.69c-1.08-.69-2.3.88-1.22,1.59,16.45,10.76,28.93,23.81,35.6,42.52a.85.85,0,0,0,1.61-.45C433.8,85.06,417.2,70.77,401.51,60.69Z"/><path class="cls-3" d="M207.72,149.06c-21.17-14.47-39.72-33.24-47.08-58.5-.2-.7-1.43-.38-1.25.34,3.21,13.12,8.14,24.92,16.56,35.56,8.23,10.41,18.38,19.37,30.84,24.21C207.75,151,208.62,149.67,207.72,149.06Z"/></g><g id="Capa_41" data-name="Capa 41"><path class="cls-4" d="M339.14,189.57c.24-7.31-3.41-15.5-6.63-22a98.77,98.77,0,0,0-13-19.45c-10.66-12.66-24-23-38.21-31.32C249.8,98.39,211.53,91.65,183.05,68.1,168.66,56.2,160.36,41,154,23.7a1.24,1.24,0,0,0-2.34.36c-2.12,15.42,6.38,29.35,16.43,40.44,11.4,12.57,25.87,21.15,41.12,28.24,16.88,7.85,34.59,13.74,51.38,21.78,16,7.67,31.29,17.07,44.19,29.35a124.14,124.14,0,0,1,18.26,21.87,122.58,122.58,0,0,1,6.4,11.34c2.21,4.29,3.41,9,5.85,13.17.93,1.57,3.75,1.49,3.83-.68Z"/><path class="cls-4" d="M151.3,24.54c-4.38,20.66-7.75,41.32-5,62.47,2.35,18,8.95,35.7,21.08,49.37,23.75,26.77,60.86,34.11,89.27,54.15A84.51,84.51,0,0,1,277.48,211,67.48,67.48,0,0,1,284,223.36c1.79,4.2,4.71,9.48,2.44,14-.82,1.61,1.35,2.66,2.55,1.86,6-4,1.73-12.28-.53-17.3a78.5,78.5,0,0,0-12.71-20.17c-11.32-12.77-26.44-22.06-41.35-30.05-16-8.55-32.83-15.2-47.69-25.73-16.46-11.68-28.17-27.66-33.36-47.26-6.34-23.95-3.8-49.74-.2-73.94.18-1.21-1.63-1.4-1.88-.23Z"/><path class="cls-4" d="M437.92,181.79c5.67-6.09,3.64-19,3.1-26.58-.68-9.59-1.74-19.33-4.77-28.51a93.18,93.18,0,0,0-27.47-40.62C380.17,61.21,342.5,55.74,307.05,46.46c-10.06-2.64-20.79-5.24-30.13-10-10.2-5.15-12.05-14.74-16.37-24.36a1.39,1.39,0,0,0-2.64.41c-.85,7.82.22,15.56,5,22S275.29,44,282.57,46.64c17.69,6.34,36.16,10,54.35,14.55,34,8.48,68.56,22.86,86.49,55a89.2,89.2,0,0,1,9.76,29.39,160.33,160.33,0,0,1,2,17.75c.3,5.83-1.41,12.71.28,18.24.36,1.16,1.84.95,2.49.27Z"/><path class="cls-4" d="M257.65,13.15C252.86,26.12,252,42.56,255,56c3.06,14,11.46,24.11,23.34,31.8,25.77,16.7,56.17,27.49,77.36,50.56a72.55,72.55,0,0,1,13.06,19.78,49.87,49.87,0,0,1,4,13.62c.59,4.5-.64,9.13.3,13.51a1.43,1.43,0,0,0,2.53.61c3.63-4.83,2.36-12.88,1.17-18.44a62.75,62.75,0,0,0-8.24-19.71c-7-11.33-16.6-20.87-27.17-28.91-12.51-9.52-26.58-16.67-40.31-24.2C287.5,87.28,271.21,79.82,264,65.47a57.49,57.49,0,0,1-5.59-24.74c-.17-9.15,1.77-18.21,1.46-27.32,0-1.17-1.85-1.28-2.22-.26Z"/></g></g></g></g><g id="PixelsASSETS"><g id="Cuernos"><rect class="cls-5" width="464" height="265"/></g></g></g></g></svg>