<?xml version="1.0" encoding="utf-8"?>
<!-- Generator: Adobe Illustrator 26.0.0, SVG Export Plug-In . SVG Version: 6.00 Build 0)  -->
<svg version="1.1" id="Capa_1" xmlns="http://www.w3.org/2000/svg" xmlns:xlink="http://www.w3.org/1999/xlink" x="0px" y="0px"
	 viewBox="0 0 275 259.5" style="enable-background:new 0 0 275 259.5;" xml:space="preserve">
<style type="text/css">
	.st0{fill:#D3D3D3;stroke:#42210B;stroke-width:7;stroke-linecap:round;stroke-linejoin:round;}
	.st1{fill:#FFFFFF;stroke:#42210B;stroke-width:7;stroke-linecap:round;stroke-linejoin:round;}
	.st2{fill:#FFFFFF;stroke:#B3B3B3;stroke-width:3.47;stroke-linecap:round;stroke-linejoin:round;}
	.st3{fill:#FFFFFF;stroke:#B3B3B3;stroke-width:3.74;stroke-linecap:round;stroke-linejoin:round;}
</style>
<g>
	<g id="Capa_2_00000009572907617734383270000003564457322341407109_">
		<g id="AssetsE3">
			<g id="LoinE3">
				<path class="st0" d="M188.5,150c-8.9-20.2-8.9-53.7-14.4-98.3c-3.7-30.5-24.9-11.3-35.4,3.2s-22,24.6-37.2,37.9
					s-15.6,19.5-10.2,20s26.8,1.8,26.8,1.8s-4.8,15.6,0,15.9s21.6,7.6,21.6,7.6L188.5,150z"/>
				<path class="st1" d="M160,184.5c0,0-22.2-44.8-32.2-129.8c-3.9-33-26-12.2-36.9,3.5S67.9,84.8,52,99.2S35.7,120.4,41.3,121
					s28,1.9,28,1.9s-5,16.9,0,17.2s15.2,0,15.2,0s-0.2,28,11.8,25.9s12-5.4,12-5.4s-1.4,10.5,4.3,12.7s13.3-4.7,13.3-4.7
					s0.3,12.8,4.6,12.1c4.3-0.7,1.2-6.1,7.6-4.3s5,18,5,18"/>
				<path class="st2" d="M142.4,156.2c0,0-20.9-49.1-25.2-103.5c-0.8-10.6-29.9,26-29.9,26"/>
				<path class="st3" d="M76,96.2c0,0-1.7,15.4,3.9,13.4s13.2-12.2,13.2-12.2s-8.6,28.9-2.6,31.6c6,2.7,16.8-10.4,16.8-10.4
					s-4,18.5,1,20.4s14.8-8,14.8-8s-1.7,16.1,2.6,15.4s5.4-2.3,5.4-2.3"/>
			</g>
		</g>
	</g>
</g>
</svg>
