<svg xmlns="http://www.w3.org/2000/svg" viewBox="0 0 275 259.5"><defs><style>.cls-1{isolation:isolate;}.cls-2{fill:#838383;}.cls-3{fill:#d1d1d1;}.cls-4{fill:#b3b3b3;}.cls-5{fill:#fff;}.cls-6{fill:#919191;}.cls-7{fill:#42210b;}.cls-8{fill:none;mix-blend-mode:multiply;}</style></defs><g class="cls-1"><g id="Layer_2" data-name="Layer 2"><g id="Variación_B" data-name="Variación B"><g id="AssetsB3"><g id="LoinA3"><path class="cls-2" d="M235.73,148.31a2.72,2.72,0,0,0-.37-.13,3.28,3.28,0,0,0,1-3.73c-2.23-6.16-4.9-11.82-9.37-16.39a4,4,0,0,0-1-4.28c-2.3-2.18-4.95-3.35-7.9-4.6-1.57-.67-3.15-1.47-4.78-2.14a4.87,4.87,0,0,0-2.75-2.07,23.25,23.25,0,0,0-6.79-.78c-7.8-3.09-16.56-4.66-24.85-5.69a100.27,100.27,0,0,0-22.5-.41l-.14,0a5.49,5.49,0,0,0-8.36-1.62l-.56-1.31a4.85,4.85,0,0,0-7.72-1.87c-.47-1.49-1-3-1.62-4.44a5.48,5.48,0,0,0-3.38-2.92c-.17-.5-.36-1-.53-1.51a4,4,0,0,0-1-1.6c-.89-2.09-1.8-4.16-2.73-6.24a11.79,11.79,0,0,0-2.79-6.14,2.9,2.9,0,0,0-.69-.84c-.24-.57-.47-1.15-.7-1.73a1.79,1.79,0,0,0-2.18-1.27,67.13,67.13,0,0,0-11.44-8.94,2,2,0,0,0-2.73.51l-.09-.08C105.1,64,99.64,60.81,95,56.69c-2.43-2.15-4.64-4.47-6.84-6.83-1.73-1.84-2.51-3.28-5-3.69a.61.61,0,0,0-.7.5c-.21,2.46,1.14,3.59,2.72,5.6a68.61,68.61,0,0,0,7,7.79c4.75,4.43,10.56,7.64,15.39,12,5.64,5.1,10.37,9.58,11,17.26.36,4.29,1.33,10,7.08,10.29a1.33,1.33,0,0,0,.49-.09l.21.56a4.08,4.08,0,0,0-1.43,4.43c.82,3.06,1.45,6.17,2.21,9.25a4.2,4.2,0,0,0,4.93,3.28l.24.8c1,3.21,4.76,3.87,7.3,2.54h.21a7.18,7.18,0,0,0,2.45-.73,8,8,0,0,0,3.6,3.3,5.56,5.56,0,0,0,5.28-.18,9.14,9.14,0,0,0,1.25-1,9.66,9.66,0,0,0,10.59-.46c.27-.19.78-.53,1.23-.9a18,18,0,0,0,4.1,3.42c4.44,2.78,7.82,1.42,12.5.48,2.39-.48,4.21.85,6.49,1.47a20.43,20.43,0,0,0,7.23.44,12,12,0,0,1,7,1,42.56,42.56,0,0,0,6.24,2.25c5,1.35,8.9,2.8,12.44,6.54a61.31,61.31,0,0,1,8.51,11.58,3.59,3.59,0,0,0,.89,1l-.88.1c-1.2.14-.89,1.76.27,1.72l3.86-.13a5.68,5.68,0,0,0,3.11-.65A.71.71,0,0,0,235.73,148.31Z"/><path class="cls-3" d="M214.12,141.8A18.81,18.81,0,0,0,209,137a8.61,8.61,0,0,0-1.78-1.73,9.86,9.86,0,0,0-4.07-1.71c-2.37-2.72-6.4-4.17-10.58-4.85-5.64-2.06-12.81-2.17-17.79-2a81.22,81.22,0,0,0-14.67,1.95c-3.36-.7-6.68-1.19-9.61-1.64a109.68,109.68,0,0,0-14.93-1.2,9.38,9.38,0,0,0-3.4-1.46,15.8,15.8,0,0,0-6.43.22c.79-4.36-1.35-9.27-2.93-13.35,0-.68.07-1.36.1-2,.16-3.72-.44-6.6-4.2-8.44a4.85,4.85,0,0,0-3.91-.1,8.24,8.24,0,0,0-1.44-2.09c-1.75-1.85-4.77-2.86-7.09-1.11a18.46,18.46,0,0,0-1.86,1.62,5.06,5.06,0,0,0-5.28,0,6.3,6.3,0,0,0-.87.59c-3.62-4.35-11.18-6.54-16.14-8.25a3.61,3.61,0,0,0-1.83-.17,17.58,17.58,0,0,1-7-4.68C67.56,80,67.84,68.91,61.46,62.78c-1.57-7.26-3.83-15.19-10.31-19.52-.25-.17-.69-.06-.71.27a13.24,13.24,0,0,0,0,1.78A21.33,21.33,0,0,0,49,42.8c-.25-.4-.89-.08-.83.32,1.6,11.93,2.79,24.33,7.14,35.73a44.63,44.63,0,0,0,8.56,14.7c1.47,1.58,4.52,4.16,7.51,5A3.33,3.33,0,0,0,69,102.64c0,.06,0,.11,0,.17a9.18,9.18,0,0,1-2.86-2.13,1,1,0,0,0-1.72.69c-1.29-1.31-2.06-2.71-3.39-4.19a.56.56,0,0,0-.84,0c-2,2.9,1,5.92,3.28,7.84,5.34,4.52,8.57,8.84,9.85,15.68a65.32,65.32,0,0,0,1.39,6.71c-1.75-2.7-2.42-5.67-3.34-8.72-.15-.5-.92-.41-1.11,0-4.94,10.82,10.8,20,17.58,25.95a23.48,23.48,0,0,1,4.54,4.81,4.5,4.5,0,0,1,.58,1.31,2.87,2.87,0,0,0-.09.78,15,15,0,0,0,.26,2.26c0,.25,0,.51,0,.78a20.7,20.7,0,0,0,2,7.65c2.15,5,5.09,9.37,11.34,9.74,5.88.34,11.79-2.18,17.56-3a61.42,61.42,0,0,1,20.47.3,36.78,36.78,0,0,1,3.82,1c8.52,4.54,16.12,10.9,25.64,13.34a22.36,22.36,0,0,0,4.89.89h.52l.74.06v-.13c4.14-.67,5.71-6,2.74-7.94a6.91,6.91,0,0,0,2.92-.32,6.9,6.9,0,0,0,4.5,1.57c4.45-.19,9.6-.39,13.59-2.45,3.82-2,6.28-5.83,8.35-9.3C216.84,158.34,219.91,149.75,214.12,141.8ZM81.2,106a4.61,4.61,0,0,0-1.58-1.81L78,100.92a4.33,4.33,0,0,0-1.2-1.42c1.39.63,3.07,1.54,4.84,2.37a31.69,31.69,0,0,0,1.24,7.33C82.28,108.12,81.74,107,81.2,106Zm21.92,18.67a4.3,4.3,0,0,0-1.46-1.73,12.55,12.55,0,0,0,1.36-1.27,4.44,4.44,0,0,0,1.29,3A6.76,6.76,0,0,0,103.12,124.62Zm77.59,51.22a26.93,26.93,0,0,1-8.41-2.19c-2.82-1.48-5.44-3.46-7.94-5.05a57.3,57.3,0,0,0-5.82-3.24,59,59,0,0,0-14.74-7.17c.91-.52,1.8-1.06,2.68-1.62.43,1.45,1.59,2.73,3.82,3.6,3,1.15,5.77-.15,8.31-2.07a6,6,0,0,0,1.88,1.84c-1.3,3.89,3,8,7.19,6.42a5.52,5.52,0,0,0,6.2,3.57,5.55,5.55,0,0,0,4.52,2.72,3.21,3.21,0,0,0,.22.46,7.21,7.21,0,0,0,2.44,2.77Z"/><path class="cls-4" d="M235.13,149.52c.34,0,.67.11,1,.13a2.34,2.34,0,0,1,.54.09c.25,0,.5,0,.75,0s.57,0,.85-.08a1.46,1.46,0,0,1,.75.09c1.51-6.35,0-13-3.23-18.89-.94-7.14-6.62-14-12-18.62a24.83,24.83,0,0,0-15.13-5.67c-3-2.15-7.16-3.26-10.65-4-5.12-1-11.62-1.35-16.18,1.51l-1.3-.19a109.67,109.67,0,0,1-15.75-3.53c-3.44-1.06-6.77-2.48-10.21-3.52a3.84,3.84,0,0,0-2.46-3.78,6.62,6.62,0,0,1-1-.52l-.44-.35-.19-.17a40.24,40.24,0,0,0-3.69-4.15c2.57-3.25,1.85-7.43-.36-11.24a12.14,12.14,0,0,0-1.55-5.59,5.68,5.68,0,0,0-3.62-2.65c-1.82-5-6.31-7.45-11.47-7.94-2.19-1.75-4.61-3-7.3-2.92a4.16,4.16,0,0,0-2.41.89c-6.13-3.67-13.68-5.15-20.51-7.16a1.82,1.82,0,0,0-1.91.56C93.46,48,89,44.18,83.23,44.16c-1.12,0-2.09,1.25-1.2,2.16,4.19,4.24,9.18,7.83,13.73,11.74a94.82,94.82,0,0,0,15.75,11c5.06,2.81,14.09,5.08,13.56,11.79-.28,3.47,0,6.14,1.31,8.57a18,18,0,0,0,4,8.2c5.63,6.59,15.4,10.32,23.74,12.75,10.15,3,20.08,2.12,30.49,2.89,5.59.41,11.12,1,16.64,2,2.73.45,5.36,1.06,8,1.7l.19.07c7.34,2.94,14.45,7.3,19.15,13.47A29.87,29.87,0,0,1,235.13,149.52Z"/><path class="cls-4" d="M226.3,158.5a7.91,7.91,0,0,0,.68-.44c-.12-2.69.26-5.49,1.94-7.48a3.86,3.86,0,0,1,.56-.53,16.31,16.31,0,0,0-.91-3.4,16.11,16.11,0,0,0-1.91-3.48C224,137.22,218,131.9,213,128.59c-6.54-4.32-17.39-8.86-25.75-6.61-5.31-1-11.24,0-16.57.07-6.32,0-12.7-.24-19-.66-6-.41-13.89-.17-19.53-2.39s-3.79-7.57-6.31-11.2l.17-.1.87-.59a2.23,2.23,0,0,0,.71-2.21,9.22,9.22,0,0,0-.4-1.91c2.11-6.38-7.69-10.83-13-11.71-4.3-.72-8.46.78-12.78.58-4.59-.2-9.15-.93-13.66-.24a62.74,62.74,0,0,1-11.2-5.3C71,83,68.76,79.12,67.12,73.23c-1.33-4.73-2.19-9.56-3.94-14.18-.29-.75-.6-1.49-.92-2.23L63,58a1.05,1.05,0,0,0,1.82-.5c.25-3.69-2.25-6.78-4.6-9.52s-4.58-6.12-8.16-7.5c-.34-.13-.76.21-.59.55s.42.75.63,1.12a54.81,54.81,0,0,0-4.28-3.91c-1-.84-2.58.71-1.63,1.64A53.12,53.12,0,0,1,61.06,65.61c2,8.27,2.75,17.17,10.37,22.71A63,63,0,0,0,97.33,99a90.23,90.23,0,0,0,14.13,1.1l.87,0a13,13,0,0,1,4.11,4.39,6,6,0,0,1,.37.83c-1.06,7.09.14,14,6.74,19.14.13.1.27.19.39.29a12.2,12.2,0,0,0,7,3.78c7.82,2.9,16.73,2.41,25.17,1.39,13.72-1.65,26.92-1.92,40.31,1.91a83.69,83.69,0,0,1,8.17,2.8,36.14,36.14,0,0,1,5.62,5.87,29.36,29.36,0,0,1,2.68,8.3,41.52,41.52,0,0,1,0,10.45,30.41,30.41,0,0,1-1.38,3.46c-1.37,2.9-4,5.5-5.19,8.48-.11.12-.23.24-.34.37a.93.93,0,0,0-.07,1c0,.13-.06.26-.07.4-.13.82.81,1.34,1.56,1.06a8.51,8.51,0,0,0,3.21-2.3,26.81,26.81,0,0,0,8.83-7,15.34,15.34,0,0,0,3.66-3.4,21.7,21.7,0,0,0,1.91-2.81A1.62,1.62,0,0,0,226.3,158.5Z"/><path class="cls-4" d="M198.85,171.78c-.49-1.68-2-3-2.86-4.5a29.3,29.3,0,0,1-1.68-3.42,13.76,13.76,0,0,0-1.29-8.14c2.25-9.55-11.93-17.45-20.4-17.3-6.59.12-13.22,1.27-19.73,2.2a30.69,30.69,0,0,1-11.33-.62c-2.91-.62-5-1.12-7.79.12a30.69,30.69,0,0,1-3.84-2.87,52.39,52.39,0,0,1-6.6-7.77c-.31-.43-.63-.82-1-1.2a8.13,8.13,0,0,0-1-2.64c-2.2-3.42-7.19-3.31-10.83-2.19a33.35,33.35,0,0,0-4.9,0,33.57,33.57,0,0,1-7.82-.44c-1.07-.2-2.07-.49-3.07-.77L93,121.34c-2-1-3.39-2.49-5.16-3.68-.39-.57-.79-1.13-1.16-1.7a15.92,15.92,0,0,1-1.16-2.06c.41-2-.3-4.86-.93-6.93,1.12-4.34-2.07-8.23-6.5-9.44a31.61,31.61,0,0,0-7.83-.65c-2.38,0-4.69-.93-7-.84a22.15,22.15,0,0,0-2.65-.52.88.88,0,0,0-.23,0,13.54,13.54,0,0,1-1.83-2.59c-.3-.57-1.43-.38-1.23.32,1.49,5.2,5.11,8.37,10.72,9.55s9.6,1.26,11.24,7.34c.78,2.92,1,6,2.36,8.71,2.39,4.73,7.4,7.73,12.56,9.25,7.5,2.2,17.08-.41,22.66,5.71,2.1,2.31,3.91,4.49,5.89,6.47a12.35,12.35,0,0,0,2.11,2l.16.08a25.79,25.79,0,0,0,6.63,4A38,38,0,0,0,150.13,149c9.09-1,17.25-5.39,26.49-2.27a21.9,21.9,0,0,1,11.2,8.42c2.07,3.07,2.87,6.63,4.43,9.92a1,1,0,0,0,.44.46,17.56,17.56,0,0,0,1.22,2.66c.91,1.61,2,3.67,3.81,4.44C198.25,172.84,199,172.35,198.85,171.78Z"/><path class="cls-4" d="M210.13,96.09c-5.65-.74-11.11-1.71-16.82-2.22-6.28-.57-12.82-1.31-18.19-4.68-4.36-2.73-8.24-7.16-9.63-12-2.73-9.43,8.71-10.06,15.32-12.87a1,1,0,0,0-.31-1.84c-5.68-.62-14.65,1-18.34,5.58-4.27,5.3-1.1,13,2.41,17.82,10.24,14.07,29.72,12.56,45.58,11.6C211,97.45,211,96.2,210.13,96.09Z"/><path class="cls-4" d="M53.81,65.38A39.43,39.43,0,0,0,43.45,50.16c-4.13-3.71-9.15-7.2-15.1-7.08A17.35,17.35,0,0,0,14,51.28c-4.68,7.63-4.82,24.53,8.13,24.34,9.59-.14,20.59-13.54,10.26-20.07-.73-.46-2,.25-1.45,1.09,2.64,4.4,2.53,9.23-1.65,12.8-4.84,4.12-12.5,4.16-14.5-2.61-2.45-8.28,1.87-20.69,12.46-21.08,8.62-.33,16.12,8.86,19.82,15.24,3.78,6.56,5.38,14.23,6.41,21.55.09.59,1.14.79,1.32.15A26.26,26.26,0,0,0,53.81,65.38Z"/><path class="cls-4" d="M63,134.34c-7.6-7.82-16.13-14-19.73-24.54-3.66-10.68-2.57-22.39-.68-33.3.18-1-1.57-1.46-1.92-.45-7.93,22.54-2.33,47.86,21.12,59.85A1,1,0,0,0,63,134.34Z"/><path class="cls-4" d="M101.49,72.05C82.67,65,71.36,49.17,65.05,31.59c-.14-.4-.87-.23-.77.19,1.25,5.08,2.09,9.67,4.4,14.48A58.17,58.17,0,0,0,76.94,59c6.21,7.18,14.34,12.8,24.17,14.38A.72.72,0,0,0,101.49,72.05Z"/><path class="cls-4" d="M129,28.81c-4.19.31-11.34,1.57-12.72,6.21s6.23,5.9,9.43,6.58c4.57,1,15.85,2.59,18.63-2.34,1.35-2.4-.5-5.14-3.23-3.49-.57.35,0,1.26.6,1,0,.59-.08,1.18-.13,1.77l-1.47.36a12.64,12.64,0,0,1-3.32.5,38.1,38.1,0,0,1-8.8-.15,18.71,18.71,0,0,1-4.53-.93,3.13,3.13,0,0,1-2.17-1.45q-2.66-1.14-.19-2.1c1.62-1.89,5.28-2.19,7.67-2.4a68.8,68.8,0,0,1,15.57.74c1.57.23,4.24.35,5.56,1.31L153,40.67l-2,2.39a13.41,13.41,0,0,1-4.91,2.21C127,50.72,107.28,43.93,90.08,36A.62.62,0,0,0,89.44,37c5.49,4.06,12.33,6.22,18.87,8.33s13.14,4.23,20.14,4.53c8.47.36,28.11-.48,28-12.15C156.28,27.38,135.8,28.31,129,28.81Z"/><path class="cls-4" d="M165.59,33.2c-.25-.61-1.4-.51-1.4.19,0,4.35,1.19,8.51-.82,12.68s-6.11,6.43-8.9,9.87a1,1,0,0,0,1.18,1.39C165.07,52.26,169.6,43,165.59,33.2Z"/><path class="cls-4" d="M205.17,173.14c-2.5-.71-4.5.22-7,.7a90.7,90.7,0,0,1-9,1.13,22.23,22.23,0,0,1-8.77-.78l-.93-.36c-4.31-1.83-8.12-4.42-12.05-6.86-.59-3-4.6-6-7.22-7.53-3.18-1.87-7.43-2.71-10.58-.37a.93.93,0,0,0-.38.79,72.27,72.27,0,0,0-11.71-1.15c-10.4-.22-23.1,2.26-32.9-1.81-2.67-1.1-5.11-2.93-6-5.67a13.91,13.91,0,0,1-.34-4.46,1.42,1.42,0,0,0,.29,0c3-.6,3.78-3.39,2.31-5.83-2-3.23-6.8-3.83-10.18-5-5.27-1.78-10.5-4.24-14.31-8.21s-7-10.64-6.14-16c.09-.57-.78-.65-.93-.12-1.13,4.14-1.76,6.73-.28,11a24.3,24.3,0,0,0,6.49,9.61,39.82,39.82,0,0,0,10.34,6.77c1.72.8,5.06,1.57,7.61,2.75,1.16,3.68-.11,7.34,1.26,11.16,1.25,3.47,4.31,6.05,7.74,7.59,9.32,4.19,21.32,2.67,31.3,2.63,6,0,12.09.18,17.92,1.66,5.49,1.4,10.18,4.11,14.81,7.14,1.74,1.15,3.57,2.3,5.46,3.39a.38.38,0,0,0,.38.46.3.3,0,0,0,.24-.1,52.8,52.8,0,0,0,11.9,5.16c-.35.08-.69.16-1,.22-4,.78-8.24.78-12.21,1.5-2.33-1.65-4.81-3.1-7.08-4.83s-4.39-4-6.76-5.76c-4.78-3.64-10.92-4.28-16.87-4.56-14.52-.69-28.59,4.16-42.64-1a.53.53,0,0,0-.56.9c9.27,8.6,25.26,3.2,36.6,3,8-.14,16.75,0,22.94,5.31,4.4,3.78,8.75,8,14.59,9.69a1.18,1.18,0,0,0,1-.16,7.66,7.66,0,0,0,2.35.47,42.25,42.25,0,0,0,7.61-.78c3.81-.56,9.07-.86,12.54-2.94h.07a1.75,1.75,0,0,0,1.56-1.24l0,0a.68.68,0,0,0,.07-.76,2.07,2.07,0,0,0-.94-1.74c4-.37,8-1.28,9.69-3.73A.74.74,0,0,0,205.17,173.14Z"/><path class="cls-5" d="M128.77,65.76c-3.57-2.67-9-3.5-13.37-4.51-6-1.4-12.18-2.47-17.58-5.47-.42-.24-.79.41-.42.68,7.7,5.65,16.47,6.4,25.47,9.09,11.17,3.34,9.69,17,10.54,25.87.06.72,1.21.67,1.32,0C136,83.53,136.17,71.3,128.77,65.76Z"/><path class="cls-5" d="M192.55,109.35A179.45,179.45,0,0,1,166,107c-8.71-1.57-20.75-2.51-25.43-10.42-.11-.18-.43-.13-.4.1,1.18,8.36,14.14,9.52,20.93,10.89,10.23,2.07,21.07,4,31.54,2.58A.41.41,0,0,0,192.55,109.35Z"/><path class="cls-5" d="M129.89,126.36c-3.93-3.41-7.23-7.35-8.63-12.29-1.32-4.66-.46-8.89.44-13.5,0-.27-.34-.32-.46-.11-5.14,8.88-.57,21.26,8.27,26.38A.31.31,0,0,0,129.89,126.36Z"/><path class="cls-5" d="M191.11,125.05a66.15,66.15,0,0,0-17.94-.47c-7.36.86-14.73,2.85-22.19,2.79-.2,0-.26.28,0,.3,10.47.73,20.6-2.44,31.13-2.06,10.84.39,26.15,2.42,29.36,14.06a.47.47,0,0,0,.93-.17C211.83,129.65,199.61,126.41,191.11,125.05Z"/><path class="cls-5" d="M218.26,141.36c-.11-.16-.4,0-.31.17,5,8.84.17,18.13-5.11,25.63-.18.26.2.54.42.29C219.88,160,224,150.34,218.26,141.36Z"/><path class="cls-5" d="M151.19,146.1c-6.7.72-13.59.83-19.65-2.35-5.59-2.93-8-7.28-9.87-12.75a.2.2,0,0,0-.37.05c-.3,5.51,4.3,10.6,9.06,13.3,6.26,3.54,14,3.93,20.93,2.36A.31.31,0,1,0,151.19,146.1Z"/><path class="cls-5" d="M109.6,125.42c-5.55.38-13.34,2.34-18.46-.38-5.62-3-8.2-10.42-8.58-16.1a.17.17,0,0,0-.31,0c-1.68,5.28,2.23,12.68,6.51,16.11,5.38,4.3,14.78,2.23,20.94,1A.3.3,0,1,0,109.6,125.42Z"/><path class="cls-5" d="M81.49,103.35c-.88-1.94-2.17-4.21-4.67-4.44-1.71-.15-3.64.77-5.36.93a13.41,13.41,0,0,1-10-3.1c-.13-.12-.3.09-.17.2a13.05,13.05,0,0,0,7.44,3.68,11.5,11.5,0,0,0,4.05-.19,20.56,20.56,0,0,1,2.07-.79c3.45-.44,4.9,1.07,6.32,3.84C81.25,103.68,81.58,103.56,81.49,103.35Z"/><path class="cls-5" d="M45.84,56.24c-.14-.15-.38,0-.26.19A40.92,40.92,0,0,1,52.8,73.24a.19.19,0,0,0,.37,0A29.67,29.67,0,0,0,45.84,56.24Z"/><path class="cls-5" d="M39.69,86.89c0-.21-.3-.25-.34,0a48.73,48.73,0,0,0,2,24.9c.06.18.36.06.3-.12A54.15,54.15,0,0,1,39.69,86.89Z"/><path class="cls-5" d="M87.71,163.19a11.67,11.67,0,0,1-12.2-7.77c-.91-2.4-1-5.21-3.63-6.63s-6.82-1.09-9.76-.89a39.76,39.76,0,0,0-12.73,3.31c-.22.09-.08.4.15.33a47.61,47.61,0,0,1,16.85-2.28c1,.05,2.87-.06,3.79.43,1.58.85,2.69,3.37,3.27,4.9A26,26,0,0,0,75.19,159c2.53,4.33,7.71,7.3,12.82,5.1C88.55,163.82,88.23,163.15,87.71,163.19Z"/><path class="cls-5" d="M183.4,159.56c-4.53-4.24-10.41-5.88-16.51-6.95-.67-.12-.85.87-.24,1.08,4.39,1.48,9.09,3,12.89,5.59a16.7,16.7,0,0,1,4.8,4.71c1.24,1.92,1.61,4.19,2.92,6a.23.23,0,0,0,.38-.05C189.4,166.45,186,162,183.4,159.56Z"/><path class="cls-5" d="M126.9,147.53a7.06,7.06,0,0,0-9.34,1.4c-.34.41.21.9.65.72,2-.79,5.49-2.32,7.5-.72,1.7,3.4,1.37,5.06-1,5a21.35,21.35,0,0,1-2.13.15,15.65,15.65,0,0,1-3.35-.23c-6-1.15-7.16-6-8.86-10.79a.24.24,0,0,0-.44.06c-.22,4,.89,8.39,4.45,10.87,3.05,2.13,9.55,3.09,13,1.29S129.46,149.3,126.9,147.53Z"/><path class="cls-6" d="M176.22,166.14c-4.28-5.95-12.66-12.24-20.38-13.37-5.64-.83-15.56-1.17-20.33,2.31a.24.24,0,0,0,.2.43c7.18-1.13,14.79-2.74,22-.58s11.83,8.06,17.79,11.95A.52.52,0,0,0,176.22,166.14Z"/><path class="cls-6" d="M186.41,131.67a69,69,0,0,0-30,2.89c-.37.13-.16.6.18.58,8.18-.5,15.9-2.86,24.22-2.61a43.86,43.86,0,0,1,11.51,1.78,24.88,24.88,0,0,1,5.42,2.21q4.8,2-.62,6.18c-2.71-.84-2.58-1.31.4-1.43.24.23.73,0,.55-.32-1.15-2.25-6.18-2-5.2.76.63,1.78,4.57,3,6.36,2.63a3.79,3.79,0,0,0,3.16-3.81C202.37,134.29,191.19,132.32,186.41,131.67Z"/><path class="cls-6" d="M202.93,149.85c1.08-3.47,3.43-6.49,2.26-10.16-.07-.22-.47-.16-.48.07-.12,5.79-4.42,10.72-4.59,16.72-.12,4,.73,8.23,4.28,10.7.31.22.77-.12.59-.45C202,161.15,201,156,202.93,149.85Z"/><path class="cls-6" d="M114.57,118.14c-4.42-2.56-5.8-5.38-7-10-.45-1.65-.88-3.36-2.37-4.49-3.33-2.51-9.89-1.17-13.43,0-.28.1-.13.48.14.46,2.23-.16,4.46-.5,6.69-.55,2.59-.06,2.86,0,5.13,1.83s2.23,1.86,2.77,4.14a23.65,23.65,0,0,0,.84,3.07c1.15,3,3.31,6,6.93,6.29A.47.47,0,0,0,114.57,118.14Z"/><path class="cls-6" d="M64.82,88c-3.48-7.56-5-16.47-5.17-24.65,0-.24-.42-.23-.44,0-1,9.07,1,16.7,5.19,24.82C64.52,88.44,64.94,88.28,64.82,88Z"/><path class="cls-6" d="M59.53,111.42c-3.86-4.68-7.19-9.46-9-15.22-2.13-6.91-1.08-13.28-1.08-20.28,0-.22-.34-.35-.43-.11-4.36,11.37-1.29,29.09,10,36.12C59.37,112.15,59.8,111.74,59.53,111.42Z"/><path class="cls-6" d="M115.1,142c-1.64-8.24-13.37-13.16-21.36-10.74-.24.07-.16.4.06.43,4.65.53,9,.28,13.28,2.57,3.47,1.88,5.48,4.71,7.32,7.94C114.59,142.56,115.18,142.43,115.1,142Z"/><path class="cls-6" d="M124.42,165c-4.66-.23-9.32,0-14,0s-13.15-1.6-14.63-6.63c0-.18-.34-.09-.33.08.35,4.29,5.89,6.44,9.81,7.3,5.91,1.31,13.16.46,19.14-.26A.24.24,0,0,0,124.42,165Z"/><path class="cls-6" d="M173.3,180.08c-7.91-1.63-10.77-9.94-18.41-11.71-.24-.05-.31.29-.11.38,6.39,3.05,10.58,12.27,18.53,11.81C173.62,180.54,173.56,180.13,173.3,180.08Z"/><path class="cls-6" d="M57.39,142.14a63.65,63.65,0,0,1-11.66-9c-3.72-3.67-4.94-7.71-5.88-12.56,0-.18-.35-.2-.35,0-.41,10.31,8.16,17.95,17.67,21.91C57.39,142.6,57.6,142.27,57.39,142.14Z"/><path class="cls-6" d="M89.09,151.57a10.85,10.85,0,0,0-3.22-6.92c-2.22-2-5.37-2.26-8.3-2.53a.18.18,0,1,0,0,.36c5.29.7,9.42,2.81,10.48,8.12a8.89,8.89,0,0,1,.11,2.91c-.42,2.88-1.42,3.56-4.06,3.93-2.07.83-3.67.17-4.78-2l3.23-5c1.81-.66,2.5,3.34,1.29,4.6-.22.22.11.6.39.46,3.27-1.68,1.36-6-2.13-5.82-5.29.3-4.32,7-.52,8.69C86.42,160.53,89.43,155.55,89.09,151.57Z"/><path class="cls-6" d="M83.47,71.8c-4.09-2.31-4.89,2.87-4.13,5.41a.33.33,0,0,0,.65-.1c-.21-2.46,1.9-5.31,4.23-2.81A8.16,8.16,0,0,1,86,78.16q2.28,5.09-7.2,3l-.89-1.09a15.57,15.57,0,0,1-2.53-4.33C73.24,71,73,65.93,71.5,61c-.07-.22-.49-.28-.49,0a35.45,35.45,0,0,0,5.31,18.48c1.94,2.93,6.83,7.33,10.12,3.2C88.76,79.76,86.64,73.58,83.47,71.8Z"/><path class="cls-7" d="M229,154.8c2.19-15-7.43-27.68-21.27-32.54-16.09-5.65-33.18-2.1-49.75-2.17a73,73,0,0,1-13.45-1.15c-4.36-.85-12.34-2.47-15-6.53s.29-8.55-1-12.87A14.64,14.64,0,0,0,123,92.25c-15.11-11-37.71,5.89-49.3-12.67C65.21,66,67.87,39.78,47,37.12A1,1,0,0,0,46.53,39C65,45.4,61.66,67.36,70.27,81.32c3.46,5.62,8.51,9.71,15,11.11,8,1.72,16.12-.55,24.21-.25,4.75.17,9.77,1.28,13.13,4.93,4.07,4.41.87,8.35,1.71,13.3,1.08,6.4,8.83,9.45,14.24,11.11,16,4.9,32.78,1,49.11,1.44,9,.23,18.45,1.47,26.13,6.43a25.82,25.82,0,0,1,11.76,25.16c-.27,2.19,3.09,2.4,3.41.25Z"/><path class="cls-7" d="M56.24,92.85c3.86,3.87,9.64,4.13,14.82,4.34,3.32.13,7,.06,9.87,1.89,4.83,3,2.91,8,3.32,12.7,1.11,12.65,17.28,11.43,26.18,11.9,3.85.21,7.87.86,11,3.21,3.39,2.51,2.88,5.49,4.38,8.9,1.79,4.09,6.62,5.24,10.65,5.65,8.17.83,16.44-.43,24.59-1,7.81-.5,18-1.27,24.4,4.15,8.63,7.28,4.59,29.84,20.39,29.37a1.21,1.21,0,0,0,.23-2.41c-13.83-3-9.49-22.23-19.34-29.67-10.26-7.74-26.11-4-37.82-3.25a69.82,69.82,0,0,1-12.85,0,12.49,12.49,0,0,1-5.06-1.39c-2.47-1.54-2.78-3.68-3.47-6.22-1.17-4.36-4.91-7.19-9-8.65-6.3-2.24-13-.89-19.54-1.69-3.5-.43-7.22-1.46-9.75-4-3.52-3.59-2-7.89-2.35-12.31-1.3-15-22.71-5.3-30.21-12.08-.36-.32-.78.25-.46.58Z"/><path class="cls-7" d="M196.53,179.39c-2.49-1.94-6-2-9-2.85a38.28,38.28,0,0,1-9.3-3.85c-5.56-3.44-8.45-9.58-14.35-12.68-12.57-6.62-27-2.24-40.39-2.37a42,42,0,0,1-11.8-1.55,30.86,30.86,0,0,1-5.71-2.34,14.13,14.13,0,0,1-2.48-1.48q-3.63-4-.55-6.44c1.6-3.89.79-7.05-3.24-9.17-2.46-1.29-5.32-1.67-7.91-2.68a32.12,32.12,0,0,1-10.16-6.36c-5.1-4.69-6.86-10.21-9.87-16.14-.54-1.08-2.43-.92-2.46.43-.23,11.37,11.61,21.73,21.3,25.5,1.79.7,4.38.87,6,1.86,8.15,5.14,2.65,3.71,1.66,6.37-.78,2.08-1.25,3.38-.29,5.57,2.48,5.65,11.07,8.23,16.45,9.35,15.57,3.25,32.86-5,47.64,2.61,6.42,3.29,9.64,10.18,16.14,13.55,4.51,2.34,13.12,5.64,18.18,4.07a.82.82,0,0,0,.16-1.4Z"/><path class="cls-7" d="M225.69,142.75c-.71,3.18.24,6.46-.27,9.71s-2.27,6.09-2.59,9.29a1,1,0,0,0,1.62.88c4.77-3.52,6.55-15.73,2.43-20.21a.68.68,0,0,0-1.19.33Z"/><path class="cls-7" d="M238.77,151.72c8.47-10.11,1.95-25.86-5.51-34.36a55.86,55.86,0,0,0-16.62-13.21c-6.28-3.07-13.24-3.6-20.12-3.85-7.56-.27-15.14-.54-22.61-1.91a68.45,68.45,0,0,1-10.81-2.82c-3.7-1.33-9.23-3.21-11.7-6.61s-1.07-8.84-1.46-13a16.88,16.88,0,0,0-2.85-8.08c-3.26-4.87-8.19-8-13.54-10.16-8-3.25-16.71-5-25-7.31-8.71-2.38-17.41-5.27-26.43-6.16a1.28,1.28,0,0,0-.57,2.46c8.68,4.08,18.21,6.14,27.42,8.69,8.67,2.41,18.34,4,26.33,8.35,4.12,2.23,8.16,5.64,9.3,10.39,1,4-.48,8.2.06,12.27.93,7,7,10.53,13,13.19a78.48,78.48,0,0,0,23.22,5.85c8.88,1,18.16.06,26.9,2s16.68,8.5,22.29,15.4a34.58,34.58,0,0,1,6.33,11.41c1.78,5.75.77,10.66-.38,16.43-.33,1.64,1.93,2,2.79,1Z"/></g></g></g><g id="PixelsASSETS"><g id="Espalda"><rect class="cls-8" width="275" height="259.5"/></g></g></g></g></svg>