<svg xmlns="http://www.w3.org/2000/svg" viewBox="0 0 160 195"><defs><style>.cls-1{isolation:isolate;}.cls-2{fill:#c2b6d5;}.cls-3{fill:none;mix-blend-mode:multiply;}</style></defs><g class="cls-1"><g id="Layer_2" data-name="Layer 2"><g id="Variación_B" data-name="Variación B"><g id="AssetsB3"><g id="HamA3"><path class="cls-2" d="M73.62,84.22c5.89-.36,7.16-10.09,6.77-14.53a23.33,23.33,0,0,0-9.46-16.41C66.1,50,58.89,51,53.66,52.86a18.2,18.2,0,0,0-11.2,12.45c-2.92,10.08,2,26.94,15.72,22.36a13.07,13.07,0,0,0,8.58-12.1c-.05-4.89-4.69-11.07-9.75-7.69a1.91,1.91,0,0,0,.12,3c1.39,1,3.88,2.13,4.63,3.64,1.28,2.54-1.16,5.81-3.15,7.08a7.27,7.27,0,0,1-10.83-3.68C45.56,72.29,47.12,64,52,60.19c2.89-2.26,6.79-2.94,10.37-2.83,4.18.12,7.09,2.74,9.19,6.26A17.76,17.76,0,0,1,74,74.26c-.3,3.25-2.41,6.12-1.48,9.34a1.09,1.09,0,0,0,1.12.62Z"/><path class="cls-2" d="M84.8,88.11c-1.49,5.38,7.13,8.84,11.12,9.67a22.42,22.42,0,0,0,18.23-4.52c5-4.3,6.09-12.11,5.39-18.3a18.24,18.24,0,0,0-9.89-14.15c-5-2.68-11.73-4.15-17.16-2.06-5.19,2-8.93,7.78-7.91,13.39.92,5.08,5.29,9.73,10.5,10.43,4.62.62,11.23-2.55,9.06-8A1.92,1.92,0,0,0,101.2,74c-1.45,1.37-4.52,3.76-6.52,3.58-2.79-.26-4.53-3.76-4.77-6.15-.46-4.68,3.11-7.9,7.55-8.1,7-.3,15,3.82,16.23,11.19,1.44,8.27-2.91,15.56-11.35,16.93a17.65,17.65,0,0,1-10-1.34c-2.29-1-4.1-3-6.71-2.59a1,1,0,0,0-.82.64Z"/><path class="cls-2" d="M81.43,92.79c-1.76-5.62-11.64-4.37-15.78-2.88a23.29,23.29,0,0,0-12.76,11.86c-2.76,5.88-.46,12.42,2.86,17.67a18.12,18.12,0,0,0,14.7,8.3c10.62.57,26.25-8.55,18.21-20.86a13.05,13.05,0,0,0-13.88-5.24c-4.72,1.3-9.46,7.34-4.93,11.38a1.91,1.91,0,0,0,2.87-.89c.55-1.5,1.07-4.46,2.35-5.4,2.32-1.71,5.78-.44,7.62,1.27a7.3,7.3,0,0,1-.84,11.44c-5.4,4-14.76,4.16-19.56-.87-5.49-5.75-5.41-13.78.35-19.15A17.64,17.64,0,0,1,71.77,95c3-.49,6.44.82,9.12-.78a1.09,1.09,0,0,0,.54-1.38Z"/></g></g></g><g id="PixelsASSETS"><g id="Pierna"><rect class="cls-3" width="160" height="195"/></g></g></g></g></svg>