<?xml version="1.0" encoding="utf-8"?>
<!-- Generator: Adobe Illustrator 26.0.0, SVG Export Plug-In . SVG Version: 6.00 Build 0)  -->
<svg version="1.1" id="Capa_1" xmlns="http://www.w3.org/2000/svg" xmlns:xlink="http://www.w3.org/1999/xlink" x="0px" y="0px"
	 viewBox="0 0 160 280" style="enable-background:new 0 0 160 280;" xml:space="preserve">
<style type="text/css">
	.st0{fill:#FFFFFF;stroke:#42210B;stroke-width:6;stroke-linecap:round;stroke-linejoin:round;}
</style>
<g>
	<g id="Capa_2_00000091715846688354593820000000017981190425389959_">
		<g id="AssetsE2">
			<g id="BeardE2">
				<path class="st0" d="M27,35.2c-0.2,3.1,0.2,10-1.7,14.1c-7.6,16.1-16.9,37.4-13.8,51s23.4,30.2,23.4,30.2l4.2-9.8
					c1.5,5.6,5,10.5,9.8,13.7c15,9.4,25.6,26.4,25.6,26.4l3.8,13.5c0,0,13.1-32.3,13.1-41.2s0.8-19.7,0.8-19.7s12.7,1.1,13.2,10
					l0.5,8.9c0,0,10.9,0.2,12.6-15.4c0.7-6.1-1-17-8.9-32.5C96.7,59.3,95.1,64,93.3,54c-0.9-5.4-4.2-22-6-31.2"/>
			</g>
		</g>
	</g>
</g>
</svg>
