<svg xmlns="http://www.w3.org/2000/svg" xmlns:xlink="http://www.w3.org/1999/xlink" viewBox="0 0 464 265"><defs><style>.cls-1{isolation:isolate;}.cls-2{fill:url(#Degradado_sin_nombre_7);}.cls-3{fill:#42210b;}.cls-4{fill:#fff;}.cls-5{fill:none;mix-blend-mode:multiply;opacity:0.4;}</style><radialGradient id="Degradado_sin_nombre_7" cx="358.28" cy="139.53" r="40.34" gradientTransform="translate(53.33 41.04) scale(0.86 0.78)" gradientUnits="userSpaceOnUse"><stop offset="0.05" stop-color="#e6e8ea"/><stop offset="0.13" stop-color="#dce4ea"/><stop offset="0.32" stop-color="#c9dde9"/><stop offset="0.53" stop-color="#bed8e9"/><stop offset="0.74" stop-color="#bad7e9"/><stop offset="1" stop-color="#afd3e8"/></radialGradient></defs><g class="cls-1"><g id="Layer_2" data-name="Layer 2"><g id="Variacion_C" data-name="Variacion C"><g id="AssetsW1"><g id="HornW1"><path class="cls-2" d="M377.28,161c-.07-.12-.13-.24-.19-.36a12.15,12.15,0,0,0-3.13-.53q-1.41-6.65-2.81-13.3a58.52,58.52,0,0,1-.26-6.62,72.52,72.52,0,0,1,4.8-8.93,16.82,16.82,0,0,0,3.73-3.09,6.7,6.7,0,0,0,3.47-.24,21.85,21.85,0,0,1,3.76-.88c5.46-.75,7.22-7.78,2.91-10.06a5.2,5.2,0,0,0-5.08-1.86c-1.14.18-2.26.4-3.36.65-2.81-.2-5.78-.31-8.73-.24-11.37-1-23.46,1.49-32.1,8.61a17.33,17.33,0,0,0-6.45,11.15c-2.54,4.72-2.92,10.83-2.75,16.11a31.51,31.51,0,0,0,.32,4.77,34.51,34.51,0,0,0,1.31,6.5,4.88,4.88,0,0,0-.45,4.09,22.61,22.61,0,0,0,6.06,9.51c.7,3.28,1.94,6.53,5.22,7.94a3.34,3.34,0,0,1,1.63-.37c.77,0,1.6,0,2.47,0a28.76,28.76,0,0,1,7.57-1.94,33.79,33.79,0,0,1,9.3.47c3.92-.08,7.59.3,10.41,1.75l.73-.08A74.25,74.25,0,0,1,389.53,177a5.91,5.91,0,0,0-.79-3.81C383.44,170.87,380.14,165.8,377.28,161Z"/><path class="cls-3" d="M400.41,123c-1-5-7.35-7.78-12.19-9.19a65,65,0,0,0-20.66-2.38c-13.3.56-26,5-34,15-7.8,9.76-9.46,22.36-7.14,34,1.16,5.81,3.06,12.15,6.46,17.23a21.54,21.54,0,0,0,5.44,5.67,18.32,18.32,0,0,0,3.78,2.27c.9.35,2.34.35,3.07.93.39.31,1-.13.78-.54-.64-1.42-.15-2.53-1.25-3.94-1.5-1.89-3.74-3.18-5.2-5.15-3.25-4.39-5-10-6.25-15.15-2.34-9.54-1.85-19.92,3.46-28.61,5.75-9.4,16-14.31,27.58-15.42a61.4,61.4,0,0,1,17.8.87,34.29,34.29,0,0,1,8,2.35,10.19,10.19,0,0,1,1.72,1,32.31,32.31,0,0,0-16.15,6.35c-6.63,5.12-8.27,12.26-7.26,19.85a37.69,37.69,0,0,0,9.21,19.62c3.57,4.08,12.37,12.62,18.68,10.23a2.38,2.38,0,0,0,1.38-2.69c-.94-2.77-3.25-3.26-5.77-4.72a35.83,35.83,0,0,1-7.42-5.75,33.07,33.07,0,0,1-8.67-14.45c-1.66-6-1.78-12.46,3.27-17.1,5.53-5.08,12-5.85,19.4-6.79a2.12,2.12,0,0,0,1.84-2.13A2.45,2.45,0,0,0,400.41,123Z"/><path class="cls-4" d="M363.2,147.92c.5-8.87,5.49-15.74,10-22.95,0,0,0,0,0,0-7.49,3.84-11.52,14.9-12.33,22.81-.91,8.82,4.31,18.22,10.78,23.93a.83.83,0,0,0,1.29-1C368.82,163.05,362.66,157.34,363.2,147.92Z"/></g></g></g><g id="Layer_94" data-name="Layer 94"><g id="Cuerno"><rect class="cls-5" width="464" height="265"/></g></g></g></g></svg>