<svg xmlns="http://www.w3.org/2000/svg" xmlns:xlink="http://www.w3.org/1999/xlink" viewBox="0 0 464 265"><defs><style>.cls-1{isolation:isolate;}.cls-2{fill:url(#Degradado_sin_nombre_7);}.cls-3{fill:#42210b;}.cls-4{fill:none;mix-blend-mode:multiply;opacity:0.4;}</style><radialGradient id="Degradado_sin_nombre_7" cx="360.99" cy="134.44" r="44.99" gradientTransform="translate(-14.59 5.83) scale(1.03 0.97)" gradientUnits="userSpaceOnUse"><stop offset="0.05" stop-color="#e6e8ea"/><stop offset="0.13" stop-color="#dce4ea"/><stop offset="0.32" stop-color="#c9dde9"/><stop offset="0.53" stop-color="#bed8e9"/><stop offset="0.74" stop-color="#bad7e9"/><stop offset="1" stop-color="#afd3e8"/></radialGradient></defs><g class="cls-1"><g id="Layer_2" data-name="Layer 2"><g id="Variacion_B" data-name="Variacion B"><g id="AssetsW1"><g id="HornW1"><path class="cls-2" d="M396.79,159.42a10.08,10.08,0,0,0-6.24-8.13,22.94,22.94,0,0,0-3.39-1.17,8,8,0,0,0-2.43-.91,23.58,23.58,0,0,0-14.9-5.42,19.93,19.93,0,0,0-5.52.75,10.88,10.88,0,0,0-5.5-7.46,34.64,34.64,0,0,0-2.62-5.09l.12-.51c3.57-9.67,1.59-24.39-7.06-30.88a13.25,13.25,0,0,0-3.95-2l-.89-1.06c-2.12-2.51-5.47-3.93-8.35-3.37-1.57-1.82-3.09-3.43-4.3-4.68-3.48-3.6-8.72,1.4-5.71,5.09.46.56,1.34,1.65,2.38,3a4,4,0,0,0-.07,1,30,30,0,0,0,3.76,13.24,6.6,6.6,0,0,0-3.42,4.07,65,65,0,0,0-1.87,8.55,8.94,8.94,0,0,0-4.44,2,14.2,14.2,0,0,0-4.74,12.77,20.64,20.64,0,0,0-.45,6.9c.3,3.8,4,6.19,7.63,5.8a2.25,2.25,0,0,1,.05.22c1,3.91,5.3,4.82,8.72,3.6a12,12,0,0,0,5.61,3.75,10.63,10.63,0,0,0,2.65,1.92c.39,4.93,2.63,9.46,6.8,11a.52.52,0,0,0,.11.1,5.26,5.26,0,0,0,.76,5.67l1.84,2.16c.09.11.19.21.29.31,6.72-.61,14-.64,20.42,1.42a43.84,43.84,0,0,1,4.36.91l.43-.1a54.79,54.79,0,0,1,19-11c.89-.77,1.76-1.56,2.62-2.35C401.64,166.59,400.14,161.56,396.79,159.42Z"/><path class="cls-3" d="M345.79,185.17c5-.8,7-6.09,6.75-10.63-.29-5.53-3.73-10.2-8-13.46-7.06-5.41-31.24-10.63-24.12-23.61,2.87-5.24,7.77-9.08,10.66-14.33a27.64,27.64,0,0,0,2.95-18.34,30,30,0,0,0-8.43-15.67c-3.8-3.65-10.13-7.54-15.09-4.06A2.28,2.28,0,0,0,310,87.8c2.23,4,7.46,4.83,10.45,8.24a20.54,20.54,0,0,1,5,16.78c-1.89,10.56-13.44,16-15.14,26.67-1.66,10.45,7.13,17.84,15.62,21.93,5,2.42,11.05,4.23,15.16,8.17s3.8,8.54,2.65,13.66c-.26,1.17,1.06,2.08,2.08,1.92Z"/><path class="cls-3" d="M308.88,88.09c11.21,3.09,22.71,2.81,32.89,9.27a25.38,25.38,0,0,1,11.47,16c1.43,5.83.88,11.76,1.85,17.62.77,4.67,2.91,9.19,6.83,12,5.26,3.79,11.61,3.36,17.64,4.73,7.81,1.78,19.35,11.46,17.25,20.52-1.3,5.56,7.54,7.82,8.42,2.36,1.77-10.9-5.42-21-14.13-26.89-5.23-3.53-10.61-4.26-16.72-5-4.16-.52-8.35-1.22-10.49-5.22-1.48-2.77-1.85-6.21-2.21-9.27-1.62-13.53-4.24-25.52-17-32.8-10-5.72-24-8.94-35.48-7.11-1.87.3-2.28,3.31-.34,3.85Z"/></g></g></g><g id="Layer_94" data-name="Layer 94"><g id="Cuerno"><rect class="cls-4" width="464" height="265"/></g></g></g></g></svg>