<svg xmlns="http://www.w3.org/2000/svg" viewBox="0 0 275 259.5"><defs><style>.cls-1{isolation:isolate;}.cls-2{fill:#c7b299;stroke:#42210b;stroke-linejoin:round;stroke-width:7px;}.cls-2,.cls-4,.cls-5{stroke-linecap:round;}.cls-3{fill:#a67c52;}.cls-4,.cls-7{fill:none;}.cls-4{stroke:#754c24;stroke-width:5.14px;}.cls-4,.cls-5{stroke-miterlimit:10;}.cls-5{fill:#f15a24;stroke:#c1272d;stroke-width:2.83px;}.cls-6{fill:#f7931e;}.cls-7{mix-blend-mode:multiply;opacity:0.4;}</style></defs><g class="cls-1"><g id="Layer_2" data-name="Layer 2"><g id="Variacion_A" data-name="Variacion A"><g id="AssetsW1"><g id="LoinW1"><path class="cls-2" d="M43.1,175.49c2,4.15,7.6,6.66,10.06,7.78,6,2.74,16.85,1.43,23.47,3.62,10.91,3.62,23.42,5.13,34.88,6.23s24,2.53,27.51,3,50.41,1.61,56.59-3.77S207,177,208.08,169.78A140.83,140.83,0,0,1,213,149.57c.86-2.79,12.19,3.83,10.87,1.35,0,0-31.92-29.15-45.22-31.94S167,116.19,167,116.19s-21.49-11-33.08-11.07-15.13,4.46-15.13,4.46-16.06-7.1-29.62-4.51S69.8,115.83,69.8,115.83s-16.44,4.54-22,10.16-6.16,15.72-6.16,15.72-3.42,5.5-3.54,8.13C37.34,167.68,40.93,171,43.1,175.49Z"/><path class="cls-3" d="M84.34,160.71s16.45,2.39,25.49,4.15a121.6,121.6,0,0,0,16.1,2.07s-.12-13.09.37-18.09,1.72-7.58.91-9-15.46-8.29-16.57-9.12-7.72-1.07-7.87-.14,11.52,6.08,12.74,9.49S116.1,153,107.89,156s-21.11,1.39-21.11,1.39Z"/><path class="cls-3" d="M128.61,168s16.18,3.4,23.47,4.15a32.7,32.7,0,0,0,13.42-1.56s-5.63-21.28-5.41-23.28-21.41-6.75-21.41-6.75,16,7.52,16.8,9.34-2.08,12.47-5,13.69-22.07-4.23-22.07-4.23Z"/><path class="cls-3" d="M168.59,164.07l3.13,9.33s11.26,2.79,17-1.42,10.08-8.07,10.47-9.83S181.1,139.7,181.1,139.7l-13.54,5.16s7.75-.49,10.09.07,10.64,6.36,11.48,8.54-4,7.58-7.74,8.52-14.7-1.4-14.7-1.4Z"/><path class="cls-3" d="M185.29,125.47l-.86,10s1-4.68,5.12-2.88,9.42,6.35,10,9.77-1.18,11-1.18,11l2.79,5.31,2.54-6.31L206.41,140s-6.08-4.76-10.42-9.08S185.29,125.47,185.29,125.47Z"/><path class="cls-3" d="M74.34,118s13.14,3.47,17.34,6.23l4.2,2.76s-9.79,26.32-10.57,25.73-1.76,7.76-12.37,6.4c-20.12-2.6-27.5-16.95-27.5-16.95s.09-6.6,2.8-9.91,4.31-4,4.31-4,6,11,13.83,11.51,14,2.26,17.52-4S74.34,118,74.34,118Z"/><path class="cls-3" d="M98.64,126.11s.68-2.47,7.31-7a62.68,62.68,0,0,1,12.5-6.59L111.86,111s-8.61,9.61-14.45,8.23-21.14-3.84-21.14-3.84,13.13,4.43,17.28,6.22S98.64,126.11,98.64,126.11Z"/><path class="cls-3" d="M105,127.63s6.94,1.3,13.73,3.28a41.42,41.42,0,0,1,12.1,6l-2.16-22-7.19-1.72s6.92,6.3,3.84,8.07-14.7,1-14.7,1Z"/><path class="cls-3" d="M133.15,115.36s7.55,2.92,13,3.1,7.84.35,7.84.35l5.5,25s-17.17-4.6-19.86-4.75a21.77,21.77,0,0,1-5.81-1.38l-.22-9.29s14.08,9,16,4.95.76-10.55-3.74-11.79-12.94-3.61-12.94-3.61Z"/><path class="cls-3" d="M157.06,119.54l7.38,22.28s9.6-2.58,11.23-4.89-3.17-9.62-5.29-10.93a26.36,26.36,0,0,0-3.46-1.88s4,9.43.65,8.19S157.06,119.54,157.06,119.54Z"/><path class="cls-3" d="M169.21,120.4l13.6,3.25L180.3,132s-.22-2.92-3.93-5.41A48.6,48.6,0,0,1,169.21,120.4Z"/><path class="cls-3" d="M133.4,113.06a61.06,61.06,0,0,0,10.3,1.25c6.41.3,8.41-.45,8.41-.45s-7.33-3.39-10.14-4.06a48.89,48.89,0,0,0-8.15-.73Z"/><path class="cls-4" d="M48.56,145.92s2.64,9.88,16.91,14.49c5.27,1.7,9.4,3.06,12.52,4.1a51.48,51.48,0,0,0,13.53,2.6A56.34,56.34,0,0,1,106.84,170a33.92,33.92,0,0,0,15,1.73,12.72,12.72,0,0,1,8.66,2c2.62,1.77,7.69,3.49,17.52,3.27l19.67-.45s16.57,2.33,23.83-2.2,8.14-7.44,8.14-7.44"/><path class="cls-3" d="M42.87,153.28c-1.38-.43-2.85.45-2.65,1.59.45,2.53,1.08,6.11,1.2,6.88.19,1.21,4.84,6,4.57,6.36s4.47-2.32,7.66-4.09a1.69,1.69,0,0,0,0-3.13,40.36,40.36,0,0,1-5.54-3.43c-2-1.62-3.6-3-4.28-3.66a2.42,2.42,0,0,0-.93-.52Z"/><path class="cls-3" d="M50.14,169s-2.92,1.74-2.68,2.07a33.89,33.89,0,0,0,5.18,4.84,12,12,0,0,0,8.26,3s6.61-11,5.36-10.86-3.81,4.12-8.63,2.94-4.14-4.08-4.14-4.08Z"/><path class="cls-3" d="M65.55,174.89l-.1,5.05a41.88,41.88,0,0,0,9.32,2c4.26.28,9.93,1.9,10.9,1.42s-.5-10.13-.5-10.13a19.81,19.81,0,0,1-6.08,3.13c-3.11.82-5.81,1.52-7.89.44s-4.67-2.85-5.09-2.72S65.55,174.89,65.55,174.89Z"/><path class="cls-3" d="M90.93,179.12c-1.13.41-3.13.58-2.1,2.26s2.28,4.37,3.87,4,10.77.49,12.46.48,2.61-4.5,1.24-7.69-1.08-4.34-3.83-3.92-7.12.56-7.12.56,7.6,2.18,6.09,3S90.93,179.12,90.93,179.12Z"/><path class="cls-3" d="M111.41,178.4a38.53,38.53,0,0,0-1.38,5.23c-.17,1.6-2.43,2.13.55,2.51s9.12,1.51,13.15,2,9.22,4.28,9.29,2.22-2.32-13.46-2.72-13.06-6-2.67-6-2.67,1.26,6.87-1.77,6.39S111.41,178.4,111.41,178.4Z"/><path class="cls-3" d="M134.73,184.56s-.45,7,.9,7.49,11.42.88,12.09,1.22,2.09-12.62,1.83-12.58-2,4.39-6.17,4.49A54.71,54.71,0,0,1,134.73,184.56Z"/><path class="cls-3" d="M151.79,186.67s-1.8,5.6-.61,5.72,8.6-1.84,12.82-.8,6.08-4.64,4.6-7.87-1.62-5.2-2.3-4-4.63,9.1-7.75,7.83-7.07-3-7.07-3Z"/><path class="cls-3" d="M171.87,184.5s-.53,6,.41,6.22a88.2,88.2,0,0,0,9.69.67c3.69.07,4.5,1.5,4.76-.9s-2.72-10.58-3-10.58-3.71,6.07-4.9,5.61A57.57,57.57,0,0,0,171.87,184.5Z"/><path class="cls-3" d="M188.27,185.13s1.43,4.6,1.42,4.72,1.53.48,4-3.42,5.07-10.25,5.26-11.84-4.65,3-5.17,3.47-1.93,4.66-2.48,5.34A12.36,12.36,0,0,1,188.27,185.13Z"/><path class="cls-5" d="M106.52,84.3c1.48-1.15,3-2.5,4.65-3.94,8-7.19,17.37-16.71,23.26-12,8.49,7.07-9.19,23.33-2.12,32.52,2.83,3.54,13.43.71,20.88.08,2.28,0,4.44,0,6.31.17a16.76,16.76,0,0,1,4.58.91c6.76,2.73,10.2,6.19-3.54,11.88s-27.9,10.19-27.9,10.19,6.47,42.71-1.7,40.32-24.79-28.75-29.73-30.32-30.42,13.06-35,5.3c-1.52-2.59-.37-5.87,1.84-9.11a37.83,37.83,0,0,1,3.9-4.72c18.65-9.85,6.63-24.7-.44-38.13a3.12,3.12,0,0,1,.71-3.54c10.61-3.53,18.38,12.73,28.55,5Z"/><path class="cls-6" d="M77.88,132.34a2.48,2.48,0,1,0-2.48,2.47A2.47,2.47,0,0,0,77.88,132.34Z"/><path class="cls-6" d="M130.31,74.77A3.3,3.3,0,0,0,126,72.6c-1.41.71-.71,3.54,1.69,4.33A2.39,2.39,0,0,0,130.31,74.77Z"/><path class="cls-6" d="M158.47,107.6a2.48,2.48,0,1,0-2.47,2.47A2.48,2.48,0,0,0,158.47,107.6Z"/><path class="cls-6" d="M130.19,152.84a2.48,2.48,0,1,0-2.47,2.48A2.48,2.48,0,0,0,130.19,152.84Z"/><path class="cls-6" d="M88.48,126a3.89,3.89,0,1,0-3.89,3.89A3.89,3.89,0,0,0,88.48,126Z"/><path class="cls-6" d="M88.11,93.73a2.92,2.92,0,0,0-3.37-3,4.16,4.16,0,0,0-3.59,3.75,2.93,2.93,0,0,0,3.34,3A4,4,0,0,0,88.11,93.73Z"/><path class="cls-6" d="M124.56,85.61c-.73-3.11-5.68-5.94-7.8-2.4-.71,2.82,0,5.65,3.56,5.87A4,4,0,0,0,124.56,85.61Z"/><path class="cls-6" d="M146.45,111.13a3.89,3.89,0,1,0-3.89,3.89A3.89,3.89,0,0,0,146.45,111.13Z"/><path class="cls-6" d="M126.66,142.24a3.89,3.89,0,1,0-3.89,3.89A3.89,3.89,0,0,0,126.66,142.24Z"/><path class="cls-6" d="M99.09,118.2a4.6,4.6,0,1,0-4.6,4.6A4.6,4.6,0,0,0,99.09,118.2Z"/><path class="cls-6" d="M97.72,100a3.87,3.87,0,0,0-4.25-4,4.89,4.89,0,0,0-4.34,4.51,3.91,3.91,0,0,0,4.17,4A4.56,4.56,0,0,0,97.72,100Z"/><path class="cls-6" d="M117.48,97.69a4.52,4.52,0,0,0-4.57-4.6,4.6,4.6,0,1,0,4.57,4.6Z"/><path class="cls-6" d="M122.42,129.51a4.6,4.6,0,1,0-4.6,4.6A4.59,4.59,0,0,0,122.42,129.51Z"/><path class="cls-6" d="M132.31,114a4.6,4.6,0,1,0-4.59,4.59A4.59,4.59,0,0,0,132.31,114Z"/></g></g></g><g id="Layer_94" data-name="Layer 94"><g id="Espalda"><rect class="cls-7" width="275" height="259.5"/></g></g></g></g></svg>