<svg xmlns="http://www.w3.org/2000/svg" xmlns:xlink="http://www.w3.org/1999/xlink" viewBox="0 0 160 195"><defs><style>.cls-1{isolation:isolate;}.cls-10,.cls-11,.cls-12,.cls-13,.cls-14,.cls-15,.cls-16,.cls-17,.cls-18,.cls-19,.cls-2,.cls-20,.cls-21,.cls-22,.cls-23,.cls-24,.cls-25,.cls-26,.cls-3,.cls-4,.cls-5,.cls-6,.cls-7,.cls-8,.cls-9{stroke:#96c3e9;stroke-linecap:round;stroke-miterlimit:10;}.cls-10,.cls-11,.cls-12,.cls-13,.cls-14,.cls-15,.cls-16,.cls-17,.cls-18,.cls-19,.cls-2,.cls-20,.cls-21,.cls-22,.cls-24,.cls-25,.cls-26,.cls-3,.cls-4,.cls-5,.cls-6,.cls-7,.cls-8,.cls-9{stroke-width:3.3px;}.cls-2{fill:url(#Nueva_muestra_de_degradado_7);}.cls-3{fill:url(#Nueva_muestra_de_degradado_7-2);}.cls-4{fill:url(#Nueva_muestra_de_degradado_7-3);}.cls-5{fill:url(#Nueva_muestra_de_degradado_7-4);}.cls-6{fill:url(#Nueva_muestra_de_degradado_7-5);}.cls-7{fill:url(#Nueva_muestra_de_degradado_7-6);}.cls-8{fill:url(#Nueva_muestra_de_degradado_7-7);}.cls-9{fill:url(#Nueva_muestra_de_degradado_7-8);}.cls-10{fill:url(#Nueva_muestra_de_degradado_7-9);}.cls-11{fill:url(#Nueva_muestra_de_degradado_7-10);}.cls-12{fill:url(#Nueva_muestra_de_degradado_7-11);}.cls-13{fill:url(#Nueva_muestra_de_degradado_7-12);}.cls-14{fill:url(#Nueva_muestra_de_degradado_7-13);}.cls-15{fill:url(#Nueva_muestra_de_degradado_7-14);}.cls-16{fill:url(#Nueva_muestra_de_degradado_7-15);}.cls-17{fill:url(#Nueva_muestra_de_degradado_7-16);}.cls-18{fill:url(#Nueva_muestra_de_degradado_7-17);}.cls-19{fill:url(#Nueva_muestra_de_degradado_7-18);}.cls-20{fill:url(#Nueva_muestra_de_degradado_7-19);}.cls-21{fill:url(#Nueva_muestra_de_degradado_7-20);}.cls-22{fill:url(#Nueva_muestra_de_degradado_7-21);}.cls-23{stroke-width:3.14px;fill:url(#Nueva_muestra_de_degradado_7-22);}.cls-24{fill:url(#Nueva_muestra_de_degradado_7-23);}.cls-25{fill:url(#Nueva_muestra_de_degradado_7-24);}.cls-26,.cls-27{fill:none;}.cls-27{mix-blend-mode:multiply;opacity:0.4;}</style><radialGradient id="Nueva_muestra_de_degradado_7" cx="46.82" cy="110.88" r="10.36" gradientTransform="translate(0 -5.55) scale(1 0.93)" gradientUnits="userSpaceOnUse"><stop offset="0.05" stop-color="#e6e8ea"/><stop offset="0.13" stop-color="#dce4ea"/><stop offset="0.32" stop-color="#c9dde9"/><stop offset="0.53" stop-color="#bed8e9"/><stop offset="0.74" stop-color="#bad7e9"/><stop offset="1" stop-color="#afd3e8"/></radialGradient><radialGradient id="Nueva_muestra_de_degradado_7-2" cx="48" cy="131.41" r="10.36" xlink:href="#Nueva_muestra_de_degradado_7"/><radialGradient id="Nueva_muestra_de_degradado_7-3" cx="55.14" cy="97.4" r="10.36" xlink:href="#Nueva_muestra_de_degradado_7"/><radialGradient id="Nueva_muestra_de_degradado_7-4" cx="57.59" cy="120.87" r="10.36" xlink:href="#Nueva_muestra_de_degradado_7"/><radialGradient id="Nueva_muestra_de_degradado_7-5" cx="62.92" cy="85.49" r="10.36" xlink:href="#Nueva_muestra_de_degradado_7"/><radialGradient id="Nueva_muestra_de_degradado_7-6" cx="65.85" cy="108.95" r="10.36" xlink:href="#Nueva_muestra_de_degradado_7"/><radialGradient id="Nueva_muestra_de_degradado_7-7" cx="60.96" cy="147.45" r="10.36" xlink:href="#Nueva_muestra_de_degradado_7"/><radialGradient id="Nueva_muestra_de_degradado_7-8" cx="68.3" cy="132.42" r="10.36" xlink:href="#Nueva_muestra_de_degradado_7"/><radialGradient id="Nueva_muestra_de_degradado_7-9" cx="71.23" cy="155.89" r="10.36" xlink:href="#Nueva_muestra_de_degradado_7"/><radialGradient id="Nueva_muestra_de_degradado_7-10" cx="75.63" cy="96.03" r="10.36" xlink:href="#Nueva_muestra_de_degradado_7"/><radialGradient id="Nueva_muestra_de_degradado_7-11" cx="78.56" cy="119.5" r="10.36" xlink:href="#Nueva_muestra_de_degradado_7"/><radialGradient id="Nueva_muestra_de_degradado_7-12" cx="81.01" cy="142.97" r="10.36" xlink:href="#Nueva_muestra_de_degradado_7"/><radialGradient id="Nueva_muestra_de_degradado_7-13" cx="83.94" cy="166.44" r="10.36" xlink:href="#Nueva_muestra_de_degradado_7"/><radialGradient id="Nueva_muestra_de_degradado_7-14" cx="85.41" cy="84.43" r="10.36" xlink:href="#Nueva_muestra_de_degradado_7"/><radialGradient id="Nueva_muestra_de_degradado_7-15" cx="88.34" cy="107.9" r="10.36" xlink:href="#Nueva_muestra_de_degradado_7"/><radialGradient id="Nueva_muestra_de_degradado_7-16" cx="90.79" cy="131.37" r="10.36" xlink:href="#Nueva_muestra_de_degradado_7"/><radialGradient id="Nueva_muestra_de_degradado_7-17" cx="93.72" cy="154.83" r="10.36" xlink:href="#Nueva_muestra_de_degradado_7"/><radialGradient id="Nueva_muestra_de_degradado_7-18" cx="99.59" cy="92.87" r="10.36" xlink:href="#Nueva_muestra_de_degradado_7"/><radialGradient id="Nueva_muestra_de_degradado_7-19" cx="102.52" cy="116.34" r="10.36" xlink:href="#Nueva_muestra_de_degradado_7"/><radialGradient id="Nueva_muestra_de_degradado_7-20" cx="104.96" cy="139.8" r="10.36" xlink:href="#Nueva_muestra_de_degradado_7"/><radialGradient id="Nueva_muestra_de_degradado_7-21" cx="107.9" cy="163.27" r="10.36" xlink:href="#Nueva_muestra_de_degradado_7"/><radialGradient id="Nueva_muestra_de_degradado_7-22" cx="114.74" cy="95.09" r="10.36" gradientTransform="translate(0 -8.49) scale(1 0.84)" xlink:href="#Nueva_muestra_de_degradado_7"/><radialGradient id="Nueva_muestra_de_degradado_7-23" cx="117.68" cy="105.79" r="10.36" xlink:href="#Nueva_muestra_de_degradado_7"/><radialGradient id="Nueva_muestra_de_degradado_7-24" cx="120.12" cy="129.26" r="10.36" xlink:href="#Nueva_muestra_de_degradado_7"/></defs><g class="cls-1"><g id="Layer_2" data-name="Layer 2"><g id="Variacion_A" data-name="Variacion A"><g id="AssetsW1"><g id="HamW1"><path class="cls-2" d="M52.65,86.37S35.4,90.51,38.4,98.64s17.18,9.49,17.18,9.49"/><path class="cls-3" d="M53.84,105.4s-17.25,4.14-14.25,12.27,17.18,9.49,17.18,9.49"/><path class="cls-4" d="M61,73.88S43.73,78,46.73,86.15s17.18,9.48,17.18,9.48"/><path class="cls-5" d="M63.42,95.63S46.18,99.77,49.17,107.9s17.18,9.49,17.18,9.49"/><path class="cls-6" d="M68.75,62.83S51.51,67,54.5,75.1s17.18,9.48,17.18,9.48"/><path class="cls-7" d="M71.68,84.58S54.44,88.72,57.44,96.85s17.17,9.49,17.17,9.49"/><path class="cls-8" d="M69.73,142s-14.18-1.36-17.18-9.49,14.24-12.26,14.24-12.26"/><path class="cls-9" d="M74.13,106.34s-17.25,4.14-14.25,12.27,17.18,9.49,17.18,9.49"/><path class="cls-10" d="M77.06,128.1s-17.24,4.14-14.24,12.27S80,149.86,80,149.86"/><path class="cls-11" d="M81.46,72.6S64.22,76.75,67.22,84.87s17.17,9.49,17.17,9.49"/><path class="cls-12" d="M84.39,94.36S67.15,98.5,70.15,106.63s17.18,9.49,17.18,9.49"/><path class="cls-13" d="M86.84,116.12s-17.24,4.14-14.25,12.27,17.18,9.49,17.18,9.49"/><path class="cls-14" d="M89.77,137.88S72.53,142,75.53,150.15s17.17,9.48,17.17,9.48"/><path class="cls-15" d="M91.24,61.85S74,66,77,74.12s17.18,9.49,17.18,9.49"/><path class="cls-16" d="M94.17,83.61S76.93,87.75,79.93,95.87s17.17,9.49,17.17,9.49"/><path class="cls-17" d="M96.62,105.36s-17.25,4.14-14.25,12.27,17.18,9.49,17.18,9.49"/><path class="cls-18" d="M99.55,127.12s-17.24,4.14-14.24,12.27,17.17,9.49,17.17,9.49"/><path class="cls-19" d="M105.42,69.67S88.17,73.81,91.17,81.94s17.18,9.49,17.18,9.49"/><path class="cls-20" d="M108.35,91.43S91.11,95.57,94.11,103.7s17.17,9.49,17.17,9.49"/><path class="cls-21" d="M110.8,113.19s-17.25,4.14-14.25,12.26,17.18,9.49,17.18,9.49"/><path class="cls-22" d="M113.73,134.94s-17.24,4.14-14.25,12.27,17.18,9.49,17.18,9.49"/><path class="cls-23" d="M120.57,61.85S103.33,65.62,106.33,73s17.18,8.64,17.18,8.64"/><path class="cls-24" d="M123.51,81.65s-17.25,4.14-14.25,12.27,17.18,9.49,17.18,9.49"/><path class="cls-25" d="M126,103.41s-17.24,4.14-14.24,12.27,17.18,9.48,17.18,9.48"/><path class="cls-26" d="M128.89,125.16s-17.25,4.15-14.25,12.27,17.18,9.49,17.18,9.49"/></g></g></g><g id="Layer_94" data-name="Layer 94"><g id="Pierna"><rect class="cls-27" width="160" height="195"/></g></g></g></g></svg>