<svg xmlns="http://www.w3.org/2000/svg" viewBox="0 0 160 195"><defs><style>.cls-1{isolation:isolate;}.cls-2,.cls-3,.cls-4,.cls-6{fill:none;}.cls-2,.cls-3,.cls-4{stroke:#96c3e9;stroke-miterlimit:10;}.cls-2{stroke-width:3px;}.cls-3{stroke-width:2px;}.cls-5{fill:#96c3e9;}.cls-6{mix-blend-mode:multiply;opacity:0.4;}</style></defs><g class="cls-1"><g id="Layer_2" data-name="Layer 2"><g id="Variacion_B" data-name="Variacion B"><g id="AssetsW1"><g id="HamW1"><circle class="cls-2" cx="59.64" cy="127.74" r="7.36"/><ellipse class="cls-2" cx="77.41" cy="103.52" rx="11.62" ry="12.61"/><circle class="cls-3" cx="93.41" cy="79.1" r="3.44"/><path class="cls-2" d="M105.3,112.75a3.38,3.38,0,1,1-3.38-3.38A3.38,3.38,0,0,1,105.3,112.75Z"/><path class="cls-4" d="M93.66,92.63a1.72,1.72,0,1,1-1.72-1.72A1.72,1.72,0,0,1,93.66,92.63Z"/><path class="cls-3" d="M63.59,86.11a2,2,0,1,1-2-2A2,2,0,0,1,63.59,86.11Z"/><circle class="cls-3" cx="54.04" cy="106.88" r="4.75"/><circle class="cls-3" cx="76.1" cy="69.2" r="1.31"/><path class="cls-3" d="M114.52,88.42a1.63,1.63,0,1,1-1.62-1.62A1.62,1.62,0,0,1,114.52,88.42Z"/><circle class="cls-3" cx="87.04" cy="129.74" r="2"/><circle class="cls-3" cx="78.83" cy="83.37" r="2.74"/><circle class="cls-4" cx="90.22" cy="61.07" r="2.81"/><path class="cls-5" d="M84.09,105.36a1.56,1.56,0,0,0-2.26-.23A12.73,12.73,0,0,0,80.48,107a7.2,7.2,0,0,1-1.69,1.66c-.72.45-1.49.74-2.21,1.2-1.37.89-.52,3.34,1,3.36a6.83,6.83,0,0,0,5.08-2.68C83.73,109.39,85.21,106.82,84.09,105.36Z"/><path class="cls-5" d="M59.09,130.61c-.81-.59-1.85-.64-2.55-1.46s-.53-2.09-.78-3.17a.22.22,0,0,0-.35-.14c-2.36,1.83.94,7,3.61,5.7A.55.55,0,0,0,59.09,130.61Z"/><path class="cls-5" d="M53.41,108.34a2.54,2.54,0,0,1-1.22-1.51c0-.29.06-1.24-.46-1.18-.8.09-.52,1.43-.34,1.9a2.41,2.41,0,0,0,1.71,1.61C53.57,109.24,53.74,108.6,53.41,108.34Z"/><path class="cls-5" d="M83.23,97.93a2.76,2.76,0,0,0-.31-1,7,7,0,0,0-.67-.94,6.64,6.64,0,0,0-.76-.74,2.24,2.24,0,0,0-.5-.35c-.17-.08-.33,0-.5-.12a.31.31,0,0,0-.3.54c.13.12.21.34.35.48a7.69,7.69,0,0,1,.76.75,13.84,13.84,0,0,1,1.09,1.65C82.64,98.6,83.33,98.46,83.23,97.93Z"/><path class="cls-5" d="M91.53,60l-.13,0a.36.36,0,0,0-.48.29l0,.15a.47.47,0,0,0,.3.48l.13,0a.36.36,0,0,0,.48-.29l0-.15A.49.49,0,0,0,91.53,60Z"/><path class="cls-5" d="M90.87,61.76a2.19,2.19,0,0,1-.71.33.83.83,0,0,0-.44.34.22.22,0,0,0,.09.34c.58.3,1.07-.38,1.3-.83A.16.16,0,0,0,90.87,61.76Z"/><path class="cls-5" d="M95.1,79.27A.62.62,0,0,0,95,79c-.11-.12-.36-.17-.46,0a1.86,1.86,0,0,0-.1.2c-.16.16-.17.38-.36.57a.66.66,0,0,1-.85,0,.53.53,0,0,0-.61.87,1.64,1.64,0,0,0,2.63-.89A.54.54,0,0,0,95.1,79.27Z"/><path class="cls-5" d="M78,83a.33.33,0,0,0-.51,0,.87.87,0,0,0,.05,1.08.51.51,0,0,0,.53.28h.07a.39.39,0,0,0,.31-.33A1.43,1.43,0,0,0,78,83Z"/><path class="cls-5" d="M92.2,92.71c-.47,0-.55.73-.08.73S92.67,92.71,92.2,92.71Z"/><path class="cls-5" d="M102.76,112.15c-.69,0-.78,1.08-.09,1.08S103.46,112.15,102.76,112.15Z"/><path class="cls-5" d="M72.19,107.78c-.92-2-2-3.42-2-5.72,0-2.14,1.2-3.33,1.88-5.18a.22.22,0,0,0-.28-.28c-1.89.84-2.87,3.77-2.91,5.71,0,2.2.87,4.83,2.86,5.93C72,108.39,72.3,108,72.19,107.78Z"/></g></g></g><g id="Layer_94" data-name="Layer 94"><g id="Pierna"><rect class="cls-6" width="160" height="195"/></g></g></g></g></svg>