<svg xmlns="http://www.w3.org/2000/svg" viewBox="0 0 130 250"><defs><style>.cls-1{isolation:isolate;}.cls-2{fill:#403e3e;}.cls-3{fill:#6f6d6d;}.cls-4{fill:#242323;}.cls-5{fill:#3e2210;}.cls-6{fill:none;mix-blend-mode:multiply;opacity:0.4;}</style></defs><g class="cls-1"><g id="Layer_2" data-name="Layer 2"><g id="Variacion_B" data-name="Variacion B"><g id="AssetsF4"><g id="TailE4"><path class="cls-2" d="M120.18,201.11a1.6,1.6,0,0,0-.87-.75c-.4-.75-.83-1.47-1.27-2.17a4.65,4.65,0,0,0-.81-2.21,41.1,41.1,0,0,0-2.61-3.55,17.37,17.37,0,0,0-1.65-1.87,32.82,32.82,0,0,0-3.29-3l-.28-.2a1.55,1.55,0,0,0,.2-.28c1.07-1.88,4.61-7.9,3.78-11.14.47-.69.94-1.38,1.44-2l.18-.26a3.33,3.33,0,0,0,.67-2.22,16.51,16.51,0,0,0,.69-2.66,8.32,8.32,0,0,0,.08-2,3.22,3.22,0,0,0,.39-2c-.8-6-3.08-12.76-10.1-13.55-.11,0-.22,0-.34,0-.51-2.92-5.61-3.3-7.9-3.72a2.48,2.48,0,0,0-1.49.17,26.74,26.74,0,0,0,.83-6.12,3.7,3.7,0,0,0,2.46,0A15.31,15.31,0,0,0,107,137a3.39,3.39,0,0,0,1.14-.57c3.78-2.89,3.28-6.48,2.4-10.39a17.23,17.23,0,0,0-.17-6.6,3,3,0,0,0,.73-.33,2.14,2.14,0,0,0,.9-2.41,2.27,2.27,0,0,0-2.1-1.49,4.52,4.52,0,0,0-.9,0,1.93,1.93,0,0,0-.34-.11,11.07,11.07,0,0,0-.88-1.24c-5.12-6.23-14.3-7.47-21.48-3.93a.91.91,0,0,0-.13.08,2.59,2.59,0,0,0-3.73.65l-1.27,1.8c-1.29-.8-3.08-.73-3.68,1-.09.26-.19.51-.29.76a1.82,1.82,0,0,0-1.31,1.1,26.32,26.32,0,0,0-1.59,4.49,2.26,2.26,0,0,0-.07.56l-.4,1.24a2.1,2.1,0,0,0,.21,1.84,8.09,8.09,0,0,0-5.55.84,13.77,13.77,0,0,0-4.69,2,7.08,7.08,0,0,0-1.41.11c-4.06.75-6.86,4.42-8.17,8.1-2.86,3-3.74,8.72-2.41,12.65a2.86,2.86,0,0,0-.27,2.5,11.51,11.51,0,0,0,2,3.48c.25.45.51.89.77,1.34a2.43,2.43,0,0,0,2.9,1.2h.13a3.24,3.24,0,0,0,1.89,1.6c.76,1.14,1.51,2.29,2.28,3.43,0,.06.09.1.13.16-2.31,1.66-3,4-3.79,6.64-1.24,4.14-2.44,8.29-3.66,12.44a3.33,3.33,0,0,0,.88,3.37L55,185a3.17,3.17,0,0,0,1.28,2.69l.3,2.29a2.86,2.86,0,0,0,1,1.8,26.38,26.38,0,0,0,2.17,4.1,2.52,2.52,0,0,0,1.88,1.24l.79,1.21a2.74,2.74,0,0,0,1.37,1.11c.49.68,1,1.36,1.48,2a2.94,2.94,0,0,0,1.18.87c-.22.94-.43,1.87-.64,2.81a3.85,3.85,0,0,0-.64,1.17,22.65,22.65,0,0,0-1.44,4.83,20.48,20.48,0,0,0-.44,2.75,4,4,0,0,0,.08,1.21c0,.41,0,.82,0,1.24a2.63,2.63,0,0,0,.78,1.84,2.82,2.82,0,0,0,.38,1c-.06.6-.12,1.19-.17,1.79a3.17,3.17,0,0,0,.93,2.6c0,.11,0,.23,0,.35A3.07,3.07,0,0,0,67,227.09a51.52,51.52,0,0,0,2.36,8.27,2.76,2.76,0,0,0,1.38,1.56A3.18,3.18,0,0,0,74.51,238a2.64,2.64,0,0,0,3.33,1.42,3.58,3.58,0,0,0,3.63,1.37,3.46,3.46,0,0,0,2.41.75,3,3,0,0,0,4.51.37l.72.66a4.77,4.77,0,0,0,4.5,1.21l-.57.7c-.55.69.57,1.47,1.12.79a180.87,180.87,0,0,1,15.77-17.77c1.66-1.59,3.35-3.15,5.08-4.66,1-.84,3-2,3.56-3.25.05-.12.09-.21.14-.31l.36-.24a1.45,1.45,0,0,0-.88-2.63,5.87,5.87,0,0,0,.18-1.16l.12-3a5.07,5.07,0,0,0,1.93-3.82,10.85,10.85,0,0,0,0-1.9,1.24,1.24,0,0,0,.23-1c0-.18-.07-.34-.1-.51l-.05-.58a1.11,1.11,0,0,0,.23-.66A3.82,3.82,0,0,0,120.18,201.11ZM85.39,134.45a5.16,5.16,0,0,0,.53-1.57c.11-.3.22-.6.34-.9a2.42,2.42,0,0,1,.48.13c-.37.68-.76,1.36-1.09,2A2.93,2.93,0,0,1,85.39,134.45Zm-.12-.46c0-.33,0-.66,0-1s.26-.36.39-.56l.23-.37C85.68,132.72,85.46,133.4,85.27,134Z"/><path class="cls-2" d="M95.89,221.24a3.27,3.27,0,0,0,.44-1c.28-1,.56-2,.83-3C96.73,218.61,96.31,219.92,95.89,221.24Z"/><path class="cls-3" d="M97.08,137.33a3.46,3.46,0,0,0-1.83-2.74.84.84,0,0,0-1,.49,3.67,3.67,0,0,0,0,2.2c-.52,1.53-.42,3.15-.75,4.77a32.06,32.06,0,0,1-2,6.73,9.2,9.2,0,0,1-4.72,4.81,7.23,7.23,0,0,0-2.62,1.5,1.48,1.48,0,0,0-.81.18,4.08,4.08,0,0,0-1,.34l-.21.1-.27,0a1.65,1.65,0,0,0-.82.53h0a4,4,0,0,0-.26.32l0,0a1.57,1.57,0,0,0,.21,1.93c1,1,2.35.54,3.43-.14,3.8,3.82,10.46-4.15,11.68-7.36C97.48,147.6,99.2,141,97.08,137.33Z"/><path class="cls-3" d="M67.88,194c-4.65-3.82-9.55-8.39-12-14a1.18,1.18,0,0,0-2.2.49,9.5,9.5,0,0,0,.71,3.49l0,.09c-.64,2.64.78,5.23,2.88,7.56a1.85,1.85,0,0,0,.4.72,37,37,0,0,0,3,3.23,14.59,14.59,0,0,0,3,2.41l.19.14a1.57,1.57,0,0,0,.52.22,5.88,5.88,0,0,0,2,.52c1.57.12,2-1.51,1.46-2.63A1.56,1.56,0,0,0,67.88,194Z"/><path class="cls-3" d="M77.41,126.37a11.39,11.39,0,0,0-4,0c-1.77.19-3.86-.29-5.56.07a5.56,5.56,0,0,0-2.1,1.28,36.38,36.38,0,0,1-5.33,3.69,1,1,0,0,0,.66,1.86c3-.58,4.68-3.52,7.4-4.26,3-.8,6,.22,9-1.23C78,127.5,78.08,126.52,77.41,126.37Z"/><path class="cls-3" d="M92.09,111.41a17.84,17.84,0,0,0-7.58,2.91c-.87.63.1,1.86,1,1.48a31,31,0,0,1,7-2.26C94,113.31,93.49,111.19,92.09,111.41Z"/><path class="cls-4" d="M101.36,168.69a13.07,13.07,0,0,0-1.42.08,2.07,2.07,0,0,0-2.48-1.58,1.7,1.7,0,0,0-2.8-1.72c-4.76,4.29-7.75,9.51-11.42,14.65-.72,1,.51,2,1.5,1.64a6.89,6.89,0,0,0,2.68-2.29,2.38,2.38,0,0,0,1.35.62,2.3,2.3,0,0,0,1.36-.3,1.87,1.87,0,0,0,2.54-.29c2.63-3.13,5.38-5.5,9.35-6.77A2.07,2.07,0,0,0,101.36,168.69Z"/><path class="cls-4" d="M78.56,159.54c-.2.22-.39.46-.59.69a1.27,1.27,0,0,0-1.3.11c-3.65,2.84-6.54,6.12-7.27,10.77a52.73,52.73,0,0,0,.68,18.62c.39,1.73,3,1.33,3-.36,0-.58,0-1.17,0-1.76a1.16,1.16,0,0,0,.27-.76,43.61,43.61,0,0,1,2.28-14.64c1.38-3.94,4.1-7.66,4.73-11.78A1.14,1.14,0,0,0,78.56,159.54Z"/><path class="cls-4" d="M81.55,138.88a1.9,1.9,0,0,0-3.17-1.08l-.22.24a5,5,0,0,0-.06-1.38,2,2,0,0,0-3.34-.8c-.47.61-1,1.21-1.45,1.81a2,2,0,0,0-3.21-.36l-.3.35a1.7,1.7,0,0,0-1.61.71c-1.33,1.74-2.65,3.49-4,5.24a2.09,2.09,0,0,0-.43,1.1,2.19,2.19,0,0,0,2.44,2.71,2.12,2.12,0,0,0,2,.5,3.12,3.12,0,0,0,.59-.19,2.12,2.12,0,0,0,1.16-.39c-.06.21-.14.41-.21.61a2,2,0,0,0,3.28,1.82c.19-.23.39-.45.58-.67a1.59,1.59,0,0,0,1.9-.45l5.8-7.5A2,2,0,0,0,81.55,138.88Z"/><path class="cls-4" d="M110.38,114.21a19.55,19.55,0,0,1-4.81-1.65,5.12,5.12,0,0,0-1.89-.45c0-.28.09-.54.08-.49.14-1.48-2-2.29-3-1.32.17-1.36-2-2-2.58-.71-1.09,1.48-2.62,4.76-1,6.31,1.12,1,2.38.5,3.51-.43A1.81,1.81,0,0,0,101.9,117l.54.2h0a11.87,11.87,0,0,0,1.39.44,2,2,0,0,0,1.1,0,16,16,0,0,1,2,.59,5.48,5.48,0,0,0,3.57.23A2.18,2.18,0,0,0,110.38,114.21Z"/><path class="cls-4" d="M117.37,161.64a2.43,2.43,0,0,0-.11-1,11,11,0,0,0-1.83-3.43,18.29,18.29,0,0,0-1.72-1.49c-.34-.5-.69-1-1.06-1.48a2.69,2.69,0,0,0-1.82-1,1.72,1.72,0,0,0-1.67-1.21h-.1a1.92,1.92,0,0,0-1.8,1.4c-.79,2-2.88,6.14-1.06,8a2.71,2.71,0,0,0,1.27.71,3.35,3.35,0,0,0,.79.93l4.47,3.64a2.58,2.58,0,0,0,3.66-.1C118.34,165.85,118.63,163,117.37,161.64Z"/><path class="cls-4" d="M91.09,231c-.28-.55-.54-1.11-.84-1.66-1.38-2.9-2.73-5.81-4-8.74a2.26,2.26,0,0,0-2.77-1.42,71.86,71.86,0,0,1-11.08,2.37c-1.55.24-1.38,2.67,0,2.9a2.86,2.86,0,0,0-.37,1c0,.38-.09.75-.13,1.12a3.33,3.33,0,0,0-.13.45c-.22,1.21-.37,2.4-.47,3.6a3.57,3.57,0,0,0-.09.74c0,.36,0,.71,0,1.07,0,.87,0,1.73,0,2.61,0,2.26,2,3,3.68,2.49a3.78,3.78,0,0,0,1.39.19,2.52,2.52,0,0,0,2.71.94,2.85,2.85,0,0,0,3.57,1.07,3.1,3.1,0,0,0,.81.09c0,.09.07.19.1.29a2.61,2.61,0,0,0,1.92,1.74,3,3,0,0,0,3.9.23A72.2,72.2,0,0,1,91.09,231Z"/><path class="cls-5" d="M89.33,242.82c-1.47-1.63-4-2.2-6-2.87a61.2,61.2,0,0,0-6.55-2c-1.86-.38-3.89-.54-5.31-2S69.63,232,69,230.17c-1.36-4.13-2.68-8.29-3.82-12.49-.29-1.09-.58-2.19-.85-3.28-.24-.92-.76-2.18-.49-3.13s.74-1.45.9-2.29a3.67,3.67,0,0,0-.29-2.26,1,1,0,0,0-1.76-.14c-.44.83-1.2,1.44-1.66,2.27a6.11,6.11,0,0,0-.81,2.69c-.06,2.31.92,4.82,1.5,7a147.1,147.1,0,0,0,4.46,14.06c.75,2,1.41,4.19,3.05,5.64s3.56,1.83,5.38,2.72a50.61,50.61,0,0,0,6.93,2.5c2.18.71,4.77,1.88,7.08,1.39a1.26,1.26,0,0,0,.68-2.06Z"/><path class="cls-5" d="M66.3,209.42c2.47-6.43,2.37-14.08,6.77-19.68l-.88.51c5.55-1.75,10.11-5.63,15.62-7.44a15.24,15.24,0,0,1,8.87-.3c3.42.9,6.63,2.47,10,3.48,2.46.74,3.51-3.1,1.06-3.84-4.4-1.31-8.52-3.5-13.13-4.06-4-.5-8,.69-11.63,2.41-3.42,1.63-6.57,3.83-10.08,5.28a7.93,7.93,0,0,0-2.66,1.15,12.56,12.56,0,0,0-1.92,2.75A27.73,27.73,0,0,0,66,195.23c-1.35,4.33-1.89,8.88-3.52,13.13a2,2,0,0,0,1.39,2.45,2.05,2.05,0,0,0,2.45-1.39Z"/><path class="cls-5" d="M64.42,212.28c4-.82,7.24-3.88,9.77-6.88,3.13-3.71,5.78-7.88,8.57-11.85l-2.54-.46c.72,2.39,1.4,4.79,2.08,7.19a1.48,1.48,0,0,0,1.31,1.1c2.86.2,5.69.53,8.53.93,1.35.18,2.7.4,4,.65s2.86.93,4,.22a1.24,1.24,0,0,0,.37-1.88c-.74-1.06-2.29-1.07-3.47-1.29-1.46-.27-2.93-.52-4.4-.73a81.51,81.51,0,0,0-9-.72l1.31,1.1c-.71-2.39-1.41-4.78-2.09-7.19a1.42,1.42,0,0,0-2.55-.45c-2.68,3.68-5.26,7.48-8.1,11a29.31,29.31,0,0,1-3.88,4.15A18.27,18.27,0,0,1,63.62,210c-1.31.54-.54,2.58.8,2.3Z"/><path class="cls-5" d="M79.15,220.54c.91-.27,1.85-.46,2.74-.78l2.57-.91a1.2,1.2,0,0,0,.67-1c.12-2.19.2-4.39.12-6.58a1.32,1.32,0,0,0-1.2-1.35,1.3,1.3,0,0,0-1.36,1.2c0,2.19,0,4.39,0,6.58l.67-1c-.81.32-1.63.63-2.44,1s-1.56.77-2.34,1.13c-.94.44-.48,2.08.57,1.78Z"/><path class="cls-5" d="M82.07,218.69q3.77,5.49,7.27,11.16a2,2,0,0,0,3.44-2q-3.51-5.67-7.27-11.16a2,2,0,1,0-3.44,2Z"/><path class="cls-5" d="M71.37,219.2c-.2.27-.45.33-.6.67a4.43,4.43,0,0,0-.23,1,21.38,21.38,0,0,0-.24,2.41c-.13,1.61-.26,3.21-.38,4.81s-.22,3.2-.25,4.8a9.36,9.36,0,0,0,.6,4.61,1,1,0,0,0,1.84-.09c.55-1.61.27-3.39.29-5.06,0-1.49.07-3,.14-4.45s.17-3,.25-4.47c.08-1.27.61-3.49-.73-4.21l.4.38-.14-.26a.56.56,0,0,0-.95-.11Z"/><path class="cls-5" d="M65.93,198.4c-.37-.87-1.28-1.3-2.05-1.79s-1.56-1-2.33-1.54a10,10,0,0,1-2-1.44,7.89,7.89,0,0,1-1.14-2.48c-.7-1.84-1.38-3.69-2.12-5.51l-1.12-2.71c-.38-.94-.65-2.05-1.74-2.35a1.25,1.25,0,0,0-1.41.47c-.66,1.1-.07,2.11.35,3.19l1.13,2.91c.78,2,1.65,4,2.49,6.07a7.19,7.19,0,0,0,1.38,2.42,12.29,12.29,0,0,0,2.31,1.68c.83.53,1.66,1.05,2.5,1.55a4.86,4.86,0,0,0,2.94,1.1,1.11,1.11,0,0,0,.78-1.57Z"/><path class="cls-5" d="M53.83,182.69A16.75,16.75,0,0,0,56,178.61c.64-1.47,1.23-3,1.79-4.44,1.08-2.86,2-5.78,3-8.65.49-1.36,1.8-1.64,3-2.15,1.48-.61,3-1.24,4.45-1.84q4.52-1.82,9.14-3.32a1.48,1.48,0,0,0,1.12-1.35,1.59,1.59,0,0,0-.37-1,1.4,1.4,0,0,0-1.39-.44q-5,1.67-9.83,3.62c-1.56.63-3.11,1.27-4.63,2a7.52,7.52,0,0,0-3.41,2.36,17.18,17.18,0,0,0-1.6,4.12q-.86,2.49-1.78,4.95c-.61,1.64-1.25,3.27-1.87,4.9a21.26,21.26,0,0,0-1.54,4.75c-.13,1,1.16,1.3,1.71.62Z"/><path class="cls-5" d="M78,156.58a16.3,16.3,0,0,1-2.76,2.48,30.43,30.43,0,0,0-2.94,3c-.93,1.06-1.81,2.17-2.67,3.29-.41.54-.81,1.09-1.21,1.64a6.3,6.3,0,0,0-1.06,1.75A1.43,1.43,0,0,0,69,170.53a1.81,1.81,0,0,0,1.19-1c-.14.23.09-.09.14-.16l.32-.44,1.25-1.74c.8-1.11,1.62-2.2,2.51-3.24A30.43,30.43,0,0,1,77.3,161a17.1,17.1,0,0,0,3-2.94c1-1.45-1.24-2.88-2.25-1.48Z"/><path class="cls-5" d="M77,157c.59,1.41,2.45,2.07,3.76,2.63,1.55.66,3.12,1.28,4.71,1.82s3.36,1.07,5.06,1.52,3.24.63,4.8,1.11c1.31.4,1.84,2.45,2.59,3.53a39.71,39.71,0,0,1,2.62,3.82,13.72,13.72,0,0,1,1.49,9,1.83,1.83,0,0,0,1.2,2.2,1.79,1.79,0,0,0,2.2-1.19,17.7,17.7,0,0,0-1.07-10.24,22.54,22.54,0,0,0-3.19-4.9c-1-1.27-1.57-2.89-2.71-4s-3.1-1.37-4.76-1.73q-2.81-.6-5.56-1.41c-1.82-.54-3.64-1.14-5.43-1.79-1.6-.59-3.63-1.78-5.36-1.24A.7.7,0,0,0,77,157Z"/><path class="cls-5" d="M102.5,171.91a4.28,4.28,0,0,0-2,.45c-.65.25-1.3.5-1.94.77a17.07,17.07,0,0,0-3.11,1.56A8.43,8.43,0,0,0,93,177.2c-.26.41-.51.84-.8,1.25-.07.11-.15.21-.23.32s.24-.22-.09.1a6.68,6.68,0,0,0-.67.74,1.49,1.49,0,0,0,.16,1.82,1.53,1.53,0,0,0,1.8.31,6.1,6.1,0,0,0,2.16-2.42,13.36,13.36,0,0,1,.81-1.16c-.15.17.08-.09.11-.11s.2-.2.31-.3a2.4,2.4,0,0,1,.44-.33,19.83,19.83,0,0,1,2.94-1.5c.51-.22,1-.44,1.54-.63a5,5,0,0,0,1.89-.92,1.43,1.43,0,0,0-.88-2.46Z"/><path class="cls-5" d="M89,160.61a14.22,14.22,0,0,0,3.12-1c1-.52,2-1,3-1.55s1.89-1,2-2.22a12.84,12.84,0,0,0-.41-3.48,44.8,44.8,0,0,0-2-5.7c-.29-.82-.43-1.69-.72-2.52a2.33,2.33,0,0,0-2.32-1.63.85.85,0,0,0-.9,1,3.55,3.55,0,0,0-.14.55,3.38,3.38,0,0,0,.13.9c.14.48.29,1,.42,1.44a23.78,23.78,0,0,0,1.22,3.23,22,22,0,0,1,1.1,3.07A8.58,8.58,0,0,1,94,156l.23-.75c-.19.33-.93.58-1.26.78l-1.64,1a15.74,15.74,0,0,0-2.9,2.31c-.49.46-.19,1.53.6,1.32Z"/><path class="cls-5" d="M96.36,155.35c1-.69,1.17-1.86,1.48-2.94s.67-2.43,1-3.65A26.07,26.07,0,0,0,100,142.2,11.9,11.9,0,0,0,98.6,136a37,37,0,0,0-4.47-5.46c-.81-.92-1.62-1.85-2.46-2.76s-1.6-2.08-2.66-2.53a1.28,1.28,0,0,0-1.68.48c-.57,1,.41,2,1,2.78,1.59,2,3.24,4,4.91,5.91,1.46,1.69,3.08,3.36,3.54,5.63s-.33,4.92-.93,7.18c-.35,1.35-.73,2.69-1.1,4s-.83,2.49-.26,3.77a1.21,1.21,0,0,0,1.86.36Z"/><path class="cls-5" d="M90.58,125.29c-2.12-1.43-4.9-2-7.31-2.81s-4.81-2-7.32-2-5.08.91-7.55,1.56c-2.28.61-4.88,1-6.86,2.35s-3.47,3.66-5,5.53-3.43,3.69-4.3,6a47.08,47.08,0,0,0-1.56,7.18L49.92,147a18.74,18.74,0,0,0-.68,3.91,4.65,4.65,0,0,0,1.58,3c1,1.07,2,2.12,3,3.15s2,2,3.09,3,2.06,2.25,3.68,2.45a1.4,1.4,0,0,0,1.43-1.7,4.69,4.69,0,0,0-1.85-2.55c-.9-.81-1.78-1.62-2.66-2.45a61.46,61.46,0,0,1-4.79-4.62c-.64-.74-.2-1.68,0-2.6l.67-3.63c.4-2.2.76-4.41,1.21-6.61s1.68-3.67,3.06-5.4a56.9,56.9,0,0,1,4.73-5.75c1.58-1.51,3.9-1.83,5.94-2.39,2.2-.6,4.42-1.35,6.67-1.75a7.63,7.63,0,0,1,3.81.68l3.66,1.3c2.38.84,4.91,2.11,7.44,2.29a1.13,1.13,0,0,0,.72-2Z"/><path class="cls-5" d="M77.34,156.58a28.84,28.84,0,0,0-1.55-4.88,5.37,5.37,0,0,0-2.68-3.2A45.31,45.31,0,0,0,62.63,146l1.31,2.46,2.9-5.51c.43-.82.81-1.69,1.3-2.47s1.42-1.06,2.32-1.45l2.8-1.18c.57-.24,1.78-1,2.4-1a6.13,6.13,0,0,1,1,.52l1.24.62q1.45.74,2.91,1.44a1.76,1.76,0,0,0,2.09-.22,83.27,83.27,0,0,0,5.53-6.48c.87-1.13,1.7-2.28,2.5-3.45.63-.91,1.44-2.33.49-3.33-1.9-2-4.41,2.93-5.26,4.07a75.13,75.13,0,0,1-5.64,6.7l2.09-.22-3.33-1.62A11,11,0,0,0,76,133.52a5.89,5.89,0,0,0-3.08.8l-3.22,1.39a14.94,14.94,0,0,0-3,1.46,7.1,7.1,0,0,0-2,2.73l-3.51,6.81a1.63,1.63,0,0,0,1.31,2.46,64.77,64.77,0,0,1,8.5,1.88,4.41,4.41,0,0,1,1.44.51A4.14,4.14,0,0,1,73.3,153a25.16,25.16,0,0,1,1.5,4.13,1.3,1.3,0,0,0,2.54-.55Z"/><path class="cls-5" d="M98.3,150.27a36.74,36.74,0,0,0,7,2,15.33,15.33,0,0,1,6,2.16c2.1,1.55,2.84,4.35,3.44,6.77a16.18,16.18,0,0,1-.34,9.17c-.82,2.44,3,3.48,3.83,1.06a19.94,19.94,0,0,0,.43-10.91c-.68-3-1.75-6.38-4.09-8.53-4-3.66-9.55-3.12-14.27-5.11a2.05,2.05,0,0,0-2.72.71,2,2,0,0,0,.71,2.72Z"/><path class="cls-5" d="M106.85,151.06a14.39,14.39,0,0,0-1.16,2.48c-.34.8-.67,1.61-1,2.42-.63,1.61-1.16,3.27-1.8,4.89a1.49,1.49,0,0,0,.94,1.84,18.62,18.62,0,0,1,3.11,1.43c1,.59,2.35,1.87,3.6,1.24a1.24,1.24,0,0,0,.64-1c.27-1.55-1.94-2.63-3-3.19a14.54,14.54,0,0,0-3.41-1.3l.94,1.83a39.61,39.61,0,0,1,1.76-4.77c.32-.77.65-1.53,1-2.3a12.93,12.93,0,0,0,.94-2.41,1.4,1.4,0,0,0-2.49-1.2Z"/><path class="cls-5" d="M74.51,122.34c.64-2.16,1.27-4.32,1.91-6.49a2.59,2.59,0,0,1,.51-1.22,5.5,5.5,0,0,1,1.28-.65c.88-.43,1.78-.84,2.68-1.23a36.82,36.82,0,0,1,11.94-3.18c3.87-.27,8.15-.31,11,2.7a16.82,16.82,0,0,0,3.72,3c1.11.66,2.7,1.38,3.19,2.68l.79-1.8c-.83.43-1.59,1.36-2.54,1.49a6.61,6.61,0,0,1-3.06-.92,18.9,18.9,0,0,0-6.32-1.83c-4.24-.27-7.92,2.83-10.77,5.57-1.15,1.11.46,3,1.65,1.86a20.91,20.91,0,0,1,4.87-3.77,8.35,8.35,0,0,1,6.31-.16c2,.66,3.9,1.95,6,2.35a5.25,5.25,0,0,0,2.78-.16A20.49,20.49,0,0,0,113,119a1.67,1.67,0,0,0,.65-2.18,8,8,0,0,0-3.61-3.69c-.77-.46-1.57-.87-2.31-1.37a18.55,18.55,0,0,1-2.37-2.14c-3.35-3.09-8.51-3.22-12.8-2.76a44.39,44.39,0,0,0-13.29,3.8c-1.78.81-4.27,1.54-5,3.53-.88,2.36-1.35,4.95-2,7.38-.39,1.45,1.78,2.23,2.21.78Z"/><path class="cls-5" d="M110.28,118a4,4,0,0,0-.6,1.68,19.52,19.52,0,0,0,.1,2.16c.09,1.35.2,2.71.32,4.06s.26,2.67.41,4a3.94,3.94,0,0,1-.67,3.35,41.34,41.34,0,0,1-4.7,4.75,16.86,16.86,0,0,1-2.87,2,13.22,13.22,0,0,0-3.11,1.84c-.68.74-.45,2.42.83,2.33a8.3,8.3,0,0,0,3.64-1.59c1.11-.68,2.15-1.45,3.23-2.17a24.64,24.64,0,0,0,5.77-5.44c1.88-2.41,1.06-5.19.74-8-.19-1.6-.34-3.21-.48-4.82-.07-.7-.12-1.41-.19-2.11a4,4,0,0,0-.82-2.14.88.88,0,0,0-1.6.06Z"/><path class="cls-5" d="M97.5,138.93A2.13,2.13,0,0,0,99,138.8a3.77,3.77,0,0,0,.79-.43c.53-.35,1-.76,1.53-1.14.94-.73,1.88-1.44,2.8-2.2l1.33-1.1.63-.51.32-.26c.25-.18.25-.11-.12-.17s-.39-.1-.26,0,.07,0,0,0,.08.08.1.1.27.29.42.42a1.62,1.62,0,0,0,1.59.55,1,1,0,0,0,.79-.87,1,1,0,0,0-.64-1s-.07,0-.11-.07.08.23,0,0a1.78,1.78,0,0,0-.28-.7,1.85,1.85,0,0,0-1.94-.89,4.76,4.76,0,0,0-1.77,1l-1.65,1.14c-1.09.75-2.14,1.53-3.2,2.32s-2.68,1.72-2.51,3.18a1,1,0,0,0,.63.75Z"/><path class="cls-5" d="M93.32,131.12l.15-.08H93a1.19,1.19,0,0,0,1.22-.3,7.74,7.74,0,0,0,.81-.81c.05-.07.11-.13.17-.2s-.13.14,0,0,.23-.25.34-.37c.27-.29.51-.6.76-.9s.39-.48.59-.7c-.19.2,0,0,0,0l.31-.36c.1-.12.19-.24.29-.35a4,4,0,0,0,1-1.91.8.8,0,0,0-.93-.87c-1.41.24-2.38,1.61-3.22,2.64a14.07,14.07,0,0,0-1.06,1.47,5.66,5.66,0,0,0-.55,1c0,.13-.11.27-.15.4a1.18,1.18,0,0,0,0,.59s.06.14,0,.19a.58.58,0,0,0,.8.58Z"/><path class="cls-5" d="M105.74,185.09c.5.91,1.37,1.22,2.22,1.73a13.54,13.54,0,0,1,2.44,1.81,38.26,38.26,0,0,1,3.85,4.4c1.27,1.69,2.49,3.46,3.61,5.25a11.6,11.6,0,0,1,2.18,5.61c.12,3.94-3.36,7.09-2.93,11.15a7.91,7.91,0,0,0,.88,2.83,7.87,7.87,0,0,1,1.13,2.42c.26,1.87-1.17,3.3-1.49,5.05a1.34,1.34,0,0,0,1.26,1.41c3.85.11,4.93-5.34,4-8.19-.5-1.56-1.88-2.87-1.71-4.59a15.41,15.41,0,0,1,1.57-4.38,13.19,13.19,0,0,0,1.31-5.3,12.62,12.62,0,0,0-1.62-5.7,48,48,0,0,0-6.42-8.91,25.43,25.43,0,0,0-4.26-3.9c-1.48-1.08-3.67-2.73-5.56-2.07a1,1,0,0,0-.48,1.38Z"/><path class="cls-5" d="M85.46,244c1.1.43,2.21.85,3.3,1.31s2,1.14,3,1.69a7.23,7.23,0,0,0,3.55,1.05,8.89,8.89,0,0,0,3.42-1,6.46,6.46,0,0,1,1-.43c.56-.17.61,0,1.33-.23a2,2,0,0,0,1.28-1.13,1.8,1.8,0,0,0,.18-.64c0-.64-.29-.67-.85-1.23s-.8-.93-1.64-.86a6.28,6.28,0,0,0-1.15.19A24,24,0,0,0,96,244l-.45.15c-.07,0-.54.11-.33.09a3.14,3.14,0,0,1-1.43-.29,32,32,0,0,0-4-1.56,9,9,0,0,0-4.22-.13.92.92,0,0,0-.15,1.76Z"/><path class="cls-5" d="M107.9,184.94l.83,1.24a1,1,0,0,0,.56.2,2,2,0,0,0,.74,0,3.33,3.33,0,0,0,1.33-.63,6.64,6.64,0,0,0,1.63-2.41q1.56-3.09,3.08-6.19a24.39,24.39,0,0,0,2.17-5.81c.44-2.2.61-4.81-1.52-6.2a1.14,1.14,0,0,0-1.7.55,9.19,9.19,0,0,0-.32,2.55,8.65,8.65,0,0,1-.2,2.38,26.35,26.35,0,0,1-1.84,4.93q-1.32,2.92-2.61,5.87a7,7,0,0,1-1,2.06c-.47.49-1.26.58-1.16,1.48Z"/><path class="cls-5" d="M116.55,197.74c-1.74,1.28-3.92,1.93-5.5,3.47-2,2-1.82,4.37-1.36,6.92.21,1.16.36,2.16-.55,3.05a19.79,19.79,0,0,0-2.7,2.94,18.37,18.37,0,0,0-1.81,3.53,6,6,0,0,0-.59,3.86,1,1,0,0,0,1.59.56,7.2,7.2,0,0,0,2-3.31,14.82,14.82,0,0,1,1.76-3.22c.76-1,1.84-1.72,2.63-2.72a5.21,5.21,0,0,0,1.08-3.55c-.09-2-1.3-4.35.3-6a15.82,15.82,0,0,1,2.51-1.81,7.76,7.76,0,0,0,2.31-2.29,1.12,1.12,0,0,0-1.65-1.47Z"/></g></g></g><g id="Layer_102" data-name="Layer 102"><g id="Cola"><rect class="cls-6" width="130" height="250"/></g></g></g></g></svg>