<svg xmlns="http://www.w3.org/2000/svg" viewBox="0 0 130 250"><defs><style>.cls-1{isolation:isolate;}.cls-2{fill:#707070;}.cls-3{fill:#383838;}.cls-4{fill:#3e2210;}.cls-5{fill:none;mix-blend-mode:multiply;opacity:0.4;}</style></defs><g class="cls-1"><g id="Layer_2" data-name="Layer 2"><g id="Variacion_C" data-name="Variacion C"><g id="AssetsF4"><g id="TailE4"><path class="cls-2" d="M51.69,209.18a2.61,2.61,0,0,0-.74-.77,4.58,4.58,0,0,0-.56-2.75l0,0A3.92,3.92,0,0,0,49.3,204l-.18-.15a3,3,0,0,0-.95-.78,1.41,1.41,0,0,0-.71-.51,3.27,3.27,0,0,0-1.67-.05,3,3,0,0,0-1.27,0,3.36,3.36,0,0,0-1.44.75l-.17-.24a5.42,5.42,0,0,0-1.84-3,2.21,2.21,0,0,0-3.17.26,7.44,7.44,0,0,0-.78-.31c-1.84-.6-2.95,1.75-2.5,3.34a4.26,4.26,0,0,0,.65,1.37,4.5,4.5,0,0,0,.67,1.71,5.44,5.44,0,0,0,0,.58,4,4,0,0,0-.25,2.71,3.92,3.92,0,0,0,2.53,3.85,4.29,4.29,0,0,0,1.26.24l.28.2a2.32,2.32,0,0,0,2.88-.76,2.73,2.73,0,0,0,2,3.41,5.78,5.78,0,0,0,.88.12c2.27.49,4.13,2,6.12-.48A6.12,6.12,0,0,0,51.69,209.18Z"/><path class="cls-2" d="M123.56,133.19a4.84,4.84,0,0,0-2.66-1.91,5.2,5.2,0,0,0,1.06-1.92,6.55,6.55,0,0,0,.24-1.64,5.79,5.79,0,0,0-.82-4.71,3.92,3.92,0,0,0-1-.82c-.09-.11-.19-.21-.28-.31a4.19,4.19,0,0,0-4.5-1.73,2.64,2.64,0,0,0-3.1,1A2.4,2.4,0,0,0,110.8,119a4.5,4.5,0,0,0-5.41,3.38,7.87,7.87,0,0,0,1,5.24,7.65,7.65,0,0,0,1.86,2.71l-.32.21a5.17,5.17,0,0,0-1.53,5.47c-.16,1.86.28,3.78,1.46,4.79,1.51,1.31,2.83,1.19,3.88.38a4,4,0,0,0,.78-.07,4,4,0,0,0,.82.37,4.87,4.87,0,0,0,1,1.61,5.29,5.29,0,0,0,1.46,2.36,4.89,4.89,0,0,0,3.56,1.16,4.82,4.82,0,0,0,4.37-3.73C125.33,140.28,125.44,135.63,123.56,133.19Z"/><path class="cls-2" d="M101.59,217a3.36,3.36,0,0,0,.51-1.31l1.38-7.54a2.94,2.94,0,0,0-.23-1.91,2.43,2.43,0,0,0,0-1c-.9-3.29-1.51-10.91-4.94-12.78a3.1,3.1,0,0,0,.62-1.66c.06-.63.1-1.26.12-1.9a3.38,3.38,0,0,0,.13-.42c.6-2.44.22-5.84-1.61-7.63a3.82,3.82,0,0,0-1.83-1,9.67,9.67,0,0,0,1.22-4.89c0-1.16-.06-2.37-.15-3.59h0c2.84-1.17,3.15-5.58,3.12-8.46a14.73,14.73,0,0,0-3.74-10.24,13.81,13.81,0,0,0-1.85-1.53,3.83,3.83,0,0,0,2.09-2.11,10.56,10.56,0,0,0,.19-8.11,10.34,10.34,0,0,0-1.73-5.09,3.1,3.1,0,0,0-3-1.16l-.08,0a8.57,8.57,0,0,0-1-.63c-.06-.19-.12-.38-.19-.58a3.46,3.46,0,0,0-.74-1.15,21.23,21.23,0,0,0,.42-2.25c.59-4.54-1.18-6.83-3.21-10.52a3.82,3.82,0,0,0-.72-.92,7.85,7.85,0,0,0-4.09-3.19,17.22,17.22,0,0,0-5.33-.81,5.23,5.23,0,0,0-1.86.11,4.82,4.82,0,0,0-1,.36,4.56,4.56,0,0,0-2.52,2,4.1,4.1,0,0,0-.38,1,4.72,4.72,0,0,0-.76-1.5A3.88,3.88,0,0,0,68,115a4.51,4.51,0,0,0-1.75-1.63,2.41,2.41,0,0,0-.33-.15,5.48,5.48,0,0,0-2-1.31,11.41,11.41,0,0,0-4.24-.31,4,4,0,0,0-4,.76c-3.1,1-5.29,2.92-3.06,6-.07.13-.13.27-.19.4a4.69,4.69,0,0,0-1.27-.79c-.38-.88-.79-1.75-1.19-2.59a13,13,0,0,0-.68-2.52,2.94,2.94,0,0,0-3.87-1.65,2.62,2.62,0,0,0-3.75,1l-.14.27a2.74,2.74,0,0,0-2.06.17c-1.35.64-2.63,1.32-3.93,2.1a3.57,3.57,0,0,0-1.09,1,12.41,12.41,0,0,0-2.08,3,3.26,3.26,0,0,0-1.8,2.33A56,56,0,0,0,29.32,130l0,.16v.05a5.66,5.66,0,0,0-3.67-.16c-3.91-1.25-6.81,5.09-6.16,8.82a6.77,6.77,0,0,0,.41,1.4c.24,3.73,2.67,7.87,5.25,10.92a2.92,2.92,0,0,0-2.05,2.11,18.14,18.14,0,0,0-.54,3.75,6,6,0,0,0-.15,1.31,6.5,6.5,0,0,0,.38,2.14,17.27,17.27,0,0,0,3.14,7.36,2.41,2.41,0,0,0,2.94.78,12.37,12.37,0,0,0,3.8,6.59c.18.16.37.3.55.44a3.32,3.32,0,0,0,2.2,1.5l.84.79a2.27,2.27,0,0,0,3.51-.5A9.57,9.57,0,0,0,44,175.63a1.94,1.94,0,0,0,.26-.23,2.92,2.92,0,0,0,1.28-.68,3,3,0,0,0,1.14-.93,2.53,2.53,0,0,0,.36-.2,3.2,3.2,0,0,0,1.27.57h0a3.64,3.64,0,0,0,1.1.84,12.07,12.07,0,0,0,3.55,1.22l.66.64a2.5,2.5,0,0,0,3.71-.21c0,.19,0,.38,0,.56-.52.7-1.09,1.37-1.64,2.06a2.47,2.47,0,0,0-1.21,1.45c-.1.29-.18.57-.26.85a6.4,6.4,0,0,0-.61,2.26,7.91,7.91,0,0,0,.16,2,11.49,11.49,0,0,0,2.7,6.7,2.69,2.69,0,0,0,1.86,1,12.43,12.43,0,0,0,.34,1.52,3.26,3.26,0,0,0,.2,3.33,10.57,10.57,0,0,0,3.35,3.4,2.91,2.91,0,0,0,.94.36,2.51,2.51,0,0,0,1.21.51,3.34,3.34,0,0,0,2.15.94,3.71,3.71,0,0,0,.07.92,21.43,21.43,0,0,0,3.33,8,2.66,2.66,0,0,0,3.47.85l.28.16a2.79,2.79,0,0,0,3.35-1c1.54,1.34,3.07.57,3.89-.84a3.07,3.07,0,0,0,3.3.71c.22.31.43.62.65.92-1.87.79-3,3.36-2.36,6,.92,4.15,4.09,6.75,7.76,6.14a11.2,11.2,0,0,0,1.6,1.08,3,3,0,0,0-.62,4.37,1.47,1.47,0,0,1,.1.13c0,.1,0,.2,0,.3a3.22,3.22,0,0,0,1.77,3.21,12,12,0,0,1,2.49,1.66,2.48,2.48,0,0,0,1.73.56,5.51,5.51,0,0,0,2.55,1.28,2.37,2.37,0,0,0,2.22-.67,3.06,3.06,0,0,0,1.37-4.86,10.16,10.16,0,0,0-4.48-3.2,1.17,1.17,0,0,0,0-.2ZM55.21,127.69a3.45,3.45,0,0,0-.87-.66c.07-.46.12-.92.16-1.37a6,6,0,0,0,.57.28,10.22,10.22,0,0,0,.86.88A3.28,3.28,0,0,0,55.21,127.69Zm31.93,17.15c.07.45.15.88.25,1.28a2.09,2.09,0,0,0,.08.23l-1.26-.67A3.22,3.22,0,0,0,87.14,144.84Zm2.41,39.31a7.76,7.76,0,0,0-.86-1,3.33,3.33,0,0,0,.49-.66,4.76,4.76,0,0,0,1,.32A3.51,3.51,0,0,0,89.55,184.15Z"/><path class="cls-3" d="M40.26,151.79c-2.56-1-4.94-1.39-6.85-3.75-1.63-2-5.7-10.56-.15-11,1.25-.1,1.31-2.15,0-2.15-10.42,0-2.78,21.66,6.95,18.52A.88.88,0,0,0,40.26,151.79Z"/><path class="cls-3" d="M80.15,153.83c-.94-.74-2.11.88-1.25,1.72a10.92,10.92,0,0,1,3.21,8.67c-.39,3.31-2.61,5.4-5,7.24-.77.6-.6,2.13.52,2.12,4.16-.06,7.08-4,7.64-8.29C86,160.41,83.67,156.6,80.15,153.83Z"/><path class="cls-3" d="M69.82,186.51c-1.5-.84-3.77-.71-4.64-2.52a4.07,4.07,0,0,1,1-4.7,1.11,1.11,0,0,0-.68-1.84c-3.4-.44-4,4.24-3.37,6.92A5.48,5.48,0,0,0,69.78,188,.92.92,0,0,0,69.82,186.51Z"/><path class="cls-3" d="M92.79,208.12c-1.12-1.4-3.22-1.08-4.74-1.7a6.22,6.22,0,0,1-3.66-4,1,1,0,0,0-2.07.28,7.45,7.45,0,0,0,3.27,5.83c1.77,1.2,5.49,2.72,7.18.92A1,1,0,0,0,92.79,208.12Z"/><path class="cls-3" d="M100.89,199.33a.83.83,0,0,0-1.21.95,19.6,19.6,0,0,1,0,10.5c-.74,3.3-2.55,5.52-4.26,8.25a1,1,0,0,0,1.31,1.46c3.79-1.71,5.64-4.54,6.44-8.88C103.93,207.57,104.65,201.92,100.89,199.33Z"/><path class="cls-3" d="M96.2,152.38C93.31,148,87.09,143.25,82,144c-1.15.17-.83,2.09.26,2.14,3.87.17,9.62,5.32,11.57,8.76,2.61,4.6.36,8.9.28,13.67a1,1,0,0,0,1.72.8C99.74,164.92,99.39,157.25,96.2,152.38Z"/><path class="cls-3" d="M55.64,124.06c-2.32-7.68-9.1-13-16.63-11.53-7,1.32-11.92,8.94-10.56,16.5.24,1.31,1.9.9,2-.26.72-8,7.41-14.49,14.94-10.59a11.4,11.4,0,0,1,5.12,5.9c.74,1.81.71,2.82,2.47,3.61a1.36,1.36,0,0,0,1.69-.27l.63-.74A2.83,2.83,0,0,0,55.64,124.06Z"/><path class="cls-3" d="M46.74,169.65c-.32-1.54-2.16-1.73-3.17-1.08-2.4,1.55-2.53,4.72-5.89,5A5.74,5.74,0,0,1,32,171c-1.18-1.55-2.28-3.16-2.34-5.27,0-1.24-1.77-1.62-2.05-.33-1.16,5.31,3.29,11.45,8.06,12.43a9.61,9.61,0,0,0,7.19-1.21C44.88,175.16,47.34,172.47,46.74,169.65Z"/><path class="cls-3" d="M64.49,146c-1.12-4-4.08-9.12-8.34-9.18a1.33,1.33,0,0,0-.29,2.57c3.36.91,5.36,6.9,5.64,10.16.3,3.56-.91,6.8-2.18,10-.55,1.38.93,2.78,2,1.65C65.05,157.35,66,151.32,64.49,146Z"/><path class="cls-3" d="M91.09,128.61a27,27,0,0,0-1.16-3.31,8.33,8.33,0,0,0-.57-1.75,1.35,1.35,0,0,0-.5-.57,7.92,7.92,0,0,0-.23-.87,10.44,10.44,0,0,0-4.29-5.82,15.6,15.6,0,0,0-1.83-1.7c-1-.84-2.16-1.78-3.51-1.53-.57.1-.73.82-.52,1.32C79,115.5,80.1,116,81,116.69l.45.35a1.61,1.61,0,0,0,.38,1.18,14.9,14.9,0,0,1,3.52,6.14c.1,1.92-1.08,3.33-1.24,5.34a1.52,1.52,0,0,0,2.3,1.34,5.26,5.26,0,0,0,1.26-1.23l.09.22a1.38,1.38,0,0,0,.64.68A1.77,1.77,0,0,0,91.09,128.61Z"/><path class="cls-3" d="M122.25,131.39a.87.87,0,0,0-.45,0c-.1-.23-.16-.49-.27-.72a3.39,3.39,0,0,0-1.28-1.49c-.91-.49-1.75.28-1.6,1.33a2.9,2.9,0,0,0,1.46,1.94,2.5,2.5,0,0,0,.52.19,2.84,2.84,0,0,0,.2,1.1,11.22,11.22,0,0,0,.42,1.94,6.73,6.73,0,0,1-.51,2.57,5.61,5.61,0,0,1-1.44,2.44c-.42.29-.74.18-1.18.33l-.09-.06a2.5,2.5,0,0,0-2.27-.43c.64-.58,1.09-1.31.39-1.89-.91-.78-1.86-.14-2.85.08a3.24,3.24,0,0,1-3.4-1.07c-1.63-1.93-.68-4.73-2.14-6.62a.82.82,0,0,0-1.2,0c-1.44,1.21-1.19,3.73-.78,5.46a7.92,7.92,0,0,0,3,4.69,5.28,5.28,0,0,0,5.63.29,5.36,5.36,0,0,0,.5-.29,2.49,2.49,0,0,0-.31.61,3.16,3.16,0,0,0,2.91,4.21,5.33,5.33,0,0,0,4-1.57,5.81,5.81,0,0,0,3.51-4.05C125.88,137.52,125.25,132.38,122.25,131.39Z"/><path class="cls-3" d="M79.53,207.5c-2.36.14-4,2.17-6.55,2a4.55,4.55,0,0,1-3.64-1.84c-.47-.68-.66-1.5-1.17-2.15a.57.57,0,0,0-.71-.14c-3.51,1.64,1,6.34,2.86,7.17,3,1.35,9.05,1,10.54-2.73C81.27,208.81,80.71,207.43,79.53,207.5Z"/><path class="cls-3" d="M96.9,181.12a.76.76,0,0,0-.71.41c-.65,1.24-.09,2.67,0,4a10.6,10.6,0,0,1-.18,2c-.14.23-.27.47-.41.69-.53.84-1.23,1.52-1.73,2.38a2.06,2.06,0,0,0,.42,2.33,1.72,1.72,0,0,0,2.18.18,7,7,0,0,0,2-2.52,4,4,0,0,0,.49-.75,8.51,8.51,0,0,0,.64-3.75C99.57,184.23,99,181.4,96.9,181.12Z"/><path class="cls-3" d="M50.77,211.7c-1.08,2.5-4.66,2.49-6.78,1.81a.79.79,0,0,0-1,.78c.12,2.48,2.8,2.88,4.64,2.9a6.48,6.48,0,0,0,4.59-2.08,1.34,1.34,0,0,0,1.06-1.18l.21-.63h0c0-.13.09-.26.14-.4C54.23,211.13,51.51,210,50.77,211.7Z"/><path class="cls-3" d="M41.85,211.52c-1.08-.39-2.17-.65-3.26-1s-1.53-1.46-2-2.64a1.37,1.37,0,1,0-2.61.83c.67,2.1,1.36,3.87,3.42,4.69,1.45.57,3.94,1,4.8-.81A.74.74,0,0,0,41.85,211.52Z"/><path class="cls-3" d="M70.14,116.59c-4.81-6.11-9.86-6.06-16.23-2.92-1.31.64-.32,3.1,1,2.53,3.07-1.28,6.53-2.59,9.54-.33a16.91,16.91,0,0,1,4.87,6.66c2,4.54,1,9.3,2.42,13.83.24.78,1.25,1.24,1.81.53C78,131.36,73.87,121.34,70.14,116.59Z"/><path class="cls-3" d="M86,193.14a5.45,5.45,0,0,0-1.83.59,3.68,3.68,0,0,1-3.25,0c-1-.35-2.23-.72-2.82-1.74-.32-.57-.27-1-.7-1.51a.73.73,0,0,0-.94-.17l-.27.2a1.28,1.28,0,0,0-.57,1.09c.24,2.75,2.14,3.88,4.35,4.77a5.77,5.77,0,0,0,3.89.43c1.22-.38,1.92-1.37,2.87-2.2C87.37,194,86.65,193.05,86,193.14Z"/><path class="cls-4" d="M99.4,215.41c1.41,1,1.13,2.58.42,4-1.07,2-3.11,3.57-3.38,6s1,5.06,2.65,6.89a10,10,0,0,0,2.75,2A4.1,4.1,0,0,1,103,235a4,4,0,0,1,.3.78c.92,2.29,4.64,2.4,5.09-.32a4.87,4.87,0,0,0-1.7-4.43,15.57,15.57,0,0,0-3.37-1.91,4.58,4.58,0,0,1-1.87-2.22c-.45-1-.12-1.61.47-2.49,1.39-2,2.64-4.23,2.39-6.78-.21-2.08-1.37-4.57-3.55-5.17a1.62,1.62,0,0,0-1.32,2.92Z"/><path class="cls-4" d="M101.31,216.87c2.63-1.07,3.59-5,4.35-7.42a16.72,16.72,0,0,0,.93-5.14,11.31,11.31,0,0,0-1.39-5c-1.33-2.56-3.14-5.44-5.8-6.77a9.33,9.33,0,0,0-4.8-.9c-1.42.09-3.23.53-4.13,1.72a1.11,1.11,0,0,0,.28,1.53c1.92,1.28,4.61.13,6.69,1s3.28,3.32,4.38,5.15a7.07,7.07,0,0,1,1.19,3.79,15.57,15.57,0,0,1-.72,4,25,25,0,0,1-1,3.28c-.43,1-1.14,1.87-1.64,2.84a1.31,1.31,0,0,0,1.69,1.87Z"/><path class="cls-4" d="M83.24,183.34a13.35,13.35,0,0,0,11.11.39c3.2-1.46,4.86-4.57,5.24-8,.42-3.65-.78-7.17-2-10.54a21.68,21.68,0,0,0-2-4.33A6.19,6.19,0,0,0,93.62,159a3.66,3.66,0,0,0-1-.5q-.48-.08-1-.12-.65.06-.24,0a1.13,1.13,0,0,0-1.21,1.8c.2.24.5,1.21.76,1.66s.68,1,1,1.58a17.3,17.3,0,0,1,1.42,3c1,2.67,2.13,5.55,2.16,8.44,0,2.45-.91,4.69-3.24,5.76-2.8,1.29-5.78.27-8.7.53a1.21,1.21,0,0,0-.42,2.17Z"/><path class="cls-4" d="M96,181.22a7,7,0,0,1,2.81,5.4,6.47,6.47,0,0,1-.77,2.87,9.41,9.41,0,0,1-2.15,2.34,4.28,4.28,0,0,0-.4.45c-.18.23-.08.13,0,.09-.19.22-.41.41-.58.65a1.08,1.08,0,0,0-.12,1.12,1.58,1.58,0,0,0,1.42.69,4.46,4.46,0,0,0,3.58-1.63,8.92,8.92,0,0,0,2.38-7.47c-.39-2.72-2.29-5.87-5.07-6.65A1.21,1.21,0,0,0,96,181.22Z"/><path class="cls-4" d="M96.67,172.44c2.21,0,3.17-2.07,3.93-3.83a22.12,22.12,0,0,0,1.59-6,14.92,14.92,0,0,0-3.08-11.52,23.65,23.65,0,0,0-8.39-6.93c-3.3-1.6-7-2.79-10.6-1.55-1,.35-1.38,1.91-.14,2.27,1.51.44,3,.82,4.48,1.15a18.85,18.85,0,0,1,4.14,1.39,20.21,20.21,0,0,1,7.19,5.75,11.84,11.84,0,0,1,2.55,9.39,23.32,23.32,0,0,1-1.14,4.82c-.54,1.5-1.56,2.79-1.15,4.46a.72.72,0,0,0,.62.58Z"/><path class="cls-4" d="M98.45,150.51c.78-.94.9-2.67,1.08-3.85a15.42,15.42,0,0,0,.16-3.59,11.73,11.73,0,0,0-3-7.2,38.44,38.44,0,0,0-6.31-5.27,11.15,11.15,0,0,0-3.45-1.84,5.66,5.66,0,0,0-3.81.46,1.31,1.31,0,0,0,.88,2.44,3.84,3.84,0,0,1,2.6.66,19.87,19.87,0,0,1,2.73,1.81,30.17,30.17,0,0,1,5.06,4.45,9.37,9.37,0,0,1,2,5.23,22.61,22.61,0,0,1,0,3.08,10.46,10.46,0,0,0-.18,3.19,1.26,1.26,0,0,0,2.25.43Z"/><path class="cls-4" d="M48.41,132.51c3.38-3.42,8.38-4.87,12.77-2.45s5.7,7.48,5.15,12.28a1,1,0,0,0,1.86.66c2.11-3.07,1.7-6.9.15-10.15a13.06,13.06,0,0,0-7.48-6.47,13.76,13.76,0,0,0-9.69.26,11,11,0,0,0-4,2.78,3,3,0,0,0-1.05,2.38,1.39,1.39,0,0,0,2.26.71Z"/><path class="cls-4" d="M30,130.18c.08-1-.09-1.93-.07-2.89a18,18,0,0,1,.38-3.2,16.72,16.72,0,0,1,2-5.26,11.42,11.42,0,0,1,8.08-5.71,11.06,11.06,0,0,1,8.9,2.85,12.07,12.07,0,0,1,3.07,4.78,22.76,22.76,0,0,1,.83,3,22,22,0,0,0,.68,3.55c.81,2,4.32,2.35,4.69-.2a14.77,14.77,0,0,0-1-6.52,19.37,19.37,0,0,0-2.81-5.53,14.89,14.89,0,0,0-9.49-5.73c-7.23-1.2-13.65,2.78-16.53,9.38a18,18,0,0,0-1.49,5.91c-.12,1.86-.14,4.23.71,5.94a1.11,1.11,0,0,0,2.08-.41Z"/><path class="cls-4" d="M29,128.51c-3-1.26-6.94.9-9,3-2.47,2.48-2.8,5.86-2.51,9.19A18.81,18.81,0,0,0,28,155.92c1,.47,1.7-.9,1.14-1.66-1.5-2.08-3.5-3.59-5.16-5.54a14.58,14.58,0,0,1-3.32-7.05c-.42-2.38-.65-5.49.95-7.5,1.81-2.28,4.56-2.81,7.17-3.59a1.09,1.09,0,0,0,.15-2.07Z"/><path class="cls-4" d="M23.44,149.79c-1.86.27-3,3.15-3.45,4.73a15.68,15.68,0,0,0-.45,6.67,10.32,10.32,0,0,0,1.38,3.22,27.43,27.43,0,0,0,1.93,3,9.92,9.92,0,0,0,2.55,2.37,3.22,3.22,0,0,0,3.26.33,1.14,1.14,0,0,0,.34-1.76,10.21,10.21,0,0,0-2-1.45,7.21,7.21,0,0,1-1.81-1.72,23.36,23.36,0,0,1-1.49-2.27,7.51,7.51,0,0,1-1.16-2.58,12.62,12.62,0,0,1,.3-4.89,10.83,10.83,0,0,1,.71-2.22,9.61,9.61,0,0,0,1.16-2.28c.15-.72-.66-1.21-1.27-1.12Z"/><path class="cls-4" d="M27.47,163.58c-1.61.85-1.38,3.7-1.14,5.2a15.08,15.08,0,0,0,1.76,4.8c1.57,2.83,4,5.92,7.29,6.78a12.51,12.51,0,0,0,9.88-1.92,9,9,0,0,0,3.18-3.95c.68-1.61,1-3.72-.22-5.13a1.29,1.29,0,0,0-2.17.44c-.38,1.24-.18,2.53-.71,3.75A5.83,5.83,0,0,1,43,176.18c-2.08,1.25-5.25,2-7.55.92s-4-3.61-5.11-5.8a13.32,13.32,0,0,1-1.2-3.81c-.2-1.21.23-2.61-.49-3.67a1,1,0,0,0-1.14-.24Z"/><path class="cls-4" d="M42.31,166.5v.13l.15-.4c-.82,1.23.63,2.56,1.59,3.16a12.1,12.1,0,0,0,3.35,1.43,5.12,5.12,0,0,0,3.79-.27,3.38,3.38,0,0,0,1.69-3c0-.91-1.39-1.34-1.65-.37,0,.1,0,.2-.09.3s-.14.21,0,.12-.14.08-.16.1-.21.14-.31.21-.26.19-.17.14l-.13.07-.49.25c.18-.08,0,0-.1,0l-.23.05a2,2,0,0,1-.49,0,4.55,4.55,0,0,1-1.35-.3q-.67-.24-1.32-.54a8.32,8.32,0,0,1-.87-.45,10.45,10.45,0,0,1-1-.68,2.2,2.2,0,0,0-1.23-.66,1,1,0,0,0-1,.61Z"/><path class="cls-4" d="M46.57,175.21a4.75,4.75,0,0,0,.94,1.22c.16.14.34.28.51.41.41.29.82.56,1.25.81A11.22,11.22,0,0,0,52,178.81a7,7,0,0,0,5.81-.84c.83-.56,1.93-1.59,1.38-2.71s-2-.2-2.66.28a4.55,4.55,0,0,1-4.53.36,12.46,12.46,0,0,1-2.75-1.33,3.73,3.73,0,0,0-1.59-.82,1.2,1.2,0,0,0-.88.24,1,1,0,0,0-.25,1.22Z"/><path class="cls-4" d="M57.83,175c-.5-.95-2.81,1.52-3.1,1.84a15.76,15.76,0,0,0-1.84,2.32,10.32,10.32,0,0,0-1.7,6,9.77,9.77,0,0,0,2.53,5.72c1.16,1.36,3.54,3.81,5.45,2.57a.9.9,0,0,0,.31-.88c-.17-1.15-1.39-1.69-2.19-2.33a10.1,10.1,0,0,1-1.81-1.94,6.32,6.32,0,0,1-1.27-5,9.86,9.86,0,0,1,2.55-4.71c.61-.66,1.61-1.33,1.83-2.23a1.7,1.7,0,0,0,0-.95.71.71,0,0,0-.24-.35,1.84,1.84,0,0,0-.5-.12Z"/><path class="cls-4" d="M57.89,191.49c-1.45.78-2,2.9-2.07,4.43a7.54,7.54,0,0,0,1.42,4.91,12.44,12.44,0,0,0,4.43,3.39c1.64.83,4.17,1.93,5.9.79a1.18,1.18,0,0,0-.15-2.14c-.74-.24-1.51-.24-2.26-.41a9.22,9.22,0,0,1-2.1-.81,11.45,11.45,0,0,1-3.56-2.59,5.23,5.23,0,0,1-.93-2.85,5,5,0,0,1,.21-1.67c.19-.62.53-1,.69-1.67.21-.89-.63-1.89-1.58-1.38Z"/><path class="cls-4" d="M66.52,201.88a4,4,0,0,0-1.17,2.21,12.75,12.75,0,0,0-.27,2.89,11,11,0,0,0,1.59,5.23,13,13,0,0,0,3.62,4,6.11,6.11,0,0,0,5.72.51,23.59,23.59,0,0,0,4.89-2.26,4.25,4.25,0,0,0,2-2.12,1.6,1.6,0,0,0-.67-1.79,2.06,2.06,0,0,0-2,.13c-.72.37-1.35.88-2.08,1.24s-1.49.69-2.25,1a7.75,7.75,0,0,1-2.3.65,2.64,2.64,0,0,1-1.79-.7,10.45,10.45,0,0,1-3.1-4.18,9.82,9.82,0,0,1-.72-2.83c-.1-1.14.16-2.28.1-3.42a.91.91,0,0,0-1.48-.53Z"/><path class="cls-4" d="M79.05,206.42c-1,.77-.48,2.06,0,3a12.78,12.78,0,0,0,1.07,1.73A14.62,14.62,0,0,0,82.89,214a15.66,15.66,0,0,0,3.36,2c1.19.52,2.9,1,4.12.31a.94.94,0,0,0,.31-1.44,9.36,9.36,0,0,0-3.31-1.61,12.16,12.16,0,0,1-3-1.64,13.29,13.29,0,0,1-2.32-2.25,8,8,0,0,1-.94-1.3c-.37-.67-.46-1.6-1.31-1.83a.88.88,0,0,0-.8.14Z"/><path class="cls-4" d="M83,212.46a9.85,9.85,0,0,0-2.32,3.09,4.8,4.8,0,0,0-.55,3.73A13.21,13.21,0,0,0,83,224.51a12.84,12.84,0,0,0,4.4,3.41c1.75.79,4.31,1.69,6.15.7a1.57,1.57,0,0,0-.28-2.84,5.52,5.52,0,0,0-1.39-.27l-.58-.09c-.61-.07.31.07-.29,0a11.2,11.2,0,0,1-2.12-.62c-.11,0-.54-.26-.82-.41s-.62-.36-.92-.55a8.83,8.83,0,0,1-1.68-1.34,9.79,9.79,0,0,1-2.28-3.65,2.45,2.45,0,0,1-.21-1.13,3.71,3.71,0,0,1,.6-1.21,9.33,9.33,0,0,0,1.36-3.08c.16-1.07-1.18-1.45-1.9-.93Z"/><path class="cls-4" d="M89.73,226.43a5.83,5.83,0,0,0-1.26,6.39c.84,2,2.78,3.48,4.52,4.62A18.27,18.27,0,0,0,99.07,240c1.12.24,2.25.38,3.37.57a6.34,6.34,0,0,0,3.61.06,1,1,0,0,0,.44-1.27c-1-2-4-1.89-5.91-2.24a16,16,0,0,1-5.24-1.9,10.89,10.89,0,0,1-3.88-3.34,2.48,2.48,0,0,1-.27-2.15c.13-.43.32-.85.43-1.29a2.47,2.47,0,0,0-.28-1.7,1,1,0,0,0-1.61-.33Z"/><path class="cls-4" d="M51.25,116.75c2.19-1.51,4.14-3.15,6.75-3.93,2.41-.72,5.45-1,7.57.62a17.42,17.42,0,0,1,2.73,3A27.15,27.15,0,0,1,70.82,120a11.67,11.67,0,0,1,1.44,3.74c.24,1.36.15,2.74.36,4.09a.92.92,0,0,0,1.48.53c2.57-2.61,1-7.14-.55-9.85a31,31,0,0,0-3-4.15,16.07,16.07,0,0,0-3.66-3.7c-5.31-3.38-14.39-.42-17.18,5.09-.47.94.83,1.52,1.51,1Z"/><path class="cls-4" d="M92.32,131.43a18.67,18.67,0,0,0-3.83-14c-2.92-3.64-7.7-6.31-12.46-6a8.1,8.1,0,0,0-6.41,3.26c-.56.87-1.1,2.31-.46,3.28s1.73.5,2.43-.17a11.4,11.4,0,0,1,2.27-2,6.07,6.07,0,0,1,3.41-.6,12.72,12.72,0,0,1,6,2.23c4.49,3,6.69,8.57,6.34,13.86-.12,1.74,2.45,1.82,2.66.14Z"/><path class="cls-4" d="M112.52,129.77c-.49-1.08-1.94-1-2.92-.85a6.18,6.18,0,0,0-2.8,1.22,6.88,6.88,0,0,0-2.65,5.53,10.78,10.78,0,0,0,2.36,6.31,5,5,0,0,0,2.47,1.67,5.66,5.66,0,0,0,3.56-.36c2.16-.82,4.35-2.17,5.07-4.47.2-.64-.59-1.41-1.15-.84a10.21,10.21,0,0,1-2.39,1.68,17.05,17.05,0,0,1-2.62,1.26,2.51,2.51,0,0,1-2.45-.23,5.5,5.5,0,0,1-1.45-2.16c-.79-1.75-1.13-3.94,0-5.65a3.87,3.87,0,0,1,2-1.61,3.71,3.71,0,0,1,1.27-.2,2,2,0,0,0,1.52-.35.82.82,0,0,0,.22-.95Z"/><path class="cls-4" d="M113.29,142c-.66,1.23.34,2.54,1.18,3.39a6.65,6.65,0,0,0,2.67,1.72,6.47,6.47,0,0,0,6.07-1.29A10.37,10.37,0,0,0,126.5,140a13.75,13.75,0,0,0,.18-3.79,8.63,8.63,0,0,0-.93-3.66,6.92,6.92,0,0,0-3-2.47c-1.16-.58-2.8-1.31-4.08-.74a.76.76,0,0,0-.27,1.16c.84.94,2.3,1.2,3.4,1.76a3.86,3.86,0,0,1,2.23,2.21,11.15,11.15,0,0,1-.38,7.43,5.59,5.59,0,0,1-4.88,3.28,4.38,4.38,0,0,1-2.63-1.11c-.84-.73-1.16-1.82-2.22-2.29a.51.51,0,0,0-.65.27Z"/><path class="cls-4" d="M122.77,130.1a3.89,3.89,0,0,0,.67-1.06,6.09,6.09,0,0,0,.27-1.1,9.39,9.39,0,0,0,.06-2.31,8.86,8.86,0,0,0-1.49-4.19,9,9,0,0,0-3.26-2.69,6.44,6.44,0,0,0-4.66-.78,4,4,0,0,0-3.28,4.19.85.85,0,0,0,1.37.5,21.36,21.36,0,0,0,1.49-1.81,2.62,2.62,0,0,1,1.7-.65,8,8,0,0,1,2.24.21,4.17,4.17,0,0,1,1.7.93,6.69,6.69,0,0,1,2.24,3.74,7.48,7.48,0,0,1,.16,2.21,11.16,11.16,0,0,1-.16,1.14c0,.2-.1.42-.12.63a4.14,4.14,0,0,1,0,.61.61.61,0,0,0,1.08.43Z"/><path class="cls-4" d="M112.59,118.69c.42.33.49.33.21,0a2,2,0,0,0-.36-.29,5.12,5.12,0,0,0-.75-.35,6.21,6.21,0,0,0-1.52-.35,6.52,6.52,0,0,0-3,.55,7,7,0,0,0-3.74,4.36,8.88,8.88,0,0,0,.6,6.28,5.58,5.58,0,0,0,1.94,2.55c.92.58,2.41.89,3.07-.22a.87.87,0,0,0,0-1c-.49-.59-1.24-.82-1.73-1.38a5.36,5.36,0,0,1-1-2,6.76,6.76,0,0,1-.36-2.4,5.17,5.17,0,0,1,.48-1.83,4,4,0,0,1,3.18-2.32,6,6,0,0,1,1,0c.4,0,.76.18,1.16.23a1.31,1.31,0,0,0,1.33-.4.92.92,0,0,0,.16-.72c0-.16-.35-.81-.61-.72Z"/><path class="cls-4" d="M43,204.5a5.37,5.37,0,0,1,.77-1.36,2.59,2.59,0,0,1,1.18-.7,4.7,4.7,0,0,1,3.68.95,3.73,3.73,0,0,1,1.44,2.84,5,5,0,0,1-1.24,3.07.82.82,0,0,0,1,1.22,4,4,0,0,0,2.3-3.24,5.19,5.19,0,0,0-.93-3.89,7.66,7.66,0,0,0-3.29-2.31,5,5,0,0,0-4.05-.07c-1.19.56-2.48,1.94-2.16,3.35a.68.68,0,0,0,1.3.14Z"/><path class="cls-4" d="M43.8,202.62l-.24-.42s-.12-.27-.09-.15,0-.06,0-.07a2.21,2.21,0,0,0-.42-1.29,5.57,5.57,0,0,0-1.73-1.32,8.83,8.83,0,0,0-4.24-1,4.25,4.25,0,0,0-3.68,2.41,4.29,4.29,0,0,0,.35,4,3.76,3.76,0,0,0,4,1.68c.68-.23.39-1.18-.2-1.28a4.28,4.28,0,0,1-1.78-.53,2.47,2.47,0,0,1-1-1.34c-.3-1,0-2.47,1.14-2.73a5.22,5.22,0,0,1,2,0,7.56,7.56,0,0,1,1.78.55,7.89,7.89,0,0,1,1.6,1,3,3,0,0,0,1,.54l.32.08c.12,0,.12,0,0,0a2.91,2.91,0,0,1,.32.46c.3.47,1.09,0,.84-.5Z"/><path class="cls-4" d="M35.12,205.86c-.08.09-.26.16-.36.26a1.77,1.77,0,0,0-.36.53,7.22,7.22,0,0,0-.34,1.09,7.69,7.69,0,0,0-.24,2.14,7,7,0,0,0,1.32,3.86,5.74,5.74,0,0,0,3.55,2.07,6.16,6.16,0,0,0,4.42-.55,4.52,4.52,0,0,0,1.58-1.67c.39-.73.79-1.79.21-2.52l.2.43c0-.18,0-.36,0-.54a.85.85,0,0,0-1.67.07,1.13,1.13,0,0,1-.06.32l.47-.52c-.59.35-.77,1.12-1.13,1.53a2.89,2.89,0,0,1-1.29.89,5.37,5.37,0,0,1-3.68-.35,3.35,3.35,0,0,1-1.76-2.45,5.44,5.44,0,0,1,0-2,8.85,8.85,0,0,1,.23-1,2.7,2.7,0,0,0,.14-.56,4.36,4.36,0,0,0,0-.51c-.08-.22-.09-.26,0-.09a.62.62,0,0,0-1.1-.44Z"/><path class="cls-4" d="M41.89,214.85a4,4,0,0,0,.38,1.25,4.64,4.64,0,0,0,.83,1.08,8.3,8.3,0,0,0,2.25,1.51,5.79,5.79,0,0,0,4.93-.23A10.22,10.22,0,0,0,52.55,217a4.4,4.4,0,0,0,1.38-2.26A5.57,5.57,0,0,0,54,212a10.54,10.54,0,0,0-1.18-2.66.55.55,0,0,0-1,.44,10.19,10.19,0,0,1,.58,2.33,4,4,0,0,1-.08,1.91c-.38,1.14-1.86,1.84-2.88,2.28a3.58,3.58,0,0,1-1.71.26s-.47-.06-.29,0a3.48,3.48,0,0,1-.41-.1c-.27-.08-.54-.16-.81-.27a6.1,6.1,0,0,1-1.29-.8l-.67-.59c-.32-.28-.68-.5-1-.78a.86.86,0,0,0-1.33.84Z"/><path class="cls-4" d="M51.24,209.18a3.43,3.43,0,0,0,.16.45l.21.42a3.5,3.5,0,0,0,.29.54l.13.17a1.54,1.54,0,0,0,.25.26.56.56,0,0,0,.63,0,.58.58,0,0,0,.27-.57,1.42,1.42,0,0,0-.11-.35l-.08-.21a2.9,2.9,0,0,0-.2-.33l-.12-.18-.24-.4a3.58,3.58,0,0,0-.3-.36.53.53,0,0,0-.68-.12.51.51,0,0,0-.22.24.58.58,0,0,0,0,.41Z"/></g></g></g><g id="Layer_102" data-name="Layer 102"><g id="Cola"><rect class="cls-5" width="130" height="250"/></g></g></g></g></svg>