<svg xmlns="http://www.w3.org/2000/svg" xmlns:xlink="http://www.w3.org/1999/xlink" viewBox="0 0 130.46 250"><defs><style>.cls-1{isolation:isolate;}.cls-2{fill:url(#Degradado_sin_nombre_175);}.cls-3{fill:#42210b;}.cls-4{fill:none;mix-blend-mode:multiply;opacity:0.4;}</style><radialGradient id="Degradado_sin_nombre_175" cx="72.79" cy="138.62" fy="161.533962156935" r="82.16" gradientUnits="userSpaceOnUse"><stop offset="0.09" stop-color="#faeb36"/><stop offset="0.24" stop-color="#fa7e36"/><stop offset="0.3" stop-color="#fa6d30"/><stop offset="0.4" stop-color="#f95226"/><stop offset="0.51" stop-color="#f83f1f"/><stop offset="0.62" stop-color="#f8341a"/><stop offset="0.74" stop-color="#f83019"/><stop offset="1" stop-color="#b9051c"/></radialGradient></defs><g class="cls-1"><g id="Layer_2" data-name="Layer 2"><g id="Variacion_A" data-name="Variacion A"><g id="AssetsF4"><g id="TailE4"><path class="cls-2" d="M98.86,244.05c-10.54-3.54-55-19.19-65.75-34.1-13.14-18.19-9.39-41.78-5.57-51.7,1.37-3.57,4.1-5.68,7.26-8.13,6.46-5,14.51-11.26,9.14-31.52-2.53-9.54-5.3-17.95-7.86-24.88,4.83,4.54,10,8.13,14.38,8.13a7.88,7.88,0,0,0,3.9-1c6.28-3.51,5.15-13.68,3.73-26.56-1.16-10.5-2.47-22.4,1-28.14a55,55,0,0,1,10.73-13c1,22.95,5.32,91.91,23.43,106s14.58,44,14.54,44.32l-.66,5.31,5.13-1.53a22.4,22.4,0,0,0,9.33-6.38c-.21,10.3-1,26.32-2,41.48A84,84,0,0,0,107.42,234C103.45,238.54,100.52,242.05,98.86,244.05Z"/><path class="cls-3" d="M76.31,32.77h0M66.8,41.34c.54,9.24,1.49,21.91,3.1,35.22,6.54,54,17.6,62.6,21.24,65.43,16.43,12.83,13.26,40.87,13.22,41.14L103,193.75l10.25-3.07a20.64,20.64,0,0,0,4.63-2.15c-.33,9.26-.93,20.93-1.63,32.13a89.83,89.83,0,0,0-11.5,11.05c-3,3.39-5.35,6.21-7.08,8.27-5.35-1.85-14.9-5.28-25-9.63-25.9-11.11-34.14-18.83-36.75-22.44-12.27-17-8.73-39.09-5.15-48.41,1-2.53,3-4.17,6.14-6.63,8.61-6.67,15.88-14.39,10.38-35.17-1.36-5.13-2.79-9.93-4.22-14.37a16,16,0,0,0,7.37,2,11.33,11.33,0,0,0,5.6-1.43c8.3-4.64,7-16.39,5.5-30-1-9-2.34-21.21.54-25.94a56.41,56.41,0,0,1,4.7-6.63m63.66,130.78h0M73.11,26.57s-8.83,4.42-17,17.77S61.28,93,52.66,97.82a4.48,4.48,0,0,1-2.2.54c-9.44,0-26.63-24.51-26.63-24.51S33.28,92,40.57,119.49,29.28,144,24.28,157s-7,37,6,55S100,248.12,100,248.12s3.73-4.65,10-11.81a74.08,74.08,0,0,1,13-12s3.6-55.44,1.42-55.44c-.19,0-.42.41-.7,1.28C120.24,181.31,111.28,184,111.28,184s4-32-15.85-47.5S73.11,26.57,73.11,26.57Z"/></g></g></g><g id="Layer_102" data-name="Layer 102"><g id="Cola"><rect class="cls-4" width="130" height="250"/></g></g></g></g></svg>