<svg xmlns="http://www.w3.org/2000/svg" xmlns:xlink="http://www.w3.org/1999/xlink" viewBox="0 0 464 265"><defs><style>.cls-1{isolation:isolate;}.cls-2,.cls-3{stroke:#f15a24;}.cls-2,.cls-3,.cls-4{stroke-linecap:round;stroke-linejoin:round;stroke-width:6.97px;}.cls-2{fill:url(#Nueva_muestra_de_degradado_3);}.cls-3{fill:url(#Nueva_muestra_de_degradado_3-2);}.cls-4,.cls-5{fill:none;}.cls-4{stroke:#42210b;}.cls-5{mix-blend-mode:multiply;opacity:0.4;}</style><radialGradient id="Nueva_muestra_de_degradado_3" cx="315.29" cy="104.28" r="114.89" gradientUnits="userSpaceOnUse"><stop offset="0.13" stop-color="#cce0f4"/><stop offset="0.17" stop-color="#cee1eb"/><stop offset="0.24" stop-color="#d4e2d1"/><stop offset="0.33" stop-color="#dde5a8"/><stop offset="0.44" stop-color="#eae96e"/><stop offset="0.56" stop-color="#fbee25"/><stop offset="0.57" stop-color="#fcee21"/><stop offset="0.87" stop-color="#f7931e"/><stop offset="0.99" stop-color="#f15a24"/></radialGradient><radialGradient id="Nueva_muestra_de_degradado_3-2" cx="187.79" cy="142.35" r="145.35" xlink:href="#Nueva_muestra_de_degradado_3"/></defs><g class="cls-1"><g id="Layer_2" data-name="Layer 2"><g id="Variacion_A" data-name="Variacion A"><g id="AssetsF4"><g id="HornE4"><path class="cls-2" d="M439.69,164.85S375.83,17.9,311,12.07,183.82,33.72,182.12,94.49s26.45,93.87,26.45,93.87,17.07,17.46,16.22,3.42-11.95-82.3,3.41-103.95,58-13.32,73.39,0,57,96,57,96l17,3s10.09-6.84,18-10c5-2,6-2,22-2,20.23,0,33,16,33,16Z"/><path class="cls-3" d="M355,178s-86.19-122-168.81-143c-99.6-25.21-166.76,20.26-169,77.13S51.84,200,51.84,200s22.38,16.34,21.26,3.21-17.71-70.13,2.44-90.38c29-29.11,74-27,98.29-6.9,18.24,15.11,108.71,150.9,108.71,150.9s6-25,15-40c5.87-9.78,12.58-12.33,31-25,16-11,30-8,30-8Z"/><path class="cls-4" d="M282.54,256.81l6.12-21.17a96.44,96.44,0,0,1,9-19s7.8-10.34,17.85-15.58l15.36-9.23A54.61,54.61,0,0,1,355.2,185c13.94-.44,20.24,2.25,20.24,2.25s10.8-8.82,18.45-10.64,15.65-1.81,21.65-1.81l14.4,2.49c4.11,1.61,8.5,4.56,12.83,7.91l10.77,8.6"/></g></g></g><g id="Layer_102" data-name="Layer 102"><g id="Cuerno"><rect class="cls-5" width="464" height="265"/></g></g></g></g></svg>