<svg xmlns="http://www.w3.org/2000/svg" xmlns:xlink="http://www.w3.org/1999/xlink" viewBox="0 0 464 265"><defs><style>.cls-1{isolation:isolate;}.cls-2{fill:url(#Nueva_muestra_de_degradado_3);}.cls-3{fill:#f15a24;}.cls-4{fill:#471f05;}.cls-5{fill:url(#Nueva_muestra_de_degradado_3-2);}.cls-6{fill:none;mix-blend-mode:multiply;opacity:0.4;}</style><radialGradient id="Nueva_muestra_de_degradado_3" cx="315.94" cy="114.15" r="131.19" gradientTransform="matrix(1, 0.04, -0.04, 1, 5.08, -11.67)" gradientUnits="userSpaceOnUse"><stop offset="0.13" stop-color="#cce0f4"/><stop offset="0.17" stop-color="#cee1eb"/><stop offset="0.24" stop-color="#d4e2d1"/><stop offset="0.33" stop-color="#dde5a8"/><stop offset="0.44" stop-color="#eae96e"/><stop offset="0.56" stop-color="#fbee25"/><stop offset="0.57" stop-color="#fcee21"/><stop offset="0.87" stop-color="#f7931e"/><stop offset="0.99" stop-color="#f15a24"/></radialGradient><radialGradient id="Nueva_muestra_de_degradado_3-2" cx="220.45" cy="145.28" r="129.48" gradientTransform="matrix(1, 0, 0, 1, 0, 0)" xlink:href="#Nueva_muestra_de_degradado_3"/></defs><g class="cls-1"><g id="Layer_2" data-name="Layer 2"><g id="Variacion_C" data-name="Variacion C"><g id="AssetsF4"><g id="HornE4"><g id="Capa_41" data-name="Capa 41"><path class="cls-2" d="M391.9,176.07c5-1,20-2,25-3,7,0,13,2,17,2-2.34-4.55-9.49-22.36-12.4-26.57a58.6,58.6,0,0,0-15.57-15.11q-2.35-1.62-4.77-3.21c-9.73-2.71-19-6.65-28.24-10.59-5.39-2.29-12.54-3.74-17.43-7.36a7.64,7.64,0,0,1-7.35-4.84,2.06,2.06,0,0,1-1.24-.09,20.46,20.46,0,0,1-6.22-4c-.87-.35-1.72-.73-2.54-1.15A1.81,1.81,0,0,1,336,102c-1.22-1.1-2.46-2.16-3.72-3.2-4.17-2.3-6-7.23-7.89-11.47a2.16,2.16,0,0,1,.32-2.33c-1.62-4.87-1.43-10.58.83-14.45.06-.47.13-.93.2-1.37,1.42-8.31,8.28-13.83,12.59-20.63a1.68,1.68,0,0,1,2.25-.54l.91-1a17.46,17.46,0,0,0-1.5-3.15,24.88,24.88,0,0,0-2.77-3.71c-.76.27-1.52.55-2.27.84a73.17,73.17,0,0,0-10.77,4.92c-7,4.06-12.11,10.49-18.1,15.81a2,2,0,0,1-.67.4c-.56.89-1.13,1.77-1.71,2.65-1.42,2.15-4.88.15-3.46-2l.11-.18a1.62,1.62,0,0,1-1.16-1.22,33.7,33.7,0,0,1-.6-3.71,1.83,1.83,0,0,1-.55-1c0-.17-.07-.34-.1-.51h0v0c-.16-.77-.3-1.55-.42-2.32-1.47-2.8-2.89-5.66-4.09-8.6-1.59-1.74-3.14-3.52-4.71-5.28a1.94,1.94,0,0,1-1-.22c-7.1-3.52-10.39-10.64-14.58-17-.31-.42-.63-.84-.94-1.27-5.19-2.4-10.37-4.83-15.58-7.18-7-3.13-14.35-6.3-22.17-4.79-.57.11-1.15.24-1.71.4a68.53,68.53,0,0,0-7.44-4.11c-13.06,2.23-25.93,5.41-38.82,8.45a93.49,93.49,0,0,0-9.12,5.54l-4.91,3.71-.41.47a10.65,10.65,0,0,0-2,3.77,12.24,12.24,0,0,1,2.33.84,1.5,1.5,0,0,1,.68-.1,69.67,69.67,0,0,1,18.82,3.68,1.68,1.68,0,0,1,.83.28c14.11,5,27,14.3,35.37,26.51A42.77,42.77,0,0,0,233.86,60Q239,67.13,244,74.35A20.7,20.7,0,0,0,244,80c10,10,21.78,22,23.76,36.42q4.66,8.24,8.71,16.8c5.09,8.86,9.53,18.06,12.3,27.89l1.23,1.76a113.54,113.54,0,0,1,10.56,15,113,113,0,0,1,9.82,13.71c2.6,1.78,5.14,3.66,7.69,5.53,9-7.23,20.95-9.53,32-11.78a74.86,74.86,0,0,1,19.73-1.86c1.13.07,2.27.19,3.39.34l1.8-.27C381.3,177,383.28,177.8,391.9,176.07Z"/><path class="cls-3" d="M437.72,177c-1-7.81-2.17-15.67-5.45-22.9-3.15-6.91-8.48-12.48-14.11-17.44A67.54,67.54,0,0,0,400,124.73c-7.73-3.32-16-5.07-24-7.44-7.53-2.21-14.87-5.25-22.22-8-7.72-2.91-15.11-6.46-21.11-12.25-17.62-17-3-37.48,9.75-52,3-3.4-2.84-7.4-5.79-4-10.19,11.68-21.11,25.17-19.18,41.73,2,16.71,17.75,26.74,32.07,32.39,8.31,3.28,16.77,6.66,25.35,9.14s17.49,4.23,25.49,8.31a67.5,67.5,0,0,1,20.9,17.16c6.65,8.16,8.17,18.28,9.5,28.38.59,4.49,7.55,3.36,7-1.14Z"/><path class="cls-3" d="M341.53,39.5c-9.72-.7-19.78,6.07-26.89,12.13-7.63,6.5-12.95,15.45-13.09,25.64,0,2.53,3.9,2.8,3.93.26.15-9.32,5-17.18,11.94-23.11,6.05-5.15,15.46-11.58,23.68-11,2.52.18,3-3.74.43-3.92Z"/><path class="cls-3" d="M306.05,78.8c-3.22-29.44-22.37-56.57-49.76-68.37-28.67-12.36-63.15-7-87.07,12.9-3.3,2.74.92,7.89,4.23,5.15,22.28-18.55,55-23.7,81.56-11.35a78.77,78.77,0,0,1,44.51,63c.4,4.24,7,3,6.53-1.29Z"/><path class="cls-3" d="M217.43,47.55c26.51,19.66,40.77,49.32,53.3,78.91,11.32,26.75,24.2,52.7,48.8,69.61,1.84,1.27,3.58-1.74,1.75-3-26.21-18-38.46-46.83-50.41-75.13-11.77-27.9-26.91-55-51.69-73.4-1.79-1.33-3.52,1.68-1.75,3Z"/><path class="cls-3" d="M169.14,29.74c17.34-1,32.88,7.15,46,17.84,3.19,2.6,7.79-1.94,4.57-4.57-14.39-11.74-31.47-20.88-50.55-19.73-4.13.25-4.16,6.71,0,6.46Z"/><path class="cls-4" d="M377.44,187.14c1.86-1,3.51-2.35,5.35-3.38a47.08,47.08,0,0,1,5.7-2.81A51.68,51.68,0,0,1,401,177.68a74.35,74.35,0,0,1,28.05,2,34.45,34.45,0,0,1,6.4,2.24,25.23,25.23,0,0,1,3.06,1.68c1.14.72,2.34,1.62,3.76,1.12a2.13,2.13,0,0,0,1.5-2c.14-2.67-3.77-4.35-5.74-5.3a41.89,41.89,0,0,0-6.44-2.41A76.58,76.58,0,0,0,417,172.6c-9.8-.86-19.93-.19-29.11,3.59a41.45,41.45,0,0,0-6.88,3.47,23.1,23.1,0,0,0-6,5c-1.13,1.5.94,3.25,2.39,2.48Z"/></g><g id="Capa_40" data-name="Capa 40"><g id="Capa_39" data-name="Capa 39"><path class="cls-5" d="M360.48,181.07c-5.23-5.54-9.06-12-13.1-18.49-.69-1.1-1.48-2.67-2.36-4.38-1.06-.75-2.13-1.46-3.21-2.12a1.8,1.8,0,0,1-.89-1.23,31.9,31.9,0,0,1-7.57-3.33,1.74,1.74,0,0,1-2.08,1.2c-.52-.14-1-.29-1.55-.46a13.67,13.67,0,0,1-8.61-2.47,12.48,12.48,0,0,1-2.33-2.2c-1.82-.16-3.69-.19-5.56-.23a1.88,1.88,0,0,1-1,0l-.23,0a53.43,53.43,0,0,1-6.73-.47A49.27,49.27,0,0,1,293,145.12c-.81-.09-1.62-.17-2.42-.27a2.32,2.32,0,0,1-2.27,1.87c-6.32-.25-12.06-2.7-17.8-5.13h0a1.53,1.53,0,0,1-.41-.17l-.61-.26a23.5,23.5,0,0,1-4.61-1.44,2.27,2.27,0,0,1-1.7,1.69,7.54,7.54,0,0,1-8.38-4.43,2.06,2.06,0,0,1-1.25,0,20.4,20.4,0,0,1-6.36-3.81c-.89-.31-1.75-.66-2.59-1a1.8,1.8,0,0,1-2.18-.07c-1.26-1-2.54-2.06-3.83-3-4.26-2.14-6.26-7-8.33-11.16a2.17,2.17,0,0,1,.23-2.34c-1.8-4.8-1.83-10.52.28-14.47q.06-.7.15-1.38c1.1-8.36,7.74-14.14,11.78-21.09a1.69,1.69,0,0,1,2.23-.63l.87-1.07a17.28,17.28,0,0,0-1.62-3.1,23.94,23.94,0,0,0-2.91-3.6c-.74.31-1.49.61-2.23.93a73.27,73.27,0,0,0-10.58,5.33c-6.84,4.33-11.7,11-17.48,16.49a2.09,2.09,0,0,1-.65.43c-.53.9-1.06,1.81-1.61,2.71-1.33,2.2-4.87.33-3.53-1.87l.1-.18A1.66,1.66,0,0,1,204,92.79a34.37,34.37,0,0,1-.73-3.69,1.77,1.77,0,0,1-.6-1c0-.17-.07-.34-.12-.51h0c-.19-.77-.37-1.54-.51-2.31-1.58-2.74-3.11-5.55-4.42-8.44-1.65-1.68-3.27-3.39-4.91-5.09a2,2,0,0,1-1-.19C184.55,68.33,181,61.35,176.56,55.2l-1-1.24c-5.28-2.2-10.54-4.43-15.85-6.57-7.07-2.87-14.57-5.75-22.33-4-.57.14-1.14.29-1.7.47a68.2,68.2,0,0,0-7.59-3.82c-13,2.73-25.7,6.4-38.46,9.93a96.5,96.5,0,0,0-8.91,5.88c-1.58,1.31-3.17,2.6-4.76,3.9l-.39.48a10.52,10.52,0,0,0-1.9,3.85,11.68,11.68,0,0,1,2.35.75,1.65,1.65,0,0,1,.68-.13,69.82,69.82,0,0,1,18.94,3,1.73,1.73,0,0,1,.85.25C110.79,72.4,124,81.21,132.86,93.1a43,43,0,0,0,5.87.91c3.61,4.6,7.14,9.26,10.64,13.93a20.34,20.34,0,0,0,.29,5.6c10.39,9.65,22.6,21.14,25.14,35.5,3.32,5.36,6.42,10.86,9.34,16.45,5.43,8.66,10.22,17.68,13.36,27.39l1.29,1.72a113.34,113.34,0,0,1,11.13,14.59,114,114,0,0,1,10.35,13.33c2.74,1.72,5.42,3.56,8.11,5.38l1.34.43c10.92-.44,21.2,5.63,30.56,12.06A128.58,128.58,0,0,1,277,246.57a2,2,0,0,1,.83.71,33,33,0,0,1,3.38,1.53c.39-.32.76-.68,1.13-1a104.39,104.39,0,0,1,8.56-21.57l.2-1c.1-.23.21-.51.36-.87.45-1,.92-2,1.43-2.9.39-.74.82-1.46,1.24-2.17,2.51-2.5,4.57-5.59,7.18-8,.82-.77,1.66-1.53,2.51-2.27l-2.35,2c.48-1.33,4.24-3.28,5.39-4.12s2.1-1.48,3.15-2.21,2-1.61,3.06-2.38c13.59-10.12,30-17.8,46.93-19.89.24-.23.47-.47.7-.72C360.66,181.41,360.56,181.24,360.48,181.07Z"/></g><g id="Capa_38" data-name="Capa 38"><path class="cls-3" d="M360.92,181.25C356.71,167,346,156.12,332.56,150c-15.63-7.15-32.59-7.48-49.44-7.9-17.46-.44-36.49-4.59-48.21-18.78-13.27-16.07,1-35.38,11.51-48.28,2.87-3.53-2.95-7.53-5.79-4-10.26,12.7-21.75,28.36-17,45.72,4.26,15.57,21.74,25.56,36.28,29.59,18.41,5.09,37.91,1.31,56.5,5.63C332.67,155.74,349,165.5,354,182.39c1.27,4.28,8.23,3.21,6.95-1.14Z"/><path class="cls-3" d="M245.46,69.4c-9.54-.34-19,6.45-25.8,12.53-7.69,6.84-13,16.18-12.77,26.66.06,2.51,4,2.8,3.93.26-.2-9,3.94-16.85,10.39-23,5.85-5.57,15.37-12.79,23.83-12.53,2.51.07,3-3.83.42-3.92Z"/><path class="cls-3" d="M211.47,110.14c-4.31-29.48-24.56-55.59-52.39-66.53-28.91-11.38-63.42-4.56-86.4,16.13-3.18,2.87,1,8,4.23,5.15,21.15-19,52.38-25.46,79.15-15.35,25.95,9.79,45.13,34.54,48.87,61.89.58,4.24,7.16,3,6.54-1.29Z"/><path class="cls-3" d="M120.69,83.76c7,4.91,13,11,18.75,17.35s11.73,12.84,16.67,20c9.55,13.74,16.7,28.9,24,43.89,7.16,14.69,14.35,29.3,25,41.81a132.58,132.58,0,0,0,32.65,27.41,156,156,0,0,0,45.93,18c4.52,1,6.44-5.93,1.91-7-28.68-6.46-55.53-20.57-74.9-43-21.57-25-30-58.67-48.91-85.55-5.18-7.35-11.29-14-17.28-20.69a118.81,118.81,0,0,0-20.21-18.47c-3.82-2.66-7.42,3.59-3.64,6.22Z"/><path class="cls-3" d="M72.62,66.24c17.66-1.75,33.56,6.11,47.32,16.48,3.32,2.5,6.54-3.1,3.26-5.58-14.57-11-31.91-19.21-50.58-17.36-4.09.41-4.14,6.87,0,6.46Z"/></g><path class="cls-4" d="M364.39,182c-2.18-1.41-4.88-1.25-7.38-1a58.25,58.25,0,0,0-6.95,1,86.1,86.1,0,0,0-12.76,3.88A111.19,111.19,0,0,0,316.46,196a69.54,69.54,0,0,0-17.1,15.07c-5.44,6.87-8.67,14.79-11.75,22.91-1.81,4.79-3.61,9.61-5,14.54A63.38,63.38,0,0,0,281,256a24.41,24.41,0,0,0-.37,3.91,4.8,4.8,0,0,0,1.3,3.42,1.52,1.52,0,0,0,2.11.08c1.88-1.67,1.93-4.17,2.36-6.5.39-2.12.88-4.23,1.44-6.32,1.12-4.11,2.55-8.13,4-12.12,2.84-7.57,5.58-15.4,10.4-22,8.54-11.68,21.42-19.3,34.67-24.53a106.61,106.61,0,0,1,13.37-4.39,47.5,47.5,0,0,1,6.82-1.21c1.15-.12,2.3-.16,3.45-.26a10.47,10.47,0,0,0,3.8-.94,1.87,1.87,0,0,0,0-3.19Z"/></g></g></g></g><g id="Layer_102" data-name="Layer 102"><g id="Cuerno"><rect class="cls-6" width="464" height="265"/></g></g></g></g></svg>