<svg xmlns="http://www.w3.org/2000/svg" xmlns:xlink="http://www.w3.org/1999/xlink" viewBox="0 0 464 265"><defs><style>.cls-1{isolation:isolate;}.cls-2{fill:url(#Degradado_sin_nombre_9);}.cls-3{fill:url(#Degradado_sin_nombre_9-2);}.cls-4{fill:url(#Degradado_sin_nombre_9-3);}.cls-5{fill:url(#Degradado_sin_nombre_9-4);}.cls-6{fill:url(#Degradado_sin_nombre_9-5);}.cls-7{fill:url(#Degradado_sin_nombre_9-6);}.cls-8{fill:url(#Degradado_sin_nombre_9-7);}.cls-9{fill:url(#Degradado_sin_nombre_9-8);}.cls-10{fill:url(#Degradado_sin_nombre_9-9);}.cls-11{fill:url(#Degradado_sin_nombre_9-10);}.cls-12{fill:#df6437;}.cls-13{fill:#471f05;}.cls-14{fill:url(#Degradado_sin_nombre_9-12);}.cls-15{fill:none;mix-blend-mode:multiply;opacity:0.4;}</style><radialGradient id="Degradado_sin_nombre_9" cx="135.24" cy="118.67" r="15.17" gradientUnits="userSpaceOnUse"><stop offset="0.13" stop-color="#cedff1"/><stop offset="0.17" stop-color="#d0e0e9"/><stop offset="0.24" stop-color="#d6e0d1"/><stop offset="0.33" stop-color="#dee3ad"/><stop offset="0.44" stop-color="#e9e780"/><stop offset="0.56" stop-color="#f8ec57"/><stop offset="0.57" stop-color="#f9ec56"/><stop offset="0.87" stop-color="#e9963e"/><stop offset="0.99" stop-color="#df6437"/></radialGradient><radialGradient id="Degradado_sin_nombre_9-2" cx="100.73" cy="89.04" r="7" xlink:href="#Degradado_sin_nombre_9"/><radialGradient id="Degradado_sin_nombre_9-3" cx="146.97" cy="51.39" r="9.84" xlink:href="#Degradado_sin_nombre_9"/><radialGradient id="Degradado_sin_nombre_9-4" cx="215.54" cy="88.68" r="12.83" xlink:href="#Degradado_sin_nombre_9"/><radialGradient id="Degradado_sin_nombre_9-5" cx="311.71" cy="77.5" r="9.97" xlink:href="#Degradado_sin_nombre_9"/><radialGradient id="Degradado_sin_nombre_9-6" cx="410.48" cy="27.69" r="6.44" xlink:href="#Degradado_sin_nombre_9"/><radialGradient id="Degradado_sin_nombre_9-7" cx="342.48" cy="109.99" r="29.35" gradientTransform="translate(194.86 76.84) scale(0.43 0.49)" xlink:href="#Degradado_sin_nombre_9"/><radialGradient id="Degradado_sin_nombre_9-8" cx="118.97" cy="177.95" r="42.66" gradientTransform="translate(59.28 55.59) scale(0.63 0.75)" xlink:href="#Degradado_sin_nombre_9"/><radialGradient id="Degradado_sin_nombre_9-9" cx="236.51" cy="143.78" r="94" xlink:href="#Degradado_sin_nombre_9"/><radialGradient id="Degradado_sin_nombre_9-10" cx="346.01" cy="94.58" r="104.98" xlink:href="#Degradado_sin_nombre_9"/><radialGradient id="Degradado_sin_nombre_9-12" cx="183.48" cy="238.69" r="6.44" xlink:href="#Degradado_sin_nombre_9"/></defs><g class="cls-1"><g id="Layer_2" data-name="Layer 2"><g id="Variacion_B" data-name="Variacion B"><g id="AssetsF4"><g id="HornF4"><g id="Capa_38" data-name="Capa 38"><path class="cls-2" d="M141.62,118.67a1.7,1.7,0,0,0-.75-1.18c-.31-1.82-.9-3.65-1.32-5.35-1.11-4.38-2.22-8.82-4.67-12.67a2.78,2.78,0,0,0-5,1.71c0,.65.13,1.28.21,1.92a2.14,2.14,0,0,0-.41,1.67q.75,4.68,1.72,9.31a2.56,2.56,0,0,0-.55,1,38.82,38.82,0,0,0-1.11,5.52,17.4,17.4,0,0,0,.3,13.16,2.8,2.8,0,0,0,1.34,1.41c0,.28.1.56.16.83a2,2,0,0,0,1.47,1.57c-.1,1.42,2.16,2.11,3,.82C140.16,132.42,142.88,126,141.62,118.67Z"/><path class="cls-3" d="M104.86,88.23c-.4-.76-1.35-1.25-2-1.79a21.6,21.6,0,0,1-4.24-5.61c-.66-1.14-2.77-.61-2.33.82.3,1,.57,1.94.84,2.92a1.19,1.19,0,0,0-.83,1A15.41,15.41,0,0,0,98,94.43a1.35,1.35,0,0,0,.25.28c.08.26.17.51.27.78a1.54,1.54,0,0,0,2,1.73.56.56,0,0,0,1,.45C103.1,95.78,106.2,90.78,104.86,88.23Z"/><path class="cls-4" d="M152.68,56.37c-.61-6-1.69-12-5.45-16.91-1.26-1.65-3.39.18-3.14,1.78.06.38.11.75.15,1.13A1.79,1.79,0,0,0,143,44c-.1.69-.2,1.38-.28,2.06a2.41,2.41,0,0,0-1.28,1.72,13,13,0,0,0-.3,3,44.66,44.66,0,0,0,.15,8.17,2.71,2.71,0,0,0,2.18,2.34l0,.09a2.83,2.83,0,0,0,.37.76A1.19,1.19,0,0,0,144.8,64c2.11.07,5.31-.26,6.94-1.82S152.89,58.47,152.68,56.37Z"/><path class="cls-5" d="M223.72,95.74,220,90.3a1.92,1.92,0,0,0-1.54-.91,1.09,1.09,0,0,0-.14-.23c-.16-.19-.31-.39-.46-.59l-.19-.28a2.6,2.6,0,0,0-.35-.44c-.62-.85-1.27-1.76-1.95-2.63A21.37,21.37,0,0,1,212.33,75a2.51,2.51,0,0,0-4.92-.47c-1,3.55,0,7,.62,10.57a2.21,2.21,0,0,1,.05.25c-.38,2.41.06,5.14.21,7.4a2.37,2.37,0,0,0,.9,1.8l2.36,6.84a2.67,2.67,0,0,0,.8,1.2,1.55,1.55,0,0,0,2.18,1.9c2.31-1.2,7.44-2.77,8.45-5.5a2.46,2.46,0,0,0,.15-.53A1.82,1.82,0,0,0,223.72,95.74Z"/><path class="cls-6" d="M320.61,79a2,2,0,0,0-.72-1c-4.7-3.51-9.31-7.15-14.16-10.44a2.46,2.46,0,0,0-3.55,1.6L302,70.53a1.82,1.82,0,0,0,1.7,2.15,34.88,34.88,0,0,0,4,7.49c1.37,2.06,2.65,4.69,4.71,6.16a5.37,5.37,0,0,0,1.89.89,1.15,1.15,0,0,0,1.34.47c3.43-1,5.38-3.83,5.71-7.29A1.46,1.46,0,0,0,320.61,79Z"/><path class="cls-7" d="M416.14,28.74a2.08,2.08,0,0,0-.88-.79,4.81,4.81,0,0,0-1.77-2.12c-.53-.64-1.08-1.26-1.66-1.85a1.76,1.76,0,0,0-1.92-.5c-1-.75-1.91-1.5-2.85-2.27-1.31-1.06-3.39.94-2.4,2.3l0,0a1.62,1.62,0,0,0,.14,1.55C406,27,407.05,29,408.05,31a1.58,1.58,0,0,0,1.78.93c.23.18.47.33.71.5l.12.34a2.26,2.26,0,0,0,1.5,1.28.72.72,0,0,0,.83.35C415.11,33.91,417.57,31,416.14,28.74Z"/><path class="cls-8" d="M352.49,134.76a1.11,1.11,0,0,0-.87-.81,4.22,4.22,0,0,0-1-1.13,7.58,7.58,0,0,0-1-1.5,1.66,1.66,0,0,0-1.64-.71l-1.19-1.13a1.08,1.08,0,0,0-1.33-.21l-.68-.51a1.44,1.44,0,0,0-.6-.83,30.35,30.35,0,0,1-6.18-4.8c-.47-.58-.94-1.16-1.42-1.72a1,1,0,0,0-.69-.37,10.27,10.27,0,0,1-2.1-3.86c-.11-.4-.22-.79-.32-1.18-.47-1.78-2.8-.8-2.38,1,.08.31.16.61.25.9.27,1,.56,2,.86,3a1.45,1.45,0,0,0-.06,1.19l1.59,4.81a22.32,22.32,0,0,0,1.13,3.44,1.45,1.45,0,0,0,.7.74,1.45,1.45,0,0,0-.18,1.84,21.86,21.86,0,0,0,3.38,4.18,1.23,1.23,0,0,0,.78.36l1.17,2a1.08,1.08,0,0,0,1.47.51c.52.78,1,1.55,1.45,2.16a1.27,1.27,0,0,0,1.07.53,1,1,0,0,0,1.27,0c.26.32.53.64.82,1a4.73,4.73,0,0,0,.49.53,1,1,0,0,0,1,.29l1.2,1.06a1.16,1.16,0,0,0,1.19.2,1.11,1.11,0,0,0,1,.55c.36.68,1.38.8,1.56-.18a23.69,23.69,0,0,0,.39-4.09A19.91,19.91,0,0,0,352.49,134.76Z"/><path class="cls-9" d="M158.45,217c-1.4-5.23-2.77-11.31-5.83-15.54-3.32-4.6-8.24-7.41-12.59-10.34-4.63-3.12-9.41-6-13.8-9.63a17.9,17.9,0,0,1-5.44-6.48c-1.31-2.86-2.3-5.65-4-8.21a2.65,2.65,0,0,0-1.77-1.19,65.75,65.75,0,0,1,1.66-7.5c.81-2.86-2.59-4.24-3.63-1.58a60,60,0,0,0-3.9,21.71,4,4,0,0,0-.08,1.71c.3,5.31-.17,10.57,1.22,15.73a36.93,36.93,0,0,0,5.09,11.17c3,7.49,10,12.69,16.37,14.8a37.79,37.79,0,0,0,24.56-.4A3.64,3.64,0,0,0,158.45,217Z"/><path class="cls-10" d="M284,242.31c2.26-7.56,6.59-19.51,11.77-25.51a146.6,146.6,0,0,1,12-11.66c2.78-2.55,5.77-6.08,9.41-7.58a8,8,0,0,0-6.25-3.13c-1-.06-2-.07-3-.05-2.8-3.34-7.56-4.9-11.36-6.74-4.5-2.18-9-4.29-13.55-6.41-8.59-4-17.08-8.29-25.27-13.09C243.06,159.5,229.55,150,218.31,137a143.74,143.74,0,0,1-24.82-40.85,189.94,189.94,0,0,1-8.34-27.21,61.7,61.7,0,0,1-1.23-14.79c0-5.32.15-9.42-3.38-13.72a3.19,3.19,0,0,0-4.42-.5C170.27,45,170.47,53,170.29,60.25a14.44,14.44,0,0,0-1.9-.31,11.15,11.15,0,0,0-2.24,0c-.8,5.91-3.05,12-4.52,17.42-2.46,9.06-4.85,18.1-3.92,27.57a1.61,1.61,0,0,1-1.23,1.84c.38,20.75,3.1,41.3,11.77,60.58q1,2.31,2.16,4.57c0,.29,0,.58.07.88.14,1,.33,2.1.54,3.15h0s0,.05,0,.08c2.52,12.35,9.81,24.05,16.81,34.31a108.92,108.92,0,0,0,15.51,18.3,1.75,1.75,0,0,1,1.53.25c9.18,5.94,20.78,9,31.17,12.06,8.83,2.61,18,4.67,27.15,4.84a52.54,52.54,0,0,0,6.09-2.43c4.62-.28,9.07-1.5,12.33-4.62.39-.37.06,4,.41,3.54A8.92,8.92,0,0,0,284,242.31Z"/><path class="cls-11" d="M380.73,164.41c0,.64-.7,6.76-.2,4.27-.88,4.44-.85,8.6.82,12.3,5-3.61,11.31-4.43,17.34-5.13a73,73,0,0,1,24.82,1.48,89.64,89.64,0,0,1,18.59,6.79c1.71.82,3.65,1.73,5.49,2.83a18.39,18.39,0,0,0,1.93-1.13,19.22,19.22,0,0,0,1.81-1,2.29,2.29,0,0,1,0-.65c.33-3.3.67-6.6,1.07-9.89-.64-4.26-.66-8.62-1-13-.14-1.56-.25-3.11-.36-4.67-2.31-7.63-2.41-15.83-2.66-23.74,0-1,0-2,0-3-.44-2-.88-3.91-1.33-5.87-1.13-4.92-2.72-10.82-1.22-15.88q-.61-2.73-1.13-5.48c-2.57-6.68-5.43-13.25-8.2-19.85a1.84,1.84,0,0,1-.12-.94c-2.09-3.84-4.15-7.7-5.92-11.68a2,2,0,0,1-.16-.63c-1.61-2.13-3.23-4.25-4.84-6.35-5.57-7.26-11.12-14.56-18-20.66-7.46-6.62-16.15-11-25.56-14.27a248.46,248.46,0,0,0-50.53-11.37c-10.66-3.12-21.36-6-32.13-8.66-21.84-.94-43.68-.32-65.5.73a14,14,0,0,0-1.1,4.31,18.52,18.52,0,0,0,.34,5.38l2,.56a2,2,0,0,1,1.4-.38c7.33.94,14.21,3.38,21.2,5.64s14.42,3.87,21,7.51a2,2,0,0,1,0,3.6c1.48.71,3.11,1.17,4.53,2,.76.44,1.51.91,2.25,1.4l3.69.85a1.74,1.74,0,0,1,2.69-.35q1.78,1.5,3.54,3.05a1.76,1.76,0,0,1,1.21.46l2.8,2.36A23.48,23.48,0,0,1,304,48.55c3.8,1.41,7.25,3.3,9.44,6.8a2.2,2.2,0,0,1,.34,1.18,45,45,0,0,1,6.61,7.18c.59.75,1.15,1.51,1.7,2.28,1,.77,2.08,1.56,3.08,2.38.38.36,1.92,1.73,2.21,2,1.35,1.26,2.67,2.54,4,3.85q3.63,3.68,7,7.57a195.84,195.84,0,0,1,12.27,15.7c.23.36,1.68,2.48,1.7,2.52q1.33,2,2.63,4c2,3.16,4,6.37,5.87,9.6,3.62,6.19,7.12,12.47,10.35,18.87,1.61,3.21,3.15,6.45,4.56,9.76a45.7,45.7,0,0,1,3.22,9.38,62,62,0,0,1,1.79,9.37C380.66,161,380.75,164,380.73,164.41Z"/><path class="cls-11" d="M429,186.91a22.83,22.83,0,0,0,4.58,1.71Q431.31,187.71,429,186.91Z"/></g><g id="Capa_37" data-name="Capa 37"><path class="cls-12" d="M317.67,194.88c.31-.19.27.24.11-.19,0-.15-.41-.4-.53-.51a11.73,11.73,0,0,0-1.64-1.18c-1-.61-2-1.16-3.08-1.69-1.92-1-3.84-2-5.79-2.89q-5.92-2.82-11.87-5.56c-7.59-3.52-15.18-7.05-22.58-11a174.6,174.6,0,0,1-37-25.86,164.35,164.35,0,0,1-28.21-33.42q-3-4.73-5.68-9.66c-1.85-3.44-3.08-6-4.67-9.55a133.12,133.12,0,0,1-7.41-21A104.83,104.83,0,0,1,186,51.12a181.1,181.1,0,0,1,.62-22c.12-1.75.27-3.5.48-5.24.29-2.42-3.23-2.83-4-.75a59.33,59.33,0,0,0-3.35,11.12,74.44,74.44,0,0,0-1,11.92,113.06,113.06,0,0,0,2.35,23.57,137.45,137.45,0,0,0,17.36,43.76,173.1,173.1,0,0,0,29.49,36.35,178,178,0,0,0,38.74,27.74c7.65,4.08,15.53,7.7,23.43,11.28,4.1,1.86,8.2,3.71,12.32,5.52,2.11.93,4.24,1.81,6.37,2.69a26.17,26.17,0,0,0,6.81,2.14c1.24.15,2.54.31,3.33-.93a2.38,2.38,0,0,0,.29-1.77c-.06-.28-1-2-1.55-1.67Z"/><path class="cls-12" d="M182.92,21.79a114.21,114.21,0,0,0-8,13.24q-3.49,6.84-6.33,14A184.27,184.27,0,0,0,159.66,78,191.58,191.58,0,0,0,156.18,139c2.16,20.23,7.76,40.36,17.64,58.21,9.51,17.19,23.41,31.91,40.85,41.15a82.44,82.44,0,0,0,27.13,9c11,1.54,22,.16,33-.83l8.7-.79a3.73,3.73,0,1,0-.33-7.45l-17.42,1.55a125.73,125.73,0,0,1-16.23.76l-1.58-.08-1-.07c-.08,0-.74-.06-.19,0-1.18-.1-2.36-.25-3.54-.41q-3.33-.48-6.6-1.25t-6.66-1.9a62.76,62.76,0,0,1-5.94-2.29c-16.95-7.4-30.68-20-40.6-35.55-10.28-16.12-16.48-35.17-19.35-53.89a181.87,181.87,0,0,1,.29-58.3A189,189,0,0,1,171.69,58c1.58-4.66,3.36-9.23,5.27-13.76s4.13-8.82,6.15-13.26c1.06-2.33,2.18-4.62,3.34-6.9s-1.95-4.56-3.53-2.29Z"/><path class="cls-12" d="M381.28,182.14c2.37-4.42,3.07-9.53,3.31-14.5A61.65,61.65,0,0,0,383.21,153c-1.73-8.79-4.93-17.3-8.48-25.51A193.08,193.08,0,0,0,350.65,86.4a206,206,0,0,0-33.18-34.24,201.8,201.8,0,0,0-40.21-25.61,176.94,176.94,0,0,0-22.52-9c-9.17-3-18.9-5.2-28.56-5.24a53.69,53.69,0,0,0-7.6.59c-2.27.32-1.85,3.77.32,3.92,10,.69,19.74,3.16,29.2,6.26,1.85.61,3.67,1.26,5.51,1.89l2.65.92,1.22.45c.41.15,0,0,0,0,.35.12.7.26,1.05.39q5.33,2,10.51,4.34A204.17,204.17,0,0,1,289.53,41.7q4.89,2.89,9.61,6.08l2.31,1.58.37.26.37.26,1.37,1q2.26,1.64,4.49,3.33a201.18,201.18,0,0,1,17.53,15.07q4.17,4,8.09,8.26,1.9,2.06,3.75,4.17c.61.7,1.22,1.4,1.82,2.11l.48.57c.4.48-.28-.33.12.14l1,1.15a199.25,199.25,0,0,1,24.89,38.59c1.72,3.51,3,6.35,4.53,10.06,1.67,4.05,3.22,8.17,4.52,12.36,2.69,8.7,4.38,17.9,3.39,27-.26,2.39-.73,4.77-1.06,7.14s3.18,3.25,4.22,1.31Z"/><path class="cls-12" d="M220.63,15.56c6.18-.19,12.33-1,18.5-1.44s12.36-.68,18.54-.87c12.26-.37,24.56-.13,36.8.72a344.25,344.25,0,0,1,36.06,4.41,247.43,247.43,0,0,1,35.34,8.41c19.26,6.4,35.4,18,48.47,33.38,1.28,1.51,2.82,3.45,4.22,5.32s2.87,3.94,4.22,6a128.51,128.51,0,0,1,7.42,12.61A124.31,124.31,0,0,1,436.36,98a157,157,0,0,1,5.18,16.41,181.17,181.17,0,0,1,5.22,33.71q.57,8.75.42,17.51c-.09,5.73-.54,11.44-.76,17.17,0,1.08.08,2.16.07,3.25,0,.27,0,.54,0,.81s-.11.81,0,.24a3.75,3.75,0,0,1-.44,1.25c-1.56,2.87,2.21,6,4.59,3.55a9.91,9.91,0,0,0,2.37-3.83,15.72,15.72,0,0,0,.53-4c.18-2.72.57-5.78.76-8.79q.54-9,.36-18a196.41,196.41,0,0,0-3.89-35.69c-4.4-21.5-13-42.25-26.24-59.85-12.15-16.19-28-29.82-46.7-37.88C366.38,19,354.25,16,342.1,13.47a365,365,0,0,0-37.78-5.65,325.86,325.86,0,0,0-75,1.21,81.3,81.3,0,0,0-9.18,1.64c-2.65.67-2.33,5,.53,4.89Z"/><path class="cls-12" d="M135.78,138.47c-1.59-.92-2.41-2.46-3.39-4a15.93,15.93,0,0,1-2.06-4.59c-1.08-4.11-.57-8.35.34-12.43,1.92-8.55,5.21-17.85.47-26.09a1,1,0,0,0-1.9.85c1.62,4.4,1.16,9.4.27,13.9-.94,4.72-2.45,9.3-3.15,14.07a25.08,25.08,0,0,0,1,12.25,14.12,14.12,0,0,0,2.59,4.66,15.2,15.2,0,0,0,4.87,3.12c1,.51,2-1.19,1-1.77Z"/><path class="cls-12" d="M127.6,91.53c2,2.73,3.58,5.76,5.53,8.55a54.25,54.25,0,0,1,5,8.66,33.3,33.3,0,0,1,2.67,9.22,39.69,39.69,0,0,1-.22,9.8c-.19,1.66,2.06,2,2.71.61,3.05-6.35,1.15-14.35-1.57-20.46a55.64,55.64,0,0,0-5.38-9.19c-2.16-3.06-5-5.47-7.39-8.29a.88.88,0,0,0-1.38,1.1Z"/><path class="cls-12" d="M158.62,219.77a13.52,13.52,0,0,0,.54-4.29,19.43,19.43,0,0,0-1-4.51,28.89,28.89,0,0,0-3.9-7.49,52,52,0,0,0-11.91-11.35c-8.72-6.36-18.54-12.24-23-22.58a27.38,27.38,0,0,1-1.56-17.88,1.07,1.07,0,0,0-2-.72c-4.64,10.1.29,22.12,7.4,29.71,7.58,8.1,18,12.81,25.61,20.83a36.43,36.43,0,0,1,5.71,7.81,19.63,19.63,0,0,1,1.83,4.54,22.23,22.23,0,0,1,.52,2.58,21,21,0,0,1,.49,3.21.67.67,0,0,0,1.33.14Z"/><path class="cls-12" d="M115.23,151.31a74.72,74.72,0,0,0-4.31,8.34,61.43,61.43,0,0,0-2.75,9.5,60.15,60.15,0,0,0-1,19c1.18,11,5.95,22.54,14.84,29.55a32.88,32.88,0,0,0,19,7c1.24,0,1.78-1.9.46-2.26-5.56-1.5-11.23-2.72-16.15-5.87A30.89,30.89,0,0,1,115,205.26c-5.59-10.19-6.65-22.07-4.83-33.4a65.45,65.45,0,0,1,2.64-10.6,84.76,84.76,0,0,1,3.36-9.57c.28-.59-.63-.93-.93-.38Z"/><path class="cls-12" d="M145.82,63.92a6,6,0,0,1-1.92-2.86c-.42-1-.92-2-1.26-3a15.48,15.48,0,0,1-.62-6.59A24.65,24.65,0,0,1,144.26,44c.59-1.28,1.29-2.48,1.93-3.72s1.07-2.67,1.62-4-1.16-2-2-1.07a24.44,24.44,0,0,0-3.07,3.86c-.76,1.35-1.47,2.74-2.11,4.16A24.84,24.84,0,0,0,138.36,52a18.82,18.82,0,0,0,1.18,7.54,8.47,8.47,0,0,0,2,3.25,23.78,23.78,0,0,0,3.32,2.37.77.77,0,0,0,.93-1.22Z"/><path class="cls-12" d="M145.77,35.88c.13,5,2.43,9.33,4.49,13.71,1.85,3.92,2.6,8.3.74,12.37a1.17,1.17,0,0,0,1.82,1.31c3.87-3.52,2.81-9.19,1-13.52A48.55,48.55,0,0,0,150.24,43a16.15,16.15,0,0,1-2.86-7.41c-.08-1.06-1.64-.78-1.61.25Z"/><path class="cls-12" d="M101.6,97.14a4.9,4.9,0,0,1-3.13-2.85,17.26,17.26,0,0,1-1.27-4.16A15.93,15.93,0,0,1,97.69,85c.4-1.94,1-3.85,1.54-5.75a1,1,0,0,0-1.87-.74,26.11,26.11,0,0,0-2.77,6.4,15.72,15.72,0,0,0-.24,6.37A10,10,0,0,0,101,98.66c1,.31,1.61-1.16.61-1.52Z"/><path class="cls-12" d="M100.76,85l.06,0,.14.09a2.9,2.9,0,0,1,.29.19,5.44,5.44,0,0,1,.55.39c.18.14.36.28.53.43l.26.24.12.11c-.13-.12,0,0,0,0a9.47,9.47,0,0,1,.88,1c.14.19.28.38.41.58l.17.27c-.09-.15,0,0,0,.06l.09.16a.8.8,0,0,0,1,.41.79.79,0,0,0,.41-1,11.42,11.42,0,0,0-4.44-4.39.74.74,0,0,0-1,.41.78.78,0,0,0,.4,1Z"/><path class="cls-12" d="M353.11,146.6c-6.32-3.57-12.92-6.79-16.43-13.53s-3.82-14.49-4.9-21.84c-.08-.53-.95-.53-1,0-.23,7.73.36,16.25,4.23,23.13,3.75,6.69,10.53,10.65,17.58,13.08.51.17,1-.58.48-.87Z"/><path class="cls-12" d="M331.44,112.13a21.41,21.41,0,0,0,3,7.85,26.47,26.47,0,0,0,6.42,6.25c2.54,1.85,5.36,3.31,7.86,5.22a13.45,13.45,0,0,1,4.93,7.69.56.56,0,0,0,1.1,0c.39-2.66-1.14-5.37-2.91-7.23-2.18-2.29-5-3.77-7.63-5.48-5.14-3.35-10.69-8.1-12.06-14.37-.1-.46-.82-.36-.73.11Z"/><path class="cls-12" d="M316.94,87.65a7.77,7.77,0,0,1-2.87-1.74c-.82-.72-1.72-1.35-2.51-2.1a19.45,19.45,0,0,1-4-5.44A34.74,34.74,0,0,1,305,71.22c-.32-1.25-.55-2.52-.85-3.78a25.16,25.16,0,0,0-1.56-3.62,1,1,0,0,0-1.86.29,19.86,19.86,0,0,0-.08,4.29c.27,1.47.63,2.95,1,4.4A31.81,31.81,0,0,0,305,80.68a22.81,22.81,0,0,0,4.77,5.68A9.2,9.2,0,0,0,313,88.3c1.17.34,2.37.61,3.55.89.88.21,1.25-1.25.4-1.54Z"/><path class="cls-12" d="M301,65.61c1.21,2.15,3.72,3.31,5.75,4.56S311,72.64,313,73.93a29.28,29.28,0,0,1,5.08,3.92c1.21,1.21,3.11,3.25,2.59,5.15a1,1,0,0,0,1.8,1c1.72-2,1-4.87-.39-6.86a21.3,21.3,0,0,0-5.55-5.2,75.17,75.17,0,0,0-6.81-4c-1.24-.67-2.47-1.36-3.72-2a9.24,9.24,0,0,0-4.15-1.37c-.52,0-1.14.51-.81,1.09Z"/><path class="cls-12" d="M208.65,69.17c-.93,3.64-2,7.13-2.33,10.9a47.25,47.25,0,0,0,.33,10.63c.9,6,3.48,12.34,7.86,16.65A.92.92,0,0,0,216,106.2a36.18,36.18,0,0,1-4.44-7.76,39.51,39.51,0,0,1-2.28-8.63,44.42,44.42,0,0,1-.31-10,72,72,0,0,1,1.18-10.48c.2-.93-1.23-1.08-1.45-.18Z"/><path class="cls-12" d="M209.93,70.7a15,15,0,0,0-.16,4.43,26.68,26.68,0,0,0,1.31,4.3,26.41,26.41,0,0,0,4.6,7.45,60.42,60.42,0,0,1,5.58,6.7c1.35,2.13,2.3,5.6-.69,6.87-1.31.56-.54,2.25.68,2.2,3.07-.13,4.64-3.26,4.45-6-.23-3.38-2.5-6.29-4.65-8.75s-4.43-4.83-6-7.74a22.39,22.39,0,0,1-1.89-4.56c-.23-.82-.39-1.65-.67-2.45a17.81,17.81,0,0,1-.89-2.44c-.19-.89-1.58-1-1.66,0Z"/><path class="cls-12" d="M413.86,34.52a13.33,13.33,0,0,1-8.14-15.16c.25-1.07-1.44-1.24-1.69-.19a14.83,14.83,0,0,0,9.19,16.92c1,.37,1.67-1.2.64-1.57Z"/><path class="cls-12" d="M404.71,20.12c2.41,1.65,5,3,7.27,4.91a13,13,0,0,1,2.54,2.84,9.41,9.41,0,0,1,1.3,3.64c.17.87,1.64.95,1.65,0,0-2.89-1.91-5.55-4-7.41-2.33-2.12-5.28-3.44-7.9-5.14-.8-.52-1.71.64-.91,1.19Z"/><path class="cls-13" d="M283.56,251.39l.37-.39-1.05.38c2.5.11,3.27-3.85,3.81-5.69.66-2.25,1.34-4.49,2.13-6.69a61.66,61.66,0,0,1,6.5-13.15c5-7.7,10.33-15.13,17.7-20.78a61.8,61.8,0,0,1,6.11-4.14c2.51-1.49,5.71-2.72,7.41-5.2a1.76,1.76,0,0,0-1-2.58c-3.08-.57-6.14,1.13-8.71,2.59a63.93,63.93,0,0,0-5.52,3.55A65.36,65.36,0,0,0,301,208.5a101.12,101.12,0,0,0-9.21,12.55,68.16,68.16,0,0,0-6.94,13.17c-1,2.67-1.84,5.4-2.58,8.16-.35,1.3-.7,2.59-.92,3.92a17.34,17.34,0,0,0-.34,2.37,4.37,4.37,0,0,0,.11,1c.1.46.54.94.6,1.36a1,1,0,0,0,1.83.39Z"/><path class="cls-13" d="M377.78,186c.44-.11.85,0,1.29-.11a4.74,4.74,0,0,0,1.54-.69c.46-.28.91-.58,1.38-.85,1.07-.63,2.15-1.27,3.28-1.81a46.67,46.67,0,0,1,7-2.45c2.58-.75,5.12-1.66,7.76-2.2a41.27,41.27,0,0,1,8-.59c11.42-.08,22,3.8,31.7,9.65,2.7,1.63,5.31,3.39,7.86,5.24q1.88,1.36,3.72,2.78c1.44,1.1,2.78,2.5,4.64,2.78s3.76-1.3,3-3.23a5.37,5.37,0,0,0-1.58-2.3c-.59-.49-1.23-.94-1.85-1.39q-1.85-1.4-3.74-2.73c-2.58-1.83-5.22-3.61-7.91-5.27a81.6,81.6,0,0,0-16.71-8,56.71,56.71,0,0,0-17.94-3,49.45,49.45,0,0,0-9.34.62,73.89,73.89,0,0,0-8.4,2.28,56.31,56.31,0,0,0-8.79,3.28,19.11,19.11,0,0,0-3.68,2.34,9.06,9.06,0,0,0-2,1.94,6.68,6.68,0,0,0-.61,2.1,1.19,1.19,0,0,0,1.36,1.55Z"/><path class="cls-14" d="M189.14,239.74a2.08,2.08,0,0,0-.88-.79,4.81,4.81,0,0,0-1.77-2.12c-.53-.64-1.08-1.26-1.66-1.85a1.76,1.76,0,0,0-1.92-.5c-.95-.75-1.91-1.5-2.85-2.27-1.31-1.06-3.39.94-2.4,2.3l0,0a1.62,1.62,0,0,0,.14,1.55C179,238,180.05,240,181.05,242a1.58,1.58,0,0,0,1.78.93c.23.18.47.33.71.5l.12.34a2.26,2.26,0,0,0,1.5,1.28.72.72,0,0,0,.83.35C188.11,244.91,190.57,242,189.14,239.74Z"/><path class="cls-12" d="M186.86,245.52a13.33,13.33,0,0,1-8.14-15.16c.25-1.07-1.44-1.24-1.69-.19a14.83,14.83,0,0,0,9.19,16.92c1,.37,1.67-1.2.64-1.57Z"/><path class="cls-12" d="M177.71,231.12c2.41,1.65,5,3,7.27,4.91a13,13,0,0,1,2.54,2.84,9.41,9.41,0,0,1,1.3,3.64c.17.87,1.64,1,1.65,0,.05-2.89-1.91-5.55-3.95-7.41-2.33-2.12-5.28-3.44-7.9-5.14-.8-.52-1.71.64-.91,1.19Z"/></g></g></g></g><g id="Layer_102" data-name="Layer 102"><g id="Cuerno"><rect class="cls-15" width="464" height="265"/></g></g></g></g></svg>