<svg xmlns="http://www.w3.org/2000/svg" xmlns:xlink="http://www.w3.org/1999/xlink" viewBox="0 0 275 259.5"><defs><style>.cls-1{isolation:isolate;}.cls-2{fill:url(#Degradado_sin_nombre_141);}.cls-3{fill:url(#Degradado_sin_nombre_134);}.cls-4{fill:url(#Degradado_sin_nombre_95);}.cls-5{fill:url(#Degradado_sin_nombre_95-2);}.cls-6{fill:url(#Degradado_sin_nombre_95-3);}.cls-7{fill:url(#Degradado_sin_nombre_95-4);}.cls-8{fill:url(#Degradado_sin_nombre_95-5);}.cls-9{fill:#fcee21;}.cls-10{fill:none;mix-blend-mode:multiply;opacity:0.4;}</style><radialGradient id="Degradado_sin_nombre_141" cx="114.54" cy="88.31" r="65.5" gradientUnits="userSpaceOnUse"><stop offset="0" stop-color="#603813"/><stop offset="0.81" stop-color="#f15a24"/><stop offset="0.89" stop-color="#f7931e"/><stop offset="1" stop-color="#cce0f4" stop-opacity="0"/></radialGradient><radialGradient id="Degradado_sin_nombre_134" cx="114.18" cy="88.31" r="63.93" gradientUnits="userSpaceOnUse"><stop offset="0" stop-color="#fca921"/><stop offset="0.32" stop-color="#fbd820"/><stop offset="0.5" stop-color="#f7931e"/><stop offset="0.67" stop-color="#f15a24"/><stop offset="0.82" stop-color="#703c15"/><stop offset="1" stop-color="#facf20" stop-opacity="0"/></radialGradient><radialGradient id="Degradado_sin_nombre_95" cx="97.75" cy="52" r="5.17" gradientTransform="translate(0.79 -0.88) scale(0.99 0.76)" gradientUnits="userSpaceOnUse"><stop offset="0.2" stop-color="#ffffbd"/><stop offset="0.24" stop-color="#fffeb4"/><stop offset="0.32" stop-color="#fefb9a"/><stop offset="0.42" stop-color="#fef771"/><stop offset="0.53" stop-color="#fcf038"/><stop offset="0.57" stop-color="#fcee21"/><stop offset="0.88" stop-color="#fcee21"/></radialGradient><radialGradient id="Degradado_sin_nombre_95-2" cx="122.08" cy="52.64" r="5.43" xlink:href="#Degradado_sin_nombre_95"/><radialGradient id="Degradado_sin_nombre_95-3" cx="146.16" cy="64.01" r="7.77" xlink:href="#Degradado_sin_nombre_95"/><radialGradient id="Degradado_sin_nombre_95-4" cx="155.56" cy="136.74" r="7.5" xlink:href="#Degradado_sin_nombre_95"/><radialGradient id="Degradado_sin_nombre_95-5" cx="154.27" cy="150.1" r="7.98" xlink:href="#Degradado_sin_nombre_95"/></defs><g class="cls-1"><g id="Layer_2" data-name="Layer 2"><g id="Variacion_A" data-name="Variacion A"><g id="AssetsF4"><g id="LoinE4"><circle class="cls-2" cx="114.54" cy="88.31" r="65.5"/><path class="cls-3" d="M177.58,88.31c0-3,.72-5.89.32-8.75-.47-3.43-2.15-7.7-3.16-10.94-1.11-3.55-3.45-6.05-5.13-9.3-1.28-2.45-.85-4.81-2.42-7.06-2.37-3.4-4.25-7.45-7.23-10.32-2.19-2.1-5.88-2.87-8.35-4.64-4.21-3-8.08-7.35-13-9.27-3.52-1.38-8.32-.91-12.11-1.64s-6-2.07-10.15-2.07c-3.65,0-7.65,1.26-11.13,1.85-2.88.5-7.46-.87-10.2,0-3.25,1-6.27,4-9.27,5.57a69.6,69.6,0,0,0-8.35,5.56c-3,2.15-5.77,3.86-8.34,6.49-2.31,2.36-3.65,5.65-5.57,8.35-1.64,2.31-3.57,4.43-4.89,7a61.72,61.72,0,0,0-3.85,9c-.83,2.44-2.43,5-3,7.52-.84,4.1-.35,8.35-.35,12.71,0,3.5-1.57,6.93-1,10.27.45,2.74,2.93,5.42,3.72,8,1,3.38,1.4,6.64,3,9.75a87.44,87.44,0,0,0,7,11.71c2.25,3,4.75,3.9,7.48,6.44,2.4,2.23,5,6.14,7.72,8,4.47,3,9.35,4.54,14.53,6.34,3.53,1.22,7.2,1.21,11,1.8,3.16.48,6.39,1.66,9.69,1.66,2.21,0,4.4-1,6.55-1.26a62.71,62.71,0,0,0,10.59-2c3.08-.87,6.07-1,9-2.35,2.72-1.24,5.34-3.59,7.84-5.19,3.26-2.09,7.25-4.47,10.07-7.1s4.64-5.73,7-9c2.08-2.86,4.86-5.9,6.44-9.09,1.73-3.48,2.22-7.14,3.28-10.94.78-2.78,2.3-5.64,2.7-8.56S177.58,91.19,177.58,88.31Z"/><path class="cls-4" d="M100.68,38.42s3-3.42,1.24-3.61-10.62,4.9-9.21,4.47S99,39.27,99,41v1.69s3.57,1,2.88-.55A28.94,28.94,0,0,1,100.68,38.42Z"/><path class="cls-5" d="M122,35.89s-3.82-2.11-4.91.42-.55,2.88,0,4.39-.75,2.58,1.26,2.26a10.2,10.2,0,0,1,4.88.06c2,.46,4.48,1.22,3.26,0s-3.54-2.41-3.74-4.14A12.22,12.22,0,0,0,122,35.89Z"/><path class="cls-6" d="M144.87,46.43s-2.72-5.06-4.91-5.06-.54.82,0,2.31,3.28,1.91,3.28,4,1.63,4.63,2.73,4.63,1.15-1.83,1.15-1.83,5.39,5.63,4.85,3.94-2.29-6.43-3.87-6.37S144.87,46.43,144.87,46.43Z"/><path class="cls-7" d="M158.51,97s-3.27,1.69-4.36,3.37-1.09,3.8-2.73,4.22.55,1.32,0,1.71-2.73,4.61-2.18,4.19,2.18-.84,3.27-2.11,2.73-2.53,3.82-3.79,1.64-2.53,1.64-1.69-2.18,3.38-1.09,3,2.73-2.52,2.73-5.05,1.09-1.27.54-3S158.51,97,158.51,97Z"/><path class="cls-8" d="M159.61,107.14c-.55,0-3.28.84-3.82,1.69s-3.82,2.1-4.37,3.37-4.91,4.21-3.82,3.79,4.91-3.37,4.91-2.95-4.91,3.37-5.45,4.22a4.94,4.94,0,0,0-.55,2.53c0,.42.11,1.68,1.69,0a51.38,51.38,0,0,0,3.77-4.46c1.09-1.45,3.82-2.71,4.91-4.4s4.12-2.38,3.42-3.09Z"/><path class="cls-9" d="M131.54,143c0,.62.32.67.71.52,1.18-.44,2.36-.91,3.54-1.4a11.24,11.24,0,0,1,1.42-.61,20.34,20.34,0,0,1-2.37,1.58,21.83,21.83,0,0,1-2.62.89c-1,.36-2,.79-3.08,1.1a8.93,8.93,0,0,1-1.93.31c-.72,0-1.45-.07-2.16,0a29.53,29.53,0,0,0-5.33.78c-.91.28-1.63,1.37-2.41,2.12-.6.58-.59.59-1.43.3l1.85-1.66-.11-.38a12.62,12.62,0,0,0-2.76.31,11.44,11.44,0,0,1-5.35.37c-1.91-.26-3.83-.39-5.73-.69a4.91,4.91,0,0,1-1.48-.86c-.15-.1-.31-.18-.46-.27,1.24.34,2.47.72,3.72,1a11,11,0,0,0,2.41.3,38.59,38.59,0,0,0,5.59-.13,60,60,0,0,0,6-1.37l2.51-.61c-.71-2.35-1.12-2.66-3.08-2.63a24.66,24.66,0,0,1-3-.09c-3.83-.4-7.67-.78-11.49-1.27a68.72,68.72,0,0,1-7.93-1.34c-2.6-.65-5.13-1.67-7.69-2.53L85,135.48a11,11,0,0,0,3.53,5.06,6,6,0,0,0,2.24,1.39,43.42,43.42,0,0,0,4.52.87,12.43,12.43,0,0,1,6.36,2.53A21.34,21.34,0,0,0,94,143c-2-.33-4.07-.85-6.11-1.29-.13,0-.24-.14-.33-.34l1.34.19c-.94-.84-1.71-1.54-2.49-2.22a21.75,21.75,0,0,1-6.11-9.85c-.43-1.3-.77-2.56-2.54-2.71,1.32-.71,1.18-1.63.84-2.6-.79-2.26-1.73-4.36-4.12-5a.54.54,0,0,1-.33-.37l2.81.65a1.47,1.47,0,0,0,1.86-1A30.51,30.51,0,0,1,85.56,109c1.62-1.6,1.6-2-.16-3.46-1.19-1-2.36-2-3.51-3a19.6,19.6,0,0,1-5.26-8.45,5,5,0,0,0-2.41-2.84l-5.44-2.93a16,16,0,0,0,1.74-2.47c.44-1,0-1.58-.94-1.75-2-.38-4-.75-6-1.08-1.47-.24-1.77.12-2,1.7-.48,2.81-1.07,5.6-1.61,8.39a.75.75,0,0,1-.28.48c.61-3.56,1.45-7.07,1.89-10.82a13.62,13.62,0,0,1-1.8.85c-.23.07-.54-.21-.82-.34.17-.27.27-.65.5-.78a10.77,10.77,0,0,1,1.84-.82,1.45,1.45,0,0,0,1.08-1.53,52.63,52.63,0,0,1,2.5-15.54c.23-.79.22-1.44-.71-1.68-.17,0-.44-.6-.38-.67.19-.28.57-.67.76-.61.91.32,1.23-.23,1.54-1a11.66,11.66,0,0,1,3.47-5,2.1,2.1,0,0,0,.44-1,30.19,30.19,0,0,1,4.47-9.61,13.71,13.71,0,0,1,1.39-1.56A35.13,35.13,0,0,0,72,52.13a7.53,7.53,0,0,0-.34,4.09c.58,2.42,1.83,3.08,3.66,2.75,3.69-.66,7.33-.14,11,0,4.22.11,8.44.25,12.65.37,4.52.14,9.06.1,13.57.45,5,.39,10,1.16,15.06,1.71a1.93,1.93,0,0,0,2.35-1.34c.68-1.8,1.5-3.53,2.21-5.32.44-1.1.3-1.52-.67-2.12a17.92,17.92,0,0,0-1.82-.88,3.63,3.63,0,0,1-2.1-1.6c-.31-.59-.87-.48-1.19.16s-.7,1.55-1.09,2.29c-.12.23-.41.36-.62.54L124.4,53c.24-.76.48-1.52.74-2.27.45-1.3.15-1.86-1.09-1.87-3.77,0-7.54,0-11.31-.05H110v-.27h5.78c2.35,0,4.71,0,7.06,0a2.73,2.73,0,0,0,2.4-1.12A12.79,12.79,0,0,1,130.45,43a5.47,5.47,0,0,0,.9-.73c-1.59-.94-3-1.8-4.48-2.64-.83-.48-1.68-.88-2.5-1.37-1.32-.79-2.61-1.67-3.94-2.43a6.64,6.64,0,0,1-3.17-3.52,2.11,2.11,0,0,0-2.37-1.59c-1,0-2-.4-3-.45a24,24,0,0,0-3.49.14c-2.11.21-4.22.54-6.34.72a8.1,8.1,0,0,1-3.47,0c-2.75-1-4.94.62-7.28,1.51-2,.77-3.93,1.79-5.73,2.62,4-3.14,9.13-4.17,13.87-6.72l-.44,1a.63.63,0,0,0,.2.13,8.66,8.66,0,0,0,6.72-.58c1.62-.84,3.26-1.6,4.94-2.3a26.63,26.63,0,0,0-5.22,2.76l.07.31c.9-.08,1.8-.15,2.7-.24,1.91-.18,3.81-.43,5.72-.52a2,2,0,0,1,1.33.81,1.83,1.83,0,0,0,2.13.54,1.41,1.41,0,0,0,0-.18l-1.13-.35v-.26c1.15,0,2.3,0,3.44,0,.84,0,1.66,0,2.23-1.05.24-.46,1.15-.56,1.78-.7a9.14,9.14,0,0,1,1.75,0c-1.46.09-1.77.37-2.25,1.68-.08.22-.52.36-.81.39-1,.11-1.92.15-2.88.24a2.19,2.19,0,0,0-.5.2,8.63,8.63,0,0,0,2.92,3.74c3.67,2.35,7.39,4.62,11.08,6.91a2.13,2.13,0,0,0,2.89-.4A9.52,9.52,0,0,1,138,39.52l.34.47a3.71,3.71,0,0,0-.61.28c-1.74,1.19-3.45,2.43-5.22,3.57-2.11,1.35-2.2,2.08-.29,3.7.91.77,1.93,1.38,2.8,2.18a2.19,2.19,0,0,1,.57,1.42c.06,2.21,0,4.43,0,6.81l3.18.53a25.14,25.14,0,0,0,7.84.18c3.64-.59,6.61-2.31,8.19-6.18a18.82,18.82,0,0,0,.83-3.54,8,8,0,0,0,0-1.49,2.43,2.43,0,0,1,1,2.67,20.25,20.25,0,0,1-.83,3.35,1.56,1.56,0,0,0,.43,1.87,44.93,44.93,0,0,1,11.12,16.3c.14.33.26.67.37,1a5.11,5.11,0,0,1,.21,1c-2.69-7.5-7.64-13-13.07-18.24a7.3,7.3,0,0,1-4,3.53A27,27,0,0,1,146,60.22a27.24,27.24,0,0,1-9.43-.57,2.64,2.64,0,0,0-2.65,1c-3.26,3.49-6.6,6.89-9.92,10.32-.13.14-.26.27-.38.42-.61.74-.53,1.15.3,1.58a1.27,1.27,0,0,0,.51.19c3,.09,5.11,2.21,7.39,3.88a40.17,40.17,0,0,1,4.24,3.84,7.66,7.66,0,0,1,1.26,1.9c.66,1.24,1.12,1.58,2.41,1.36,1.75-.31,3.49-.73,5.25-1.06,5.37-1,10.77-1.88,16.12-3,2.24-.46,4.39-1.41,6.58-2.09.31-.1.88-.06,1,.14.29.51.41,1.22-.27,1.53a21.42,21.42,0,0,1-4.21,1.72c-6.75,1.42-13.52,2.7-20.28,4-1.07.21-2.16.27-3.24.42a6.57,6.57,0,0,0-4.59,3.2,33.12,33.12,0,0,1-7,8.09,5.47,5.47,0,0,0-1,1.37c-.55.86-1,1.76-1.61,2.59s-.48,1.1.25,1.47,1.79.79,2.66,1.24c1.75.9,3.44,2,5.23,2.72a9.07,9.07,0,0,0,3.67.78c2.3-.06,4.5,0,6.55,1.37a2.51,2.51,0,0,0,2.61-.09q2.36-1.17,4.73-2.26a9.11,9.11,0,0,0,4.14-2.92c.18-.26.61-.31,1.08-.53a4.2,4.2,0,0,1-2.06,2.95c-1.15.58-2.36,1-3.49,1.65-1.53.83-3,1.73-4.51,2.69a2.72,2.72,0,0,0-.6,3.29c.79,1.38,1.61,2.74,2.37,4.14a1,1,0,0,0,1.48.5q5.61-2.22,11.22-4.46c.78-.32,1.54-.69,2.31-1l.12.3-3.05,1.46c-.5.23-1,.43-1.5.71-1.12.67-2.25,1.34-2.08,3.11a2.54,2.54,0,0,1-.37,1.21c0-.69.1-1.38.13-2.08s-.24-.85-.8-.68c-2.55.8-5.1,1.58-7.75,2.4.08.45.16.93.25,1.4.14.75.25,1.51.41,2.26a2.68,2.68,0,0,1-.95,2.94,29,29,0,0,0-3.84,4.76,7.48,7.48,0,0,0-.65,2.25,3.27,3.27,0,0,1,1,.18,1.19,1.19,0,0,1,.61.6c.35,1.27,1,1.67,2.16,1.23.17-.07.32-.17.5-.25.15.34.29.67.45,1.06-.18.07-.34.2-.5.18-1-.08-2-.19-3-.31-.45-.06-.81-.16-.67-.88,0-.2-.46-.77-.67-.74a3.8,3.8,0,0,0-2,.6c-1.73,1.43-3.37,3-5.16,4.61l1.28.36c0,.06-.07.14-.1.14-2.42-.39-3.83,1.59-5.53,2.88-.32.24-.62.51-.93.78.37-1.29,1.41-1.84,2.27-2.6,2.47-2.18,4.93-4.39,7.39-6.59a4.72,4.72,0,0,0,.66-.68c.52-.71.41-1.2-.3-1.72-.23-.16-.37-.47-.57-.68s-.62-.79-.92-.78a28.25,28.25,0,0,0-5.29.41,35.89,35.89,0,0,0-4.95,1.8,23.54,23.54,0,0,0-7.88,5c-1.25,1.18-1.23,1.91-.13,3.14a3.87,3.87,0,0,1,1.1,1.67c.34,2.28,1.63,2.84,3.46,2.66.11,0,.24,0,.36,0C128.45,144.62,130.22,144.58,131.54,143Zm9.1-33.13a1.38,1.38,0,0,1,0-.25,2.1,2.1,0,0,1,.13-.26c.57-.87.51-1.15-.44-1.23a4,4,0,0,0-2.29.22c-1.75,1-3.55.81-5.39.78a8,8,0,0,0-3.46.44c-2,1-4,2.24-5.92,3.39-.57.34-1.13.7-1.69,1.06l-.15-.31,8.68-5.59a17.36,17.36,0,0,0-1.92-1.19q-6.41-2.78-12.84-5.48c-4.19-1.76-8.48-3.3-12.59-5.28a28.07,28.07,0,0,0-10.44-2.9,12.47,12.47,0,0,1-7.22-2.87,1.35,1.35,0,0,0-.87-.41c-2.1.27-4.19.57-6.27.94-1,.18-1.19.7-.74,1.71.65,1.47,1.25,3,2,4.37a17,17,0,0,0,2.49,4.11,83.09,83.09,0,0,0,6.61,5.7c.22.18.81,0,1.11-.2,2.11-1.43,4.19-2.9,6.27-4.39.55-.39,1-.38,1.32.27a9.72,9.72,0,0,0-1.63.88c-5.37,4.37-10.26,9.27-13.67,15.74-.25.48-.68.85-.94,1.33a2.21,2.21,0,0,0-.36,1.23,61.67,61.67,0,0,0,3.41,12A2,2,0,0,0,85.19,135c3.84,1.15,7.63,2.47,11.49,3.5a56.78,56.78,0,0,0,7.22,1.26c3.43.45,6.88.79,10.33,1.16a2.2,2.2,0,0,0,1.31-.14,25,25,0,0,0,4.57-3.37,19.91,19.91,0,0,1,8.59-5.51,26.74,26.74,0,0,0,4-1.23,8.82,8.82,0,0,1,4.1-1,16.5,16.5,0,0,0,2.44-.07,2.73,2.73,0,0,0,1.34-.63,3.51,3.51,0,0,1,2.34-1.14,1.12,1.12,0,0,0,.66-.26c1-.88,2-1.77,3-2.68a1.56,1.56,0,0,0,.37-2c-.8-1.54-1.67-3-2.34-4.63-1-2.38-2.84-4.6-1.28-7.59ZM79.83,80.53l.1-.24c1.77.88,3.57,1.71,5.32,2.65a3.66,3.66,0,0,0,3.39.11q12.49-5.31,25-10.55c5-2.11,10.13-4,14.23-8.07a11.45,11.45,0,0,0,.93-1.24,4.88,4.88,0,0,0-1.41-.7c-4.69-.58-9.4-1.14-14.1-1.65a217.12,217.12,0,0,0-21.79-.75,2.21,2.21,0,0,0-2.13,1.36,13,13,0,0,1-5,5.4,47.65,47.65,0,0,0-4.65,3.44,4.85,4.85,0,0,0-2,3.53c0,.21-.2.4-.3.59l-.3-.13c.22-.8.39-1.63.67-2.41.6-1.65,2.06-2.36,3.22-3.38,2.35-2.08,4.74-4.09,7-6.22A12.58,12.58,0,0,0,89.6,60c-.21-.16-.25-.23-.3-.23-3.93-.35-7.85-1-11.81-.52-1.32.15-2.63.32-4,.37s-2-.61-2.33-2a12.86,12.86,0,0,0-.54-1.33,7.29,7.29,0,0,0-2.81,2.89c-2.65,5.33-3.46,11.21-4.22,17.1a11,11,0,0,0,.3,3.46c.23,1.09,1,1.22,1.65.34a17.79,17.79,0,0,0,1-1.86c.14-.26.28-.51.41-.77a13.14,13.14,0,0,1-1,3c-.28.65-.21,1,.44,1.3,1.15.49,2.28,1,3.42,1.58s1.23.79.91,2c-.29,1.1-.1,1.75.84,2.23a30.09,30.09,0,0,0,3.7,1.59,4.17,4.17,0,0,0,2.13.13c1.89-.4,3.75-1,5.62-1.46a1.41,1.41,0,0,0,.78-.44c.75-1.14,1.45-2.33,2.21-3.58Zm40.48,20.75a5,5,0,0,0,3.59-1.8q5.89-7,11.74-14a1.29,1.29,0,0,0-.17-2c-1.08-1-2.16-2.11-3.25-3.15A19.58,19.58,0,0,0,125.73,76a23.64,23.64,0,0,1-5.93-3.15,2.26,2.26,0,0,0-2.45-.26c-4.76,1.94-9.55,3.76-14.29,5.72-4.89,2-9.74,4.13-14.59,6.26a8.27,8.27,0,0,0-2.38,1.57,2.46,2.46,0,0,0,.38,4.17,5.17,5.17,0,0,0,1.76.76c2.28.46,4.57.89,6.86,1.25a25.76,25.76,0,0,1,8.43,2.46,37.87,37.87,0,0,0,3.84,1.76q5.07,2,10.16,3.93C118.43,100.83,119.38,101,120.31,101.28Zm1,40.42.12-.32c-.44-.67-.84-1.37-1.32-2a.71.71,0,0,0-.7-.2c-1,.64-1.94,1.34-2.9,2l.08.22Zm22.42-13.51a6.36,6.36,0,0,0-1.58.66,1.28,1.28,0,0,0-.34,1.07c.29.43.71,1,1.35.45.3-.27.66-.47.94-.77a4.93,4.93,0,0,0,.5-.87Z"/><path class="cls-9" d="M74.53,115.59l-8.15-2.24c-2.46-4-3.77-8.48-5-13.07.25.64.52,1.27.75,1.91s.47,1.37.67,2.06a27.67,27.67,0,0,0,2.67,6.53,5.72,5.72,0,0,0,3.71,2.74,47.77,47.77,0,0,1,5,1.88A1,1,0,0,1,74.53,115.59Z"/><path class="cls-9" d="M136.34,38.47c.75-1.66,5.22-2.43,7.67-1.45C141.33,36.86,138.8,36.94,136.34,38.47Z"/><path class="cls-9" d="M153,127.34c-.5,1.13-.91,2-1.3,2.9-.25.59-.57,1.16-.11,1.85.1.17-.14.61-.22.94l-1.24-.52C151.32,131,151.35,128.77,153,127.34Z"/><path class="cls-9" d="M65.8,113.83c.21,1.28.43,2.55.63,3.72l-.94-1.11.22,0c-.06-.88-.13-1.76-.19-2.64Z"/><path class="cls-9" d="M67.24,119.05l2.1,4.15-.16.1-2.07-4.18Z"/><path class="cls-9" d="M59.38,93.88l.27,3.38-.25,0-.15-3.37Z"/><path class="cls-9" d="M107,126.59a2.85,2.85,0,0,0,1.81,2.14c1.1.44,2.23.8,3.33,1.25.68.28,1.33.64,2,1l-.09.4a3.14,3.14,0,0,1-1,0c-2-.74-4.06-1.51-6.08-2.27a3.88,3.88,0,0,1-.58-.28c-.82-.51-.85-1-.12-1.65C106.48,127,106.71,126.8,107,126.59Z"/><path class="cls-9" d="M67.73,76.27c2.49,0,4.88,1.91,7.56.6l1.09,1.73-.09.22-8.6-2.3Z"/></g></g></g><g id="Layer_102" data-name="Layer 102"><g id="Espalda"><rect class="cls-10" width="275" height="259.5"/></g></g></g></g></svg>