<svg xmlns="http://www.w3.org/2000/svg" viewBox="0 0 160 195"><defs><style>.cls-1{isolation:isolate;}.cls-2{fill:#ff0;}.cls-3,.cls-5{fill:none;}.cls-4{fill:#fcd354;}.cls-5{mix-blend-mode:multiply;opacity:0.4;}</style></defs><g class="cls-1"><g id="Layer_2" data-name="Layer 2"><g id="Variacion_A" data-name="Variacion A"><g id="AssetsF4"><g id="HamE4"><path class="cls-2" d="M125.83,113c.85-11.91,4.53-20.47,0-29.26s-5.54-4.57-11.26-12-21.66-7.35-25.46-9.26c-2.9-1.46-9.32-10.18-12.21-14.23,7.43-13.57,16.39-20.47,18.22-26,1.92-5.75-.79-16.77-1-17.46.14.55,1.92,8.4-5.21,16.75-7.4,8.67-13.91,10.35-19,16.13-3.51,4-8.56,17.08-10.67,28.72a22.46,22.46,0,0,0-7-8.49c-7.43-5.22-14.16-8.39-16.11-11.77S28,37.51,28,37.51s3.3,15.16,7.52,18.07S50.47,63,53,69.07c1.41,3.47,4.29,10.28,6.49,15.49,2.06,10.94,3.77,23.47.46,28.23-3.74,5.35-16.58,12.87-21.71,18.65s6.12,40.4,6.12,40.4-8.9-33.23-.43-39.22S62.33,122,66.33,117.68s7.49-15.8,6.79-22.75a45,45,0,0,1,6-2.53c6-2.08,4.46-4,7.83-9,2.7-4,4.55-10.79,5.18-13.3,7.36,1.86,14.05.18,19.15,7.36,5.72,8.06,10.59,9.92,10.9,16.84s-3.56,14-1.39,22.28S133,136.32,133,136.32,125,124.89,125.83,113ZM77.57,88c-2.16,3.56-3.82,4.11-4.88,3.9-1.2-7.67-3.68-23,.81-36.15,2,2.55,8.85,10.78,15.93,13.52C89.43,69.29,81.48,81.6,77.57,88Z"/><path class="cls-3" d="M125.83,113c.85-11.91,4.53-20.47,0-29.26s-5.54-4.57-11.26-12-21.66-7.35-25.46-9.26c-2.9-1.46-9.32-10.18-12.21-14.23,7.43-13.57,16.39-20.47,18.22-26,1.92-5.75-.79-16.77-1-17.46.14.55,1.92,8.4-5.21,16.75-7.4,8.67-13.91,10.35-19,16.13-3.51,4-8.56,17.08-10.67,28.72a22.46,22.46,0,0,0-7-8.49c-7.43-5.22-14.16-8.39-16.11-11.77S28,37.51,28,37.51s3.3,15.16,7.52,18.07S50.47,63,53,69.07c1.41,3.47,4.29,10.28,6.49,15.49,2.06,10.94,3.77,23.47.46,28.23-3.74,5.35-16.58,12.87-21.71,18.65s6.12,40.4,6.12,40.4-8.9-33.23-.43-39.22S62.33,122,66.33,117.68s7.49-15.8,6.79-22.75a45,45,0,0,1,6-2.53c6-2.08,4.46-4,7.83-9,2.7-4,4.55-10.79,5.18-13.3,7.36,1.86,14.05.18,19.15,7.36,5.72,8.06,10.59,9.92,10.9,16.84s-3.56,14-1.39,22.28S133,136.32,133,136.32,125,124.89,125.83,113ZM77.57,88c-2.16,3.56-3.82,4.11-4.88,3.9-1.2-7.67-3.68-23,.81-36.15,2,2.55,8.85,10.78,15.93,13.52C89.43,69.29,81.48,81.6,77.57,88Z"/><path class="cls-4" d="M77.34,87.89s.09.07.14,0l-.06-.15Z"/><path class="cls-4" d="M78,87.3c0-.16,0-.36-.13-.34,0,.19,0,.19,0,.4s-.15.16-.18.12-.13.15-.1.25a.62.62,0,0,0,.33-.48S78,87.28,78,87.3Z"/><path class="cls-4" d="M84.73,77.06l-.06,0Z"/><path class="cls-4" d="M88.85,70.68s0,.08,0,.09S88.86,70.68,88.85,70.68Z"/><path class="cls-4" d="M89.85,69.36l-.07.11A.2.2,0,0,0,89.85,69.36Z"/><path class="cls-4" d="M84.73,77.06l.14-.15S84.79,77,84.73,77.06Z"/><path class="cls-4" d="M78.64,85.71a.23.23,0,0,0,0,.11l0-.1Z"/><path class="cls-4" d="M83,79.94l0,0a.14.14,0,0,0,0,.07Z"/><path class="cls-4" d="M81.68,82.12c0-.05-.05-.12-.08-.17a.26.26,0,0,1,0,.15A.13.13,0,0,0,81.68,82.12Z"/><path class="cls-4" d="M79.33,85.46l0,.07Z"/><path class="cls-4" d="M84,78.4h0S84.05,78.4,84,78.4Z"/><path class="cls-4" d="M75.43,90.06h0S75.44,90.05,75.43,90.06Z"/><path class="cls-4" d="M77.6,88l0,0,0,0Z"/><path class="cls-4" d="M87.7,67.88h0C87.77,67.91,87.74,67.89,87.7,67.88Z"/><path class="cls-4" d="M72.23,58.38c.16-.22,0,.42.23.09C72.41,58.49,72.37,58.09,72.23,58.38Z"/><path class="cls-4" d="M78.68,85.66l.06-.09A.35.35,0,0,0,78.68,85.66Z"/><path class="cls-4" d="M72.46,58.47h0l0,0Z"/><path class="cls-4" d="M83.19,65a.09.09,0,0,0,0,.07S83.21,65,83.19,65Z"/><path class="cls-4" d="M86.4,67.41l-.08-.06A.21.21,0,0,0,86.4,67.41Z"/><path class="cls-4" d="M81.48,63.77s0-.07-.11-.1v0A.22.22,0,0,1,81.48,63.77Z"/><polygon class="cls-4" points="79.86 62.3 79.87 62.34 79.93 62.39 79.86 62.3"/><path class="cls-4" d="M72.69,88.82a.31.31,0,0,1-.08.11C72.68,88.89,72.76,89.2,72.69,88.82Z"/><path class="cls-4" d="M78.69,85.74a.08.08,0,0,1,0-.08l0,.06S78.67,85.75,78.69,85.74Z"/><path class="cls-4" d="M80.83,64.38l-.26-.25A2.09,2.09,0,0,0,80.83,64.38Z"/><path class="cls-4" d="M71.38,73.17l0,.08A.11.11,0,0,0,71.38,73.17Z"/><path class="cls-4" d="M79.78,63.44a.48.48,0,0,0-.09-.19h0Z"/><path class="cls-4" d="M72.61,88.93Z"/><path class="cls-4" d="M73.22,91.17c0-.33-.17-.14-.26-.19-.11-.39.08-.2.13-.35s-.24-.4-.26-.59c0,0,0-.05.06,0-.15-.25-.12-.77-.31-1a.11.11,0,0,1,0,0,.3.3,0,0,1-.2.08c0-.15-.13-.26,0-.33,0,.09,0,.09.08.13l-.06-.15c.12-.16.08.21.18.19a3.76,3.76,0,0,1-.25-.87c.13-.06.13.54.2.21v.37c.17-.31,0,.22.21-.07,0-.47-.15-.51-.17-1-.09-.09-.11,0-.2,0-.23-.65.26-.57,0-1-.1-.11-.28-.14-.24-.5l.17.1c0-.46-.25-.24-.21-.73.07.08.1.36.11.28.08-.32-.12-.2-.15-.44l.13-.07c-.08-.48-.24-1-.32-1.54,0,0,.09.11.12,0a9.38,9.38,0,0,1-.12-2.11l-.14-.24c0-.06,0-.11.08-.05,0-.26-.08,0-.14-.13s0-.2.1-.11a4.5,4.5,0,0,1-.23-1.75l0,.09c0-.37-.27-.4-.19-.75l0,.06a12.68,12.68,0,0,1,0-2.31c-.18-.12.06-.8-.18-.85a4.11,4.11,0,0,0,.22-1c0-.17-.15-.26-.18-.47h.12l-.13-.29.14-.15,0-.2c0,.08-.06.17-.1.16a1.14,1.14,0,0,1,.16-.77l-.09-.74s.06.14.09.24c-.12-.4.13-.07,0-.44,0,0-.07,0-.09,0a2.74,2.74,0,0,0,.06-.9l.08.06c0-.54,0-1.15,0-1.77,0,.22-.19.16-.2,0l.14-.06c-.08-.13-.06.18-.15-.06s.16-.15.19,0l0-.28s.06.06.11.08c-.08-.13.16-.48,0-.65h0c0-.61,0-.9.07-1.4-.11,0-.07-.21-.14-.37.06-.36.21-.76.26-1.2s-.08-.1-.13-.25.15-.45.19-.21a12.33,12.33,0,0,0,.09-1.35c-.06.06-.09.14-.12.09s.1-.27.14-.24v0c0-.77.61-1.66.51-2.29v0l0-.63c.08-.28,0,.18.15,0,0-.69.27-1,.29-1.59a2,2,0,0,0,.39-.92c0-.19.1-.39.16-.57s0-.07,0-.1,0,0,0,0L73.66,57c0-.1,0,0,.06,0s0,0-.07-.12a.88.88,0,0,1,0-.16c0-.08.06,0,.08.06l.08.13a1.46,1.46,0,0,0,.14.21c.39.54.77,1.1,1.19,1.62.3.37.45,0,.73.52l-.21,0c.76.63,1.34,1.48,2.1,2.07-.06,0-.09,0-.15-.06.07.21.51.54.57.49.1.11,0,.07,0,.16s.45.27.46.42-.06,0-.09,0c.13.06.43.44.42.27.21.29.53.43.69.68.22,0,.41.46.57.37-.14.12.37.53.6.61-.09,0,.11.18,0,.17.19.17.4.3.42.2.22.49.85.48.88.87.65.42,1.28.78,1.85,1.16-.12.13-.62-.44-.71-.27a12.65,12.65,0,0,1,1.49.83c.12.11-.13,0-.19,0a14.36,14.36,0,0,0,1.61.93s-.07,0-.13,0c.1.06.22.16.25.09l-.11,0c-.09-.2.52,0,.57,0-.29.12.48.32.06.44.07,0,.18,0,.19,0s.11.11,0,.12c.39.15.3,0,.63.18,0,0-.1,0-.15,0a1.47,1.47,0,0,1,.68.2s0,.05-.1,0a2.65,2.65,0,0,0,.66.17l.26.06.12.06a.41.41,0,0,1-.09.12c-.17,0-.14.11-.31.1a.6.6,0,0,1,0,.12l.1,0s-.1.2-.14.31a1,1,0,0,1-.19.31l.06-.21-.25.46.2-.22c-.08.28.18.08,0,.37,0-.07-.15.23-.3.31h0a1,1,0,0,1-.21.45c-.07,0-.12-.13-.16-.12,0,.18-.32.57-.3.79a.11.11,0,0,0-.09-.11l0,.16c-.1.09-.12.09-.16,0-.22.32.22,0-.09.34,0,0,0,0,0-.1-.28.37-.42.79-.69,1.12-.2,0,.16-.33,0-.28A17.18,17.18,0,0,1,85.59,75l.07-.09c.14.19-.32.32-.39.63,0-.07,0-.15,0-.12a7.74,7.74,0,0,0-.67,1.28v-.09a8.34,8.34,0,0,0-.52.72c0,.09-.08.21,0,.18-.69.5-.67,1.37-1.27,1.82,0-.07.07-.19,0-.13l-.27.53c.1,0,.09,0,.21-.11a.83.83,0,0,1-.12.39c.09-.26-.13-.08-.24,0,0,0,0,.05.07.06-.31.18.13.14-.19.44l0,0a2.53,2.53,0,0,1-.19.45c-.13,0,.05-.17,0-.23-.13.21-.09.51-.3.64,0-.1.11-.23.14-.33a.91.91,0,0,0-.33.31h0l-.27.32.09-.07c.07.4-.29.55-.35,1,.06-.43-.05-.11-.14-.2-.08.07-.2.19-.21.13,0,.22-.23.23-.26.54,0,0-.11.17-.17.08-.11.23.09,0,.12,0-.1.4-.63.69-.77,1.25s-.13.59-.31,1c-.13.1,0-.17,0-.17a1.42,1.42,0,0,0-.36.55c0-.06,0,0-.13,0s.06.18-.12.35a.67.67,0,0,1,0-.23c-.09.2-.14.42-.23.63-.09,0,0-.17,0-.26-.11.23-.3.58-.25.7l.12-.11c0,.08-.1,0-.08-.08,0-.23.19-.24.23-.23l-.06.14c.28,0,.31-.56.49-.82l.08.2,0-.35c.08,0,.18,0,.12.12.19-.15.06-.21.24-.32,0,0,0,0,0,0l.08-.22c0,.06.12,0,0,.14.29-.29.24-.62.43-.68v0c.25-.5-.08-.11,0-.54l.41-.08L80.22,84s.1-.14.13-.09c0-.23-.06,0-.06-.15.24-.17.36-.67.56-.62,0-.14-.2.18-.1-.1.22,0,.15-.31.37-.47,0,.12-.13.29.09.13-.07-.23.3-.4.39-.6-.12-.08.19-.42.34-.75a8.48,8.48,0,0,0,.66-.79v0c-.09-.13.12-.41.23-.63.07,0,.07.11,0,.24L83,80a.53.53,0,0,1,.07-.28l.07.11a4,4,0,0,1,.5-.91c-.07-.07-.41.12-.24-.28.06,0,.14.05.1.16s0-.13.09-.18v.19c.13-.13,0-.12.07-.24.07,0,.11-.06.15,0s-.1.09-.1.15a1,1,0,0,1,.33-.3s-.09-.06,0-.16c.16-.27.14,0,.27-.18s.15-.23,0-.3c.05-.08.11-.06.16-.07,0-.17.39-.65.18-.57l0,0v0h0a12.27,12.27,0,0,1,.88-1.37l0,0a5.74,5.74,0,0,0,.4-.85c0-.07.18-.14.2-.08a1.29,1.29,0,0,1,.32-.53c-.07.24.09,0-.09.24.19-.25.29-.28.37-.62,0,.15.24-.13.29-.27l-.18.14c.08-.15.17-.26.25-.39l.07.14c.48-.45.39-1.12.88-1.39,0-.19-.24.26-.25.07.17-.24.49-.39.54-.47.28-.3,0-.42.31-.76-.07,0-.2,0-.07-.29s.36-.2.29,0-.06.08-.07.07-.09.21,0,.13l0-.05c.12-.1.33-.45.34-.32.08-.22,0-.13-.12,0a2.78,2.78,0,0,0,.29-.39,6.27,6.27,0,0,1,.44-.67c-.09.09-.2.16-.15.08a2.63,2.63,0,0,0,.24-.36l0,0h-.13a1.22,1.22,0,0,1-.42-.09c-.2-.17.27-.07-.31-.26-.3-.18,0-.14.17-.1a1.56,1.56,0,0,1-.56-.25c-.12-.08-.22-.17-.3-.21l.18,0a.72.72,0,0,1-.27-.1l0,.14c-.09-.07-.17-.11-.15-.15-.13,0,0,.19-.23.16s-.41-.16-.4-.29c.38.24,0-.14.36,0a.6.6,0,0,1-.23-.13s0,0,0,0c-.33-.3-.24,0-.64-.17.09,0,0-.17-.09-.2.15.1,0,.15-.16.11-.22-.19-.29-.12-.41-.21l.13.11c-.08,0-.2,0-.39-.13,0-.06.18.06.13,0-.26,0-.37-.37-.68-.47-.09-.12.07-.12,0-.22-.34-.12-.26-.29-.61-.43,0,.13.07.13-.2.06l.54.28-.4-.1c.15.1.35.17.43.24-.19,0-.17,0-.14.07-.12-.26-.46-.21-.64-.46l.14-.19c-.3-.32-.69-.36-1.11-.74l.12.14c-.12,0-.29-.2-.46-.28.06-.05,0-.14,0-.23s-.32-.26-.46-.17l-.13-.24c-.32-.33-.55-.15-.86-.47.15,0,0-.15.3,0-.11-.1-.2-.2-.24-.16s-.38-.18-.43-.33-.14,0-.26-.08,0,0,0,0-.23-.13-.18,0c-.18-.48-1-.85-1.1-1.27-.25-.2-.54-.45-.75-.65,0,0,0,0,.06,0-.24-.34-.34,0-.61-.4-.07-.25.22.13.15,0,.14-.23-.41-.37-.51-.7l.06,0c-.1-.23-.48-.34-.72-.63,0,0,0,0,0,0a3.66,3.66,0,0,1-.93-.68c.15,0,.15.08.18,0-.12-.11-.09.15-.33-.08,0-.11-.16-.33-.1-.42l.22.23c0-.22-.28-.3-.37-.44l.06,0c-.33-.34-.45-.24-.78-.64V58c-.3-.11-.09-.23-.36-.37l.06-.17c-.14-.12-.53-.4-.77-.64a4.21,4.21,0,0,1,.72.47c-.12-.14-.41-.47-.53-.49,0,0,.14.09.17.16a1.82,1.82,0,0,1-.75-.63c.09-.12-.12-.42-.38-.76l-.2-.27-.1-.14s0,0,0,0l0,.06c-.07.16-.14.28-.2.29-.07.31-.13.57-.21.82a7.05,7.05,0,0,1-.23.67c-.12.32-.26.65-.36,1,.31-.2-.06.22.19.24,0,.17,0,.24-.06.25l-.27.49c-.1.1,0-.18-.07-.18-.11.38-.14.14-.26.37.09,0,.09.16,0,.37l.18-.28c0,.57-.31.42-.31,1l0-.18a3.13,3.13,0,0,0-.09,1.33s-.11.09-.11,0a19.3,19.3,0,0,1-.27,2l-.06-.06c0,.13.09.23,0,.38,0,0-.06-.06-.07,0a1.18,1.18,0,0,1,0,.5l0-.15a6,6,0,0,0,0,1.58c-.18,0-.29.48-.34.74l0,0a13.48,13.48,0,0,0,0,2,14,14,0,0,0-.3,2.19c0-.11.14,0,.15.15s.1.46-.06.43v-.06c-.16.12-.13.46-.13.73l.21,0c-.32.69.08,1.82-.18,2.2.06.16.06.37.11.54h-.11a9.07,9.07,0,0,0,0,1.27l-.09-.11c0,.32.35.4.36.69l-.16.1a6.38,6.38,0,0,0,.09,1.69.11.11,0,0,1-.09-.11c0,.27,0,1,.18.92-.15,0,0,.59.11.88l-.11,0a1.07,1.07,0,0,1,.26.6c0,.09-.08.08-.06,0,0,.29.12.21.09.56l-.08-.13a.57.57,0,0,0,.15.42c.06.18,0,.55-.07.61a.42.42,0,0,1,.15.36s-.07,0-.08-.07c0,.5.2.71.13,1,0,0-.06,0-.06.07a5.26,5.26,0,0,1-.06-.67c-.1,0-.09.32-.25.09a2.51,2.51,0,0,1,.3,1l0,0,0,0a.49.49,0,0,0,0,.19,2.25,2.25,0,0,0,0,.26c-.08,0,0,.36,0,.52.11,0,.11.18.18,0,0,0,0,0,0-.14a.11.11,0,0,0,0-.06h0l-.05-.38a.47.47,0,0,1,.09.41,2.12,2.12,0,0,1,.21.2c-.14.23-.17.65-.25.71a3.8,3.8,0,0,0,.43,1.38c0,.13,0,.16-.07.22a1.27,1.27,0,0,0-.07-.21c.08.27.13.8.28.84,0,.35-.16-.17-.07.29l-.05-.06c-.11,1,.59,1.43.44,2.48,0-.07,0-.1,0-.12a9.35,9.35,0,0,0,.32,1.91,3.64,3.64,0,0,0,2-.28c.32-.14.31-.24.43-.43l.13.06c.07-.11.13-.22.19-.33.3-.39.84-.38,1.1-1h-.11c.16-.16.4-.58.45-.5a.13.13,0,0,1,.06-.15l.06,0,.23-.51c.27-.32.17.2.52-.31.11-.21.2-.65.11-.6s-.16.18-.21.15l.08-.19c-.14-.13-.22-.36-.6,0l-.09.36-.13,0,.15-.25c-.16.1-.15.22-.18.35a.22.22,0,0,0-.16.06l0,.38c-.08,0,0-.2-.19,0s.22,0,.11.21c-.17.09-.2,0-.26.2-.05,0-.05,0,0-.13,0,.18-.26.37-.24.5-.18.07-.36.45-.48.32a1,1,0,0,1-.21.43c.06-.34-.43.38-.53.14,0,.28-.52.5-.78.72,0,0,0-.06.06-.07a.83.83,0,0,1-.37,0c0,.16-.27.27-.37.37-.11-.15.09-.19,0-.34,0,.13-.13.14-.16.24,0-.1,0,0,0-.19-.17.16,0,0-.15,0l.1-.14s0-.05,0-.21S73.22,91.17,73.22,91.17Zm-1.39-7.65h0l0,.16Zm-.08-.64,0,.28s-.08,0-.08-.06S71.73,83,71.75,82.88Zm-.62,1.46c0-.1,0-.14,0-.16l0,.18h0Z"/><path class="cls-4" d="M71.3,84.5a.09.09,0,0,1,0,0l0-.07,0,0Z"/><path class="cls-4" d="M84.66,77.12h0l0,0Z"/><polygon class="cls-4" points="71.44 73.89 71.41 73.89 71.44 73.95 71.44 73.89"/><path class="cls-4" d="M82.41,80l0,0Z"/><path class="cls-4" d="M81.56,81.26l-.15.17Z"/><path class="cls-4" d="M80.87,82.25l0,0h0Z"/><path class="cls-4" d="M86.08,68.1l0,0C85.93,68,86,68.07,86.08,68.1Z"/><path class="cls-4" d="M88.13,71a.61.61,0,0,1,.05-.18C88.12,70.92,88.07,71,88.13,71Z"/><polygon class="cls-4" points="80.86 64.41 80.86 64.41 80.83 64.38 80.86 64.41"/><path class="cls-4" d="M88.32,70.62a.68.68,0,0,0-.14.22A.83.83,0,0,0,88.32,70.62Z"/><path class="cls-4" d="M78.06,86.6l0,.05h0Z"/><path class="cls-4" d="M78,86.66l0,.06S78,86.68,78,86.66Z"/><path class="cls-4" d="M78,86.85l.05-.13S78,86.81,78,86.85Z"/><path class="cls-4" d="M79,85.29l0,0S78.93,85.28,79,85.29Z"/><path class="cls-4" d="M79.19,84.88c-.06.09-.22.2-.29.34l0,0C78.91,85.16,79.19,85,79.19,84.88Z"/><path class="cls-4" d="M80.7,83.45l-.25.32c.08,0,.18-.09.09.07C80.92,83.48,80.4,83.88,80.7,83.45Z"/><path class="cls-4" d="M81.42,82.42c-.1.2,0,0,.07.06C81.53,82.34,81.54,82.31,81.42,82.42Z"/><path class="cls-4" d="M86.25,74.79l.07.07C86.4,74.71,86.29,74.84,86.25,74.79Z"/><polygon class="cls-4" points="86.72 73.05 86.58 73.15 86.62 73.27 86.72 73.05"/><polygon class="cls-4" points="87.89 72.58 87.86 72.65 87.97 72.39 87.89 72.58"/><path class="cls-4" d="M80.21,62.49l0,.13C80.26,62.68,80.37,62.59,80.21,62.49Z"/><path class="cls-4" d="M75.62,57.88a.39.39,0,0,0-.21-.31A3.17,3.17,0,0,0,75.62,57.88Z"/><polygon class="cls-4" points="70.44 72.15 70.4 72.02 70.43 72.27 70.44 72.15"/><path class="cls-4" d="M126.1,113c0-.35-.12-.16-.12.78l.11.68Z"/><path class="cls-4" d="M126.17,119.35c.26,1.09.64,2.32.61,1.59-.34-1-.36-1.31-.65-2.47-.16-.94-.14-1.65-.07-1.49,0-.33-.07-1.47-.15-2a15.94,15.94,0,0,0,0,2.06,20.32,20.32,0,0,0,.34,2.34C126.29,119.76,126.21,119.43,126.17,119.35Z"/><path class="cls-4" d="M105.06,72.37l.56.25Z"/><path class="cls-4" d="M71.59,105.89a2.78,2.78,0,0,0,.13-.63A4.89,4.89,0,0,0,71.59,105.89Z"/><path class="cls-4" d="M67.85,114.85l.3-.49A5.49,5.49,0,0,0,67.85,114.85Z"/><path class="cls-4" d="M105.06,72.37c-.48-.19-1-.37-1.46-.52C103.48,71.85,104.35,72.1,105.06,72.37Z"/><path class="cls-4" d="M130.52,131.3c-.15-.29-.28-.52-.4-.73l.36.69Z"/><path class="cls-4" d="M121.91,91.07l.13.47.16.37Z"/><path class="cls-4" d="M120.46,110.43a1.78,1.78,0,0,0-.11-.77,5.78,5.78,0,0,1,0,1S120.42,110.57,120.46,110.43Z"/><path class="cls-4" d="M132.24,135.32l-.3-.46Z"/><path class="cls-4" d="M113.53,79.93a.78.78,0,0,0-.08-.16S113.47,79.84,113.53,79.93Z"/><path class="cls-4" d="M128.41,90.51s0,0,0,0S128.42,90.66,128.41,90.51Z"/><path class="cls-4" d="M125.8,113l0-.32s0-.07-.06-.07Z"/><path class="cls-4" d="M54,125.59l.07,0C54.43,125.3,54.2,125.44,54,125.59Z"/><path class="cls-4" d="M54.73,72.13c.63,1.76-1.29-2.75-.31-.12C54.36,71.76,55.57,74.31,54.73,72.13Z"/><path class="cls-4" d="M130.73,131.75l.37.7Z"/><path class="cls-4" d="M54.42,72h0l.11.28Z"/><path class="cls-4" d="M41.41,160.8a3.57,3.57,0,0,0,0-.42A1.64,1.64,0,0,0,41.41,160.8Z"/><path class="cls-4" d="M45.1,131.39l-.63.42Z"/><path class="cls-4" d="M43.25,167.33c-.1-.4-.13-.54-.3-1.08l0,.17A7.46,7.46,0,0,1,43.25,167.33Z"/><path class="cls-4" d="M39.08,151.21l0,.3.12.52Z"/><path class="cls-4" d="M90,62.34c.31.16.53.23.68.32C90.43,62.51,92.7,63.13,90,62.34Z"/><path class="cls-4" d="M130.47,131.33a2.49,2.49,0,0,1,.26.42l-.25-.49S130.42,131.22,130.47,131.33Z"/><path class="cls-4" d="M42.21,166.93l-.72-2.56C41.69,165.08,42,166,42.21,166.93Z"/><path class="cls-4" d="M65.76,43.87c.08-.19.16-.38.25-.56A5.87,5.87,0,0,0,65.76,43.87Z"/><path class="cls-4" d="M39.45,156.76c-.07-.47-.17-1-.28-1.48,0-.1-.07-.22-.1-.29Z"/><path class="cls-4" d="M90.65,62.66h0Z"/><path class="cls-4" d="M107.75,66.4c-2.42-.9-1.19-.27-1.73-.38-2.91-.87-1.31-.51-2.29-.88-1.85-.46-3.3-.62-4.68-.9-.1,0-.36-.11,0-.08-2-.29-5.85-1-8.09-1.39a1.18,1.18,0,0,1-.27-.11c.33.17.37.26.28.29A5.05,5.05,0,0,1,88.66,62a2.11,2.11,0,0,0,.94.42,4,4,0,0,1-1-.5c-.36-.39-.06-.11.38.14a3,3,0,0,0,.69.32c.21.07.36.12.37.09a7.32,7.32,0,0,1-2.87-1.86A26.08,26.08,0,0,1,85,58.35c-.17-.34,2.82,3,1.31,1.2a24.47,24.47,0,0,0,1.9,1.91c-.7-.76-.39-.49-.08-.2s.67.53,0-.13c-1.28-1.18-2-1.93-2.64-2.66S84.15,57,83.05,55.58c-.57-.58.08.28-.49-.31C79.32,51.33,80.38,51.89,78,49l-.44-.49a1.56,1.56,0,0,0-.16-.15s-.1-.07,0-.13l0-.1.1-.21.27-.5c.21-.37.47-.82.82-1.39l-.32.87c.87-1.51,1.12-1.94,1.34-2.41A16.39,16.39,0,0,1,81.16,42c-.31.57-1.46,2.31-1.16,1.88,1.4-1.9.83-1.45,1.86-3l.33-.23c2.1-3.05,4.58-6.29,7.2-9.47-.12.2-.53.77.11.06a71,71,0,0,0,4.94-6.53A12.11,12.11,0,0,0,96,20.87a22.09,22.09,0,0,0,.37-4c-.05-.65-.1-1.29-.18-1.93,0-.45,0-.84,0-.36-.11-2-.08-.09-.2-1-.11-1.12-.1-1.48,0-.78a80,80,0,0,0-1.55-8.06l-.7.18A13.92,13.92,0,0,1,93.9,10l0-.69c-.15,1.37-.28,2.14-.41,2.89a8,8,0,0,1-.27,1.16,9,9,0,0,1-.56,1.5l.16-.47A24.85,24.85,0,0,1,88,22.17a38.18,38.18,0,0,1-6,5.52c-.55.73-4.92,3.49-5.13,3.9-1.47.95-2,1.3-2.67,1.75a26.57,26.57,0,0,0-3.37,2.71A14.84,14.84,0,0,0,68.52,39l-.12,0c-.4.65-.72,1.33-1.05,2l-.69,1L66,43.31a5.27,5.27,0,0,1,.61-1.05L65,45.73l-.62,1.33a4.13,4.13,0,0,1-.28.55c-.67,1.77-1.26,3.57-1.83,5.37,0-.13.29-1,.5-1.76-.85,2.91-.33.47-1.06,3.16.14-.35,0,.21,0,.28a57.54,57.54,0,0,0-1.87,6.6l0-.46c-.23.88-.42,1.78-.63,2.71l-.13.62,0,.21-.08.42-.2-.35c-.34-.57-.71-1.13-1.1-1.68a22.84,22.84,0,0,0-2.63-3.13c1.17,1.28.78,1.07-.2.08l-.32-.48c-.72-.56,1,1-.39-.16s-.83-.89,0-.26c-.55-.47-1.15-.9-1.74-1.31-.09-.1.34.17.48.22-.77-.47-3-2.22-4.13-2.79l-.08-.1c-4-2.56-5.86-3.55-8.92-5.77a10.55,10.55,0,0,1-2.12-1.59,8,8,0,0,1-1.24-1.66A17.43,17.43,0,0,0,35,43.87a39.87,39.87,0,0,0-3.34-3.62c-1.78-1.61-.58-.41-1.41-1.1.44.2-4-3.62-1.8-1.83L27.2,36.21c.15.7.3,1.34.44,1.95l.4,1.62c.17.66.33,1.27.52,1.92.37,1.29.8,2.73,1.58,4.91-.14-.55-.33-1.15-.19-.85a12.6,12.6,0,0,1,.57,1.92l-.1-.23c.53,1.36,1.12,2.81,1.8,4.27a12.49,12.49,0,0,0,2.83,4.09A37.85,37.85,0,0,0,39,58.3c1.26.72,2.42,1.37,3.43,1.9l-.22-.12c1.38.77,2.74,1.57,4.06,2.44,1.76,1.27-1.11-.69.17.29A19.44,19.44,0,0,1,51.19,67c.29.37.52.76.77,1.13s.41.79.6,1.22c.37.88.76,1.78,1.2,2.74.49,1.58,1.62,4.26,2.82,7.07l1.78,4.18.41,1,.1.25.05.11s0,0,0,0l.08.48c.1.65.2,1.25.27,1.8l0-.26a16.87,16.87,0,0,1,.33,2.2c0-.13-.15-1.23,0-.54a90,90,0,0,1,1.6,14.7,24.94,24.94,0,0,1-.87,7.3c-.69,2.26-2.57,3.94-4.39,5.57-2.74,2.32-1.29,1.64-5,4.32l.94-.9c-2.83,2.31-5.87,4.52-8.8,6.86-1.46,1.18-2.9,2.38-4.23,3.69l-1,1a4.41,4.41,0,0,0-.81,1.28,9,9,0,0,0-.63,2.78,5.43,5.43,0,0,1,.11-1.18,14.18,14.18,0,0,0-.32,3.46c0,.62.05,1.19.09,1.61a3.75,3.75,0,0,0,.11.68c.06,1.12-.06.26,0,1,.06,1.55.58,3.81.61,4.62a4.11,4.11,0,0,1-.14-.69c.17,1,.77,4.58.71,3.62.45,2.67,1.1,5,1.53,7.16.44,1.34,1.07,4.51,1.36,4.89-.24-.14,1.09,4.61,1.66,6.22-.21-.53.37,1.44.11.82a15.13,15.13,0,0,0,1.1,3.21c.13.53.28,1.06.43,1.58l1-.28a57.92,57.92,0,0,1-1.66-7.38,107.38,107.38,0,0,1-2.46-16.06,26,26,0,0,1,.31,2.89,11,11,0,0,0,.39,2.56c-.33-2.43-.54-4.35-.68-6.27a37.68,37.68,0,0,1,.05-6.26c.16-1.24,0,.71,0,1.14a18.58,18.58,0,0,1,1.39-6.81A6.47,6.47,0,0,1,44.08,133c.9-.64,1.81-1.28,2.71-1.9a6.93,6.93,0,0,1-.75.56,10.19,10.19,0,0,0,1.56-1.09l-.69.47c-1.22.65,2.74-2.06,2.86-2.18-1.13,1,3.72-2.21,1.89-.74.47-.31,1.06-.71.92-.69.73-.42,1-.53.28,0,2.63-1.63,1.64-1.14,4-2.58,0,0-.47.34-.69.53,1.17-.8,2.36-1.59,4.38-2.85-.11.1.14,0-.46.36a39.53,39.53,0,0,0,4.51-3.29,16.61,16.61,0,0,0,3.79-4.51c-.26.61-.06.29.25-.2a8.41,8.41,0,0,1,.77-1.27c.34-.74.67-1.47,1-2.23-.14.29-.28.58-.44.87a51.5,51.5,0,0,0,1.9-5.48c-.11.51-.25,1-.4,1.52.41-1.26.74-2.54,1-3.83-.2.72-.39,1.45-.62,2.16a20.71,20.71,0,0,1,.5-2.54c-.1.56.44-2.06.67-3.14h0c.08-1,.17-2.11.24-3.67,0-.41.16.33.2.07s0-.7-.06-1.24l-.07-.83c-.07-.24.1-.26.39-.41l2.88-1.39c-.39.19-.38.27-.24.24l.76-.42c.91-.32,1-.35.93-.24,2.75-1-.94.17,2.35-1a4.8,4.8,0,0,1-.65.29A7.77,7.77,0,0,0,84,89.45c.88-1.45,1.34-3,2.17-4.37.3-.36,0,.24-.34.84s-.56,1.21-.28.75a23.12,23.12,0,0,1,1.66-3,24.21,24.21,0,0,0,1.69-3.18,59.65,59.65,0,0,0,2.41-6.57l-.26.79a10.72,10.72,0,0,1,.59-2.1c.17-.5.34-1,.5-1.61l.1-.33,0-.14s0-.12.08-.08l.67.13a2,2,0,0,0-.34-.05.2.2,0,0,0-.12,0s0,0,0,0l.45.1c.19.05.38.1.57.13l1.18.21c.8.12,1.63.23,2.5.33a48.55,48.55,0,0,1,6,.86l-.56-.08a17.66,17.66,0,0,1,3.07,1,11.61,11.61,0,0,1,2.8,1.78c.5.3,1.24,1.11.83.58l.73.83c.24.28.44.59.66.88.44.56.86,1.18,1.29,1.76q1.32,1.72,2.74,3.27c1.86,2.07,3.88,3.92,5.25,6.18-.35-.52-.92-1.19-.62-.78a12.27,12.27,0,0,1,2.09,3.9,5.1,5.1,0,0,0-.4-1.48,9,9,0,0,1,.93,2.81c-.22-1-.25-1-.22-.61a13.79,13.79,0,0,1,.12,1.52c0-.15.08.15.1.07a5.24,5.24,0,0,0,.07,1.48,5.83,5.83,0,0,1-.06,2.14l0-.17a31.6,31.6,0,0,1-.45,3.6c-.2.52.17-1.28.1-1.37-.29,1.8-.47,3.59-.87,5.21l.44-2.65a33.61,33.61,0,0,0-.73,3.3l0-.13c-.2,1-.38,2.05-.5,3.09,0-.27.07-.53.12-.79,0,2.31-.39,4.74.34,7.79-.62-3-.17-.48-.33-.69.06.8.34,2,.22,1.66l.6,2a13.73,13.73,0,0,0,1,2.3c0,.1.67,1.43.45,1.17.93,1.68-.16-.43,0-.32a62.34,62.34,0,0,0,6,9.43c2.12,2.69,2.72,3.24,4.68,5.45h0l-.3-.43c-.4-.7.07,0,.39.36l-.17.14-.28-.3.26.32.21-.17c-.87-1.38-1.54-2.5-2.32-3.89.2.29.05,0-.15-.52a18.42,18.42,0,0,1-1.27-2.45c.17.27.4.6.72,1.19a48.29,48.29,0,0,1-2-4.49c-.08-.45.44.92.71,1.46-.76-1.75-1.65-4.63-1.86-5.18l.27,1.19c-.18-.67,0-.37.15.12A11.15,11.15,0,0,1,128,126c-.15-.37-.28-.75-.41-1.13.13,1.27,1.69,4.55,2.81,6.69l-.6-.83c.41.73.82,1.45,1.26,2.16.22.48.31.85-.28-.2.76,1.57.79,1.33,1.49,2.66.08.14,0,.08-.06,0,.24.35.48.7.73,1l.12-.1-.3-.32c.22.2,0-.17.36.27l-.25.2-.18-.27.17.27.27-.21c-1.81-2.21-3-3.51-3.62-4.46l.16.19c-2.58-3.36-.35-.24-2.34-2.73-.33-.65-.66-1.29-1-1.94l-.33-.28c-.24-.36-.7-1.1-.57-1-.93-1.33.1.27-.47-.49-.51-.92-1.26-2.16-1.84-3.27a10.17,10.17,0,0,1-1-2.31c-.41-.64.79,1.85-.22-.16a7.38,7.38,0,0,0-.59-1.68,13,13,0,0,1-.73-2.63c.22.56.59,2.32.25.45a8.53,8.53,0,0,1-.46-2.45c0-.49,0-1,0-1.48s0-1,0-1.35a8.5,8.5,0,0,1,.06-2.12c.11-1.21.37-2.73.59-4.07a72.43,72.43,0,0,0,1.37-7.56l0,.08a28.07,28.07,0,0,0-.43-5c.09,0,.23.38.41,1.42,0-.3-.09-.6-.14-.9a6.77,6.77,0,0,0-.21-.89,16.9,16.9,0,0,0-.86-2c.1.12.21.23.3.36-1-2.25-2.82-4-4.83-6.28-.19-.06,1.44,2-.8-.36,0-.12,0-.28.54.34-.19-.2-.7-.71-1.06-1.14l.94.9c-.9-1.06-.55-.48-1.28-1.33.07,0-.51-.65-.35-.58s.61.76.92,1a26.63,26.63,0,0,1-2-2.56c0,.12-.09.07-.66-.65-1.45-1.88-.42-.7-1.21-1.83-.4-.43-1.31-1.7-1.45-1.62a6.13,6.13,0,0,1-.71-.86l-1.12-.9a13,13,0,0,0-1.53-1l-.68-.35-.5-.19c-.24-.09-.27-.08,0,.09l.3.13-.19-.07h0c-3.81-1.57-8.27-1.65-12.17-2.42l0,0-.9-.18-.6-.13-.15,0S92,70,92,70l-.07.3-.5,1.92c-.34,1.19-.66,2.3-.89,3.13-.22.67-.62,1.55-.56,1.25a25.56,25.56,0,0,1-1.8,4.29,17.86,17.86,0,0,1,.74-1.72A40.73,40.73,0,0,1,86.31,84c.37-.81-1.08,1.48-1.48,2.56.26-.5.53-1,.81-1.48-.6,1.14-1,2.19-1.51,3.18l.14-.6a7.28,7.28,0,0,1-1.88,2.65,10.79,10.79,0,0,1-2.67,1.49L74.29,93.9c-1.14.62,2.46-1,1.45-.45l-1.55.65-.74.32-.48.22-.12.06-.07,0s0,0,0,.06v1c0,.21,0,.4,0,.57,0,.35,0,.62,0,.79-.07,1.5-.11,2.2-.14,2.93a15.37,15.37,0,0,1-.42,3c.12-.39.36-.74-.13,1.61-.56,2.16-.92,2.59-.56,1.23.15-.51.21-.76.22-.74.16-.7.36-1.62.1-.78l0,.3a20.32,20.32,0,0,1-1,3.27c-.48,1.61-.15.71.25-.47a39.17,39.17,0,0,1-2.85,6.78c.23-.4.48-.75.27-.34-1.06,1.87-1.38,2.21-1.51,2.48a1.91,1.91,0,0,1-.27.43,7.14,7.14,0,0,1-.88,1c-.6.56-.54.41-.57.4a15,15,0,0,0-1.25,1.06c-1.44,1.06-.38.13.15-.34a37.57,37.57,0,0,1-5.4,3.63l1.18-.78c-.7.48-1.29.83-1.89,1.21l.73-.35a10.13,10.13,0,0,1-1.32.75c-.7.5.65-.2-.76.75-1,.53-2.88,1.78-3.27,1.87,3-1.75-.4.09,2.13-1.44-.48.3-1.08.66-1.81,1.07-.11.06.09-.08.28-.2-2.93,1.62-1.25.9-4.21,2.71.34-.29-.76.31-1.23.62,1.19-.73.63-.26-.43.48-1.91,1.15-2,1.35-3,2l1.13-.72c-.34.31-1.28.91-2.53,1.83-.15,0,1.14-.83.66-.54a10.09,10.09,0,0,0-2.16,2,9.59,9.59,0,0,0-1.44,3.17c-.31,1.09-.15.07-.42,1-.23,1.36-.32,2.09-.43,2.84a20.2,20.2,0,0,0-.18,3c.13-.83.08-1,.16,1a36.85,36.85,0,0,1,.18-4.69c-.08,1-.1,2-.08,3a29.8,29.8,0,0,1,.28-3.81c-.11,1.43-.1,1.28,0,.62a35.32,35.32,0,0,0-.27,6l-.24-.06a78.91,78.91,0,0,0,1,10.25L40.66,155c.17.56.38,2.65.66,4-.1-.12,0,.76.07,1.36,0-.08.57,3.12.81,3.48l.29,1.91c.62,3,1,3.72,1.64,6.12l.35-.1c-.09-.29-.19-.62-.31-1,.33.78.09-.11.48.92l-.69.21c0-.07-.1-.33-.21-.68l.18.69.75-.23a11,11,0,0,0-.47-1.35c-.15-.64-1-2.94-1.23-4a12.84,12.84,0,0,1-.63-1.78c0-.14,0,0,0,0s-.59-1.88-.37-.8c-.72-3.38-2.5-9.33-2.9-12.32-.55-2.38-1.12-5.27-1.44-7.46,0,.14,0,0,.09.42-.33-3-.53-1.83-.73-5.31,0-1.78.19,1.84.17.73a14.66,14.66,0,0,0,0-2.56,11.75,11.75,0,0,1,.42-3.85,5,5,0,0,0-.12.53,5.64,5.64,0,0,1,1.3-2.68,26.88,26.88,0,0,1,2.89-2.82s-.1.11,0,0c1.41-1.41,4.39-3.78,6.62-5.5-.64.61-1,.82-.5.58,1-.78-.4.09,1.6-1.46.69-.45,2.17-1.51,2.42-1.58L50,122.05c1.06-.63,2.45-1.88,3.45-2.64l-.09.15c1.43-1.15,2.12-1.78,2.82-2.44s1.44-1.33,2.79-2.79l-.31.27c.69-.83,1-1.2,1.25-1.54a2.91,2.91,0,0,0,.44-.62,4.35,4.35,0,0,0,.51-1.13l.39-.56c.08-.35.2-.84.33-1.4s.21-1.23.24-1.92a35.06,35.06,0,0,0,.1-4.19,25.35,25.35,0,0,1-.27,6.29,22.6,22.6,0,0,0,.41-3A19.35,19.35,0,0,0,62,104a14.25,14.25,0,0,1,0,1.85c0-1.74-.1-4-.32-6.79.16.23,0-1.59-.2-3.72s-.62-4.55-.68-5.57c-.22-1.22-.44-2.43-.67-3.65L60,85.19l-.09-.46-.05-.27-.1-.27L59,82.44c-1-2.36-2-4.82-3.08-7.47.57,2-.66-1.55-.75-1.13-.53-1.23-.72-1.7-.76-1.82l-.71-1.9c-.24-.64-.47-1.27-.78-1.91-.39-.94.65,1.17.6,1-.6-1.38-.79-1.69-.87-1.85a4.43,4.43,0,0,0-.65-1.1c.18.38-.73-.79-2-2a16.34,16.34,0,0,1,1.58,1.83C50.2,64.59,49.5,64,48.85,63.39a19.33,19.33,0,0,0-3.14-2.31c.38.22.76.43,1.14.67-.9-.6-2.56-1.68-4.26-2.64s-3.43-1.88-4.37-2.32c-.31-.21-.7-.51.11-.06l-1.66-1-.83-.53c-.25-.19-.46-.39-.7-.59A14.34,14.34,0,0,1,33,51.39a39,39,0,0,1-2.58-6.64l.18.35a22.3,22.3,0,0,1-.87-2.68s.16.35,0-.07c-.07-.24-.26-.84-.47-1.52L29,39.75a4.42,4.42,0,0,1-.14-.58l.08.18v0l0,.12.08.26L28.84,39l.2.16a4.59,4.59,0,0,1,.45.37L31.15,41a38.2,38.2,0,0,1,3.23,3.25A16,16,0,0,0,35.5,46a11,11,0,0,0,1.12,1.65,15.14,15.14,0,0,0,1.27,1.27l-.07,0a49.44,49.44,0,0,0,6.44,4.4c2.05,1.23,4.06,2.42,6.29,3.88a29.46,29.46,0,0,1,4.23,3.56A22.6,22.6,0,0,1,57,63.5c.34.5.66,1,1,1.54.49.86,1,1.93,1.52,2.91.2-1,.4-2,.6-3l.14-.69.1-.43.2-.83c-.2.79-.11-.16.08-1.08.32-1.2.73-3.36.84-3.13l-.12.43c.4-.87,1-3.34,1.66-5.23l-.1-.38c1-2.44,2.08-5.66,3.32-8.52a25.31,25.31,0,0,1,3.55-6.36,20.71,20.71,0,0,1,2.68-3l0,.13c2.63-2.24,4.16-3.09,7.68-5.64l-.67.58a52.11,52.11,0,0,0,4.07-3.52,6.14,6.14,0,0,0,.63-.31,47.05,47.05,0,0,0,4.64-4.51,23.13,23.13,0,0,0,3.69-5.32,3.17,3.17,0,0,1-.38.82A21.18,21.18,0,0,0,94,13.8c.52-1.56.67-2.85.5-2.5a8.58,8.58,0,0,0,.36-2.39,14.58,14.58,0,0,0-.37-4.17l-.68.17.06.24-.13-.23.82-.2.06.1,0-.11-.87.22a26.26,26.26,0,0,1,1.12,4.45c.09.64,0,.57-.1-.27.27,2.11.39,1.62.62,4.2-.05-.32-.12-.64-.18-1,.23,2.18.22,2,.38,3.2a19.3,19.3,0,0,1,0,2.63A7.82,7.82,0,0,1,95.29,20a7.46,7.46,0,0,1-.08,1,6.8,6.8,0,0,1-.48,1.67c-.1.14.06-.29.13-.51A17.78,17.78,0,0,1,92.78,26a25.75,25.75,0,0,1-2.16,2.82,1.37,1.37,0,0,0-.32.29c1.86-2.25,3.17-4.18,3-4,0,0-1.44,1.83-.48.25a53.56,53.56,0,0,1-4.41,5.94l-.22.21.14-.19c-.35.4-.65.77-.92,1.13-.48.56-.79.91-1.23,1.46-.24.16-1.74,2.1-2.46,3,.15,0-.79,1.22.15.12a7.57,7.57,0,0,1,.61-.81l.3-.41,0,.07c.46-.62,1.1-1.4,1.82-2.3-.54.76-1.12,1.54-2,2.54-.32.53-.66,1.1-.86,1.42-1.1,1.19-3,3.69-3.28,4-1,1.52-2.12,3.33-3.06,5-.25.45-.5.9-.73,1.33l-.13.23-.06.11s0,.07,0,.11l.31.41.4.52c.51.66,1,1.23,1.35,1.65a7.84,7.84,0,0,1,.85,1.31c-.37-.46-.79-1-1-1.27a62,62,0,0,0,4.13,5.11c1.58,2-1-1,1.25,1.69l-.35-.33a31.67,31.67,0,0,0,3.25,3.63,11.23,11.23,0,0,0,1.79,1.43,4.32,4.32,0,0,0,1,.48,8.39,8.39,0,0,0,1.09.3c2.89.64,5.91.91,9.65,1.87a7.31,7.31,0,0,1-.88-.24,59.4,59.4,0,0,1,6.44,1.71,23.26,23.26,0,0,1,6,2.89l1.3,1,1.13,1.22,1.07,1.31c.39.42.75.85,1.15,1.25a15.77,15.77,0,0,0,2.59,2.17,19.58,19.58,0,0,1,2.65,1.88,16.09,16.09,0,0,1,1.62,1.78c.33.45.64.78,1,1.41l.17.52c.45.72.94,1.44,1.32,2.2a14.8,14.8,0,0,1,1.48,4.83,38.85,38.85,0,0,1,.32,5.77l.1-.59a32.58,32.58,0,0,1-.47,5,5.89,5.89,0,0,1-.12,1.18l-.07.05-.49,4c-.5,3.14-.21-.53-.84,4.06a28.05,28.05,0,0,0-.2,4.26,12.83,12.83,0,0,1,.26-1.81l-.1,1.57c.17.3.24,1.51.72-2.3.07-.89.12-1.78.21-2.67l.21-.84-.29,2.23a27.87,27.87,0,0,0,.36-3,8.88,8.88,0,0,0,.26-1.09l.21-2.64c.12-.31,0,1.19.27-.56.1-1.23-.33,1.16-.08-.88a11,11,0,0,0,.39-2.4c.07-.21.07.12,0,.72a35.45,35.45,0,0,0,.26-4.28c0-.33.07-.79.09-1.28l0-1.51a5.69,5.69,0,0,1,0-1.68c0-.21-.18-.8-.32-1.5s-.41-1.46-.55-2.07c.38,1.09.14-.07-.36-1.38a18.84,18.84,0,0,1-1-2.5c-.49-.7-1.2-2-2.23-3.43a11.94,11.94,0,0,0-1.83-1.94A16.27,16.27,0,0,0,120,76.35c.14.07.43.22.65.36a13.88,13.88,0,0,1-2.51-1.88,4.78,4.78,0,0,1-1.29-1c-.6-.57-1.28-1.29-1.74-1.81-1.17-1.66.93.83.63.25,0,.08-.55-.58-1.16-1.19s-1.13-1.14-.92-.84c-1.18-1.09-1-.94-1.63-1.52-.35,0-1.25-.83-2.51-1.27-1-.57-1.14-.61-1.29-.72a8.88,8.88,0,0,0-1.53-.6C105.61,65.7,107.75,66.37,107.75,66.4ZM89.36,31.24h0c-.33.39-.6.73-.77.94Zm3.12-3.87c-.37.48-.84,1.07-1.34,1.69-.14.11,0-.06.26-.45A10.91,10.91,0,0,0,92.48,27.37ZM85.26,35a6,6,0,0,1,.75-.88l-.85,1.08,0,.08A2.07,2.07,0,0,1,85.26,35Z"/><path class="cls-4" d="M84.51,36.24l-.2.26.31-.36.15-.24Z"/><path class="cls-4" d="M105.71,72.66l-.09,0,.2.1Z"/><polygon class="cls-4" points="68.37 38.92 68.4 38.93 68.62 38.55 68.37 38.92"/><path class="cls-4" d="M121.91,93.76s0,.15,0,.35C121.92,94.1,121.92,94,121.91,93.76Z"/><path class="cls-4" d="M120.48,105.37q-.17.81-.3,1.65C120.31,106.3,120.41,105.78,120.48,105.37Z"/><path class="cls-4" d="M120.06,114.47a.66.66,0,0,0,.08.17v0Z"/><path class="cls-4" d="M46,131.67l-.28.19C45.1,132.35,45.54,132,46,131.67Z"/><path class="cls-4" d="M73.06,100.94l-.17,1.38A5.46,5.46,0,0,0,73.06,100.94Z"/><path class="cls-4" d="M42.29,167.21h0l-.09-.28Z"/><path class="cls-4" d="M72.48,104.28c.19-.74.31-1.37.41-2C72.76,102.93,72.61,103.66,72.48,104.28Z"/><path class="cls-4" d="M127.55,123.86c0-.14-.09-.28-.12-.42,0,0,0,0,0,0C127.44,123.55,127.5,123.7,127.55,123.86Z"/><path class="cls-4" d="M127.4,123.39l-.13-.46A3,3,0,0,0,127.4,123.39Z"/><path class="cls-4" d="M127,122l.29,1A9.87,9.87,0,0,0,127,122Z"/><path class="cls-4" d="M132.36,134.72l.11.1C132.42,134.76,132.39,134.72,132.36,134.72Z"/><path class="cls-4" d="M131.54,135l1.22,1.53.57-.45-.77-1.21-.09-.08c.16.21.48.76.83,1.31l-.51.4C132.32,136,131.85,135.34,131.54,135Z"/><path class="cls-4" d="M123.34,122.23c.45.9,1,1.78,1.47,2.66-.23-.48-.54-1.11.18.07C123.17,121.58,125.27,125.71,123.34,122.23Z"/><path class="cls-4" d="M120.48,113.36c.22,1.6,0,0,.09,0C120.47,112.4,120.44,112.14,120.48,113.36Z"/><path class="cls-4" d="M89.66,77.27l0-.19C89.19,78.26,89.66,77.11,89.66,77.27Z"/><path class="cls-4" d="M84.27,89.17c.22-.36.43-.73.62-1.1l.15-.58C84.81,88.05,84.56,88.62,84.27,89.17Z"/><path class="cls-4" d="M77.42,92.53l.52-.21c-.67.25-1.32.52-2,.81C76.45,92.92,76.93,92.72,77.42,92.53Z"/><path class="cls-4" d="M39.82,154.08l0,.4C40,155.3,40.18,155.44,39.82,154.08Z"/><path class="cls-4" d="M58.66,114.71a7.76,7.76,0,0,0,1.8-2.23A12.94,12.94,0,0,1,58.66,114.71Z"/><path class="cls-4" d="M63.8,51.32l-.28,1c.19-.6.38-1.19.59-1.78Z"/></g></g></g><g id="Layer_102" data-name="Layer 102"><g id="Pierna"><rect class="cls-5" width="160" height="195"/></g></g></g></g></svg>