<svg xmlns="http://www.w3.org/2000/svg" viewBox="0 0 160 195"><defs><style>.cls-1{isolation:isolate;}.cls-2{fill:#b72519;}.cls-3{fill:none;mix-blend-mode:multiply;opacity:0.4;}</style></defs><g class="cls-1"><g id="Layer_2" data-name="Layer 2"><g id="Variacion_C" data-name="Variacion C"><g id="AssetsF4"><g id="HamE4"><path class="cls-2" d="M88.71,80.85c-5.91-3.14-17.4-4.79-22.83.33s-6.13,17.32-2.67,23.65c3.58,6.53,13.24,9.84,18.64,3.36s-.32-15.81-8.33-14.69c-1.82.26-1.35,2.91.3,3.07,8.67.84,7.78,12-.38,11.54-5.71-.33-8.61-6.37-8.73-11.4-.12-4.53,1.47-12.6,6.51-14a22.65,22.65,0,0,1,13.07.43c9.14,3.21,14.07,13.23,9.34,22.07-4.19,7.82-13,11.09-21.42,11.58-4,.23-8.13.22-11.56-2.14a31.52,31.52,0,0,1-9.25-9.88c-4.44-8.24-.14-18,5-24.8C65.26,68.5,78.82,59.15,81.87,44.07c.17-.83-1.13-1.29-1.56-.58-2.83,4.65-4.86,9.68-8,14.19-3.46,5-7.73,9.28-11.92,13.67C54.05,78,47.94,85.48,46.93,95c-1,9.18,4.51,17,11.47,22.49,6.46,5.09,17.35,3.76,24.61,1.19,7.91-2.81,14.74-9.25,16.19-17.77C100.58,92.71,95.92,84.68,88.71,80.85Z"/><path class="cls-2" d="M109.46,94.06c-1.53-7.36-5.61-13.88-10.17-19.74C96.37,70.56,93,67.1,90.38,63.11c-2.89-4.4-4.08-9-4.77-14.13a.93.93,0,0,0-1.83.08C82.18,62.87,94.48,71.73,101,82.3c4,6.5,6.66,14.09,5.19,21.78-1.6,8.38-7.39,12.44-15.07,14.79a1.23,1.23,0,0,0,.17,2.41c5.85,1.06,11.59-2.88,14.88-7.49C110.2,108.13,110.85,100.71,109.46,94.06Z"/><path class="cls-2" d="M120.36,79.83c-5.91,3.66-8.22,9.29-6.57,16,1.08,4.44,2.1,8.29.79,12.85-1.59,5.54-5,8.34-9.18,11.81-.81.68-.15,2.3.95,1.95,6.37-2,10.78-9.14,11.86-15.44,1.57-9.24-6.27-18.92,2.91-26.27C121.74,80.28,121,79.43,120.36,79.83Z"/><path class="cls-2" d="M46.24,77c4.66-6.25,10.65-15.58,4.65-23a.89.89,0,0,0-1.48.94c6.15,12.29-8.13,20.87-11.3,31.69-2.36,8.06-1.1,18,4.62,24.35.47.52,1.51,0,1.12-.69-2.88-5.06-5.38-10.82-5-16.76C39.33,87.13,42.5,82,46.24,77Z"/><path class="cls-2" d="M61.49,55.78c-.16-.67-1.21-.73-1.27,0A53.07,53.07,0,0,0,59.9,62c0,.58.81.54,1,.12A9.32,9.32,0,0,0,61.49,55.78Z"/></g></g></g><g id="Layer_102" data-name="Layer 102"><g id="Pierna"><rect class="cls-3" width="160" height="195"/></g></g></g></g></svg>