<svg xmlns="http://www.w3.org/2000/svg" viewBox="0 0 160 195"><defs><style>.cls-1{isolation:isolate;}.cls-2{fill:#b72519;}.cls-3{fill:none;mix-blend-mode:multiply;opacity:0.4;}</style></defs><g class="cls-1"><g id="Layer_2" data-name="Layer 2"><g id="Variacion_B" data-name="Variacion B"><g id="AssetsF4"><g id="HamF4"><path class="cls-2" d="M79.75,75c-11.47-1.2-23.14,4.63-27.91,15.34-2.54,5.72-2.43,12.37-1.71,18.48A23.05,23.05,0,0,0,57.3,123.5c4.37,4,9.77,5.69,15.6,5.86,6.06.17,12.65-.18,18.18-2.86,11.07-5.36,14.11-19,10.81-30A32.33,32.33,0,0,0,91.33,80.42c-5-4-12.32-7-18.73-4.82a1.49,1.49,0,0,0,.27,2.93c5.4.4,10.46,1.38,15,4.54a27.32,27.32,0,0,1,8.87,11.14c4.06,8.92,3.54,21-4.93,27.21-4.22,3.12-9.63,3.79-14.73,4s-10.3,0-14.83-2.83a18.32,18.32,0,0,1-8-10.69,38.24,38.24,0,0,1-1.08-8.52,31.67,31.67,0,0,1,.58-8.53,21.63,21.63,0,0,1,8.94-12.69A28.45,28.45,0,0,1,79.6,77.66,1.35,1.35,0,0,0,79.75,75Z"/><path class="cls-2" d="M71.57,90.46c-1.32-1.33-3-.95-4.49,0a20,20,0,0,0-4.6,3.79c-2.85,3.3-3.22,8.27-2.76,12.45a14.21,14.21,0,0,0,5.43,9.47,15.59,15.59,0,0,0,11.58,3c7.12-.86,14.34-6.84,13.5-14.58A11,11,0,0,0,84.92,96c-3.38-1.83-8.81-1.77-12,.56a7.48,7.48,0,0,0-1.49,10.27c2.31,3,7.85,4.08,10.3.7.63-.87-.27-2.41-1.38-2-2,.69-4.44,1.3-6.08-.49a4,4,0,0,1,.63-5.62,7.54,7.54,0,0,1,4.29-1,7.68,7.68,0,0,1,4.11.87,7.47,7.47,0,0,1,3.36,5.51c.66,5.3-4.22,9.52-9,10.65-5.52,1.32-11.73-.92-14.17-6.27a12,12,0,0,1-.88-5.12,18.24,18.24,0,0,1,.64-5.46,8.87,8.87,0,0,1,2.84-3.87c.52-.45,3.19-3,3.93-2.62,1,.58,2.41-.69,1.46-1.64Z"/><path class="cls-2" d="M55.82,76a5.86,5.86,0,0,1-2.74-4.75c0-2.52.75-5,.93-7.54a18.59,18.59,0,0,0-.64-6.84c-.52-1.65-1.5-4.47-3.55-4.62a1,1,0,0,0-1,.84,5.46,5.46,0,0,0,1.06,2.81,11.75,11.75,0,0,1,1,3.33,23.27,23.27,0,0,1-.38,7.8c-.42,2.32-.93,4.64-.1,6.94a7.3,7.3,0,0,0,4.19,4.47C56.15,79,57,76.88,55.82,76Z"/><path class="cls-2" d="M49.56,54.14c2.13,4,6.84,5,10.45,7.27a10.37,10.37,0,0,1,5.11,7.81,27.48,27.48,0,0,0,.17,3.52,1.14,1.14,0,0,0,2,.42c1.41-2,.72-5.19,0-7.3a12.85,12.85,0,0,0-4.4-6c-3.64-2.71-8.43-3.49-11.66-6.82-.75-.77-2.21,0-1.65,1.07Z"/><path class="cls-2" d="M86.34,71a12.71,12.71,0,0,1,8-8.76c2.12-.82,4.27-.85,6.48-1.19,1.82-.28,4.1-1.49,3.79-3.67a.84.84,0,0,0-1.34-.5,6.55,6.55,0,0,1-2.22,1.27,22,22,0,0,1-3.53.43,18.07,18.07,0,0,0-6.21,1.94,14.67,14.67,0,0,0-7.53,9.63c-.36,1.67,2.15,2.55,2.55.85Z"/><path class="cls-2" d="M102.28,59.17A9.24,9.24,0,0,0,100.8,62a9.61,9.61,0,0,0-.25,3.25,25.46,25.46,0,0,0,1.59,6.36A14.48,14.48,0,0,1,103.2,78c-.26,1.94-1.33,2.94-2.58,4.29a1.1,1.1,0,0,0,.92,1.89c1.86-.31,3.09-2.12,3.73-3.76a11,11,0,0,0,.28-6.24c-1-4.81-3.78-9.3-2.16-14.35.21-.66-.68-1.26-1.11-.62Z"/><path class="cls-2" d="M65.53,132c-1.73.2-1.76,2.37-1.55,3.66a7.12,7.12,0,0,0,1.43,3.15,14.77,14.77,0,0,0,5.61,4c2.07,1,4.44,1.89,5.94,3.71a6.81,6.81,0,0,1,1.34,2.82c.25,1.15,0,2.3.2,3.45a1.5,1.5,0,0,0,2.7.47c1.25-2.11.45-5.24-.64-7.27a11.66,11.66,0,0,0-5.44-4.8c-2.13-1-4.44-1.75-6.33-3.21a6,6,0,0,1-1.92-2.39c-.46-1.09.11-2.39-.61-3.36a.8.8,0,0,0-.73-.27Z"/><path class="cls-2" d="M80.4,153.12c2.69-.45,3.49-4.35,3.92-6.54.6-3.08.82-6.3-.42-9.26a7.06,7.06,0,0,0-2.5-3.16,2.58,2.58,0,0,0-1.73-.53c-.82.17-.9,1-.57,1.6a12.25,12.25,0,0,0,1.13,1.45,8,8,0,0,1,1,1.75,9.31,9.31,0,0,1,.67,4.07,25.64,25.64,0,0,1-.82,5.37,7.45,7.45,0,0,1-.62,1.77c-.33.63-.88,1.08-1.25,1.68a1.18,1.18,0,0,0,1.2,1.8Z"/><path class="cls-2" d="M94.37,128.39c0,.24-.62.72-.74,1a7.89,7.89,0,0,0-.28,1,12.09,12.09,0,0,0-.32,2.24,9.78,9.78,0,0,0,.71,4A8.25,8.25,0,0,0,99,141.45a9.18,9.18,0,0,0,7.66-1.49c2.17-1.58,4.52-3.54,5.73-6,.42-.85-.73-1.41-1.36-1-2.1,1.45-3.37,3.79-5.77,4.87-1.94.87-4.28,1.54-6.31.55a6,6,0,0,1-3.11-4.82,7.78,7.78,0,0,1,.06-1.74c.09-.68.38-1.31.46-2a2.16,2.16,0,0,0-.25-1.62,1.1,1.1,0,0,0-.76-.38c-.26,0-1,.14-1,.48Z"/><path class="cls-2" d="M112,133.9a1.49,1.49,0,0,0-.86-1l-.41-.19c-.18-.09-.36-.14-.54-.25a2.13,2.13,0,0,1-.72-.77,4.83,4.83,0,0,1-.48-2.31c0-2.17.3-4.36.46-6.53s.06-4.3-1.3-6a4,4,0,0,0-2.47-1.57c-.91-.14-2,.09-2.15,1.13a.84.84,0,0,0,.08.44c.17.51,1.19.91,1.67,1.22a2.82,2.82,0,0,1,.77.73,4.88,4.88,0,0,1,.55,2.84c-.07,2.2-.34,4.39-.44,6.58a8.6,8.6,0,0,0,1,5.09,5,5,0,0,0,2.31,1.91,1.79,1.79,0,0,0,2.53-.79c0-.08.11-.46,0-.53Z"/><path class="cls-2" d="M108.59,108.47c.57-.32,1.21-.49,1.79-.81s1.05-.6,1.56-.92a23.39,23.39,0,0,1,3.39-1.71c2.24-.93,4.2-1.93,5.53-4.06a12.27,12.27,0,0,0,1.66-6.4,24.22,24.22,0,0,0-.4-4.16,12.49,12.49,0,0,0-1.39-4,.84.84,0,0,0-1.58.27,12.42,12.42,0,0,0,.09,3.75,23.93,23.93,0,0,1,.42,3.59,10,10,0,0,1-1.44,5.77c-1.21,1.82-3.24,2.36-5.1,3.28a21.57,21.57,0,0,0-2.78,1.64,8.35,8.35,0,0,0-1.53,1.38,13.77,13.77,0,0,0-1,1.44c-.31.46.16,1.23.73.92Z"/><path class="cls-2" d="M119.22,85.9c-.78.54-1.15,1.57-1.82,2.2a10.17,10.17,0,0,1-1,.71c0-.06.52,0,.5,0l-.36-.23c-.24-.16-.48-.31-.74-.46a28.76,28.76,0,0,0-3.09-1.55c-.53-.23-1.07-.43-1.62-.61a4.85,4.85,0,0,0-1.93-.15c-1,.09-1.05,1.43-.41,1.94a16.73,16.73,0,0,0,3.6,1.77c1.1.52,2.09,1.22,3.17,1.75,1.42.69,2.79-.2,3.76-1.23.84-.88,2-2.3,1.55-3.6a1,1,0,0,0-1.6-.56Z"/><path class="cls-2" d="M46.88,88.55c-.14-1.54-1.79-2.71-3-3.36a5.5,5.5,0,0,1-1.8-1,1.94,1.94,0,0,1-.32-1.33,15.81,15.81,0,0,1,.85-4.24C43,77,43.9,75.34,43.78,73.65c-.05-.76-1-.93-1.54-.55-1.47,1.12-2.07,3.45-2.63,5.13a13.56,13.56,0,0,0-1,5,4.67,4.67,0,0,0,2.7,4.07c.79.38,1.55.76,2.31,1.22a6.35,6.35,0,0,0,2.29,1.08,1,1,0,0,0,1-1.1Z"/><path class="cls-2" d="M39.64,74.61C34.28,78.19,31.77,85.72,32.09,92a9.83,9.83,0,0,0,4.11,7.74c2.29,1.67,5.68,2.94,8.42,1.83a1,1,0,0,0-.09-1.83c-2.35-.76-4.71-.82-6.81-2.32-2.3-1.64-3.1-4.12-3.08-6.87A19.87,19.87,0,0,1,40.79,76a.9.9,0,0,0-1.15-1.38Z"/><path class="cls-2" d="M42,110c-1.93,1.29-2.75,3.82-3.48,5.94a14.84,14.84,0,0,0-.89,7.07c.62,4.11,4.4,7.78,8.24,9A1,1,0,0,0,47,130.47c-2.26-2.69-5.65-4.27-6.46-8a11.54,11.54,0,0,1,.53-5.76,30.3,30.3,0,0,1,2.3-5.56A.91.91,0,0,0,42,110Z"/><path class="cls-2" d="M49.81,133.23l-.27-.3-.07-.08c.15.22.11.17-.12-.17-.07-.08-.16-.14-.23-.21s-.29-.43-.11-.12a2.54,2.54,0,0,1-.16-.28s-.17-.42-.1-.22-.06-.21-.07-.25l-.06-.32,0-.22c0,.18,0,.22,0,.11s0-.26,0-.39,0-.21,0-.32,0-.17,0,0c0-.06,0-.12,0-.18s.09-.28.14-.42c.12-.35-.14.22,0-.11.07-.12.15-.23.23-.36s0-.06,0,0l.18-.16c-.22.2.08,0,.15-.08s.17-.07,0,0l.28-.07a8.2,8.2,0,0,1,.86-.18,11.26,11.26,0,0,1,1.94-.21,3.47,3.47,0,0,1,1.42.19,3.54,3.54,0,0,1,1.11.87.67.67,0,0,0,1.07-.47,3.38,3.38,0,0,0-2.09-2.7,7.37,7.37,0,0,0-4.34-.28,5,5,0,0,0-2,.58,4,4,0,0,0-1.58,1.9,5.54,5.54,0,0,0-.19,3.53,4.87,4.87,0,0,0,.92,1.83,2.54,2.54,0,0,0,2,1,1.18,1.18,0,0,0,1.11-.64,1.14,1.14,0,0,0-.16-1.29Z"/><path class="cls-2" d="M54,132.06a2.26,2.26,0,0,0-.94,1.29,3.94,3.94,0,0,0-.11,1.84,9,9,0,0,0,.81,3,9.1,9.1,0,0,0,4.51,4.29,7,7,0,0,0,2.91.74c.78,0,1.67-.36,1.73-1.26s-.71-1.32-1.44-1.48l-.58-.11c-.27-.05.32.09-.12,0l-.69-.19A6.5,6.5,0,0,1,57,138l-.22-.29c.12.17-.13-.19-.12-.19-.15-.23-.27-.46-.4-.7s-.23-.48-.33-.73,0-.13,0-.07c-.06-.16-.1-.32-.15-.49-.15-.57-.19-1.14-.29-1.71a7.17,7.17,0,0,0-.23-.73,1.76,1.76,0,0,0-.49-1,.73.73,0,0,0-.74-.07Z"/><path class="cls-2" d="M39.58,105.79l-.29.1.4-.07a4.53,4.53,0,0,0-1,0c-.3.06-.59.18-.88.25a4.91,4.91,0,0,1-1.47.19,7.12,7.12,0,0,1-.92-.07c-.15,0-.3,0-.45-.06.21,0-.23-.06-.22-.06l-.44-.14-.14-.06c.08,0,.08,0,0,0s-.4-.27-.27-.17-.14-.14-.17-.18l-.19-.22c.19.24,0,0,0-.1a5.44,5.44,0,0,1-.3-.65c.13.33-.08-.22-.13-.35s.06.2,0-.12-.15-.44-.22-.66a5.3,5.3,0,0,0-1.68-2.81.84.84,0,0,0-1.3.82c.07.58.06,1.18.17,1.76s.21,1,.32,1.56a5.53,5.53,0,0,0,1.89,3.2,6.08,6.08,0,0,0,4.35,1,8.33,8.33,0,0,0,2.08-.51,5.08,5.08,0,0,0,.81-.4,2.47,2.47,0,0,0,.86-1.13l-.23.31.34-.34c.52-.56-.27-1.26-.86-1Z"/><path class="cls-2" d="M47.25,69.22a8.27,8.27,0,0,1,.37-1.38c.15-.4.39-.79.52-1.2a8.62,8.62,0,0,0,.23-2.86A8.52,8.52,0,0,0,47,59.42a9.65,9.65,0,0,0-3.08-2.71c-1-.65-1.94-1.45-3-2.12a.83.83,0,0,0-1.31.59c-.27,2.84,3.28,3.48,4.81,5.18a6.72,6.72,0,0,1,1.46,3.48,20.77,20.77,0,0,1,.15,2.36c0,.43.16.83.2,1.26a6.44,6.44,0,0,1-.05,1.64.51.51,0,0,0,1,.12Z"/><path class="cls-2" d="M73.72,46.91A9.58,9.58,0,0,0,70.19,57,10.12,10.12,0,0,0,73,61.73c1.36,1.27,3.22,2.69,5.17,2.57.77,0,1-1.07.56-1.58-.92-1.14-2.48-1.64-3.57-2.59a7.61,7.61,0,0,1-2.37-3.72,8,8,0,0,1,2.33-7.87,1.08,1.08,0,0,0-1.4-1.63Z"/><path class="cls-2" d="M111.94,83.05a2.49,2.49,0,0,0,1.35-1.85,5.25,5.25,0,0,0-.11-2.43c-.45-1.63-1-3.11-.69-4.83A7.61,7.61,0,0,1,114.75,70a10.1,10.1,0,0,1,1.77-1.35,12.24,12.24,0,0,0,2.28-1.45,1,1,0,0,0-.56-1.73c-1.71-.2-3.53,1-4.81,2a10.12,10.12,0,0,0-3.17,4.25,8.31,8.31,0,0,0-.4,5.23c.27.93.76,1.79,1,2.73a3,3,0,0,1-.27,2.14,1,1,0,0,0,1.35,1.23Z"/><path class="cls-2" d="M115.56,114c.17-.13-.16,0,.07,0a1.2,1.2,0,0,1,.27,0,1.88,1.88,0,0,1,.61.23,2.72,2.72,0,0,1,.88,1.34,15.65,15.65,0,0,1,.68,4,11.59,11.59,0,0,0,.9,3.71,5.61,5.61,0,0,0,2.29,2.7,3.23,3.23,0,0,0,1.89.42c.59-.06,1.36-.23,1.33-1,0-.57-.7-.87-1.1-1.2a8.33,8.33,0,0,1-1.15-1.15,6.18,6.18,0,0,1-1.12-2.66c-.27-1.33-.34-2.7-.62-4a7.06,7.06,0,0,0-2.28-4.2,3,3,0,0,0-4.18.49c-.8.94.64,2.08,1.53,1.39Z"/></g></g></g><g id="Layer_102" data-name="Layer 102"><g id="Pierna"><rect class="cls-3" width="160" height="195"/></g></g></g></g></svg>