<svg xmlns="http://www.w3.org/2000/svg" viewBox="0 0 464 265"><defs><style>.cls-1{isolation:isolate;}.cls-2{fill:#a67c52;}.cls-3{fill:#42210b;}.cls-4{fill:none;mix-blend-mode:multiply;opacity:0.4;}</style></defs><g class="cls-1"><g id="Layer_2" data-name="Layer 2"><g id="Variación_B" data-name="Variación B"><g id="AssetsE1"><g id="HornE1"><path class="cls-2" d="M331.28,188.91l-.12,0c.14-.09.29-.17.42-.27a.48.48,0,0,0-.36-.86,14.06,14.06,0,0,0-2.46.32,16.54,16.54,0,0,0-4.24-4.14c.55-.68.48-1.67-.76-2.06a37,37,0,0,1-5.72-2.32,40.13,40.13,0,0,1-7.28-5.48,6,6,0,0,0-2.92-1.61c.16-2.68-3.14-5.42-6.6-3.61a57.15,57.15,0,0,0-5.88-12.18,37.42,37.42,0,0,0-.34-6.53c-.51-4-1.93-11.45-7.46-12.85-.92-.23-2.3.08-2.54,1-.62,2.25.38,3.89,1.14,6.06.07.18.12.37.18.56-3.83,3.35-1,12.23.1,15.82a42.57,42.57,0,0,0,3.31,8.37,5.85,5.85,0,0,0-2.8.8,6.16,6.16,0,0,0-4.21-.38,9.42,9.42,0,0,0-1.52.59,12.1,12.1,0,0,0-3.15-1.12,8.79,8.79,0,0,0-6.09.76,6.15,6.15,0,0,0-2.75.29,6.41,6.41,0,0,0-4.85-.66,5.16,5.16,0,0,0-1.65-.53,51.26,51.26,0,0,0-1.34-10.08,3.06,3.06,0,0,0-1.16-1.81q-.51-3.24-1.22-6.47a3.17,3.17,0,0,0-1.11-1.81,42.82,42.82,0,0,0-4.24-8.16,3.25,3.25,0,0,0-.69-.74,72.32,72.32,0,0,0-6.29-8.59A3.84,3.84,0,0,0,244.2,130c-1.35-1.51-2.68-3-3.91-4.45a2.32,2.32,0,0,0-2.06-.82c-.29-.3-.57-.61-.87-.91-1.87-1.86-5.78.28-4.29,2.4,3.51,5,7.31,9.92,10.77,15a46.32,46.32,0,0,0,3.49,5.4,12.25,12.25,0,0,0,2.3,3.42l.3,1a2.85,2.85,0,0,0-.11.66,27.71,27.71,0,0,0,1.25,9.28,3.68,3.68,0,0,0,.15.35c0,.33.05.67.07,1a21,21,0,0,0-.23,3.35,3.84,3.84,0,0,0-2.62,2.13c-.17.35-.31.69-.45,1h0s0,.07,0,.11a11.7,11.7,0,0,0-.26,8.73,4.39,4.39,0,0,0,4.57,2.84,6.45,6.45,0,0,0,4.66,2.33,112.6,112.6,0,0,0,19.09-.37c1.48,2.57,5.72,3.8,8.31,1.72a3.59,3.59,0,0,0,1.35,3.66,3.54,3.54,0,0,0,.75,1.75,7.91,7.91,0,0,0,.29,1.08,4.34,4.34,0,0,0,2.13,2.25l0,.07c-1,2.7,1.6,4.91,4.52,5.4a3.91,3.91,0,0,0,.72,2.12.75.75,0,0,1-.07.12c-2.2,3.86,1.81,6.75,5.68,6.34,0,.47,0,.95,0,1.42s.64,1,1.27,1a13,13,0,0,0-.89,2.38c-.11.4.58.5.83.25L301,212a.64.64,0,0,0,.54.08c.92-.32,1.39-1.74,1.77-2.42.06-.09.1-.19.15-.28s.31-.34.46-.52l.07-.08a44,44,0,0,1,5.84-6c1.66-1.31,3.45-2.52,5.16-3.79.47-.3.93-.6,1.4-.88,4.93-3,10.7-5.18,15.38-8.37C332.13,189.41,331.82,188.77,331.28,188.91Z"/><path class="cls-2" d="M442.9,119.27c-.07-.28-.12-.56-.18-.84,1-1.4,1.78-3,.58-4.09a2.37,2.37,0,0,0-3.14.07c-1,.87-1,2.14-.81,3.48a2.5,2.5,0,0,0-.09.25,8.13,8.13,0,0,0-2,2.13,1.87,1.87,0,0,0-.29.2c-2.05,1.86-4,3.77-5.9,5.72l-.15-.06a1.67,1.67,0,0,0-2.34.26c-1.15,1.67-2.22,3.36-3.25,5.07-1.59,2.13-3.13,4.29-4.59,6.49a1.87,1.87,0,0,0-2.29,1l-.09.34a1.5,1.5,0,0,0-1.68,1,1.84,1.84,0,0,0-1.61.17,1.77,1.77,0,0,0-.86.29c-.57-1.77-3.32-4.41-6.42-6.57a59.54,59.54,0,0,1-6.17-6.13,1.67,1.67,0,0,0-2.76.48l-2.13-2.2a7.23,7.23,0,0,0,.26-.68,26.35,26.35,0,0,0,7-5.8,1.14,1.14,0,0,0,.27-1,41.87,41.87,0,0,0,3.13-3l.22-.24a1.29,1.29,0,0,0,1.29-.71c.6-1.07,1.17-2.15,1.75-3.23.37-.61.71-1.23,1.06-1.85a1.3,1.3,0,0,0,.77-.83c.12-.37.24-.74.35-1.11a1.43,1.43,0,0,0,1.07-.91c1.09-3.22,2-6.46,2.91-9.72a49.08,49.08,0,0,0,1.45-6,1.22,1.22,0,0,0-.92-1.36c0-.18.08-.35.12-.52a1.09,1.09,0,0,0-.11-.77,48.16,48.16,0,0,0,.37-5.76c.2-.63.41-1.25.61-1.87a.82.82,0,0,0-.06-.67c.14-.38.26-.76.42-1.15.35-.9-.87-1.54-1.81-1.38-.85-.41-2.21,0-2.25,1.06l-.12,2.8a25.19,25.19,0,0,0-3.63,9.11c-2.06,4.08-3.83,8.22-6.5,12.11-2.38,3.48-5.51,6.62-7.28,10.32a1.59,1.59,0,0,0-1.19,0l-.36.16h0a91.76,91.76,0,0,0-11.23,5.72,1.2,1.2,0,0,0-.68.87.93.93,0,0,0-.59.71l-.22,1.45v0l-.05.34c-.45-1-2.39-1-2.44.3,0,.37,0,.74,0,1.1a.89.89,0,0,0,0,.56,6.37,6.37,0,0,0,.3,4,1.41,1.41,0,0,0,2,.47,13.06,13.06,0,0,0,1.86,2.75,1.14,1.14,0,0,0,.22.55,49,49,0,0,0,13.5,12.88,16.78,16.78,0,0,0,1.56,1.35,70.23,70.23,0,0,0-4.14,14.69c-.33,1.48-.62,3-.83,4.48-.07.13-.15.26-.23.39l-1.85.44c-1.65.38-1.36,2.34-.1,2.9-.39.65-.77,1.3-1.15,2l-.19,0a1.39,1.39,0,0,0-1,2l-1.82,3.1c-1,1.79,2.23,2.82,3.39,1.19l.45-.67a1.7,1.7,0,0,0,.46.08c-.3.17-.19.55.18.6,5.61.77,11.86,0,17.62.26,5.59.3,12.28,1.59,17.75.51a.42.42,0,0,0,.33-.28c1.92-.16,2.33-2.67.21-2.81l-.27,0c0-2.65.41-5.38-.79-7.79,0-1.44-.1-2.87-.24-4.31a1.43,1.43,0,0,0-.08-.37,6.41,6.41,0,0,0-.17-.73c.28-5.26-1.17-10.85-2-16a1.19,1.19,0,0,0-.47-.73l.21-.28a1.5,1.5,0,0,0,.8-.41c3.06-3,5.05-6.67,7.31-10.09l5.65-8.54a9,9,0,0,0,.93-.64,13.56,13.56,0,0,0,2.56-2,1.41,1.41,0,0,0,.42-.46,4.42,4.42,0,0,0,1.08-2.69A1.1,1.1,0,0,0,442.9,119.27Z"/><path class="cls-3" d="M292,186.36c-1.4-2-2.76-4.8-5.35-5.94-.4-.18-1,.21-.6.53,5.05,4.22,7.7,10.54,11.69,15.43.17.21.55,0,.44-.21A69.12,69.12,0,0,0,292,186.36Z"/><path class="cls-3" d="M306.37,191.59c-2.6.36-1.56,3,.44,3.3a.35.35,0,0,0,.29-.64c-.75-.5-1.08-.82-1-1a.43.43,0,0,1,0-.4c.55-1.15,2.41-.54,3.19.07a3.7,3.7,0,0,1,.79.92,2.09,2.09,0,0,1,.36.78c.61,1.48.23,3-2.36,3.08-2.15.08-4-1.56-5.06-2.88-1.92-2.33-2.87-5-4.51-7.46-.19-.29-.78-.18-.69.17.8,3.19,3.2,7.59,6.33,9.73,1.92,1.32,6.33,2.32,7.2-.5C312,194.49,309.49,191.15,306.37,191.59Z"/><path class="cls-3" d="M317.19,185.93c-5.61-2.55-11.47-3.46-15.73-7.86s-5.79-11-8.33-16.31c-.16-.35-.89-.17-.76.19,2,5.48,3.83,12.18,8.2,16.76a27.85,27.85,0,0,0,16.48,7.69C317.4,186.42,317.47,186.06,317.19,185.93Z"/><path class="cls-3" d="M266.19,178.6a33.6,33.6,0,0,0-4-.71,11.45,11.45,0,0,1-2.76-.28l0-.05c-.89.17-2.17-.76-2.63-1.19a3,3,0,0,1-1-2.29l0,0c0-.42,0-.84.09-1.26.26-2.85,1.08-5.82.74-8.67,0-.16-.35-.21-.41,0-.83,2.3-.85,4.82-1.11,7.2-.16,1.49-.44,3,.25,4.47,1.59,3.32,7.28,3.22,10.91,3.16A.15.15,0,0,0,266.19,178.6Z"/><path class="cls-3" d="M246.63,136.4c-.32-.31-.86.06-.58.38a59.18,59.18,0,0,1,10,15.85c.06.15.36.08.32-.07A35.8,35.8,0,0,0,246.63,136.4Z"/><path class="cls-3" d="M400.72,141.15c-.2-.22-.62,0-.49.24,2.75,5.25,4.13,10.19,3,15.93-1.08,5.44-4.1,10.42-6.44,15.53-.11.24.31.46.5.23C404.12,164.51,409.06,150.22,400.72,141.15Z"/><path class="cls-3" d="M419.92,165.45c-.25-3.25-.4-6.86-1.93-9.89a.3.3,0,0,0-.56.14c.13,4,1.66,7.71,1.42,11.74a13.88,13.88,0,0,1-.61,3.66l-1,2.09-.09,0a1.41,1.41,0,0,1-1.15,1.05,3.26,3.26,0,0,1-2.92,0,3.39,3.39,0,0,1-1.91-1.23,2,2,0,0,1-.51-1.32s0,0,0-.07a.24.24,0,0,1,.05-.2l-.13,0c0-.92.08-1.84.11-2.76a3.6,3.6,0,0,1,.33-1.25,1.25,1.25,0,0,1,1.31-1.1,1.52,1.52,0,0,1,1.35.92,3.9,3.9,0,0,1,.33,1.91,4.09,4.09,0,0,1-.61,1.95c-.14.27.32.45.54.24,1.47-1.36,2.14-6.52-1.5-6.33-3.89.22-3.72,6.42-2.41,8.23,2.22,3.05,6.78,3.29,8.77,0C420.18,170.83,420.12,168,419.92,165.45Z"/><path class="cls-3" d="M423.36,142.21c1.64-3.59,4.73-6.69,6-10.41.05-.13-.15-.25-.27-.13-3,3.09-6.34,8-7.6,11.9s.78,8.52,1.81,12.28c.09.3.63.23.59-.08C423.31,151.41,421.43,146.42,423.36,142.21Z"/><path class="cls-3" d="M395.79,130.82c-.3-.18-.7.15-.45.39,3.46,3.35,7.74,6.1,11.1,9.55,3.85,3.93,4.66,9.66,5.31,14.54,0,.26.54.25.57,0C413.5,145,405.44,136.58,395.79,130.82Z"/><path class="cls-3" d="M413.35,95.09c-1.61,8.62-6.85,14.94-14,21.14-3,2.58-6.43,4.54-9.52,7-1.74,1.36-3,3-2.32,5,.05.14.27.08.3,0,1.21-3.88,5.51-6.78,9.16-9.3a45,45,0,0,0,8.06-6.91c4.54-5,8.05-10.54,8.78-16.79C413.83,94.89,413.39,94.85,413.35,95.09Z"/><path class="cls-3" d="M303.53,214.36a75.62,75.62,0,0,0-8.64-16.46c-3-4.43-6.12-10.18-10.33-13.55-4-3.24-10.07-2.86-14.94-3.31-3.51-.32-7-.67-10.52-1-2.57-.26-8.33.27-9.9-2.17-2.84-4.41,2.3-13,3-17.52.67-4.74-.86-9.12-3.21-13.19-6.29-10.91-12.78-21.27-18.09-32.75-1.76-3.81-7.42-.63-5.69,3.17A290.44,290.44,0,0,0,242,149.24c1.59,2.58,3.29,5.42,3.34,8.56,0,2.81-1.25,5.52-2.09,8.15-1.48,4.67-2.24,10.06-.58,14.81,1.42,4,4.83,5.17,8.76,5.63,6.05.7,12.12,1.19,18.18,1.84,3.16.34,7.41.09,10.11,1.8,2.38,1.51,4.15,4.53,5.88,6.73,5.06,6.47,9.5,13.42,14.78,19.7,1.5,1.79,3.89-.14,3.19-2.1Z"/><path class="cls-3" d="M226.24,115.41c15.34,14.8,38.54,28.76,34.67,53.58a3.07,3.07,0,0,0,3,3.16,149.61,149.61,0,0,1,24.95-.57c4.4.33,4.55-6.91.09-6.87a220.55,220.55,0,0,0-25.69,1.39l3.8,3.06c3-24.09-19.41-45.41-38.72-56-1.37-.75-3.45.9-2.08,2.23Z"/><path class="cls-3" d="M278.58,133.17a29.87,29.87,0,0,0,8,5.34c2.7,1.28,5.16,1.09,5.3,4.84,0,1-.53,2.17-.58,3.19-.32,6.69,4.86,12.11,6.41,18.32.59,2.37.84,3.87,3,5.29,3.32,2.2,7,4,10.34,6.11a243.14,243.14,0,0,1,20.69,14.46c2.79,2.2,5.76-2.47,3-4.65a175.86,175.86,0,0,0-20-13.81c-3.17-1.84-8.38-3.37-10.92-5.86-1.72-1.67-1.89-4.75-2.92-7.11-1.24-2.85-3-5.48-4.09-8.4-1.4-3.79.77-7.33-.41-10.92-.63-1.91-2.2-2.91-4-3.66-4.13-1.74-8.06-3.47-12-5.6-1.36-.72-2.86,1.42-1.75,2.46Z"/><path class="cls-3" d="M277.72,133.44c1.73,3.07,3.76,6.33,4.31,9.87.42,2.74-.5,5.44-.12,8.21a69.47,69.47,0,0,0,5.76,18.76c1.11,2.46,5.38,1,4.52-1.61-2.27-7-5.8-14.43-5.2-21.9.48-6.09-2.6-10.7-6.2-15.33-1.27-1.64-4.11.16-3.07,2Z"/><path class="cls-3" d="M387.63,181.73a66.6,66.6,0,0,0,7.54-15.3c1.92-5.23,5.43-12.38,4.7-18-.61-4.76-5.67-8.41-8.8-11.61q-3.26-3.33-6.48-6.69c-2.74-2.83-5.48-4.71-1.63-8,4.39-3.76,10-5.2,14.76-8.32a23.58,23.58,0,0,0,8.75-10.68c2.31-5.24,4-10.7,6.37-16,2.71-6.1,5.82-11.94,9-17.8,2-3.67-3.52-7.08-5.55-3.4a275.26,275.26,0,0,0-15.49,32.49c-2.33,5.94-5.86,9.11-11.54,11.82-5,2.39-9.85,4.81-13.59,9.06-2.89,3.29-3.92,6.71-1.21,10.43,3.57,4.88,8.6,9.07,12.76,13.47,2.19,2.31,5.23,4.38,5.17,7.65-.06,2.86-1.54,6.42-2.32,9.15-1.89,6.67-4.35,13.2-5.84,20-.45,2,2.05,3.69,3.39,1.75Z"/><path class="cls-3" d="M418.47,66.06c-.82,11.61.43,23.2-3.26,34.47a42.23,42.23,0,0,1-17.78,22.84,3.12,3.12,0,0,0-.15,5.32,114,114,0,0,1,17.64,13.5c3.25,3.15,8.3-2.09,4.93-4.79a174,174,0,0,0-19.31-14l-.15,5.33c20.26-13.68,26-39.89,21.12-62.84a1.54,1.54,0,0,0-3,.12Z"/><path class="cls-3" d="M440.32,108.88a22.15,22.15,0,0,0,1.4,8.86c1,2.76,1.22,4-1.21,6.06-.8.68-1.92,1.06-2.76,1.72-4.42,3.42-6.06,8.78-8.81,13.41-1.25,2.1-3.91,4-4.6,6.45s.85,6.16,1.32,8.55a153.36,153.36,0,0,1,3,25.71c.1,3.54,5.63,3.79,5.52.23a130.85,130.85,0,0,0-2.61-23.35c-.53-2.43-1.56-4.94-1.88-7.39-.28-2.2-.4-2.29.9-4.28a68.61,68.61,0,0,0,4-6.59c1.46-2.9,2.75-6.09,5.16-8.37,1.88-1.79,4.68-2.61,6.34-4.61a5.08,5.08,0,0,0,1.17-5c-1.07-3.9-3-7.49-3.87-11.53-.37-1.65-3-1.7-3.09.14Z"/><path class="cls-3" d="M439.45,108.49a33.11,33.11,0,0,1-4.71,8.51c-2.12,2.51-5.18,3.81-7.47,6.13a75.45,75.45,0,0,0-12.13,16.6c-1.48,2.71,2.2,5.25,4,2.68,4.75-6.65,8.79-13.78,15.46-18.68,4.78-3.5,6.76-8.43,8.29-14a1.85,1.85,0,0,0-3.48-1.26Z"/></g></g></g><g id="PixelsASSETS"><g id="Cuerno"><rect class="cls-4" width="464" height="265"/></g></g></g></g></svg>