<svg xmlns="http://www.w3.org/2000/svg" viewBox="0 0 464 265"><defs><style>.cls-1{isolation:isolate;}.cls-2{fill:#a67c52;}.cls-3{fill:#735639;}.cls-4{fill:#42210b;}.cls-5{fill:none;mix-blend-mode:multiply;opacity:0.4;}</style></defs><g class="cls-1"><g id="Layer_2" data-name="Layer 2"><g id="Variación_C" data-name="Variación C"><g id="AssetsE1"><g id="HornE1"><g id="Capa_48" data-name="Capa 48"><path class="cls-2" d="M443.89,142.89c1.36-5.76-1.5-11.48-5.56-15.61a22.51,22.51,0,0,0-4.88-6.66A35.65,35.65,0,0,0,416.54,112a35.09,35.09,0,0,0-5.48-.71,51.28,51.28,0,0,0-16.31.16,35.86,35.86,0,0,0-9,2.49c-11.95,1.32-19.2,18.3-16.62,29.55.14,2.76,1,5.4,2.57,6.87a11,11,0,0,0,7.38,7c2.58,1.79,6.22,2.31,9.19,2.71a47.76,47.76,0,0,0,10,.4c-1,1.76-1.82,3.63-2.72,5.34-.12.24-.26.49-.39.73a56.22,56.22,0,0,1-3.68,10.88l.24.25a2.35,2.35,0,0,0,.32.23,40.42,40.42,0,0,1,9.64-.91c2,0,4-.1,6,0a85.45,85.45,0,0,1,10.73.07c4.71.46,9.46,1.81,14.19,1.72a.8.8,0,0,0,.64-.38,1.47,1.47,0,0,0,1.46-.73l.32-.56a.41.41,0,0,0,.05-.09c.55-.94,1.18-1.95,1.74-3,2.64-4.49,4-10.62,5.1-15.18.75-2.94,2.33-9.09,2-13.9A16.73,16.73,0,0,0,443.89,142.89Z"/><path class="cls-3" d="M427.89,115.83a56.78,56.78,0,0,1-7.27,11.64c-.29.37.23.8.58.54a17.75,17.75,0,0,0,7.11-12.07.22.22,0,0,0-.42-.11Z"/><path class="cls-3" d="M432.63,119.41a12.91,12.91,0,0,1-1,1.48c-.29.48-.57,1-.89,1.42a19.6,19.6,0,0,1-2.44,2.87c-.24.23,0,.73.33.53a9.18,9.18,0,0,0,2.85-2.45,8.81,8.81,0,0,0,1-1.72,10.42,10.42,0,0,0,.4-2.06c0-.15-.21-.21-.27-.07Z"/><path class="cls-3" d="M436.35,126a110.49,110.49,0,0,1-8.82,7.18c-.39.3,0,.87.45.7a18.7,18.7,0,0,0,8.71-7.54c.15-.21-.13-.54-.34-.34Z"/><path class="cls-3" d="M438,129.85a19.61,19.61,0,0,0-3.9,3.35c-.16.22.08.58.34.43a19.77,19.77,0,0,0,3.82-3.44c.19-.19,0-.51-.26-.34Z"/><path class="cls-3" d="M441.88,140.41c-3.27,1.2-6.31,3.43-9.29,5.24a.49.49,0,0,0,.31.92c3.55-.61,7.53-2.42,9.4-5.64a.35.35,0,0,0-.42-.52Z"/><path class="cls-3" d="M442.74,149.44c-1.22-.45-2.57.42-3.75.79-1.61.52-3.25,1-4.87,1.47a.35.35,0,0,0,.11.67,16.94,16.94,0,0,0,5.38-.83c1.16-.38,2.71-.65,3.22-1.87a.18.18,0,0,0-.09-.23Z"/><path class="cls-3" d="M439.88,157.69a36.28,36.28,0,0,1-10.35-1.59.28.28,0,0,0-.21.52,15,15,0,0,0,10.57,1.48c.21,0,.25-.41,0-.41Z"/><path class="cls-3" d="M415.64,113.19a70.19,70.19,0,0,1-4.22,9.26c-.15.27.28.48.46.26a19.34,19.34,0,0,0,4.36-9.37.31.31,0,0,0-.6-.15Z"/><path class="cls-3" d="M392.56,112.32a12.32,12.32,0,0,0,1.2,3.35c.5,1.19,1,2.38,1.5,3.56A.38.38,0,0,0,396,119c-.28-2.3-1-5.46-2.92-7a.31.31,0,0,0-.49.29Z"/><path class="cls-3" d="M404.76,109.05a16.23,16.23,0,0,1-1.14,8.38c-.15.38.33.58.58.32a8.07,8.07,0,0,0,1.23-8.9.35.35,0,0,0-.67.2Z"/><path class="cls-3" d="M411.62,110.31a17.54,17.54,0,0,1-1.51,7.24c-.17.38.38.65.62.34a7.88,7.88,0,0,0,1.36-7.71c-.09-.29-.47-.12-.47.13Z"/><path class="cls-3" d="M399.54,110.19c-.47,1-.16,2.16-.13,3.23,0,1.29,0,2.58.15,3.86a.33.33,0,0,0,.62.07,12.44,12.44,0,0,0,.37-4.12,4.7,4.7,0,0,0-.75-3.08.15.15,0,0,0-.26,0Z"/><path class="cls-3" d="M372.23,152.12a8.77,8.77,0,0,1,1-3.44c.61-1,1.41-1.89,2-2.9.14-.24-.07-.62-.37-.47-2.23,1.19-5.14,4.3-3.86,7.06.29.63,1.08.31,1.19-.25Z"/><path class="cls-3" d="M374.62,155.33c.36-3.29,3.76-6.4,5.53-9,.19-.28-.17-.67-.44-.43a28.4,28.4,0,0,0-4.43,4.8,7.75,7.75,0,0,0-1.2,2.34c-.29,1,0,1.27.18,2.3a.18.18,0,0,0,.36,0Z"/><path class="cls-3" d="M381.43,158.39a7.16,7.16,0,0,0,1.16-2.93c.33-1.14.65-2.29.9-3.46.07-.33-.41-.48-.59-.23-1.18,1.6-2.68,4.55-1.91,6.57a.26.26,0,0,0,.44,0Z"/><path class="cls-3" d="M388.53,160c.33-1.68.19-3.42.43-5.12a62.68,62.68,0,0,1,1.44-6.35c.08-.3-.33-.62-.53-.29-2,3.17-3.33,8.24-2.09,11.88.14.41.68.21.75-.12Z"/><path class="cls-3" d="M393,160.76a9.4,9.4,0,0,0,.27-3.59c0-1.35.17-2.7.21-4,0-.24-.35-.37-.44-.11a18.37,18.37,0,0,0-.9,4.08,6.33,6.33,0,0,0,.17,3.69.38.38,0,0,0,.69,0Z"/><path class="cls-3" d="M399.55,135.39a9.05,9.05,0,0,1-.51,4.22.17.17,0,0,0,.31.13,7.35,7.35,0,0,0,.49-4.39.15.15,0,0,0-.29,0Z"/><path class="cls-3" d="M406.41,133.93c-.06,2,.2,4.09-.92,5.85a28.07,28.07,0,0,1-2.82,3.15c-.26.3.15.77.49.59,3.81-2,5.35-5.63,3.53-9.63-.05-.12-.27-.11-.28,0Z"/><path class="cls-3" d="M411.62,138.25a9.17,9.17,0,0,1-1.42,2.25c-.54.72-1.25,1.26-1.79,2-.27.34.08.73.44.7a3.76,3.76,0,0,0,2.6-1.72,4.43,4.43,0,0,0,.7-1.41,5.37,5.37,0,0,0,0-1.65c0-.3-.45-.48-.57-.14Z"/><path class="cls-3" d="M413.62,148.71a8.09,8.09,0,0,0-2.8-1.06c-1.13-.4-2.17-1-3.28-1.44a.28.28,0,0,0-.32.42,7.73,7.73,0,0,0,2.93,2.15c1,.43,2.41,1,3.41.53a.35.35,0,0,0,.06-.6Z"/><path class="cls-3" d="M407.28,155.39c-1.07-.24-1.46-3.41-1.62-4.4-.24-1.42-.17-2.86-.49-4.26-.08-.35-.62-.46-.74-.07-.49,1.56,0,10.45,2.91,9.15a.22.22,0,0,0-.06-.42Z"/><path class="cls-3" d="M402,155.84a5.4,5.4,0,0,1,.13-1.07c0-.39,0-.78,0-1.17a4.15,4.15,0,0,0-.05-1.89.33.33,0,0,0-.5-.12,2.49,2.49,0,0,0-.68,2.23,3.77,3.77,0,0,0,.84,2.13c.09.14.29,0,.28-.11Z"/><path class="cls-3" d="M381.85,117.07c.67,1,1.45,1.93,2.13,2.93s1.14,2.1,1.76,3.12a.44.44,0,0,0,.82-.26,7.73,7.73,0,0,0-4.45-6.12.22.22,0,0,0-.26.33Z"/><path class="cls-3" d="M374.34,123.17c3,.07,5.71,1.26,8.52,2.14a.2.2,0,0,0,.15-.37c-2.61-1.26-5.76-3.18-8.71-2-.12,0-.1.26,0,.26Z"/><path class="cls-3" d="M369.91,132.94a15.68,15.68,0,0,1,5.43-3.29c.19-.06.15-.4,0-.4a6,6,0,0,0-5.64,3.49c-.06.15.13.31.26.2Z"/><path class="cls-3" d="M368.87,138.56a17.68,17.68,0,0,1,4.47-3c1.69-.74,3.52-1,5.25-1.59.33-.12.21-.64-.11-.67-3.74-.36-8.46,1.39-9.94,5-.08.2.16.41.33.26Z"/><path class="cls-3" d="M372.27,126.38c1.25.73,3.15.37,4.58.68,2,.42,3.6,1.43,5.46,2.14.3.11.63-.28.39-.54a10.41,10.41,0,0,0-5.55-2.7c-1.42-.31-3.71-.83-4.91.2a.14.14,0,0,0,0,.22Z"/><path class="cls-3" d="M437.45,170.31c-6.18-.67-14-3.5-18.83-7.21-.22-.17-.45.15-.26.33a28.61,28.61,0,0,0,8.88,5.52c3,1.22,7,3,10.24,2.13a.39.39,0,0,0,0-.77Z"/><path class="cls-3" d="M435,174.45c-2.51-.71-5.1-1-7.6-1.78s-4.95-1.81-7.44-2.69a.3.3,0,0,0-.22.56c4.35,2.43,10.06,5.48,15.2,4.47.26,0,.36-.48.06-.56Z"/><path class="cls-3" d="M396.18,169.14a18.33,18.33,0,0,0,11.93,2.36c.19,0,.2-.35,0-.35a31.68,31.68,0,0,1-11.83-2.24c-.15-.07-.24.15-.1.23Z"/><path class="cls-4" d="M432.47,181.9c6.89-3.59,10.64-9.76,13.18-16.87,2.38-6.66,4.23-12.44,4-19.59-.55-16.74-11.29-32.85-27.23-38.62C405.5,100.69,384,104.27,371.71,118c-10.52,11.69-13.43,31.1.49,41.43,7.12,5.28,14.55,8,23.36,6.24,7.13-1.45,16.11-6.07,17.82-13.81.34-1.55-1.09-3.68-2.87-2.62-9.17,5.49-18.65,11.42-29.31,5.95-6-3.08-10-7.44-10.28-14.44-.25-6.5,2.7-12.71,7.08-17.39,10.1-10.78,27-13,40.59-8.44,12.09,4,21.35,16.58,22.06,29.26.65,11.67-3.9,23.9-13,31.31-3.69,3,.88,8.51,4.83,6.46Z"/><path class="cls-4" d="M400,157.57c-4.08.75-5.25,8.08-7.28,11.19a27.63,27.63,0,0,1-5.72,6.38c-2,1.62-4.3,2.74-5.69,4.92a1.49,1.49,0,0,0,.67,2.24c5.88,1.53,11.24-4.46,14.29-8.81,2.32-3.31,7.8-11.7,4.76-15.51a1.09,1.09,0,0,0-1-.41Z"/><path class="cls-4" d="M394.7,136.1c.72,0,.56-1.12-.15-1.12s-.57,1.12.15,1.12Z"/><path class="cls-4" d="M400.59,162c9.46-.3,21.84-13.08,17.13-22.88-4.83-10-20.68-14.23-25.28-1.8a1.74,1.74,0,0,0,2.33,2.18c2.81-.88,5.8-3.53,8.8-3.43,4.22.15,9.43,4.77,8.69,9.11-1.21,7.11-9.85,8.15-13.3,13.34-.84,1.26-.14,3.53,1.63,3.48Z"/><path class="cls-4" d="M441.36,132.7c-2.71.29-5.5,2.57-7.81,4a28.2,28.2,0,0,0-6.45,4.87c-.61.64.16,1.56.89,1.49a20.76,20.76,0,0,0,8.8-3.14c2.18-1.35,5.09-3,5.88-5.56a1.21,1.21,0,0,0-1.31-1.61Z"/><path class="cls-4" d="M440,163.78c-2.46-.38-4.93-1.43-7.44-1.85-3-.5-5.88-1-8.88-1.74-.69-.18-1.05.88-.51,1.26,4.21,3,12.75,7.83,17.2,3.23.31-.32,0-.84-.37-.9Z"/><path class="cls-4" d="M420.93,112.47c-1.27,1.91-1.79,4.37-2.75,6.46s-2.25,4-2.34,6.33a1.21,1.21,0,0,0,1.69,1.21c2.26-1.16,3.42-3.53,4.4-5.8s2.06-5,1.84-7.58c-.12-1.38-2.13-1.68-2.84-.62Z"/><path class="cls-4" d="M384.39,113.26c.64,1.59,1.88,2.63,2.78,4.08s1.72,3.06,2.64,4.55a1,1,0,0,0,1.68-.25c1.15-3.79-1.65-9.87-6-9.93a1.12,1.12,0,0,0-1.12,1.55Z"/><path class="cls-4" d="M369.8,145.68c.63-.63,1.7-.81,2.4-1.43s1.51-1.54,2.38-2.2c1.66-1.25,3.53-2.13,5.12-3.48A.92.92,0,0,0,379,137a10.67,10.67,0,0,0-6.61,2.52,15,15,0,0,0-2.35,2.37c-.76,1-.61,2.1-1.19,3.09a.61.61,0,0,0,1,.75Z"/><path class="cls-4" d="M397.32,160.77c1.85-.84,1.11-3.62,1.11-5.24,0-2.54.88-4.91,1.4-7.37a.59.59,0,0,0-.94-.54c-3.16,2.47-5.24,8.56-3.41,12.33a1.51,1.51,0,0,0,1.25.87,1.18,1.18,0,0,0,.59,0Z"/></g><g id="Capa_46" data-name="Capa 46"><path class="cls-2" d="M325.93,189.48a6.36,6.36,0,0,0-2.81.66A1.14,1.14,0,0,0,323,190a7.3,7.3,0,0,0,1-4c0-1.11-1-2.46-2.29-2h0c.07-.1.12-.21.18-.31s.1-.18.14-.27a1.86,1.86,0,0,0,.1-.25,3.62,3.62,0,0,0,.17-.56,2,2,0,0,0,0-.26,6.82,6.82,0,0,0-.42-6.89,22.26,22.26,0,0,0-5.8-9.78,16.18,16.18,0,0,0-.82-2.65,15.12,15.12,0,0,0-2.79-4.43c-2.57-5.33-8.39-8-14.15-8.62a22.49,22.49,0,0,0-8-2.11,35.58,35.58,0,0,0-18.58,3.94,35,35,0,0,0-4.71,2.88,51.57,51.57,0,0,0-12.56,10.4,36.17,36.17,0,0,0-5.43,7.6c-9.28,9.4-2.25,29.91,8.51,35.2a13.07,13.07,0,0,0,1.64.66c3.56,2.92,8.2,4.07,12.84,1.73a12.08,12.08,0,0,0,3.59-2.79,6,6,0,0,0,3.25-1.4c1.09-.89,2.15-1.82,3.18-2.77A7.52,7.52,0,0,0,288,201c.56-.62,1.08-1.27,1.6-1.91-.05,1.35-.06,2.7,0,4.06.07,2.19-.18,5.05,1,7a3,3,0,0,0,.31.39,4.91,4.91,0,0,0,1.86,2.73,6.81,6.81,0,0,0-.33,1.51c-.08.13-.16.26-.23.39a2.3,2.3,0,0,0,.15,2.65c.21.28.4.63.79.67l.69.08a2.14,2.14,0,0,0,1.95-.94c1-1.5,2-3,3.05-4.4,0-.06.11-.12.16-.19a77.71,77.71,0,0,1,7.62-7.34c2.2-1.86,5.17-3.62,7.78-5.64,1.19-.71,2.3-1.55,3.22-2.14,1.64-1,3.08-2.4,4.73-3.41s3.24-1.24,4.51-2.83A1.35,1.35,0,0,0,325.93,189.48Z"/><g id="Capa_47" data-name="Capa 47"><path class="cls-3" d="M283,147.64a59.29,59.29,0,0,1,1.69,13.59c0,.41.65.65.77.18a17.82,17.82,0,0,0-2.07-13.93.22.22,0,0,0-.39.16Z"/><path class="cls-3" d="M289,147.45a22.08,22.08,0,0,1,.37,3.82,19.91,19.91,0,0,1-.11,3.45.31.31,0,0,0,.6.15,9.22,9.22,0,0,0,.65-3.85,8,8,0,0,0-1.25-3.64c-.06-.13-.3-.1-.26.07Z"/><path class="cls-3" d="M296,150.24c-.58,3.72-1.42,7.37-2.3,11-.1.41.48.85.73.39a18.77,18.77,0,0,0,2.06-11.43.25.25,0,0,0-.49,0Z"/><path class="cls-3" d="M299.7,152.24a20.4,20.4,0,0,0-.92,5.07c0,.29.45.3.55.06a19.79,19.79,0,0,0,.79-5.08.21.21,0,0,0-.42,0Z"/><path class="cls-3" d="M309.41,157.91c-1.85,3-2.78,6.72-4,10a.49.49,0,0,0,.86.45c2.35-2.72,4.33-6.64,3.72-10.31a.35.35,0,0,0-.62-.15Z"/><path class="cls-3" d="M315.76,164.44c-1.21.16-1.81,2-2.42,2.94-.94,1.4-1.94,2.77-2.85,4.19a.35.35,0,0,0,.51.48,16.45,16.45,0,0,0,3.55-3.89c.57-.88,2-2.53,1.39-3.62a.16.16,0,0,0-.18-.1Z"/><path class="cls-3" d="M318.69,172.65a33.37,33.37,0,0,1-9.06,5.29.28.28,0,0,0,.16.53A15.31,15.31,0,0,0,319,173a.21.21,0,0,0-.3-.3Z"/><path class="cls-3" d="M271.87,153.37a71.64,71.64,0,0,1,2.53,9.78c.05.28.52.3.52,0a19.28,19.28,0,0,0-2.48-10,.31.31,0,0,0-.57.26Z"/><path class="cls-3" d="M253.35,167.16a12.76,12.76,0,0,0,3.18,2l3.32,1.76c.33.18.7-.33.43-.59-1.64-1.59-4.24-3.64-6.66-3.62-.23,0-.49.29-.27.5Z"/><path class="cls-3" d="M260.75,156.93a16.3,16.3,0,0,1,4.45,7.3c.1.33.61.21.64-.1a8.1,8.1,0,0,0-4.68-7.76c-.31-.13-.67.31-.41.56Z"/><path class="cls-3" d="M266.9,153.6a17.69,17.69,0,0,1,3.4,6.55c.09.36.71.42.7,0a8.22,8.22,0,0,0-.85-3.8,7.45,7.45,0,0,0-2.91-3.08c-.23-.14-.53.12-.34.35Z"/><path class="cls-3" d="M257.45,161.12c.24,1.08,1.22,1.79,1.92,2.59.84,1,1.62,2,2.53,2.89a.33.33,0,0,0,.55-.33,11.6,11.6,0,0,0-2.21-3.32c-.71-.81-1.49-1.86-2.62-2a.15.15,0,0,0-.17.17Z"/><path class="cls-3" d="M262.69,211a9.56,9.56,0,0,1-1.38-3.07c-.21-1.29-.16-2.6-.3-3.89a.31.31,0,0,0-.59-.07c-.94,2.39-1.28,6.55,1.51,7.91.51.25,1-.43.76-.88Z"/><path class="cls-3" d="M266.51,211.88c-1.78-2.75-1.12-7.37-1.37-10.5,0-.36-.56-.31-.61,0a26.8,26.8,0,0,0-.4,6.69,5,5,0,0,0,2.13,4c.17.14.36-.09.25-.26Z"/><path class="cls-3" d="M273.74,210a7,7,0,0,0-.89-2.92c-.47-1.12-1-2.25-1.51-3.34a.33.33,0,0,0-.63.19c.1,1.91.79,5.2,2.61,6.25.16.09.41,0,.42-.18Z"/><path class="cls-3" d="M280.26,206.79c-.82-1.74-2.29-3.2-3.25-4.89s-1.72-3.51-2.55-5.28a.31.31,0,0,0-.58.17,15.77,15.77,0,0,0,2.08,6c.92,1.59,2.1,3.54,3.72,4.46.32.19.77-.09.58-.48Z"/><path class="cls-3" d="M284.22,204.61c-.26-1.15-1.28-2.05-2-2.94-.88-1.08-1.62-2.26-2.47-3.36-.16-.22-.47,0-.39.23a19.2,19.2,0,0,0,2,4,5.56,5.56,0,0,0,2.33,2.53.38.38,0,0,0,.51-.42Z"/><path class="cls-3" d="M273.34,180.72a8.89,8.89,0,0,1,2.26,3.62c.06.17.37.09.32-.09a7.33,7.33,0,0,0-2.4-3.76c-.14-.13-.31.1-.18.23Z"/><path class="cls-3" d="M277.75,175.27c1,1.26,2.42,2.68,2.82,4.26s0,3.37-.06,5a.4.4,0,0,0,.76.18c1.66-4.07.55-7.68-3.34-9.68-.13-.07-.26.11-.18.22Z"/><path class="cls-3" d="M284.53,175.37a10.37,10.37,0,0,1,.3,2.67c0,.85-.16,1.68-.16,2.53,0,.35.44.68.74.38a3.83,3.83,0,0,0,1-3,4.48,4.48,0,0,0-1.37-2.85.29.29,0,0,0-.5.3Z"/><path class="cls-3" d="M292.7,182.2a9.27,9.27,0,0,0-3,1c-1.1.38-2.23.59-3.35.91a.27.27,0,0,0,0,.54c1.91.42,5.57,0,6.6-2a.35.35,0,0,0-.3-.47Z"/><path class="cls-3" d="M292,191.37c-1,.53-3.39-1.79-4.1-2.42-1.06-.95-1.93-2.1-3.05-3-.32-.25-.7.14-.57.48.76,2,2.67,3.49,4.35,4.67.75.53,3.06,2.1,3.66.54.06-.16-.11-.37-.29-.28Z"/><path class="cls-3" d="M288.1,195.1a10.08,10.08,0,0,1-.62-1c-.21-.29-.48-.54-.7-.82-.37-.48-.65-1.29-1.27-1.48a.33.33,0,0,0-.42.18c-.34.7.29,1.52.71,2a4.22,4.22,0,0,0,.78.8,4.49,4.49,0,0,0,1.34.49c.13,0,.3-.11.18-.23Z"/><path class="cls-3" d="M248,177.61c1.09.36,2.17.57,3.29.88s2.39.95,3.6,1.4c.39.15.8-.37.49-.68a7.78,7.78,0,0,0-7.39-2,.22.22,0,0,0,0,.4Z"/><path class="cls-3" d="M246.07,187.09c2.33-1.85,5.24-2.62,8-3.71.2-.08.11-.42-.11-.37-2.8.65-6.54,1.15-8.08,3.91-.07.13.11.25.22.17Z"/><path class="cls-3" d="M248.77,197.46a16.54,16.54,0,0,1,2.12-5.93c.12-.2-.09-.46-.29-.3a6,6,0,0,0-2.15,6.27c.05.17.29.1.32,0Z"/><path class="cls-3" d="M251.5,202.47a17,17,0,0,1,2-5.85c.79-1.32,1.84-2.46,2.64-3.78a.35.35,0,0,0-.51-.47c-3.15,2-5.63,6.43-4.52,10.16.07.22.39.13.42-.06Z"/><path class="cls-3" d="M246.45,190.89c.7,0,.86-.28,1.42-.72a15.25,15.25,0,0,1,2.9-1.8,45.54,45.54,0,0,1,5.3-1.62c.35-.12.2-.61-.1-.66a10.23,10.23,0,0,0-6,1.39c-1.24.62-3.56,1.74-3.69,3.27a.12.12,0,0,0,.14.14Z"/><path class="cls-3" d="M324.73,184a40.37,40.37,0,0,1-19.16,6.24c-.24,0-.23.4,0,.41A29.38,29.38,0,0,0,317,189c2.88-1,6.45-2,8.35-4.51.28-.38-.22-.76-.57-.53Z"/><path class="cls-3" d="M325.43,188.75c-2.12.89-4.07,2.16-6.2,3.07-2.68,1.15-5.53,2-8.29,2.93-.32.11-.16.63.17.57,4.82-.87,11.42-2.07,14.68-6.13.19-.23-.09-.55-.36-.44Z"/><path class="cls-3" d="M292,209.06a18.17,18.17,0,0,0,10.78-5.7c.13-.15-.1-.37-.25-.24a31.13,31.13,0,0,1-10.6,5.7c-.13,0-.07.26.07.24Z"/></g><path class="cls-4" d="M328.31,195.77c3.58-8.41,1.23-16.38-1.79-24.51a45.26,45.26,0,0,0-10.43-17c-11.17-11.56-30.08-15.38-44.85-9.4-15.69,6.35-28.29,20.71-30.31,37.79-1.87,15.77,7.82,34.55,25.63,34,8.77-.29,16.65-2.62,22.37-9.52,4.88-5.87,9.08-15.08,5.39-22.56a2.12,2.12,0,0,0-3.85.18c-2.59,7-4.61,13.91-10.48,19-5.16,4.49-14.64,6.29-20.8,3-7.6-4.05-10.66-13.28-10.23-21.41.48-9.13,5-17,11.56-23.2,12.62-11.9,30-15,45-5.21,11.29,7.35,17.55,23.73,15,36.57-1.05,5.2,5.77,7,7.8,2.28Z"/><path class="cls-4" d="M287.61,197.41c-2.21,2-1.48,3.83-1,6.57a109.83,109.83,0,0,1,1.81,11.42,58.16,58.16,0,0,1-.31,12.44c-.5,3.66-1.83,7.44-1.14,11.13a1.77,1.77,0,0,0,2.84,1.05c7.37-5.31,5.9-19.61,4.89-27.37-.22-1.74-2.94-19-7.11-15.24Z"/><path class="cls-4" d="M269.67,184.49c.72,0,.57-1.11-.14-1.11s-.57,1.11.14,1.11Z"/><path class="cls-4" d="M291.1,200.62c4.2-3.63,5.83-11.56,5.49-16.94s-3.07-10.41-8.39-12.11c-10.36-3.32-23.07,3.33-19.08,15.34a1.73,1.73,0,0,0,3,.29c1.61-2.43,2.37-6.06,4.49-8,2.61-2.35,9.27-3.07,11.93-.25,5.43,5.73-1.54,14.1-1,20.37.15,1.7,2.44,2.29,3.61,1.28Z"/><path class="cls-4" d="M304.05,152.39c-1.65,1.74-2.16,4.45-3,6.65a31.36,31.36,0,0,0-2.43,9c-.06.73.9,1.45,1.51.84,3.55-3.52,7.82-11.13,6-16.24-.34-.94-1.5-.79-2.06-.2Z"/><path class="cls-4" d="M322.6,177.32c-.41.4-1.51.5-2,.74-1.36.62-2.73,1.34-4.05,2s-2.48,1.55-3.73,2.33a44.77,44.77,0,0,1-5,2.3.7.7,0,0,0,.38,1.34c3.38-.22,7.61-.94,10.61-2.58a15.51,15.51,0,0,0,3.64-2.56c1.11-1.15.7-1.68,1.06-3.09a.57.57,0,0,0-.9-.52Z"/><path class="cls-4" d="M275.49,149.7c.47,2.42,1.51,4.74,2.11,7.15.51,2,.83,4.1,2.09,5.84a1.21,1.21,0,0,0,2-.32c1.69-4-.83-10.84-3.36-14.05a1.66,1.66,0,0,0-2.88,1.38Z"/><path class="cls-4" d="M247.46,173c1.54.87,3.13.91,4.79,1.49s3.23,1.26,4.86,1.85a1,1,0,0,0,1.26-1.32c-1.59-3.67-7.52-6.45-11-3.76a1.11,1.11,0,0,0,0,1.74Z"/><path class="cls-4" d="M256.7,207.53c.16-.9.76-1.72.95-2.64.28-1.33.27-2.63.67-3.95.53-1.79,1.23-3.5,1.61-5.35a.93.93,0,0,0-1.48-.82,10.9,10.9,0,0,0-3.57,5.88,13.56,13.56,0,0,0-.39,3.53c.06,1.37.7,2.08,1,3.35a.61.61,0,0,0,1.21,0Z"/><path class="cls-4" d="M287.61,201.77c.82-1.73-1.33-3.39-2.31-4.53-1.69-2-2.52-4.41-3.67-6.7a.59.59,0,0,0-1.12.15c-.68,3,.47,6.12,2.06,8.73.61,1,3.84,4.88,5,2.35Z"/></g></g></g></g><g id="PixelsASSETS"><g id="Cuerno"><rect class="cls-5" width="464" height="265"/></g></g></g></g></svg>