<svg xmlns="http://www.w3.org/2000/svg" viewBox="0 0 464 265"><defs><style>.cls-1{isolation:isolate;}.cls-2{fill:#42210a;}.cls-3,.cls-4,.cls-5,.cls-6{fill:#8cc63f;stroke:#006837;}.cls-3,.cls-4,.cls-5,.cls-6,.cls-7{stroke-linecap:round;stroke-linejoin:round;}.cls-3{stroke-width:3.34px;}.cls-4{stroke-width:0.71px;}.cls-5{stroke-width:4.73px;}.cls-7{fill:#a67c52;stroke:#42210b;stroke-width:6px;}.cls-8{fill:#c7b299;}.cls-9{fill:none;mix-blend-mode:multiply;opacity:0.4;}</style></defs><g class="cls-1"><g id="Layer_2" data-name="Layer 2"><g id="Variación_A" data-name="Variación A"><g id="AssetsE1"><g id="HornE1"><path class="cls-2" d="M281,181.88s-10.87.6-15.18.61,14.69,4,14.69,4Z"/><path class="cls-3" d="M269.22,183.1s-10.65,11.59-21.78,8.39-14.22-12.19-14.22-12.19,13.64-11.11,23.45-6.68S269.22,183.1,269.22,183.1Z"/><path class="cls-4" d="M268.24,184.08s-13.22-.62-18.93-1.45a62.86,62.86,0,0,1-6.68-1.14"/><path class="cls-2" d="M396.66,137.43s-8.78-6.44-12.12-9.17,8.81,12.42,8.81,12.42Z"/><path class="cls-3" d="M385,129.3s-15.6,2.13-22.13-7.44-3.18-18.46-3.18-18.46,17.6.14,22.33,9.82S385,129.3,385,129.3Z"/><path class="cls-4" d="M383.62,129.42s-9.79-8.9-13.66-13.19a62.41,62.41,0,0,1-4.41-5.13"/><path class="cls-4" d="M365.47,116.53a22.12,22.12,0,0,0,6.77,2.09"/><path class="cls-4" d="M370.51,110.59a44,44,0,0,1-.55,5.64"/><path class="cls-4" d="M377,123.26a23.68,23.68,0,0,1-7.75-.8"/><path class="cls-4" d="M376.27,122.56a14.68,14.68,0,0,0,2.49-5"/><path class="cls-5" d="M415.62,128.83s-10.2-18.67.88-30.52a35.37,35.37,0,0,1,25.63-11.1s7.77,22-4.27,31.69S415.62,128.83,415.62,128.83Z"/><path class="cls-6" d="M414.81,127.15S423.43,111.49,428,105a81.59,81.59,0,0,1,5.53-7.49"/><path class="cls-6" d="M425.5,99.5a24.62,24.62,0,0,0,0,9.26"/><path class="cls-6" d="M436.5,103.5A77.3,77.3,0,0,1,428,105"/><path class="cls-6" d="M420.85,116.49a27.06,27.06,0,0,1-2.35-10"/><path class="cls-6" d="M421.54,115.32a25.74,25.74,0,0,0,8.5,1.17"/><path class="cls-2" d="M411.73,140.42s2.92-10.49,4.3-14.57-8.51,12.62-8.51,12.62Z"/><path class="cls-7" d="M326.74,194.32S281.19,148.4,270.79,148s5.77,46.18,13.51,62c5.49,11.21,8.08,16.39,8.08,16.39s5.93-12,15.53-18.93S326.74,194.32,326.74,194.32Z"/><path class="cls-7" d="M430.5,177.5S406.09,120,400.7,122.14s-6.76,55.38-6.76,55.38"/><path class="cls-8" d="M284.08,177.5s2.39,1.9,5.65,11.7S302,207,302,207s-.75-10.6-5.87-17.8A50.56,50.56,0,0,0,284.08,177.5Z"/><path class="cls-8" d="M402,140s-1-.26,0,7.87S405,158,405,161a77.54,77.54,0,0,0,1,9s1-3.71,0-10.86-3-1.29-2-8.22-2.44-16.61-2.44-16.61Z"/></g></g></g><g id="PixelsASSETS"><g id="Cuerno"><rect class="cls-9" width="464" height="265"/></g></g></g></g></svg>