<svg xmlns="http://www.w3.org/2000/svg" viewBox="0 0 275 259.5"><defs><style>.cls-1{isolation:isolate;}.cls-2{fill:#8c6239;stroke-width:6.97px;}.cls-2,.cls-4,.cls-5{stroke:#42210b;stroke-linecap:round;stroke-linejoin:round;}.cls-3{fill:#a67c52;}.cls-4,.cls-5{fill:#b8bfb8;}.cls-4{stroke-width:6.67px;}.cls-5{stroke-width:4.34px;}.cls-6{fill:none;mix-blend-mode:multiply;opacity:0.4;}</style></defs><g class="cls-1"><g id="Layer_2" data-name="Layer 2"><g id="Variación_A" data-name="Variación A"><g id="AssetsE1"><g id="LoinE1"><path class="cls-2" d="M24.87,153.37S46,151.43,53.26,165.22s6.65,19.92,13.45,32.35,20.73,21.37,41.76,33.4,21.11,29.26,58,18,29.75-8.24,47-30,14.51-18,29-29,27-70.88,27-70.88-20,23.88-37,29.88-30.36,3.08-49,0-85.4-13.44-109-14-36,7.76-43.52,9.88A86.31,86.31,0,0,0,17.5,150Z"/><ellipse class="cls-3" cx="161.25" cy="171.25" rx="7.75" ry="4.75"/><ellipse class="cls-3" cx="108.25" cy="197.25" rx="3.75" ry="4.75"/><ellipse class="cls-3" cx="183.25" cy="199.25" rx="6.75" ry="4.75"/><ellipse class="cls-3" cx="230.25" cy="171.25" rx="6.75" ry="4.75"/><ellipse class="cls-4" cx="140.5" cy="149.5" rx="16" ry="10.5"/><ellipse class="cls-5" cx="119.5" cy="157" rx="9.5" ry="7.5"/></g></g></g><g id="PixelsASSETS"><g id="Espalda"><rect class="cls-6" width="275" height="259.5"/></g></g></g></g></svg>