<svg xmlns="http://www.w3.org/2000/svg" viewBox="0 0 275 259.5"><defs><style>.cls-1{isolation:isolate;}.cls-2{fill:#00841a;}.cls-3{fill:#00bd1a;}.cls-4{fill:#00e61a;}.cls-5{fill:#ff3361;}.cls-6{fill:#f5ff25;}.cls-7{fill:#ff8fe4;}.cls-8{fill:#fff469;}.cls-9{fill:#42210b;}.cls-10{fill:none;mix-blend-mode:multiply;opacity:0.4;}</style></defs><g class="cls-1"><g id="Layer_2" data-name="Layer 2"><g id="Variación_B" data-name="Variación B"><g id="AssetsE1"><g id="LoinE1"><path class="cls-2" d="M243.79,147a8.76,8.76,0,0,0-4.73-1.85,4.18,4.18,0,0,0-5.14-2.51c-.64.22-1.29.42-1.93.63a6.58,6.58,0,0,0-2-.92,61.2,61.2,0,0,0-8.75-1.82q-5.53-1.26-11-2.84c-1.07-.7-2.16-1.36-3.26-2-4.82-4.08-10.73-6.64-16.46-9.23a96.72,96.72,0,0,0-10.8-8.24c-6-4-14.68-9.79-22.44-10.28a20.32,20.32,0,0,0-4-2.29,6.57,6.57,0,0,0-2.66-1l-.55-.08c-.67-.19-1.34-.34-2-.48a6.8,6.8,0,0,0-2.55-1.31A34.09,34.09,0,0,0,135,101.6a7,7,0,0,0-7.43-1.88,22.71,22.71,0,0,0-3.72,1.58,6.8,6.8,0,0,0-4.36-.19A63.45,63.45,0,0,0,108,105.63q-7.73,3.2-15.31,6.7c-.21,0-.42-.06-.64-.07-6.86-.2-13.33,3.29-19.42,6-6.66,3-13.18,6.32-19.58,9.85a6.07,6.07,0,0,0-1.13.82,6.76,6.76,0,0,0-4.82,5,5,5,0,0,0-1.92,1.06,29.5,29.5,0,0,1-6.26,4.36A4.3,4.3,0,0,0,37,141.32a3.74,3.74,0,0,0-.45.12,4.65,4.65,0,0,0-.59.11h0c-2.69-.25-5.79,1.55-8.13,2.38-4.59,1.64-2.87,9.05,1.88,7.47l.11,0,.16,0c1.52-.46,3-.92,4.53-1.4l.33.06a5,5,0,0,0,3.4-.58c.39,0,.2.71.64,1.48a26.33,26.33,0,0,0,1.4,2.61c1.58,2.19,5.46,2.81,7,.54.22.05.44.11.67.15s.24,0,.37,0a6.46,6.46,0,0,0,6.08.77c.18.2.35.4.54.59a4.86,4.86,0,0,0,6.27.91L66.3,161A7.09,7.09,0,0,0,72,166.65L97.62,170a32.09,32.09,0,0,0,8.17,1.08l2.07.28c13,6,29.62,5.26,43.42,5.52,15.64.3,31-1.06,44.82-9a5,5,0,0,0,.8-.56c4.41-1.13,8.78-3.1,12.71-4.5,5.91-2.1,11.66-4.55,17.35-7.15,1.87-.42,3.74-.86,5.6-1.36,3.94-1.06,9.25-1.79,11.49-5.54A1.31,1.31,0,0,0,243.79,147Z"/><path class="cls-3" d="M174.57,112.76a46.92,46.92,0,0,0-9.5-1.13,3,3,0,0,0-2.22-4.17,30.3,30.3,0,0,0-10.35-.72C147.45,103,138.6,101,133,100.82a37.65,37.65,0,0,0-18.62,4.4c-2.64.43-5.26.93-7.85,1.58-3.91,1-7.68,2.5-11.68,3a7.06,7.06,0,0,0-2.32.3,4.36,4.36,0,0,0-3.36,4,16.7,16.7,0,0,0-8,1.15c-2.38,1-1,4.6,1.39,4.18,7.95-1.36,15,3.86,22.31,6.11a59.78,59.78,0,0,0,22.37,2.36c15.7-1.26,29.18-12,45.21-8.13C177,120.93,179.18,113.78,174.57,112.76Z"/><path class="cls-4" d="M65.46,147.88a8.36,8.36,0,0,0-.41-2.63A21.77,21.77,0,0,0,64,142.89c-.2-.48-.85-.21-.81.25a22.28,22.28,0,0,0,.17,2.71,8.18,8.18,0,0,0,.81,2.3.69.69,0,0,0,1.3-.27Z"/><path class="cls-4" d="M81.55,147.76A37.72,37.72,0,0,0,82.94,143a.4.4,0,0,0-.72-.27,13,13,0,0,0-1.7,4.82c-.12.58.85.79,1,.22Z"/><path class="cls-4" d="M116.74,134.34c.83-1.22,1.7-2.42,1.49-4a.47.47,0,0,0-.84-.19c-.79,1.06-1,2.36-1.62,3.49-.36.65.53,1.3,1,.67Z"/><path class="cls-4" d="M142,138.54a14,14,0,0,0,1.85-2.78c.19-.39-.4-.82-.71-.51a14.24,14.24,0,0,0-2,2.69.52.52,0,0,0,.86.6Z"/><path class="cls-4" d="M160.82,159.6c.35-2.57-.82-5.42-2-7.6-.2-.35-.88-.34-.87.15.06,2.58.48,5.61,2.14,7.69a.45.45,0,0,0,.78-.24Z"/><path class="cls-4" d="M135.76,159a1.64,1.64,0,0,0-.45-.84l.17.2-.39-.93c-.19-.47-1-.23-.85.27.07.27.17.54.22.81s0,.26.06.39.11.31.16.46c.23.6,1.27.27,1.08-.36Z"/><path class="cls-4" d="M109.22,159.29a19.33,19.33,0,0,0-.31-2.51c-.19-.81-.5-1.59-.7-2.39-.1-.38-.77-.44-.76,0a13.82,13.82,0,0,0,.15,2.65,8.45,8.45,0,0,0,1,2.41.33.33,0,0,0,.63-.18Z"/><path class="cls-4" d="M105.6,158.71a10,10,0,0,0-2.9-3c-.36-.2-.91.13-.68.56a10.13,10.13,0,0,0,3,3.1c.42.32.88-.25.6-.65Z"/><path class="cls-4" d="M138.48,159.7a3.94,3.94,0,0,0,.87-1.27c.18-.41.3-1.16-.14-1.46-.88-.6-1.55,1.5-1.77,2a.65.65,0,0,0,1,.7Z"/><path class="cls-4" d="M191.09,148.89a27.75,27.75,0,0,1,2.83-3.48c1-.95,2-1.83,2.87-2.85.36-.43-.23-1.08-.7-.82-2.52,1.37-5.23,3.79-6,6.63a.58.58,0,0,0,1,.52Z"/><path class="cls-4" d="M189.54,145.81a6.9,6.9,0,0,0,.2-4.4c-.05-.26-.48-.37-.57-.06a7.1,7.1,0,0,0-.14,4.46.28.28,0,0,0,.51,0Z"/><path class="cls-4" d="M113.88,132.3a2.22,2.22,0,0,0-.27-.86c-.13-.21-.42,0-.41.17a2.08,2.08,0,0,0,.26.81.22.22,0,0,0,.42-.12Z"/><path class="cls-4" d="M85.72,130a7,7,0,0,0-.34-2.18,4.19,4.19,0,0,0-1-1.75.41.41,0,0,0-.72.21,4.32,4.32,0,0,0,.13,2,7.66,7.66,0,0,0,.95,2,.58.58,0,0,0,1-.33Z"/><path class="cls-4" d="M88.58,128.75a4.81,4.81,0,0,1,.12-1.07,2.49,2.49,0,0,0,.09-1.05.39.39,0,0,0-.54-.28c-.83.34-1,1.54-1,2.31s1.33.94,1.32.09Z"/><path class="cls-4" d="M66.91,147.55a3.86,3.86,0,0,0,.36-1.62.22.22,0,0,0-.39-.11,3.91,3.91,0,0,0-.48,1.6.27.27,0,0,0,.51.13Z"/><path class="cls-4" d="M83.48,147.78a1.21,1.21,0,0,0,.64-.13,2,2,0,0,0,.51-.5,1.73,1.73,0,0,0,.32-1.26.4.4,0,0,0-.65-.24,4.83,4.83,0,0,0-.72.78,3.47,3.47,0,0,0-.29.38,2.26,2.26,0,0,0-.17.52.33.33,0,0,0,.36.45Z"/><path class="cls-4" d="M44.23,145.52a9.53,9.53,0,0,0-.72-1.83,3.72,3.72,0,0,0-1.07-1.43.38.38,0,0,0-.6.26,5.92,5.92,0,0,0,1.55,3.39c.28.37,1,.08.84-.39Z"/><path class="cls-4" d="M45.74,145.62a1.8,1.8,0,0,0-.38-2.58l.25.23-.13-.2a.42.42,0,0,0-.73.22c0,.08-.16.32-.2.47s-.06.33-.09.48a7.31,7.31,0,0,0-.14.92.78.78,0,0,0,1.42.46Z"/><path class="cls-4" d="M167.83,130.09c.34-1.15-.4-2.05-1.05-2.93a.47.47,0,0,0-.81.38c.2,1.07.37,2.21,1.44,2.72a.33.33,0,0,0,.42-.17Z"/><path class="cls-4" d="M170.32,128.25a5,5,0,0,0-.31-2.57c-.12-.28-.61-.31-.69,0-.22.82-.31,1.65-.47,2.48s1.37,1,1.47.08Z"/><path class="cls-4" d="M169.61,142.91c-.14-1-.37-2.67-1.52-3.06a.37.37,0,0,0-.49.3c-.18,1.08.87,2.18,1.4,3,.19.31.65,0,.61-.27Z"/><path class="cls-4" d="M170.6,139.73a11.83,11.83,0,0,0,.07-2.06.24.24,0,0,0-.48,0,10.81,10.81,0,0,0,.06,2,.18.18,0,0,0,.35,0Z"/><path class="cls-4" d="M170.94,142.68c.67-.52.36-1.67.35-2.44a7.28,7.28,0,0,0-.31-2.79.33.33,0,0,0-.56-.06,4.76,4.76,0,0,0-.58,3.15c0,.75,0,1.86.79,2.19a.32.32,0,0,0,.31,0Z"/><path class="cls-4" d="M119.37,168.14a4.19,4.19,0,0,0-.39-1.38,2.37,2.37,0,0,0-.78-1.15.63.63,0,0,0-.93.3,3,3,0,0,0,1.33,2.72.5.5,0,0,0,.77-.49Z"/><path class="cls-4" d="M100.31,144.23a3.83,3.83,0,0,0,.72-1.84.57.57,0,0,0-.45-.6.58.58,0,0,0-.65.36,3.52,3.52,0,0,0-.5,1.76.49.49,0,0,0,.88.32Z"/><path class="cls-4" d="M123.79,149.66a2.47,2.47,0,0,0-.47-2.31.38.38,0,0,0-.63.1,3.05,3.05,0,0,0-.25,1,5.46,5.46,0,0,0,0,.56,1.6,1.6,0,0,0,.33.8c.25.38.84.18,1-.18Z"/><path class="cls-4" d="M182.43,162.37c.93-.35,1.18-1.76,1.53-2.6a14.86,14.86,0,0,0,1.11-3.44c0-.27-.34-.5-.55-.3a9,9,0,0,0-1.9,3.07c-.38.91-1.15,2.25-.56,3.18a.32.32,0,0,0,.37.09Z"/><path class="cls-4" d="M181,161c-.05-.66-.37-1.72-1-2a.34.34,0,0,0-.43.18,3.75,3.75,0,0,0,.37,2.19.58.58,0,0,0,.71.29A.59.59,0,0,0,181,161Z"/><path class="cls-4" d="M207.31,151.54c-.29-1-.33-2.16-.66-3.18a.24.24,0,0,0-.46.07,8.38,8.38,0,0,0,.61,3.26c.09.28.59.14.51-.15Z"/><path class="cls-4" d="M209.05,151.07c0-.49.13-1,.14-1.53s-.07-1.2-.07-1.8c0-1.12.15-2.25.26-3.37a.31.31,0,0,0-.59-.15,9.17,9.17,0,0,0-.81,3.68,7.23,7.23,0,0,0,.1,1.61,11.6,11.6,0,0,0,.7,1.63.14.14,0,0,0,.27-.07Z"/><path class="cls-5" d="M112.85,111.36a.65.65,0,0,0,1,.52,1.21,1.21,0,0,0,.57-1.27,1,1,0,0,0-.94-.92,1.13,1.13,0,0,0-1.08.82,1.45,1.45,0,0,0,.21,1.35,1.13,1.13,0,0,0,1.35.34,1,1,0,0,0,.53-1.35,1.52,1.52,0,0,0-1.07-.82.64.64,0,0,0-.81.39,1.34,1.34,0,0,0,.72,1.62.61.61,0,0,0,.62-.12.94.94,0,0,0,.28-.87.67.67,0,0,0-.29-.53.22.22,0,0,0-.35.14.19.19,0,0,1,0,.08c0,.06-.12.16,0,.08s0,0,0,0l-.14,0,.6.21a.52.52,0,0,0-.1-.11c-.08-.06-.09-.07,0,0l0,0s0,0,0,0,0,0,0,0,0,0,0,0c0,.1,0-.08,0-.1l-.84.56a1,1,0,0,1,.24.08h0q.11.07,0,0l0-.11a.31.31,0,0,1,.16-.24.27.27,0,0,1,.12,0c-.07,0-.07,0,0,0-.1,0,0,0,0,0s0,0,0,0,0,0,0,0l0-.12s0,0,0,0,0,0,0,0,0-.08,0,0l0-.06,0,0c-.11,0,0,.13-.18,0s0-.09-.06,0,0,.2,0,.14a1,1,0,0,1-.21.11c-.08.05,0,0-.07,0a.28.28,0,0,0-.19.25Z"/><path class="cls-5" d="M113.69,110.58c.16,0,.13-.25,0-.25s-.13.25,0,.25Z"/><path class="cls-5" d="M115.4,110.23a1.06,1.06,0,0,0,0,.19c0,.08,0,.07,0,0l0,.15a1.74,1.74,0,0,0,0,.37s0,0,0,0,0-.06.09-.08h.2l-.05.61a.23.23,0,0,1-.18,0l-.25-.28a.22.22,0,0,1,0-.22c.27-.39.8.22.28.36h0a.51.51,0,0,1-.21-.27s0,0,0,0V111c.08-.07.13-.21.29-.19l.36.11a.28.28,0,0,1,.13.34c-.08.17-.42.19-.55.08s0-.14-.07-.2l0-.07a1,1,0,0,0-.16.1.92.92,0,0,0-.28.42.53.53,0,0,0,.09.5c.68.69,1.68-.1,1.7-.91a1.09,1.09,0,0,0-1.78-.89c-.63.57-.47,1.94.53,2a1.18,1.18,0,1,0-1-1.84,1.15,1.15,0,0,0,.88,1.76,1.06,1.06,0,0,0,.82-1.74,1,1,0,0,0-1.72.57,1,1,0,0,0,.89,1.06,1.06,1.06,0,0,0,1-.53,1.08,1.08,0,0,0-.08-1.25c-.19-.2-.83-.44-1,0Z"/><path class="cls-5" d="M112.34,113.55c.25.59,1.08.49,1.46.12a.86.86,0,0,0,.19-1,1.22,1.22,0,0,0-.28-.32s-.18-.17-.26-.23l.16.2a.86.86,0,0,0-1.21-.38,1.31,1.31,0,0,0-.66,1,1.38,1.38,0,0,0,1.53,1.46,1.06,1.06,0,0,0,1.06-.91,1.5,1.5,0,0,0-.43-1.11,1.05,1.05,0,0,0-1.27-.21.86.86,0,0,0-.16,1.44.66.66,0,0,0,.81,0,.87.87,0,0,0,.22-.32c0,.1,0,.11,0,0l-.06.06a.43.43,0,0,1-.57,0l0,0s0,0,0,0,0,.12,0,.18,0,.09.12-.2.07-.26.19-.28-.25,0,0,0c-.18,0,.13,0,0,0l-.06,0c.08,0,.09,0,0,0l0,0c0-.06,0-.06,0,0l0,.07c0-.08,0-.08,0,0v-.06c0,.09,0,.1,0,0l0,.06c.05-.06,0-.06,0,0l0,0q-.1.08,0,0l.07,0c-.08,0-.08,0,0,0a.45.45,0,0,0,.21-.12q-.12.06,0,0H113s0,0,0,0l-.11-.22c0,.07,0,0,0,0a.8.8,0,0,0,0,.17c0,.07,0-.07,0-.09l.08-.07c-.07,0,.1,0,0,0a.35.35,0,0,0-.11,0c-.06,0,0,0,0,0a1.49,1.49,0,0,0-.21,0,.51.51,0,0,0-.37.7Z"/><path class="cls-5" d="M114.46,112.37l-.15,0s-.06,0,0,0a.57.57,0,0,0-.46.52,1.06,1.06,0,0,0,1.28,1.16,1.31,1.31,0,0,0,1-1.58,1.11,1.11,0,0,0-1.79-.75,1.47,1.47,0,0,0,0,2,1,1,0,0,0,2-.46,1.68,1.68,0,0,0-1.16-1.65,1,1,0,0,0-.94.26,1.23,1.23,0,0,0-.21,1.25c.13.41.53.91,1,.81s.54-.76.41-1.13h0l-.09-.26s0,0,0-.06l-.41.42c-.21,0-.11-.12-.07,0s.07.12.08.14c.13.17,0-.07.06-.19a.25.25,0,0,1,.19-.14c.39.2.51.22.35.06s-.19-.21-.16-.25v.11c-.06.25-.35.21-.53.16,0,0-.08,0-.05-.06s.07.1,0,.12,0-.07,0-.06l0,0h0c.11,0,.2.05.2.18a.57.57,0,0,0-.25-.52h0l.19.29v0a.37.37,0,0,0-.42-.4Z"/><path class="cls-5" d="M136.11,108a.73.73,0,0,0,.11,1.13.8.8,0,0,0,.62.12.65.65,0,0,0,.48-.58l-.08.2a1,1,0,0,0,.25-.6.49.49,0,0,0,0-.12c0-.11,0-.14,0-.09s0,0,0,0a.7.7,0,0,0,0-.38.65.65,0,0,0-.77-.49,1,1,0,0,0-.65.54,1.07,1.07,0,0,0-.09,1,.69.69,0,0,0,.92.38.58.58,0,0,0,.33-.48.6.6,0,0,0-.15-.5c-.14-.11.09.23.06.21h0l0-.07c0-.07,0,0,0,0l0,0q-.72-.14-.48.09l-.08-.18a.34.34,0,0,1-.07.32l.25-.16-.1,0,.24,0-.11,0a.69.69,0,0,0-.2,0,.14.14,0,0,1,.12.06.18.18,0,0,1,.1.09l0,0s0,0,0,0a.43.43,0,0,0-.05-.16.5.5,0,0,0-.77-.17Z"/><path class="cls-5" d="M136.69,108.33c.16,0,.13-.25,0-.25s-.13.25,0,.25Z"/><path class="cls-5" d="M137.25,108.06a.92.92,0,0,0-.5.85,1,1,0,0,0,.6,1,1.12,1.12,0,0,0,1.54-1.11,1.22,1.22,0,0,0-1.83-.89,1.31,1.31,0,0,0,0,2.21,1.11,1.11,0,0,0,1.48-.33,1,1,0,0,0,.06-1,.59.59,0,0,0-.47-.32.91.91,0,0,0-.33,0,.3.3,0,0,0-.16.3c0,.07,0,0,0-.06l.22-.23a.51.51,0,0,0-.26.2c-.07.14-.09.17-.05.09h0s.21-.15.12-.11l.1,0c.14,0,.16,0,.08,0l.39.12c.16.14.14.13-.06,0l0,0-.13-.08c-.16-.08.09.11,0,0s0,0,.07.1.06.18,0,.11,0,0,0,.12,0,.19,0,.1c0,.13-.31.43,0,.05a.5.5,0,0,1-.67.16.2.2,0,0,1-.09-.09s0-.06,0,0a.53.53,0,0,1,.09-.59.21.21,0,0,1,.13-.07c.06,0,.06,0,0,0a.5.5,0,0,1,.43.14c.13.15,0,.07,0,0s0,.15,0,0,0-.06,0,0a.46.46,0,0,0,0-.26,1.64,1.64,0,0,0-.16-.29.57.57,0,0,0-.68-.14Z"/><path class="cls-5" d="M135.86,107.7a.81.81,0,0,0,.36.81l-.09-.16a.69.69,0,0,0,.64.56.88.88,0,0,0,.73-.41,1.1,1.1,0,0,0,0-1.34,1.16,1.16,0,0,0-1.12-.43,1.24,1.24,0,0,0-.92.9,1.72,1.72,0,0,0,.14,1.28,1.08,1.08,0,0,0,1.44.39,1.23,1.23,0,0,0,.64-1.34,1.7,1.7,0,0,0-.89-1,.75.75,0,0,0-1.09.38,1.61,1.61,0,0,0-.13.78.59.59,0,0,0,.85.42,1.75,1.75,0,0,0,.58-.57l-1,.21c.07,0,.07,0,0,0a.23.23,0,0,0,.07.07l.06.07,0,0c.07.17,0,0,0-.08,0,.13,0-.09,0-.14a.36.36,0,0,1,.24-.16.33.33,0,0,1,.3.08.3.3,0,0,1,.24.15c0,.09,0,.1,0,0v-.06c0-.15,0,.15,0,0v-.09c0-.07,0-.08,0,0s-.07.16-.18.22-.27,0-.13,0c-.06,0-.22-.09-.12,0-.15-.11-.15-.21-.12-.38h0l-.12.13a.76.76,0,0,0-.11.33c0-.16,0-.13,0,.07l.27-.21c-.16,0-.25-.24-.26-.37a.14.14,0,0,0-.28,0Z"/><path class="cls-5" d="M135.48,108.59a1,1,0,0,0-.76.91,1.14,1.14,0,0,0,.42,1.06,1.22,1.22,0,0,0,1.88-.5,1.23,1.23,0,0,0-.18-1.08,1.37,1.37,0,0,0-.18-.24.83.83,0,0,0-.17-.16s.11.1,0,0a1,1,0,0,0-1-.13,1.31,1.31,0,0,0-.36,2.21,1,1,0,0,0,1.48-.49,1.28,1.28,0,0,0,.07-.28.67.67,0,0,0,0-.2h0a1.94,1.94,0,0,0-.17-.71.77.77,0,0,0-.63-.41.81.81,0,0,0-.67.34,1.2,1.2,0,0,0-.29.66.65.65,0,0,0,.77.67,1.17,1.17,0,0,0,.65-.36l-.74.15c.05,0,.2.09.12,0l-.12-.25c0,.06,0,.06,0,0a.21.21,0,0,1,.08-.16l.4-.13.11,0,.23.26s-.1-.27,0-.09-.07-.18-.08-.2.06.23,0,0v.14c0-.08,0,0,0,.1,0-.08.07-.15,0,0,.05-.07,0,0-.06.07l-.1.07c.11-.06-.17,0,0,0s.32-.14.43-.22l-.55.2c.15,0-.1,0,0,0s0,0,0,0l-.11-.15c.06.09,0-.07,0,0a.71.71,0,0,1,0-.15c0-.07.05-.09,0,0s0,0,0,0,0,0,0,0-.06,0,0,0,0,0,0,0h0s.14.11.1.06,0,0,0,0,0,0,0,0l0,.06s0-.06,0,0h0s0,0,0,0,.05-.14,0-.07,0,0,0-.06.15-.43.09-.22a.54.54,0,0,0-.6-.71Z"/><path class="cls-5" d="M136.7,110.07a.67.67,0,0,0-.27.23.63.63,0,0,0,0,.52.62.62,0,0,0,.34.4.45.45,0,0,0,.28,0l.11,0a.24.24,0,0,0,.11-.09.2.2,0,0,0,.06-.07.19.19,0,0,0,0-.31h0l.12.15s0,0,0-.09l0-.1a.21.21,0,0,0-.06-.1l0,0s-.05-.09-.09-.13l-.05-.07,0,0,0,0s.07.11,0-.08l-.06-.09s0,.07,0,0,0,0,0,0,0,0,0,0a.28.28,0,0,0-.39-.29Z"/><path class="cls-5" d="M137.66,110.71a1.14,1.14,0,0,0-.17-1.41.66.66,0,0,0-1,.06,1.61,1.61,0,0,0-.18,1.47,1,1,0,0,0,1.21.62s.24-.11.12,0a1.33,1.33,0,0,0,.24-.1.85.85,0,0,0,.41-.52,1,1,0,0,0-.47-1.11l.2.23a.84.84,0,0,0-.85-.47,1.06,1.06,0,0,0-.87.64,1.18,1.18,0,0,0,.89,1.7.75.75,0,0,0,.7-1.08s-.21-.26-.2-.29l0,.17-.06.2c-.06.06-.06.07,0,0l0,0c.19-.2.17-.2-.09,0l-.3,0-.18-.22c0,.09,0,.08,0,0s.07-.23.18-.25l.31,0,.1.07a.55.55,0,0,0-.19-.15c-.07,0-.07,0,0,0a.09.09,0,0,1,0,.06s0-.06,0-.12a1.43,1.43,0,0,1,.06-.21l-.66.44H137c-.13-.05-.16-.06-.09,0l.12.11a.57.57,0,0,1,.12.17.29.29,0,0,0,.49,0Z"/><path class="cls-5" d="M151.87,119.18c.08.19.1.22,0,.08l0-.08a.62.62,0,0,0-.14-.14.59.59,0,0,0-.59,0c-.5.24-.43.82-.24,1.24a.62.62,0,0,0,.67.33,1.18,1.18,0,0,0,.9-1,1,1,0,0,0-1-.94,1,1,0,0,0-.94,1,1.25,1.25,0,0,0,1.17,1.19.77.77,0,0,0,.75-.51,1.37,1.37,0,0,0-.66-1.69.94.94,0,0,0-1.19,1.17,1,1,0,0,0,1.8.29,1.18,1.18,0,0,0,.15-.84c-.05-.23-.09-.57-.31-.69a.3.3,0,0,0-.35,0l0,0a.28.28,0,0,0-.08.31v0a.22.22,0,0,0,.19.14h0a.21.21,0,0,0,.22-.12v0l-.13.13-.23,0a.24.24,0,0,1,0,.12,1,1,0,0,1,0,.1s0,0,0,0-.13-.08,0,0,0,0,0,0a.34.34,0,0,1,0,.33l0-.19c0,.05-.4.46-.23.39a.17.17,0,0,1-.21,0c-.14,0-.17,0-.1,0l-.18-.21,0-.16,0,0a.64.64,0,0,0-.13.19l.86-.3c.14.06-.17-.14-.12,0s.06,0,.08.08a.49.49,0,0,1-.09.49l0,0,.11-.06-.34.07-.34-.56,0,0s.16-.09,0,0l.82.28a1.09,1.09,0,0,1-.08-.15.06.06,0,0,0,0-.06c0-.09,0-.06,0,.1a.45.45,0,0,0,0-.16l-.08.18,0,0a.33.33,0,0,0,0-.42Z"/><path class="cls-5" d="M152.69,119.73a1,1,0,0,0-.18,1.76,1.19,1.19,0,0,0,1.82-.75,1.11,1.11,0,0,0-.3-.9l-.17-.15s.17.15,0,0a.91.91,0,0,0-.23-.15,1.1,1.1,0,0,0-1.57.75,1.13,1.13,0,0,0,.45,1.25.93.93,0,0,0,1.32-.19.63.63,0,0,0,0-.74.49.49,0,0,0-.5-.14l.42.09-.05,0,.2.23a.81.81,0,0,0-.17-.24l-.14-.13c.08.09.1.1.05,0,.06.11.08.13,0,.06l0,.12,0-.09a.5.5,0,0,1,0,.27l-.06.11c.05-.07,0-.06,0,0s0,0,.1-.08a.49.49,0,0,1-.7-.06l0,0a.31.31,0,0,1-.09-.19c0,.06,0,.06,0,0a.35.35,0,0,1,0-.17c0,.07,0,.05,0-.06a.2.2,0,0,1,.09-.09c.05,0,.05,0,0,0,.1,0,.11,0,0,0,.1,0,.12,0,.07,0s0,0,.07,0c-.14,0,.13.08,0,0l-.05,0a.4.4,0,0,1,.16.24s0,0,0,0a.17.17,0,0,1,0,.12c0-.06,0,0,0,0a.53.53,0,0,0,.08-.17.58.58,0,0,0-.11-.55.54.54,0,0,0-.53-.19Z"/><path class="cls-5" d="M151,120.62c-.36.06-.51.42-.57.73l.17-.32a.66.66,0,0,0-.25.67,1.09,1.09,0,0,0,.27.48,1.14,1.14,0,0,0,1,.33.88.88,0,0,0,.73-.93,1.43,1.43,0,0,0-.17-.35,1.33,1.33,0,0,0-.19-.35l.07.15c0,.06,0,0,0,0a.39.39,0,0,0,0-.15.75.75,0,0,0-.91-.47,1,1,0,0,0-.82,1,.94.94,0,0,0,.95,1c.4,0,.94-.31.85-.78a.4.4,0,0,0-.34-.32.92.92,0,0,0-.33.06c-.08,0,0,0,0,0s0,0,0,0a.16.16,0,0,1,.12,0c-.06,0,0,0,0,0l0,0s0,0,0,0l0,.07c0-.13,0,.09,0,0s0,.15,0,0,0,0,0,0,0,0,0,0,0,0,0,0l-.06,0a1.14,1.14,0,0,0,.48-.21l-.26.08h0l-.22-.12c.09.08,0,.09.07,0l.11-.14c-.07,0-.08.06,0,0l-.09,0-.14.09s-.05,0,0,0-.1.06-.1,0,.21,0,.06,0h0s0,0,0,0,0,0,0,0l0,0a.11.11,0,0,1,.05.09l-.05-.14a.54.54,0,0,0-.19-.23c-.05,0,0,0,0,0l.11.35c0-.06,0-.07,0,0a.36.36,0,0,1,0-.09c0,.06,0,0,.05-.08a.45.45,0,0,0,0-.16.43.43,0,0,0-.49-.46Z"/><path class="cls-5" d="M151.32,120.54l-.21.13a.55.55,0,0,0-.17.28.28.28,0,0,0,.14.34.57.57,0,0,0,.34.07l.25-.07a.43.43,0,0,0,.31-.6.41.41,0,0,0-.23-.22.44.44,0,0,0-.43.07Z"/><path class="cls-5" d="M152.39,122a.43.43,0,0,0-.07.29.59.59,0,0,0,.16.3.69.69,0,0,0,.58.31.26.26,0,0,0,.16-.41c-.08-.13-.22-.16-.31-.27a.9.9,0,0,0-.15-.19l-.14-.09a.15.15,0,0,0-.23.06Z"/><path class="cls-5" d="M153.55,122.16a1.08,1.08,0,0,0-.39-1.12,1,1,0,0,0-1.38.23c-.59.86.4,2.37,1.44,2a1.18,1.18,0,0,0,.46-.35,1,1,0,0,0,.28-.63c0-.09,0-.2,0-.3s0-.09,0-.2a1,1,0,0,0-.32-.63,1,1,0,0,0-1.27,0,.94.94,0,0,0-.25,1.12.59.59,0,0,0,.84.25.55.55,0,0,0,.24-.35.44.44,0,0,0,0-.13s-.06.21,0,.09.06,0,0,0-.1.08-.17.09-.19,0-.23,0,.08.05.1.06l.09,0,0,0s.05,0,0,0-.09-.06.05-.13l.29-.06c-.07,0-.08,0,0,0l-.11,0c-.08,0-.08,0,0,0s-.08-.06,0,0l-.09-.1c0,.06,0,0,0,0s0-.08,0,0a.39.39,0,0,1-.14.35c-.08.06-.09.07,0,0s.06,0,0,0c.07,0,.07,0,0,0l.1,0c-.09,0,.1,0,.12.05l.18.09a.25.25,0,0,0,.34-.19Z"/><path class="cls-6" d="M114,111.7h-.07l-.16.06a.53.53,0,0,0-.2.16.4.4,0,0,0-.1.15.52.52,0,0,0-.07.25v.18l.06.16a.46.46,0,0,0,.16.2.52.52,0,0,0,.22.14h.07a.67.67,0,0,0,.68-.13l.11-.13a.73.73,0,0,0,.12-.35.57.57,0,0,0,0-.26.58.58,0,0,0-.13-.23.69.69,0,0,0-.66-.22Z"/><path class="cls-6" d="M136.69,109.5c.16,0,.13-.25,0-.25s-.13.25,0,.25Z"/><path class="cls-6" d="M136.63,109.83c.59,0,.68-.92.09-.92s-.68.92-.09.92Z"/><path class="cls-6" d="M152.32,121.41c.26,0,.32-.41.05-.41s-.33.41-.05.41Z"/><path class="cls-6" d="M152.3,121.88a.6.6,0,0,0,.3,0,.62.62,0,0,0,.25-.14.66.66,0,0,0,.17-.24.57.57,0,0,0,.08-.29l0-.2a.78.78,0,0,0-.18-.35l-.14-.12a.66.66,0,0,0-.38-.12.49.49,0,0,0-.29,0,.55.55,0,0,0-.26.14.51.51,0,0,0-.16.24.46.46,0,0,0-.08.28v.21a.75.75,0,0,0,.18.34l.15.13a.81.81,0,0,0,.37.12Z"/><path class="cls-7" d="M106.05,119.09h0a.77.77,0,0,0,.56,0,.74.74,0,0,0,.36-.42v0l0-.2,0-.21a.57.57,0,0,0-.12-.26.47.47,0,0,0-.13-.15.37.37,0,0,0-.17-.1.4.4,0,0,0-.19-.07.44.44,0,0,0-.2,0,.6.6,0,0,0-.29.08l-.16.11-.13.15-.08.18,0,.2,0,.21a.48.48,0,0,0,.12.26.37.37,0,0,0,.13.15.64.64,0,0,0,.25.15Z"/><path class="cls-7" d="M105.66,117.9a1,1,0,0,0-.31.66,1.06,1.06,0,0,0,.23.71,1,1,0,0,0,1.21.24c1-.53.31-2-.59-2.13a1,1,0,0,0-1.16.91,2.3,2.3,0,0,0,.31,1.15,1.43,1.43,0,0,0,1.11.74,1.24,1.24,0,0,0,1.12-.55,1.31,1.31,0,0,0-.27-1.57,1.59,1.59,0,0,0-1.19-.67.81.81,0,0,0-.84.77,1.6,1.6,0,0,0,.78,1.58,1.17,1.17,0,0,0,1.62-.65,1.52,1.52,0,0,0-.86-1.71,1,1,0,0,0-1.41,1.18.77.77,0,0,0,1.38.25q-.14.14,0,.06c.07-.06,0-.05-.06,0a.53.53,0,0,1-.6,0c-.06-.1-.07-.1,0,0s0,.07,0,0,0-.06,0,0a.59.59,0,0,1,.3-.6c.13,0,.16-.05.07,0h.12a.43.43,0,0,1,.35.21l0-.06c0,.09,0,.09,0,0s0-.09,0,0v-.15l-.85.78s-.13,0,0,0c-.08,0-.1,0,0,0h0c-.07-.07,0,0,0,0l.11.13c-.06-.06-.06,0,0,0l0,.07a.39.39,0,0,1,0-.35.47.47,0,0,1,.16-.27s.23-.09.1-.06a.36.36,0,0,1,.23,0l.1,0,0,0c.06.06.08.06,0,0h0c0,.09,0,0,0-.06l-.07-.16c0,.07,0,.08,0,0s0-.25,0,0,0,.16,0,.09,0,0,0,.06l-.28.26c-.47-.11-.61-.1-.42,0-.06,0-.06,0,0,0l0,0c.12.26.21.09.28-.49a.39.39,0,0,1,.53.18q0,.26,0,.09c0-.2,0-.24,0-.13a.62.62,0,0,0-.34-.6.64.64,0,0,0-.69.08Z"/><path class="cls-7" d="M108.63,118.63a1.22,1.22,0,0,0-1.25.88,1.29,1.29,0,0,0,.54,1.51,1.47,1.47,0,0,0,1.49,0,1.33,1.33,0,0,0,.6-1.48,1.44,1.44,0,0,0-1.2-1.07,1.1,1.1,0,0,0-.85.31,1.22,1.22,0,0,0-.3,1,1.4,1.4,0,0,0,1.21,1.27,1.21,1.21,0,0,0,1.15-1.54,1.49,1.49,0,0,0-1.34-1.26,1.34,1.34,0,0,0-1.35,1.3.87.87,0,0,0,.59.84.81.81,0,0,0,.94-.33.84.84,0,0,0,.11-.62c0,.31,0,.41,0,.28s0,0-.05.1c0-.06,0-.06,0,0a.26.26,0,0,1-.14.11c.06,0,0,0,0,0a.45.45,0,0,1-.2,0l-.1,0-.09,0-.08-.07c.06.06.05,0,0-.06l0,0c0,.08,0,.06,0-.06l0,0c0,.1,0,.07,0-.07v0c0-.13,0-.16,0-.06l.8-.42a.21.21,0,0,1,.1.06c.05,0,.05,0,0,0s.07.12,0,.06,0,0,0,.08,0,0,0-.07,0,0,0,.08c0-.09,0-.06,0,.09a.47.47,0,0,1-.52.36s-.19-.1-.1,0-.18-.23-.12-.11c0-.11,0-.13,0,0v-.11s0,.13,0,.14,0-.16,0-.1,0,0,0-.08c0,.06,0,.06,0,0a.28.28,0,0,1,.13-.11c-.14.07.19,0,0,0s.2,0,0,0,.16,0,0,0l.1.05c-.07,0,0,0,0,0-.1-.1.07.16,0,0l0,.11c0-.09,0-.06,0,.06,0-.14-.07.16,0,0s-.07.1,0,0,0,0-.05,0a1.07,1.07,0,0,0,.14-.16c.1,0-.23.15-.08.07a.66.66,0,0,0-.25-1.24Z"/><path class="cls-7" d="M107.09,119.94a1.86,1.86,0,0,0-.66-.52,1.41,1.41,0,0,0-.93,0,1.63,1.63,0,0,0-1.12,1.47,1.59,1.59,0,0,0,1.05,1.53,2.41,2.41,0,0,0,1.92-.27c1.45-.78.36-2.88-1-2.89a1.38,1.38,0,0,0-1.41,1.32c0,.78.62,1.62,1.46,1.45a.77.77,0,0,0,.58-.92c0-.17,0-.5-.2-.62.27.18-.24.63-.44.63a.31.31,0,0,1-.13,0c-.07,0-.06,0,0,0s0,0,0,0,.09.1,0-.27l.25-.4-.07,0-.22.11-.08,0c-.18,0,0-.05,0,0s.1.11.11.19-.08.28,0,.1,0,0,0,0a1.74,1.74,0,0,0,.55-.24l-.32.06a.61.61,0,0,1,.19,0c.43,0,.8-.54.46-.89Z"/><path class="cls-7" d="M108,120.84l-.07-.09a.82.82,0,0,0-1-.17,1.74,1.74,0,0,0-.27,2.79,1.64,1.64,0,0,0,2.64-.81,1.58,1.58,0,0,0-.44-1.5,1.81,1.81,0,0,0-1.52-.61,1.3,1.3,0,0,0-.86,1.4,1.78,1.78,0,0,0,.8,1.44,1.43,1.43,0,0,0,1.92-.36,1.54,1.54,0,0,0-.18-1.87.85.85,0,0,0-1-.18l-.29.2a.78.78,0,0,0,.28,1.31.49.49,0,0,1,.16,0l-.6-.84a1.34,1.34,0,0,0,0,.2c0,.13,0,.16,0,.09s0,0,0,0l0-.08v.08a.35.35,0,0,1,.22-.21c.13-.1.2-.17.37-.12a.77.77,0,0,1,.16.07c.06.07.07.08,0,0s0,0,0,0,0-.13,0-.13-.23.5-.15.44l-.4.22c-.41-.09-.52-.1-.32,0s.09.06,0,0c.13.11.1.18,0,0a.32.32,0,0,1,0-.17h0a.35.35,0,0,1,.27-.14c-.11,0-.11,0,0,0s.09,0,0,0a.23.23,0,0,1,.1.12c0-.1-.06-.1,0,0,0-.1,0-.11,0,0,0-.11,0-.12,0,0,0-.1,0-.11,0,0s0,0,0,0a.8.8,0,0,0,.24-.79l-.06-.17,0,.5,0,0a.58.58,0,0,0-.11-.58Z"/><path class="cls-7" d="M136.52,118.43a0,0,0,0,0-.05,0h.17a.68.68,0,0,0-.72.22.94.94,0,0,0-.14,1A1.16,1.16,0,0,0,138,119a1.33,1.33,0,0,0-.54-.71,1.14,1.14,0,0,0-1.06-.06.69.69,0,0,0-.39.59,1.45,1.45,0,0,0,.72,1.4.82.82,0,0,0,.68.08.74.74,0,0,0,.46-.47,2.08,2.08,0,0,0,.06-1,1.31,1.31,0,0,0-.58-.8,1.1,1.1,0,0,0-1.29.08.9.9,0,0,0-.09,1.27.73.73,0,0,0,.83.16l-.08,0h0l.25-.1a.24.24,0,0,0,.11-.06.48.48,0,0,1-.48,0l-.08-.06,0-.06s0,0,0-.07v.07c0-.08,0-.09,0,0a.34.34,0,0,1,0,.1,1.52,1.52,0,0,1,0,.21l1-.68c.09.05.11.05.06,0l-.07,0c.07.06.09.07.05,0s0,0,0,0l0,0c0-.08,0-.07,0,0s0-.24,0,0l-.39.59a.34.34,0,0,1-.28,0c.12,0-.1,0,0,0s-.09-.1,0,0c-.05-.08-.07-.09,0,0s0,0,0-.06a.26.26,0,0,1,0-.15c0-.06,0-.06,0,0l0-.09.05-.06c-.06,0,.14-.06,0,0l.07,0h-.07s.19,0,0,0,.15,0,0,0c.09,0,.11.06.07,0s0,0,0,0,0,.18,0,.07a1,1,0,0,0,0-.17s-.05-.17,0-.07a.84.84,0,0,0-.05-.2s0-.12,0,0l0,.17,0,0-.1.12.07,0a.29.29,0,0,0-.29-.5Z"/><path class="cls-7" d="M137.84,119.36c-.66-.29-1.3.37-1.35,1a1.74,1.74,0,0,0,.62,1.34,1.94,1.94,0,0,0,.78.5,1.2,1.2,0,0,0,1.1-.28,1.51,1.51,0,0,0,.23-1.83,1.62,1.62,0,0,0-1.38-1,1.39,1.39,0,0,0-1.43,1.55A1.49,1.49,0,0,0,138,122a1.37,1.37,0,0,0,1.13-.68,1.18,1.18,0,0,0-.19-1.46,1.11,1.11,0,0,0-1-.28,1.1,1.1,0,0,0-.73.72l0-.16.45-.35a.62.62,0,0,1,.72.2.39.39,0,0,1,.13.52c-.06.4-.05.52,0,.37s0,0,0,0c-.19.26-.5.31-.91.18l-.09-.08c.1.08,0,0,0,0s.07.12.1.17h0a.19.19,0,0,1,0-.18c0-.31.45-.89.88-.48a.34.34,0,0,0-.12-.09c-.07,0-.07-.06,0,0s-.24-.24-.1-.07,0,0,0,0v.11s0,.13,0,0a1.42,1.42,0,0,0,0-.22c0,.15,0-.14,0-.16a.66.66,0,0,0-.42-.65Z"/><path class="cls-7" d="M135.43,119.7a1.42,1.42,0,0,0-.36,2.18,1.26,1.26,0,0,0,2.11-.61,1.62,1.62,0,0,0-1.05-1.77,1.23,1.23,0,0,0-1.45.42,1.31,1.31,0,0,0-.06,1.35,1.63,1.63,0,0,0,.94.77,1.24,1.24,0,0,0,1.45-.47.88.88,0,0,0-.48-1.29,1.17,1.17,0,0,0-.27,0l.12,0a1.07,1.07,0,0,1-.3-.06H136s.25.06.12,0l.11.05-.08-.05s.18.18.07.06.13.18.08.09,0,0,0,0a.27.27,0,0,1,0,.15c0,.09,0,.1,0,0s0,0,0,0a.37.37,0,0,1-.17.26.31.31,0,0,1-.2.2c-.08.08,0,0,0,0s-.17,0-.07,0-.12-.06,0,0a.5.5,0,0,0,.13,0l-.32-.2.08.07c.05.07.05.06,0,0s0-.11,0,0a.49.49,0,0,1,.16-.45c.3-.26-.35.23,0,0-.13.08.19,0,0,0s.11,0,.17,0a.44.44,0,0,1,.3.29c0-.09,0-.08,0,0a1.24,1.24,0,0,0,0-.27c0,.05,0,0,0,0a.35.35,0,0,1-.12.23.68.68,0,0,0-.76-1.12Z"/><path class="cls-7" d="M138.73,119.82c-.26.18.14-.1.11-.07a1,1,0,0,0,.24-.37c0-.12-.07.12,0,0s-.08.07,0,0,0,0-.06,0a.27.27,0,0,1-.18,0c-.08,0-.09,0,0,0a.46.46,0,0,1-.31-.15c.1.1-.07-.14,0,0l-.08-.38a.27.27,0,0,0,0,.09c0-.07.07-.22.11-.27s-.06,0,.05,0a.16.16,0,0,1,.11-.05c.07,0,.08,0,0,0l-.11,0s.21,0,.09,0l.47.22.1.12a.66.66,0,0,1,.06.39.64.64,0,0,1-.57.51.52.52,0,0,1-.38-.09c.1.07-.07-.06-.08-.07a.72.72,0,0,1-.15-.27l0-.16,0,.25c.1.25.12.29.06.14a.19.19,0,0,1,0-.15c0-.16,0,0,0,0a.75.75,0,0,0,.7.78,1,1,0,0,0,1.11-1,1.22,1.22,0,0,0-.72-1.16,1.21,1.21,0,0,0-1.65,1.57,1.09,1.09,0,0,0,1.08.72,1.33,1.33,0,0,0,1.1-.62,1.51,1.51,0,0,0,.18-.58.82.82,0,0,0,0-.31.14.14,0,0,0,0-.06l-.07-.19,0,.1a2,2,0,0,0-.27-.49,1.06,1.06,0,0,0-.49-.31,1.18,1.18,0,0,0-1.39,1.6.69.69,0,0,0,1,.2Z"/><path class="cls-7" d="M136.57,117.63c-.5-.39-1.2,0-1.37.56a1.36,1.36,0,0,0,.51,1.5,1.85,1.85,0,0,0,1.54.3.93.93,0,0,0,.61-.81,1.54,1.54,0,0,0-.21-.74,2.58,2.58,0,0,0-.74-1,.87.87,0,0,0-1,.06.9.9,0,0,0-.29.89,1.41,1.41,0,0,0,.78,1.19,1.2,1.2,0,0,0,1.19-.25,1.06,1.06,0,0,0,.09-1.47,1.08,1.08,0,0,0-1.46-.17.68.68,0,0,0,.4,1.17h.14c.12,0,.12,0,0,0a.25.25,0,0,1-.19-.09.4.4,0,0,1,.15-.63c.06,0,.06,0,0,0h.1c-.09,0-.06,0,.07,0a.31.31,0,0,1,.26.19v0c0-.05,0-.11,0-.16A1.55,1.55,0,0,1,137,118l0,.39v-.07l-.2.31,0,0-.33.17c-.09,0-.16,0-.06,0-.07,0-.09-.09-.09,0l0,.07c0,.1,0,0,0-.19,0,.13,0,0,0,.07l.3-.28.09,0c.1,0,.12,0,0,0s0,0,0,0,0,0,0,0-.19,0-.09,0l-.07,0c.05,0,.06,0,0,0s0,0,0,0a.08.08,0,0,1,0,0s0,.26,0,.28.17-.25.19-.32a.67.67,0,0,0-.24-.72Z"/><path class="cls-8" d="M107.28,121.38l.22-.06h-.18a.37.37,0,0,0,.49-.21.56.56,0,0,0-.08-.54l.08.25a.6.6,0,0,0-.25-.56.7.7,0,0,0-.66,0,.8.8,0,0,0-.34,1.09.85.85,0,0,0,.94.46.93.93,0,0,0,.71-.86,1,1,0,0,0-.6-.93l-.09,0h0c.06,0,0,0-.1,0a.67.67,0,0,0-.31,0,.81.81,0,0,0-.62.38.89.89,0,0,0,.2,1.22.87.87,0,0,0,1.21-.18.83.83,0,0,0-.46-1.25.76.76,0,0,0-.83.23.76.76,0,0,0,.19,1.1.58.58,0,0,0,.81-.15.85.85,0,0,0,.13-.66l-.21.63-.37.11-.23-.08a.27.27,0,0,1-.12-.17.25.25,0,0,1,0-.34.24.24,0,0,1,.18-.28.25.25,0,0,1,.16-.06.39.39,0,0,1,.23.07.38.38,0,0,1,.14.4s-.1.15-.06.1.2-.22.07-.09l-.26.13c.11,0-.08,0-.11,0s0,0,0,0l0,0s0,0,0,0a.29.29,0,0,0,0-.09s0,0,0,0l0-.08s0,0,0,0,.07,0,.12,0a.25.25,0,0,1,.21.13s0,0,0,0a.26.26,0,0,1,0,.15s-.06.08,0,0c-.09.1-.31.17-.1.1l.1,0,.09,0-.33,0s-.1-.16,0-.16-.07.16-.07.18l.19-.2h-.05l.22.38a.54.54,0,0,0,.07-.65.5.5,0,0,0-.63-.19.51.51,0,0,0,.3,1Z"/><path class="cls-8" d="M136.67,119.46a1,1,0,0,0-.14.69.51.51,0,0,0,.28.37.54.54,0,0,0,.48,0l.22-.09a.5.5,0,0,0,.3-.44.74.74,0,0,0-.48-.76.56.56,0,0,0-.57.12.74.74,0,0,0-.16.19.88.88,0,0,0-.11.63.83.83,0,0,0,1,.63.8.8,0,0,0,.56-.47.81.81,0,0,0,0-.63l.05.15a.71.71,0,0,0-.3-.48.82.82,0,0,0-.57-.12l.48.1a.62.62,0,0,0-.35-.12.58.58,0,0,0-.42.12.64.64,0,0,0-.23.83.62.62,0,0,0,.65.32h-.15a.87.87,0,0,0,.37-.08l-.16,0h-.14l-.16,0h0l-.27-.19a.8.8,0,0,0,.28.2.76.76,0,0,0,.21,0l-.17,0h0l-.15-.07a1.24,1.24,0,0,0,.2.1l-.14-.07h0l-.12-.11v0l-.08-.13s0,0,0,0l-.05-.15s0,0,0,0v-.12l0-.16s0,0,0,0l.07-.14,0,0,.11-.12,0,0,.13-.09-.06,0,.14,0h0l.16,0-.07,0,.14.07s-.08-.06,0,0a.23.23,0,0,1,.07.07s0,.06,0,0l0,.14s0,0,0-.07V120l0,.15a.14.14,0,0,0,0-.06c0-.05-.07.12,0,0l-.5.23h0l-.15,0c.05,0,0,0-.08,0l-.08-.07c.05.06-.07-.14,0-.06s0-.15,0-.06a.56.56,0,0,0,.19.31l.6-.09a1.36,1.36,0,0,0,.06-.29l0,.14a.69.69,0,0,0,0-.08s-.09.14,0,0a.56.56,0,0,0-.13-.77.57.57,0,0,0-.78.14Z"/><path class="cls-9" d="M15.41,155.68c14.55-7.33,27.77-17.32,42.1-25.23a367.47,367.47,0,0,1,45.33-21.16c8.31-3.2,17-6.13,26-6.74,9.24-.62,17.92,2.35,26.1,6.39,15.49,7.66,29.9,17.27,45.22,25.24,16.15,8.4,34.68,16.29,53.21,15.69,5.3-.16,5.27-7.55.13-8.12-18.17-2-34.31-7.78-50.5-16.15-15.53-8-30.42-17.53-46.65-24.12-16.51-6.71-32.8-5.81-49.45,0a333.35,333.35,0,0,0-45.84,20.28c-16.37,8.62-34.28,18-47.2,31.41-1.08,1.13-.1,3.37,1.56,2.54Z"/><path class="cls-9" d="M19.43,154.27c8-2.72,17.31.92,24.92,3.28,7.3,2.27,14.51,4.81,21.72,7.35C81,170.16,96,175.48,111.62,178.28c31.3,5.6,63,.22,93-9.38,8.42-2.7,16.69-5.86,24.89-9.17q6.58-2.67,13.11-5.49c3.92-1.7,8.32-3,11.37-6.13,1.58-1.6.94-5.2-1.77-5.06-7.23.36-14.48,5.14-21.09,7.92q-11.76,5-23.79,9.25a233.66,233.66,0,0,1-47.64,12A151.59,151.59,0,0,1,110.11,171c-15.54-3.12-30.53-8.39-45.52-13.44-8.38-2.83-16.79-5.64-25.36-7.82-7.52-1.92-14.53-2.88-21.66.61-2.56,1.26-.7,4.76,1.86,3.89Z"/></g></g></g><g id="PixelsASSETS"><g id="Espalda"><rect class="cls-10" width="275" height="259.5"/></g></g></g></g></svg>