<svg xmlns="http://www.w3.org/2000/svg" viewBox="0 0 160 195"><defs><style>.cls-1{isolation:isolate;}.cls-2{fill:#75490b;}.cls-3{fill:none;mix-blend-mode:multiply;opacity:0.4;}</style></defs><g class="cls-1"><g id="Layer_2" data-name="Layer 2"><g id="Variación_B" data-name="Variación B"><g id="AssetsE1"><g id="HamE1"><path class="cls-2" d="M119.72,50.53a5.75,5.75,0,0,0-3.19,2,38.23,38.23,0,0,1-5.72,5.07c-.93.67-1.57,1.17-2.14,1.56a2,2,0,0,0,.15-.84c-.07-2-1.19-1.73-.44-4.31.69-2.37,2.17-2.88,1-5.27a.27.27,0,0,0-.5,0c-.35.87.15,1.42,0,2.32-.16,1.28-1.87,2.08-2.34,3.29a2.75,2.75,0,0,0,0,2.09c.13.34.53.73.61,1.09a6.06,6.06,0,0,1-.28,2.62c-.38.14-.79.27-1.31.41-.92.24-1.86.29-2.79.49a.19.19,0,0,0,0-.08c-.45.16-.92.29-1.38.41a6.44,6.44,0,0,1-2.21,1.16A34.15,34.15,0,0,0,95.46,65c-8.38,6.2-5.36,15.29,3.36,19.32a.46.46,0,0,0,.19,0A13.56,13.56,0,0,1,104,87.81c2.27,2.81,1.5,5.65.52,8.74-.51,1.63-1.81,4-1.19,5.77,1.11,3.12,5.16,1.72,6.73-.1a.42.42,0,0,0-.39-.65,5.15,5.15,0,0,1-3,1.38,1.79,1.79,0,0,1-1.83-1,2.51,2.51,0,0,1,0-1.81,3.32,3.32,0,0,1,.27-.9,26.92,26.92,0,0,1,1.3-3.43,10.69,10.69,0,0,0,.34-5.74c-1.1-3.94-5-5.8-8.47-7.26-.79-.63-1.54-1.3-2.25-2,2.72-.81,4.68-4.75,4-7.47a1.75,1.75,0,0,0,.28-.27.36.36,0,0,0-.08-.49c-1.74-1-4.61,1-5.5,2.49a6.65,6.65,0,0,0-.56,3.61c-2.75-3.66-3.39-7.89,1.61-12A24.89,24.89,0,0,1,103,62.45c1.83-.52,3.85-.24,5.61-1A16.55,16.55,0,0,0,112,59.22c.28,2.47,3.25,5.13,5.41,3.7a.37.37,0,0,0,.33.07l.09,0a.69.69,0,0,0,.51-.77c-.24-2.17-2.31-4.49-4.53-4.52l.82-.71c2-1.81,3-4.33,5.32-5.94C120.16,50.87,120,50.46,119.72,50.53ZM96,75.66a4.65,4.65,0,0,1,2.44-1.75,3.43,3.43,0,0,1,.39-.12c-.26.84-.32,1.77-.59,2.62a5.14,5.14,0,0,1-2.54,3.17c0-.23-.11-.47-.17-.78A4.31,4.31,0,0,1,96,75.66Zm20.08-14.89c.18.24.48,1.08.85,1.66a5,5,0,0,1-2.85-1.54,6.1,6.1,0,0,1-.91-2.15A6.08,6.08,0,0,1,116.11,60.77Z"/><path class="cls-2" d="M98.52,88.18a21.67,21.67,0,0,0-3.42-3.87,8.27,8.27,0,0,0-1.71-1,.54.54,0,0,0-.21-.51,21.85,21.85,0,0,1-5.78-6.93c-2.63-5.28-.26-8.13,4.1-11.28,2-1.48,4.18-2.41,4.56-5.27a18.06,18.06,0,0,0-.14-1.84,8.76,8.76,0,0,1-.76-3.21,4.19,4.19,0,0,0,3.13.25c1.72-.59,3.78-2.28,4.06-4.18,0,0,0,0,0-.05a.47.47,0,0,0-.06-.47c-1.21-1.6-3.59-.77-5.11-.15a6.57,6.57,0,0,0-1.38.81c.08-.22.17-.45.27-.68a.41.41,0,0,0,.08-.24c-.26-2.2-.68-3.48.22-5.63a.28.28,0,0,0-.43-.33A4.45,4.45,0,0,0,93.85,46a.7.7,0,0,0,.13.67c1.47,1.6-.22,6.26-.14,8.54.07,1.91.82,4.89-.41,6.72-.81,1.2-3.56,1.91-4.75,2.72a8.8,8.8,0,0,0-2.77,2.73,8.1,8.1,0,0,0-1.2,4.3,17.53,17.53,0,0,1-2.16-4.94,8.94,8.94,0,0,1,2.51-7c.62-.55,1.51-.8,2.16-1.32,1.6-1.29,2.78-2.94,2.3-5.19a3.55,3.55,0,0,0-.82-1.76c-.48-.62-.78-.42-1.37-1.1,0,0,0,0,0,0a5.77,5.77,0,0,1-2.59-2,3.45,3.45,0,0,1,.45-4.25,1.92,1.92,0,0,1,0-.24c0-.38.87-.67.79-1.15-.31-1.92.43-.89-.84-2.51a.28.28,0,0,0-.49.21c.2,1.52-.61,2.55-1.3,3.63a4,4,0,0,0-2-1.45,3,3,0,0,0-3.12.47s0,0,0,0a.35.35,0,0,0-.36.12c-.9,1.07.54,3.12,1.49,3.73a3.6,3.6,0,0,0,3.15.34,5.55,5.55,0,0,0,.15.58,6.09,6.09,0,0,0,1.84,2.45c1.29,1.14,1.78.94,1.91,1.62a2.12,2.12,0,0,1,1,.84,2.84,2.84,0,0,1,.24,2.06A4.5,4.5,0,0,1,86,57.21c-.26.61-.81.69-2.22,1.6a7.57,7.57,0,0,0-1.18.93,4.1,4.1,0,0,0-.53-.83c-.26-.31-.73-.49-1-.78-2.07-.62-3-2.3-2.92-5a3.59,3.59,0,0,0,.08-.81C78.14,51,78.13,49.92,77,49c-.31-.27-.71-.41-1-.65a7.9,7.9,0,0,0-.87-.22,3.82,3.82,0,0,1-2.23-1.23,2.53,2.53,0,0,1-.45-2.55,5.08,5.08,0,0,1,0-.67.34.34,0,0,0-.66-.16,4.37,4.37,0,0,0-.08,4.18c2,3,4.57-.3,4.84,6.21.06,1.52-.33,2.45.84,3.75s3.12,1.78,4.21,3.3c-1.88,2.87-.85,6.59,1,9.83-1.61-1.4-3.35-2.69-4.8-4.07C75,64,75.2,62,74.22,58.5c-.46-1.65-.55-2.55-1.93-3.71s-2.79-1.35-4.2-2c-2.78-1.3-3-2.6-4.73-4A3.43,3.43,0,0,0,65,46.2c.21-1.41-.28-3.69-1.66-4.37a.37.37,0,0,0-.47.17,4,4,0,0,0-2,3.4,4.86,4.86,0,0,0,.36,2.15A7,7,0,0,0,54.17,49a.27.27,0,0,0,.27.45c1.89-.73,4-1.54,6.06-.8s2.63,2.52,4.1,3.74a10.33,10.33,0,0,0,2.49,1.35A10.31,10.31,0,0,1,73.23,61a10.3,10.3,0,0,0,3.69,6.59c2.67,2.58,5.93,4.81,8.47,7.52a19.59,19.59,0,0,0,5.21,7A12.11,12.11,0,0,1,89,81.27c-4.3-2.8-4.45-8.17-9.85-9.67-1.34-1.29-2.63-2.74-4-4.12a.28.28,0,0,0,0-.38c-2.17-2.42-3.56-6-6-8.14-2.21-2-5.68-1.06-8.39-1.28a8.23,8.23,0,0,0-6.16,1.46,21.92,21.92,0,0,0-3.93,3.65,5.57,5.57,0,0,0-.47-1.19A6.56,6.56,0,0,0,47.48,59a.63.63,0,0,0-.61,0l-.22.14a.28.28,0,0,0-.11.24c-1.6,1.84.26,5.69,2.61,6A5.51,5.51,0,0,1,47.7,67.9a2.07,2.07,0,0,1-2.56.3,3.48,3.48,0,0,1-1.75-2.48c-.42-.43-.5-1.24-.23-2.47,0-.61-1-.72-1-.09,0,5.35,3.75,9.89,7.55,4,2-3.06,4.12-7.74,8.32-8.47a5.56,5.56,0,0,1,2.06.09,8.51,8.51,0,0,1,5.8.14c.33-.24.88-.19,2.54.91.82.55,1.68,2.51,2.23,3.3.25.37.5.73.75,1.07A11.68,11.68,0,0,0,63,61.62c-8.32.85-12.63,15-21.69,10.48-.33-.17-.65.3-.42.57C44,76.29,50.7,72.56,53.35,70c4.3-4.21,7-8.69,14.11-6.19,4,1.43,6.32,4.68,9.27,7.37a26.34,26.34,0,0,0-11.4,1.2A12.7,12.7,0,0,0,59.81,76c-2.31,2.76-2.3,6.91-6.51,8.29-.42.14-.16.72.21.7,2.83-.13,3.77-2.09,5.05-4.33q.44-.77.87-1.47c.32,2.26,2.1,4.72,4,5.34a3.53,3.53,0,0,0,.11.65.39.39,0,0,0,.69.16c1-1.44.29-4-.4-5.48-.41-.88-1.46-2.82-2.61-3.11a10.86,10.86,0,0,1,6-3.77,25.31,25.31,0,0,1,9.61-.59c4.61.72,6,3.26,8.41,6.74a10.54,10.54,0,0,0,3.6,3.52c2.45,1.41,4.78,2.06,6.79,4.29.12.13.23.26.34.4a.37.37,0,0,0,.1.31c.27.28.54.53.8.78a10.74,10.74,0,0,0,2.08,2.07,10.15,10.15,0,0,1,0,5.19A7.93,7.93,0,0,1,98.32,97c-2.48,2.12-5.92,3.61-7.9,6.13-1.22,1.54-.35,1.19-1.25,2.93-2.41,4.66-2.82,5.08-6.5,6.34-5.23,1.77-11.61,3.87-16.57.63-2.42-1.57-3.88-5-6.73-5.72-.32-.09-.6.29-.3.52,1.82,1.39,2.67,3.74,4.48,5.18a17,17,0,0,0,5.57,3c4.37,1.2,10.22-1.08,14.29-2.49a12.37,12.37,0,0,0,5.09-2.8c2-2.11,1.77-5.5,3.73-7.58,1.49-1.58,5.6-2.77,6.72-5a6.17,6.17,0,0,0,1.26-2.61,5.79,5.79,0,0,0-.61-4.55c.91,1.15,1.35,2.54.9,5-.74,4.13-1.88,4.32-5,7.4a7.34,7.34,0,0,0-2,3.4c-1.85,4.89-5.42,6-9.79,8.17-.35.18-.21.79.2.69,3.54-.86,7.54-2.65,9.61-5.8,1.45-2.21,2.09-4.51,4.24-6.29a13.58,13.58,0,0,0,2.51-2.11C104.13,96.56,102.82,91.31,98.52,88.18ZM95.8,52.27a5.41,5.41,0,0,1,1.46-1.4,3.83,3.83,0,0,1,2.49-.78,3.88,3.88,0,0,1,1,.23,5.52,5.52,0,0,1-2.36,2.49,3.13,3.13,0,0,1-2.25.37,3.17,3.17,0,0,1-.73-.39A3.53,3.53,0,0,0,95.8,52.27Zm-15.54-6a3.67,3.67,0,0,1-1.73-2.67A11.64,11.64,0,0,1,81,44c.64.26,1.07.91,1.68,1.14a3.7,3.7,0,0,0-.31,1.26A3.58,3.58,0,0,1,80.26,46.28ZM62.52,47.86a9.36,9.36,0,0,1-.35-2.37,6.45,6.45,0,0,1,.8-2.38,7,7,0,0,1,.72,2.51A2.78,2.78,0,0,1,63,47.36C62.83,47.56,62.66,47.69,62.52,47.86ZM47.6,62.05a7.72,7.72,0,0,1-.28-1.72,6.46,6.46,0,0,1,1.29,1.16,3.81,3.81,0,0,1,.88,1.8c.06.33.06.63.09.94A3.19,3.19,0,0,1,47.6,62.05Zm15,18.15a7.85,7.85,0,0,1,.76,2.51,5.53,5.53,0,0,1,0,.71,12.33,12.33,0,0,1-2-2.15,5.77,5.77,0,0,1-.66-3.44A20,20,0,0,1,62.58,80.2Z"/><path class="cls-2" d="M101.81,102.22c0-.47-.76-.49-.9-.08-.76,2.23-.54,4.82-1.78,6.88-1.08,1.81-3.33,2.39-4.31,4.13-.12.21,0,.56.25.57,2,0,4.09-2,5.13-3.59C101.61,108,101.92,104.71,101.81,102.22Z"/><path class="cls-2" d="M100.47,86.26a.6.6,0,0,0-.74,0l-.07.07,0,0a.63.63,0,0,0,.15.84,8.38,8.38,0,0,1,2.2,2.36,10.58,10.58,0,0,1,.8,2.62.29.29,0,0,0,.56.07C104.33,89.69,102.32,87.79,100.47,86.26Z"/><path class="cls-2" d="M74.12,76.18a.37.37,0,0,0-.7.21c.32,2.34,1.06,4.57.67,6.94a8.79,8.79,0,0,1-4.45,6.08c-4,2.31-8.74,1-13.06.46a.35.35,0,0,0-.24.63c4.13,2.67,11.35,2.73,15.2-.53C75.79,86.38,76.31,81.12,74.12,76.18Z"/><path class="cls-2" d="M47.06,82.89A18.36,18.36,0,0,1,33.65,70.75c-1.52-4.44-1.52-9.16,2.92-12.06,2.29-1.5,4.9-2.41,7.28-3.76a.36.36,0,0,0-.21-.68c-3.82.49-8.72,2.6-11.13,5.77-2,2.6-1.55,5.95-.86,8.94,1.84,8,7.16,13.56,15.16,15.13C47.48,84.23,47.74,83,47.06,82.89Z"/><path class="cls-2" d="M77.19,39.07c-5.4-5.57-15.82-5-22.22-1.44-4.2,2.32-10.74,9.23-6.74,14.18.19.24.5,0,.49-.22-.17-6.84,3.75-11.94,10.34-14,6.43-2,11.69-.21,17.7,2.06C77.09,39.78,77.46,39.35,77.19,39.07Z"/><path class="cls-2" d="M102.46,33.82c-6.18-1.87-17.11-1.2-21.56,4-.44.51.34,1.12.83.75,6.73-5.19,30-7.36,27.57,6.9-.07.38.45.53.66.26C113.89,40.65,107,35.17,102.46,33.82Z"/><path class="cls-2" d="M115.27,46.65c-.56.29-.29,1.3.37,1.1,6.44-1.9,12,5,11.43,10.9-.7,7.37-7.22,9.32-13.61,9.66-.61,0-.44.87,0,1,8,1.77,15.55-3.45,15.48-12C128.92,51.23,121.55,43.37,115.27,46.65Z"/><path class="cls-2" d="M110.89,71.49a.52.52,0,0,0-1-.09c-.93,2.28-1.19,4.48-3,6.32-1.48,1.47-3.36,2.2-5.18,3.13a.34.34,0,0,0,.1.64C106.38,81.89,111.93,76.18,110.89,71.49Z"/><path class="cls-2" d="M90.31,84.26a11.19,11.19,0,0,1-6.14,1.32c-2.53-.13-4.15-1.09-6.35-2.16a.54.54,0,0,0-.67.74c2.27,4,11,4.4,13.48.51C90.76,84.47,90.57,84.11,90.31,84.26Z"/></g></g></g><g id="PixelsASSETS"><g id="Pierna"><rect class="cls-3" width="160" height="195"/></g></g></g></g></svg>