<svg xmlns="http://www.w3.org/2000/svg" viewBox="0 0 160 195"><defs><style>.cls-1{isolation:isolate;}.cls-2{fill:#b8bfb8;stroke:#42210b;stroke-linecap:round;stroke-linejoin:round;stroke-width:6px;}.cls-3{fill:none;mix-blend-mode:multiply;opacity:0.4;}</style></defs><g class="cls-1"><g id="Layer_2" data-name="Layer 2"><g id="Variación_A" data-name="Variación A"><g id="AssetsE1"><g id="Ham1"><path class="cls-2" d="M118.11,130.83S124,121.17,113,119s-23.55-14-26.5-5.89-14,19.13-8.09,26.49S90.17,156.5,96.06,156.5s11.58-2.21,15-9.94S118.11,130.83,118.11,130.83Z"/><path class="cls-2" d="M90,68.42s5.43-12.26,0-16.21-12.12-8.46-15.76,0S61,69.74,70.45,72.57,90,68.42,90,68.42Z"/><path class="cls-2" d="M12.85,70.4S5.61,81.14,6.27,87.75s7.78,22,12.14,25.17a59.26,59.26,0,0,1,8.82,8.69s2.15-4.81,2.15-14,2.95-14.65-2.15-18.22a37.8,37.8,0,0,1-8.82-9.45Z"/><path class="cls-2" d="M95.41,70.88s-1.92-6.46-3.36-4.46S82.47,84.7,83.28,86.33s5.07,5.19,7.42,5S101.2,97.73,102,96.1s4.89-5.7,2.44-9.77S95.41,70.88,95.41,70.88Z"/><path class="cls-2" d="M60.17,79.92s-3.43-4.86-5.82-5.73-6.54-4.13-7.26.29S41.33,84,43.85,88.22a16.6,16.6,0,0,1,2.3,8.51s11.41-3.45,15.41-7.44,4.59-7.43,4.59-7.43Z"/><path class="cls-2" d="M41.51,107.19l-1.9,26.68s8.55,9.18,10.11,10,3,.17,6.47-1.23,9.42-7,9.42-7-8-4.52-5.91-10,3.9-9.36,3.9-9.36-4.5-2.67-6-4.64a69.61,69.61,0,0,1-4-7.22Z"/><path class="cls-2" d="M142.69,93.06l-12.77,7.43s-.79,5.51-.17,6.74.17,14.15.17,14.15,3.91,5.61,6.18,5.59,8.44-2.48,9.06-8.64,2.24-17,2.35-18.38S142.69,93.06,142.69,93.06Z"/></g></g></g><g id="PixelsASSETS"><g id="Pierna"><rect class="cls-3" width="160" height="195"/></g></g></g></g></svg>