<svg xmlns="http://www.w3.org/2000/svg" viewBox="0 0 130 250"><defs><style>.cls-1{isolation:isolate;}.cls-2{fill:#c9210b;}.cls-3{fill:#9a82ff;}.cls-4{fill:#00a23b;}.cls-5{fill:#c96b5e;}.cls-6{fill:#911808;}.cls-7{fill:#006625;}.cls-8{fill:#42210b;}.cls-9{fill:none;mix-blend-mode:multiply;opacity:0.4;}</style></defs><g class="cls-1"><g id="Layer_2" data-name="Layer 2"><g id="Variación_B" data-name="Variación B"><g id="AssetsE3"><g id="TailE3"><path class="cls-2" d="M118.64,134.1c.29-1.11,1.37-2,1.82-3a10.11,10.11,0,0,0,.64-3.53c.1-2.11.13-4.62-1.22-6.39a6.76,6.76,0,0,0-2.48-1.91,1.9,1.9,0,0,0-.86-.46,5.19,5.19,0,0,0-1.23-1,5.42,5.42,0,0,0-6.32.81,1.17,1.17,0,0,0-1.49.14c-1.79,1.94-3.13,5.92-3,9.42a2.09,2.09,0,0,0-1.52.17,1.49,1.49,0,0,0-1.39-.72,1.62,1.62,0,0,0-2.33-.43,3.16,3.16,0,0,0-2,.16,2,2,0,0,0-1.15.82,3.54,3.54,0,0,0-.6.82h0c-2.45.9-2.87,5.83-.61,7.12l.08,0a6.33,6.33,0,0,0,2.12,2.4,4.62,4.62,0,0,0,.75.78c.11.08.23.15.35.22a9.74,9.74,0,0,0-2.4,1.36c-1.65,1.23-3.31,4.38-2.16,6.41a1.32,1.32,0,0,0,.16.25,2.56,2.56,0,0,0,.24.56,1.56,1.56,0,0,0-.11.26c-.35,1.08.39,2.65,1.56,2.67a7.1,7.1,0,0,0,1.28,1.23,4.5,4.5,0,0,0,2.93,2A3.14,3.14,0,0,0,102,154a4.61,4.61,0,0,0,3.56-1.92l.19-.1.11-.08a1.66,1.66,0,0,0,.71-1.28,4.78,4.78,0,0,0,.78-3,5.52,5.52,0,0,0-.65-2.43.13.13,0,0,1,0-.06c.39.84.8,1.67,1.25,2.49a1.35,1.35,0,0,0,.48.47,1.7,1.7,0,0,0,2.51.67,1.82,1.82,0,0,0,.46.06,1.82,1.82,0,0,0,2.86-.35,1.73,1.73,0,0,0,2-.89,2.06,2.06,0,0,0,1.79-.7,1.39,1.39,0,0,0,1.13-.83c2.06-1,1.81-4.33,1.28-6.2a6.24,6.24,0,0,0-3.37-4.17A2.33,2.33,0,0,0,118.64,134.1Zm-16.41,6.33a.85.85,0,0,0-.3-.47,3.13,3.13,0,0,0-1.11-.61,1.8,1.8,0,0,0,.19-.2,1.38,1.38,0,0,0,.6.1,1.66,1.66,0,0,0,2.36.65,1.53,1.53,0,0,0,1,.82,2,2,0,0,0,.11.56c.08.22.17.43.25.64A3.47,3.47,0,0,0,102.23,140.43Z"/><path class="cls-2" d="M120.64,184.63a5.59,5.59,0,0,0-.59-4.16,6.23,6.23,0,0,0-.24-.73c-1-2.6-5.88-7.91-8.73-4.87a2,2,0,0,0-1.59.65,1.33,1.33,0,0,0-1.58.1,6.56,6.56,0,0,0-2.38,6.57A7.83,7.83,0,0,0,106.8,188a1.41,1.41,0,0,0,.42,1.15l.31.33h0l.88.93a2.51,2.51,0,0,0,1.49,1.41,1.84,1.84,0,0,0,2.1-.46,7,7,0,0,0,3.94.28l.38,0c2.19-.24,4.32-2,3.63-4.23A4.79,4.79,0,0,0,120.64,184.63Z"/><path class="cls-2" d="M70.8,131.09a2,2,0,0,0-.5-.63,1.84,1.84,0,0,0,1.42,0,2,2,0,0,0,2.54-1.53.77.77,0,0,1,0-.15,2,2,0,0,0,.44-.43,2.2,2.2,0,0,0,1-.62c1.74-1.76,1.32-6.42.65-8.59a8.48,8.48,0,0,0-2-3.07,6.64,6.64,0,0,0-1.26-1.81c-1.38-1.34-3.32-2.18-5.12-1.12a4.16,4.16,0,0,0-1.16,1A5.72,5.72,0,0,0,63.46,118a5,5,0,0,0-1.13,3.33c0,2.9,1.74,5.19,3.56,7.27a1.92,1.92,0,0,0,1.34.66l0,.05a1.81,1.81,0,0,0,.48.67,4.9,4.9,0,0,0-1.26.51,1.86,1.86,0,0,0-1.71,1.43v0c-.14.17-.27.35-.4.53-3,.41-2.67,4.24-1.94,6.55.05.16.1.32.16.46a1.69,1.69,0,0,0,.6.75,8,8,0,0,0,2.66,3.2,3.14,3.14,0,0,0,2,.63,1.46,1.46,0,0,0,1.11.69,2,2,0,0,0,2.82.56,2,2,0,0,0,2.66-.33,4.07,4.07,0,0,0,.7-1.53,1.41,1.41,0,0,0,.47-.44,5.48,5.48,0,0,0,.8-2.27,2.31,2.31,0,0,0,.11-.47C77,137.08,75.14,130.06,70.8,131.09Z"/><path class="cls-2" d="M89.8,127.85a5.52,5.52,0,0,0-.07-.55,3.58,3.58,0,0,0-1.09-2.09,2.32,2.32,0,0,0-.26-.15,4.49,4.49,0,0,0-2.13-2.38,2.71,2.71,0,0,0-2.22.08l-.22-.14a1.34,1.34,0,0,0-1.43.06h0a3.77,3.77,0,0,0-.72.1c-2.52.65-3.51,3.41-3.37,5.92a2.57,2.57,0,0,0-.17,1,3.41,3.41,0,0,0,.47,1.49,9.24,9.24,0,0,0,1.21,2.71,1.64,1.64,0,0,0,1,.73,3.14,3.14,0,0,0,2.73,1.25,1.28,1.28,0,0,0,.49.27,2.09,2.09,0,0,0,.75.1,2.37,2.37,0,0,0,1.6-.65,1.64,1.64,0,0,0,.21-.24A1.62,1.62,0,0,0,87,135a7.09,7.09,0,0,0,2.08-3.2,8.54,8.54,0,0,0,.7-2.46.42.42,0,0,1,0-.1A2,2,0,0,0,89.8,127.85Z"/><path class="cls-2" d="M90.73,112.21q-.14-1.06-.33-2.13a1.78,1.78,0,0,0-2.64-1.38,1.85,1.85,0,0,0-3.06,0,2.81,2.81,0,0,0-.5,0,1.74,1.74,0,0,0-2.55-.31,1.14,1.14,0,0,0-.32,0,2,2,0,0,0,.37-.9,1.65,1.65,0,0,0,1-1c1.06-3,1.38-6.39-1-8.82a5.53,5.53,0,0,0-3-1.54,4.21,4.21,0,0,0-4.16-.91c-2-1-3.77,1.08-4.74,3.21a5.06,5.06,0,0,0-1.6,1.61,5.94,5.94,0,0,0-1,3.79,3.16,3.16,0,0,0,0,1.06v0a2,2,0,0,0,.06,1c.06.19.14.38.2.58a15.63,15.63,0,0,0,2,4.33,1.51,1.51,0,0,0,1.86.73l.5.55a2.19,2.19,0,0,0,.9.6,5.5,5.5,0,0,0,.57.36,1.7,1.7,0,0,0,1.57,0,1.69,1.69,0,0,0,.55,0,2,2,0,0,0,1.48-.06V113c0,.17,0,.33.07.5a1.24,1.24,0,0,0,0,1.17c.21.43.42.86.64,1.29a23.44,23.44,0,0,0,1.57,3.18,1.29,1.29,0,0,0,.87.64c.07.07.12.15.2.22a.92.92,0,0,0,.21.13l.2.13h0a1.39,1.39,0,0,0,1.44-.15,2,2,0,0,0,1.5.33,1.49,1.49,0,0,0,2.27.68,1.55,1.55,0,0,0,1.75-1.43.19.19,0,0,1,0-.08,1.59,1.59,0,0,0,2-1.44c0-.33.07-.65.09-1a1.49,1.49,0,0,0,.78-.55C91.64,115.3,91.13,113.77,90.73,112.21Z"/><path class="cls-3" d="M35.43,130.17a2.75,2.75,0,0,0-.75-1.32,6.13,6.13,0,0,0-1.09-1.07.5.5,0,0,0-.24-.1,8,8,0,0,0-1.11-1.28,6,6,0,0,0-1.31-1.05,1.84,1.84,0,0,0-1.1-.07c-.16,0-.21.19-.17.3.09.31,0,.6.29.91a5.4,5.4,0,0,0,.9.81,9,9,0,0,0,1,1.4c.37.45.74,1,1.17,1.45l-.07,0a1.1,1.1,0,0,0-.88.18,1,1,0,0,0-.56,0,1,1,0,0,0-1.25-.12l-.08,0a1.4,1.4,0,0,0,.13-2.54,10.24,10.24,0,0,0-6.19-.53l-.14,0-.33,0a1,1,0,0,0-.78,1.53,1.33,1.33,0,0,0,1.35,1.2c1.37.06,2.75.08,4.12.07a3.89,3.89,0,0,1,.44.16l-.1.06a1.07,1.07,0,0,0-1.21.8l-.07.05c-.61.73-.34,2.42.76,2.58a1.32,1.32,0,0,0,1.58.41,1.2,1.2,0,0,0,1.48-.29,1.44,1.44,0,0,0,.78-.27,1.26,1.26,0,0,0,1.46-.58v0a1.66,1.66,0,0,0,.67-.35,1.44,1.44,0,0,0,.49-.26l.1-.07a1.11,1.11,0,0,0,.22-1.31A.57.57,0,0,0,35.43,130.17Z"/><path class="cls-3" d="M36.5,159.58a28.13,28.13,0,0,0-3.74-.31,7.34,7.34,0,0,0-1.89-.09,1.72,1.72,0,0,0,.86-.53,1.4,1.4,0,0,0,.4-1.28,1.79,1.79,0,0,0-1.44-1.58c-1.52-.49-15.44-2.73-14.8.47,0,.11,0,.23.07.35a1,1,0,0,0,.74.74,18.85,18.85,0,0,0,5.2.4h0a.59.59,0,0,0,.3.13c1.65.59,4,1.35,5.76,1a.63.63,0,0,0,.29-.16c.45.13.9.25,1.35.41a2.27,2.27,0,0,0,.56.13c-1.14.14-2.27.39-3.22.52a12.83,12.83,0,0,0-5.55,1.89c-.81.63,0,1.68.85,1.57,2.08-.29,4.13-.79,6.23-1,1.59-.13,3.5.06,4.92-.7h.11a9.34,9.34,0,0,0,3.11-.4C37.43,160.87,37.47,159.62,36.5,159.58Z"/><path class="cls-3" d="M37,156.86a28.87,28.87,0,0,0-2.35-1.77,4.69,4.69,0,0,0-1.44-.94,4.06,4.06,0,0,0-.36-.26c-.51-.56-1.11-1-1.79-.61a.17.17,0,0,0,0,.13,1.8,1.8,0,0,0,.19.79.49.49,0,0,0,.2.34,1.71,1.71,0,0,1,.25.22l0,0c.48.52,1,1,1.45,1.55a10.34,10.34,0,0,0,3,2.48.29.29,0,0,0,.29,0c.65.51,2.34,1.77,2.53.85C39.19,158.53,37.73,157.51,37,156.86Z"/><path class="cls-3" d="M53.11,165.28c-2.37-1.45-5.38-.6-8-.3-2.44.28-5.56.1-7.6,1.59-.72-.18-.73-.32-1.58,0a.26.26,0,0,0-.1.4c1.3,1.58,3.4,1.39,5.28,1.29a38.64,38.64,0,0,0,7.78-1.2.47.47,0,0,0,.25-.18,4.63,4.63,0,0,1,.62.06,3.76,3.76,0,0,0,2-.06.21.21,0,0,0,.13-.09h.69A.82.82,0,0,0,53.11,165.28Z"/><path class="cls-3" d="M53,162.15c-.81-1.08-1.75-2.08-2.64-3.08a.51.51,0,0,0-.25-.43l-.34-.21a.62.62,0,0,0-.82.92c1.72,2.41,3,5.26,5.55,7,.19.13.52,0,.46-.27s-.1-.33-.15-.5c.06.06.11.13.18.19a.34.34,0,0,0,.55-.24C55.62,163.93,54.28,162.81,53,162.15Z"/><path class="cls-3" d="M56.5,168.61c.74-.65,0-1.59-.81-1.51a9.46,9.46,0,0,0-3.9,1.28.79.79,0,0,0-.38.47l-.33.16-.48.12a.71.71,0,0,0-.86-.13c-.41.27-.79.55-1.17.84-.1,0-.21.09-.31.15a.8.8,0,0,0-.33.33l-.5.11a.54.54,0,0,0-.44.71.42.42,0,0,0-.11.18l-.9.44a.61.61,0,0,0,.54,1.09l2.72-1.19c1-.35,2.08-.77,3.1-1.2A9.79,9.79,0,0,0,56.5,168.61Z"/><path class="cls-3" d="M126.05,179.91c0-.79-.1-1.57-.2-2.34-.07-.56-.15-1.12-.26-1.69a1.21,1.21,0,0,0-2.21-.31l-.12-.06a1.18,1.18,0,0,0-.46,0A1,1,0,0,0,122,175a9.09,9.09,0,0,0-.75-1.26,1.16,1.16,0,0,0-1.09-.47,4.69,4.69,0,0,1-.31-1,.66.66,0,0,0-.48-.52c0-.11,0-.22,0-.33,0-.67-1.07-1-1.25-.25a5.56,5.56,0,0,0-.14,1.55.91.91,0,0,0-.48.84,6.31,6.31,0,0,0,.9,3.13,1,1,0,0,0,1,.51.78.78,0,0,0,.48.27h0a1.17,1.17,0,0,0,1,.48c0,.19.11.38.17.57a1.06,1.06,0,0,0,.18.35,1.61,1.61,0,0,0,0,.38c0,.1,0,.18.06.27a1.38,1.38,0,0,0-.41.93,1.76,1.76,0,0,0,.75,1.58,1.79,1.79,0,0,0-.12.24,3.2,3.2,0,0,0-.15,1.23,1.19,1.19,0,0,0,.39.84.86.86,0,0,0,.13.14h0a1.34,1.34,0,0,0,.31.17l0,0a1.63,1.63,0,0,0,.3.07h.32l.12,0a1.26,1.26,0,0,0,1-.77A1.1,1.1,0,0,0,125,183c0-.12,0-.24.05-.36a1.42,1.42,0,0,0,.87-1.13c0-.39,0-.77.06-1.15A1.16,1.16,0,0,0,126.05,179.91Z"/><path class="cls-4" d="M74.66,166.9A12.68,12.68,0,0,0,72.83,163c-1.36-2.55-3.21-5.37-5.48-6.7a.53.53,0,0,0-.23-.06c-.49-.83-1-1.65-1.43-2.45a.77.77,0,0,0-1.37.71c.6,1.22,1.2,2.49,1.8,3.76.22.48.44,1,.68,1.43A53.28,53.28,0,0,0,71,167.07c.33.58.68,1.15,1,1.71.69,2.36,1.32,4.74,2.75,6.62a.5.5,0,0,0,.84-.15C76.41,172.56,75.72,169.57,74.66,166.9Z"/><path class="cls-4" d="M88.83,164.41a5.11,5.11,0,0,0-.46-2.17.28.28,0,0,0-.43-.1,4.57,4.57,0,0,0-.66.66.48.48,0,0,0-.27.32c-1.57,2.14-2,5.57-2.09,8.33a14.81,14.81,0,0,0-.19,4.5c0,1.54-.22,3.8.69,5.18a23.51,23.51,0,0,0,1.32,5.64,1,1,0,0,0,1.87-.14,1.13,1.13,0,0,0,.58-.49,11.71,11.71,0,0,0,1.42-5s0,0,0-.05C93.25,177.33,91.38,168.8,88.83,164.41Z"/><path class="cls-4" d="M97.87,216.22a6.84,6.84,0,0,0-2-2.37,42.38,42.38,0,0,0-4.07-4.61A5.11,5.11,0,0,0,88.38,206c-3.41-1.27-7.37-1.34-10.89-2.47a1.35,1.35,0,0,0-1.53.42,9.75,9.75,0,0,0-1.14-.67,1,1,0,0,0-1.26,1.59c4,4.67,7.44,15.22,15,11.57a16.37,16.37,0,0,0,3.08,1.14,1.47,1.47,0,0,0,.72,0c.78.4,1.56.81,2.36,1.18a1.55,1.55,0,0,0,1.41,0C97.3,219.17,98.59,217.49,97.87,216.22Z"/><path class="cls-4" d="M70.57,185.92c-4.22-2.46-7.49-4.35-12-3.56a1.42,1.42,0,0,0-1.45-.65,10.43,10.43,0,0,0-5.68,2.35,1.67,1.67,0,0,0-.46.6,1.05,1.05,0,0,0-.25.3,8,8,0,0,1-1.13-.4.92.92,0,0,0-1,1.56c1.52,1.22,3.38,1.17,5.12,1.63l1.83.8a1.19,1.19,0,0,0,1.06,0c1,.33,2,.66,3.06,1a1.05,1.05,0,0,0,.89-.14,28.23,28.23,0,0,0,4.31,0,1.35,1.35,0,0,0,.82-.35,20.77,20.77,0,0,0,4.21-.22A1.52,1.52,0,0,0,70.57,185.92Z"/><path class="cls-4" d="M41.92,110.33a13.88,13.88,0,0,0-6.29-4.66c-2.57-.9-7.05-1.93-9.91-.73a3,3,0,0,0-1.21.2,1.89,1.89,0,0,1-1.71-.46,1,1,0,0,0-1.14-.35l0,0a1,1,0,0,0-1.32.31l-.12.19a.94.94,0,0,0,.12,1.14l.12.13a.72.72,0,0,0,.34.21A6.78,6.78,0,0,0,22.4,109l.08.13a29.37,29.37,0,0,0,6.43,6.31l.05.06h0l.8.71c.32.26.66.5,1,.74a17.31,17.31,0,0,0,3.11,2,1.3,1.3,0,0,0,1.9-1.1,1.43,1.43,0,0,0,.29,0l.43.63a1.62,1.62,0,0,0,2.55.13,1.8,1.8,0,0,0,1.23-.36,1.55,1.55,0,0,0,1.06,0,1.65,1.65,0,0,0,2.11.09,1.59,1.59,0,0,0,2-1.61A8.53,8.53,0,0,0,41.92,110.33Z"/><path class="cls-5" d="M81.78,96.81A1.5,1.5,0,0,0,81,95.55a7.38,7.38,0,0,0-4.86-.44c-1.31-.44-2.86.43-4.13,1.61-4.21.75-6.23,6-5.6,9.82.45,2.73,2.64,6.89,5.84,6.65a2.2,2.2,0,0,0,.63.12,5.18,5.18,0,0,0,.82.22c.39.07.6-.37.48-.68-1.36-3.51-3.55-5.73-2.5-9.86a6.55,6.55,0,0,1,4.52-4.74c1.79-.61,3.21.26,5,0a.9.9,0,0,0,.69-.86C81.82,97.23,81.8,97,81.78,96.81Z"/><path class="cls-5" d="M69.72,115a4.42,4.42,0,0,0-4.78,3.18c-.5,2.11.62,4.62,2,6.17a.43.43,0,0,0,.74-.34c-.15-1.54-.75-3-.84-4.55-.13-2.1,1.58-2.47,3.13-3.22A.66.66,0,0,0,69.72,115Z"/><path class="cls-5" d="M67.37,132.62c-1.07-.07-1.89,1.12-2.2,2a5.75,5.75,0,0,0,.47,4.48c.15.3.69.28.71-.12a21.78,21.78,0,0,1,0-3.52c.2-1,.88-1.52,1.3-2.37A.37.37,0,0,0,67.37,132.62Z"/><path class="cls-5" d="M86.81,108.53a.52.52,0,0,0-.6.86c1.38,1.26,2.11,4.8,1.7,6.49s-2,2.77-3.11,4.07a.7.7,0,0,0,.24,1.16c2.83,1.08,5-1.8,5.54-4.28A7.72,7.72,0,0,0,86.81,108.53Z"/><path class="cls-5" d="M85.14,122.61c-2.33-1.16-5.56,1.28-6.58,3.32-1.55,3.14-.53,7.44,1.83,9.85a.42.42,0,0,0,.74-.34c-.52-2.48-1.51-5.62-.55-8.09s3.21-2.49,4.72-4.19A.36.36,0,0,0,85.14,122.61Z"/><path class="cls-5" d="M117.27,121.32c-2-1.86-5.59-2.36-7.33.05a.37.37,0,0,0,.44.56c2-.67,4.29-1.08,5.74.95,1.26,1.78,1.18,4.17,1.49,6.24a.54.54,0,0,0,.86.31C120.41,127.36,119.13,123.09,117.27,121.32Z"/><path class="cls-5" d="M100.71,127.86c-3.11-2.06-5.87,2.2-6.18,4.85-.35,2.93,1.48,8.31,5.17,7.79A.83.83,0,0,0,100,139c-2.08-1.47-3.52-3.24-3.27-5.95s1.75-3.53,3.94-4.36A.49.49,0,0,0,100.71,127.86Z"/><path class="cls-5" d="M107.33,148.93c-1.07-.29-1.6.88-2.39,1.37-.32.19-.67.38-1,.55a1.46,1.46,0,0,0-.66.14,5.31,5.31,0,0,1-6.4-1.51c-1.52-1.91-1.48-3.5-1.19-5.78a.55.55,0,0,0-.77-.53c-3.06,1.82-1.24,6.61.49,8.75,2.1,2.59,7,3.47,9.55,1.12a1.12,1.12,0,0,0,.4-1,3.58,3.58,0,0,0,.85-.43,3.35,3.35,0,0,0,1.42-2.19A.46.46,0,0,0,107.33,148.93Z"/><path class="cls-5" d="M116.26,137.62a.48.48,0,0,0-.5.41,3.81,3.81,0,0,0,.38,1.57,4.5,4.5,0,0,1,0,2.9c-.66,1.89-2.3,2.55-4,3.32a.42.42,0,0,0,0,.76c2.26.63,4.63-1.05,5.51-3.07C118.35,142,118.75,137.68,116.26,137.62Z"/><path class="cls-5" d="M113.54,176.73c-2.54-1.11-5.73,1.05-6.58,3.47-.94,2.67-.06,7.55,3,8.49a.46.46,0,0,0,.61-.51c-.33-2.28-2.47-3.72-2.33-6.3.17-3.39,3.08-3.34,5.32-4.59A.31.31,0,0,0,113.54,176.73Z"/><path class="cls-6" d="M76.36,115.75a1.25,1.25,0,0,0-1.52-.83c-1.89.36-.5,5.67-.45,6.8.11,2.72-.71,4.79-3.45,5.56-3,.83-4.19-.83-6.75-1.37a.49.49,0,0,0-.48.69c1.91,3.76,7.32,4.07,10.51,1.9C78,125.9,77.43,119.64,76.36,115.75Z"/><path class="cls-6" d="M83.68,101.31a.27.27,0,0,0-.16-.17,4.68,4.68,0,0,0-.37-1.86.36.36,0,0,0-.67,0c-1,3.19-1.79,5.49-4.11,8-.24.26-.49.51-.75.77a7.54,7.54,0,0,0-1.29,1.3,7.66,7.66,0,0,0-1.91,3c-.09.32.22.76.57.63,0,.15,0,.31,0,.47,0,.9,1.41,1,1.38.08a4.25,4.25,0,0,1,.24-1.69,24.74,24.74,0,0,0,3-3.06,13,13,0,0,0,2.53-1.93C83.35,105.5,84.26,103.12,83.68,101.31Z"/><path class="cls-6" d="M82.93,121c-.41-1.43-2-2.1-2.83-3.28-1.07-1.51-1-3.22-1.74-4.83a.46.46,0,0,0-.79-.07c-1.07,1.66-.36,4.17.56,5.74s2.67,3.65,4.56,2.89A.44.44,0,0,0,82.93,121Z"/><path class="cls-6" d="M89.28,124.32a.59.59,0,0,0-1,.18c-.46,1.17-.21,2.49-.45,3.72a9.31,9.31,0,0,1-1.79,4.08c-1.89,2.29-4.79.92-7.08,2a.65.65,0,0,0-.34.69c1.15,3.43,7.55,1.43,9.21-.63C89.63,132.15,91.62,126.78,89.28,124.32Z"/><path class="cls-6" d="M76.25,133.67a.42.42,0,0,0-.72.11c-.76,3,.52,6.7-3,8.53a6,6,0,0,1-5.38-.26c-1.12-.56-1.81-1.18-3.11-1.11a.39.39,0,0,0-.32.44c.51,4.1,7.53,4.34,10.24,2.64C77.09,142.08,78.37,136.69,76.25,133.67Z"/><path class="cls-6" d="M113.6,148.23c-1-.62-2-.94-2.9-1.41a11,11,0,0,0-.81-3.64c-.41-1.11-1.42-4-3-3.84a.36.36,0,0,0-.22.11.41.41,0,0,0-.3.49c0,.06,0,.11,0,.16l-.14-.14a.22.22,0,0,0-.35.1,6,6,0,0,0,.36,3.39c-.14-.21-.27-.41-.41-.59a7.12,7.12,0,0,0-5.79-2.91.63.63,0,0,0-.09,1.26,7.16,7.16,0,0,1,4.56,3.65c.82,1.52.71,3.3,1.61,4.75a.54.54,0,0,0,.91.07,3.76,3.76,0,0,0,.57-2,1.9,1.9,0,0,0,.44.54l.24.18a4.25,4.25,0,0,0,.47.48,2.29,2.29,0,0,0,2.16.67,1.24,1.24,0,0,0,.5-.37,3,3,0,0,0,2-.2A.45.45,0,0,0,113.6,148.23Z"/><path class="cls-6" d="M121.51,128a.32.32,0,0,0-.51-.28c-1.7,1.33-2.76,3.12-4.75,4.14a10,10,0,0,1-8.06.35.61.61,0,0,0-.82.43.65.65,0,0,0-1.21.26,21.56,21.56,0,0,1-.44,2.4,6.58,6.58,0,0,1-1.32,1.67,10.87,10.87,0,0,1-2.94,1.59.33.33,0,0,0,0,.59,3,3,0,0,0,1.87.13l.19.08h0c.55.14.61.74,1.16.88a1.13,1.13,0,0,0,1-.25,2.17,2.17,0,0,0,.83-.65,3.91,3.91,0,0,0,1.51-2.49.69.69,0,0,0-.55-.75.9.9,0,0,0-.28-.27c.08-.42.15-.84.19-1.26a4.58,4.58,0,0,0,.1-1.36.68.68,0,0,0,.29.23c.22.09.45.16.68.24a1,1,0,0,0-.15.4l-.18.7a.78.78,0,0,0,.75,1l0,.23a.76.76,0,0,0,1.37.25,4.32,4.32,0,0,0,.44-.84,24.53,24.53,0,0,1,3.31-.56,1,1,0,0,0,.62-.07,5.1,5.1,0,0,1,.59-.2c.24.29.29.55.77.73,1,.4,1.79-.36,2.29-1.18a1,1,0,0,0,.13-.34,9.64,9.64,0,0,0,.6-1,5.86,5.86,0,0,0,.89-1.4.44.44,0,0,0,0-.25A5.2,5.2,0,0,0,121.51,128Z"/><path class="cls-6" d="M121,182c.28-2.6-.21-5.06-2.34-6a.48.48,0,0,0-.64.4c0,1.54.52,3,.55,4.53a14.69,14.69,0,0,1-.81,5.17c-1.6,4.4-5.16,4.43-9.09,4.17-.39,0-.76.51-.43.82,1.85,1.71,4.44,1.65,6.68.67,2,.44,3.79-1.39,4.77-3A10.93,10.93,0,0,0,121,182Z"/><path class="cls-7" d="M91.59,172.64h0a.87.87,0,0,0-.75-.66,53.81,53.81,0,0,0-1.79-8.4c-.25-.85-1.56-.6-1.36.28a41,41,0,0,1,1.08,11.84c-.23,4-1.92,8-1.66,11.95,0,.44.6.45.83.18A14.66,14.66,0,0,0,91,179.31C92.17,177.46,92.05,174.4,91.59,172.64Z"/><path class="cls-7" d="M99.34,218.29a25.92,25.92,0,0,0-6-7.57,1,1,0,0,0-.11-1.44,17.15,17.15,0,0,0-3.79-2.46c-1.92-1.45-4-2.89-6.22-3.1a1.53,1.53,0,0,0-1.52.81,29.32,29.32,0,0,0-7-1.07.63.63,0,0,0-.25,1.22c4.16,1.9,8.73,2.69,12.86,4.7,4.66,2.25,7,6.19,10.11,10C98.06,220.65,100,219.55,99.34,218.29Z"/><path class="cls-7" d="M71.25,186.84c-2.94-1.29-6.81.37-10,.23-4.25-.18-8-2.41-12.06-2.68a.6.6,0,0,0-.49,1c2.47,3,7.56,3.89,11.23,4.31,3.41.39,9.32,1.07,11.62-2A.56.56,0,0,0,71.25,186.84Z"/><path class="cls-7" d="M74.92,169.9c-.22-1.23-.45-2.45-.71-3.67-.31-1.51-.56-3.18-1.76-4.23a.22.22,0,0,0-.11-.05l-.63-1.7a.52.52,0,0,0-.91-.13,1.28,1.28,0,0,0-.11.27c-.2-.37-.41-.75-.6-1.13-.08-.15-.33,0-.25.1.29.59.55,1.2.8,1.83a9.21,9.21,0,0,0,.69,2.34c0,1.09.73,2.41,1.07,3.5.07.26.13.53.19.79.31,1.43.56,2.84.76,4.18a.21.21,0,0,0,.22.19c.08.44.18.87.24,1.3.18,1.11,1.82.69,1.68-.39S75.15,171,74.92,169.9Z"/><path class="cls-7" d="M44.73,115l0-.14c-.7-2.83-2.82-5.11-5.58-6.8a8.11,8.11,0,0,0-3.43-1.69c-5.11-2-11.14-2.43-14.84-1.1-.4.14-.26.76.13.79,4.75.39,9.41.92,13.8,2.94s6.16,4.87,8.46,8.8a.91.91,0,0,0,1.7-.41A8.52,8.52,0,0,0,44.73,115Z"/><path class="cls-8" d="M103.73,234.74l-.31.35a1.12,1.12,0,0,0-.33.47,1,1,0,0,0-.16.57,1.05,1.05,0,0,0,.1.58,1.08,1.08,0,0,0,.28.5l.29.25a1.45,1.45,0,0,0,.75.24l.4,0a1.48,1.48,0,0,0,.68-.35l.36-.31a1.72,1.72,0,0,0,.5-1.06,1.23,1.23,0,0,0-.1-.6,1.12,1.12,0,0,0-.3-.5l-.29-.26a1.59,1.59,0,0,0-.76-.25l-.41,0a1.51,1.51,0,0,0-.7.36Z"/><path class="cls-8" d="M107.42,191a84.78,84.78,0,0,0-5.76,22c-.89,6.61-1.62,14.75,1.57,20.86.36.68,1.55.61,1.58-.26.24-7.21-.86-14.09.15-21.34,1-7,3.25-13.85,4.24-20.89.15-1.06-1.38-1.33-1.78-.41Z"/><path class="cls-8" d="M104.66,152.79c-5.61,10.82-6.5,24.81-7.12,36.8a162.69,162.69,0,0,0,.2,20.83c.38,4.92.13,11.78,3.47,15.71a1.13,1.13,0,0,0,1.89-.34c2-5.1-.3-11.95-.69-17.31a172.63,172.63,0,0,1-.4-19.83,178.32,178.32,0,0,1,2-20.11c.72-4.72,3-10.83,1.7-15.62a.56.56,0,0,0-1.07-.13Z"/><path class="cls-8" d="M65.29,168c2.37,3.49,6.31,6,9.42,8.83A76.05,76.05,0,0,1,85,188a129.22,129.22,0,0,1,8.6,12.91c2.51,4.42,3.88,9.31,6.24,13.77a.77.77,0,0,0,1.46-.24c.84-9.59-7.29-19.43-12.53-26.75a71.12,71.12,0,0,0-10.53-11.8c-3.63-3.26-7.6-7.23-12.23-8.94a.66.66,0,0,0-.75,1Z"/><path class="cls-8" d="M72.29,188.88c7,3.7,13.48,5.56,18.48,12.25,4.57,6.12,7.17,13,10.34,19.86a1,1,0,0,0,2-.35c.79-8.23-5.41-17-10.46-23.11C88,192,80.06,186.35,72.45,187.29c-.9.11-.81,1.24-.16,1.59Z"/><path class="cls-8" d="M72.4,202.87c1.15,5.7,3.31,11.64,8.81,14.4,2.78,1.39,5.76,1.68,8.8,2s6.27,1.63,9.35,1.17a1.11,1.11,0,0,0,.79-1.57c-2.35-4-8.43-3.12-12.46-3.63-4.86-.61-7.75-2.27-10-6.64-1.17-2.29-2-4.51-3.82-6.43a.85.85,0,0,0-1.48.68Z"/><path class="cls-8" d="M73.07,203.48c5.63,2.72,12.94,1.36,17.78,5.8,4.18,3.83,5.56,9.83,9.61,13.43.66.59,1.7-.06,1.76-.83.49-5.7-5.44-12.3-9.71-15.55-5.27-4-12.68-4.24-19-4.63a.93.93,0,0,0-.41,1.78Z"/><path class="cls-8" d="M73.22,188c.9-4.73-7.8-7.49-11.32-8-5.4-.81-12.85.76-16.2,5.36a.88.88,0,0,0,.63,1.38c5.58-.07,9.9-3.82,15.86-2.61a17.3,17.3,0,0,1,6.72,3c1.6,1.15,1.87,1.69,3.75,1.47a.69.69,0,0,0,.56-.59Z"/><path class="cls-8" d="M46.17,186.37a31.56,31.56,0,0,0,14,5.25c3.93.38,10.09.6,13.1-2.37a1.37,1.37,0,0,0-1.17-2.35c-4.2.8-8.3,1.78-12.63,1.28s-8.3-2.3-12.3-3.77a1.12,1.12,0,0,0-1,2Z"/><path class="cls-8" d="M107.22,190.91c1.15,5.86,11.25,3.19,13.82-.19,4-5.23,2.49-13.95-3.36-17-6.05-3.16-12.67-.76-14.43,6a12.47,12.47,0,0,0,1.13,9.76c1.32,2.12,3,4.51,5.67,3.46a1.2,1.2,0,0,0,.55-1.59c-1.35-3-4.2-4.31-4.14-8.12.08-5.43,4.39-8.68,9.4-6,3.78,2,5,7.7,2.48,11.31-1.09,1.59-3.61,2.45-5.45,2.49s-3-1-4.65-1.16a1,1,0,0,0-1,1.12Z"/><path class="cls-8" d="M118.42,176a7.58,7.58,0,0,0,.17-2.94c-.35-3.34.09-.49.65.55a4.83,4.83,0,0,0,2.9,2.7,5.33,5.33,0,0,0,1.6,0q.42-.24.81-.51a1.89,1.89,0,0,0,0,1.64c.09,1.86.56,3.44-1,4.91-.93.87-1.34.78-1.93,1.93a1.09,1.09,0,0,0,.4,1.27c5,3.45,9-9.95,2.21-12a1.87,1.87,0,0,1-1.86-.45,13.2,13.2,0,0,1-.92-1.53,10,10,0,0,0-1-1.88,2.2,2.2,0,0,0-2.87-.62c-2.44,1.34-2.49,5.67-.54,7.3a.86.86,0,0,0,1.31-.39Z"/><path class="cls-8" d="M74.79,173.37c.58-3.75-3.56-8.06-5.4-11.19-2.3-3.92-3.87-8.8-6.87-12.22a.62.62,0,0,0-1.08.48c.55,4.71,3.38,9.72,5.45,14,1.54,3.17,3.57,8.68,7.46,9.29a.41.41,0,0,0,.44-.34Z"/><path class="cls-8" d="M61,151.09c3.13,3.69,7.37,6.6,10,10.72,2.74,4.35,2,9.1,3.4,13.8a1.25,1.25,0,0,0,2.38.16c1.67-3.94.21-9.9-1.63-13.64-2.62-5.34-8.17-8.6-12.37-12.55-1.06-1-2.74.35-1.75,1.51Z"/><path class="cls-8" d="M89.48,188.73c-2.32-5.17-4-10.22-3.54-16a26.37,26.37,0,0,1,1.51-7.13c.9-2.37,2.34-4.05,2.78-6.56A.87.87,0,0,0,89,158.2c-4.89,2.08-6.19,8.78-6.53,13.6a30.29,30.29,0,0,0,4.31,18.32,1.51,1.51,0,0,0,2.69-1.39Z"/><path class="cls-8" d="M88.56,159.63c-2.74,3.3.22,8.11,1.23,11.63,1.91,6.61-1.18,11-3.13,17-.37,1.11,1,2.55,2.09,1.79,4.18-2.87,5.57-9.22,5.74-14.05.1-2.77-.85-5.14-1.92-7.64-1.14-2.68-1.4-6.41-3.17-8.69a.54.54,0,0,0-.84,0Z"/><path class="cls-8" d="M88,187.72c-4-5.06-10-9.12-15.07-13.08A109.76,109.76,0,0,0,55.62,164a51.86,51.86,0,0,0-16.82-5.62c-5.94-.84-12.59-2-18.51-.69a1.16,1.16,0,0,0-.17,2.22c5.23,1.77,11,1.71,16.41,2.44,7,.94,13,3.35,19.27,6.62a113.39,113.39,0,0,1,15,9.1c5.21,3.83,10,8.78,15.8,11.66,1.2.6,2-1.11,1.35-2Z"/><path class="cls-8" d="M40,159.47c-1.51-1.16-3.32-1.79-4.89-2.87a13.54,13.54,0,0,1-2-1.72,11.42,11.42,0,0,1-.8-.9,4.83,4.83,0,0,1-.43-.58c-.26-.64-.55-.48-.87.47a20.65,20.65,0,0,0,2.27,1.41c.77.61,1.49,1.31,2.22,2,1.22,1.11,2.57,2.92,4.35,2.9a.84.84,0,0,0,.89-1c-.13-1.55-1.41-2.4-2.48-3.41s-2.15-2.1-3.34-3S30.26,150,29,152c-1.12,1.73,1.61,4.47,2.74,5.5a14.17,14.17,0,0,0,7.59,3.8,1,1,0,0,0,.67-1.82Z"/><path class="cls-8" d="M34.58,157.16a21.26,21.26,0,0,0-12-4.11c-2.5-.16-7.71-.55-9.57,1.77-4.22,5.24,12.26,5.75,14.48,5a.89.89,0,0,0,.15-1.53A10,10,0,0,0,23,157.1c-1.39-.12-2.8-.16-4.19-.3-.67-.06-4.54-.15-1.82-.52,5.39-.74,11.27.95,16,3.35a1.48,1.48,0,0,0,1.63-2.47Z"/><path class="cls-8" d="M32.17,158.08a14.9,14.9,0,0,0-13.63,3.43c-.83.76-.65,2.58.62,2.81,3.61.65,7.24.32,10.88.06,4.11-.3,8.66-.38,12.56-1.75,1.36-.48,1.49-2.64-.2-2.72-7.52-.38-15.11,2.41-22.66,1.17L20.8,164c3.3-3.13,7-3,11.2-3.53,1.15-.14,1.34-2.08.17-2.35Z"/><path class="cls-8" d="M51.58,163.92c-5.33-.7-12.72-1.86-17.58,1.19-1.1.69-1.45,2.62-.08,3.29,2,1,4.84,1.15,7.12,1.16,5,0,11.44.52,16-2a.77.77,0,0,0-.24-1.46c-4-.72-8.25.13-12.27.25-2.64.08-5.81-.37-8.26.76l1.12.59a7.12,7.12,0,0,0-.75-1.85l-.74,2.59c4-2.55,11-1.31,15.6-1.16,2.2.08,2.25-3.09.13-3.37Z"/><path class="cls-8" d="M55.39,166.62c-1.58-1.78-4.67-.18-6.39.68-2.12,1.06-4.8,2.55-5.1,5.12a1.58,1.58,0,0,0,1.48,1.64,13.35,13.35,0,0,0,6.31-1.18c2.05-.82,5-1.86,6.18-3.83.35-.59.09-1.55-.71-1.56-1.95,0-3.73,1.19-5.51,1.89-1,.42-2.11.84-3.17,1.24-.57.21-2,1-2.66.94L47,172.91c.14-2,9.79-4.7,8.39-6.29Z"/><path class="cls-8" d="M53.3,163.5c-.37-.42-3.57-4.51-3.21-4.8l-1.1.39c-.68-.08.36.49.63.75s.77.77,1.14,1.18c.74.81,1.43,1.67,2.09,2.54,1,1.32,2.26,3.89,4,4.38,1.54.44,2.07-1.06,1.7-2.27-.59-1.93-2.37-3.84-3.71-5.3s-6.6-7.13-7.7-2.45c-.36,1.54.52,3.25,1.41,4.45a5.43,5.43,0,0,0,4.09,2.37.77.77,0,0,0,.68-1.24Z"/><path class="cls-8" d="M104,139.07c-3.94-3.17-9.89,1-11.4,4.89-2.28,5.91,3,11.64,8.89,11.82,7,.21,9.47-6.43,7.45-12.21-.94-2.69-2.71-5.19-5.6-6-2.6-.7-6,0-6.61,3a.88.88,0,0,0,.78,1c1.37.23,2.68-.3,4-.11a4.61,4.61,0,0,1,3.76,3.46c1.21,3.42.25,7.64-4.18,7.4-4.13-.21-7.76-3.88-5.52-8,1.65-3,4.62-3.61,7.77-3.6a.91.91,0,0,0,.61-1.64Z"/><path class="cls-8" d="M105.63,141.62c1.79-.57,2.78-2.48,4.23-3.63,2.8-2.21,7.11-2.83,9.06.91,1.67,3.22-.57,6.41-3.48,7.74a12.36,12.36,0,0,1-7.51.79,1,1,0,0,0-1,1.47c1.94,4.48,8,2.38,11.16.46,3.66-2.25,5.72-6.61,4.17-10.8a7.89,7.89,0,0,0-8.91-5c-2.92.63-9.07,4-8.26,7.71a.42.42,0,0,0,.56.32Z"/><path class="cls-8" d="M107.75,138.27c3.44.23,1.8-5.79,1-7.29a11,11,0,0,0-10.6-5.8c-8.69,1-6.58,18.25.32,15.57a1.26,1.26,0,0,0,.39-2c-.63-.65-1.47-.91-2.11-1.53a5.55,5.55,0,0,1-1.3-4.47,5.28,5.28,0,0,1,1.83-3.88c1.34-1,2.93-.5,4.33.23a9.4,9.4,0,0,1,4.3,4.67c.41,1,.27,4.36,1.83,4.46Z"/><path class="cls-8" d="M105.89,129c-.09-3.33,0-5.92,2.58-8.41,1.42-1.4,3.59-2.91,5.75-2.26,1.44.43,2.84,2.06,3.8,3.19a7.87,7.87,0,0,1,1.3,8.9c-.78,1.71-2.4,2.8-3,4.53a1.16,1.16,0,0,0,.69,1.46c4.17,1.5,6.57-4.88,7-8,.72-4.89-1.92-8.77-5.67-11.64-4-3.06-8.74-2.21-12.09,1.42-2.33,2.52-5.06,8.38-2,11.28.5.48,1.66.39,1.63-.5Z"/><path class="cls-8" d="M101.13,207.26c-.15-5.41-1.74-10.84-2.44-16.21-.62-4.7-1.07-10.3-4.49-13.87-.35-.36-1.17-.29-1.17.34,0,5,2.22,10,3.17,15s.59,10.52,2.65,15.22c.46,1.05,2.31.77,2.28-.44Z"/><path class="cls-8" d="M88.08,159.58c-3-8.18-6.82-15.9-8.66-24.48-.46-2.1-1.61-5-1.42-7.19s1.85-4.37,2.48-6.34a.69.69,0,0,0-1.19-.66c-3.93,4.7-4.56,6.56-3.5,12.39a79.25,79.25,0,0,0,9.94,27.45,1.31,1.31,0,0,0,2.35-1.17Z"/><path class="cls-8" d="M77,133.15c-1.59-5.49-10.25-6-14.19-3-4.85,3.73-3.5,10.62.36,14.56,3.7,3.78,11.29,4.6,14.59-.28,2-3,2.79-13.93-3.07-12.92a1.24,1.24,0,0,0-1,1.45c.67,2.45,1.83,5.83.88,8.33-1.53,4-7.1,2.43-9.18-.06s-2.77-6.83.78-8.48c3.4-1.59,6.26.67,9.44,1.5.66.17,1.59-.32,1.35-1.14Z"/><path class="cls-8" d="M84.22,121.74c-1.8-1.42-4.18-.42-5.82.86-2.44,1.91-3,5-3,8,.07,5.95,7,9.83,12.16,7.2s6.65-9.59,3.59-14.39c-2.31-3.64-10.17-7.6-12-1.39a1.18,1.18,0,0,0,1,1.55c2.62.38,4.14-.89,6.37,1.26s2.49,6.35.23,8.46c-3.71,3.47-7.79-.75-7.33-4.81.4-3.54,2.56-3.57,4.77-5.49a.8.8,0,0,0,0-1.24Z"/><path class="cls-8" d="M78.33,116.62c-.35-6.54-8.6-7.53-13.25-4.81a11,11,0,0,0-3.15,16c3.41,4.61,10.9,7.09,15.05,2.14,3.55-4.24,4.13-14.16-2.57-15.4a.85.85,0,0,0-.92,1c.44,2.74,1.65,5,1.37,7.88-.24,2.43-1.52,5.23-4.43,4.87a8.89,8.89,0,0,1-4.88-2.88c-5.71-6.82,5.08-15.08,10.32-7.88a1.42,1.42,0,0,0,2.46-.85Z"/><path class="cls-8" d="M86,105.2c-5.39-.16-11,2.93-11.49,8.81-.43,5.68,4.35,10.83,10.13,10.09a10,10,0,0,0,8.82-11.48C92.8,107,88,105,82.82,104.94c-2.9,0-2.9,4.49,0,4.5,2.45,0,5.39.27,6.11,3.07a5.58,5.58,0,0,1-3.92,7,4.8,4.8,0,0,1-6-5.49c.59-3.32,4.06-4.38,7-4.29s2.89-4.42,0-4.5Z"/><path class="cls-8" d="M72.24,110.52c-6.13-3-3.69-11.78,2.07-13.49,2.89-.86,6.49.34,7.58,3.36.76,2.14-.73,4-.12,6.07a1.36,1.36,0,0,0,1.57,1c4.4-.82,3.31-7.65,1.58-10.4-2.47-3.94-7.83-5.36-12.11-3.91a12.64,12.64,0,0,0-8.22,9.72c-.61,4.14,1.93,9.55,6.31,10.43,1.56.32,3.1-2,1.34-2.81Z"/><path class="cls-8" d="M66.93,130.12l0-.31,0,.31a.06.06,0,0,1,0,0l-.07.33v0l-.15.3v0l-.23.26.13-.14a1,1,0,0,0,.28-.46L67,130l0-.37a1,1,0,0,0-.22-.49.71.71,0,0,0-.23-.26,1.14,1.14,0,0,0-.46-.28l-.36-.07-.38,0a1,1,0,0,0-.48.22.67.67,0,0,0-.27.23,1,1,0,0,0-.27.46l-.08.37,0,.37a1.14,1.14,0,0,0,.22.49.85.85,0,0,0,.24.26,1,1,0,0,0,.45.28l.37.07.38,0a2.13,2.13,0,0,0,.33-.11h0a2.68,2.68,0,0,0,.28-.18h0a.88.88,0,0,0,.27-.36.94.94,0,0,0,.13-.44Z"/><path class="cls-8" d="M86.28,159.73c-1.56-4-6.57-5.26-10.26-6.78-6-2.47-10.9-6-15.93-10.13-4-3.28-8.47-6.84-10.64-11.7-2.64-5.91-1.05-12.77-1.58-19-.07-.93-1.35-.88-1.68-.16-5.41,11.78-1.52,23.07,7.73,31.44,4.79,4.33,10,8.81,15.87,11.68,2.37,1.17,4.87,2.06,7.34,3,2.73,1,5.51,2.64,8.47,2.62a.68.68,0,0,0,.68-.94Z"/><path class="cls-8" d="M46.82,121.77c4.16-5.17-1.42-13.55-6.13-16.36-7.18-4.31-17.72-3.25-25.62-2a1,1,0,0,0-.16,1.83c6.31,2.49,13.1.41,19.61,2.06,3.64.92,6.8,2.79,8.56,6.23,1.34,2.64.93,5.48,2,8.13a1,1,0,0,0,1.72.15Z"/><path class="cls-8" d="M16.53,104.32c5.31,5,6.81,12,14.08,15.15,4,1.74,15.57,4,16.57-2.27a1,1,0,0,0-.92-1.1c-2.71-.14-5.21,1.15-8,1.1a16.74,16.74,0,0,1-8.92-2.89c-4.69-3.14-6.54-8.59-11.53-11.38-.86-.47-2.15.58-1.29,1.39Z"/><path class="cls-8" d="M55.34,142c-4.15-8.66-20.21-15.49-29.36-13.22-.63.16-.89,1.16-.15,1.38,5.16,1.57,10.48,1.93,15.54,4s8.7,5.89,13.42,8.38a.42.42,0,0,0,.55-.55Z"/><path class="cls-8" d="M36,130.1a8.82,8.82,0,0,0-3-4.79,9.15,9.15,0,0,0-4.84-2,1.3,1.3,0,0,0-1.06,2.14c1.59,1.84,3.88,4,6.46,4,.4,0,.83-.48.48-.86-1.62-1.72-3.59-2.82-5-4.8L28,125.85c2.92.17,5.53,2.44,7.27,4.67.31.4.85,0,.72-.42Z"/><path class="cls-8" d="M34.59,129.43c-1-2.46-5.15-3.88-7.61-4.27-2.06-.32-6.13-.07-6.8,2.48-.61,2.38,2.24,3.65,4.14,3.6,1.57,0,3.24-.13,4.81-.23a8.68,8.68,0,0,0,4-1.52.57.57,0,0,0,0-.89c-1.46-1-2.88-.09-4.53-.23a26.23,26.23,0,0,0-5.09,0c-.72.61-.49.63.67,0a8.09,8.09,0,0,1,1.9-.16,10.23,10.23,0,0,1,2.79.4c1.78.49,3.48,1.81,5.35,1.52a.53.53,0,0,0,.4-.74Z"/><path class="cls-8" d="M32.5,129.24c-2.58-3.67-9.61,1.11-6.32,4.6,1.71,1.82,4.75,1.37,6.87.67,1.55-.52,4.53-2.25,3.36-4.28a.8.8,0,0,0-1-.39c-.87.35-1.2,1.19-1.92,1.73A8.06,8.06,0,0,1,30,132.82a4.75,4.75,0,0,1-1.19.1L28,131.5c.06-.27,1.11-.77,1.33-.87a13.46,13.46,0,0,1,2.81-.56.52.52,0,0,0,.33-.83Z"/><path class="cls-8" d="M83.69,157.51a1.71,1.71,0,0,0-1.21-.2.91.91,0,0,0-.67.5,1,1,0,0,0,0,.86,1.29,1.29,0,0,0,1.76.68,1.08,1.08,0,0,0,.6-.87,1.05,1.05,0,0,0-.45-1Z"/><path class="cls-8" d="M81.59,158.48a8.14,8.14,0,0,0,2.4,2.31,11.09,11.09,0,0,0,3.1,2.12,1.46,1.46,0,0,0,1.75-2,7.32,7.32,0,0,0-2.76-2.65,6.4,6.4,0,0,0-3.35-1.43,1.18,1.18,0,0,0-1.14,1.68Z"/><path class="cls-8" d="M91.37,174c.52,1.45,1,2.91,1.42,4.38s1.25,2.65,1.76,4c.18.49.87.24.84-.23a17.48,17.48,0,0,0-.45-4.52,29,29,0,0,0-1.9-4.45.92.92,0,0,0-1.67.78Z"/><path class="cls-8" d="M82.4,103.57c-.43.64-.76,1.34-1.21,2a3.36,3.36,0,0,0-.86,2.86,1.76,1.76,0,0,0,1.58,1.31c2.42.19,3.73-3.17,3.83-5.13a1.82,1.82,0,0,0-3.34-1Z"/><path class="cls-8" d="M71.89,112.87c.06,1.1,1.23,1.9,2,2.6a9.85,9.85,0,0,0,1.24,1.18,9.35,9.35,0,0,1,1.33.71c.28.25.64-.06.62-.36a4.85,4.85,0,0,0-.15-2,5.36,5.36,0,0,0-1.19-1.49c-.78-.76-2-1.81-3.13-1.56a.86.86,0,0,0-.68,1Z"/><path class="cls-8" d="M71.61,113.37a14.7,14.7,0,0,1,2,2.6c.28.43.54.87.83,1.3a3.25,3.25,0,0,0,1.51,1.25c.88.44,1.57-.55,1.52-1.3a5.47,5.47,0,0,0-1.75-3.11,18.28,18.28,0,0,0-2.64-2.32c-.94-.74-2.32.73-1.44,1.58Z"/><path class="cls-8" d="M76.26,115.87a6.31,6.31,0,0,0-2.83-3.31c-1.11-.66-3-1-4,0a.56.56,0,0,0-.16.65c.56,1.14,1.84.83,2.8,1.38a23.49,23.49,0,0,1,2.74,2.24.94.94,0,0,0,1.46-.93Z"/></g></g></g><g id="PixelsASSETS"><g id="Cola"><rect class="cls-9" width="130" height="250"/></g></g></g></g></svg>