<svg xmlns="http://www.w3.org/2000/svg" viewBox="0 0 130 250"><defs><style>.cls-1{isolation:isolate;}.cls-2,.cls-5,.cls-7{fill:none;}.cls-2{stroke:#009245;}.cls-2,.cls-3,.cls-4,.cls-5,.cls-6{stroke-linejoin:round;}.cls-2,.cls-6{stroke-width:7px;}.cls-3{fill:#39b54a;stroke:#42210b;stroke-linecap:round;stroke-width:6.97px;}.cls-4,.cls-6{fill:#ff7bac;}.cls-4,.cls-5,.cls-6{stroke:#9e005d;}.cls-4,.cls-5{stroke-width:7.42px;}.cls-7{mix-blend-mode:multiply;opacity:0.4;}</style></defs><g class="cls-1"><g id="Layer_2" data-name="Layer 2"><g id="Variación_A" data-name="Variación A"><g id="AssetsE3"><g id="TailE4_copia" data-name="TailE4 copia"><path class="cls-2" d="M84.57,148.14s-6.72-6.26-6.72-26.26v-20"/><path class="cls-3" d="M118.07,225.6s12.17-94.46-11.35-91.1S83.2,158,83.2,158s-43.67-67.19-40.31-37S73.7,198.4,73.7,198.4,36.17,184.9,53,205.06s48.51,38.4,48.51,38.4l9.42-11.07Z"/><path class="cls-4" d="M40.53,55.88c1.3,9.17,11.39,16.76,10.67,18.62-2.56,6.52-1.13,21,2.24,23s28.89,16.33,44.21,7.67,22-23.67,19.8-31.67-4.49-21-4.49-25a12.81,12.81,0,0,1,2.25-7s-12.36,2-14.6-2-1.12-16-3.37-16H91.68s-2.3-9-3.42-9-8.2-3-15.33,0-7.13,9-7.13,9-11.59-1.53-12,2.74-.39,10.26-.39,10.26-16.22,4.07-15.41,9A87.2,87.2,0,0,0,40.53,55.88Z"/><path class="cls-5" d="M40.67,45.53s13.83-1,22.83,4,18,24,18,24"/><path class="cls-6" d="M75.18,105.17s-2-23.27,11.14-39.47,26.47-23.9,26.47-23.9"/><path class="cls-5" d="M63.5,49.5s7.88-13.8,14.44-19.9a22,22,0,0,1,13.74-6.1"/><path class="cls-5" d="M63.5,23.5s9.88,1.2,14.44,6.1"/></g></g></g><g id="PixelsASSETS"><g id="Cola"><rect class="cls-7" width="130" height="250"/></g></g></g></g></svg>