<svg xmlns="http://www.w3.org/2000/svg" viewBox="0 0 464 265"><defs><style>.cls-1{isolation:isolate;}.cls-2{fill:#a67c52;}.cls-3{fill:#735639;}.cls-4{fill:#42210b;}.cls-5{fill:none;mix-blend-mode:multiply;opacity:0.4;}</style></defs><g class="cls-1"><g id="Layer_2" data-name="Layer 2"><g id="Variación_C" data-name="Variación C"><g id="AssetsE3"><g id="HornE3"><g id="Capa_52" data-name="Capa 52"><path class="cls-2" d="M387.43,177a62.14,62.14,0,0,1,17.49-2.16,94.19,94.19,0,0,1,15.8,1.55,18.17,18.17,0,0,0,6.41-3.92c.17-.18.14-.59-.2-.59s-1,0-1.44.07l0-.06c1.12.17,2.33-.38,2.29-1.69l-.39-12.32c0-.38.08-.74.11-1.09a1.89,1.89,0,0,0-.18-1,2.11,2.11,0,0,0-.17-.71,11.32,11.32,0,0,0,.33-7.1c-2.87-9.89-5.71-19.93-9.44-29.63.07-7-2.21-14.7-4.31-20a58.4,58.4,0,0,0-16.39-23.39,72.67,72.67,0,0,0-12.14-16.73C374.43,47,361.66,38,348.6,29.52c-8.14-5.29-16.28-9.69-25.74-12.21a36.93,36.93,0,0,0-12.69-1.19c-.49,0-1,.09-1.45.15a12.07,12.07,0,0,0-2.34-.26l-2.22,0c-9.1-1.89-18.59-1.07-27.72-.18a15,15,0,0,0-11.87,8.63,58.75,58.75,0,0,0-15.36,6.38,11.64,11.64,0,0,0-1.75.3c-7.29,2-12.85,4.92-18.12,10.17a66.33,66.33,0,0,0-10.12,13.83C212,67.51,206.68,80.93,205.55,95.34a68.56,68.56,0,0,0-.2,7.31A52.14,52.14,0,0,0,209.66,134,60.15,60.15,0,0,0,220,148.93c3.19,5.24,7.17,10.22,12,13.65a25.11,25.11,0,0,0,10,4.21,63,63,0,0,0,14.23,8c5,2,11.35,3.16,16.16,1.57l.24,0c1.79.8,3.58,1.55,5.39,2.2a14.28,14.28,0,0,0,5.71.79c.82.18,1.64.34,2.47.49,10.88,1.93,20.52-1.57,29.36-7.26a32.28,32.28,0,0,0,5.27-.92c3.9-1.08,7.17-3.29,10.31-5.68a76.4,76.4,0,0,0,13.44-12.46A49.55,49.55,0,0,0,356,171.79a21.42,21.42,0,0,0,4.1,3.27c.71,2.37,1.44,4.72,2.23,7.06a66.55,66.55,0,0,1,8.69.95l3.73.31,1.1.07C378.39,180,383.63,178.11,387.43,177Z"/><path class="cls-3" d="M313.6,19.59c4.09,0,4.39-6.37.27-6.37s-4.39,6.37-.27,6.37Z"/><path class="cls-3" d="M314.57,19.5a34.07,34.07,0,0,1,3.12,11.2c.28,3.17-.14,6.33,0,9.49a1.29,1.29,0,0,0,2.3.53c4.13-7.12,1-16.34-3.62-22.36a1.1,1.1,0,0,0-1.84,1.14Z"/><path class="cls-3" d="M330,19.83c.51,5,.83,10-.07,14.92s-3,9.66-4.92,14.38c-.46,1.12,1.08,2.36,2,1.44,7.9-7.84,9.76-21.46,5.75-31.62-.64-1.63-2.92-.67-2.76.88Z"/><path class="cls-3" d="M345.69,30.31A70.69,70.69,0,0,1,339.91,49c-2.74,5.55-6.53,10.3-10.15,15.28-.87,1.2.66,2.42,1.78,1.67,11.25-7.51,17.1-22.57,16.28-35.71-.08-1.27-1.93-1.05-2.13.06Z"/><path class="cls-3" d="M358.66,37.12a27.07,27.07,0,0,1-2.33,7.51,66.88,66.88,0,0,0-3.09,5.94c-.28.73.54,1.7,1.31,1.25,4.86-2.78,6.39-9.55,5.74-14.73a.83.83,0,0,0-1.63,0Z"/><path class="cls-3" d="M375.78,45.93c-2.2,5.64-3.72,11.45-6.32,17-2.4,5.06-5.25,9.89-7.75,14.9-.72,1.45,1.46,2.87,2.57,1.78,8.22-8,14.42-21.38,15.13-32.89a1.88,1.88,0,0,0-3.63-.75Z"/><path class="cls-3" d="M388.1,57.78a3.05,3.05,0,0,0-1.31,1.69c-1.07,2.27-1.78,4.48-3.09,6.69-2.42,4.07-5.21,7.85-7.44,12-.55,1,.91,1.87,1.7,1.25,5.79-4.48,11.35-12.3,12.33-19.71a1.76,1.76,0,0,0-.76-1.58l-.51-.37a.78.78,0,0,0-.92,0Z"/><path class="cls-3" d="M396.75,70.84c-1.82,1.47-2.41,3.39-3.37,5.49a61.86,61.86,0,0,1-5.12,9.12c-3.74,5.46-8.56,9.77-13,14.6-1.1,1.18.62,2.53,1.78,2.13,6.76-2.34,12.23-7.86,16-13.8,2.71-4.3,7.2-12.16,4.78-17.27a.69.69,0,0,0-1.05-.27Z"/><path class="cls-3" d="M411.07,96.67c-4.11,3.75-8.28,7.41-12.17,11.39-.93,1-.06,2.78,1.32,2.1A38.8,38.8,0,0,0,413.63,99c1.22-1.55-1.12-3.61-2.56-2.29Z"/><path class="cls-3" d="M418,113.22c-2.46,1.26-4.68,2.85-7,4.28-2.15,1.31-4.55,2.55-6.3,4.38a1.36,1.36,0,0,0,1.09,2.36c2.71-.47,5.13-2,7.41-3.46a35.52,35.52,0,0,0,6.5-5c1.12-1.17,0-3.39-1.65-2.55Z"/><path class="cls-3" d="M421.23,124.1c-2.74.27-4.1,2.13-6.16,3.89-2.79,2.4-5.63,4.72-8.63,6.85-6.14,4.37-12.81,7.79-19.33,11.52-.87.5-.61,2.17.56,1.86a68.19,68.19,0,0,0,20.48-9.79c4.16-2.8,13.43-7.93,14-13.45a.81.81,0,0,0-.91-.88Z"/><path class="cls-3" d="M429.1,151c-3.36.63-6.4,2.76-9.42,4.32-3.3,1.71-6.64,3.34-9.94,5a1.16,1.16,0,0,0,.67,2.2,62.62,62.62,0,0,0,10.67-3c3.32-1.24,7.25-2.53,9.72-5.17a2,2,0,0,0-1.7-3.38Z"/><path class="cls-3" d="M427.19,164.08c-2.51.38-4.79,2-7,3.14-2.43,1.21-4.88,2.41-7.24,3.75a1.17,1.17,0,0,0,.68,2.2c4.85-.25,12.37-2.31,15.16-6.68a1.57,1.57,0,0,0-1.56-2.41Z"/><path class="cls-3" d="M290.9,17.36c-.22,2.49,1.47,4.45,2.32,6.69,1,2.59,1.44,5.37,2.18,8,.31,1.13,2.2,1.65,2.58.24a14.77,14.77,0,0,0-.8-9.45c-1-2.61-2.3-5.72-5.29-6.3a.89.89,0,0,0-1,.78Z"/><path class="cls-3" d="M278.76,21.38c-.24,1.72,1,3.2,1.67,4.68s1.13,3.29,2.53,4.15a1.12,1.12,0,0,0,1.67-.48c.78-1.71-.2-3.72-1-5.26-.84-1.71-1.74-3.59-3.72-4a1.07,1.07,0,0,0-1.18.95Z"/><path class="cls-3" d="M264.55,24.63a98.1,98.1,0,0,1,6.77,13.57c1.93,5,2.68,10.36,4.26,15.49a1.38,1.38,0,0,0,2.71-.11c1.34-10.6-4.46-22.76-11.63-30.27-.92-1-2.86,0-2.11,1.32Z"/><path class="cls-3" d="M240.8,34.78c4.6,6.51,6.53,14.37,10.51,21.2a1.21,1.21,0,0,0,2.29-.71c-.36-5.78-2.62-11-5.26-16.12-1.42-2.75-3.26-7.8-7.11-6.19a1.19,1.19,0,0,0-.43,1.82Z"/><path class="cls-3" d="M226,48.9c1.84,1.91,4,3.45,5.8,5.38,2,2.11,3.69,4.86,6.45,6A1.17,1.17,0,0,0,239.76,59c-.38-3-2.78-5.51-4.92-7.46-2.4-2.2-5-4-8.37-4A.83.83,0,0,0,226,48.9Z"/><path class="cls-3" d="M217,63.13c4.38-.23,8.86.61,13.2,0a1.11,1.11,0,0,0,.22-2.1c-4.17-2.07-9.47-1.5-13.91-.67-1.81.35-1.25,2.83.49,2.74Z"/><path class="cls-3" d="M204.42,93.74c3.11-.06,6-1.75,8.9-2.68,3.31-1,6.68-2.15,10-3.07,1-.27,1.18-2-.05-2a33.8,33.8,0,0,0-10.92,1.55c-3,1-6.61,2-8.66,4.56a1,1,0,0,0,.71,1.63Z"/><path class="cls-3" d="M206.63,118.36c5.25-8.74,17.58-11.47,26.15-15.64a1.17,1.17,0,0,0-.68-2.21c-9.75.44-24.79,6.59-26.65,17.36-.11.62.84,1.06,1.18.49Z"/><path class="cls-3" d="M211.86,136.09c3.95-4.28,7.44-8.94,11.83-12.81a97.11,97.11,0,0,1,15.62-10.75c.87-.51.62-2-.54-1.82-12.11,2.3-25.32,12.15-28.57,24.45a1,1,0,0,0,1.66.93Z"/><path class="cls-3" d="M224,155.29c1.89-2,3.42-4.27,5.16-6.4,1.92-2.35,4.54-4.44,5.75-7.26a1.23,1.23,0,0,0-1.36-1.65c-2.92.85-5,3.3-6.9,5.59a23.58,23.58,0,0,0-4.88,8.52,1.28,1.28,0,0,0,2.23,1.2Z"/><path class="cls-3" d="M232.07,163.6c1.87-3,3.51-6.13,5.56-9s4.23-5.59,6.11-8.56c.53-.84-.32-2.31-1.36-1.68-6.24,3.77-11.08,10.85-13.12,17.8-.48,1.65,1.81,3.08,2.81,1.46Z"/><path class="cls-3" d="M240.08,164.2a67.58,67.58,0,0,1,9.29-11.82c3.15-3.21,6.72-6,9.47-9.57.66-.86-.32-1.81-1.21-1.51-9.57,3.18-17.51,12.43-19.77,22.06-.28,1.19,1.61,1.84,2.22.84Z"/><path class="cls-3" d="M273.3,143.26c-8.94,9-19.43,22.08-17,35.72.08.43.79.44.8,0,.13-14.81,8.05-24.15,16.64-35.28.2-.26-.18-.66-.43-.41Z"/><path class="cls-3" d="M273,154.26a39.41,39.41,0,0,0-5.53,22.63c0,.61.94.49,1,0a105.11,105.11,0,0,1,1.89-12c.9-3.48,2.32-6.75,3.49-10.14.18-.51-.56-.94-.87-.46Z"/><path class="cls-3" d="M285.44,143.82c-4.88,5.21-7.52,12.65-9.3,19.46-1.61,6.16-3.58,14.12,0,19.92.31.5,1.31.47,1.27-.27a62.19,62.19,0,0,1,1.81-19.87c1.75-6.49,4.93-12.36,7-18.7.13-.42-.42-.92-.77-.54Z"/><path class="cls-3" d="M285.27,158.24c-2.63,1.66-2,5-1.79,7.73.42,5.07.8,10.45,2.44,15.29.18.53,1.06.33,1.07-.2.12-7.59-2.34-15-1.19-22.53.05-.31-.31-.43-.53-.29Z"/><path class="cls-3" d="M305,143.62c-2.42,6.66-1.63,13.64-.19,20.44,1,4.91,2.55,10.05,6.87,13,.39.27.92-.25.59-.63-7.63-8.4-8.48-22-6.72-32.71a.29.29,0,0,0-.55-.14Z"/><path class="cls-3" d="M310.84,154c.25,7.72,6.51,18.13,14.26,20.28.46.13.89-.5.42-.79a26.14,26.14,0,0,1-9.14-9c-2-3.4-2.8-7.49-5.07-10.67-.17-.24-.48,0-.47.2Z"/><path class="cls-3" d="M319.32,153.9a36,36,0,0,0,7.08,10c2.3,2.33,5.49,5.27,8.91,5.43.45,0,.88-.6.48-1-2.67-2.45-6-3.92-8.58-6.59s-4.68-5.65-7.27-8.25c-.28-.28-.8,0-.62.38Z"/><path class="cls-3" d="M326.62,151.07c5.78,2.68,9.63,11,17.25,7.85a.51.51,0,0,0-.17-.95c-4.22-.58-7.29-1.15-10.5-4.16-1.94-1.83-3.68-3.5-6.51-3.4-.36,0-.34.53-.07.66Z"/><path class="cls-3" d="M347.1,105.2c-3.6,2.48-6.78,5.34-10.75,7.29a58.42,58.42,0,0,1-15.43,4.66c-.55.1-.53,1,.05,1,9.56.23,21.35-4.08,27-12.17.41-.59-.35-1.14-.88-.78Z"/><path class="cls-3" d="M345.77,116.56c.2,1-5.49,3.73-6.41,4.18a71.25,71.25,0,0,1-8.89,3.38c-.45.15-.19.79.23.75a27.68,27.68,0,0,0,11.68-4.07c1.21-.72,5.12-2.55,4.13-4.46a.39.39,0,0,0-.74.22Z"/><path class="cls-3" d="M346.74,129.23c-4,.4-8.05.72-12,1.22-.4.05-.5.73-.08.83a19.22,19.22,0,0,0,12.31-1.42.33.33,0,0,0-.19-.63Z"/><path class="cls-3" d="M346.18,133.52c-6.93,4-18.35,1.52-25.93.81-.59-.05-.83.9-.22,1a68.72,68.72,0,0,0,15.85,1.9c4,0,8.17.2,10.78-3.18.22-.29-.13-.77-.48-.58Z"/><path class="cls-3" d="M298.67,83.49c2.91,7.16,3,14.7,2.59,22.27a.47.47,0,0,0,.93.09,36.42,36.42,0,0,0,.06-14.15c-.42-2.32-.79-7.35-3.23-8.57-.22-.11-.43.15-.35.36Z"/><path class="cls-3" d="M309.48,84.78c-.13,6.56.73,12.24-2,18.51a.35.35,0,0,0,.6.33c3.49-5.25,3.51-12.94,1.86-18.85-.07-.24-.48-.3-.48,0Z"/><path class="cls-3" d="M319.35,87.29c-.45,2.07-.35,4.16-.91,6.24a30.44,30.44,0,0,1-2.42,6c-.19.37.37.62.61.33,2.62-3.18,4.77-8.51,3.45-12.64-.13-.41-.66-.2-.73.12Z"/><path class="cls-3" d="M329.73,91.06c-3.08,3.31-5,7.55-8,11s-6.85,6.12-10.37,9.13a.6.6,0,0,0,.65,1c4.58-1.85,8.48-5.34,11.66-9.05,2.85-3.32,6.06-7.38,6.52-11.84a.24.24,0,0,0-.42-.17Z"/><path class="cls-3" d="M278.71,86.78c3.4,4,6.86,7.32,8.21,12.61.12.45.86.49.87,0,.15-5.47-4.61-10-8.78-12.87-.2-.13-.47.11-.3.3Z"/><path class="cls-3" d="M270.8,92.18c3.63,2.07,5.83,5,7.83,8.55a.37.37,0,0,0,.69-.21c-.64-4.2-4.37-7.54-8.24-8.83-.28-.09-.57.32-.28.49Z"/><path class="cls-3" d="M264.72,101c3,.16,5.36,1.34,8.11,2.37a.33.33,0,0,0,.38-.51c-2-2.35-5.61-2.88-8.51-2.43a.29.29,0,0,0,0,.57Z"/><path class="cls-3" d="M267.48,126.25a38.77,38.77,0,0,1,12.58-18.12c.33-.27,0-.88-.4-.66a27.12,27.12,0,0,0-12.78,18.63.31.31,0,0,0,.6.15Z"/><path class="cls-3" d="M273.38,129.47c2.35-4.2,5-8.19,7.57-12.3a.28.28,0,0,0-.45-.33,46.85,46.85,0,0,0-7.85,12.23c-.2.43.49.81.73.4Z"/><path class="cls-3" d="M283.08,127c-.43-5,1.17-8.65,4.76-12.08a.36.36,0,0,0-.37-.61c-4.63,2-7,8.28-5,12.86a.31.31,0,0,0,.58-.17Z"/><path class="cls-3" d="M292.55,125.7c-.79-2.78-.4-5.31-.18-8.12a.33.33,0,0,0-.59-.23c-1.65,2.58-1.19,5.93,0,8.61.19.44,1,.22.82-.26Z"/><path class="cls-3" d="M298.08,122.77c-.12-1.17-.54-2.26-.57-3.44a8.84,8.84,0,0,0,0-2.67.37.37,0,0,0-.57-.13c-1.75,1.36-.86,5.33.55,6.63.27.26.65-.08.62-.39Z"/><path class="cls-3" d="M395.15,62.72c-2.55,1-3.18,5.26-4.36,7.54-2,3.93-5.05,7.28-7,11.23-.28.57.25,1.48.94,1.05,3.63-2.26,6.08-6.17,8.09-9.86,1.3-2.38,4.52-7.2,2.77-9.85a.39.39,0,0,0-.46-.11Z"/><path class="cls-3" d="M383.55,51.71c-1.39,2.3-1.87,5-2.67,7.57a29.39,29.39,0,0,1-4,8.11c-.45.63.38,1.23.94.83,4.64-3.24,6.41-10.83,6.62-16.19,0-.44-.6-.75-.87-.32Z"/><path class="cls-3" d="M351.9,29.81c2.41,2.41,0,9.38-.65,12.12-.76,3.1-1.76,6.16-2.81,9.18-.2.6.7,1.11,1,.52a41.79,41.79,0,0,0,4.77-14.94c.35-2.69,1.24-6.4-1.7-7.8-.52-.25-1,.52-.63.92Z"/><path class="cls-3" d="M338.34,22.89c.7,10.3-2.51,18.47-6.45,27.76-.27.63.74,1.15,1.09.55,4.88-8.4,9.39-18.57,6.7-28.41-.19-.69-1.39-.71-1.34.1Z"/><path class="cls-3" d="M272.84,21c3,5.59,5.49,11.27,8.14,17a.45.45,0,0,0,.85-.27,42.77,42.77,0,0,0-8-17.43c-.41-.56-1.34.06-1,.67Z"/><path class="cls-3" d="M258.56,25.83c3.57,6.28,6.94,12.65,10.78,18.77.24.38.84,0,.66-.42a191.48,191.48,0,0,0-10.14-19c-.47-.81-1.76-.15-1.3.67Z"/><path class="cls-3" d="M234.12,39c2.81,3.91,5.07,8.09,7.52,12.22a.48.48,0,0,0,.87-.41,44,44,0,0,0-7.71-12.37c-.37-.44-1,.11-.68.56Z"/><path class="cls-3" d="M202.32,108.64c2.5-2.49,4.69-5.25,7.32-7.62a87,87,0,0,1,9.3-7c.5-.34,0-1.1-.55-.86-6.56,3-13.4,8.55-16.64,15.1-.16.32.31.68.57.42Z"/><path class="cls-3" d="M207.36,129.88c2-1.53,3.34-4.09,4.86-6.07a81.06,81.06,0,0,0,5.07-6.87.45.45,0,0,0-.65-.6,31.9,31.9,0,0,0-5.6,6.17c-1.53,2.09-3.56,4.56-4.12,7.12,0,.24.27.38.44.25Z"/><path class="cls-3" d="M205.45,85.26c6-2.43,12-3.26,18.35-3.82.7-.06.57-1.11-.07-1.19-6.53-.76-13.08.94-18.94,3.74-.84.4-.18,1.62.66,1.27Z"/><path class="cls-3" d="M218.11,148.52c1.18-3.92,2.37-8,5.79-10.58.25-.18,0-.63-.29-.47-3.94,2.22-5.41,6.56-6.42,10.7-.15.61.74,1,.92.35Z"/><path class="cls-4" d="M432.42,178.16c8.43-31-5.57-62.12-18.12-90-6.23-13.81-13.63-27.16-24.38-38-10.55-10.62-23.47-19-36.78-25.72-13.61-6.89-28.16-11.9-43.4-13.41-14.72-1.45-29.09,1.34-43,5.94-25.92,8.55-49.15,23.85-59.82,49.86-11,26.88-13.58,60.17,5,84.28,15.71,20.42,40.84,30.29,65.82,32.92C302,186.63,331,182.2,346.29,161c7.94-11,9.25-25.22,8.58-38.39-.63-12.49-4.16-24.8-14.76-32.43C319.49,75.34,282.54,68.9,263,88.86a30,30,0,0,0-5.8,34.28c5.56,11.2,18.46,16,30.3,13.08a34,34,0,0,0,17.31-10.75c3.7-4.22-2.47-10.43-6.19-6.19-7.5,8.56-22.08,13.41-30.95,3.82-8.3-9-5.09-22.82,3.71-30.08,9.33-7.69,22.23-8.78,33.76-7s26.13,5.92,34,15c7.18,8.24,7.43,20.58,7.05,30.91-.46,12.51-4.45,23.77-14.42,31.81-16.48,13.27-40.52,14.08-60.5,10.76-21.42-3.56-43.09-13.66-55.2-32.43-14.14-21.92-10.29-52.17.2-74.9,10.13-22,31.19-34.67,53.49-41.91,11.6-3.76,23.42-6.33,35.68-5.72,13.06.66,25.91,4.48,37.76,9.88,13,5.9,25.68,13.49,36.31,23,11,9.89,18.72,22.16,25,35.45,12.58,26.51,27.56,58.12,19.45,88-1.48,5.44,7,7.76,8.43,2.33Z"/><path class="cls-4" d="M364.35,180c-3.88-9.92-8.62-19.38-17.83-25.34-4.74-3.06-9.13,4.51-4.41,7.56,7.12,4.6,10.81,12.46,13.8,20.11,2,5.18,10.49,2.93,8.44-2.33Z"/><path class="cls-4" d="M365.73,40.32c-1.72,10-8.44,18.15-12.8,27.11-1,2,1.94,3.8,3.47,2.41C365,62,370.79,52,370,40.09c-.18-2.59-3.89-2-4.27.23Z"/><path class="cls-4" d="M400.89,81.19a104.93,104.93,0,0,1-9,12.57c-3.23,3.9-6.22,8.42-9.68,12.06-1.37,1.44,0,4.53,2.08,3.25,4.74-3,8.9-5.36,12.48-9.87a58.41,58.41,0,0,0,8.7-15.72c1-2.71-3.06-4.82-4.58-2.29Z"/><path class="cls-4" d="M426.26,135.38c-4.23-1.15-8.22,3.38-11.37,5.68-4.19,3.06-8.69,6-12,10-1.44,1.78.57,3.85,2.42,3.67,5.45-.53,10.47-3.68,14.62-7.08,2.91-2.37,8.65-6.51,7.51-10.88a1.89,1.89,0,0,0-1.19-1.43Z"/><path class="cls-4" d="M300.12,15.24c-.61,5,2.26,8.56,4.14,13,2.46,5.79,1.65,12,2.7,18.05a1.77,1.77,0,0,0,3.38.32c2.05-5.19,1.76-11.61.21-16.93s-5.19-9.81-7.19-15c-.63-1.64-3-1-3.24.55Z"/><path class="cls-4" d="M248.79,27.09c1.68,5.5,4.75,10.27,7.37,15.36s4.22,10.71,7.56,15.41c1.33,1.86,4.08.48,4.31-1.45,1.31-11.12-7.7-26.29-17.75-30.86-1-.46-1.76.65-1.49,1.54Z"/><path class="cls-4" d="M208.12,74.29c4.26,1.94,8.5,1.36,13,1.85,4.83.52,8.82,3.55,13.52,4.1a2.23,2.23,0,0,0,2.38-2c.83-12.71-22-12.73-29.28-8.83a2.71,2.71,0,0,0,.34,4.92Z"/><path class="cls-4" d="M215.85,143.79c5.2-6.14,12-10.58,18.27-15.54a1.25,1.25,0,0,0-1-2.2c-9.07,1.82-15.38,8.58-19.45,16.53-.68,1.31,1.29,2.23,2.15,1.21Z"/><path class="cls-4" d="M246.81,170.92c3.64-1.59,5.56-6.77,7.77-9.91,2.49-3.55,5.38-6.81,7.26-10.75.74-1.54-1.12-2.83-2.47-2.29-4.51,1.78-7.81,5.52-10.61,9.37-2.24,3.06-6,8.09-4.87,12.1a2.1,2.1,0,0,0,2.92,1.48Z"/><path class="cls-4" d="M297.52,178.48c.34-3.56.86-7.08,1.14-10.64.41-5.33,2-10.51,1.63-15.86-.11-1.74-2.52-2.3-3.67-1.28-7.78,6.92-7.26,20-2.57,28.38a1.84,1.84,0,0,0,3.47-.6Z"/><path class="cls-4" d="M348.37,139.65c-3.46-.45-7-.13-10.51-.51a90.87,90.87,0,0,0-10-.46,2,2,0,0,0-1.3,3.52c5.8,5,15.23,7.11,22.57,4.41a3.55,3.55,0,0,0-.73-7Z"/><path class="cls-4" d="M340,99c-3.77,1.38-7,4.63-10.36,6.82s-6.94,4.31-9.75,7.18c-1.3,1.34-.45,3.85,1.63,3.45,4.52-.85,8.52-3.36,12.23-6,3.14-2.2,8.85-5.26,9.21-9.45a2.1,2.1,0,0,0-3-2Z"/><path class="cls-4" d="M290.44,85.19c-1.07-.52.29,4.51.37,4.88a38.32,38.32,0,0,1,.62,5.11c.18,3.42.17,6.5,1.23,9.8.4,1.26,2.19,1.18,2.87.28,2.93-3.87,2.9-8.3,2.28-13-.48-3.7-1.29-9.2-4.57-11.52a2.63,2.63,0,0,0-2.64-.16l-.42.21c-2,1-1.51,3.49.26,4.36Z"/><path class="cls-4" d="M257.45,112c1.78,2.42,6.38,1.22,8.82,1a15.38,15.38,0,0,0,5.55-1.3c1.18-.6,1.58-2.53.29-3.29-3.74-2.2-8.51-1.69-12.65-1.15a3.2,3.2,0,0,0-2.34,2.16l-.11.32a2.45,2.45,0,0,0,.44,2.31Z"/></g><g id="Capa_45" data-name="Capa 45"><g id="Capa_51" data-name="Capa 51"><path class="cls-2" d="M327.85,188.07c-.47.13-.94.27-1.4.43a.64.64,0,0,0,0-.07,1.85,1.85,0,0,0,1.84-2.29q-1.68-6.22-3.37-12.44c0-.39-.09-.78-.15-1.14a2,2,0,0,0-.43-1,2.26,2.26,0,0,0-.33-.68,12.22,12.22,0,0,0-1.4-7.3c-5.2-9.35-10.41-18.86-16.42-27.78-1.63-7.18-5.72-14.41-9.07-19.33a59.82,59.82,0,0,0-21.72-19.68,74.49,74.49,0,0,0-15.95-14c-13.29-8.61-28-14.61-42.85-20-9.26-3.33-18.31-5.77-28.19-6a36.11,36.11,0,0,0-12.73,2c-.47.17-.93.34-1.38.52a12,12,0,0,0-2.36.32l-2.19.54c-9.37.36-18.48,3.58-27.21,6.77-5.15,1.89-8.49,6.6-9.55,11.76a59.3,59.3,0,0,0-13.52,10.35,9.66,9.66,0,0,0-1.64.75c-6.66,3.87-11.42,8.22-15.31,14.89A70.93,70.93,0,0,0,96,121.38c-4.09,14.42-6,29.42-3.68,44.36.4,2.52.93,5,1.57,7.49a55.8,55.8,0,0,0,11.82,30.83,61.58,61.58,0,0,0,13.75,12.58c4.39,4.53,9.51,8.6,15.1,10.86a24.43,24.43,0,0,0,10.81,1.78,62.35,62.35,0,0,0,15.9,4.6c5.34.77,11.9.36,16.23-2.46l.24,0c1.94.37,3.88.68,5.82.89a13.94,13.94,0,0,0,5.78-.63c.85,0,1.7-.06,2.54-.12,11.14-.76,19.75-6.74,27-14.75a32,32,0,0,0,4.94-2.27c3.56-2.07,6.23-5.14,8.73-8.36a79.74,79.74,0,0,0,10.16-16,51,51,0,0,0,15.53,15.67,21,21,0,0,0,4.81,2.3c4.39,7.74,9.06,15.31,14.92,22.08a2,2,0,0,0,1,.65c.1.25.2.49.29.74a1.66,1.66,0,0,0,.4,1.28l.23.29c.66,1.66,1.31,3.32,2,5a1.65,1.65,0,0,0,.54.69,11.47,11.47,0,0,0,.12,6.15.91.91,0,0,0,1.62.27c1.31-1.85,1.45-3.62,2-5.85a53.79,53.79,0,0,1,3.41-9.71,68.11,68.11,0,0,1,10.81-16.36,106.5,106.5,0,0,1,15.05-13.89c4.22-3.27,10.14-6,12.8-10.78C328.3,188.39,328.17,188,327.85,188.07Z"/><path class="cls-3" d="M179.13,61.55c4.21,0,4.51-6.56.28-6.56s-4.52,6.56-.28,6.56Z"/><path class="cls-3" d="M180.82,61.21a36.25,36.25,0,0,1,5.4,9.54c1.31,3.48,1.6,7.2,2.71,10.73a1.32,1.32,0,0,0,2.41-.08c2.43-8.12-3-16.83-9-21.81-1-.83-2.32.64-1.54,1.62Z"/><path class="cls-3" d="M196,57.69c1.87,5.43,3.41,10.81,3.58,16.59.15,4.87-.76,9.68-1.41,14.5-.16,1.24,1.71,2,2.37.89,5.9-10,4.4-24.18-2-33.59-1-1.52-3,.13-2.51,1.61Z"/><path class="cls-3" d="M214,64.43a76,76,0,0,1-1.29,21c-1.37,6.11-3.87,11.74-6.13,17.55a1.27,1.27,0,0,0,2.2,1.2c9.32-10.59,11.32-27.27,7.31-40.4-.39-1.29-2.16-.52-2.09.63Z"/><path class="cls-3" d="M228.31,68.09a30.82,30.82,0,0,1-.42,7.85c-.49,2.42-1.31,4.76-1.65,7.2-.15,1.09,1.18,1.38,1.81.72,4-4.15,3.73-11.19,1.87-16.24-.35-1-1.66-.43-1.61.47Z"/><path class="cls-3" d="M247.2,72.8c-.77,6.19-.85,12.39-2,18.55-1.15,5.84-2.79,11.57-4,17.39-.34,1.62,2.22,2.44,3,1.08,6.17-10.43,8.91-25.31,6.86-37.28-.38-2.21-3.55-1.83-3.8.26Z"/><path class="cls-3" d="M262.16,81.73c-1.71,2.79-1.44,6.67-2.38,9.87-1.38,4.67-3.15,9.14-4.3,13.88-.28,1.15,1.41,1.6,2,.79,3.38-4.47,5.23-9.54,6.57-15,.77-3.16,2.2-7.54-.82-9.73a.78.78,0,0,0-1.09.15Z"/><path class="cls-3" d="M273.81,92.84c-1.67,2.31-1.67,4.94-2.25,7.68a71.7,71.7,0,0,1-2.57,9.31c-2.32,6.49-6,12.1-9.23,18.14-.77,1.46,1.28,2.37,2.34,1.65,6.15-4.17,10.15-11.17,12.39-18.14,1.67-5.16,4-14,.43-18.65a.71.71,0,0,0-1.11,0Z"/><path class="cls-3" d="M294.06,115.55c-3.13,4.84-6.32,9.62-9.17,14.63-.67,1.19.68,2.79,1.87,1.75a40.48,40.48,0,0,0,10.44-14.77c.82-1.86-2.05-3.29-3.14-1.61Z"/><path class="cls-3" d="M304.83,130.66c-2.1,1.9-3.88,4-5.83,6.08s-3.89,3.76-5.17,6.08a1.4,1.4,0,0,0,1.71,2.06c2.58-1.18,4.57-3.32,6.44-5.39a36.78,36.78,0,0,0,5.15-6.72c.8-1.46-.87-3.39-2.3-2.11Z"/><path class="cls-3" d="M310.68,140.89c-2.77,1-3.82,3.64-5.46,6-2.08,3-4.2,6-6.53,8.76-4.94,5.92-10.62,11-16.08,16.46-.74.73,0,2.32,1,1.71A69,69,0,0,0,301,159.18a93.17,93.17,0,0,0,7.33-9.24c1.76-2.58,4.11-5.2,3.54-8.42a.84.84,0,0,0-1.14-.63Z"/><path class="cls-3" d="M324.86,166.3c-3.19,1.4-5.71,4.54-8.28,6.84-2.8,2.51-5.64,5-8.42,7.51a1.2,1.2,0,0,0,1.25,2,60.58,60.58,0,0,0,9.76-5.76c3.12-2.25,6.77-4.64,8.5-8.15.85-1.71-1.37-3.09-2.81-2.46Z"/><path class="cls-3" d="M326.17,180.1c-2.39.92-4.32,3.34-6.22,5-2.07,1.82-4.14,3.64-6.1,5.56a1.2,1.2,0,0,0,1.25,2,24.77,24.77,0,0,0,7.51-4c2.14-1.63,5-3.93,5.74-6.63a1.61,1.61,0,0,0-2.18-2Z"/><path class="cls-3" d="M157.1,65c.38,2.63,2.7,4.32,4.07,6.47,1.49,2.34,2.57,4.94,3.89,7.38.61,1.12,2.59,1,2.63-.46a15.25,15.25,0,0,0-2.88-9.08c-1.64-2.47-3.68-5.46-6.95-5.35a.91.91,0,0,0-.76,1Z"/><path class="cls-3" d="M146.16,72.13c.13,1.74,1.77,3,2.78,4.32s1.91,3.15,3.5,3.58a1.16,1.16,0,0,0,1.46-.64c.54-1.93-.86-3.75-2-5.19s-2.58-3.39-4.53-3.34a1.12,1.12,0,0,0-1.2,1.27Z"/><path class="cls-3" d="M133,79a93.36,93.36,0,0,1,10.51,13c2.8,4.42,4.67,9.31,7.33,13.79a1.41,1.41,0,0,0,2.65-.85C152.43,94,143.68,83,134.78,77.11c-1.17-.77-2.79.75-1.75,1.87Z"/><path class="cls-3" d="M112.21,95.26c6.15,5.44,9.85,13,15.42,18.94.75.81,2.56.3,2.18-1-1.58-5.44-4.66-9.91-8.22-14.26-2.07-2.53-5.7-8.43-9.44-5.62a1.23,1.23,0,0,0,.06,1.93Z"/><path class="cls-3" d="M101.06,113.36c2.52,1.64,5.26,2.84,7.76,4.55,2.29,1.56,4.24,3.39,7,3.92,1,.19,1.51-.91,1.21-1.68-2-5-10.34-9.72-15.61-8.3-.63.17-1,1.07-.38,1.51Z"/><path class="cls-3" d="M95.44,130.16c4.34-1.37,9.11-1.69,13.3-3.39,1.14-.46.64-1.91-.35-2.14-4.6-1.07-9.68.87-13.81,2.82-1.4.67-.73,3.21.86,2.71Z"/><path class="cls-3" d="M90.83,164.37c3-.74,5.55-3.39,8.16-5,2.93-1.85,5.93-4,9-5.58a1,1,0,0,0-.85-1.88c-3.65,1.12-6.75,2.08-10,4.22-2.64,1.73-6.25,3.8-7.43,6.84a1.06,1.06,0,0,0,1.15,1.43Z"/><path class="cls-3" d="M98.93,188.87c3.07-10.08,14.34-16.05,21.86-22.49.83-.71.26-2.48-1-2.11-9.81,3-23.07,13.13-22.21,24.43a.68.68,0,0,0,1.3.17Z"/><path class="cls-3" d="M108.35,205.59c2.87-5.34,5.15-11,8.53-16a99.71,99.71,0,0,1,12.69-14.83c.73-.73.07-2.19-1-1.67-11.53,5.54-22,18.9-22.1,32.06a1,1,0,0,0,1.9.47Z"/><path class="cls-3" d="M124.71,222.38c1.42-2.6,2.43-5.35,3.66-8,1.35-2.94,3.28-5.69,3.89-8.9.23-1.19-1.25-1.65-2.06-1.1-4.78,3.21-7.72,11.67-7.86,17.15,0,1.15,1.69,2.14,2.37.89Z"/><path class="cls-3" d="M134.83,228.5c2.23-7,4.91-13.82,7.18-20.81a1.16,1.16,0,0,0-2-1.1c-5.14,5.49-8,13.76-8.35,21.22-.08,1.78,2.59,2.52,3.17.69Z"/><path class="cls-3" d="M142.82,227.11a75.63,75.63,0,0,1,6-13.92c2.36-4.22,5.29-8.09,7.2-12.55.43-1-.81-1.73-1.61-1.19-8.58,5.79-14.16,16.87-14.05,27.08,0,1.31,2,2.06,2.44.58Z"/><path class="cls-3" d="M170.29,197.5c-6.64,11.53-13.72,27.35-8,40.61a.42.42,0,0,0,.79-.24,42.83,42.83,0,0,1,.43-22.22c1.79-6.22,4.83-11.93,7.35-17.86.13-.31-.35-.6-.53-.29Z"/><path class="cls-3" d="M172.61,208.79a42.66,42.66,0,0,0,0,24.27.53.53,0,0,0,1-.2,119.55,119.55,0,0,1-.07-23.85c0-.56-.81-.78-1-.22Z"/><path class="cls-3" d="M182.32,195c-3.58,6.59-4.33,14.76-4.42,22.16-.09,6.51-.18,15.34,4.81,20.23.46.45,1.4.12,1.2-.6a70.11,70.11,0,0,1-3-19.78c.05-7.36,1.85-14.4,2.35-21.68,0-.45-.66-.79-.91-.33Z"/><path class="cls-3" d="M185.65,209.74c-2.2,2.37-.78,5.6.1,8.33,1.63,5,3.25,10.31,6,14.8.32.52,1.23.32,1.08-.37-1.69-7.74-5.86-14.65-6.61-22.61,0-.32-.42-.34-.6-.15Z"/><path class="cls-3" d="M201.48,189.91c-.74,7.11,1.54,13.78,4.46,20.18,2.23,4.9,4.94,10.09,10.2,12.19a.45.45,0,0,0,.42-.78c-9.65-6.69-13.63-20.48-14.49-31.61,0-.33-.55-.31-.59,0Z"/><path class="cls-3" d="M209.67,198.9c1,4.34,4.83,8.87,8,11.89,3,2.86,6.66,5.07,10.89,5.22a.47.47,0,0,0,.21-.9,26.2,26.2,0,0,1-11.53-7.3c-2.57-2.86-4.23-6.69-7.16-9.17a.27.27,0,0,0-.43.26Z"/><path class="cls-3" d="M218,196.77c4,5.26,12.28,12.6,19.42,11.68.66-.09.56-.93.09-1.16-3.28-1.63-6.74-2.45-9.88-4.48s-5.92-4.61-9.12-6.58a.38.38,0,0,0-.51.54Z"/><path class="cls-3" d="M224.47,192.05c6.34,1.33,12.05,8.66,18.81,3.66.45-.33.05-1-.42-.9-4.81.56-7.77.37-12-2-2.06-1.17-4-2.11-6.41-1.43a.36.36,0,0,0,0,.7Z"/><path class="cls-3" d="M233.44,140.26c-3.17,3.63-5.73,7.59-9.48,10.72a59.34,59.34,0,0,1-13.3,8,.52.52,0,0,0,.32,1c9.44-2.14,20.2-9.71,23.53-19.16.25-.7-.64-1-1.07-.55Z"/><path class="cls-3" d="M235,152.23c.43.51-5.3,5.74-5.85,6.21a79.57,79.57,0,0,1-7.39,5.24c-.41.28,0,.83.42.69a27.62,27.62,0,0,0,10.55-7.16c.88-.9,4.67-4.25,2.81-5.55a.4.4,0,0,0-.54.57Z"/><path class="cls-3" d="M238.9,164.79c-3.82,1.41-7.74,2.76-11.51,4.27a.45.45,0,0,0,.14.85,19,19,0,0,0,11.72-4.53.35.35,0,0,0-.35-.59Z"/><path class="cls-3" d="M239.39,169.31c-5.8,5.72-17.58,6.16-25.24,7.33-.6.09-.57,1.1.06,1.1a67.66,67.66,0,0,0,17.84-2.53c3.43-1,6.52-2,8-5.45.15-.35-.33-.74-.62-.45Z"/><path class="cls-3" d="M180.72,130.31c4.64,6.6,6.4,14.26,7.92,22,.1.51,1,.52.94,0a37.56,37.56,0,0,0-2.9-13.41c-1-2.54-2.7-8.29-5.71-9-.26-.06-.38.27-.25.45Z"/><path class="cls-3" d="M191.62,128.91c1.46,6.77,3.64,12.25,2.54,19.34a.35.35,0,0,0,.67.17c2.14-6.26.36-14-2.73-19.64-.13-.23-.54-.17-.48.13Z"/><path class="cls-3" d="M201.9,128.89c.06,2.25.67,4.41.61,6.7a33.81,33.81,0,0,1-.92,6.64c-.1.42.53.52.69.17,1.79-3.88,2.64-9.75.37-13.64-.17-.28-.76-.31-.75.13Z"/><path class="cls-3" d="M213,130.22c-2.21,4.18-3.07,8.93-5.25,13.18s-5.19,8-8,11.88a.61.61,0,0,0,.9.81c6.8-5.29,13.86-16.89,12.77-25.81a.25.25,0,0,0-.47-.06Z"/><path class="cls-3" d="M161.94,138.67c2,1.49,4.13,2.83,6.07,4.4a19.14,19.14,0,0,1,5,6.37.46.46,0,0,0,.86-.27c-1.07-5.5-7-9-11.74-10.88a.22.22,0,0,0-.22.38Z"/><path class="cls-3" d="M155.5,146.14c4.11,1.21,6.91,3.65,9.73,6.74a.38.38,0,0,0,.64-.39c-1.62-4.05-6-6.54-10.23-6.9-.31,0-.47.46-.14.55Z"/><path class="cls-3" d="M151.67,156.63c3-.59,5.56,0,8.53.38a.34.34,0,0,0,.24-.61c-2.54-1.86-6.22-1.51-8.94-.34a.3.3,0,0,0,.17.57Z"/><path class="cls-3" d="M160.49,181.63A41.87,41.87,0,0,1,168.44,160c.25-.35-.25-.88-.57-.54a29,29,0,0,0-8,22.15c0,.36.6.34.64,0Z"/><path class="cls-3" d="M167.05,183.43c1.32-4.85,2.95-9.6,4.44-14.4a.29.29,0,0,0-.53-.22,50.22,50.22,0,0,0-4.74,14.43.43.43,0,0,0,.83.19Z"/><path class="cls-3" d="M175.94,178.44c-1.61-5-.94-9.06,1.76-13.49.2-.35-.19-.78-.53-.51-4.11,3.27-4.83,10.14-1.76,14.32.22.31.63,0,.53-.32Z"/><path class="cls-3" d="M184.93,174.8c-1.47-2.66-1.65-5.32-2.14-8.23a.34.34,0,0,0-.65-.07c-1,3,.27,6.33,2,8.77.3.4,1,0,.75-.47Z"/><path class="cls-3" d="M189.64,170.43c-.36-1.1-1-2.05-1.32-3.16-.27-1-.2-2.08-.75-2.91a.38.38,0,0,0-.6,0c-.75.93-.36,2.53,0,3.57a5.07,5.07,0,0,0,2.07,3,.41.41,0,0,0,.61-.49Z"/><path class="cls-3" d="M270.28,85c-2.23,2.23-1.84,6.08-2.53,9-1,4.41-3.11,8.51-4.06,12.91-.14.65.65,1.42,1.21.8,2.91-3.18,4.36-7.47,5.44-11.58.84-3.19,2.65-8.23.5-11.11a.4.4,0,0,0-.56-.06Z"/><path class="cls-3" d="M256.24,76.69c-.76,2.67-.62,5.45-.78,8.21a32,32,0,0,1-2,9.42c-.27.73.72,1.13,1.17.58,3.77-4.65,3.61-12.54,2.56-18.13-.09-.45-.81-.57-.95-.08Z"/><path class="cls-3" d="M219.92,62.32c2.9,1.8,2.24,8.95,2.27,11.69,0,3.63-.2,7.27-.52,10.88,0,.65,1,.91,1.16.24a45.57,45.57,0,0,0,1-17c-.3-2.5-.38-6.22-3.37-6.87-.6-.14-1.16.66-.54,1Z"/><path class="cls-3" d="M205,58.71c3.16,10.23,2,19.48.39,29.86a.63.63,0,0,0,1.22.26c2.75-9.71,4.78-21.27-.31-30.58-.36-.66-1.54-.33-1.3.46Z"/><path class="cls-3" d="M140.28,73.2c4.34,4.92,8.1,10.1,12.1,15.28a.46.46,0,0,0,.77-.48c-2.52-6-7.13-11.54-12-15.74-.55-.47-1.3.41-.83.94Z"/><path class="cls-3" d="M127.45,81.7c5,5.47,9.87,11,15,16.32a.41.41,0,0,0,.63-.51c-4.52-5.91-9.47-11.38-14.55-16.81a.75.75,0,0,0-1.11,1Z"/><path class="cls-3" d="M106.69,101.28c3.71,3.27,6.9,7,10.32,10.54a.49.49,0,0,0,.75-.63,44.6,44.6,0,0,0-10.54-10.65c-.48-.36-1,.36-.53.74Z"/><path class="cls-3" d="M92.34,180.07c1.63-2.77,2.91-5.71,4.61-8.44A86.52,86.52,0,0,1,105.1,161c.4-.47-.32-1.09-.78-.71-5.8,4.78-11,12.11-12.65,19.54a.37.37,0,0,0,.67.26Z"/><path class="cls-3" d="M102.42,200.42c1.55-2.13,2.27-4.93,3.28-7.34,1.16-2.75,2.43-5.48,3.33-8.32a.47.47,0,0,0-.81-.43,35.35,35.35,0,0,0-4,7.69c-1,2.53-2.32,5.45-2.3,8.19,0,.26.32.45.5.21Z"/><path class="cls-3" d="M89.76,155.49c5.25-4,10.92-6.31,17.08-8.49.69-.25.25-1.25-.4-1.16-6.61.85-12.66,4.27-17.66,8.56-.72.62.24,1.65,1,1.09Z"/><path class="cls-3" d="M117.47,216.68c.21-4.27.37-8.71,3.11-12.2.2-.25-.17-.64-.41-.4-3.34,3.33-3.72,8-3.71,12.51,0,.64,1,.75,1,.09Z"/></g><path class="cls-4" d="M333.45,193.76c4.41-29.82-16.36-57.88-32.93-80.57-9-12.31-18.42-24.53-30.5-34-11.65-9.11-25.27-15.14-39.32-19.49-15-4.63-30.81-7.62-46.52-6.88-15.55.73-29.88,5.5-43.2,13.46C117.3,80.45,94.62,100.44,88.3,128.42c-6.29,27.8-3.5,62.86,16,85,19.73,22.43,51.07,28.63,79.54,24.33,26.74-4,57.27-17.68,64.44-46.43,3.52-14.17-.19-30.82-5.61-44.11s-15.5-21-29.62-23.68c-25.75-4.94-60.32-.87-69.78,28.13a31.76,31.76,0,0,0,8.4,32.43c9.49,8.7,23.57,8.7,33.91,1.39a34.82,34.82,0,0,0,11.59-14.05c2.46-5.4-5.25-10.09-8.13-4.68-4.83,9.07-16.05,17.68-26.63,12.52-9-4.38-12.22-16.09-9.21-25.1,8.19-24.52,42.33-25.67,62.94-19.84,12.62,3.56,17.55,13.72,20.77,25.54,3.45,12.67,5.57,25.71-.78,37.83-11.86,22.63-40.53,31.22-64.39,32.4C147.29,231.33,120.9,223,106.52,202,99.3,191.47,96,178.83,94.86,166.24c-1.14-13.21-.76-27.15,3-39.95,6.83-23.54,27.24-40.35,47.52-52.46,11.69-7,24.22-11.52,37.9-12.25,13.86-.74,27.62,1.65,40.9,5.45s26.41,9,37.72,17.15c11.95,8.6,21.23,20.39,29.88,32.16,17.22,23.45,33,47.36,35.41,77.12.33,4,5.71,4.38,6.31.3Z"/><path class="cls-4" d="M286.69,246.42c-3.32-13-12.32-25.27-19.95-36.13-4-5.72-15.08-22.07-23.9-16.78a1.85,1.85,0,0,0-.86,2.37c1.56,4.21,7.09,6.62,10.17,9.63,4,3.94,7.23,8.6,10.39,13.22,6.63,9.7,12.22,20.94,20.28,29.55,1.42,1.51,4.44.41,3.87-1.86Z"/><path class="cls-4" d="M236,69.61c.73,10.6-3.92,20.6-6,30.81-.46,2.24,3,3.22,4.09,1.46C240.5,92,244,80.32,240.35,68.77a2.22,2.22,0,0,0-4.36.84Z"/><path class="cls-4" d="M280.32,102.38a115.47,115.47,0,0,1-6,15.43c-2.19,4.66-3.92,9.82-6.38,14.3-1,1.79,1.24,4.51,2.92,2.69,4.14-4.47,7.75-8.18,10.21-13.93a62.89,62.89,0,0,0,4.38-17.45c.35-3-4.3-3.91-5.16-1Z"/><path class="cls-4" d="M318.31,151.12c-4.44-.21-7.41,5.73-9.88,8.76-3.35,4.12-7,8.25-9.23,13.13-1,2.14,1.59,3.67,3.37,3,5.92-2.21,10.37-7.46,13.82-12.55,1.21-1.79,7.61-12.07,1.92-12.34Z"/><path class="cls-4" d="M165.61,60.54c.56,5.25,4.41,8.19,7.31,12.26,3.75,5.25,4.42,11.77,6.91,17.58a1.83,1.83,0,0,0,3.45-.6c.79-5.88-1.1-12.5-4.1-17.58-2.84-4.82-7.38-8.41-10.49-13.07-1.05-1.58-3.24-.15-3.08,1.41Z"/><path class="cls-4" d="M118,85.18c3,5,6.81,9,10.58,13.43,4,4.68,7,10.31,11.67,14.37,1.86,1.62,4.1-.67,3.91-2.59-.64-6.26-4.8-11.55-8.76-16.18C131,89,125.92,85,119.24,83.52A1.2,1.2,0,0,0,118,85.18Z"/><path class="cls-4" d="M89.06,143.48c5.21,1,9.42-.79,14.54-1.38,4.65-.54,9.11,1.42,13.66.91a2.31,2.31,0,0,0,1.81-2.67c-2-13-24.82-7.22-30.94-1.52-1.35,1.25-1.22,4.24.93,4.66Z"/><path class="cls-4" d="M114.13,212.41c3.62-7.49,9.19-13.79,14.16-20.39a1.29,1.29,0,0,0-1.55-1.93c-8.6,4.31-13,12.65-15.07,21.7-.34,1.49,1.87,1.85,2.46.62Z"/><path class="cls-4" d="M151.07,232.24c3.23-2.77,3.76-8.08,5.21-12,1.6-4.28,3.58-8.36,4.52-12.85.35-1.7-1.9-2.51-3.07-1.62-4,3.11-6.4,7.67-8.22,12.36-1.51,3.9-3.79,9.36-1.74,13.35a2.16,2.16,0,0,0,3.3.71Z"/><path class="cls-4" d="M202.58,227.2c-.62-4.43-1.16-8.9-1.74-13.35s-.34-9.29-1.76-13.71c-.58-1.8-3-2.66-4.17-.88-6.1,8.93-2.28,22.05,4.38,29.47a1.89,1.89,0,0,0,3.29-1.53Z"/><path class="cls-4" d="M244,175c-3.64.32-7.09,1.55-10.72,2.1s-7.12,1.23-10.68,2.1a2,2,0,0,0-.34,3.84,23.82,23.82,0,0,0,24.07-1.86c2.39-1.77.67-6.44-2.33-6.18Z"/><path class="cls-4" d="M225.09,135.66c-3.32,2.3-5.59,6.19-8.23,9.19-2.86,3.26-6.12,6.44-8.26,10.24-.94,1.67.56,4,2.53,3,5.09-2.44,8.88-7,12.35-11.31,2-2.44,7.15-7.58,4.29-10.89a2,2,0,0,0-2.68-.24Z"/><path class="cls-4" d="M173.12,134.07c-1.44-.26-1.29-1.36-.7.48a20,20,0,0,0,1.21,2.51,42.87,42.87,0,0,1,2.53,6.2c1.05,3.5,1.71,6.88,3.62,10.06a1.74,1.74,0,0,0,3.16-.11c2-4.68.82-9.3-.95-13.89-1.41-3.63-3.44-8.76-7.28-10.37a2.69,2.69,0,0,0-2.66.53c-1.75,1.54-1.44,4.13,1.07,4.59Z"/><path class="cls-4" d="M150.06,170.46c3.59-1,8.39-2.31,11.17-4.86a2,2,0,0,0-.57-3.35c-4-1.27-9.18.35-12.83,2.18-3.23,1.63-1.35,7,2.23,6Z"/></g></g></g></g><g id="PixelsASSETS"><g id="Cuerno"><rect class="cls-5" width="464" height="265"/></g></g></g></g></svg>