<svg xmlns="http://www.w3.org/2000/svg" viewBox="0 0 464 265"><defs><style>.cls-1{isolation:isolate;}.cls-2,.cls-3,.cls-7,.cls-8{fill:#8cc63f;stroke:#006837;}.cls-2,.cls-3,.cls-4,.cls-7,.cls-8{stroke-linecap:round;stroke-linejoin:round;}.cls-2{stroke-width:5.47px;}.cls-3{stroke-width:1.16px;}.cls-4{fill:#a67c52;stroke:#42210b;stroke-width:6px;}.cls-5{fill:#c7b299;}.cls-6{fill:#42210a;}.cls-7{stroke-width:7.75px;}.cls-8{stroke-width:1.64px;}.cls-9{fill:none;mix-blend-mode:multiply;opacity:0.4;}</style></defs><g class="cls-1"><g id="Layer_2" data-name="Layer 2"><g id="Variación_A" data-name="Variación A"><g id="AssetsE3"><g id="HornE3"><path class="cls-2" d="M297.39,59.05S280,78,261.73,72.79s-23.28-20-23.28-20,22.33-18.2,38.39-11S297.39,59.05,297.39,59.05Z"/><path class="cls-3" d="M295.78,60.66s-21.63-1-31-2.37-10.92-1.87-10.92-1.87"/><path class="cls-4" d="M286.24,242.58s-39.73-92-71.73-131-83-69-80-71,67-6,116,41c34.07,32.68,87.43,106.55,87.43,106.55s-21.15,18.11-29.79,23.78S286.24,242.58,286.24,242.58Z"/><path class="cls-4" d="M376.83,178.46s-22.28-56-49.84-96.78c-28.48-42.11-80.36-62.12-80.36-62.12S303.2.22,348.36,40.39,437.77,181.9,437.77,181.9s-7.12-3.55-25.19-3.44-35.94,9.95-35.94,9.95Z"/><path class="cls-5" d="M199.94,68.17s25,12,39,27,19,25,35,38,42.68,55.24,42.68,55.24l-34.28-33.28c-15.4-15-13.4-24-29.4-37s-18-29-30-32-35-26-35-26Z"/><path class="cls-5" d="M297.25,201.23s-13.06-6.49-20.68-22.77S256.31,149,256.31,149s-2.37,28.13,8.63,34.13,24.85,22.21,24.85,22.21L302.08,212Z"/><path class="cls-5" d="M394.11,133.18s-22.05-40-30.61-54-17.56-22-25.56-26.5-16.7-13.15-16.7-13.15,13.22,27,21,31.85,5.21,2.52,15.47,17.66,41.27,58.14,41.27,58.14Z"/><path class="cls-6" d="M201.56,94.34s-14.24,6.51-20.09,8.46S205,107.19,205,107.19Z"/><path class="cls-2" d="M189,101.24s-10.64,23.47-29.59,24.19-28.34-11.68-28.34-11.68,15.52-24.26,33-22.39S189,101.24,189,101.24Z"/><path class="cls-3" d="M188,103.27s-20.87,5.8-30.18,7.43-11,1.64-11,1.64"/><path class="cls-7" d="M256,177.82s-32.69-12-31.84-38.52A58,58,0,0,1,243.73,98s33.34,18.76,28.91,43.62S256,177.82,256,177.82Z"/><path class="cls-8" d="M253.17,176.63s-6.28-28.59-7.7-41.48S244.2,120,244.2,120"/><path class="cls-8" d="M236.51,131.05a40.31,40.31,0,0,0,10,11.4"/><path class="cls-8" d="M254.37,124.11a129.64,129.64,0,0,1-8.9,11"/><path class="cls-8" d="M249.12,157s-8.29-3.61-13.68-9.77"/><path class="cls-8" d="M248.69,154.8s5-1.84,11.73-7.72"/><path class="cls-6" d="M274.27,194.27s-14.38-10.54-19.84-15,14.42,20.34,14.42,20.34Z"/><path class="cls-2" d="M257.24,182.49S244.91,205.12,226,204.43s-27.42-13.73-27.42-13.73,17.27-23,34.61-19.89S257.24,182.49,257.24,182.49Z"/><path class="cls-3" d="M256.06,184.43s-21.23,4.25-30.64,5.2-11,.83-11,.83"/><path class="cls-3" d="M221.45,195.83a36,36,0,0,0,9.32-6.89"/><path class="cls-3" d="M218.51,183.42a71.82,71.82,0,0,1,6.91,6.21"/><path class="cls-3" d="M241.5,187.17a38.33,38.33,0,0,1-8.57,9.45"/><path class="cls-3" d="M239.88,187.46a23.79,23.79,0,0,0-4.2-8.16"/><path class="cls-6" d="M388.08,87.56s6.86-.39,13.86-11.39l7-11s7.71,3.27,1.85,13.63-10.26,29.25-10.26,29.25Z"/><path class="cls-2" d="M412.92,71.08s-25.53,3.49-36.22-12.17-5.21-30.21-5.21-30.21,28.81.23,36.55,16.06S412.92,71.08,412.92,71.08Z"/><path class="cls-3" d="M410.66,71.29s-16-14.58-22.36-21.6-7.22-8.4-7.22-8.4"/><path class="cls-3" d="M381,50.18A36.32,36.32,0,0,0,392,53.6"/><path class="cls-3" d="M389.2,40.45a72.45,72.45,0,0,1-.9,9.24"/><path class="cls-3" d="M399.81,61.19a38.63,38.63,0,0,1-12.69-1.3"/><path class="cls-3" d="M398.62,60.05a23.64,23.64,0,0,0,4.08-8.22"/><path class="cls-2" d="M407.63,74.11S404.26,48.56,420,37.94s30.24-5,30.24-5S449.85,61.7,434,69.36,407.63,74.11,407.63,74.11Z"/><path class="cls-3" d="M407.43,71.84s14.66-15.94,21.71-22.25,8.44-7.17,8.44-7.17"/><path class="cls-3" d="M428.69,42.25a36,36,0,0,0-3.47,11"/><path class="cls-3" d="M438.38,50.54a71.62,71.62,0,0,1-9.24-.95"/><path class="cls-3" d="M417.58,61.05a38.86,38.86,0,0,1,1.36-12.68"/><path class="cls-3" d="M418.72,59.87a24.07,24.07,0,0,0,8.2,4.12"/></g></g></g><g id="PixelsASSETS"><g id="Cuerno"><rect class="cls-9" width="464" height="265"/></g></g></g></g></svg>