<svg xmlns="http://www.w3.org/2000/svg" viewBox="0 0 464 265"><defs><style>.cls-1{isolation:isolate;}.cls-2{fill:#a67c52;}.cls-3{fill:#ce2527;}.cls-4{fill:#42210b;}.cls-5{fill:none;mix-blend-mode:multiply;opacity:0.4;}</style></defs><g class="cls-1"><g id="Layer_2" data-name="Layer 2"><g id="Variación_B" data-name="Variación B"><g id="AssetsE3"><g id="HornE3"><path class="cls-2" d="M324,195.24l-.16.06c.18-.14.36-.28.53-.43a.73.73,0,0,0-.58-1.24,18.11,18.11,0,0,0-3.23.74,23,23,0,0,0-6.13-5.62,1.86,1.86,0,0,0-1.23-2.94,46.32,46.32,0,0,1-7.89-2.81A54.07,54.07,0,0,1,295,175.74a7.8,7.8,0,0,0-4.07-2.05,5.84,5.84,0,0,0-9.2-4.6,86.8,86.8,0,0,0-9.21-17.23,60.66,60.66,0,0,0-1.2-9.54c-1.14-5.88-3.89-16.57-11.4-18a3.27,3.27,0,0,0-1,0c-.05-.12-.11-.23-.15-.33l-.28-.5-.51-.9c-.83-1.55-3.54-.23-2.79,1.39a8,8,0,0,0,1.45,2.52c-.35,3.1,1.06,5.34,2.26,8.28.11.27.2.54.3.81-4.71,5.31.07,18,1.95,23.17a66.73,66.73,0,0,0,5.36,11.92,7.31,7.31,0,0,0-3.63,1.46,7.47,7.47,0,0,0-5.65-.12,11.62,11.62,0,0,0-2,1,15.45,15.45,0,0,0-4.32-1.32,10.79,10.79,0,0,0-8,1.76,7.54,7.54,0,0,0-3.63.71,7.9,7.9,0,0,0-6.53-.47,6.68,6.68,0,0,0-2.25-.6,79.89,79.89,0,0,0-2.07-11.39,33.45,33.45,0,0,0-2.35-9.77,36.41,36.41,0,0,0-2.91-6.08,4.67,4.67,0,0,0-.88-1.33c-.26-.36-.53-.71-.8-1.05a67,67,0,0,0-6.31-10.95,4.36,4.36,0,0,0-1-1,106.74,106.74,0,0,0-6.92-9.16,2.88,2.88,0,0,0,1.54-3.82,3.29,3.29,0,0,0,1.25-3.84c-.14-.42-.29-.83-.43-1.25a3.91,3.91,0,0,0,.49-3.57c.07-.9.14-1.9.17-2.94a76.47,76.47,0,0,0,.41-9c0-.12,0-.22-.05-.34a6.69,6.69,0,0,0-.17-1,61.57,61.57,0,0,0-6.87-16,4.53,4.53,0,0,0-1.87-1.73c-.49-.66-1-1.3-1.54-1.92a4.33,4.33,0,0,0-.91-5.43,76.91,76.91,0,0,1-9.89-10.36A3.77,3.77,0,0,0,187,59.6,47.94,47.94,0,0,1,178,32.45c-.11-5.58-8.25-6.56-9.73-1.16-2.69,9.89-5.22,20.83-1.06,30.7,3.3,7.82,10.28,14.19,16.81,20.16a33.78,33.78,0,0,0,6.65,6,4.45,4.45,0,0,0,1.93.79,4.17,4.17,0,0,0,.3,2.86l4.07,8.64,1.32,3.79a3.47,3.47,0,0,0-1.19,2.09,78.11,78.11,0,0,1-10.25-6.93c-3.6-2.87-8.61,3.36-5.05,6.35,1.63,1.36,3.23,2.76,4.84,4.17a2.65,2.65,0,0,0-.45,3.67c5.26,7,10.87,13.76,16.05,20.82a69.6,69.6,0,0,0,5.27,7.55,18.41,18.41,0,0,0,3.44,4.76c.19.5.36,1,.52,1.51a5.26,5.26,0,0,0-.07,1,44.61,44.61,0,0,0,2.73,13.47,3.71,3.71,0,0,0,.24.49l.21,1.47a33.75,33.75,0,0,0,.08,4.93,5.27,5.27,0,0,0-3.25,3.41c-.18.52-.33,1-.47,1.54h0a.81.81,0,0,1,0,.16l-.06.27c-.52-.18-1.05-.34-1.58-.5l-9-7c-1.62-1.58-3.21-3.21-4.72-4.92a1.87,1.87,0,0,0-3,.19l-.08-.06a1,1,0,0,0-1.51.59,1.67,1.67,0,0,0,.44,1.78.79.79,0,0,0,.58.3c1.83,2.5,3.75,4.91,5.61,7.38a2.06,2.06,0,0,0-.12,2.5c.27.38.55.73.83,1.09a2,2,0,0,0,.37.58l.4.41a57.43,57.43,0,0,0,11.25,9.88,80.51,80.51,0,0,0,6.14,5.52,1.79,1.79,0,0,0,2.55-.14,1.46,1.46,0,0,0,.39-.12,8.37,8.37,0,0,0,5.1,1.66,138.26,138.26,0,0,0,16.45-1.1c3.31.25,6.62.6,10,1l1.74.17a7.76,7.76,0,0,0,5.84.67,31.5,31.5,0,0,0,3.4,2.11,6.08,6.08,0,0,0,1.42,1.53,5.42,5.42,0,0,0,1.2,2.48,10.79,10.79,0,0,0,.51,1.55,6.18,6.18,0,0,0,3.09,3.08l0,.1c-1,4.06,2.68,7,6.63,7.44a6.16,6.16,0,0,0,1.2,3c0,.06-.05.11-.07.17-2.5,5.89,3.17,9.71,8.28,8.7l.18,2.08a1.67,1.67,0,0,0,1.8,1.32,21.26,21.26,0,0,0-.91,3.57c-.09.6.83.68,1.14.29l.09-.13a.76.76,0,0,0,.73.06c1.19-.55,1.66-2.7,2.08-3.72.07-.15.12-.29.18-.43l.55-.81.08-.13a69.61,69.61,0,0,1,6.42-8.71,69.58,69.58,0,0,1,10.46-11.09c5-4.36,11.17-9.05,17.64-12.1A.61.61,0,0,0,324,195.24Z"/><path class="cls-3" d="M170.94,123a6.69,6.69,0,0,0-5.53-4.69,6.86,6.86,0,0,0-2.29.13,7.36,7.36,0,0,0-3.07.29,4.93,4.93,0,0,0-.53.22,7.06,7.06,0,0,0-5.19,2.07,7.37,7.37,0,0,0-1.84,3.11,2.83,2.83,0,0,0-.2.28,7.34,7.34,0,0,0,4.17,10.68,8.47,8.47,0,0,0,6.66-.74,7.53,7.53,0,0,0,7.16-3.78,6.71,6.71,0,0,0,.85-3.77A7.11,7.11,0,0,0,170.94,123Z"/><path class="cls-3" d="M295.84,117.28a5.15,5.15,0,0,0-4.36-3.6,6.55,6.55,0,0,0-2.21-.83,5.92,5.92,0,0,0-3.07.24,7.49,7.49,0,0,0-3.22,1.23c-4.47,3.06-4.78,9.6-3.16,14.32,1.88,5.47,8.19,7.77,12.58,3.44C296.25,128.28,297.28,122.34,295.84,117.28Z"/><path class="cls-3" d="M309.65,134.41A7.45,7.45,0,0,0,304,129.5c-2.08-1.76-5.71-1.15-7.8.26a8.29,8.29,0,0,0-3.56,7.26,9.24,9.24,0,0,0,11,8.54A8.55,8.55,0,0,0,309.65,134.41Z"/><path class="cls-3" d="M316,146.65a3.92,3.92,0,0,0-1.35-.59,3.53,3.53,0,0,0-4.35-.59c-3.08,1.62-5.65,2.68-9.19,2.31-3.9-.41-5.32,4.72-3.07,7.23.09.1.12,1.36.19,1.68a10.59,10.59,0,0,0,.81,2.5,10.13,10.13,0,0,0,3.31,3.81,10.53,10.53,0,0,0,9.71,1.24C319,161.64,322.91,151.48,316,146.65Z"/><path class="cls-3" d="M393.08,40.49c-1.4-2.75-4.41-5-7.43-4.35a5.74,5.74,0,0,0-2.91,1,7.55,7.55,0,0,0-3.32,2.53,10.18,10.18,0,0,0-3.61,7.18c-.2,4.38,2.82,8.77,7.19,9.66a4.79,4.79,0,0,0,2.74-.22c2.71-.74,5.06-3.23,6.52-5.43A10.33,10.33,0,0,0,393.08,40.49Z"/><path class="cls-3" d="M151.72,135.8a10.84,10.84,0,0,1-2.89-7.27c0-2.77.24-5.59-2.54-7.23-3.59-2.13-7,0-8.33,3.21a5.5,5.5,0,0,0-2.89,2.66c-2.62,3.09-2.66,7.77-.57,11.77,1.24,2.36,3.19,4.76,5.83,5.61a7,7,0,0,0,4.46-.12,8,8,0,0,0,1.55-.77,7.08,7.08,0,0,0,1-.37,6.75,6.75,0,0,0,1.24-.76C151.9,142.54,154.47,138.88,151.72,135.8Z"/><path class="cls-2" d="M455.05,92.07c-.09-.42-.16-.83-.24-1.25,1.32-2,2.39-4.43.78-6a3,3,0,0,0-4.19.1C450,86.19,450,88.07,450.32,90c0,.12-.09.23-.13.37a11.49,11.49,0,0,0-2.63,3.12,2.63,2.63,0,0,0-.38.3q-4.11,4.1-7.88,8.41l-.19-.09a2.09,2.09,0,0,0-3.13.38q-2.3,3.69-4.33,7.45c-2.12,3.14-4.19,6.3-6.14,9.54a2.43,2.43,0,0,0-3.05,1.41c0,.17-.07.34-.12.51a2,2,0,0,0-2.24,1.4,7.14,7.14,0,0,0-3.29.67c-.77-2.59-4.44-6.48-8.58-9.64a86.43,86.43,0,0,1-8.23-9,2.14,2.14,0,0,0-3.68.7l-2.85-3.22c.14-.35.26-.68.36-1a36.42,36.42,0,0,0,9.31-8.52,1.8,1.8,0,0,0,.36-1.49A55.16,55.16,0,0,0,407.67,87l.3-.35a1.69,1.69,0,0,0,1.72-1c.8-1.57,1.57-3.16,2.34-4.75.49-.9,1-1.81,1.41-2.72a1.88,1.88,0,0,0,1-1.22c.16-.54.31-1.09.47-1.63a2,2,0,0,0,1.42-1.34c.93-3,1.78-6,2.57-9.09,2.59-4.2,3.79-9.42,4.73-14.12,1.11-5.56,2.4-12.2,2-18.18.31-1.56.59-3.12.8-4.68a15.48,15.48,0,0,0,.69-4.68A2.93,2.93,0,0,0,426,20.93c-.08.43-.18.84-.27,1.26a1,1,0,0,0-.64.56,50.71,50.71,0,0,0-2.46,7.84c-.65,1.38-1.32,2.74-2,4.05a50.36,50.36,0,0,1-7.41,11.43c-.36,1.34-.68,2.69-.95,4.06-1.51,3.29-2.9,6.6-4.44,9.87a3.77,3.77,0,0,0-.94-.21c.15,0,0,0-.44,0a1.61,1.61,0,0,0-.37,0h-.05l-.07,0a2.93,2.93,0,0,0-.75.27,5.24,5.24,0,0,0-1.51,1.17,7.58,7.58,0,0,0-1.67,4.16,26.15,26.15,0,0,0-.59,5.7c-1.59,2.29-3.27,4.53-4.77,6.86a31.24,31.24,0,0,1-7,10.35,2,2,0,0,1-3.23-2l-.71.63c-2.52,2.42-5,5-7.51,7.38a37.45,37.45,0,0,0-4.48-6c-3.7-3.86-8.32-6.06-13.21-8-3.58-1.43-7.33-2.68-11.11-3.8A5.9,5.9,0,0,0,351.39,72q0-7.24,0-14.48A5.19,5.19,0,0,0,350,53.88a20.3,20.3,0,0,0-2.65-7.81c-1.3-2.1-3.26-3.52-4.73-5.44s-2.48-4.19-4.38-6c-8.68-8.2-20.95-13-31.73-17.72-5.53-2.82-10.29,5.48-4.78,8.41,6,3.2,12,6.78,17.83,10.6A41.82,41.82,0,0,1,330,49.21q-.94,5.3-1.88,10.59a4.64,4.64,0,0,0-2.44,3.75c0,.54-.09,1.06-.12,1.58h0c0,.26,0,.51,0,.76s0,.25,0,.37a33.94,33.94,0,0,1-.79,6.19,5.08,5.08,0,0,0-.78,0,16,16,0,0,0-1.71-.55,10.87,10.87,0,0,0-2.85,0h0c.23-1.42.41-2.83.5-4.24a50.91,50.91,0,0,0-3.3-8.32,28.32,28.32,0,0,0-4.73-5.73,10,10,0,0,1-3.45-1.39c.79,4.47,2.43,6.49,3,11a7.05,7.05,0,0,1,0,.71,14.44,14.44,0,0,1-.61,8.27c-1.24,2.9-4,4.56-5.17,7.61-1.63,4.12,4.07,6.85,6.94,4.22a15,15,0,0,1,8.68-4c.13.06.27.13.41.18a4,4,0,0,0,2.91,1.52,4.21,4.21,0,0,0,4.2.88c1.56,1.63,4.36,2.17,6,.26,2.11-2.44,10.12,1.7,12.62,2.45,4.6,1.38,9.42,2.34,13.94,3.92,5.18,1.82,8.37,5.69,11.5,9.73-.47.36-.94.72-1.43,1v0c.93,1.27,1.73,2.63,2.45,3.85,1.83,3.07,3.42,6.26,5.05,9.43,1.07,1.5,2.19,2.94,3.35,4.36a3.33,3.33,0,0,0,.09,2.77c1.3,2.69,2.49,5.41,3.61,8.14.5,1.77,1,3.53,1.6,5.29a2.9,2.9,0,0,0-1.17,2.06,4.13,4.13,0,0,0-.65.6,3.49,3.49,0,0,0-.44.2c-2.26,1.36-4.52.08-6.58-1a3.27,3.27,0,0,0-3.85.31c-3.73-.93-7.47-1.79-11.19-2.68-1.45-1.8-5.35-3.72-5-1.64-.35-2.29-3.18-3.31-5.1-2.44a3.66,3.66,0,0,0-3-.12l-.26-.21a3.36,3.36,0,0,0-2.6-3.44,4.46,4.46,0,0,0-2.11-2.07,4.16,4.16,0,0,0-5.12-3.57l-.45-.22c-2-4.27-9.3-1.34-7.71,3.16.11.29.21.59.32.88a4.29,4.29,0,0,0,1.38,2,8.22,8.22,0,0,0,2.69,1.94c.81,1.44,1.65,2.86,2.59,4.24l.23.3,0,.12a4,4,0,0,0,3.32,4.79,4.06,4.06,0,0,0,4.66,1.06,2.79,2.79,0,0,0,.7.08,6.22,6.22,0,0,0,3-.8,3.68,3.68,0,0,0,2.81-.15,6.71,6.71,0,0,0,1.81.72l.92.24a3.25,3.25,0,0,0,2.14,1.64c7.24,1.87,14.51,3.92,21.84,5.5a5.63,5.63,0,0,0,3.26.67l3.48.63a8.06,8.06,0,0,1,.28.91,3.07,3.07,0,0,0,1.25,1.86c.35,1,.71,2,1.06,2.93a3.77,3.77,0,0,0,1.75,2.09l-.11.1c-.36,1.83-.67,3.67-.91,5.52-.1.2-.21.39-.31.58l-2.48.64c-2.19.57-1.81,3.45-.13,4.26l-1.53,2.89-.25.07a2.1,2.1,0,0,0-1.33,2.89L382.32,176a1.86,1.86,0,0,0,1.22,2.78c.64,0,1.28,0,1.94,0a2.5,2.5,0,0,0,1.36-1c.21-.32.4-.65.61-1a2.28,2.28,0,0,0,.61.11.48.48,0,0,0,.24.89l1.35.17c5.74-2.28,13.24-1.77,19.18-1.31.85.07,1.78.15,2.74.25,6.81-.25,13.48.2,19.5,2.58a27.5,27.5,0,0,0,4.43-.57.55.55,0,0,0,.44-.41c2.57-.24,3.11-3.92.29-4.13l-.37,0c.05-3.9.55-7.92-1.05-11.46,0-2.11-.13-4.22-.32-6.34a2.16,2.16,0,0,0-.11-.53,7.84,7.84,0,0,0-.23-1.07c.38-7.75-1.56-16-2.69-23.47a1.73,1.73,0,0,0-.62-1.07c.1-.13.19-.27.29-.41a1.91,1.91,0,0,0,1.06-.6c4.09-4.41,6.74-9.81,9.76-14.83L449.49,102a13.36,13.36,0,0,0,1.24-.93,19.09,19.09,0,0,0,3.42-2.91,1.77,1.77,0,0,0,.55-.67,6.69,6.69,0,0,0,1.44-4A1.56,1.56,0,0,0,455.05,92.07Z"/><path class="cls-4" d="M271.46,195.62c-2.1-2.76-4.23-6.75-7.8-8.14-.56-.22-1.3.4-.74.84,7.2,5.64,11.45,14.64,17.32,21.39.25.28.73-.06.56-.37A105.36,105.36,0,0,0,271.46,195.62Z"/><path class="cls-4" d="M291.2,201.77c-3.42.8-1.74,4.53,1,4.8a.52.52,0,0,0,.31-1c-1.06-.65-1.54-1.09-1.48-1.33a.68.68,0,0,1-.05-.58c.6-1.75,3.14-1.05,4.25-.23a5.12,5.12,0,0,1,1.15,1.26,3.17,3.17,0,0,1,.57,1.1c1,2.11.65,4.35-2.78,4.76-2.85.34-5.47-1.87-7.06-3.69-2.82-3.21-4.41-7.06-6.86-10.46-.28-.4-1.06-.18-.9.33,1.43,4.58,5.13,10.78,9.53,13.59,2.71,1.73,8.7,2.74,9.53-1.48C299.05,205.44,295.3,200.81,291.2,201.77Z"/><path class="cls-4" d="M305,192.36c-7.76-3.15-15.66-3.88-21.83-9.88-6.35-6.17-9-15.55-12.95-23-.26-.49-1.21-.15-1,.36,3.33,7.82,6.49,17.44,12.83,23.7,5.27,5.22,14.85,9.56,22.81,9.54A.35.35,0,0,0,305,192.36Z"/><path class="cls-4" d="M236.25,186.94a41.35,41.35,0,0,0-5.44-.61c-1.06-.05-2.7.23-3.71-.12l-.08-.07c-1.15.33-3-.9-3.62-1.47a4.58,4.58,0,0,1-1.61-3.25l0,0c0-.63-.05-1.25,0-1.87,0-4.2.76-8.63,0-12.77,0-.24-.5-.27-.56,0-.84,3.45-.57,7.15-.65,10.66,0,2.21-.24,4.49.85,6.54,2.5,4.69,10.06,4,14.88,3.49A.24.24,0,0,0,236.25,186.94Z"/><path class="cls-4" d="M205.38,127.15c-.45-.41-1.12.19-.72.63A88.81,88.81,0,0,1,219.77,150c.1.2.49.08.42-.14A53.93,53.93,0,0,0,205.38,127.15Z"/><path class="cls-4" d="M398.76,124.22c-.27-.32-.82,0-.65.36,3.67,7.72,5.5,15,4,23.41-1.44,8-5.47,15.31-8.6,22.83-.14.35.42.67.67.33C403.3,158.55,409.89,137.56,398.76,124.22Z"/><path class="cls-4" d="M424.39,159.94c-.33-4.78-.54-10.09-2.58-14.54-.18-.4-.76-.17-.75.2.18,5.82,2.22,11.34,1.89,17.26a21.36,21.36,0,0,1-.81,5.38l-1.37,3.07-.12,0a2,2,0,0,1-1.54,1.54,4,4,0,0,1-3.89,0,4.57,4.57,0,0,1-2.55-1.81A3.06,3.06,0,0,1,412,169a.45.45,0,0,1,0-.11.4.4,0,0,1,.07-.3l-.17,0c.05-1.35.09-2.7.14-4.06a5.43,5.43,0,0,1,.44-1.83,1.73,1.73,0,0,1,1.74-1.62,2,2,0,0,1,1.81,1.36,6.22,6.22,0,0,1,.44,2.8,6.69,6.69,0,0,1-.81,2.86c-.2.41.42.66.72.36,2-2,2.85-9.59-2-9.3-5.19.31-4.95,9.43-3.21,12.08,3,4.49,9.05,4.84,11.7.06C424.73,167.85,424.65,163.68,424.39,159.94Z"/><path class="cls-4" d="M429,125.78c2.2-5.28,6.32-9.83,8-15.29a.21.21,0,0,0-.36-.2c-4,4.55-8.47,11.8-10.16,17.49s1,12.52,2.43,18c.11.45.83.35.78-.11C428.91,139.3,426.39,132,429,125.78Z"/><path class="cls-4" d="M392.18,109c-.4-.26-.93.22-.6.58,4.62,4.92,10.34,9,14.82,14,5.13,5.79,6.22,14.21,7.08,21.37a.39.39,0,0,0,.76,0C415.81,129.85,405.06,117.5,392.18,109Z"/><path class="cls-4" d="M415.61,56.52c-2.14,12.67-9.14,22-18.69,31.07-4,3.8-8.58,6.68-12.71,10.24-2.33,2-4,4.44-3.09,7.32.06.2.36.11.4-.05,1.61-5.7,7.35-10,12.23-13.66A62.53,62.53,0,0,0,404.5,81.27c6.06-7.29,10.75-15.49,11.72-24.68C416.26,56.24,415.67,56.17,415.61,56.52Z"/><path class="cls-4" d="M290.74,235.16c-4.94-8.11-9.74-16.34-15.33-24-4.28-5.9-9-12.49-15.18-16.52-6.59-4.29-15-3.3-22.45-2.76-8.27.59-18.85,3.31-24.9-3.93-2.79-3.34-7.54,1.46-4.77,4.77,11.21,13.41,30.27,2.45,44.63,5.91,7.64,1.84,13.7,11.48,17.88,17.38,5.15,7.28,9.65,15,14.29,22.58,2.26,3.71,8.1.32,5.83-3.4Z"/><path class="cls-4" d="M175.9,23.6c-1.37,13.59-.16,25.85,9.84,36,10.49,10.64,19.48,22.14,22.63,37.11a47.18,47.18,0,0,1,1.08,12.92c-.21,2.92-1.18,5.54-1.83,8.36-1.42,6.19,1.33,9.32,5.14,13.83,9.67,11.44,16,26.2,15,41.31-.21,3.08,2.86,5,5.6,4.47,10.42-2,21.25-3.68,31.88-3.52,6.31.09,6.19-10.21.13-9.63-11.54,1.1-22.84,2-34.21,4.41l5.61,4.47c.65-14.2-4.3-27.78-12.34-39.35a81.88,81.88,0,0,0-6.76-8.55c-3.24-3.52-2.83-4.6-1.75-9,1.55-6.35,1.14-13-.05-19.44-2.53-13.68-9.83-26.2-19.27-36.28-4.83-5.17-10.66-9.51-13.22-16.35-2.43-6.49-2.66-14-3.17-20.89-.19-2.47-4-2.17-4.26.18Z"/><path class="cls-4" d="M247.33,118.9a36.75,36.75,0,0,0,11.78,7.2c2.69,1.11,6.69,1.49,7.34,5,.34,1.83-.61,4.21-.56,6.14.26,9.31,7.3,16.13,10.11,24.59,1.23,3.68,1.31,6.67,4.88,8.85,4.82,2.94,10.06,5.3,14.94,8.16a314.29,314.29,0,0,1,28.66,18.69c4,3,8.17-3.57,4.17-6.51a233.29,233.29,0,0,0-28-18c-4.8-2.57-9.73-4.87-14.64-7.21-3.75-1.79-4.12-7.62-6-11.28-2-3.94-4.62-7.63-6.3-11.75-1.93-4.73-.45-8.64-1.12-13.4-.5-3.58-2.79-5.74-6.09-6.91-5.84-2.07-11.09-4.41-16.74-7-1.92-.88-4,1.93-2.45,3.45Z"/><path class="cls-4" d="M246.2,119.34c2.41,3.89,5,7.88,6.36,12.28s.39,8.58,1.11,13c1.51,9.13,5.53,19.53,9.93,27.64,1.74,3.22,7.66,1.49,6.33-2.27-3.4-9.59-9.7-20-9.53-30.44.15-9.37-4-15.95-9.89-23-1.83-2.19-5.89.24-4.31,2.8Z"/><path class="cls-4" d="M384.24,183.65c2.1-9.35,6-18,9.73-26.82,2.61-6.23-7.55-9-10.13-2.8-3.69,8.8-7.63,17.48-9.72,26.83-1.48,6.58,8.65,9.39,10.12,2.79Z"/><path class="cls-4" d="M421.55,29.71c0,12.06.3,24.45-3.21,36.12a64.33,64.33,0,0,1-23.7,33.32,3.43,3.43,0,0,0,0,5.83,177,177,0,0,1,24,19.64c3.11,3,7.89-1.73,4.78-4.78a188.35,188.35,0,0,0-25.34-20.69V105a72.13,72.13,0,0,0,26-34.79c4.49-13,4.27-26.95,4.27-40.48,0-4.35-6.75-4.35-6.75,0Z"/><path class="cls-4" d="M451.5,76.8a32,32,0,0,0,2,13.38c1,2.88,2.66,5.8-.23,7.79-1.53,1-3.21,1.88-4.68,3-6.66,5.21-8.67,13.62-12.6,20.69-1.72,3.07-5.21,5.74-5.91,9.25-.84,4.23,1.49,9.89,2.2,14.07a250,250,0,0,1,3.61,35.8c.11,4.95,7.86,5.3,7.73.32a200.91,200.91,0,0,0-3.46-34c-.87-4.31-4.6-12.5-2.36-16.39,2-3.54,4.47-6.63,6.19-10.44s3.2-7.85,5.75-11.22,6.39-4.77,9.23-7.71a7.83,7.83,0,0,0,1.82-8.53c-1.88-5.48-3.57-10.57-4.92-16.23-.57-2.34-4.08-2.36-4.34.19Z"/><path class="cls-4" d="M450.34,76.26c-1.67,4.21-3.36,8.49-6,12.18-2.92,4-7.3,6.07-10.52,9.76A108.6,108.6,0,0,0,417.48,123c-1.65,3.57,3.95,6,6,3,5.81-8.54,10.42-19.64,18.73-26.12C449.82,94,453,87.26,455.21,78c.78-3.18-3.61-4.94-4.87-1.77Z"/><path class="cls-4" d="M206.09,175c6.81,7.73,11.26-2.75,12.11-9.25,1.18-9.11-2.93-17.82-7.69-25.31-2.56-4-5.38-7.88-8.16-11.75-2.53-3.5-6.12-5.44-8.82-8.66-3.23-3.85-4.38-10.24-6.4-14.84a46.33,46.33,0,0,0-8-12.65c-3.06-3.4-8.07,1.63-5,5,5.31,5.9,7.68,13.25,10.6,20.47,1.23,3,2.39,5.71,4.81,8s5.11,4.05,7.19,6.91c8.12,11.14,19.85,25.48,11.7,39.56l2.12-1.63-.75.26,2.74.35a18.65,18.65,0,0,1-1.36-1.45c-3-3.44-8,1.6-5,5Z"/><path class="cls-4" d="M384.64,118.71c-4.84-6.83-7.31-15-12.17-21.77-4.12-5.76-10.26-9.47-16.92-11.69-4.39-1.47-9-1.72-13.51-2.51-4.07-.72-8.11-1.61-12.2-2.23s-8.39-1.31-12.41-1c-3.47.32-9,4.62-12.21,2.58L307,85.21v-3l-4.49,3.42.44.09-1-2.51a2.93,2.93,0,0,1-.3,1.72l1.63-2.12-.58.33,2.74-.36-.43-.08.91,3.45c1.39-8.23,7.71-14.53,7-23.27-.39-4.51-7.49-4.55-7.1,0C306.2,68.58,303,73,300.88,78c-1.4,3.28-3.54,8,.05,10.49,7,4.9,11.77-7.5,3.44-9.75a3.59,3.59,0,0,0-4.49,3.43c0,3.31,0,5.72,3.52,7,3.71,1.34,7,.09,10.47-1.23,8.77-3.36,19.15.47,28.09,1.91s18.57,2.82,24.38,10.63c5,6.69,7.34,15,12.17,21.77,2.62,3.7,8.78.16,6.13-3.58Z"/><path class="cls-4" d="M265.29,10.9l48.23,14.6c7.3,2.21,14.54,4.47,20.35,9.64A44.21,44.21,0,0,1,345.19,51.7c2.23,5.49,2.72,10.41,3.09,16.24.25,4.07.45,8.77,3.63,11.74,3.37,3.16,8.53,4.58,12.79,6.06,2,.7,4.42,1.16,6.29,2.23,2.83,1.62,4.32,4.86,6,7.54,2.41,3.87,8.56.31,6.13-3.58-3-4.86-5.61-9.05-11.13-11.15-4.52-1.73-10.4-2.67-14.32-5.63-3.71-2.81-2.28-10.66-2.75-14.89-.63-5.79-3-11.54-5.7-16.67-6.77-12.83-17.51-19.9-31.1-24.12-16.94-5.26-34-10.27-50.94-15.41-4.38-1.33-6.25,5.52-1.88,6.84Z"/><path class="cls-4" d="M384.16,95.93c2.13-6.22,11.13-8,15.43-12.52a14.64,14.64,0,0,0,4.19-8.9c.13-1.67-.52-3.47-.22-5.08.42-2.24,2.63-4.36,4-6.1,2.83-3.53-2.16-8.58-5-5-2.23,2.78-5.39,5.94-6.12,9.55-.46,2.25.63,4.39.24,6.63s-2.12,4.09-3.92,5.46c-5.84,4.45-12.86,6.52-15.45,14.08-1.48,4.33,5.37,6.19,6.85,1.89Z"/><path class="cls-4" d="M244.89,182.27a59.5,59.5,0,0,0,6-.58,36.51,36.51,0,0,1,9.61.75,21.62,21.62,0,0,1,8.4,2.64c1.95,1.18,3.51,2.5,5.71,3.16.4.12.77-.43.37-.68-4.16-2.65-7.6-5.28-12.55-6.07a48.82,48.82,0,0,0-17.51.2c-.3.06-.33.58,0,.58Z"/><path class="cls-4" d="M295.06,198.3A12,12,0,0,0,303.6,200c3.06-.36,6.85-1,9.11-3.23.22-.22,0-.65-.3-.5a27.44,27.44,0,0,1-17.15,1.47.29.29,0,0,0-.2.52Z"/><path class="cls-4" d="M359.93,137.33c-4.43.29-7.94-1.24-11.58-3.58-2.88-1.85-6.54-3.69-9.09-5.93-5.08-4.47-6-11.93-12.63-15-3.91-1.82-7.35,4-3.41,5.83,6.67,3.11,8,12.35,14.5,16.27,7.13,4.3,13.36,9.76,22.21,9.19,4.31-.28,4.34-7,0-6.75Z"/><path class="cls-4" d="M388.24,162.76c5.35-3,6.46-10.57,1.26-14.27-8.39-6-18.67-9.36-28.78-10.82-4.25-.62-6.09,5.89-1.8,6.51a66.81,66.81,0,0,1,16,4.16c2.14.88,14.61,5.9,9.87,8.59-3.77,2.14-.38,8,3.41,5.83Z"/><path class="cls-4" d="M324.3,117.47c7.38,2.27,12.89,3.81,20.05,7.12,3.31,1.53,4.69,4.48,7.6,6.37,3.21,2.08,7,.61,10.41,2.12a106.25,106.25,0,0,0,20.75,6.62c1.44.3,3.35-.33,3.67-2,.55-2.84,1.93-6.51,1.25-9.46a11.87,11.87,0,0,0-1.42-2.74,28.17,28.17,0,0,1-2.26-6.86c-.56-2.33-4.48-2.8-5-.18a11.72,11.72,0,0,0,1,7.77c.49,1.08,1.71,2.29,1.9,3.42.31,1.77-.73,4.57-1.07,6.37l3.67-2a117.35,117.35,0,0,1-11.91-2.41c-3.93-1-7.38-3.4-11.23-4.39-3.41-.87-5.88.9-8.57-2a20.5,20.5,0,0,0-7.22-5.4c-7.29-3.14-12.93-5.12-20.8-6-2.09-.25-2.78,3-.76,3.63Z"/><path class="cls-4" d="M395.25,136.34l-.06.22a1,1,0,0,0,.07.52l.13.22a1,1,0,0,0,.41.31.73.73,0,0,0,.39.06.72.72,0,0,0,.38-.07,1.14,1.14,0,0,0,.53-.53,1,1,0,0,0,.06-.53l-.06-.22A.7.7,0,0,0,397,136a.75.75,0,0,0-.23-.27l-.21-.12a.69.69,0,0,0-.37-.06.52.52,0,0,0-.25,0,.69.69,0,0,0-.32.16l-.17.17a.9.9,0,0,0-.18.45Z"/><path class="cls-4" d="M340.91,125.92c-.05,1.69,1.61,3.4,2.78,4.45s3.05,2.43,4.77,2.29a.37.37,0,0,0,.15-.65c-1.3-1-2.95-1.4-4.22-2.52s-1.83-2.7-3-3.76a.28.28,0,0,0-.45.19Z"/><path class="cls-4" d="M310.89,79.41c1.26.19,1.78-.32,2.9-.82,1.69-.75,3.34-.43,5.1-.85a21.47,21.47,0,0,1,2.42-.81c1.45-.18,2.53.8,3.85.92a1.77,1.77,0,0,0,1.7-.42c.3-.21.05-.65-.27-.61-1.71.2-2.93-1.17-4.55-1.21a8.15,8.15,0,0,0-2.73.7c-1.45.47-2.76.15-4.18.45s-2.59,1.75-4.27,1.85c-.48,0-.4.74,0,.8Z"/><path class="cls-4" d="M383.49,109.69c4.72,10.11,10.21,17.92,7.17,29.62a.38.38,0,0,0,.7.27c5.16-9.84-1-22.44-7.29-30.25a.35.35,0,0,0-.58.36Z"/><path class="cls-4" d="M390.23,144.74a15.52,15.52,0,0,1,4.68,4.83.28.28,0,0,0,.52-.22,8.46,8.46,0,0,0-4.92-5.11.29.29,0,0,0-.28.5Z"/><path class="cls-4" d="M406.55,163.84c1.19-2.22,1.71-4.68,3.3-6.68,2-2.5,4.31-3,7.32-3.07a.43.43,0,0,0,.2-.83c-2.48-1.22-5.7.35-7.52,2.11a13.11,13.11,0,0,0-3.79,8.34.26.26,0,0,0,.49.13Z"/><path class="cls-4" d="M430.12,160.42c-.21,4.44.47,11.88-3.2,15.18-.22.2-.08.66.26.58,2.35-.54,3.17-2.63,3.57-4.82.63-3.49,1.13-7.64-.27-11-.07-.16-.35-.15-.36,0Z"/><path class="cls-4" d="M367.51,87.85a61.38,61.38,0,0,0,4.93,4.6c1.62,1.56,3.05,3.31,4.69,4.85.19.17.43-.11.3-.3a40.84,40.84,0,0,0-5-5.45,21.88,21.88,0,0,0-4.72-4c-.16-.09-.32.14-.21.28Z"/><path class="cls-4" d="M261.29,130.3c2,5.6.31,12.52,4.08,17.45.25.34.75,0,.6-.37-2.18-5.68-1.55-11.88-3.78-17.51-.23-.6-1.11-.17-.9.43Z"/><path class="cls-4" d="M308.78,73c6.38-5.9.79-21.88-4.33-26.91a.87.87,0,0,0-1.53.43c-.59,4.45.77,8.85,1.79,13.15,1,4.14.69,8.44,1.67,12.46a1.49,1.49,0,0,0,2.4.87Z"/><path class="cls-4" d="M302.11,45.75c-.92,5.34,9.27,9.29,12.2,12.71,4.34,5.06.37,12.34,8.15,14.82,2.84.91,4.66-3,2.21-4.69-3.47-2.33-2.54-5-3.77-8.35a17,17,0,0,0-4.78-6.59,62.57,62.57,0,0,0-6.78-5C307.2,47.2,305.75,45,303.07,45a.9.9,0,0,0-1,.75Z"/><path class="cls-4" d="M422.84,20.4c-.67,10.31-6.31,17.75-12.41,25.67-3.28,4.25-11.69,13.58-7.79,19.19a1.2,1.2,0,0,0,1.16.44c3.91-.64,6.2-5.86,8.48-8.62,3.22-3.91,6.56-7.72,9.54-11.81,5.19-7.11,9.24-16.58,6.51-25.43a2.8,2.8,0,0,0-5.49.56Z"/><path class="cls-4" d="M213.47,190.16c-2.87-4.62-5.57-8-10.35-10.69-3.21-1.79-3.79-3.53-5.09-6.75-1.07-2.67-2.75-4.87-4.18-7.34s-2.12-5.38-3.57-7.89c-1.6-2.78-4-5-5.74-7.69-2.12-3.27-3.81-9.35-8.45-9.07a1.23,1.23,0,0,0-1,.81c-.95,3.8,3.06,9.31,5.16,12.37,1.7,2.46,3.9,4.5,5.31,7.17s2.48,5.65,4.34,8.27a25.05,25.05,0,0,1,3.84,7.35c.74,2.26,1.34,4.08,3.26,5.65,1.73,1.42,4,2,5.8,3.23,2.75,1.87,4.87,4.58,6.91,7.16,1.59,2,5.13-.36,3.75-2.58Z"/><path class="cls-4" d="M176.4,143c-.3,3.92,3,6.65,5.34,9.51s4.73,6,7.81,8.36c3.82,2.9,8,5.1,11.64,8.27,2.62,2.27,4.53,5.26,8.09,5.7a1.47,1.47,0,0,0,1.57-1.7c-.55-3.79-4.39-6.26-7.16-8.65s-6-4.45-9.05-6.62c-3.57-2.52-6.17-5.7-9-9-2.38-2.8-4.34-6.33-8.2-6.72a1,1,0,0,0-1.07.85Z"/><path class="cls-4" d="M176.28,93.6c5.45,6.46,13.35,11.53,20,16.66a2.77,2.77,0,0,0,4.25-2.79c-2-7.67-4.1-15.62-8.4-22.38-4.48-7-10.81-10.65-17.51-15.19-19.8-13.41-.85-35,5.14-50.46.29-.76-.66-1.64-1.34-1C166.72,28.71,153.71,49.58,162,65.53c4.17,8.08,12.9,10.84,19.44,16.44,7.75,6.63,10.93,17.15,13.77,26.56l4.26-2.79c-6.9-4.74-14.09-10.64-21.86-13.82a1.1,1.1,0,0,0-1.28,1.68Z"/><path class="cls-4" d="M268.4,6c7.05,4.6,13.76,9.66,21,14q10.38,6.3,20.78,12.56c6.55,4,13.63,8.19,15.54,16.19,1.85,7.74-.94,15-2.51,22.5-.56,2.66,3.12,4.1,4.1,1.41,2.6-7.08,4.24-15.78,2.92-23.28-1.25-7.08-5.68-12.3-11.45-16.31-15.64-10.86-33.05-19.17-49.68-28.29-.68-.38-1.34.75-.68,1.18Z"/><path class="cls-4" d="M336.69,48.73q1.92,11.3,3.83,22.58c.08.47.8.28.72-.19q-1.9-11.23-3.8-22.49c-.08-.47-.83-.38-.75.1Z"/><path class="cls-4" d="M336.49,72.54c2.94,3.54,6.5,7.9,11.64,7.68a.82.82,0,0,0,.37-1.46c-3.63-2.51-8.31-3.34-11.41-6.67-.32-.34-.91.08-.6.45Z"/><path class="cls-4" d="M181.59,66a199.24,199.24,0,0,1,14.75,21c5.22,8.6,9.68,17.27,8.83,27.62a.61.61,0,0,0,1.21.16c1.46-9-2.62-17.65-7.06-25.27a169.38,169.38,0,0,0-17.13-24c-.31-.37-.9.07-.6.45Z"/><path class="cls-4" d="M171.82,56.15c-.29-5,.88-9.84.9-14.83,0-.63-.9-1-1.17-.31-1.77,4.61-1.13,10.47-.52,15.25.06.51.82.4.79-.11Z"/><path class="cls-4" d="M170.53,49.65C170,56.49,172.3,67.25,179.6,70a.85.85,0,0,0,1-1.3c-1.78-2.36-4.08-4.17-5.76-6.65a18.67,18.67,0,0,1-3.36-12.27c0-.6-.88-.74-.93-.13Z"/><path class="cls-4" d="M323,31.52c.66,1,.65,2.1,1.4,3.15,1,1.49,2.17,2.94,3.22,4.42,2.09,2.94,3.73,6,5.62,9.08.36.6,1.31.12,1.21-.51a30.91,30.91,0,0,0-3.75-9.93A28.91,28.91,0,0,0,328,33.78a10.21,10.21,0,0,0-2.13-2.27c-.63-.43-1.3-.34-2-.85a.61.61,0,0,0-.85.86Z"/><path class="cls-4" d="M296.87,171.6c-1.53-7-5.63-12.62-5.24-20.11.38-7.17,3.61-13.82,2.47-21.09a1.4,1.4,0,0,0-2.49-.56c-4.68,6.68-7,17.43-6.23,25.54.61,6.58,3.29,14.86,10,17.39a1.09,1.09,0,0,0,1.46-1.17Z"/><path class="cls-4" d="M301.24,130.34c-2.74-1.81-4.66-2.43-7.56-.42s-4,5.76-3.68,9.28c.82,8.17,9.4,14.59,17.27,10.9,7.41-3.47,9.54-13.29,5.08-19.91-3.55-5.25-14.76-8.6-17.58-.91a1.3,1.3,0,0,0,1.42,1.73c3.72-.56,7.57-2,10.7.94a8.47,8.47,0,0,1,.38,11.55c-3.56,3.87-8.62,2.4-11.13-1.69-1.17-1.9-2.52-4.65-1.71-6.93.68-1.9,4.08-4.38,6.24-3.58.57.21,1.12-.6.57-1Z"/><path class="cls-4" d="M299.84,150.42c-4.84,2.72-4.51,7.63-1.08,11.79,4.54,5.51,11.4,7.46,17.71,3.59,5.52-3.38,8.8-10.28,7.18-16.66-1.13-4.47-8.79-11.58-12.26-5.17-.36.67-.31,1.74.59,2,3.53,1,6.7,1.83,6.83,6.24a10.66,10.66,0,0,1-4.67,8.7c-3.2,2.3-6.45,2.39-9.6,0-2.32-1.76-7.38-6.28-4.12-9.47.43-.41.05-1.36-.58-1Z"/><path class="cls-4" d="M294.88,131.86c6.41-3.25,6.28-13.34,2.32-18.44-4.91-6.32-13.62-5.42-18.68.23-5.38,6-4.83,14-.38,20.31,2.48,3.51,5.27,6.06,9.85,5.64,3.56-.34,7-2.46,8.09-5.91a1.23,1.23,0,0,0-1.34-1.64c-1.82.4-3,1.32-4.73,2-4.4,1.74-6.83-.58-9-4.16-2.34-3.94-2.51-8.36.17-12.2,3.4-4.89,10.45-5.88,13.43.07,2.32,4.64-.58,9-.51,13.68a.53.53,0,0,0,.74.42Z"/><path class="cls-4" d="M370.61,80.48c0-15.19,1.86-29,9-42.55.32-.6-.58-1.31-1.08-.82-11.33,11.15-11.4,28.73-10.74,43.49.07,1.6,2.83,1.49,2.83-.12Z"/><path class="cls-4" d="M388.31,36.23c-1.74-3-5.45-2.93-8.4-1.62-4,1.78-6.1,5.84-7.24,9.88C370.4,52.6,374.6,62,384.11,61.09c9-.87,14.62-9.85,13.37-18.46-1-6.79-9.49-16.48-15.67-8.7-.91,1.15.49,2.38,1.64,2,11.22-3.81,12.51,18.43.66,20-5.8.76-7.55-4.51-7.1-9.28.24-2.54.85-5.18,2.61-7.12,2.35-2.59,4.71-2,7.77-2,.59,0,1.3-.59.92-1.24Z"/><path class="cls-4" d="M197.47,128.41c-1.65-2.24-2.69-4.79-4.79-6.68a30.22,30.22,0,0,0-6.38-4.23,34,34,0,0,0-15-3.91c-8.56-.16-21.41,2.34-23.76,12.06-.27,1.14,1.33,1.47,1.94.76,5.74-6.73,15.27-9.24,23.87-8.38a32.64,32.64,0,0,1,12,3.65c3.47,1.85,8.33,4.7,10.87,7.71a.8.8,0,0,0,1.26-1Z"/><path class="cls-4" d="M163.78,117.16c-3.56-1-6.08-1.26-9.46.78a11.7,11.7,0,0,0-5.76,8.19c-1.16,6.73,3.73,14.64,11.06,14.55,6.25-.08,14-7.25,15-13.34.87-5.59-4.66-14.67-11.17-11.81a1.46,1.46,0,0,0-.23,2.5c3.7,2.27,8.63,3.64,6.66,9.27-1.2,3.43-6.37,7.58-9.93,7.93-4.87.48-7.71-5.54-6.11-9.78,1.36-3.61,5.92-6.41,9.73-6.58a.9.9,0,0,0,.2-1.71Z"/><path class="cls-4" d="M149.13,123c-1.1-5-8.85-3.51-12.11-1.72A13.09,13.09,0,0,0,130.81,136c1.4,5.8,6.27,10.65,12.3,11.33,5.09.58,12.45-3.38,11.06-9.38a1.37,1.37,0,0,0-2.61-.24c-1.16,2.33-1.75,4.49-4.38,5.63a9,9,0,0,1-7.67-.85A11.38,11.38,0,0,1,134,132a9.64,9.64,0,0,1,7.51-8.55c2.46-.56,4.73.47,7.19.12a.49.49,0,0,0,.42-.55Z"/><path class="cls-4" d="M148.72,122.31c-2.55,1.35-1.59,5.31-.85,7.5.9,2.69,2.58,5.83,5.6,6.36a1.15,1.15,0,0,0,1.25-1.33c-.53-2.43-2.46-4.32-3.33-6.64-.71-1.89-.52-4.52-2.25-5.83a.4.4,0,0,0-.42-.06Z"/></g></g></g><g id="PixelsASSETS"><g id="Cuerno"><rect class="cls-5" width="464" height="265"/></g></g></g></g></svg>