<svg xmlns="http://www.w3.org/2000/svg" viewBox="0 0 275 259.5"><defs><style>.cls-1{isolation:isolate;}.cls-2{fill:#fff9fa;}.cls-3{fill:#a6531c;}.cls-4{fill:#078b44;}.cls-5{fill:#6e3712;}.cls-6{fill:#045429;}.cls-7{fill:#d90006;}.cls-8{fill:#b9baa8;}.cls-9{fill:#a10004;}.cls-10{fill:#7249ff;}.cls-11{fill:#ffeef0;}.cls-12{fill:#ffe746;}.cls-13{fill:#fff;}.cls-14{fill:#42210b;}.cls-15{fill:none;mix-blend-mode:multiply;opacity:0.4;}</style></defs><g class="cls-1"><g id="Layer_2" data-name="Layer 2"><g id="Variación_C" data-name="Variación C"><g id="AssetsE3"><g id="LoinE3"><path class="cls-2" d="M146.16,68.47a22.45,22.45,0,0,1-2.9-1.63c-.64-.69-1.1-1.54-1.75-2.36l0,.07A4.87,4.87,0,0,0,138,62.16a4.7,4.7,0,0,0-4.16-.66l-.07,0c-2.39-1.74-5.37,1.21-4.15,3.7.39.8.83,1.58,1.29,2.34a6.62,6.62,0,0,0,1,1.81c.26.32.52.63.79.94.66.94,1.34,1.88,2,2.8,1.87,2.5,4.07,4.62,7.2,5.36a4.5,4.5,0,0,0,5-2.07C149.13,74.2,149.59,70.09,146.16,68.47Z"/><path class="cls-2" d="M105.3,82.16a1.86,1.86,0,0,0-1.15-1.07,2.85,2.85,0,0,0-.48-.13,5.79,5.79,0,0,0-6.89.75,7,7,0,0,0-2.09,5.89,4.51,4.51,0,0,0,1.12,3.7,5.72,5.72,0,0,0,1.85,1.33,4.94,4.94,0,0,0,3.37,1,4.21,4.21,0,0,0,3.18-1.74,6.54,6.54,0,0,0,3-4.56A6.17,6.17,0,0,0,105.3,82.16Z"/><path class="cls-2" d="M144.57,108.39c-.65-1.22-1.29-2.56-2-3.87.1-.38.2-.76.29-1.13,1.46-5.86-6.62-11.21-11.31-7.11-.35.32-.7.65-1,1a9.64,9.64,0,0,0-4.83,3.21c0-.23,0-.46,0-.69-.25-2.83-3-5.1-5.81-3.5-8.88,5.09-8.56,21.59-2.75,28.74,6.13,7.55,21.47,8.3,27-.34C147.6,119.28,147.53,114,144.57,108.39Z"/><path class="cls-2" d="M162,92.58c-.59-6.22-8-7-10.79-2.92a11,11,0,0,0-8.48-.16c-2.28.93-2.72,4.74-.92,6.29A38.49,38.49,0,0,1,146,99.32c2,2.29,3.31,4.46,6.71,4.82C159.36,104.84,162.49,98.23,162,92.58Z"/><path class="cls-3" d="M198.49,127.77c-6,.16-11.83-2.34-17.71-3.12a95.81,95.81,0,0,0-13.45-.66c-1.1-.08-2.22-.09-3.34-.06l-.58-.24c-1.13-3.4-4.74-6.14-8.52-5.32-5-2.5-11.29,2.09-10.82,7.11a5,5,0,0,0-.8,2.39V128c-3.27-.54-6.83,1-7.13,4.84,0,.47,0,.93-.07,1.39a8.74,8.74,0,0,0-3.3,1.19l-.42-.05c-3.11-3.25-7.45-5.16-11.07-3.93a7.69,7.69,0,0,0-1-1,5.6,5.6,0,0,0-5.72-2.84c-.87-2.43-1.76-4.84-2.61-7.28a3.55,3.55,0,0,0-2.38-2.35,4.86,4.86,0,0,0-3.62-1.33,5,5,0,0,0-7.16.68,5.37,5.37,0,0,0-4.94,1,6,6,0,0,0-3.78,1.53,6.41,6.41,0,0,0-1.37.28,6.47,6.47,0,0,0-5.2.52c-.12,0-.23,0-.35,0a16.94,16.94,0,0,0-5.22,1.1,7.63,7.63,0,0,0-2.13.12,4.54,4.54,0,0,0-5,2.72c-.17.41-.37.79-.57,1.18a5,5,0,0,0-5.3.25,73.56,73.56,0,0,0-12.32,11.13c-4.11,4.66,1.54,11.67,6.95,8.39l.25-.15a5.64,5.64,0,0,0,3.84.1A25.31,25.31,0,0,0,73.46,140a5,5,0,0,0,6.15,2.61,4.57,4.57,0,0,0,.8.52,5.58,5.58,0,0,0,6.87,3.48l.25-.07a49.14,49.14,0,0,0,2.09,6.53,6.37,6.37,0,0,0,.73,1.72c.26.58.54,1.15.83,1.73,1.59,3.12,4.56,3.4,7,2.18a6,6,0,0,0,7.24-2,7.85,7.85,0,0,0,2.19.62,7.71,7.71,0,0,0,4.51-.7,6.49,6.49,0,0,0,1.64.72,25.76,25.76,0,0,0,1.62,4.24c2.32,4.63,8.2,3,10.56-.55a6.24,6.24,0,0,0,2.56-2.48c.19-.35.37-.73.55-1.13a7.36,7.36,0,0,0,3.34-1,7.17,7.17,0,0,0,4.05.6,7.51,7.51,0,0,0,3.38-1.29,6.59,6.59,0,0,0,2.57-.83l.14.05.18.44a6.84,6.84,0,0,0,3.71,3.86c.08.25.17.5.24.76,2.14,7.23,11.18,5.13,13.19-.62a5.85,5.85,0,0,0,3.13-5,6.51,6.51,0,0,0,2.94-4.13c2.1,1.79,4.49,3.08,7.42,2.76a8,8,0,0,0,4.9-2.4,16.24,16.24,0,0,0,1.76.5c.2,0,.4.1.59.15l.09.11a7.73,7.73,0,0,0,3.15,2,8.6,8.6,0,0,0,7-.36c3.68-1.7,5.76-5.93,4.16-9.64.94-.17,1.88-.35,2.82-.55a8.89,8.89,0,0,0,1-.3l1.08-.1C209.55,141.72,207.9,127.51,198.49,127.77Z"/><path class="cls-4" d="M229.91,158.34q-.58-3.14-1.15-6.28l0-.16a1.93,1.93,0,0,0-1.13-2.06l-.15-.05a2.16,2.16,0,0,0-.63-1.09c-1.23-1.2-2.39-2.44-3.52-3.7-.13-.18-.26-.35-.38-.49q-2.42-3-4.84-5.92a1.84,1.84,0,0,0-1.86-.68l-1.56-1.73-.19-.17a1.87,1.87,0,0,0-1.09-1.37,7.73,7.73,0,0,0-4.45-.32c.62-.25,1.26-.48,1.87-.75a.91.91,0,0,0-.4-1.69c-9.3.75-18.93,4.53-27.95,6.86a1.12,1.12,0,0,0-.67,1.63c2.22,3.78,4.26,7.65,6.22,11.56-4-1-8.11-1.93-12.17-2.88-3.84-.91-8.93-3.15-12.88-2.78-5,.47-6.34,9.28-7.12,14.18-7.71-4.17-15.41-8.36-23.18-12.44a1.27,1.27,0,0,0-1.52.22c-2.82,3.35-5.81,8.15-9.3,10.77l-1.16,1.35L117.32,159a10.1,10.1,0,0,1-1.9-4.14c-.37-1.37-.19-3.11-1.27-4.21-1.59-1.62-3.91-.62-5.7,0-2.23.81-4.71,2.34-7.22,3.4a1.85,1.85,0,0,0-1.34.52c-3,1-5.93,1.08-8.5-1.78-3.12-3.49-5.09-8.75-6.78-13-.73-1.85-1.15-3.19-3.33-3.46-3.33-.41-8.34,2.1-11.56,3-4.7,1.3-9.37,2.65-14,4,1.18-4.58,6.79-9,10-12,.93-.9,1.89-1.77,2.86-2.62l2.12-1.62a1.7,1.7,0,0,0,.5-.64c1.47-1.24,3-2.46,4.45-3.69.58-.46-.14-1.25-.73-.85-1.32.91-2.61,1.86-3.89,2.85a1.35,1.35,0,0,0-1.77-.53c-.62.28-1.22.59-1.81.91a1.43,1.43,0,0,0-2-.21q-2.31,1.78-4.5,3.69a1.61,1.61,0,0,0-2.77-.94c-1.33,1.34-2.61,2.72-3.86,4.12a1.59,1.59,0,0,0-2.69-1.51,22.12,22.12,0,0,0-2.64,3.13l0-.15c.28-1.66-2.21-2.73-2.92-1-.22.5-.41,1-.59,1.52a1.58,1.58,0,0,0-2.68.17c-.24.63-.44,1.27-.63,1.9a1.55,1.55,0,0,0-1.85.45c-.72-1.19-2.87-.93-2.74.75,0,.08,0,.16,0,.24a1.28,1.28,0,0,0-1.66.55c-.79,1.38-1.6,2.75-2.41,4.12-.68,1.15,1,2.53,1.91,1.44.11-.16.26-.3.38-.46a1.4,1.4,0,0,0,.5.11,1.6,1.6,0,0,0,.39.11l.21.64a1.24,1.24,0,0,0,.35.54,12.25,12.25,0,0,0,1.37,3.41,1.4,1.4,0,0,0,2.21.21,1.46,1.46,0,0,0,1.78.88,22.43,22.43,0,0,0,1.93,3.29,1.58,1.58,0,0,0,2.28.35c.41,1.24.85,2.48,1.36,3.7a1.7,1.7,0,0,0,1.38,1.06q2.17,4.39,4.56,8.67A144.76,144.76,0,0,0,65.4,184.74a1.72,1.72,0,0,0,2.28.62c1.31,1.56,2.74,3.31,4.31,4.91l.41.58a1.87,1.87,0,0,0,1,.75,15,15,0,0,0,5.3,3.22c.74.59,1.48,1.19,2.24,1.77a2.06,2.06,0,0,0,3.16-1.22,2,2,0,0,0,1.43-1.32l.69.95a2,2,0,0,0,3.18-.12l1.75,2.27c1.28,1.66,4.28.18,3.32-1.85-.26-.55-.55-1.11-.85-1.69l.75-.36.24.32a2,2,0,0,0,3.48-1.2l.49.72c1.32,1.95,3.84.09,3.32-1.86-.09-.35-.2-.7-.32-1l2.42-1c.5.5,1,1,1.58,1.43a1.94,1.94,0,0,0,3-2.22l-.35-.87,4.8-1.88,1.77,2a2,2,0,0,0,3.47-.86c.15-.56.26-1.11.37-1.66a2.28,2.28,0,0,0,1.59-1.75,1.16,1.16,0,0,0,1.5-.32,1.43,1.43,0,0,0,1.39,0l0,0,.16-.12a1.76,1.76,0,0,0,1.24-.17c.71-.38,1.39-.79,2-1.22a1.61,1.61,0,0,0,1.73.5c1.64.78,4,.84,5.44,1.1a45.06,45.06,0,0,1,6.42,1.52c.55.19,1.09.43,1.63.66l.57.53a1.65,1.65,0,0,0,1.88.26l.23,0a.71.71,0,0,0,.73-.61,2.1,2.1,0,0,0,2.8-.43A17.93,17.93,0,0,1,152,189a1.32,1.32,0,0,0,1.83.61,1.51,1.51,0,0,0,.86-.12c.22.36.44.72.67,1.07a1.47,1.47,0,0,0,1.46.77,1.57,1.57,0,0,0,1.17,2.29l13.19,2.18A1.62,1.62,0,0,0,173,194.7a29.81,29.81,0,0,0,4.58,1.15,1.69,1.69,0,0,0,1.14-.25c.79,1.4,3.27,1.46,3.47-.45,0-.38.05-.75.08-1.12a2,2,0,0,0,2.53-.61,2,2,0,0,0,2.76-.38,2.13,2.13,0,0,0,2.34-.59,1.85,1.85,0,0,0,1.49.32l.06.08a2.05,2.05,0,0,0,3.3-.28,2.13,2.13,0,0,0,2.45-.25c1.13,1.33,3.73.65,3.41-1.39l-.09-.61a2.11,2.11,0,0,0,2.53-.9,2,2,0,0,0,2.34-.93,2,2,0,0,0,2.6-2c0-.32,0-.64-.05-1a1.77,1.77,0,0,0,1-1.41c.09-.63.14-1.25.19-1.86a2.05,2.05,0,0,0,2.76-1.88,1.59,1.59,0,0,0,1-1.54v-.55h0V178c1.13.62,3-.21,2.8-1.77-.06-.38-.1-.76-.15-1.14a1.79,1.79,0,0,0,1.78-2l-.12-.83v0c-.06-.69-.11-1.38-.16-2.06l.15.72c.41,1.91,3.54,2.41,3.74.11a33.12,33.12,0,0,0,0-4.88,2,2,0,0,0,2.91-1.72,1.69,1.69,0,0,0,1.75-2c0-.24-.05-.48-.08-.71a2.11,2.11,0,0,0,2.73-1.29A1.64,1.64,0,0,0,229.91,158.34Zm-140,2c-.22.11-.44.19-.67.28a1.24,1.24,0,0,0-.51.2l-.29.07a9.55,9.55,0,0,0-2.9-.45,1.77,1.77,0,0,0-.16-.22l0-.1c-.75-2-3.62-.92-3.09,1.1l.17.67a6.72,6.72,0,0,1-.18.87c0,.05,0,.1-.07.14a1.84,1.84,0,0,0-.35.65l-.33,1.09a1.38,1.38,0,0,0-.07.43,20.12,20.12,0,0,1-1,2.64c-.53.48-1,1-1.51,1.48l-.07.07a1.35,1.35,0,0,0-.36.28L76.74,171a1.89,1.89,0,0,0-.45.59c-1.19.1-2.37.25-3.54.46-.24-.52-.47-1-.66-1.5s-.43-1.18-.63-1.83a1.41,1.41,0,0,0,2.4,0l.46-.59a1.42,1.42,0,0,0,.62-.68,3,3,0,0,0,.4-.31,6.45,6.45,0,0,0,1-1.11c.09-.12.16-.26.25-.39a1.45,1.45,0,0,0,.66-.68c.5-1.11,1-2.22,1.49-3.32a1.56,1.56,0,0,0,.13-.58c.17-.47.32-1,.48-1.4a.54.54,0,0,0-1-.37l-.16.39a1.36,1.36,0,0,0-2,.23l0,0a9.89,9.89,0,0,1-1.13.59,5.72,5.72,0,0,0-.67-.41c-.56-1-1.16-1.89-1.78-2.81a.17.17,0,0,1,0-.07c.11-.55.22-1.1.32-1.65l.54-.94q.66-1,1.29-2a1.74,1.74,0,0,0,.27-.14c2.93-2,5.12-5.36,7.41-8a1.8,1.8,0,0,0,.2-.31c.72,1.65,1.69,3.24,2.49,4.76s1.64,3.23,2.59,4.76c.18.56.37,1.13.56,1.69a1.4,1.4,0,0,0,0,1.75,8.63,8.63,0,0,1,1.71,3.09Zm96.91,3.89a7.85,7.85,0,0,1-1.38,1.3h-.12a4.4,4.4,0,0,0-3.07,2.12,1.17,1.17,0,0,0-1.56-.12,1.29,1.29,0,0,0-.81.61c-.16.24-.31.49-.46.73a1.17,1.17,0,0,0-.17.47,8.91,8.91,0,0,0-1.06,3.88.8.8,0,0,0-.22.63,13.59,13.59,0,0,0,.57,3.36,1,1,0,0,0,.88.75c-.44.69-.91,1.37-1.41,2.05l-.39.2-2.91-.71a1.71,1.71,0,0,0-1.3-.09,1.51,1.51,0,0,0-.1-.6l-.12-.28a1.25,1.25,0,0,0,0-.95,4.9,4.9,0,0,0-.8-1.49c0-.65-.09-1.3-.12-1.94a1.66,1.66,0,0,0,.41-1.8c-.07-.24-.17-.47-.26-.71s.06-.61.07-.91c.71-1,1.3-2.14.91-3.26a.54.54,0,0,0-.46-.31,2.56,2.56,0,0,0-2,.68c-.15-.26-.3-.53-.43-.8-.54-1.44-1-2.89-1.47-4.36l-.12-.65a1.78,1.78,0,0,0,.1-.55,14.74,14.74,0,0,1,.28-2.55c.42-1.28.84-2.56,1.27-3.83a2,2,0,0,0,.1-.52,3.88,3.88,0,0,1,.31-.26,4,4,0,0,0,2.59-2.38,1.48,1.48,0,0,0,.16-.49q5.58,1.37,11.17,2.69a1.66,1.66,0,0,0,.27.95,23.91,23.91,0,0,1,1.51,2.62,1.46,1.46,0,0,0,0,.29,20.54,20.54,0,0,0,.81,3.18A3.53,3.53,0,0,1,186.81,164.2Z"/><path class="cls-5" d="M177.73,129.64a29.38,29.38,0,0,0-3.07-1.42l-1.46-.5a5.88,5.88,0,0,1-1-.17,2.7,2.7,0,0,0,.77-1.27l.87-.36a1.27,1.27,0,0,0-.05-2.54,11.54,11.54,0,0,0-2.09.08c-1.28-.71-3.2-.7-4.77-.66a6.62,6.62,0,0,0-5.13-1.85,1.62,1.62,0,0,0-2.49.08,1.62,1.62,0,0,0-1.75.73c-.73-.44-1.45-.9-2.17-1.38a1.23,1.23,0,0,0-.88-.23c0-.1,0-.2,0-.3.08-1.8-2.73-1.9-3.1-.22l-.06.3a1.66,1.66,0,0,0-1.32-.24,1,1,0,0,0-.36-.19l-.29-.07a1.07,1.07,0,0,0-.71,2,1,1,0,0,1,0,.1c-.66.33-1.52,3.6-2.11,6.13-.24,1-.46,1.9-.64,2.89v.08l-.62-.66c-1.4-1.49-3.51.73-2.52,2.31v0a2.93,2.93,0,0,0-.86.24,2.64,2.64,0,0,0-1.74,1.84,1.59,1.59,0,0,0-1.18.45,1.66,1.66,0,0,0-2.64.36c-.09.15-.17.31-.25.46a1.73,1.73,0,0,0-1.83.54,1.57,1.57,0,0,0-1.84-.44,1.68,1.68,0,0,0-1.27-.53,1.6,1.6,0,0,0-2.9-.1,14.45,14.45,0,0,0-1.82-.62c0-.12,0-.24-.07-.37a1.4,1.4,0,0,0-1.79-1c0-.08-.09-.17-.13-.26a1.61,1.61,0,0,0-1.38-1l-.1-.32a1.58,1.58,0,0,0-3,.19l-.06.22a1.69,1.69,0,0,0-.84-.26c-.19-.57-.37-1.15-.56-1.72a1.51,1.51,0,0,0-1.9-.95,1.7,1.7,0,0,0-.24-.22,1.69,1.69,0,0,0-.2-.93l-4.62-8.31a1.39,1.39,0,0,0-2.3-.25c.37-1.37-1.47-2.23-2.56-1.29l-.09.09A.49.49,0,0,0,106,118l-.63.2a1.41,1.41,0,0,0-1.58.21c-.18.16-.36.32-.55.47l-.15.06-.09-.1a1,1,0,0,0-1.29-.7c-4.29,1-9.54,2.75-13.07,5.45a1.17,1.17,0,0,0-.52,1.28,1.13,1.13,0,0,1,0,.15,14.15,14.15,0,0,0-2.38,1.39l-.1.07a4.36,4.36,0,0,0-1.73,2.49.83.83,0,0,0,1,1c2-.42,3.89-.87,5.84-1.33-1.79,1.91-3.37,4.34-.26,5.39.46.16,1.19-.2,1.53,0,.44-.32.74-.45.91-.4l0,0c.14.06.17.29.08.68l-.11.23a18.29,18.29,0,0,0-.18,2.56,3.52,3.52,0,0,0,1.17,1.39c1.38,1,2.23.37,3.69.48a4.51,4.51,0,0,0,1.34,0,1.53,1.53,0,0,0,.13.16c.14.17,0,1,.16,1.3,1.57,2.56,5.91-.91,8.42-3-.18,1.62-.55,3.38,1.43,3.92,1.16.32,1.93-.85,2.81-1.22,1.18-.5,3.66-2.09,5.21-1,.65.44.73,3.89.85,4.57a1.14,1.14,0,0,0,1.89.5c.77-.92,1.53-1.84,2.28-2.77q5.55-1.32,6.76,2.72c.4.89,1.55.61,2,0,1.88-2.52,4.39-.13,6.35,0,.27,0,.48-.23.69-.25.29-.22.56-.45.83-.69l3.18.48c1.37.4,2,1.19,3.47.67.85-.3,1.89-1.59,2-1.58.58.05,1.81,1.62,3,1.72,1.53.12,2.61-.59,3.91-1.25.6-.31,1.18-.61,1.76-.89a11.74,11.74,0,0,0,.41,1.73c.23.76,1.56,1,1.73.06s.3-1.76.44-2.64l.21,0a22.35,22.35,0,0,1,.53,2.18.92.92,0,0,0,1.76.05,10.34,10.34,0,0,0,.34-1.54l.52.17h0a.79.79,0,0,0,1.14.35l.78.24c1.35.37,2.95.82,4.32.35a1.19,1.19,0,0,0,.26-2.15c-.33-.22-.64-.48-1-.72l0,0a1.29,1.29,0,0,0,.17-1.48,2.43,2.43,0,0,0-.2-.35c1.59.28,3.21.46,4.81.64,1.23.14,1.39-1.55.57-2.12s-1.6-1.1-2.41-1.62l.57,0h.26l.68,0a1.05,1.05,0,0,0,.64.06l.23,0a1,1,0,0,0,.55-.36,1.22,1.22,0,0,0-.57-2.06,1.3,1.3,0,0,0-.33-.07c-.49,0-1,0-1.46-.06l-.4,0c2.36-.33,4.93-.11,7.12-1.18A1.2,1.2,0,0,0,177.73,129.64Zm-21.85,9.66-.07,0a25.84,25.84,0,0,0-2.49,1.84,1.73,1.73,0,0,0-.27-1.13c-.22-.37-.45-.74-.68-1.11a1.58,1.58,0,0,0-.21-.57,4.82,4.82,0,0,0-1-1.43,2.33,2.33,0,0,0-.45-.39c-.4-.54-.8-1.1-1.23-1.63a1.81,1.81,0,0,0-.35-.33,28.84,28.84,0,0,0-1.79-2.3,1.28,1.28,0,0,0,1.32-1.08c0-.23.11-.47.17-.71.07.84.17,1.69.32,2.54.23,1.28,2,1.88,2.73,1a4,4,0,0,0,.77,1.46,1.87,1.87,0,0,0,.91.57,1,1,0,0,0,.84,1.18,26.73,26.73,0,0,1,2.79.76l-.27.28a.36.36,0,0,0-.32,0A1.32,1.32,0,0,0,155.88,139.3Zm5.52-.24L161,139a1.45,1.45,0,0,0-.41-.06l-1-.13-.12-.27a.84.84,0,0,0,.74-1l1.18.5,1.33,1.24Z"/><path class="cls-6" d="M49.22,139a15.87,15.87,0,0,0-2.37,1,12.6,12.6,0,0,0-2.31,1.11c-.38.29,0,.81.36.78a7.55,7.55,0,0,0,2.44-.89,8,8,0,0,0,2.18-1.34C49.77,139.47,49.62,138.92,49.22,139Z"/><path class="cls-6" d="M56.31,150.21a7.33,7.33,0,0,0-1,3.54c0,.26.32.33.43.11a7.22,7.22,0,0,0,1.23-3.41A.35.35,0,0,0,56.31,150.21Z"/><path class="cls-6" d="M59,150.26A5.07,5.07,0,0,0,57,153.13c-.12.43.43.8.72.39.64-.9,1.32-1.78,2-2.67C60,150.43,59.41,150,59,150.26Z"/><path class="cls-6" d="M95.22,177.87a6.55,6.55,0,0,0-.82-2,.41.41,0,0,0-.73.22,16.36,16.36,0,0,0,.17,2.09c.07.75.29,1.45.4,2.19a.53.53,0,0,0,1.05-.05A8,8,0,0,0,95.22,177.87Z"/><path class="cls-6" d="M97.18,176.89a6.69,6.69,0,0,0-.77,3.6c0,.31.42.27.53.06a6.65,6.65,0,0,0,.88-3.51A.36.36,0,0,0,97.18,176.89Z"/><path class="cls-6" d="M151.26,169.37c-.24-.27-.75-.09-.66.29.45,2.08,1.84,3.87,3,5.63.18.28.59,0,.48-.29C153.28,173.09,152.65,170.93,151.26,169.37Z"/><path class="cls-6" d="M155.31,170.13c-.1-.32-.59-.21-.62.1a16,16,0,0,0,.21,4c.1.65,1,.44,1-.18A15.91,15.91,0,0,0,155.31,170.13Z"/><path class="cls-6" d="M133.81,158.64a4.3,4.3,0,0,0-1.34-1.93c-.19-.14-.53,0-.46.28.4,1.5,1.37,2.82,1.77,4.3a.17.17,0,0,0,.34,0A7.4,7.4,0,0,0,133.81,158.64Z"/><path class="cls-6" d="M135.72,156.16a.27.27,0,0,0-.5,0c-.31,1.06-.56,2.75.13,3.7a.15.15,0,0,0,.24,0C136.28,158.91,136,157.21,135.72,156.16Z"/><path class="cls-6" d="M203.46,166.57c0-.28-.43-.3-.53-.06a5.69,5.69,0,0,0-.68,3.63.33.33,0,0,0,.59.15,4.34,4.34,0,0,0,.6-1.63A8.6,8.6,0,0,0,203.46,166.57Z"/><path class="cls-6" d="M206.84,164.52a.43.43,0,0,0-.76-.18,12.39,12.39,0,0,0-1.13,3.57c-.19.82,1,1.27,1.25.44A9,9,0,0,0,206.84,164.52Z"/><path class="cls-6" d="M197.85,151.5c-.36-1.13-.75-2.25-1.21-3.34a6.64,6.64,0,0,0-1.61-2.69c-.27-.22-.58.06-.57.35a7.65,7.65,0,0,0,1,2.71c.48,1.1,1,2.2,1.38,3.31C197,152.42,198,152.1,197.85,151.5Z"/><path class="cls-6" d="M199.07,145a.37.37,0,0,0-.7.12,11.05,11.05,0,0,0,.4,4.79.26.26,0,0,0,.48,0A5.82,5.82,0,0,0,199.07,145Z"/><path class="cls-6" d="M214.71,153.79a4.14,4.14,0,0,0-.9,1.8.57.57,0,0,0,1.07.39,4.19,4.19,0,0,0,.47-1.95A.39.39,0,0,0,214.71,153.79Z"/><path class="cls-6" d="M217.73,155a3.35,3.35,0,0,0-1.54,1.2.81.81,0,0,0-.28.68.48.48,0,0,0,.17.32c.06,0,.25,0,.27.07.25.29,1.11-.66,1.23-.78a2.11,2.11,0,0,0,.63-.91C218.29,155.31,218.08,154.92,217.73,155Z"/><path class="cls-6" d="M102.76,161.7a17.4,17.4,0,0,0-1.84-2.65.33.33,0,0,0-.55.33c.45,1,.73,2,1.14,3,.32.76.62,1.8,1.42,2.15a.27.27,0,0,0,.34-.14C103.68,163.52,103.13,162.46,102.76,161.7Z"/><path class="cls-6" d="M104.63,158a.37.37,0,0,0-.65.19,8.77,8.77,0,0,0,0,2.17c.06.71.09,1.39.21,2.1,0,.21.38.34.51.12A4.22,4.22,0,0,0,104.63,158Z"/><path class="cls-7" d="M158.33,80.07a1.71,1.71,0,0,0-2-1.12c-.69-1.17-1.37-2.35-2.06-3.53a1.6,1.6,0,0,0-2.19-.59,1.67,1.67,0,0,0-1.9.88,2,2,0,0,0-3,.71,1.85,1.85,0,0,0-2.43.91,2.32,2.32,0,0,0-2-.56l-.08-.22a1.89,1.89,0,0,0-3.23-.41,2.19,2.19,0,0,0-2.12-.31l-.15-.35a1.88,1.88,0,0,0-3.5.13l-1.31-1.52a1.94,1.94,0,0,0,.1-1.27A63.19,63.19,0,0,1,130.69,58a1.81,1.81,0,0,0-.13-.69l.06-.78a2.07,2.07,0,0,0-2.12-2.16c-.09-.52-.18-1-.26-1.56a2,2,0,0,0-1.57-1.66l-1-.28h-.08a1.87,1.87,0,0,0-2.47-1.07,1.91,1.91,0,0,0-2.2,1,17.47,17.47,0,0,0-1,2.31,10.76,10.76,0,0,0-2.64,5.37,1.53,1.53,0,0,0,.24,1.27l0,.14a1.45,1.45,0,0,0-.66.44,23.65,23.65,0,0,0-5.36,10.28c-1.11-.91-3.16-.38-2.85,1.37.11.62.2,1.25.29,1.86a1.79,1.79,0,0,0-.44.27,1.45,1.45,0,0,0-1,1,10.92,10.92,0,0,0-.92,3.41,1.7,1.7,0,0,0,1.51,2c.25,1.51.51,3,.76,4.55,0,.72.06,1.44.1,2.16a1.74,1.74,0,0,0-1.57,1.81,1.6,1.6,0,0,0-2.41,1.21c-.07.6-.12,1.2-.18,1.79a1.89,1.89,0,0,0-2.7,1.73v0a2,2,0,0,0-1.39.26l-.38-.93a1.79,1.79,0,0,0-1.94-1.08,1.86,1.86,0,0,0-2.08-.4,1.5,1.5,0,0,0-.72-1.37L95.25,90a1.39,1.39,0,0,0-1.7.29,8.4,8.4,0,0,0-1.25,6.31,1.49,1.49,0,0,0-.13,1.56l1.55,3.29c.15.34.31.66.47,1l1.88,4c.55,1.15,2.41,1.49,3.12.5a1.8,1.8,0,0,0,2.86-1.52,1.75,1.75,0,0,0,2.34-1.81l0-.27a1.73,1.73,0,0,0,1.71-1.71,1.67,1.67,0,0,0,2-1.83c0-.1,0-.2,0-.3.12.2.22.4.34.6a1.77,1.77,0,0,0,3.19-1.18c0-.13,0-.25,0-.38a1.32,1.32,0,0,0,.73-.08,1.56,1.56,0,0,0,2.11-1c0-.1,0-.19.07-.29a1.72,1.72,0,0,0,2.14-.08,1.43,1.43,0,0,0,1.57-.92c.75,1.31,3.18.74,3-.94l0-.29a1.75,1.75,0,0,0,2.2-1l0,0c.8,1.48,2.44.72,2.94-.5l.09.19a1.75,1.75,0,0,0,3,.41,1.72,1.72,0,0,0,2.61.48,1.87,1.87,0,0,0,2.38,0,2.12,2.12,0,0,1,.11.21c.92,1.82,3.6,1.13,3.59-.57a1.8,1.8,0,0,0,1.4-1.73,2,2,0,0,0,1.15-1.13A2.09,2.09,0,0,0,142,89.83a2,2,0,0,0,2-.88,1.94,1.94,0,0,0,1.85-.49,2,2,0,0,0,2.77-.8,1.77,1.77,0,0,0,2.56-.08,1.86,1.86,0,0,0,3.52-.89l.09.2a1.84,1.84,0,0,0,2.45,1l1.07,1.83a2.34,2.34,0,0,0,.26.34s0,0,0,0a1.9,1.9,0,0,0,1,2.42l.17.06c1,.39,2.57-.12,2.63-1.41C162.44,87.71,159.61,83.26,158.33,80.07Z"/><path class="cls-8" d="M122.45,97.35c-3.43,4.3-3,12.36-2.32,17.48a.38.38,0,0,0,.74,0c.45-6,.56-11.34,2.2-17.12A.36.36,0,0,0,122.45,97.35Z"/><path class="cls-8" d="M137.51,99.42a.17.17,0,0,0-.27.11c-.08,3.61,1.53,7.16,1.73,10.83s-.54,7.33-.66,11a.54.54,0,0,0,1,.23C142.26,116,142.3,104.16,137.51,99.42Z"/><path class="cls-8" d="M125.89,98.4c0-.16-.29-.21-.33,0a21.91,21.91,0,0,0-.75,6.79c0,.4.61.34.66,0A31.06,31.06,0,0,0,125.89,98.4Z"/><path class="cls-8" d="M134.87,98.51a.21.21,0,0,0-.4.06,15.76,15.76,0,0,0-.2,5.77.4.4,0,0,0,.76.07A7.55,7.55,0,0,0,134.87,98.51Z"/><path class="cls-8" d="M102.3,88.23a11.43,11.43,0,0,1-2.1-.48A3,3,0,0,1,98.79,86a.56.56,0,0,0-1.05.2,3.17,3.17,0,0,0,1.71,2.63c.89.52,2.26.8,3-.09A.34.34,0,0,0,102.3,88.23Z"/><path class="cls-8" d="M156.69,94.52a4.31,4.31,0,0,0-1.6-.66,2.65,2.65,0,0,0-1.55.26c-.29.08-.19.52.08.55a7.24,7.24,0,0,1,1.22.4,3.94,3.94,0,0,1,1.21.61c.66.49.94,1.42,1.66,1.78a.4.4,0,0,0,.51-.23C158.69,96.25,157.43,95,156.69,94.52Z"/><path class="cls-9" d="M103.05,104.27c-4.15-2.87-9.68-7.49-7.32-13A1.69,1.69,0,0,0,94,88.9l.06,0a1.32,1.32,0,0,0-.91.37l-.13.12a1.31,1.31,0,0,0-.11.12,1.94,1.94,0,0,0-.23.33,9,9,0,0,0,0,8.79,11.05,11.05,0,0,0,8.87,8.68C103.19,107.54,104.53,105.3,103.05,104.27Z"/><path class="cls-9" d="M158.26,81.48c-1.8-2.27-5-6.37-8-7a.75.75,0,0,0-.81.28l-.18.27a.43.43,0,0,0,.19.64c.77.31,1.64,2,2.15,2.61,1.14,1.4,2.36,2.75,3.49,4.16A24.56,24.56,0,0,1,159,90.36a.61.61,0,0,0,1.05.07C161.93,87.37,160.28,84,158.26,81.48Z"/><path class="cls-9" d="M142.28,90c-2.56.09-4.71,1.6-7,2.56-2.11.88-4.5,1.21-6.52,2.2a.23.23,0,0,0-.09.35c1.82,2,4.66.62,6.8-.15,2.56-.93,5.62-1.83,7.21-4.17C142.84,90.52,142.68,90,142.28,90Z"/><path class="cls-10" d="M88.22,157.32c-1-2.43-2-4.87-3-7.29-.6-1.42-1.16-4.21-3-4.47-1.68-.24-2.86,1.57-3.79,2.67a37.36,37.36,0,0,0-3.89,5.63,1.57,1.57,0,0,0-.14,1.07,1,1,0,0,0-.29.55c-.09.64-.17,1.27-.25,1.91v0l-.08.7c-.1,1,1.09,1.29,1.74.81a1.24,1.24,0,0,0,1.91-.22,1.41,1.41,0,0,0,1-.32,1.51,1.51,0,0,0,.9.38,7.21,7.21,0,0,0,3.37-.33,1.57,1.57,0,0,0,1.32.1,1.38,1.38,0,0,0,1.83.34l0,0C86.78,160,88.79,158.67,88.22,157.32Z"/><path class="cls-11" d="M81.25,159.37a.68.68,0,0,0-1.1-.37c-2,1.87-1.75,6.44-3.61,8.64-1.32-.11-2.22.87-3.42,1.46-1.35.68-.46,2.66.85,2.65a6.35,6.35,0,0,0,5.58-3.87A17.31,17.31,0,0,0,80.76,164C81.09,162.56,81.73,160.82,81.25,159.37Z"/><path class="cls-11" d="M179.47,168c.6-1.67-1.57-3-2.52-1.71-1.75.54-2.89,2.86-3.26,4.51a1.7,1.7,0,0,0,0,.22c-2.22,2.88-.2,5.74,2.29,7.59a1.53,1.53,0,0,0,2.51-1.2,3.28,3.28,0,0,0-.31-1.53,5.08,5.08,0,0,1-.19-2.84A30.48,30.48,0,0,1,179.47,168Z"/><path class="cls-12" d="M187,161.45c-.07-.34-.13-.69-.2-1a1.55,1.55,0,0,0-.57-1.08,14.85,14.85,0,0,0-1.59-3.47c-1.6-2.67-4-3.66-7-3.92-2.87-.25-5.09.3-6.36,3.1-.93,2.07-2.15,5.94-.16,7.73a.91.91,0,0,0-.18.21c-1.13.65-1.85,2.11-.25,3.25a1.91,1.91,0,0,0,3-.79,1.32,1.32,0,0,0,.55.14,2.13,2.13,0,0,0,1.59.15,1.13,1.13,0,0,0,.57-.38,18.72,18.72,0,0,0,6.24,1.23,1.35,1.35,0,0,0,1.63.13,3.64,3.64,0,0,0,2.15-3.46l0-.12A1.56,1.56,0,0,0,187,161.45Z"/><path class="cls-13" d="M175.66,155.78a1,1,0,0,0,0,2A1,1,0,0,0,175.66,155.78Z"/><path class="cls-13" d="M182.16,159.06,182,159c-1.08-.37-1,1.52-.08,1.2l.29-.1C182.7,160,182.59,159.21,182.16,159.06Z"/><path class="cls-13" d="M174.73,162.25l-.11-.1a.55.55,0,1,0,0,.87l.09-.08A.44.44,0,0,0,174.73,162.25Z"/><path class="cls-13" d="M181.83,163.39c-1.13,0-1.19,1.76-.06,1.76S183,163.39,181.83,163.39Z"/><path class="cls-13" d="M180.47,155c-1.1,0-1.17,1.72-.06,1.72S181.58,155,180.47,155Z"/><path class="cls-13" d="M178.21,159.6c-.92,0-1,1.43-.08,1.43S179.13,159.6,178.21,159.6Z"/><path class="cls-13" d="M171.68,157.55c-.71,0-.8,1.1-.09,1.1S172.4,157.55,171.68,157.55Z"/><path class="cls-13" d="M184.85,160.81c-.8,0-.9,1.25-.09,1.25S185.65,160.81,184.85,160.81Z"/><path class="cls-13" d="M77.19,155c-.93,0-1,1.45-.08,1.45S78.13,155,77.19,155Z"/><path class="cls-13" d="M79.16,150.83a.94.94,0,0,0,0,1.87A.94.94,0,0,0,79.16,150.83Z"/><path class="cls-13" d="M82.16,147.78H82.1a.61.61,0,0,0-.58.38l0,.07a.51.51,0,0,0,.34.68.57.57,0,0,0,.87-.45v0A.59.59,0,0,0,82.16,147.78Z"/><path class="cls-13" d="M81.76,153.71v.16c.06.62,1,.53,1.07-.06l0-.17C82.93,152.87,81.68,152.87,81.76,153.71Z"/><path class="cls-13" d="M84.43,156.28l-.41.14a.38.38,0,0,0-.14.19c.11.66.33.92.69.78a.52.52,0,0,0,.19-.11.56.56,0,0,0,.19-.39A.57.57,0,0,0,84.43,156.28Z"/><path class="cls-13" d="M86.89,153.53a1.29,1.29,0,0,0-1.64-1l-.07,0A1.3,1.3,0,0,0,84.3,154,1.27,1.27,0,0,0,85.58,155h.07A1.29,1.29,0,0,0,86.89,153.53Z"/><path class="cls-14" d="M31,144.35c15.13,9.82,18.92,28.87,29.7,42.36,9.8,12.28,24,17.21,38.7,10.79,8.75-3.83,16.57-8.31,26.27-9.46a39.69,39.69,0,0,1,15.43.85c4.45,1.29,8.19,3.91,12.09,6.32,14.06,8.7,32,8.35,47.41,2.95,8.41-3,13.42-8.26,17.64-15.94,4.85-8.83,11.4-14.75,18.63-21.54,2.79-2.63-.4-6.7-3.71-5.27-6.73,2.88-11.91,8.21-16.31,14-4.5,5.9-6.9,14.29-13.27,18.49s-15.54,5.33-23,6.07c-8.93.88-16.56-.55-24.22-5.24-6.78-4.15-13.16-7.38-21.25-7.89a58.35,58.35,0,0,0-24.38,3.92c-7.35,2.81-14.2,8.12-22.12,9.21-8.32,1.15-16.16-3.78-21.52-9.72-12.49-13.85-16.41-33.9-33.28-43.93-2.72-1.62-5.48,2.33-2.79,4.07Z"/><path class="cls-14" d="M235.88,158.9c.86-4.82-3.85-10.21-6.75-13.7a76.56,76.56,0,0,0-13.28-12.28c-6.28-4.67-13.13-6.92-20.65-8.89-9.21-2.41-18.61-4.13-27.94-6-6.62-1.33-14.15-4-21-3.22a1.63,1.63,0,0,0-1,2.63c4.51,4.38,12.44,5.07,18.29,6.27,9,1.85,17.94,3.63,26.85,5.74,6.6,1.56,13.78,2.92,19.51,6.72a75.87,75.87,0,0,1,13.84,11.7c3.27,3.54,6.31,9.87,10.77,11.8a1,1,0,0,0,1.33-.77Z"/><path class="cls-14" d="M34.59,142.77c8-6.23,18.77-9.2,28-13a86.27,86.27,0,0,1,17.22-5.34c10.91-2.11,22.08-3.78,33.11-5.17,1.78-.23,1.84-2.72.32-3.36-4.5-1.88-9.76-1.22-14.47-.71Q88,116.32,77.41,118.37A91.87,91.87,0,0,0,59.61,124c-9.88,4-20.81,7.38-29.27,14.08-3.2,2.53,1.06,7.15,4.25,4.67Z"/><path class="cls-14" d="M116.81,99.65c-6.92,3.6-7.41,15.72-5.09,22.17A22,22,0,0,0,131,136.2c8.05.34,15.32-4.28,17.32-12.26,1.73-6.94,1.52-21.6-5.52-25.72a1.58,1.58,0,0,0-2.47,1.52c.51,3.17,2.25,5.9,3,9a31.93,31.93,0,0,1,.62,10c-.69,7.81-5.86,13-13.94,12.39a16.65,16.65,0,0,1-14.71-12.9,19.2,19.2,0,0,1,1-10.86c1-2.52,2.3-4.14,2.09-6.86a1.16,1.16,0,0,0-1.6-.88Z"/><path class="cls-14" d="M102.26,108.45c3.83-.49,7-4.48,10.48-6.19A35.44,35.44,0,0,1,128,98.71a34.71,34.71,0,0,1,14.2,2.93c4.19,1.83,8.47,5.85,13.1,6.1a1.86,1.86,0,0,0,1.85-2.61c-2.56-4.52-9.26-7.1-13.94-9a38.21,38.21,0,0,0-17.11-2.73,40.45,40.45,0,0,0-15.59,4.36c-3.6,1.85-9.34,4.74-10,9.08a1.48,1.48,0,0,0,1.7,1.6Z"/><path class="cls-14" d="M104.19,104.31c-7.92,5.46-12-5.48-10.48-11.62,1.64-6.57,6.65-10,11.9-13.6,3.83-2.61,7.13-5.43,9.26-9.63,2.55-5,2.43-12.11,5.69-16.58,4.15-5.69,7,.51,9.23,3.3A42.42,42.42,0,0,0,134.45,61c4.24,3.81,9,7,13.49,10.44,8.78,6.85,21.21,24.08,5.64,31-2.71,1.21-1.13,5.17,1.63,4.75,12.86-2,12.19-19.07,7.1-27.55C155,67.55,140.75,63,132.42,51.89,129.49,48,126.35,43,120.75,46s-6.42,10.33-8.06,15.65c-2.5,8.14-7.71,11.34-14.3,16-5.11,3.63-8.86,8.54-10.18,14.75-1.24,5.81-.06,12.88,5,16.56,4.46,3.23,10.81,2.9,14-1.84a2.08,2.08,0,0,0-3-2.77Z"/><path class="cls-14" d="M115.87,125c-2.75-1.42-7.62,1.32-9.85,2.86-1.15.81-2.5,2-4,2.18a31.12,31.12,0,0,1-3.3-.25,5.5,5.5,0,0,0-4.08,1.15,1,1,0,0,0,.24,1.77c3.06,1.24,6.85,2.85,10.12,1.52,1.94-.78,3.35-2.46,5.21-3.4a44,44,0,0,1,5.79-2.21c1.81-.6,1.15-3-.15-3.62Z"/><path class="cls-14" d="M143.18,131c1.21,1.88,3.52,1.66,4.64,3.51,1,1.67,1.12,3.62,2.61,5.08,3.84,3.77,10.09.65,14.73,1a1.13,1.13,0,0,0,.56-2.16,15.4,15.4,0,0,0-7.06-2.24c-1.06,0-3,.36-4-.1-1.37-.66-1.64-2.13-2.26-3.33-1.73-3.4-4.77-5.45-8.68-4a1.46,1.46,0,0,0-.53,2.21Z"/><path class="cls-14" d="M92.86,88c2,5.2,8.21,8.07,13,4.45,4-3,5-11.86.86-15.23-1.62-1.3-4.09.81-3.1,2.61,1.55,2.82,3.6,5.75.87,8.52-2.92,3-6.43,1.43-8.1-2-1.1-2.26-4.38-.66-3.51,1.65Z"/><path class="cls-14" d="M130.93,56.57c-3.77,6.49-2.08,16.15,4.22,20.65,4.49,3.19,17.27,1.93,17.3-5.26,0-1.32-1.41-2.82-2.8-2-1.62,1-2.69,2.48-4.48,3.28-2.54,1.14-5.48,1.62-7.83-.17-4.36-3.33-5-10.06-3.08-14.77.82-2-2.24-3.67-3.33-1.77Z"/><path class="cls-14" d="M140.29,98.44c2.45-4.57,6.6-7.26,11.93-6.56,4.85.64,6.59,3.85,9.38,7.27a1.68,1.68,0,0,0,2.83-.45c3-6.6-5.71-11.7-11.12-12.49a15.75,15.75,0,0,0-17.1,10.13c-.93,2.39,2.82,4.45,4.08,2.1Z"/><path class="cls-14" d="M175.07,178.4c-1.2-2.17-2.62-3.8-1.85-6.47.63-2.16,2.26-3.62,3.49-5.41.33-.49-.25-1.27-.8-.92-4.35,2.79-6.47,10.06-1.55,13.39.37.25.95-.15.71-.59Z"/><path class="cls-14" d="M178.77,177.71c-.21-2.4-1-4.1-.11-6.55.53-1.47,1.69-2.67,2-4.21a.82.82,0,0,0-.33-.91l-.33-.2a.4.4,0,0,0-.55.08c-1.72,2.82-4.76,9.44-1.12,12.06a.29.29,0,0,0,.45-.27Z"/><path class="cls-14" d="M168.87,163.43c-.34,1.8.18,4.13,2.18,4.67,1,.28,1.62-.17,2.55-.56,3.12-1.31,4.29-1.21,7.37.15,5.68,2.52,8.25-4.53,6.62-9-1.94-5.39-8-9.41-13.69-7.32-6.15,2.27-6.68,9.79-4.22,15.05.36.77,1.36.27,1.3-.46-.37-4.23-2.23-9.24,2.29-12.14s10.06.3,12.3,4.45c.77,1.43,1.46,4.27.77,5.77l-3.92,2.75L181,166a8.45,8.45,0,0,0-3-1.1,8.23,8.23,0,0,0-3.19.45c-.4.1-.75.54-1.1.57-1.3.09-3.92-1.33-4.29-2.58-.09-.31-.52-.17-.57.08Z"/><path class="cls-14" d="M174.38,182.11c-1.62-1.65-3.56-3-5.31-4.49l-.57,1.14c3.22,1.09,6.68.91,9.9,2a.79.79,0,0,0,1-.49,17.37,17.37,0,0,1,3.28-5.72c.5-.61,1.16-1.11,1.3-1.93a.47.47,0,0,0-.43-.52h-.08a.48.48,0,0,0-.51.42v.05a.46.46,0,0,0,.82.31l-.44.15-.13-.81a20.66,20.66,0,0,0-3.13,3,17.07,17.07,0,0,0-2.12,4.56l1-.49c-3.26-1-6.71-.74-10-1.73a.65.65,0,0,0-.57,1.14,34.94,34.94,0,0,0,5.57,4.06c.36.19.74-.35.46-.63Z"/><path class="cls-14" d="M79.38,158.68a17.13,17.13,0,0,1-2.3,6.64A10.13,10.13,0,0,1,72,169a.3.3,0,0,0,.09.57c5.47.35,7.63-6.58,8.4-10.76.13-.69-1-.77-1.09-.09Z"/><path class="cls-14" d="M76,171.45c5-2.1,6.74-8.17,6.91-13.14a.36.36,0,0,0-.68-.17c-1,2.27-1.09,4.78-1.94,7.09-.94,2.52-2.9,3.74-4.74,5.5a.43.43,0,0,0,.45.72Z"/><path class="cls-14" d="M72.69,158c.46.93.1,1.66,1,2.36s2.15.41,3.24.09A21.8,21.8,0,0,1,80,159.36c2-.28,2.85.45,4.47,1,1.44.52,3.48,1.11,5,.55a.91.91,0,0,0,.66-.8c.07-2-1.13-4.43-1.83-6.25a60.83,60.83,0,0,0-3-6.63c-1.54-2.89-2.31-3.79-5.17-1.78-2.35,1.65-11.73,13.69-5.68,15.1a.66.66,0,0,0,.58-1.17c-2.61-2.26,2.88-9.67,4.68-11.38.45-.43,2.12-2.1,2.79-2s1.38,2.16,1.58,2.56a54.79,54.79,0,0,1,3,6.8c.7,2,2.18,4.63-1.07,3.74-1.74-.48-3.2-1.59-5.08-1.57a11.5,11.5,0,0,0-3.57.95c-1.75.56-2.82.32-3.8-1.08-.34-.48-1.12,0-.86.56Z"/><path class="cls-14" d="M72.76,174c.95-1.35.44-3.15-.13-4.58-.74-1.81-1.79-4.13-3.28-5.42a.37.37,0,0,0-.57.35c.31,1.64,1.49,3,2.27,4.43a11.22,11.22,0,0,1,1.14,5.07.32.32,0,0,0,.57.15Z"/><path class="cls-14" d="M72.85,173.24c1-1.12,3.33-1.33,4.67-1.35a25.73,25.73,0,0,0,4.12-.16.37.37,0,0,0,.28-.52c-.57-1.61-3.57-.77-4.82-.66a8.52,8.52,0,0,0-2.78.63c-1.12.52-1.08.91-1.69,1.93-.07.13.13.23.22.13Z"/></g></g></g><g id="PixelsASSETS"><g id="Espalda"><rect class="cls-15" width="275" height="259.5"/></g></g></g></g></svg>