<svg xmlns="http://www.w3.org/2000/svg" viewBox="0 0 160 195"><defs><style>.cls-1{isolation:isolate;}.cls-2{fill:#6a4104;}.cls-3{fill:none;mix-blend-mode:multiply;opacity:0.4;}</style></defs><g class="cls-1"><g id="Layer_2" data-name="Layer 2"><g id="Variación_C" data-name="Variación C"><g id="AssetsE3"><g id="HamE3"><path class="cls-2" d="M99.49,80.48a16.6,16.6,0,0,0-7.87-11.67c-2.72-1.51-6.22-1.62-6.17,2.38,0,4.54,5.49,8,9.48,8.32.64.06.9-1,.24-1.13-2.27-.49-5.56-2-6.69-4.21a.53.53,0,0,1-.19-.15l-.17-.25a1.3,1.3,0,0,1-.46-.74,2.6,2.6,0,0,1-.37-2.15,2,2,0,0,1,2.17-1.33,4.38,4.38,0,0,1,2.21.9,10.7,10.7,0,0,1,2.77,2.63c4.07,4.79,4.94,10.93-.93,14.62-.32.21-.34.82.14.84C97.78,88.64,99.87,84.13,99.49,80.48Z"/><path class="cls-2" d="M54.24,65.21c-3.65.84-5.29,4.94-5.15,8.34.24,5.6,4.49,10.85,8.16,14.71.39.41.94-.15.63-.59-2.14-3-4.66-5.76-6.24-9.12a12.47,12.47,0,0,1-1.39-6A7.73,7.73,0,0,1,51.4,68.8h0a4.33,4.33,0,0,1,2.67-2.25,4.05,4.05,0,0,1,2.72.27c1.6.73,2.43,2.52,1,3.9a3.35,3.35,0,0,1-2.05.92,3.75,3.75,0,0,1-.45,0c0,.28-.85.22-2.47-.2-.44-.08-.83.54-.36.78,2.62,1.35,7,1,7.42-2.67C60.23,66.51,57,64.58,54.24,65.21Z"/><path class="cls-2" d="M105.53,97a16.06,16.06,0,0,0-2.64-9.54c-.25-.35-.77,0-.64.37,1.2,3.71,2.43,7.27,1.86,11.26a7.55,7.55,0,0,1-.4,1.8l-2.33,1.7c-1.69.26-3.17-2.32-3.4-3.62-.38-2.1,1-3.53,1.9-5.22.07-.13-.06-.33-.21-.29-5.55,1.23-2.67,11.6,2.68,10.33C105.24,103.11,105.52,99.42,105.53,97Z"/><path class="cls-2" d="M61.32,78.4c-1.76,2-1.43,4.45-.08,6.63,1.08,1.75,2.8,3.22,3.38,5.25a4.51,4.51,0,0,1-1.87,5c-1.62,1-3.33.46-5,0a.37.37,0,0,0-.36.6c2.62,2.57,7,1,8.22-2.27A5.84,5.84,0,0,0,65.38,89c-1.32-2.83-6-6.32-3.16-9.72C62.73,78.66,61.86,77.79,61.32,78.4Z"/><path class="cls-2" d="M66,101.13c.16-.34-.33-.76-.62-.47-3.59,3.54-8.25,6.56-13.29,3.56A8.71,8.71,0,0,1,47.66,97a10.05,10.05,0,0,1,.57-4.09,2.31,2.31,0,0,1,1.12-1.73,1.66,1.66,0,0,1,1.63,0A2.26,2.26,0,0,1,52,93.35c.28,1.13-.78,3.68-1,4.38-.17.5.55,1,.86.48,1.36-2.17,2.55-8.57-1.33-9s-4.67,6.54-4.26,9.12C47.83,107.76,62,110,66,101.13Z"/><path class="cls-2" d="M65.82,54.74C69.53,61.08,61.46,65.5,62,72c.36,4.07,3.48,7.52,7.7,7.27a.35.35,0,0,0,.06-.67c-3.86-.89-6.71-3.55-6.53-7.79.16-3.64,2.82-6.06,4.11-9.27,1-2.44,1.27-5.48-1.06-7.17C66.07,54.16,65.65,54.44,65.82,54.74Z"/><path class="cls-2" d="M93.78,112.45c-1.39-3.12-4.1-.85-4.86,1.36-.09.27.29.53.46.26a1.08,1.08,0,0,1,.69-.77h0a1.33,1.33,0,0,1,.14-.19c.37-.86,1.13-1.62,2.13-1.16a2,2,0,0,1,.82,2.39c.17.41-.11,1.06-.85,2A5.82,5.82,0,0,1,89,118.57a4.07,4.07,0,0,1-2.1-.27,2.69,2.69,0,0,1-1.84-3.1l-.09-.1a5.63,5.63,0,0,1,1.19-2.91,14.69,14.69,0,0,1,2.71-2.69c1.76-1.52,3.84-3.65,3.53-6.17a.26.26,0,0,0-.46-.11,26.76,26.76,0,0,0-1.81,3A29,29,0,0,1,86.67,110a8.77,8.77,0,0,0-2.76,4.57,4.52,4.52,0,0,0,5.84,5C92.53,118.78,95.07,115.35,93.78,112.45Z"/><path class="cls-2" d="M77.18,109.56a.44.44,0,0,0-.28.8c2.2,1.46,4,4.7,1.94,7.12-2.69,3.21-5.16-2.25-5.54-4.3-.77-4,.53-7.53,3-10.59.24,0,.49-.09.74-.11.67-.06.46-1.07-.19-1A11.62,11.62,0,0,0,68,107.1c-1.41,2.19-3,5.77-.68,8,1.83,1.71,3.76-.09,4-2.24.19-1.73-1.69-3.44-2.91-1.65-.22.31.08.87.49.74q2.55,2.3-1.19,1.67a4.94,4.94,0,0,1,.12-3.67,12.22,12.22,0,0,1,2.11-3.54A10.35,10.35,0,0,1,74.7,103c-3.77,4.46-4.18,14,1.49,16.67C81.25,122.06,83.6,109.58,77.18,109.56Z"/><path class="cls-2" d="M94.39,96.37c0-.19-.09-.41-.12-.62h0l-.09,0a10.58,10.58,0,0,0-2.24-4.1,5.69,5.69,0,0,0-2.67-1.7l.33-.26C90.84,88.57,93,86,92.45,84.22a.9.9,0,0,1,0-.09.35.35,0,0,0-.19-.45c-1.33-.52-3.68.82-4.8,1.47-.46.27-1,.59-1.48.95a12.9,12.9,0,0,0,.57-2,7.65,7.65,0,0,0,0-4,5.59,5.59,0,0,0-.11-.59l0-.07c.23-.3-.14-.83-.49-.61a10.4,10.4,0,0,0-4,6c-.69-3.28-3.31-6.74-5.57-9.13l-.75-.51c-.28-.19-.59-.4-.88-.64q-.06.24-.12.45a9.84,9.84,0,0,1-.47,1.32,14.64,14.64,0,0,0,.86,9,11,11,0,0,0-8.4-.51c-.33.13-.16.59.16.56,2.4-.18,4.59-.43,6.9.5,1.56.63,2.44,2.09,3.94,2.78a.25.25,0,0,0,.21,0c.27.19.55.37.85.55a3.75,3.75,0,0,0-.39,1.35,8.54,8.54,0,0,1-1.57.2,4.21,4.21,0,0,0-2.3-.21,8.89,8.89,0,0,1-3-1.32c-1.44-1-2.41-2.55-4-3.33a.21.21,0,0,0-.28.22c.48,2.09,2.86,3.75,4.68,4.68l.66.31a5.75,5.75,0,0,0-.7.37,10.2,10.2,0,0,0-3.74,4.45q-.14.61-.3,1.2a10.23,10.23,0,0,0,1.41.49c1.51.65,4-.06,5.37-.58l.28-.14a2.55,2.55,0,0,0,.14,1.78.41.41,0,0,0,.3.31,3.68,3.68,0,0,0,2.61-.2,4.93,4.93,0,0,0,.79-.46c1.18,2.72,3.56,5.16,5.86,5.72,0-.21.11-.41.17-.61l-.12-.1a.16.16,0,0,0,.18-.09l0-.13a9.89,9.89,0,0,0-.2-3.91A11.24,11.24,0,0,0,86.78,101c1.81,1.28,5,2.44,7,1a.29.29,0,0,0,0-.43.77.77,0,0,0,0-.15A14.36,14.36,0,0,0,90.36,96l.51.17c.91.31,2.21.87,3.14.45,0,0,0,0,0,0a2.11,2.11,0,0,1,.31-.21.19.19,0,0,0,0-.07ZM77.61,97.63a3.24,3.24,0,0,1-1.94.28,9.23,9.23,0,0,1,.39-1.79,15.6,15.6,0,0,0,1.43-1.25l.56-.51A7.16,7.16,0,0,0,78.34,97,3.29,3.29,0,0,1,77.61,97.63Zm.37-5a8.6,8.6,0,0,1-4.43,3.46,19.4,19.4,0,0,1-2,.43c-.17,0-.34,0-.52-.06-.46,0-.88,0-1.34,0a6.5,6.5,0,0,1-1.19-.32,9.07,9.07,0,0,1,4-3.89,6.63,6.63,0,0,1,2-.62,8.76,8.76,0,0,0,4,0v.05a4.08,4.08,0,0,0,.26.64A.65.65,0,0,0,78,92.59Zm8.11-5a12.86,12.86,0,0,1,2.59-1.73,14.57,14.57,0,0,1,2.58-.95c-.57.85-.9,2-1.52,2.8A7.62,7.62,0,0,1,85,90.41a2.68,2.68,0,0,0-.33-1.47C85.18,88.54,85.58,88,86.09,87.58Zm-.71-6.78a15.42,15.42,0,0,1-.06,3.4,17.74,17.74,0,0,1-1.76,3.67,2.14,2.14,0,0,0-1-.25,25,25,0,0,1,1.06-4.13A12.22,12.22,0,0,1,85.38,80.8Zm-9.95-4.58c.95,1.43,2.2,2.7,3.17,4.11A13.9,13.9,0,0,1,81,87.39H81a2.72,2.72,0,0,0-1.47.74C74.56,85.3,75.61,80.83,75.43,76.22ZM80.57,99c-1-1.94-.8-3.87-1.13-5.85a3.39,3.39,0,0,0,2.23.85c.37.84.78,1.68,1.1,2.54a51.12,51.12,0,0,1,1.78,6.52l0,0C83,101.88,81.55,100.85,80.57,99Zm12.22,2.43a10.72,10.72,0,0,1-2.26-.09,8.12,8.12,0,0,1-3.78-2c-1.83-1.63-2.58-3.73-3.68-5.78a2.9,2.9,0,0,0,1-1A26.93,26.93,0,0,1,92.79,101.45ZM90.3,94.69c-1.12-.44-2.21-1.36-3.41-1.35a22.14,22.14,0,0,0-2.53-1.27c0-.08,0-.17.08-.26a3,3,0,0,0,.38-.62,5.39,5.39,0,0,0,3.47-.64,10.06,10.06,0,0,1,3.38,2.37,7.8,7.8,0,0,1,1.94,2.69A17.38,17.38,0,0,1,90.3,94.69Z"/><path class="cls-2" d="M105.23,72.14c2.63-2.67,1.82-7-.12-9.79-3.2-4.61-9.6-6.76-14.77-8.05-.55-.14-.71.63-.21.83,3.41,1.38,7,2.36,10.15,4.36a12.5,12.5,0,0,1,4.41,4.35,7.86,7.86,0,0,1,1,3.75h0a4.37,4.37,0,0,1-1,3.34,4.14,4.14,0,0,1-2.44,1.22c-1.75.24-3.41-.82-2.94-2.76a3.28,3.28,0,0,1,1.24-1.87,2.26,2.26,0,0,1,.36-.27c-.13-.26.6-.65,2.19-1.16.41-.17.41-.9-.12-.85-2.93.27-6.48,2.92-4.84,6.23C99.48,74.25,103.23,74.16,105.23,72.14Z"/><path class="cls-2" d="M76,67.91a.44.44,0,0,0,0-.84c-2.54-.73-5.21-3.27-4-6.21,1.59-3.86,5.6.58,6.59,2.42a12.64,12.64,0,0,1,.36,11c-.23.11-.45.23-.68.33-.62.26-.11,1.15.49.9a11.61,11.61,0,0,0,6.73-8c.68-2.52,1.13-6.42-1.77-7.79-2.25-1.07-3.55,1.24-3.12,3.35.34,1.7,2.65,2.77,3.27.69.11-.36-.34-.81-.69-.56q-3.14-1.41.62-1.95a4.93,4.93,0,0,1,1,3.54,12.09,12.09,0,0,1-.93,4,10.37,10.37,0,0,1-3.52,4.66C82.59,68,80.1,58.85,73.88,58,68.32,57.24,69.87,69.84,76,67.91Z"/><path class="cls-2" d="M109.11,74c-1-.64-2.43-.1-3.36.8a4.55,4.55,0,0,0-1.38,4.77c.35,1.48,1.4,3.39,3.2,3a2.81,2.81,0,0,0,1.8-3.89.48.48,0,0,0-.81-.07c-.38.58-.35,1.35-.74,1.89-1,1.36-1.77-.72-1.94-1.5a2.66,2.66,0,0,1,.51-2.52,2.93,2.93,0,0,1,1.75-1.18,6.75,6.75,0,0,1,3,4.24c.65,2.75.42,7.46-3.83,6.38s-6.24-6.83-5.82-10.72c.06-.64-1-.89-1.13-.24a12.26,12.26,0,0,0,2.42,9.64c1.58,2.16,4.93,4,7.59,2.72C114.67,85.23,113.66,74.85,109.11,74Z"/></g></g></g><g id="PixelsASSETS"><g id="Pierna"><rect class="cls-3" width="160" height="195"/></g></g></g></g></svg>