<?xml version="1.0" encoding="utf-8"?>
<!-- Generator: Adobe Illustrator 26.0.0, SVG Export Plug-In . SVG Version: 6.00 Build 0)  -->
<svg version="1.1" id="Capa_1" xmlns="http://www.w3.org/2000/svg" xmlns:xlink="http://www.w3.org/1999/xlink" x="0px" y="0px"
	 viewBox="0 0 660 975" style="enable-background:new 0 0 660 975;" xml:space="preserve">
<style type="text/css">
	.st0{fill:url(#SVGID_1_);}
	.st1{fill:url(#SVGID_00000108990498874946194070000001761484626513781665_);}
	.st2{fill:url(#SVGID_00000062162306722122722510000011931602635458008233_);}
	.st3{fill:#F3941C;}
	.st4{fill:#FFFFFF;}
	.st5{fill:none;stroke:#42210B;stroke-width:9.3;stroke-linecap:round;stroke-linejoin:round;}
	.st6{fill:none;stroke:#42210B;stroke-width:6.97;stroke-linecap:round;stroke-linejoin:round;}
	.st7{fill:url(#SVGID_00000044139534416318900810000001622541859823529918_);}
	.st8{fill:#1D1D1B;}
</style>
<g id="Capa_2_00000018234704342000286970000005822199890637267611_">
	<g id="ChivaEARTHBase">
		
			<linearGradient id="SVGID_1_" gradientUnits="userSpaceOnUse" x1="190.9447" y1="28.15" x2="190.9447" y2="128.22" gradientTransform="matrix(1 0 0 -1 0 976)">
			<stop  offset="0" style="stop-color:#FACB6A"/>
			<stop  offset="0.1" style="stop-color:#F9C456"/>
			<stop  offset="0.25" style="stop-color:#F9BB3B"/>
			<stop  offset="0.41" style="stop-color:#F8B428"/>
			<stop  offset="0.57" style="stop-color:#F8B01D"/>
			<stop  offset="0.74" style="stop-color:#F8AF19"/>
			<stop  offset="1" style="stop-color:#F3941C"/>
		</linearGradient>
		<path class="st0" d="M118.2,798.9c0,0-9.2,73.9-9.1,74.5s9.1,11.4,9.1,11.4l14.2,8.7l4.3,11l11.4-3.6l33.5,39.7l-0.8,21.9h57.8
			v-10h34.2l-7.5-22L232.4,883l-9.1-51L118.2,798.9z"/>
		
			<linearGradient id="SVGID_00000032609341599693958280000008117199037712494221_" gradientUnits="userSpaceOnUse" x1="352.935" y1="30.26" x2="352.935" y2="144.78" gradientTransform="matrix(1 0 0 -1 0 976)">
			<stop  offset="0" style="stop-color:#FACB6A"/>
			<stop  offset="0.1" style="stop-color:#F9C456"/>
			<stop  offset="0.25" style="stop-color:#F9BB3B"/>
			<stop  offset="0.41" style="stop-color:#F8B428"/>
			<stop  offset="0.57" style="stop-color:#F8B01D"/>
			<stop  offset="0.74" style="stop-color:#F8AF19"/>
			<stop  offset="1" style="stop-color:#F3941C"/>
		</linearGradient>
		<polygon style="fill:url(#SVGID_00000032609341599693958280000008117199037712494221_);" points="308.2,813.9 293.2,856.2 
			286.7,883.4 299.2,895.9 304.4,930.2 293.2,962.4 373.7,956.8 373.7,911.2 363.4,888.2 419.1,775.3 		"/>
		
			<radialGradient id="SVGID_00000016039645139333478520000013559445212954562966_" cx="-296.1339" cy="321.9" r="223.44" gradientTransform="matrix(-0.92 0 0 -0.64 -36.4 852.07)" gradientUnits="userSpaceOnUse">
			<stop  offset="0" style="stop-color:#FACB6A"/>
			<stop  offset="0.1" style="stop-color:#F9C456"/>
			<stop  offset="0.25" style="stop-color:#F9BB3B"/>
			<stop  offset="0.41" style="stop-color:#F8B428"/>
			<stop  offset="0.57" style="stop-color:#F8B01D"/>
			<stop  offset="0.74" style="stop-color:#F8AF19"/>
			<stop  offset="1" style="stop-color:#F3941C"/>
		</radialGradient>
		<path style="fill:url(#SVGID_00000016039645139333478520000013559445212954562966_);" d="M426.1,457.8c0,0,125.5,162.2,74.4,253.2
			S110.1,912.9,79.8,755s57.5-205,124.5-205s161.1,37,184.6,10.1S400,450.3,400,450.3L426.1,457.8z"/>
		<path class="st3" d="M426.1,457.8c0,0,32.4,36.5,46.3,72.8s-71.7,0-71.7,0s6.6-46.8,0.8-67.5S426.1,457.8,426.1,457.8z"/>
		<path class="st4" d="M474,666.2c0,0,35.9-59.1-17.8-45.6s-79.8,161.3-66.8,154.5S474,666.2,474,666.2z"/>
		<path class="st5" d="M311.7,788.4c0,0-1.3,35.6-8.6,44.8s-14.9,25.9-12.1,26s7.8,0,7.8,0s-19,23.2-12,24.2s12.5,5.7,11.7,8.4
			s10,28.8,4.6,45.7s-9.9,24.9-9.9,24.9h54c0,0-3.5-36-7.5-51s-12.8-20.8-8.4-29.4s26.4-48,42.4-69.3s16.3-27.5,16.3-27.5"/>
		<path class="st5" d="M419.1,777.5c0,0-49.9,93.4-54.9,102.4s6.8,20.3,7.9,40.7s1.6,36.2,1.6,36.2h-26.5"/>
		<path class="st6" d="M226.8,834.5c0,0-1,38.9,7,50.9s26.7,36.5,32.8,47.2s6.2,19.8,6.2,19.8h-34.3"/>
		<path class="st5" d="M181.6,940.5c0,0,12.2-13.1,21.2-17.1s19.5-2.5,19.5-2.5c9.5-5.2,20.2-7.9,31-7.8"/>
		<path class="st5" d="M303.1,937.5c0,0,13.4-8.8,34.5-12s34.5-5,34.5-5"/>
		<path class="st5" d="M402.4,473.6c1.9,26.6,2,68.7-13.5,86.5C365.4,586.9,271.3,550,204.3,550S49.6,597,79.8,754.9
			c4.1,21.6,14,38.1,28.2,50.4c0,0,10.6,2.5,8.1,15.3s-11.4,59.8-4.4,59.8s9.5-7,9.5-7s-5.5,18,0.5,18s11-7,11-7s-2,20,4,20
			s10-5,10-5s35.7,37,35.9,44s-1.9,19-1.9,19h57.8c0,0-5.2-18.9-11.8-33.1c-2.9-6.2-6-11.5-9-13.9c-10-8-28-30.1-35.5-41
			s-6.6-36.9-3-46.4s35.5-68.5,21.5-105.5"/>
		<path class="st6" d="M306.9,820.6c-23.6,6.2-47.8,10.4-72.1,12.6c0,0-32.2,2.8-52.1,0"/>
		<path class="st6" d="M448.4,489.9c33.5,52,89.1,155.2,52.1,221.1c-15.6,27.8-58.1,57.4-110.4,80.7"/>
		<path class="st4" d="M413,183c-6,0.8-12,0.8-18,0c-9.9-1.3-18.6,11.5-18.6,11.5s-6.3-2.7-20.2-2.2c-8.5,0.3-16.9,2.6-24.3,6.8
			l-2.7,8.4l78.2,44.1l32.9-46.2L413,183z"/>
		
			<radialGradient id="SVGID_00000140727743321695277660000001465412841660692614_" cx="-459.6936" cy="672.4382" r="237.6959" gradientTransform="matrix(-0.92 0 0 -0.92 -36.4 964.72)" gradientUnits="userSpaceOnUse">
			<stop  offset="5.000000e-02" style="stop-color:#FACB6A"/>
			<stop  offset="0.14" style="stop-color:#F9C456"/>
			<stop  offset="0.28" style="stop-color:#F9BB3B"/>
			<stop  offset="0.43" style="stop-color:#F8B428"/>
			<stop  offset="0.58" style="stop-color:#F8B01D"/>
			<stop  offset="0.74" style="stop-color:#F8AF19"/>
			<stop  offset="1" style="stop-color:#F3941C"/>
		</radialGradient>
		<path style="fill:url(#SVGID_00000140727743321695277660000001465412841660692614_);" d="M526.1,376.1c0,0-6.1-21-7.2-34
			s0-18.7,0-18.7s19.5-7.3,28.6-8.6s29.4,1,44.7-8.9s49.4-51.1,52-60.4s11.5-23.3,0-25.8s-35.7,19.9-51.3,18s-34,5.6-44.3,8.3
			S517,259,517,259c-2.7-5.3-5.8-10.4-9.3-15.2c-4.9-6.3-16.7-23.4-28.1-31.1s-13.8-2.3-21.8-8.8s-12.1-11.3-20.2-16
			c-8.5-5-25.5-5-25.5-5l15.2,24.1c0,0-24.4,10.7-24.4,19.1s-1.9,10.3-1.9,10.3s-26.3-11.8-42.4-20.6s-29.4-8.4-29.4-8.4l2.7-8.4
			c0,0-26,13.7-33.2,24.8s-16,35.5-16,53.4v24.4c0,0-50.8,32.8-69.1,34S186,353,177.2,359.5s-55.3,6-54,14.7s46,39.4,70.1,39.4
			s39.8-0.4,53.1-9.2c13.3-8.8,6-12.2,24.3-12.2s46.9,8.4,46.9,8.4s13.3,45.8,21.3,58.5s39,30.1,68.3,42
			c18.3,7.1,37.9,10.5,57.6,9.9L526.1,376.1z"/>
		<path class="st4" d="M522.7,362.1c0,0-37.2-23.9-44.6-35.6s-22.3-57.3-39.3-63.7s-25.2,69-19.2,84.9s10.8,26.4,10.8,26.4
			c-9.1,5.6-14.1,16.1-12.7,26.7c1.1,10.4,3,20.7,5.8,30.8c0,0-21.8,14.3-18.6,23.9s19.1,29.2,29.7,38.2s39.3,31.3,43,32.4
			s10,4.8,9.5,13.8s8.5,25,8.5,25l3.3-6.4c0,0,2.3,8,5.8,11.2s9-21.8,9-21.8l9,3.7v-29.8c0,0,5.3,6.4,14.9-6.9s17.5-53.1,17-71.7
			s-13.2-41.4-15.8-49.3s-13.8-25-13.8-25L522.7,362.1z"/>
		
			<ellipse transform="matrix(0.5931 -0.8051 0.8051 0.5931 -119.9525 379.5061)" class="st8" cx="315.5" cy="308.4" rx="23" ry="16.5"/>
		<path class="st4" d="M298.2,252c0,0,13.4-4.9,21.7-2.8s26.5,11.7,21.7,18.4s-19.3,7.1-31.3,7.4s-18.6-5.6-19.5-10.6
			C288.8,253.9,298.2,252,298.2,252z"/>
		<path class="st4" d="M459,231.6c0,0,12.5-10.2,17.3-10.1s10.2,1.2,10.3,5.4s-3.4,13.2-10.2,13.8s-9.8,2.7-13.3,0.2
			S459,231.6,459,231.6z"/>
		<path class="st8" d="M531.2,394c0,0-5.8-18.6-11.2-19.6s-52.6,3.7-64.8,14.3s-14.3,28.7-2.6,35.6s52,12.8,53.1,14.3s9,34,6.4,38.8
			s-26.5,10.6-51.5,2.6s-35.5-14.9-36.6-22.3l-1.1-7.4c0,0-9.5,14.9,3.7,25s57.4,19.1,71.7,18.6c14.3-0.5,35-10.1,40.9-14.3
			s15.4-19.6,15.4-19.6s-8.5,9.6-17,11.7l-19.1,4.8l-4.8-37.7c0,0,13.3-6.9,16.5-17.5S531.2,394,531.2,394z"/>
		<path class="st3" d="M510.2,287.8c0,0,21.8-6.1,29.6-17.7s12.3-21.7,20.2-17.7s9,7.7,21.4,7.9s25.5-8.4,26.7,0
			c1.2,8.5-17.7,43-36.2,44.6s-31.7,5.8-40.7,6.2c-5.5,0.3-10.9,1.5-16,3.7L510.2,287.8z"/>
		<path class="st3" d="M293.1,335.8c0,0,2.9,4.5,7,18.5s0,28.8,0,28.8s-17.7-8.6-28.8-5.4s-14.8,16-35.8,18.5s-41.9,11.5-44.4-7.8
			s15.6-31.3,30.4-32.1s28.4-9,39.9-11.5s29.6-14.4,29.6-14.4L293.1,335.8z"/>
		<circle class="st4" cx="303.2" cy="310.1" r="4.7"/>
		<path class="st6" d="M394.9,184.5c-9.9-1.3-18.5,9.9-18.5,9.9s-6.3-2.7-20.2-2.2c-8.5,0.3-16.9,2.6-24.3,6.8"/>
		<path class="st6" d="M331.8,199c0,0-26,13.7-33.2,24.8s-16,35.5-16,53.4v24.4c0,0-50.8,32.8-69.1,34S186,353,177.2,359.5
			s-55.3,6-54,14.7s46,39.4,70.1,39.4s39.8-0.4,53.1-9.2c13.3-8.8,6-12.2,24.3-12.2s46.9,8.4,46.9,8.4s13.3,45.8,21.3,58.5
			s39,30.1,68.3,42c29.4,11.8,48.7,10,48.7,10"/>
		<path class="st6" d="M521.2,357c0,0-1.2-1.9-2.4-14.8s0-18.7,0-18.7s19.5-7.3,28.6-8.6s29.4,1,44.7-8.9s49.4-51.1,52-60.4
			s11.5-23.3,0-25.8s-35.7,19.9-51.3,18s-34,5.6-44.3,8.3S517,259,517,259c-2.7-5.3-5.8-10.4-9.3-15.2c-4.9-6.3-16.7-23.4-28.1-31.1
			s-13.8-2.3-21.8-8.8s-18.1-16-26.9-19.5"/>
		<path class="st6" d="M456,511c10,7.7,19.5,14.6,21.5,15.2c3.7,1.1,10,4.8,9.5,13.8s8.5,25,8.5,25l3.3-6.4c0,0,2.3,8,5.8,11.2
			s9-21.8,9-21.8l9,3.7v-29.8c0,0,5.3,6.4,14.9-6.9s17.5-53.1,17-71.7s-13.2-41.4-15.9-49.3s-17.4-37-17.4-37"/>
		<path class="st5" d="M522.7,362.1c0,0-37.2-23.9-44.6-35.6s-22.3-57.3-39.3-63.7s-25.2,69-19.2,84.9s10.8,26.4,10.8,26.4
			c-9.1,5.6-14.1,16.1-12.7,26.7c1.1,10.4,3,20.7,5.8,30.8c0,0-21.8,14.3-18.6,23.9s19.1,29.2,29.7,38.2
			c4.8,4.1,13.3,10.8,21.5,17.1"/>
		
			<ellipse transform="matrix(0.2952 -0.9554 0.9554 0.2952 98.7776 651.9576)" class="st8" cx="491.3" cy="259" rx="12.7" ry="17.2"/>
		<circle class="st4" cx="482.3" cy="256.2" r="4.7"/>
	</g>
</g>
</svg>
