<svg id="ChivaEARTHBaseColor2" xmlns="http://www.w3.org/2000/svg" xmlns:xlink="http://www.w3.org/1999/xlink" viewBox="0 0 660 975"><defs><style>.cls-1{fill:url(#Degradado_sin_nombre_18);}.cls-2{fill:url(#Degradado_sin_nombre_18-2);}.cls-3{fill:url(#Nueva_muestra_de_degradado_6);}.cls-4{fill:#998675;}.cls-5{fill:#fff;}.cls-6,.cls-7{fill:none;stroke:#42210b;stroke-linecap:round;stroke-linejoin:round;}.cls-6{stroke-width:9.3px;}.cls-7{stroke-width:6.97px;}.cls-8{fill:url(#Nueva_muestra_de_degradado_6-2);}.cls-9{fill:#1d1d1b;}</style><linearGradient id="Degradado_sin_nombre_18" x1="190.95" y1="947.85" x2="190.95" y2="847.78" gradientUnits="userSpaceOnUse"><stop offset="0" stop-color="#b3b3b3"/><stop offset="0.17" stop-color="#bbb3a8"/><stop offset="0.45" stop-color="#c4b29d"/><stop offset="0.74" stop-color="#c7b299"/><stop offset="1" stop-color="#998675"/></linearGradient><linearGradient id="Degradado_sin_nombre_18-2" x1="352.93" y1="945.74" x2="352.93" y2="831.22" xlink:href="#Degradado_sin_nombre_18"/><radialGradient id="Nueva_muestra_de_degradado_6" cx="140.04" cy="624.85" r="223.44" gradientTransform="matrix(-0.92, 0, 0, 0.64, 364.88, 246.15)" gradientUnits="userSpaceOnUse"><stop offset="0" stop-color="#ccc"/><stop offset="0.13" stop-color="#cac3bb"/><stop offset="0.33" stop-color="#c8baa8"/><stop offset="0.53" stop-color="#c7b49d"/><stop offset="0.74" stop-color="#c7b299"/><stop offset="1" stop-color="#998675"/></radialGradient><radialGradient id="Nueva_muestra_de_degradado_6-2" cx="-23.46" cy="299.04" r="237.66" gradientTransform="matrix(-0.92, 0, 0, 0.92, 364.88, 70.96)" xlink:href="#Nueva_muestra_de_degradado_6"/></defs><path class="cls-1" d="M118.24,798.92s-9.17,73.92-9.09,74.46,9.09,11.42,9.09,11.42l14.21,8.66,4.29,11,11.35-3.6,33.48,39.72-.83,21.88H238.5v-10h34.24l-7.45-21.95-32.92-47.55-9.13-51Z"/><polygon class="cls-2" points="308.24 813.92 293.22 856.25 286.74 883.42 299.17 895.86 304.44 930.22 293.22 962.42 373.74 956.76 373.74 911.25 363.39 888.17 419.13 775.3 308.24 813.92"/><path class="cls-3" d="M426.09,457.75S551.6,620,500.5,711s-390.42,201.86-420.66,44S137.34,550,204.34,550s161.08,36.95,184.59,10.08S400,450.34,400,450.34Z"/><path class="cls-4" d="M426.09,457.75s32.4,36.55,46.34,72.79-71.67,0-71.67,0,6.63-46.84.76-67.45S426.09,457.75,426.09,457.75Z"/><path class="cls-5" d="M474,666.15s35.92-59.06-17.83-45.62S376.4,781.79,389.39,775.07,474,666.15,474,666.15Z"/><path class="cls-6" d="M311.74,788.42s-1.31,35.64-8.65,44.82-14.89,25.86-12.12,26,7.81,0,7.81,0-19,23.16-12,24.16,12.45,5.73,11.73,8.36,10,28.84,4.62,45.74-9.87,24.9-9.87,24.9h54s-3.5-36-7.5-51S327,890.64,331.37,882s26.36-48,42.37-69.29,16.32-27.46,16.32-27.46"/><path class="cls-6" d="M419.13,777.54s-49.89,93.38-54.89,102.38,6.79,20.33,7.89,40.67,1.61,36.17,1.61,36.17h-26.5"/><path class="cls-7" d="M226.79,834.5s-1,38.92,7,50.92,26.69,36.45,32.84,47.22,6.16,19.78,6.16,19.78H238.5"/><path class="cls-6" d="M181.57,940.54s12.17-13.12,21.17-17.12,19.54-2.49,19.54-2.49a64.46,64.46,0,0,1,31-7.81"/><path class="cls-6" d="M303.09,937.52s13.42-8.81,34.54-11.95,34.5-5,34.5-5"/><path class="cls-6" d="M402.42,473.61c1.89,26.59,2,68.71-13.49,86.45C365.41,586.93,271.34,550,204.34,550S49.61,597,79.84,754.92c4.13,21.57,14,38.13,28.18,50.4,0,0,10.55,2.46,8.13,15.28s-11.41,59.82-4.41,59.82,9.48-7,9.48-7-5.48,18,.52,18,11-7,11-7-2,20,4,20,10-5,10-5,35.72,37.05,35.86,44-1.86,19-1.86,19H238.5s-5.21-18.89-11.75-33.08c-2.86-6.19-6-11.49-9-13.92-10-8-28-30.08-35.49-41s-6.56-36.86-3-46.41,35.52-68.55,21.52-105.55"/><path class="cls-7" d="M306.92,820.6a441.52,441.52,0,0,1-72.09,12.64s-32.17,2.82-52.13,0"/><path class="cls-7" d="M448.43,489.91c33.49,52,89.07,155.17,52.07,221.05-15.6,27.79-58.09,57.43-110.44,80.71"/><path class="cls-5" d="M413,183a69.28,69.28,0,0,1-18,0c-9.9-1.3-18.6,11.48-18.6,11.48s-6.3-2.7-20.25-2.25A54.59,54.59,0,0,0,331.81,199l-2.68,8.4,78.25,44.08,32.91-46.24Z"/><path class="cls-8" d="M526.07,376.13s-6.11-21-7.25-34,0-18.7,0-18.7,19.46-7.34,28.62-8.63,29.39,1,44.66-8.93,49.38-51.11,52-60.36,11.45-23.32,0-25.83-35.65,19.87-51.29,18-34,5.64-44.27,8.31S517,259,517,259a108.75,108.75,0,0,0-9.34-15.16c-4.88-6.26-16.68-23.44-28.15-31.07s-13.75-2.29-21.77-8.78-12.08-11.28-20.23-16C429,183,412,183,412,183l15.22,24.05s-24.43,10.69-24.43,19.09-1.9,10.3-1.9,10.3-26.34-11.83-42.37-20.61-29.39-8.39-29.39-8.39l2.68-8.4s-26,13.74-33.21,24.81-16,35.49-16,53.43v24.43s-50.76,32.82-69.08,34S186,353,177.24,359.46s-55.29,6-54,14.72,46,39.35,70.06,39.35,39.84-.38,53.13-9.16,6-12.21,24.35-12.21,46.94,8.37,46.94,8.37S331,446.35,339.06,459s38.95,30.15,68.32,42A145.53,145.53,0,0,0,465,510.85Z"/><path class="cls-5" d="M522.68,362.11s-37.17-23.9-44.6-35.58-22.31-57.34-39.3-63.71-25.24,69-19.25,84.95,10.76,26.41,10.76,26.41a27.24,27.24,0,0,0-12.71,26.69,189,189,0,0,0,5.81,30.8S401.62,446,404.8,455.56s19.12,29.25,29.74,38.25,39.29,31.31,43,32.37S487.49,531,487,540s8.46,25,8.46,25l3.29-6.37s2.3,8,5.84,11.15,9-21.77,9-21.77l9,3.72V521.93s5.31,6.37,14.86-6.9,17.53-53.1,17-71.68S541.26,401.93,538.61,394s-13.81-25-13.81-25Z"/><ellipse class="cls-9" cx="315.5" cy="308.4" rx="23.02" ry="16.47" transform="translate(-119.92 379.52) rotate(-53.62)"/><path class="cls-5" d="M298.21,252s13.42-4.9,21.71-2.82,26.52,11.69,21.67,18.43-19.26,7.11-31.29,7.43-18.63-5.64-19.53-10.57C288.83,253.92,298.21,252,298.21,252Z"/><path class="cls-5" d="M459,231.55s12.55-10.2,17.3-10.11,10.19,1.16,10.34,5.43-3.35,13.24-10.25,13.81-9.79,2.66-13.3.22S459,231.55,459,231.55Z"/><path class="cls-9" d="M531.17,394s-5.84-18.59-11.15-19.65-52.56,3.72-64.78,14.34-14.33,28.67-2.65,35.57,52,12.75,53.1,14.34,9,34,6.37,38.76S485.51,488,460.55,480,425,465.12,423.92,457.68l-1.07-7.43s-9.55,14.87,3.72,25,57.35,19.11,71.68,18.58,35-10.09,40.89-14.34,15.4-19.64,15.4-19.64-8.5,9.56-17,11.68l-19.11,4.78-4.78-37.7s13.28-6.9,16.46-17.52S531.17,394,531.17,394Z"/><path class="cls-4" d="M510.23,287.82s21.8-6.07,29.61-17.7,12.34-21.72,20.15-17.7,9,7.66,21.39,7.89,25.5-8.45,26.73,0-17.68,43-36.19,44.65-31.67,5.75-40.71,6.16a46.71,46.71,0,0,0-16,3.71Z"/><path class="cls-4" d="M293.09,335.8s2.88,4.53,7,18.51,0,28.79,0,28.79-17.69-8.64-28.79-5.35-14.8,16-35.78,18.51-41.95,11.52-44.41-7.81,15.62-31.26,30.43-32.08,28.38-8.95,39.89-11.47S291,330.46,291,330.46Z"/><circle class="cls-5" cx="303.18" cy="310.1" r="4.73"/><path class="cls-7" d="M394.85,184.54c-9.9-1.31-18.45,9.94-18.45,9.94s-6.3-2.7-20.25-2.25A54.59,54.59,0,0,0,331.81,199"/><path class="cls-7" d="M331.81,199s-26,13.74-33.21,24.81-16,35.49-16,53.43v24.43s-50.76,32.82-69.08,34S186,353,177.24,359.46s-55.29,6-54,14.72,46,39.35,70.06,39.35,39.84-.38,53.13-9.16,6-12.21,24.35-12.21,46.94,8.37,46.94,8.37S331,446.35,339.06,459s38.95,30.15,68.32,42,48.67,10,48.67,10"/><path class="cls-7" d="M521.18,357s-1.22-1.86-2.36-14.84,0-18.7,0-18.7,19.46-7.34,28.62-8.63,29.39,1,44.66-8.93,49.38-51.11,52-60.36,11.45-23.32,0-25.83-35.65,19.87-51.29,18-34,5.64-44.27,8.31S517,259,517,259a108.75,108.75,0,0,0-9.34-15.16c-4.88-6.26-16.68-23.44-28.15-31.07s-13.75-2.29-21.77-8.78-18.08-16-26.86-19.48"/><path class="cls-7" d="M456,511c10,7.66,19.51,14.64,21.54,15.22,3.72,1.06,9.95,4.78,9.49,13.81s8.46,25,8.46,25l3.29-6.37s2.3,8,5.84,11.15,9-21.77,9-21.77l9,3.72V521.93s5.31,6.37,14.86-6.9,17.53-53.1,17-71.68S541.26,401.93,538.61,394s-17.43-37-17.43-37"/><path class="cls-6" d="M522.68,362.11s-37.17-23.9-44.6-35.58-22.31-57.34-39.3-63.71-25.24,69-19.25,84.95,10.76,26.41,10.76,26.41a27.24,27.24,0,0,0-12.71,26.69,189,189,0,0,0,5.81,30.8S401.62,446,404.8,455.56s19.12,29.25,29.74,38.25c4.79,4.07,13.26,10.84,21.46,17.15"/><ellipse class="cls-9" cx="491.27" cy="259.01" rx="12.74" ry="17.16" transform="translate(98.8 651.94) rotate(-72.83)"/><circle class="cls-5" cx="482.3" cy="256.25" r="4.73"/></svg>