<svg xmlns="http://www.w3.org/2000/svg" xmlns:xlink="http://www.w3.org/1999/xlink" viewBox="0 0 130 250"><defs><style>.cls-1{isolation:isolate;}.cls-2{fill:url(#Degradado_sin_nombre_175);}.cls-3{fill:#42210b;}.cls-4{fill:none;mix-blend-mode:multiply;opacity:0.4;}</style><radialGradient id="Degradado_sin_nombre_175" cx="88.67" cy="189.69" r="42.72" gradientUnits="userSpaceOnUse"><stop offset="0.09" stop-color="#faeb36"/><stop offset="0.24" stop-color="#fa7e36"/><stop offset="0.3" stop-color="#fa6d30"/><stop offset="0.4" stop-color="#f95226"/><stop offset="0.51" stop-color="#f83f1f"/><stop offset="0.62" stop-color="#f8341a"/><stop offset="0.74" stop-color="#f83019"/><stop offset="1" stop-color="#b9051c"/></radialGradient></defs><g class="cls-1"><g id="Layer_2" data-name="Layer 2"><g id="Variacion_A" data-name="Variacion A"><g id="AssetsF1"><g id="TailA1"><path class="cls-2" d="M98.2,244.8c-8.51-3.44-24.77-11-29.54-17.59-6.83-9.45-4.87-21.76-2.87-26.94.56-1.48,1.69-2.4,3.48-3.79,3.72-2.88,8.8-6.83,5.58-19-.83-3.15-1.72-6.09-2.6-8.76a9.4,9.4,0,0,0,4.67,1.53,5.91,5.91,0,0,0,2.91-.74c4.36-2.44,3.66-8.8,2.85-16.15-.58-5.25-1.3-11.79.35-14.48a30.93,30.93,0,0,1,3.14-4.32c.82,15.83,3.65,48.36,13.33,55.92,9.25,7.22,7.42,22.77,7.4,22.93l-.66,5.31,5.12-1.54a10.14,10.14,0,0,0,2.07-.9c-.35,3.17-.78,6.72-1.22,10.17a47.61,47.61,0,0,0-7.91,8.59C102.41,237.92,99.82,242.13,98.2,244.8Z"/><path class="cls-3" d="M92.63,133.48h0m-6.45,33c3.35,18.55,7.86,24.16,11.17,26.74,6.32,4.93,6.54,15.95,6.09,19.76l-1.32,10.61,7.2-2.15c-.13,1.09-.27,2.18-.4,3.27a47.76,47.76,0,0,0-7.53,8.41c-1.39,2.09-3.13,4.89-4.61,7.3-9.85-4.19-21.88-10.54-25.3-15.27C66,217.52,67,206.84,69,201.52c.24-.61,1-1.27,2.37-2.29,5.14-4,10.33-9.35,6.82-22.62-.26-1-.53-1.93-.79-2.87a9.52,9.52,0,0,0,8.74-7.24m37.72,41.78h0m-34.52-81s-4.86,2.43-9.33,9.77,2.82,26.75-1.92,29.4a2.39,2.39,0,0,1-1.21.3c-5.19,0-14.64-13.48-14.64-13.48a133.53,133.53,0,0,1,9.2,25.1c4,15.11-6.2,13.47-9,20.62s-3.85,20.34,3.3,30.24,33.84,19.86,33.84,19.86,4.65-7.77,7.53-12.13,8.29-8.73,8.29-8.73,3-22.88,2.15-22.88c-.09,0-.23.27-.42.87a11.38,11.38,0,0,1-6.86,7.61s2.2-17.59-8.71-26.11-12.27-60.44-12.27-60.44Z"/></g></g></g><g id="Layer_102" data-name="Layer 102"><g id="Cola"><rect class="cls-4" width="130" height="250"/></g></g></g></g></svg>