<svg xmlns="http://www.w3.org/2000/svg" xmlns:xlink="http://www.w3.org/1999/xlink" viewBox="0 0 464 265"><defs><style>.cls-1{isolation:isolate;}.cls-2{fill:url(#Degradado_sin_nombre_9);}.cls-3{fill:url(#Degradado_sin_nombre_9-2);}.cls-4{fill:#df6437;}.cls-5{fill:#3e2210;}.cls-6{fill:none;mix-blend-mode:multiply;opacity:0.4;}</style><radialGradient id="Degradado_sin_nombre_9" cx="281.34" cy="189.5" r="38.18" gradientTransform="translate(20.06 25.11) scale(0.96 0.87)" gradientUnits="userSpaceOnUse"><stop offset="0.13" stop-color="#cedff1"/><stop offset="0.17" stop-color="#d0e0e9"/><stop offset="0.24" stop-color="#d6e0d1"/><stop offset="0.33" stop-color="#dee3ad"/><stop offset="0.44" stop-color="#e9e780"/><stop offset="0.56" stop-color="#f8ec57"/><stop offset="0.57" stop-color="#f9ec56"/><stop offset="0.87" stop-color="#e9963e"/><stop offset="0.99" stop-color="#df6437"/></radialGradient><radialGradient id="Degradado_sin_nombre_9-2" cx="459.14" cy="145.77" r="30.66" gradientTransform="matrix(-0.94, -0.06, -0.05, 0.87, 853.01, 53.54)" xlink:href="#Degradado_sin_nombre_9"/></defs><g class="cls-1"><g id="Layer_2" data-name="Layer 2"><g id="Variacion_C" data-name="Variacion C"><g id="AssetsF1"><g id="HornF5"><path class="cls-2" d="M326.21,186.82c-.08-.57-.14-1.15-.2-1.72a4.69,4.69,0,0,0-1.31-.06,6.43,6.43,0,0,0-1.34-3.89c-.78-1.05-4-3-3.82-4.17a4.71,4.71,0,0,0-5.76-5.35,5.48,5.48,0,0,0-1.95-2.23,32,32,0,0,0-13-5.15,5,5,0,0,0-4.84-4.1,45.82,45.82,0,0,0-7.33.41c-5.74-1.44-12.1,2-17.12,5.64a4.77,4.77,0,0,0-4.49.1,56.81,56.81,0,0,0-8.29,5.14,4.39,4.39,0,0,0-1.59,1.33c-.38.34-.74.69-1.09,1a14.88,14.88,0,0,0-4.34,4.89c-2,3.7,2.22,8.34,6.55,5.93a6.83,6.83,0,0,0,.6-.37,5.17,5.17,0,0,0,2.14-1.65l2.31-3a4,4,0,0,0,4.6,1,16.17,16.17,0,0,0,4.75-2.48,6,6,0,0,0,.6.95,6.48,6.48,0,0,0,1.17,1.17c-2.17,3.8,2.89,7.07,6.69,5.46a5.24,5.24,0,0,0,1.44,2.07q-1.11,2-2.08,4.13l-.82.8a4,4,0,0,0-1.19,4c-.85,2.47,1,4.52,3.4,5.12-1.44,2.2,0,5,2.19,6.14a4.83,4.83,0,0,0,2.23,3.06,4.74,4.74,0,0,0,2.43,3c-1,4.37,4.56,6.45,8,4,.65-.46,1.27-.94,1.9-1.42a5.12,5.12,0,0,0,3.66-1.84l6-7.26a109.61,109.61,0,0,1,11.88-11.18,69.41,69.41,0,0,1,8-2.73,5.62,5.62,0,0,0,.93-.34A58,58,0,0,1,326.21,186.82Z"/><path class="cls-3" d="M435.77,144.77a4.9,4.9,0,0,0-.77-.56,3.1,3.1,0,0,0,.18-1.19c-.28-6.53-7-10.43-12.78-13.31a27.86,27.86,0,0,0-10.32-5.27c-5.29-1.3-11.13-1-16.66-.69-1.47.06-2.91.16-4.25.25-5.29.32-4.49,8.87.76,8.59l1.71-.1a46,46,0,0,1,5.38,0c.66,0,1.3.11,2,.18a5,5,0,0,0,.55,1.2,1.52,1.52,0,0,1,.59.44,9.17,9.17,0,0,1,.8,1.15l.06.06a20.87,20.87,0,0,0,1.85,1.32,5,5,0,0,0-.94,1,9.89,9.89,0,0,1,0,4.3c.25.36.5.73.78,1.09l-.41.15-.79.36a22.25,22.25,0,0,1-5,8,4.66,4.66,0,0,0,.77,1.44c-4.1,1.67-7.69,3.29-8.34,7.91,0,.27-1,.74-1,1-1.37.73-.89,3.12-1.65,4.69a5.79,5.79,0,0,0-.14,5.2,4.25,4.25,0,0,0,3.05,4.55c.59.19,1.19.33,1.79.46a130,130,0,0,1,21.78-1.52c4.75,0,9.46.77,14.17,1.08,5.22-7.48,8.63-15,9.45-24.77a1.46,1.46,0,0,1,.93-1.24A11.93,11.93,0,0,0,435.77,144.77Z"/><path class="cls-4" d="M295.82,217.27c-4.77.16-9.65-1.27-13-4.88-4-4.36-3.69-10-3.59-15.53.12-6.49-.87-14-7.49-17.11-12.81-6-26.24,8.37-24.21,20.68a1.39,1.39,0,0,0,2.74-.46c-1.52-9.21,5.12-17.14,14.22-18.37,12.18-1.65,11.8,11.09,11.87,19.48.09,11.15,7.73,19.38,19.23,19,1.77-.06,2-2.83.21-2.77Z"/><path class="cls-4" d="M250.21,198.54c-5.12-21.68,17.49-35,36.2-35.33,17.56-.35,36,10.28,37,29.29.17,2.92,5.34,2.69,5.2-.27-1.07-22.29-22.9-35.17-43.56-34.2a51.56,51.56,0,0,0-29.73,11.11c-8.5,6.85-13,19.45-10.33,30.16.79,3.24,6,2.55,5.19-.76Z"/><path class="cls-4" d="M391.89,176.46c-15.38-12.11,17.57-25.11,13.32-38.93-1.89-6.17-9.64-8.45-15.39-8.16a22.12,22.12,0,0,0-16.46,9.14c-1.48,2,1.61,4.21,3.09,2.25,4.77-6.32,17.64-11.89,24-4.1,5.63,6.92-6.22,15.15-10.17,19.46-6.26,6.84-8.63,17.1-.55,23.49,1.93,1.52,4.09-1.64,2.17-3.15Z"/><path class="cls-4" d="M376.94,139.47c10.58-16.06,33-18.21,48.11-7.43,14.55,10.38,15.43,29.52,3.74,42.46-1.85,2.05,1.7,5.33,3.59,3.28,13.21-14.4,12.59-36-2.88-48.52-16.84-13.58-44.22-11.63-56.45,7.23-1.71,2.63,2.15,5.62,3.89,3Z"/><path class="cls-5" d="M440.44,179.6c-17.5-8.12-38-8.51-56-1.94-3.19,1.15-1.82,6.29,1.41,5.12,17.82-6.47,35.18-4.85,52.78,1.18,2.53.87,4.31-3.21,1.84-4.36Z"/><path class="cls-5" d="M294.05,225.49c6.12-6.9,11.49-13.75,19-19.35s16.32-9.1,23.91-14.47c2.17-1.53.95-5.38-1.91-4.52-9.3,2.79-18.54,9.19-26.19,15.06-7,5.37-14.72,12.25-18.36,20.51-1,2.18,1.72,4.89,3.59,2.77Z"/></g></g></g><g id="Layer_102" data-name="Layer 102"><g id="Cuerno"><rect class="cls-6" width="464" height="265"/></g></g></g></g></svg>