<svg xmlns="http://www.w3.org/2000/svg" xmlns:xlink="http://www.w3.org/1999/xlink" viewBox="0 0 464 265"><defs><style>.cls-1{isolation:isolate;}.cls-2{fill:url(#Degradado_sin_nombre_9);}.cls-3{fill:url(#Degradado_sin_nombre_9-2);}.cls-4{fill:#df6437;}.cls-5{fill:#3e2210;}.cls-6{fill:none;mix-blend-mode:multiply;opacity:0.4;}</style><radialGradient id="Degradado_sin_nombre_9" cx="289.78" cy="178.44" r="39.05" gradientTransform="translate(17.76 9.18) scale(0.95 0.95)" gradientUnits="userSpaceOnUse"><stop offset="0.13" stop-color="#cedff1"/><stop offset="0.17" stop-color="#d0e0e9"/><stop offset="0.24" stop-color="#d6e0d1"/><stop offset="0.33" stop-color="#dee3ad"/><stop offset="0.44" stop-color="#e9e780"/><stop offset="0.56" stop-color="#f8ec57"/><stop offset="0.57" stop-color="#f9ec56"/><stop offset="0.87" stop-color="#e9963e"/><stop offset="0.99" stop-color="#df6437"/></radialGradient><radialGradient id="Degradado_sin_nombre_9-2" cx="409.23" cy="145.38" r="35.23" xlink:href="#Degradado_sin_nombre_9"/></defs><g class="cls-1"><g id="Layer_2" data-name="Layer 2"><g id="Variacion_B" data-name="Variacion B"><g id="AssetsF1"><g id="HornF6"><path class="cls-2" d="M294.25,220a33.72,33.72,0,0,1,1.64-3.48c2-3.66,5.27-6.58,8.26-9.44,3.33-3.18,6.81-6.21,10.37-9.13,3.21-2.63,6.5-5.65,10.11-7.78A7.13,7.13,0,0,0,314.45,187l-.64.4a6.57,6.57,0,0,0-1.74-.86,45,45,0,0,1-8.47-3.84l-6.81-5a19.78,19.78,0,0,1-5.63-9.77l-.06,0a13.24,13.24,0,0,0-.39-1.73,5.31,5.31,0,0,0-3.23-3.53l3.18-13.26a4.53,4.53,0,0,0-.13-2.54c.83-2.23,1.72-4.45,2.66-6.64,1.66-3.89-4.05-5.43-6.23-2.73a48.35,48.35,0,0,0-4.63,7,3.6,3.6,0,0,0-.46.49c-1.82,2.38-3.54,4.71-5.15,7.09a6,6,0,0,0-1.07.46c-6.16,3.48-9,13.75-10.82,20.06a64.46,64.46,0,0,0-2,24.68,6.15,6.15,0,0,0,2.48,4.1,16.17,16.17,0,0,0,4.5,7.46l.09.08a23.45,23.45,0,0,0,2.92,4.93,6.31,6.31,0,0,0,6.61,2.31c.14.11.27.22.42.32a6.78,6.78,0,0,0,6.87.66,7.19,7.19,0,0,0,1.34.36A7,7,0,0,0,294.25,220Z"/><path class="cls-3" d="M408.85,175.68h2.9l1.13,0c-1.34-.07-2.68-.09-4-.09C408.86,175.64,408.85,175.66,408.85,175.68Z"/><path class="cls-3" d="M438.48,153.52a51.87,51.87,0,0,0-1.49-6.35c-2.07-6.35-7.26-10.41-13.26-12a11.35,11.35,0,0,0-1.68-2.07c-2.76-2.5-6.23-4.27-9.39-6.22-6.4-4-12.67-8.4-20.36-9.27a7.21,7.21,0,0,0-1.31,0c-4.51-2.87-9.69-4.18-15.19-2.65-4.49,1.25-2.64,7.58,1.83,6.85a11.69,11.69,0,0,1,7.54,1.49,5.42,5.42,0,0,0,3.53,6,17.39,17.39,0,0,1,3,1.64c1.16,6.53,4.67,12.22,6.82,18.18a5.41,5.41,0,0,0-.39,1.09,62.36,62.36,0,0,0-1.84,10.09c-.19.47-.38.94-.58,1.41q-2.06,5-4.12,10a6.72,6.72,0,0,0-.5,2,48.1,48.1,0,0,1,11-1.37l2.89-.09a32.61,32.61,0,0,1,5.23-.11c2.19,0,4.39,0,6.58.09a45.2,45.2,0,0,1,14.76,2.72c.33.13.94.32,1.64.56,5.58-2.91,7-10,8.66-15.6C442.65,157.14,440.87,154.66,438.48,153.52Z"/><path class="cls-4" d="M325,187c-2.53-.86-5.12-1.46-7.66-2.27a45.78,45.78,0,0,1-7-3,35.89,35.89,0,0,1-11.44-9.06c-6.06-7.45-8.95-18.21-5.35-27.42a35,35,0,0,1,4.8-8.17c1-1.38,2.14-2.7,3.19-4.07s2.59-2.94,1.87-4.77a1.73,1.73,0,0,0-1.55-1.23c-1.94-.21-3.1,1.47-4.21,2.81s-2.09,2.56-3.09,3.87a43.12,43.12,0,0,0-5.12,8.11A29.94,29.94,0,0,0,287,158.38c1.6,11.7,9,21.32,19.21,27a46.25,46.25,0,0,0,8.9,3.79,27.21,27.21,0,0,0,9.36,1.51A1.91,1.91,0,0,0,325,187Z"/><path class="cls-4" d="M302.32,127.91a9.32,9.32,0,0,0-3.74.5c-1,.41-2.05.9-3.05,1.4a47.1,47.1,0,0,0-5.15,3.09,55.1,55.1,0,0,0-9.24,8.28,84.61,84.61,0,0,0-13.65,21c-4.14,8.85-7.56,18.37-7.86,28.22-.28,8.91,2.49,18.21,8.79,24.69a25.37,25.37,0,0,0,12.13,6.84,22.42,22.42,0,0,0,7.16.55,22.72,22.72,0,0,0,3.65-.66,6,6,0,0,0,1.88-.73,5,5,0,0,0,1.31-1.75,2,2,0,0,0-1.24-3,4.94,4.94,0,0,0-1.89-.41,8.26,8.26,0,0,0-1.62.44,12.78,12.78,0,0,1-2.5.52,17,17,0,0,1-5.13-.19,19.79,19.79,0,0,1-9.54-4.7c-5.86-5.25-8.2-13.35-8.15-21,.06-8.93,3.2-17.69,6.86-25.73a85,85,0,0,1,12.06-19.68,57.76,57.76,0,0,1,9.05-8.7,53.42,53.42,0,0,1,5.22-3.57c.91-.54,1.86-1,2.76-1.54a14.52,14.52,0,0,0,2.5-2.05,1.07,1.07,0,0,0-.61-1.85Z"/><path class="cls-4" d="M390.27,174.91c12.16-15.88,11.5-41.1-5.83-53-6.24-4.29-13.67-5.55-20.93-7.09-2.28-.48-3.26,3-1,3.51,6.2,1.31,12.68,2.28,18.22,5.55a28.32,28.32,0,0,1,9.8,9.63c4.64,7.64,5.47,17.1,3.32,25.67a38.39,38.39,0,0,1-6.75,13.93,1.83,1.83,0,0,0,.65,2.49,1.87,1.87,0,0,0,2.49-.65Z"/><path class="cls-4" d="M363.37,118.83a67.17,67.17,0,0,1,43.29,4.32,69.91,69.91,0,0,1,18.55,12.11,65.08,65.08,0,0,1,7.73,8.36,36.53,36.53,0,0,1,5.59,9.17c2.83,7.51,1.55,16.07-5.1,21.12a1.87,1.87,0,0,0-.65,2.48,1.83,1.83,0,0,0,2.49.66,20.73,20.73,0,0,0,7.24-9.63,22.08,22.08,0,0,0,.73-11.29c-1.39-7.75-6.73-14.52-12-20.08a74,74,0,0,0-42.08-21.83,68.62,68.62,0,0,0-26.74,1.1c-2.27.56-1.31,4.07,1,3.51Z"/><path class="cls-5" d="M326.76,189.25c-7.53,2.73-14.46,8.94-20.08,14.46-4.87,4.78-12.8,12.06-12.9,19.36a1.21,1.21,0,0,0,2.2.74c2.53-3.19,4-7,6.64-10.21a88.66,88.66,0,0,1,7.3-7.84q3.93-3.78,8.2-7.16c3.24-2.57,7.16-4.79,9.88-7.91C328.72,189.87,327.57,189,326.76,189.25Z"/><path class="cls-5" d="M438.38,179a.64.64,0,0,0-.06-.1c0-.09-.05-.17-.07-.26a4.28,4.28,0,0,0-.39-.84,4.07,4.07,0,0,0-2.08-1.42q-.37-.16-.78-.3c-4.25-3.87-14.94-4.6-18.76-4.91a130.38,130.38,0,0,0-16.89-.2c-5,.24-10.24.26-14.71,2.81-1.78,1-.57,3.36,1.26,3.12,1.55-.21,3.12-.38,4.69-.53a2.08,2.08,0,0,0,.42.47,1.17,1.17,0,0,0,.22.37c1.24,1.46,4.23,1.16,6,1.18a10.3,10.3,0,0,0,2-.13c3.77,0,7.69-.51,11-.54,3.53,0,7.07,0,10.6.22,2.58.18,5.22.91,7.78.74,2.16,1.18,4.13,2.76,6.5,2.76a2.27,2.27,0,0,0,1.57.58A2,2,0,0,0,438.38,179Z"/></g></g></g><g id="Layer_102" data-name="Layer 102"><g id="Cuerno"><rect class="cls-6" width="464" height="265"/></g></g></g></g></svg>