<svg xmlns="http://www.w3.org/2000/svg" xmlns:xlink="http://www.w3.org/1999/xlink" viewBox="0 0 275 259.5"><defs><style>.cls-1{isolation:isolate;}.cls-2{fill:#fffbb8;}.cls-3{fill:#f5c148;}.cls-4{fill:#df8330;}.cls-5{fill:#c96226;}.cls-6{fill:#fff;}.cls-7{fill:#585555;}.cls-8{fill:url(#Degradado_sin_nombre_8);}.cls-9{fill:url(#Degradado_sin_nombre_8-2);}.cls-10{fill:url(#Degradado_sin_nombre_8-3);}.cls-11{fill:url(#Degradado_sin_nombre_8-4);}.cls-12{fill:url(#Degradado_sin_nombre_8-5);}.cls-13{fill:url(#Degradado_sin_nombre_8-6);}.cls-14{fill:url(#Degradado_sin_nombre_8-7);}.cls-15{fill:url(#Degradado_sin_nombre_8-8);}.cls-16{fill:#333131;}.cls-17{fill:#3e2210;}.cls-18{fill:none;mix-blend-mode:multiply;opacity:0.4;}</style><radialGradient id="Degradado_sin_nombre_8" cx="96.48" cy="94.37" r="26.8" gradientUnits="userSpaceOnUse"><stop offset="0" stop-color="#ea8348"/><stop offset="0.08" stop-color="#e87542"/><stop offset="0.24" stop-color="#e65e38"/><stop offset="0.4" stop-color="#e44f32"/><stop offset="0.57" stop-color="#e4472f"/><stop offset="0.74" stop-color="#e4452e"/><stop offset="1" stop-color="#a92426"/></radialGradient><radialGradient id="Degradado_sin_nombre_8-2" cx="146.94" cy="57.01" r="19.38" xlink:href="#Degradado_sin_nombre_8"/><radialGradient id="Degradado_sin_nombre_8-3" cx="147.43" cy="127.75" r="6.63" xlink:href="#Degradado_sin_nombre_8"/><radialGradient id="Degradado_sin_nombre_8-4" cx="100.68" cy="50.59" r="13.58" xlink:href="#Degradado_sin_nombre_8"/><radialGradient id="Degradado_sin_nombre_8-5" cx="131.03" cy="107.87" r="12.99" xlink:href="#Degradado_sin_nombre_8"/><radialGradient id="Degradado_sin_nombre_8-6" cx="134.57" cy="65.99" r="15.5" xlink:href="#Degradado_sin_nombre_8"/><radialGradient id="Degradado_sin_nombre_8-7" cx="115.17" cy="58.92" r="9.43" xlink:href="#Degradado_sin_nombre_8"/><radialGradient id="Degradado_sin_nombre_8-8" cx="109.46" cy="46.55" r="8.62" xlink:href="#Degradado_sin_nombre_8"/></defs><g class="cls-1"><g id="Layer_2" data-name="Layer 2"><g id="Variacion_C" data-name="Variacion C"><g id="AssetsF1"><g id="LoinA1"><path class="cls-2" d="M142.48,34c-.6-2.43-4.24-3-5.79-.75a3,3,0,0,0-2.16.49,2.94,2.94,0,0,0-2.75,1.55,2.78,2.78,0,0,0-1.43-.12,2.8,2.8,0,0,0-4.14-.3,3.09,3.09,0,0,0-2.93-.57c-1.1-1.81-4.6-1.46-5.18,1-.06.23-.1.47-.16.71A32.66,32.66,0,0,0,115.56,33,2,2,0,0,0,113,32.4c-1.76-1.26-5,.61-4,3a21.6,21.6,0,0,0,6.78,9,2.29,2.29,0,0,0,1.06.44l.06.13c.82,1.69,3.6,2.42,4.74,1a2.65,2.65,0,0,0,2.17-.29,3.08,3.08,0,0,0,2.57,0,3.15,3.15,0,0,0,3.43-.31,2.86,2.86,0,0,0,3.22-.58,2.77,2.77,0,0,0,.91,0,3.25,3.25,0,0,0,4.31-1.38l.07-.12a2.87,2.87,0,0,0,2.44-1.13c.44-.58.83-1.15,1.19-1.73a6.79,6.79,0,0,0,1.4-2.75A3.36,3.36,0,0,0,142.48,34Z"/><path class="cls-3" d="M155.28,52a3.12,3.12,0,0,0-2.17-2c0-.12-.07-.25-.11-.38,0-.87-.05-1.52-.06-1.72a2.89,2.89,0,0,0-1-2.24c-.24-1.34-.44-2.68-.58-4.06a3,3,0,0,0-.61-1.54,12.63,12.63,0,0,0,.43-4.15c-.15-2-2.28-3.21-4.12-3a12.13,12.13,0,0,0-2.16-2.62c-3-2.77-7.17,1.74-4.93,4.86a18.32,18.32,0,0,1,2,3.55A14.19,14.19,0,0,1,142,42c-.62.81-1.28,1.57-1.84,2.22-.14.16-.28.29-.41.44a4.19,4.19,0,0,0-.74.18c-2.8,1-5.62,1.87-8.45,2.76a76.31,76.31,0,0,1-15.74-4.33,1.83,1.83,0,0,0-1-.06,2.91,2.91,0,0,0-.12-.35c-1-2.09-2.09-4.09-3.26-6.07,0-.08-.05-.15-.07-.23a1.79,1.79,0,0,0-.66-1s0,0,0,0a2.07,2.07,0,0,0-1.23-1A1.82,1.82,0,0,0,106,36a2.16,2.16,0,0,0,.09,1.53l-.12.87a2.81,2.81,0,0,0-2.79,1.65,24.35,24.35,0,0,0-1.73,10.34c-.34.73-.68,1.47-1,2.22Q99,54.86,97.77,57.23a11.86,11.86,0,0,0-3.44,6.45c-.51,2.51,3.1,4.75,4.76,2.39a109.59,109.59,0,0,0,6.07-9.34,2.61,2.61,0,0,0,1-.2c.75,1.29,2.64,1.51,4.08.84a3.2,3.2,0,0,0,.77.6,14.25,14.25,0,0,0-1.87,8.67,3.64,3.64,0,0,0,.17.86c-.15.65-.29,1.3-.46,1.94a3.9,3.9,0,0,0-1.3,1.44q-1.69,3.23-3.42,6.43a20.76,20.76,0,0,0-3,5.52,4.35,4.35,0,0,0-.22.82l-3.49,4.54a3.41,3.41,0,0,0-.7,1.65,75.64,75.64,0,0,0-8.3,12.61,3.22,3.22,0,0,0-2.35,1.35,25.17,25.17,0,0,0-3.8,6.93,3.62,3.62,0,0,0,.3,3.14,7.63,7.63,0,0,0,.1,2.58,13.16,13.16,0,0,0,1.09,9.7,3.78,3.78,0,0,0,2.91,2,2.87,2.87,0,0,0,3.56.65c3.83-2,4.63-5.62,5.51-9.64a69.12,69.12,0,0,0,1.39-16.49c2.39-3.67,5.64-7,8.21-10.26a3.77,3.77,0,0,0,.56-1,3.33,3.33,0,0,0,1.35-1.66l1.14-2.86.07-.15a3.49,3.49,0,0,0,1.33-1.47q3.94-7.89,7.41-16a5.46,5.46,0,0,0,.23-.68,3.68,3.68,0,0,0,3.74,1,69.21,69.21,0,0,1,2.93,7.71,3.52,3.52,0,0,0,.72,1.22,2.75,2.75,0,0,0-1,1.51q-1.25,5.1-2.12,10.26a107.59,107.59,0,0,0-3.38,20,3.18,3.18,0,0,0,.77,2.43,82.35,82.35,0,0,0,.67,8.85c.4,3,.61,7.8,4.57,8.1a3.89,3.89,0,0,0,.9,0c.26.5.53,1,.81,1.51a2.75,2.75,0,0,0,4.15.62l.36.16a11.41,11.41,0,0,0,4.88,2.44,16.77,16.77,0,0,0,6,0,10.41,10.41,0,0,0,5.67,1c2.81-.31,5.47-2.34,5.61-5.38a5.83,5.83,0,0,0-.34-2.19l.31-.39a3.35,3.35,0,0,0-.5-4.66,15.42,15.42,0,0,0-2.11-1.3,17.48,17.48,0,0,0-7.25-6c-2.33-2.72-4.54-5.55-6.7-8.42l-5.56-11.42a37.55,37.55,0,0,1,.46-6.08c.46-1,.93-2.09,1.43-3.12a2.19,2.19,0,0,0,3.41-.32c1.25-1.68,2.47-3.38,3.69-5.09a2.8,2.8,0,0,0,3.54-2l0-.11a3.28,3.28,0,0,0,3.45-2,47.36,47.36,0,0,0,3.38-9.64c.37-.48.73-1,1.1-1.44l1.5-1.9a4.24,4.24,0,0,0,.84-.31,3.63,3.63,0,0,0,2.86-3.76l0-.3A14.16,14.16,0,0,0,155.28,52Z"/><path class="cls-4" d="M108,50.73c-.32-1.95-.83-3.84-.43-6,.46-2.52,2-4.63,2.58-7.06a2.09,2.09,0,0,0-.56-2l-.38-.36a1.82,1.82,0,0,0-2.52,0c-2.56,2.45-3.9,6.53-4.66,10.09a44.35,44.35,0,0,0-5.9,15,14.58,14.58,0,0,0-2.65,4.44l-.21.26a1,1,0,0,0,0,1.19,3.82,3.82,0,0,0,0,.68A1.21,1.21,0,0,0,94.72,68a6.42,6.42,0,0,0,2.76-2.12,16.5,16.5,0,0,0,4.68-3.75c1.19-1.27,2.28-2.6,3.36-4,.59-.73,1.29-1.39,1.87-2.12a3.72,3.72,0,0,1,1.25,1.86c.39,1.61-.4,3.83-.73,5.45a78.73,78.73,0,0,1-3.12,12.1c-3,8.07-9.37,13.83-14.21,20.76C86.65,101.84,83,108,82.46,115c-.44,5.35.75,12.59,6.38,14.77a1.34,1.34,0,0,0,1.72-1.55c-.77-3.64-2.59-6.74-2.64-10.6-.06-4.3,1.54-8.32,3.57-12,4.1-7.48,10.41-13.13,15-20.21C110.12,79.72,121.76,50.64,108,50.73Z"/><path class="cls-4" d="M135.78,85.41a2.84,2.84,0,0,0,3.44-.77A77.77,77.77,0,0,0,147,72.43a3.56,3.56,0,0,0,2.86-1.7,29.75,29.75,0,0,0,3.51-9.59c7-2.47-.68-16.3-3.28-20A2.83,2.83,0,0,0,148.42,40a22.84,22.84,0,0,0-4.68-8.93,1.53,1.53,0,0,0-2.43.22,6,6,0,0,0-1.71-.78,1.14,1.14,0,0,0-1.5,1c-.15,2.18.81,3.34,2,5.17a26.17,26.17,0,0,1,4,8.5,24,24,0,0,1,.54,4.1,78.65,78.65,0,0,1-.94,10,39.6,39.6,0,0,1-2.24,8.38,163.42,163.42,0,0,1-10.55,14.29c-3.58,4.42-6.19,9.39-5.58,15.23.7,6.65,4.8,12.59,8.64,17.85,1.19,1.64,2.43,3.24,3.77,4.76a8.75,8.75,0,0,1,.33,6.17,6.7,6.7,0,0,0-.59.48c-.21.21-.39.43-.58.66a14.34,14.34,0,0,1-2.26-.3l-.38-.1c-.13,0-.26-.05-.39-.08a19.91,19.91,0,0,1-4.93-1.86c-3.08-2.09-4.59-5.6-7.49-7.87a1.74,1.74,0,0,0-2.55,1c-2.74,7.89,5.81,14.47,14.31,15.83,4.09,1.32,8.93,2,12.57.21a3.45,3.45,0,0,0,2.61-.52,7.73,7.73,0,0,0,.88-.7c3.58-1.47,5.93-8.55,2.53-10.62a2.08,2.08,0,0,0-1.9-.13,6.23,6.23,0,0,0-1.45-1.2c-2.19-2.9-5.53-5.42-7.48-8-5.79-7.57-12.61-16.32-6.32-25.61C135,86.51,135.38,86,135.78,85.41Z"/><path class="cls-5" d="M154.05,51.51h0a18.84,18.84,0,0,0-1.45-9,1.36,1.36,0,0,0-2.47.19c-2.57,6.69-2.5,14-5.39,20.77-2.52,5.86-6.47,10.85-8.84,16.77-.57,1.41,1.18,2.52,2.37,1.93,5.57-2.77,9.12-8.21,11.51-13.93,1.91-1.75,2.95-4.47,3.79-6.91C154.52,58.58,156.22,54,154.05,51.51Z"/><path class="cls-5" d="M141.94,124.48c-5-1-10.92-1.15-14.89-4.94-4.67-4.44-3.45-12.3-2.88-18.05.64-6.28,1.35-12.55,1.94-18.84.43-4.47.53-8.73-2.14-12.52-.53-.75-1.54-.08-1.48.68.7,7.82-1.31,16.06-2.29,23.8-.81,6.32-2.39,13.13-1.28,19.5a16.3,16.3,0,0,0,10,12.6c3.93,1.68,11.19,4.92,14,.37A1.77,1.77,0,0,0,141.94,124.48Z"/><path class="cls-5" d="M115.31,54c-1.23-2.16-3.22-3.62-4.49-5.69a7.14,7.14,0,0,1-.76-5c1.57-3,3.12-5.9,5-8.73,1.09-1.65-1.19-4.08-2.84-2.81l-.16.13a2.13,2.13,0,0,0-.49-.15,2.18,2.18,0,0,0-2.28.9,7.07,7.07,0,0,0-.6,1,25.68,25.68,0,0,0-1.86,3.18,2.56,2.56,0,0,0-.22.7v0a1.82,1.82,0,0,0,.16,2.29,12.35,12.35,0,0,0-1.48,7.62c.76,4.57,5.1,7.26,6.51,11.61,1.53,4.73.81,10-.88,14.63-1.58,4.28-4.39,8-5.88,12.25-.84,1.27-1.52,2.74-2.23,3.82a91.71,91.71,0,0,0-5.22,8.16.73.73,0,0,0,0,.66c-.35,1.12-.54,2.34-.83,3.39a27.29,27.29,0,0,0-.71,7.38.63.63,0,0,0,1.25.14c.54-2.47,1.23-4.91,1.81-7.37.3-1.28.94-2.59,1.16-3.91A22.27,22.27,0,0,0,105.69,92c.48-.76,1.07-1.64,1.61-2.58,6.6-5.24,10.61-15.85,10.72-24.05A22.7,22.7,0,0,0,115.31,54Z"/><path class="cls-5" d="M139.37,46.78a23.77,23.77,0,0,1-10.64,3.94c-3.36.36-6.46-.53-9.74-.63-.81-.55-2.16.49-1.61,1.49.64,1.16,1.29,2.32,2,3.47a25.51,25.51,0,0,0,2.88,5.68,81.74,81.74,0,0,0,6.09,8.7h0a.7.7,0,0,0,.27.51c3.39,2.77,7.5-1.92,9.13-4.77,2.79-4.86,3-11.53,4-17A1.58,1.58,0,0,0,139.37,46.78Z"/><path class="cls-4" d="M137.39,52.25a3.82,3.82,0,0,0-3.94-.9c-2.26.66-3.81,1.63-6.28,1.16a2.42,2.42,0,0,0-2,.64,1.23,1.23,0,0,0-1.61,1.62c.93,2.27,1.85,4.53,2.84,6.76.71,1.58,1.28,3.55,2.81,4.56,3,2,5.31-1,6.37-3.54a46.87,46.87,0,0,0,2.22-6.32C138.12,54.85,138.43,53.43,137.39,52.25Z"/><path class="cls-4" d="M141,62.31a53.26,53.26,0,0,1-8.66,10.45,20,20,0,0,0-5.68,8.6.41.41,0,0,0,.73.34,66.33,66.33,0,0,1,8.72-10.33,21,21,0,0,0,5.65-8.72A.42.42,0,0,0,141,62.31Z"/><path class="cls-4" d="M94.43,103.76c-4.64,3.6-5.74,11.17-3.93,16.44a.35.35,0,0,0,.69-.16,19.6,19.6,0,0,1,.08-8.82c.71-2.72,2.21-4.71,3.6-7.07A.3.3,0,0,0,94.43,103.76Z"/><path class="cls-4" d="M134.87,120.11c-1.17-1.83-2.59-3.5-3.86-5.27a56,56,0,0,0-3.45-4.76.24.24,0,0,0-.4.26,26.21,26.21,0,0,0,7.31,10.12C134.67,120.64,135,120.34,134.87,120.11Z"/><path class="cls-5" d="M148.73,124.22a10.78,10.78,0,0,0-6.13-5.67.38.38,0,0,0-.32.67,13.7,13.7,0,0,1,4.7,4.72,4.13,4.13,0,0,1,.07,4.66,21.42,21.42,0,0,1-1.93,2.23.39.39,0,0,0,.44.62,7.05,7.05,0,0,0,3.71-3.32C149.87,126.8,149.32,125.45,148.73,124.22Z"/><path class="cls-5" d="M132,65.05c-2.9-2.89-4.06-6.28-4.69-10.26a.3.3,0,0,0-.58,0c-.62,2.07.47,4.7,1.31,6.59a7.67,7.67,0,0,0,3.69,4.11A.25.25,0,0,0,132,65.05Z"/><path class="cls-5" d="M103.56,48.44c-.78,4-2.94,6.89-5.23,10.14-1.66,2.35-3.19,4.83-3.19,7.78,0,.35.55.5.64.13.91-4.06,3-6.84,5.31-10.17,1.66-2.41,3-4.9,2.88-7.9C104,48.18,103.61,48.23,103.56,48.44Z"/><path class="cls-5" d="M120.86,42.88c-.94-.68-2.08-1.08-3.07-1.69a17.45,17.45,0,0,0-2.63-1.72.2.2,0,0,0-.26.27A7,7,0,0,0,117.54,42a8,8,0,0,0,3.16,1.34A.23.23,0,0,0,120.86,42.88Z"/><path class="cls-6" d="M89.35,124.74c-7.25-4.68-2.6-11.54-.73-17.79.06-.21-.19-.45-.37-.27-2.91,2.92-4.75,8.57-4.34,12.65.28,2.8,2.11,6.07,5.23,6A.34.34,0,0,0,89.35,124.74Z"/><path class="cls-6" d="M145.55,122.71a.3.3,0,0,0-.52.18c-.11,5.42-4.47,7.19-9.28,6.66a7.31,7.31,0,0,1-5.29-2.55,8.84,8.84,0,0,0-2.24-2.12.41.41,0,0,0-.57.54c2.07,5.2,7.32,6.78,12.56,5.61C143.45,130.3,149.14,126.32,145.55,122.71Z"/><path class="cls-6" d="M145.21,41.08c-.29-.49-1.16-.16-1,.4a36.11,36.11,0,0,1,1.63,19.75,26.93,26.93,0,0,1-11.77,17.41.48.48,0,0,0,.37.88C148.49,75.82,151.66,51.92,145.21,41.08Z"/><path class="cls-6" d="M102.14,52a26.63,26.63,0,0,0-5.44,7.6c-.78,1.66-1.26,3.87.23,5.23.22.2.67,0,.57-.29-1.48-5.17,3-8.09,5-12.29C102.6,52,102.3,51.8,102.14,52Z"/><path class="cls-7" d="M247.64,147.8c0-.16,0-.31,0-.46a7,7,0,0,0-.67-3,23.53,23.53,0,0,0-4.36-9.21,4,4,0,0,0-2.17-1.26c-.09-.57-.16-1-.22-1.31-.49-2.38-3.13-4-5.3-2.52l-1-3.62c-.16-.61-.32-1.21-.49-1.8a2.83,2.83,0,0,0-4-1.93c-.59-1.12-1.2-2.24-1.84-3.34-1.12-1.93-3-1.78-4.43-.74a3,3,0,0,0-2-1.78l0-.14a3.5,3.5,0,0,0-5.28-2.42,3.34,3.34,0,0,0-3.3-.6,3.5,3.5,0,0,0-6-.69,3.28,3.28,0,0,0-3.77.32c-1.57-2.6-6.21-3-6.48.88l0,.57A8.09,8.09,0,0,0,191.7,112a11.54,11.54,0,0,0-1.67-.2c-2.54-1.79-4.67-3.94-7.23-5.66-.14-.6-.26-1.21-.4-1.82a3.4,3.4,0,0,0,.39-3.2c-2.15-6.25-4-12.58-5.56-19a3.59,3.59,0,0,0-1.23-2,134.66,134.66,0,0,0-4.55-14.93l.06-1.09a3.51,3.51,0,0,0-2.08-3.53c-.62-1.3-1.28-2.59-2-3.85a2.94,2.94,0,0,0-2.87-1.36,3.58,3.58,0,0,0-2.56,0c-.2.08-.38.17-.57.26a1.78,1.78,0,0,0-1.74.81c-2.47,3.71-6.06,6.46-8.32,10.33a26,26,0,0,0-1.91,4,4,4,0,0,0-.49.74c-.22.48-.48.93-.71,1.39q-2.91,3.86-5.49,8a3.05,3.05,0,0,0-1,.23c-3.7,1.54-7.51,3.6-8.52,7.84-1.16,4.87,1.57,10.23,3.52,14.53a34.68,34.68,0,0,0,7.56,11.19c2.27,2.16,5.28,3.51,7.93,5.22a35.67,35.67,0,0,1,2.5,6.4c-.57,2.36-1.07,4.75-1.5,7.15a18.44,18.44,0,0,1-2,.4c-2.34.34-4.81.43-7,1.25a2,2,0,0,0-.6.34c-.65,0-1.31,0-2-.1a4,4,0,0,0-1.93.31,23.36,23.36,0,0,1-6.89-2.42A3,3,0,0,0,129,134q-.28-.15-.57-.33c-1.41-1.33-2.82-2.65-4.2-4-1.37-1.57-2.76-3.09-4.24-4.54-.2-2.39-.32-4.8-.34-7.22a2.73,2.73,0,0,0-1.75-2.74c-.35-2.08-.68-4.16-1-6.26a2.6,2.6,0,0,0-.1-.4,14.86,14.86,0,0,1,.39-6.17,3.55,3.55,0,0,0-.36-3.2c.79-3.41,1.65-6.81,2.54-10.2.89-2.1,1.77-4.19,2.46-6.35a8.19,8.19,0,0,0,.31-4.07c.27-1,.55-2.07.82-3.11a3.39,3.39,0,0,0-3.72-3.88c-3,.61-4.56,2-5.19,5a3.34,3.34,0,0,0,.88,2.85c-.4,1.45-.79,2.9-1.19,4.35A2.72,2.72,0,0,0,112.15,85c-.65,1.08-1.27,2.16-1.87,3.25a3.27,3.27,0,0,0-1.45,1.47c-.82,1.63-1.66,3.24-2.49,4.86a3.35,3.35,0,0,0-3.86,1.73c-.3.59-.59,1.17-.86,1.76a44.92,44.92,0,0,0-4.28,16.48,3.53,3.53,0,0,0,1,2.61q-2.39,4.07-4.47,8.27c-.16.29-.32.57-.47.86-3.21,1.88-7.9,1.51-11.45.64l-.14,0a11,11,0,0,0-.4-1.18c-.19-.47-.38-.92-.58-1.34-.33-7.42.56-14.56,4.06-21.19,1.85-.91,2.63-2.71,3.72-4.68l4.68-8.44a2.74,2.74,0,0,0,2-1.36q5.82-9.09,10.82-18.64a2.64,2.64,0,0,0,.32-1.47,24.39,24.39,0,0,0,2.36-7,2,2,0,0,0-1.3-2.41,1.88,1.88,0,0,0-2.62,1c-.38.92-.78,1.84-1.17,2.75a2.89,2.89,0,0,0-3.33,1.22c-1.16,1.79-2.33,3.58-3.49,5.38a2.11,2.11,0,0,0-1.82.93h0a2.56,2.56,0,0,0-1.91-1.51l.5-1.26a2.63,2.63,0,0,0-4.27-3c-3,2.67-4.05,6.28-5.33,10-.17.51-.35,1-.54,1.51a2.8,2.8,0,0,0-1.81,1.16c-2.51,3.79-4.83,7.69-5.71,12a2,2,0,0,0-.08.47,17.3,17.3,0,0,0-.14,5.39,3.24,3.24,0,0,0,.3,1l-.42.73a3.49,3.49,0,0,0-2.11-1.2c-.69-2.59-4.72-3.77-6-.66-.25.63-.5,1.26-.76,1.89q-4.3,4.3-8.41,8.78a3.09,3.09,0,0,0-2.21,1.83c-.2.42-.38.83-.57,1.24q-2.07,2.31-4.06,4.67a78.23,78.23,0,0,0-8.38,9.77,2.81,2.81,0,0,0-2.59,1.84c-.62,1.56-1.24,3.11-1.85,4.67a2.39,2.39,0,0,0-.16.38c-.37,1-.75,1.91-1.13,2.86a3.27,3.27,0,0,0-4.55,2.29q-.9,3.06-2,6c-1.87.29-3.52,2-2.56,4.25a4.85,4.85,0,0,0,3,3.1,3.42,3.42,0,0,0,1.95.2,3.56,3.56,0,0,0,3,1.13,3,3,0,0,0,.33.27,2.77,2.77,0,0,0,4.54.6l.55-.55a165.59,165.59,0,0,0,18.71-4.5,2.59,2.59,0,0,0,.47-.05,33.46,33.46,0,0,0,7.66-2.46l3-1a28.44,28.44,0,0,0,3.9-.23,3.4,3.4,0,0,0,.38,1.17c4.65,8.82,9.53,17.63,17.3,24,1.66,1.79,3.37,3.55,5.16,5.26,1.48,1.42,3.76.76,4.92-.7a4.07,4.07,0,0,0,3.73,2.73,192.42,192.42,0,0,0,42.13-4.18c7.6-1.59,15.46-3.28,22.44-6.69a3.63,3.63,0,0,0,1.43,0,3.59,3.59,0,0,0,5.71-1c.84-1.74,1.63-3.51,2.4-5.28a3.29,3.29,0,0,0,1.38-1.71l1.94-4.91a5.55,5.55,0,0,0,1.76,2,3.61,3.61,0,0,0,.6.35c.07.24.15.49.23.73.86,2.6,4.13,2.63,5.76,1a6.42,6.42,0,0,0,.54.63,2.76,2.76,0,0,0,3.18.56,9.63,9.63,0,0,0,1.5,1.91c1.55,1.57,4.63.57,5.33-1.35.19-.5.35-1,.5-1.51a3.71,3.71,0,0,0,3.73.66c.27-.13.51-.27.75-.41a12.63,12.63,0,0,0,.83,1.88,3.52,3.52,0,0,0,6.27.25,3.89,3.89,0,0,0,4.08-.47c.47,0,.93.05,1.37.09,6.43.53,14,2.3,20.39,1.59C246.84,158,248.23,153.1,247.64,147.8Zm-161-6.64-1.13-1.54c1.13-.39,2.25-.79,3.36-1.21l.07,0a10.79,10.79,0,0,0,2.6,0l.24,1.34A3.72,3.72,0,0,0,86.67,141.16Zm17.84-15.93c-.05.22-.09.44-.15.66a2.7,2.7,0,0,0-1.06,0c.32-.85.64-1.69,1-2.53.12.48.25,1,.37,1.46C104.6,125,104.55,125.09,104.51,125.23Zm2.52-6.59a1.76,1.76,0,0,0-.5-.13c.16-.79.33-1.57.53-2.33C107,117,107,117.82,107,118.64Z"/><path class="cls-8" d="M100.16,91.83c5.91-10,11.29-19.3,11.41-31.13a1.06,1.06,0,0,0-2.12-.16c-1.08,8.78-5.92,17.1-10.31,24.62-3.8,6.52-7.73,12.85-12.14,19-3.19,4.43-6.34,9.51-5.46,15.23a11.43,11.43,0,0,0,.89,3,1.3,1.3,0,0,0-.52,1,.88.88,0,0,0,0,.28c-.1-.25-.16-.14-.17.33a2.74,2.74,0,0,0,.25,1,6.63,6.63,0,0,0,1.59,2.26c1.22,1.2,2.91,2.2,4.68,1.81a1.23,1.23,0,0,0,.93-1.28,8.37,8.37,0,0,0,2.64,0,1.52,1.52,0,0,0,1.23-1.14.59.59,0,0,0,.13,0,4.87,4.87,0,0,0,1.35-.72.73.73,0,0,0-.58-1.28,3.45,3.45,0,0,0-1.1.35,1.46,1.46,0,0,0-1-.66c-10.07-2-5.64-11.92-1.68-17.43C93.74,101.94,97.08,97,100.16,91.83Z"/><path class="cls-9" d="M155.35,51.62a1.55,1.55,0,0,0-1.48-.8c-.4-7.42-2.76-16-8.93-19.48-.8-.45-2.1.14-1.8,1.2,1.12,4,3.38,7.56,4.38,11.66a32.17,32.17,0,0,1,.28,13.57,42.34,42.34,0,0,1-4.57,12.6c-1.89,3.45-4.72,6.49-5.44,10.45-.18,1,.57,2.38,1.79,1.94,6.23-2.23,10.26-9.68,12.41-16.93C155.41,62.06,157.27,55.68,155.35,51.62Z"/><path class="cls-10" d="M151.28,120.82c-1.34-1.24-4-.35-3.79,1.66.14,1.64.54,2.92-.45,4.37s-2.73,2.39-3.95,3.74c-.59.65-1.47,1.71-1.24,2.66a3.12,3.12,0,0,0,3.19,2c2.75-.18,5.6-3.65,6.86-5.89C153.4,126.7,153.68,123,151.28,120.82Z"/><path class="cls-11" d="M106.83,33.46c-4.68,4.94-8.41,11.45-11.13,17.66-2.09,4.76-4.57,11.07-2,16a1.93,1.93,0,0,0,3.49-.43c.77-2.58.54-5.22,1.09-7.86a48.57,48.57,0,0,1,3.45-9.54c2.16-4.91,4.88-9.6,6.88-14.56C109.07,33.69,107.62,32.63,106.83,33.46Z"/><path class="cls-12" d="M139,123.35c-4.09-1.21-8.46-.7-11.6-4.21-2.17-2.42-2.85-7.17-3.16-10.23-.57-5.66.34-11.38,1-17,0-.47-.74-.6-.83-.13-1.56,7.78-2.74,16.27-.14,24,2.39,7.09,7.4,8.69,14.63,8.49A.46.46,0,0,0,139,123.35Z"/><path class="cls-13" d="M142.14,45.81a.27.27,0,0,0-.53,0c-.8,7.63-1.33,14.75-4.14,22-2.59,6.67-6.69,12.18-10.84,17.91-.3.41.3.84.65.53C137.66,77.28,144.42,59.46,142.14,45.81Z"/><path class="cls-14" d="M111.68,46.35a.34.34,0,0,0-.56.39c1.73,4,5.34,6.68,6.33,11.13,1.06,4.74-.46,9.33-3.28,13.15-.27.37.28.8.6.5C123.37,63.6,118.08,53.48,111.68,46.35Z"/><path class="cls-15" d="M112.59,35c-8.22,4.91-7.66,15.14-4.85,23.06.11.33.62.13.56-.19C106.57,49.09,106.24,42,113,35.5,113.22,35.25,112.93,34.75,112.59,35Z"/><path class="cls-16" d="M118.81,76.17c.9-1.7,1.62-4.22-.45-4.77a1.42,1.42,0,0,0-1.24.19,1.29,1.29,0,0,0-1.56,1.13c-1.13,6.1-1.65,11.51-5.74,16.54-3.22,4-7.53,6.25-9.38,11.24-2,5.49-1.89,11.69-3,17.4a33.8,33.8,0,0,1-2.74,8.67,45.94,45.94,0,0,0-2.28,4.24c-5.75,3.52-12.93,5.38-19.84,7.27a277.93,277.93,0,0,1-42.49,8.21,9.54,9.54,0,0,0-1.83.21c-3.34.63-3.24,5.88.32,5.44a12.1,12.1,0,0,0,2-.26,300.57,300.57,0,0,0,49.93-10.44c6.78-2.06,14.33-5.05,19.43-10,0,.63.11,1.25.21,1.86a1.18,1.18,0,0,0,2.11.43c2-3.84,2.47-8.12,3.42-12.29s2.07-8.58,3.27-12.82c2.49-8.77,7.11-16.82,9.58-25.51a.9.9,0,0,0-.28-1A20.22,20.22,0,0,0,118.81,76.17Z"/><path class="cls-16" d="M245,156.57c-.2.14-5.32-.77-6-.85-1.88-.2-3.75-.45-5.62-.73q-7-1.06-13.91-2.77c-8.15-2-15.52-5-23.06-8.17a107.5,107.5,0,0,0-2.74-13.21c-.38-1.23-2.39-1.34-2.51,0a1.84,1.84,0,0,0-1.44,1.13c-1,2.78-.84,6.13-.94,9.11a5.16,5.16,0,0,0-1.81,2.7A2.2,2.2,0,0,0,186,146c.11,1.12.19,2.23.23,3.33,0,.63,0,1.24,0,1.8s0,1,0,1.44a2.23,2.23,0,0,0,2.23,2.37,2.59,2.59,0,0,0,3.61.63c8.9,2.3,17.74,2.3,26.95,3.23a1.36,1.36,0,0,0,.9-.24l.19.05a149.39,149.39,0,0,0,17.69,3.08c3.33.37,8.43,1.91,11.14-.71C251.44,158.57,247.7,154.62,245,156.57Z"/><path class="cls-16" d="M181.17,93.86c-.88-4.17-1.55-8.44-4.45-11.72a1.15,1.15,0,0,0-.54-.35c-.41-1.49-.83-3-1.25-4.48-1.3-4.73-2.49-9.49-4-14.16-1.23-3.79-1.77-7.7-5.78-9.14a2.12,2.12,0,0,0-2.08.61c-.1,0-.17-.09-.27-.12a.74.74,0,0,0-.88.26c-1.54,2.77-.23,5.31.62,8.23,1.3,4.47,2.63,8.91,3.67,13.45s1.92,9.17,2.6,13.81c.61,4.17.68,8.53,1.93,12.57.78,2.52,5,2.42,5.35-.35a5.48,5.48,0,0,0,0-.57,10.63,10.63,0,0,0,1.31,1.6,4.61,4.61,0,0,0,2,2.25,1.81,1.81,0,0,0,2.12-.23C184.32,103.06,181.82,96.88,181.17,93.86Z"/><path class="cls-16" d="M74.82,110.58l-.06.07a.46.46,0,0,0-.53.31c-.07.17-.14.36-.21.55-6.35,7.37-12.95,14.83-18.82,22.57-.45.58.27,1.34.8,1a.68.68,0,0,0,.56-.09c3.93-2.35,9.58-4.76,12.54-8.35,3.15-3.82,4.65-10.48,6-15.22.09-.15.18-.31.26-.47A.31.31,0,0,0,74.82,110.58Z"/><path class="cls-16" d="M93.82,67a.82.82,0,0,0-1.27,0c-.12.14-.23.29-.34.44a2.52,2.52,0,0,0-.21-.54l.8-1.54a1.44,1.44,0,0,0-2-1.23,45.35,45.35,0,0,0-7.26,14.69.64.64,0,0,0,.11.59c-.14.38-.3.75-.44,1.14a.83.83,0,0,0,0,.58q-1.48,2.84-3,5.63a57.59,57.59,0,0,0-4,6.87c-.41.86.95,1.72,1.45.87a1.18,1.18,0,0,0,.11-.19h0a.14.14,0,0,0,0-.06l.45-.76a.79.79,0,0,0,.4.51l-.18.31c-.4.68.65,1.22,1.07.57Q85.21,86,90.35,76.71C91.55,74.56,96,69.55,93.82,67Z"/><path class="cls-16" d="M107.91,60.55a9.42,9.42,0,0,1,.36-1.53c.26-.83-1.2-1.3-1.47-.47l-.06.18a.61.61,0,0,0-.63.06,2.9,2.9,0,0,0-1,1.32l0,0a.57.57,0,0,0-.45-.14.85.85,0,0,0-1.16.57c-.25,1.28-.44,2.56-.59,3.83-.55,3-.83,6-1.44,9-.55,1.66-1.12,3.32-1.64,5a49.59,49.59,0,0,0-2.87,6.78c-.27,1,1.25,1.22,1.53.27a66.17,66.17,0,0,1,3.09-7.17.82.82,0,0,0,.93-.41,20.79,20.79,0,0,0,1.07-2.1.65.65,0,0,0,.75-.44c.37-1.08.73-2.16,1.08-3.25a.64.64,0,0,0,.39-.53c0-.39.1-.79.14-1.19l0-.17a.76.76,0,0,0,.87-.42,15.28,15.28,0,0,0,.84-5.53c.25-1,.5-1.92.74-2.88A.71.71,0,0,0,107.91,60.55Z"/><path class="cls-16" d="M145.64,115.66c-1.79-6-4.82-11.31-5.77-17.58-.89-5.91.19-10.85,2.17-16.37.17-.46-.49-.71-.76-.34a17.92,17.92,0,0,0-1.42,2.43.5.5,0,0,0-.45.23c-.1.15-.19.31-.28.47a15,15,0,0,0-2.26,2.61.85.85,0,0,0-1.62-.37c-2.61,5.46-2.63,11.39,1.57,15.68l.16.37a.76.76,0,0,0,.08.11.63.63,0,0,0,0,.23c1.4,3.69,2.93,7.3,4.6,10.88a.87.87,0,0,0,1.66-.43c.49.84,1,1.64,1.5,2.39C145.11,116.35,145.79,116.16,145.64,115.66Z"/><path class="cls-16" d="M183.57,157.18l-.79-.65a.7.7,0,0,0-.92,0C163.93,150.7,146,144.66,127.69,140c-2.91-.74-5.92-2.48-8.42-.38-3.13,2.64-5.7,6.77-8.2,10-5.53,7.16-11.2,14.66-15.39,22.7a.46.46,0,0,0,.79.48l1.08-1.52a.77.77,0,0,0,.49.36,1.65,1.65,0,0,0,.95,0,.79.79,0,0,0,.26.38l0,0a.7.7,0,0,0,.13.88.88.88,0,0,0,1.46.19l.73-.83-.61,1.19c-.5,1,1,1.57,1.52.68.31-.52.61-1,.91-1.56a3.06,3.06,0,0,0,3.29.71,3.44,3.44,0,0,0,3.69.83q1.5-.5,3-1a3.42,3.42,0,0,0,2.88.28A171,171,0,0,1,146.67,167c10.21-1.35,20.26-4.12,30.61-4.3,2.91,0,3.55-3.07,2.41-5.12l3,1C183.54,158.8,184.31,157.81,183.57,157.18Z"/><path class="cls-16" d="M105.51,132.05c-.1-.25-.21-.5-.31-.76s-.43-.16-.53,0-.34.71-.51,1.07a.57.57,0,0,0-1.07-.16c-.3.61-.58,1.23-.87,1.84a.71.71,0,0,0-.65.3c-.11.16-.21.33-.32.5a.87.87,0,0,0-1.54-.49c-.4.5-.77,1-1.14,1.55A.9.9,0,0,0,97,136c-.16.28-.31.56-.47.83a.87.87,0,0,0-1.51-.27c-.41.63-.79,1.28-1.17,1.93a.74.74,0,0,0-1.1,0,.93.93,0,0,0-1.07,0A7.6,7.6,0,0,0,90,140a.72.72,0,0,0-1,.26l0,.06a.92.92,0,0,0-1.32,0,10.19,10.19,0,0,0-.79.93.82.82,0,0,0-1.4-.1c-.08.12-.17.25-.25.39a.76.76,0,0,0-.76.13l-.17.17A6.28,6.28,0,0,0,82,143.49a2.56,2.56,0,0,0-1.66-.12.66.66,0,0,0-.29.2l-.18.13-.36-.39a.88.88,0,0,0-1.5.86,10.27,10.27,0,0,0,.57,1.26.7.7,0,0,0,0,.4c.52,2.93,3.56,5.47,5.44,7.73.73,1.41,1.48,2.79,2.28,4.15a.76.76,0,0,0,.48.79c.83,1.37,1.69,2.73,2.59,4.06a.76.76,0,0,0,.68.35.64.64,0,0,0,.32.21,1,1,0,0,0,.29.11.88.88,0,0,0,0,.15c-.32.94.9,1.59,1.43,1-.14.45-.28.9-.39,1.35h0a.84.84,0,0,0,1.66.27c1.61-5.8,4.44-11.34,6.52-17,1-2.75,2-5.51,2.89-8.3.4-1.21,3.26-7.74,2.58-8.46A.14.14,0,0,0,105.51,132.05Z"/><path class="cls-16" d="M158.49,112.36l-.12-.12a10.3,10.3,0,0,0-.19-2.47,13.71,13.71,0,0,0-.51-2.55c-.6-5.9-1.55-11.75-1.84-17.69-.35-7.23-.12-14.43,0-21.66a.22.22,0,0,0-.18-.24.36.36,0,0,1,0-.09c.11-.33-.4-.61-.57-.28-2.42,4.72-4.41,9.65-6.49,14.52-1.48,3.46-5.14,8.88-4.81,12.79.25,3,2.89,6.05,4.53,8.38a53.41,53.41,0,0,0,9.27,10.3A.61.61,0,0,0,158.49,112.36Z"/><path class="cls-16" d="M125.87,22.32a3.56,3.56,0,0,0-3.28.22,4.29,4.29,0,0,0,0-2.83,2.73,2.73,0,0,0-3.89-1.56,4.72,4.72,0,0,0-1.92,4.26,4.27,4.27,0,0,0-3.33-.65,2.55,2.55,0,0,0-1.92,2.85c.27,1.44,1.95,2.08,3.24,2.21a6.91,6.91,0,0,0,.79,0,3.21,3.21,0,0,0,1.67,2.29,3,3,0,0,0,2.08.22,4.89,4.89,0,0,0,2.53-1l.62,0c1.72-.15,3.61-.61,4.47-2.28A2.61,2.61,0,0,0,125.87,22.32Z"/><path class="cls-16" d="M147.37,10.17a4.16,4.16,0,0,0-4.6-.78.77.77,0,0,1,0-.15,0,0,0,0,1,0,0,3.27,3.27,0,0,0,.07-1.44c-.09-1.49-.68-2.88-2.05-3.24a2.91,2.91,0,0,0-2.61.82c-1.53-1.55-4.88-1.19-6.31.26-.92.93-.82,2.83-.71,4a5.07,5.07,0,0,0,.42,1.67l-.23.14a4.94,4.94,0,0,0-2.27,4.19A3.77,3.77,0,0,0,131.72,19a5.49,5.49,0,0,0,3.49-.55,2.82,2.82,0,0,0,1.08,3.09,5,5,0,0,0,5.62-.29,8.9,8.9,0,0,0,2.86-4.3c1.22,0,2.4-1.17,3-2.16A3.64,3.64,0,0,0,147.37,10.17Z"/><path class="cls-16" d="M152.15,21.32l-.05-.06,0,0,0,0c.08-.16.16-.32.23-.49a.52.52,0,0,0-.45-.65.5.5,0,0,0-.29-.07,1,1,0,0,0-.88.73,1.61,1.61,0,0,0-.17-.28.63.63,0,0,0-.6-.14s-.07.05-.11.06a1.11,1.11,0,0,0-1.51.36,1.63,1.63,0,0,0,.29,1.93,1.28,1.28,0,0,0,.75.31V23h0c-.45.66.11,1.54.71,1.88a.55.55,0,0,0,.73-.21,1.27,1.27,0,0,0,.18-1,2,2,0,0,0,.21-.44h0a.5.5,0,0,0,.21,0C152.39,23.35,152.76,21.94,152.15,21.32Z"/><path class="cls-16" d="M117.54,11l-.35-.34a.62.62,0,0,0-.23-.14.6.6,0,0,0,0-.19.79.79,0,0,0-.56-.92.82.82,0,0,0-.41,0,1.3,1.3,0,0,0-.09-.62.64.64,0,0,0-.59-.42c-.65,0-1.46.35-1.36,1.14a.89.89,0,0,0,.82.79h0a1.09,1.09,0,0,0,.07,1.5.81.81,0,0,0,1,0,2.83,2.83,0,0,0,0,.29.66.66,0,0,0,1,.51,1.45,1.45,0,0,0,.62-.63A.67.67,0,0,0,117.54,11Z"/><path class="cls-17" d="M22.59,152.65a30.79,30.79,0,0,0,3.22-3.53l2.9-3.75c1.75-2.23,3.47-4.49,5.2-6.74q5.36-6.9,10.84-13.71,11-13.59,22.73-26.52a6.37,6.37,0,0,1,2.4-2.07,1.4,1.4,0,0,1,.71.09,15,15,0,0,1,1.48.63c2.38,1.09,6.07,2.49,8.08-.06l-4.61-3.1a12.74,12.74,0,0,0-1,2.21,1.8,1.8,0,0,0,1.68,2.3,4.57,4.57,0,0,0,2-.46c3.62-.41,3.21-5.5-.36-5.59-.35,0-1-.06-1.24.21s0-.09.27,0c-.16,0-1.06-.26-.75-.15-1-.37-2-1-3-1.33a7.59,7.59,0,0,0-7.88,1.2,59.5,59.5,0,0,0-5.9,6.29q-2.91,3.27-5.76,6.57c-7.76,9-15.31,18.16-22.43,27.66-2,2.64-4,5.28-5.85,8q-1.74,2.49-3.46,5a29.3,29.3,0,0,0-2.49,4.39,2.07,2.07,0,0,0,3.25,2.48Z"/><path class="cls-17" d="M75.36,95A34.06,34.06,0,0,0,79,88.69c1.11-2.16,2.2-4.34,3.31-6.5Q85.64,75.79,89,69.46c4.55-8.49,9.15-16.94,14.11-25.2q4.23-7,8.71-13.95l-3.49,1.1c4,1.7,8,3.69,12.15,5,3.9,1.25,7.68.57,11.36-1,1.67-.73,3.3-1.55,5-2.18,1.54-.57,3.46-1.21,5.08-.62,1.41.5,2.19,2.12,2.88,3.32,1,1.73,1.93,3.49,2.78,5.29,1,2.07,1.87,4.19,2.67,6.33,1,2.71,1.71,5.56,3.37,8a1.87,1.87,0,0,0,3.46-.89c.32-4.41-1.88-9-3.62-12.94-.91-2.09-1.91-4.16-3-6.18a27.44,27.44,0,0,0-3.38-5.37c-3.09-3.53-7.8-3.34-11.88-1.84-3.43,1.27-6.83,3.68-10.6,3.66-2.24,0-4.41-1.1-6.43-2l-7.47-3.16a2.67,2.67,0,0,0-3.49,1.09c-10.41,16.14-20.12,32.87-28,50.38-1.17,2.58-2.32,5.17-3.41,7.78a34.65,34.65,0,0,0-2.78,8.16c-.19,1.37,1.6,1.64,2.31.78Z"/><path class="cls-17" d="M142.16,88.59c3.09-6,6.42-11.87,9.88-17.66,1.75-2.94,3.53-5.86,5.38-8.73q1.29-2,2.61-4c.54-.82,1.32-2.75,2.41-2.88.93-.11,2.12.88,2.74,1.46a12,12,0,0,1,2.2,2.95,65.38,65.38,0,0,1,3.53,7.82A171.33,171.33,0,0,1,177.25,86a167.66,167.66,0,0,1,4.56,21.52,2.89,2.89,0,0,0,3,2.63,2.85,2.85,0,0,0,2.63-3,168.13,168.13,0,0,0-11.69-41.73c-2.33-5.43-4.87-12.47-11-14.57a6,6,0,0,0-5,.34c-1.6.95-2.5,2.6-3.43,4.15q-2.88,4.76-5.63,9.59c-4.08,7.14-7.84,14.46-11.45,21.84-1,1.95,1.89,3.76,2.9,1.8Z"/><path class="cls-17" d="M169.8,101.63c2.63,5.39,8.29,8.73,13.78,10.57,6.25,2.11,12.95,2.23,19.47,2.65,6.7.43,13.33,1.35,19.29,4.63s10,8.5,14.31,13.57l7.32,8.69,3.5,4.15c1.37,1.63,2.9,4.36,5.26,4.29,2-.05,3.57-2.11,1.93-3.84l.79,1.4a3.1,3.1,0,0,0-.13-1.6,4.34,4.34,0,0,0-.84-1.26l-2.08-2.45-7.34-8.65c-4.59-5.42-9-11.44-14.6-15.86A39.49,39.49,0,0,0,211.72,110c-7.7-1.13-15.59-.57-23.22-2.19-6.12-1.3-11.48-3.79-15.61-8.58-1.53-1.78-4,.47-3.09,2.37Z"/><path class="cls-17" d="M22.19,155.49c9.17-1.06,18.29-2.39,27.34-4.23,8.84-1.79,17.56-4,26.3-6.24l-2.93-1a181.87,181.87,0,0,0,13.68,21.83c2.37,3.24,4.75,6.88,7.77,9.57,3.46,3.07,7.76,3.22,12.13,2.71q27.15-3.17,54.11-7.8,7.56-1.29,15.1-2.69c1.21-.23,2.43-.47,3.65-.68a5.68,5.68,0,0,0,2.49-.71,4.33,4.33,0,0,0,1.37-2.12c1-2.44,1.82-4.92,2.72-7.39l-3.39,1.76,31.6,3.31,15.8,1.66,7.9.82c2.49.27,5.27.87,7.64-.22,2.61-1.21,3.76-3.93,5-6.32l4.25-8a3.23,3.23,0,0,0-5.88-2.68l-3.42,6.46c-.53,1-1.06,2-1.6,3l-.39.75s-.29.52-.12.24c-.26.42-.31.58-.6.73.34-.17-.26,0-.43,0a8.77,8.77,0,0,1-.92-.05l-3.95-.41L230,157l-29.62-3-16.78-1.72a3.21,3.21,0,0,0-3.39,1.76c-1,2.77-2.06,5.53-3,8.33l2.52-1.75c-8.27,1.85-16.7,3.16-25.05,4.56q-12.07,2-24.18,3.8t-24,3.24c-3.15.38-6.21.86-8.7-1.47s-4.61-5.54-6.69-8.35a230.59,230.59,0,0,1-14-21.19,2.58,2.58,0,0,0-2.92-1c-8.62,2.54-17.4,4.58-26.18,6.46s-17.52,3.67-26.34,5.17c-2.06.35-1.65,3.92.45,3.68Z"/><path class="cls-17" d="M47.66,139.56c7.65-10,14.92-20.26,23.13-29.82,1.39-1.62-.9-4.06-2.3-2.43-8.3,9.7-16.4,19.83-22.66,31a1.11,1.11,0,0,0,1.83,1.26Z"/><path class="cls-17" d="M112.2,42.33c.53,2.3,3.49,3.55,5.45,4.38a22,22,0,0,0,7.55,1.69,21.48,21.48,0,0,0,7.64-1c1.41-.44,2.79-1,4.18-1.5s3.16-.86,4.22-2a1.31,1.31,0,0,0-.78-2.25c-1.39-.16-2.7.51-4,1s-2.39.85-3.59,1.25a21.38,21.38,0,0,1-6.8,1.28A19.7,19.7,0,0,1,119.33,44a19,19,0,0,1-2.88-1.28,7.59,7.59,0,0,0-3.34-1.37.86.86,0,0,0-.91,1Z"/><path class="cls-17" d="M101.08,46.06a27.69,27.69,0,0,0-3.23,5.15C96.9,53,96,54.72,95,56.49c-1.74,3.33-3.53,7.12-3.08,11,.21,1.86,1.14,3.65,3.32,3a10.34,10.34,0,0,0,4.27-2.7,48.24,48.24,0,0,0,3.52-4.41,18.46,18.46,0,0,0,3.45-5.69c.22-.73-.57-1.74-1.36-1.23-2.45,1.59-4.06,4.13-5.79,6.44a24.7,24.7,0,0,1-2.26,2.82c-.62.62-2,1.89-3,1.82l1.05.49c-.56-.5-.38-2-.33-2.65a13.4,13.4,0,0,1,.58-2.8,30.54,30.54,0,0,1,2.21-5.12c1.76-3.41,4-6.85,5-10.56a.91.91,0,0,0-1.59-.84Z"/><path class="cls-17" d="M104.7,60.16c.66-.68,2-2.41,3.14-2s.38,2.54.21,3.35a49.19,49.19,0,0,1-2.55,8.22,71.55,71.55,0,0,1-7.33,12.91c-5.51,8.11-11.88,15.8-15.61,25-1.88,4.63-3.37,10.07-2.47,15.08.86,4.81,5.15,9.34,10.38,8.39,4.73-.86,7.08-5.92,7.89-10.17,1.11-5.78.75-11.79,2.28-17.5a17.68,17.68,0,0,1,3.79-7.5c2.12-2.27,4.93-3.73,6.9-6.17a21.75,21.75,0,0,0,3.8-7.66,34.6,34.6,0,0,0,.89-4,8.23,8.23,0,0,0,.2-2.42c-.14-1-.26-1.86-.33-2.82-.1-1.23-2-1.21-2.34-.15a26.81,26.81,0,0,0-1.32,3.94c-.22,1.28-.45,2.57-.76,3.84a18.65,18.65,0,0,1-2.85,6.67c-1.56,2.18-3.93,3.5-5.88,5.3a18.33,18.33,0,0,0-4.27,6.23c-2.28,5.24-2.41,11-2.93,16.57a32.78,32.78,0,0,1-1.41,7.8c-.64,1.81-1.74,3.82-3.58,4.64-2.15.95-4.42-.21-5.81-1.9-1.74-2.1-1.95-5.05-1.72-7.66a36.87,36.87,0,0,1,4.35-13.57c4.51-8.68,11-16.07,16.11-24.4a55.63,55.63,0,0,0,6.89-16c.53-2.28,1.79-6.15-.5-7.9-2.53-1.94-5.31.45-6.5,2.65-.44.81.54,2,1.33,1.22Z"/><path class="cls-17" d="M115.73,74.67c.5-1.65,1.66-5.57,3.94-3.54,2,1.76,1.93,5.17,1.76,7.56-.46,6.2-3.32,12-4.5,18.08a58,58,0,0,0-.54,18.81c.73,5.48,2.06,11.62,6.28,15.53s10.15,5.2,15.79,5a59,59,0,0,0,9.46-1.15,11.93,11.93,0,0,0,7.11-3.7,6.86,6.86,0,0,0,1-7.5c-1.15-2.41-3.41-4.15-5.52-5.67-3.52-2.54-8-4.61-10.32-8.48a13.42,13.42,0,0,1-1.38-4.1,15.44,15.44,0,0,0-1.72-4.59c-1.51-2.56-3.18-5.1-3.28-8.18-.11-3.41,2.33-5.2,4.67-7.27l4-3.58c.73-.65,1.47-1.28,2.14-2a9.93,9.93,0,0,0,1.63-2.54c.5-1-.77-1.69-1.57-1.39-3.19,1.17-5.65,3.9-8.17,6.12-2.21,1.94-4.73,3.79-5.87,6.59a11.75,11.75,0,0,0-.06,7.85,21.74,21.74,0,0,0,1.63,3.81,35.7,35.7,0,0,1,2.31,4,39.71,39.71,0,0,1,1,3.9,13.18,13.18,0,0,0,1.63,3.68,19.68,19.68,0,0,0,4.84,4.88c1.9,1.43,3.94,2.65,5.9,4s4.3,2.87,5,5.07c.85,2.54-1.81,4.39-3.89,5a40.3,40.3,0,0,1-9.32,1.44c-5.52.34-11.72-.49-15.5-5a18,18,0,0,1-3.32-7.56,51.29,51.29,0,0,1-1.31-9.39,57.83,57.83,0,0,1,2.21-18.78c1.75-6.11,4.6-13.49,2-19.77-1-2.51-3.12-4.46-6-3.7-2.66.71-3.63,3.66-4,6.07a1,1,0,0,0,1.85.41Z"/><path class="cls-17" d="M197.87,124.2a22.24,22.24,0,0,0,5.73,2.15c2,.62,4.07,1.21,6.11,1.81,3.86,1.14,7.58,2.17,10.8,4.71a88,88,0,0,1,7.84,7.12,46.09,46.09,0,0,1,6.43,8.53,1,1,0,0,0,1.85-.6c-.55-3.71-2.86-6.9-5.35-9.58a66.27,66.27,0,0,0-8.69-7.44,22.69,22.69,0,0,0-5.08-3.18,51.89,51.89,0,0,0-6-1.79c-2.21-.62-4.41-1.24-6.62-1.83s-4.28-1.4-6.46-1.36c-.72,0-1.29,1-.55,1.46Z"/><path class="cls-17" d="M190.4,129.35c-2,2-2.78,5.14-3.75,7.74-1.06,2.83-2,5.7-3,8.57s-1.82,5.59-2.67,8.41a59.21,59.21,0,0,0-2.48,9.22c-.26,2,3,2.76,3.78,1a56.87,56.87,0,0,0,2.75-8.43c.87-2.88,1.71-5.77,2.58-8.65s1.74-5.58,2.62-8.37,2.31-5.86,2.1-8.84a1.21,1.21,0,0,0-2-.66Z"/><path class="cls-17" d="M71.79,144.1a17.73,17.73,0,0,0,6.53-.28c2.12-.49,4.22-1.16,6.3-1.82a129.5,129.5,0,0,0,12.32-4.62,25.72,25.72,0,0,0,5.46-2.77,9.67,9.67,0,0,0,3.16-5.14,60.32,60.32,0,0,0,1.59-6.36c.21-1,.37-2,.49-3.09a27.31,27.31,0,0,0-.16-4.33c-.06-1.34-2.09-2-2.5-.49-.55,2-1.31,3.86-1.72,5.9s-.87,4-1.41,5.93c-.44,1.62-.73,3.5-2.2,4.52a31.46,31.46,0,0,1-5.43,2.59,120.51,120.51,0,0,1-11.34,4.21c-1.94.61-3.9,1.11-5.84,1.7a23.09,23.09,0,0,0-5.51,2.52.81.81,0,0,0,.26,1.53Z"/></g></g></g><g id="Layer_102" data-name="Layer 102"><g id="Espalda"><rect class="cls-18" width="275" height="259.5"/></g></g></g></g></svg>