<svg xmlns="http://www.w3.org/2000/svg" xmlns:xlink="http://www.w3.org/1999/xlink" viewBox="0 0 275 259.5"><defs><style>.cls-1{isolation:isolate;}.cls-2{fill:url(#Degradado_sin_nombre_141);}.cls-3{fill:url(#Degradado_sin_nombre_134);}.cls-4{fill:url(#Degradado_sin_nombre_95);}.cls-5{fill:url(#Degradado_sin_nombre_95-2);}.cls-6{fill:url(#Degradado_sin_nombre_95-3);}.cls-7{fill:url(#Degradado_sin_nombre_95-4);}.cls-8{fill:url(#Degradado_sin_nombre_95-5);}.cls-9{fill:#fcee21;}.cls-10{fill:none;mix-blend-mode:multiply;opacity:0.4;}</style><radialGradient id="Degradado_sin_nombre_141" cx="114.54" cy="88.31" r="37.5" gradientUnits="userSpaceOnUse"><stop offset="0" stop-color="#603813"/><stop offset="0.81" stop-color="#f15a24"/><stop offset="0.89" stop-color="#f7931e"/><stop offset="1" stop-color="#cce0f4" stop-opacity="0"/></radialGradient><radialGradient id="Degradado_sin_nombre_134" cx="114.34" cy="88.31" r="36.6" gradientUnits="userSpaceOnUse"><stop offset="0" stop-color="#fca921"/><stop offset="0.32" stop-color="#fbd820"/><stop offset="0.5" stop-color="#f7931e"/><stop offset="0.67" stop-color="#f15a24"/><stop offset="0.82" stop-color="#703c15"/><stop offset="1" stop-color="#facf20" stop-opacity="0"/></radialGradient><radialGradient id="Degradado_sin_nombre_95" cx="105.1" cy="79.63" r="2.96" gradientTransform="translate(0.79 -0.88) scale(0.99 0.76)" gradientUnits="userSpaceOnUse"><stop offset="0.2" stop-color="#ffffbd"/><stop offset="0.24" stop-color="#fffeb4"/><stop offset="0.32" stop-color="#fefb9a"/><stop offset="0.42" stop-color="#fef771"/><stop offset="0.53" stop-color="#fcf038"/><stop offset="0.57" stop-color="#fcee21"/><stop offset="0.88" stop-color="#fcee21"/></radialGradient><radialGradient id="Degradado_sin_nombre_95-2" cx="119.03" cy="80" r="3.11" xlink:href="#Degradado_sin_nombre_95"/><radialGradient id="Degradado_sin_nombre_95-3" cx="132.82" cy="86.51" r="4.45" xlink:href="#Degradado_sin_nombre_95"/><radialGradient id="Degradado_sin_nombre_95-4" cx="138.2" cy="128.15" r="4.29" xlink:href="#Degradado_sin_nombre_95"/><radialGradient id="Degradado_sin_nombre_95-5" cx="137.46" cy="135.79" r="4.57" xlink:href="#Degradado_sin_nombre_95"/></defs><g class="cls-1"><g id="Layer_2" data-name="Layer 2"><g id="Variacion_A" data-name="Variacion A"><g id="AssetsF1"><g id="LoinA1"><circle class="cls-2" cx="114.54" cy="88.31" r="37.5"/><path class="cls-3" d="M150.63,88.31c0-1.7.41-3.38.19-5A45.44,45.44,0,0,0,149,77c-.64-2-2-3.47-2.94-5.33-.73-1.4-.48-2.75-1.38-4-1.36-2-2.44-4.27-4.15-5.91-1.25-1.2-3.36-1.64-4.77-2.65-2.42-1.73-4.63-4.22-7.44-5.31-2-.79-4.76-.52-6.93-.94s-3.46-1.19-5.81-1.19a39.58,39.58,0,0,0-6.37,1.06c-1.65.29-4.27-.49-5.84,0-1.87.6-3.59,2.32-5.31,3.19a38.22,38.22,0,0,0-4.78,3.19,33.93,33.93,0,0,0-4.78,3.71c-1.32,1.35-2.09,3.24-3.18,4.78a34.33,34.33,0,0,0-2.8,4,35,35,0,0,0-2.21,5.15A38.74,38.74,0,0,0,78.63,81c-.48,2.35-.21,4.78-.21,7.28,0,2-.89,4-.58,5.88.26,1.57,1.68,3.1,2.13,4.6a34.31,34.31,0,0,0,1.68,5.58,50.85,50.85,0,0,0,4,6.7c1.28,1.71,2.71,2.24,4.28,3.69,1.37,1.28,2.85,3.51,4.41,4.57A34.88,34.88,0,0,0,102.7,123c2,.7,4.12.69,6.28,1,1.81.28,3.66,1,5.55,1a36,36,0,0,0,3.75-.72,36.67,36.67,0,0,0,6.06-1.16c1.77-.5,3.48-.59,5.12-1.34a39.26,39.26,0,0,0,4.49-3,40.42,40.42,0,0,0,5.77-4.06,33,33,0,0,0,4-5.14,39.45,39.45,0,0,0,3.69-5.2c1-2,1.26-4.09,1.87-6.26a37.83,37.83,0,0,0,1.55-4.91C151.05,91.58,150.63,90,150.63,88.31Z"/><path class="cls-4" d="M106.61,59.75s1.73-2,.71-2.07-6.09,2.81-5.27,2.56,3.62,0,3.62,1v1s2,.58,1.65-.31A16.1,16.1,0,0,1,106.61,59.75Z"/><path class="cls-5" d="M118.79,58.3s-2.19-1.21-2.81.24a2.35,2.35,0,0,0,0,2.51c.31.87-.43,1.48.72,1.29a5.9,5.9,0,0,1,2.8,0c1.16.26,2.56.7,1.86,0s-2-1.38-2.14-2.37A6.85,6.85,0,0,0,118.79,58.3Z"/><path class="cls-6" d="M131.91,64.33s-1.56-2.89-2.81-2.89-.32.46,0,1.32,1.87,1.09,1.87,2.3.94,2.65,1.56,2.65.66-1,.66-1,3.09,3.22,2.78,2.26-1.31-3.68-2.22-3.65A3.09,3.09,0,0,1,131.91,64.33Z"/><path class="cls-7" d="M139.72,93.3a8.07,8.07,0,0,0-2.5,1.93c-.63,1-.63,2.17-1.56,2.41s.31.75,0,1-1.56,2.64-1.25,2.4a6.64,6.64,0,0,0,1.87-1.21c.63-.72,1.56-1.45,2.19-2.17s.94-1.45.94-1-1.25,1.93-.63,1.68a3.31,3.31,0,0,0,1.56-2.89c0-1.45.63-.73.31-1.69S139.72,93.3,139.72,93.3Z"/><path class="cls-8" d="M140.34,99.09a4.37,4.37,0,0,0-2.18,1c-.32.49-2.19,1.21-2.5,1.94s-2.81,2.41-2.19,2.17,2.81-1.93,2.81-1.69-2.81,1.93-3.12,2.41a2.88,2.88,0,0,0-.31,1.45c0,.24.06,1,1,0a30.12,30.12,0,0,0,2.16-2.55c.62-.83,2.19-1.55,2.81-2.52s2.36-1.36,2-1.77Z"/><path class="cls-9" d="M124.28,119.63c0,.36.18.38.4.3.68-.25,1.35-.52,2-.8a5.82,5.82,0,0,1,.81-.35,11.84,11.84,0,0,1-1.36.9,11,11,0,0,1-1.5.51c-.59.21-1.17.45-1.76.63a5.16,5.16,0,0,1-1.1.18c-.41,0-.83,0-1.24,0a17.25,17.25,0,0,0-3,.44c-.52.16-.94.79-1.39,1.22s-.33.34-.81.17l1.06-1-.06-.22a7,7,0,0,0-1.59.18,6.62,6.62,0,0,1-3.06.21c-1.09-.15-2.19-.22-3.28-.39-.3,0-.56-.33-.84-.5l-.27-.15c.71.19,1.41.41,2.13.57a6.43,6.43,0,0,0,1.38.17,22.77,22.77,0,0,0,3.2-.07c1.15-.16,2.28-.52,3.42-.79l1.44-.35c-.41-1.34-.64-1.52-1.76-1.5a14,14,0,0,1-1.71-.06c-2.19-.22-4.39-.44-6.58-.72a40.41,40.41,0,0,1-4.53-.77c-1.49-.37-2.94-1-4.41-1.45l-2.24-.73a6.38,6.38,0,0,0,2,2.89,3.37,3.37,0,0,0,1.29.8,25,25,0,0,0,2.58.5,7.11,7.11,0,0,1,3.65,1.44,12.21,12.21,0,0,0-4.35-1.33c-1.17-.19-2.33-.49-3.5-.75-.07,0-.14-.08-.19-.19l.77.11-1.42-1.27a12.42,12.42,0,0,1-3.5-5.64c-.25-.74-.44-1.47-1.46-1.55.76-.41.67-.94.48-1.49-.45-1.29-1-2.5-2.36-2.88a.33.33,0,0,1-.19-.21l1.61.37a.85.85,0,0,0,1.07-.55A17.54,17.54,0,0,1,98,100.15c.93-.92.92-1.17-.09-2-.69-.55-1.35-1.12-2-1.71a11.15,11.15,0,0,1-3-4.84A2.86,2.86,0,0,0,91.46,90l-3.12-1.68a9,9,0,0,0,1-1.41.65.65,0,0,0-.54-1c-1.14-.21-2.28-.43-3.42-.61-.84-.14-1,.06-1.17,1-.28,1.61-.61,3.2-.92,4.8a.5.5,0,0,1-.16.28c.35-2,.83-4,1.08-6.2a7.56,7.56,0,0,1-1,.49c-.13,0-.31-.12-.47-.19.09-.16.16-.38.29-.45a5.19,5.19,0,0,1,1-.47.85.85,0,0,0,.62-.88,30,30,0,0,1,1.43-8.89c.13-.46.12-.83-.41-1a.58.58,0,0,1-.22-.39c.11-.16.33-.39.44-.35.52.18.7-.13.88-.57a6.65,6.65,0,0,1,2-2.88,1.18,1.18,0,0,0,.25-.54,17.1,17.1,0,0,1,2.56-5.5,7.57,7.57,0,0,1,.8-.9,19.89,19.89,0,0,0-2.21,4.93,4.4,4.4,0,0,0-.2,2.34c.34,1.39,1.06,1.77,2.1,1.58a30.85,30.85,0,0,1,6.3,0l7.24.21c2.59.08,5.18.06,7.76.26,2.88.22,5.75.66,8.63,1a1.1,1.1,0,0,0,1.34-.77c.39-1,.86-2,1.27-3,.25-.63.17-.87-.39-1.21a9.93,9.93,0,0,0-1-.5,2.12,2.12,0,0,1-1.2-.92c-.18-.34-.5-.27-.68.09s-.4.89-.62,1.31c-.08.14-.24.21-.36.31l-.14-.14c.14-.43.27-.87.42-1.3.26-.74.09-1.06-.62-1.07-2.16,0-4.32,0-6.48,0-.51,0-1,0-1.54,0v-.16h3.3l4,0a1.54,1.54,0,0,0,1.37-.64,7.34,7.34,0,0,1,3-2.5,3.09,3.09,0,0,0,.51-.41c-.91-.54-1.73-1-2.56-1.52-.47-.27-1-.51-1.43-.78-.76-.46-1.49-1-2.26-1.39a3.78,3.78,0,0,1-1.81-2,1.21,1.21,0,0,0-1.36-.91c-.57,0-1.14-.23-1.72-.26a14.72,14.72,0,0,0-2,.08c-1.21.13-2.42.31-3.63.42a4.75,4.75,0,0,1-2,0c-1.57-.58-2.83.36-4.17.87-1.14.44-2.25,1-3.28,1.5,2.32-1.8,5.23-2.39,7.94-3.85-.12.29-.18.43-.25.58s.07.07.12.08a5,5,0,0,0,3.84-.33c.93-.48,1.87-.92,2.83-1.32a15,15,0,0,0-3,1.58l0,.18,1.55-.14c1.09-.11,2.18-.25,3.27-.3a1.11,1.11,0,0,1,.76.46,1,1,0,0,0,1.22.31s0,0,0-.1l-.65-.2v-.15c.65,0,1.31,0,2,0,.48,0,.95,0,1.27-.6.14-.27.66-.33,1-.4a4.66,4.66,0,0,1,1,0c-.83.05-1,.21-1.28,1,0,.12-.3.2-.47.22-.55.06-1.1.09-1.65.13a1.34,1.34,0,0,0-.28.12,4.88,4.88,0,0,0,1.67,2.14c2.1,1.35,4.23,2.64,6.34,4A1.23,1.23,0,0,0,126.9,61a5.05,5.05,0,0,1,1-.65l.2.26a2.26,2.26,0,0,0-.35.17c-1,.67-2,1.39-3,2-1.21.77-1.26,1.19-.16,2.12.52.44,1.1.79,1.6,1.25a1.26,1.26,0,0,1,.33.81c0,1.26,0,2.53,0,3.89l1.82.31a14.39,14.39,0,0,0,4.49.1,5.59,5.59,0,0,0,4.69-3.53,11.33,11.33,0,0,0,.48-2,4.8,4.8,0,0,0,0-.85,1.38,1.38,0,0,1,.6,1.52,11.24,11.24,0,0,1-.48,1.92.88.88,0,0,0,.25,1.07,25.78,25.78,0,0,1,6.36,9.33c.08.2.15.39.22.59a4.39,4.39,0,0,1,.12.57c-1.55-4.3-4.38-7.45-7.49-10.45a4.15,4.15,0,0,1-2.27,2,15.21,15.21,0,0,1-2.8.74,15.78,15.78,0,0,1-5.39-.33,1.52,1.52,0,0,0-1.52.58c-1.87,2-3.78,4-5.68,5.92l-.22.23c-.34.43-.3.66.17.91a.73.73,0,0,0,.3.11c1.7,0,2.92,1.26,4.23,2.22a23.8,23.8,0,0,1,2.42,2.2,4.24,4.24,0,0,1,.72,1.08c.38.71.65.91,1.38.78,1-.17,2-.42,3-.6,3.08-.57,6.17-1.08,9.23-1.71,1.28-.27,2.51-.81,3.77-1.2.18-.06.5,0,.57.08.16.29.23.69-.16.87a12.49,12.49,0,0,1-2.41,1c-3.86.81-7.74,1.55-11.61,2.3-.61.11-1.24.15-1.86.24a3.71,3.71,0,0,0-2.62,1.83,19.24,19.24,0,0,1-4,4.63,3.3,3.3,0,0,0-.58.78c-.32.49-.59,1-.92,1.49s-.28.62.14.84,1,.45,1.53.71c1,.51,2,1.12,3,1.55a5.15,5.15,0,0,0,2.1.45,6,6,0,0,1,3.75.79,1.45,1.45,0,0,0,1.5-.06c.89-.44,1.8-.87,2.7-1.29A5.29,5.29,0,0,0,138.46,97c.1-.15.35-.18.62-.31a2.44,2.44,0,0,1-1.18,1.7c-.66.33-1.35.58-2,.94-.88.47-1.74,1-2.58,1.54a1.54,1.54,0,0,0-.34,1.88c.45.79.92,1.57,1.35,2.37a.6.6,0,0,0,.85.29l6.42-2.56c.45-.18.89-.39,1.33-.59l.06.17-1.74.84c-.29.13-.58.24-.86.4-.64.38-1.29.77-1.19,1.78a1.45,1.45,0,0,1-.21.7c0-.4,0-.8.07-1.19s-.14-.49-.45-.39l-4.44,1.37.14.8c.08.43.15.87.24,1.29a1.56,1.56,0,0,1-.55,1.69,16.77,16.77,0,0,0-2.2,2.72,4.7,4.7,0,0,0-.37,1.29,1.83,1.83,0,0,1,.54.11.71.71,0,0,1,.36.34c.2.73.56,1,1.23.7l.29-.14.25.61c-.1,0-.19.11-.28.1-.57-.05-1.14-.11-1.7-.18-.26,0-.47-.09-.39-.5,0-.11-.26-.44-.38-.42a2.17,2.17,0,0,0-1.12.34c-1,.82-1.93,1.71-2.95,2.64l.73.2s0,.08,0,.08c-1.39-.22-2.2.92-3.17,1.65-.19.14-.36.3-.53.45.21-.74.8-1,1.3-1.49l4.23-3.77a2.28,2.28,0,0,0,.37-.39.6.6,0,0,0-.16-1,3.17,3.17,0,0,1-.34-.39c-.16-.17-.35-.46-.52-.45a17,17,0,0,0-3,.23,21.34,21.34,0,0,0-2.83,1,13.56,13.56,0,0,0-4.52,2.85c-.71.68-.7,1.1-.07,1.8a2.23,2.23,0,0,1,.63,1,1.58,1.58,0,0,0,2,1.52c.07,0,.14,0,.21,0A3.42,3.42,0,0,0,124.28,119.63Zm5.2-19a1.09,1.09,0,0,1,0-.15,1,1,0,0,1,.07-.15c.32-.5.29-.66-.25-.7a2.3,2.3,0,0,0-1.31.12,5.6,5.6,0,0,1-3.09.45,4.69,4.69,0,0,0-2,.25c-1.17.55-2.27,1.28-3.39,2-.33.19-.64.4-1,.6l-.08-.18,5-3.2a9.6,9.6,0,0,0-1.09-.68c-2.45-1.06-4.9-2.1-7.35-3.14s-4.86-1.89-7.21-3a16.07,16.07,0,0,0-6-1.66,7.12,7.12,0,0,1-4.13-1.65.85.85,0,0,0-.5-.23c-1.2.16-2.4.33-3.59.54-.57.1-.68.4-.42,1,.37.84.71,1.69,1.13,2.5a9.61,9.61,0,0,0,1.42,2.35,47,47,0,0,0,3.79,3.27c.12.1.46,0,.64-.12q1.8-1.23,3.58-2.51c.32-.23.56-.22.76.16a5.5,5.5,0,0,0-.93.5,29.26,29.26,0,0,0-7.83,9c-.14.28-.39.49-.54.76a1.26,1.26,0,0,0-.2.71A35,35,0,0,0,97,114.29a1.11,1.11,0,0,0,.78.74c2.19.66,4.37,1.41,6.58,2a31.84,31.84,0,0,0,4.13.72c2,.26,3.94.46,5.91.67a1.29,1.29,0,0,0,.76-.08,14.56,14.56,0,0,0,2.61-1.93,11.39,11.39,0,0,1,4.92-3.16,16.37,16.37,0,0,0,2.29-.7,5.11,5.11,0,0,1,2.34-.57,9.32,9.32,0,0,0,1.4,0,1.52,1.52,0,0,0,.77-.36,2,2,0,0,1,1.34-.65.67.67,0,0,0,.37-.15c.59-.5,1.17-1,1.74-1.54a.88.88,0,0,0,.21-1.16c-.45-.88-1-1.74-1.33-2.65-.57-1.36-1.63-2.64-.74-4.35ZM94.67,83.86l0-.14c1,.5,2,1,3,1.51a2.08,2.08,0,0,0,1.94.07c4.77-2,9.55-4,14.32-6,2.87-1.21,5.8-2.29,8.15-4.63a7.55,7.55,0,0,0,.53-.7,2.72,2.72,0,0,0-.8-.4c-2.69-.34-5.39-.66-8.08-1a123.61,123.61,0,0,0-12.47-.43,1.26,1.26,0,0,0-1.22.78A7.38,7.38,0,0,1,97.25,76a28.11,28.11,0,0,0-2.66,2,2.8,2.8,0,0,0-1.14,2c0,.12-.12.23-.18.34l-.17-.07c.13-.46.22-.94.38-1.38.35-1,1.18-1.35,1.85-1.94,1.34-1.19,2.71-2.34,4-3.56a6.61,6.61,0,0,0,.9-1.33c-.12-.09-.14-.13-.17-.13a34,34,0,0,0-6.76-.3c-.75.09-1.51.19-2.26.21s-1.13-.34-1.34-1.14a7.19,7.19,0,0,0-.31-.76,4.12,4.12,0,0,0-1.61,1.65c-1.51,3.05-2,6.42-2.41,9.79a5.79,5.79,0,0,0,.17,2c.13.63.58.7.94.2a10.13,10.13,0,0,0,.6-1.07l.24-.44a7.36,7.36,0,0,1-.55,1.72c-.16.37-.12.59.25.75.66.28,1.31.59,2,.9s.71.45.52,1.17,0,1,.48,1.28a15.73,15.73,0,0,0,2.12.91,2.41,2.41,0,0,0,1.22.08c1.08-.24,2.15-.55,3.22-.84a.87.87,0,0,0,.45-.25c.43-.66.82-1.34,1.26-2Zm23.18,11.87a2.83,2.83,0,0,0,2.05-1c2.25-2.67,4.49-5.36,6.72-8a.75.75,0,0,0-.09-1.14l-1.87-1.8A11.29,11.29,0,0,0,121,81.27a13.7,13.7,0,0,1-3.4-1.8,1.3,1.3,0,0,0-1.4-.15c-2.72,1.11-5.47,2.15-8.18,3.27s-5.58,2.37-8.35,3.59a4.71,4.71,0,0,0-1.37.9,1.41,1.41,0,0,0,.22,2.39,3,3,0,0,0,1,.43q2,.41,3.93.72a14.74,14.74,0,0,1,4.82,1.4,19.7,19.7,0,0,0,2.2,1q2.91,1.16,5.82,2.25A14.59,14.59,0,0,0,117.85,95.73Zm.58,23.14.07-.18c-.25-.38-.49-.78-.76-1.14a.39.39,0,0,0-.4-.12c-.56.37-1.11.77-1.66,1.17l0,.12Zm12.83-7.73a3.53,3.53,0,0,0-.9.38.72.72,0,0,0-.2.61c.17.25.41.57.78.26.17-.16.38-.27.54-.44a3.45,3.45,0,0,0,.29-.5Z"/><path class="cls-9" d="M91.63,103.92,87,102.64a26.37,26.37,0,0,1-2.84-7.48c.14.37.3.73.43,1.1s.27.78.38,1.18a16.34,16.34,0,0,0,1.53,3.74,3.3,3.3,0,0,0,2.12,1.56,27.8,27.8,0,0,1,2.88,1.08A.49.49,0,0,1,91.63,103.92Z"/><path class="cls-9" d="M127,59.77c.43-1,3-1.39,4.4-.83A7.09,7.09,0,0,0,127,59.77Z"/><path class="cls-9" d="M136.59,110.66c-.3.64-.53,1.14-.75,1.65-.15.34-.33.67-.07,1.07.06.09-.07.34-.12.53l-.71-.3C135.6,112.75,135.62,111.47,136.59,110.66Z"/><path class="cls-9" d="M86.64,102.92c.12.73.24,1.46.36,2.13l-.54-.63.12,0c0-.5-.07-1-.1-1.51Z"/><path class="cls-9" d="M87.46,105.91l1.2,2.37-.09.06c-.39-.8-.79-1.59-1.18-2.39Z"/><path class="cls-9" d="M83,91.5c.05.64.11,1.29.16,1.93H83c0-.64-.06-1.28-.08-1.93Z"/><path class="cls-9" d="M110.21,110.22a1.66,1.66,0,0,0,1,1.23c.63.25,1.28.46,1.91.72.39.15.76.36,1.14.55l-.05.23a1.68,1.68,0,0,1-.55,0c-1.17-.42-2.32-.86-3.48-1.3a1.26,1.26,0,0,1-.33-.16c-.47-.29-.49-.56-.07-.94Z"/><path class="cls-9" d="M87.74,81.41c1.43,0,2.79,1.1,4.33.35l.62,1,0,.13-4.92-1.32Z"/></g></g></g><g id="Layer_102" data-name="Layer 102"><g id="Espalda"><rect class="cls-10" width="275" height="259.5"/></g></g></g></g></svg>