<svg xmlns="http://www.w3.org/2000/svg" viewBox="0 0 160 195"><defs><style>.cls-1{isolation:isolate;}.cls-2{fill:#ff0;}.cls-3,.cls-5{fill:none;}.cls-4{fill:#fcd354;}.cls-5{mix-blend-mode:multiply;opacity:0.4;}</style></defs><g class="cls-1"><g id="Layer_2" data-name="Layer 2"><g id="Variacion_A" data-name="Variacion A"><g id="AssetsF1"><g id="HamA1"><path class="cls-2" d="M108.66,103.64c.53-7.39,2.81-12.71,0-18.17s-3.43-2.84-7-7.42S88.22,73.48,85.86,72.3c-1.8-.91-5.8-6.33-7.59-8.84C82.89,55,88.45,50.74,89.59,47.3S89.1,36.88,89,36.46c.09.34,1.19,5.21-3.24,10.4-4.59,5.38-8.64,6.43-11.82,10-2.18,2.46-5.33,10.61-6.63,17.84A13.94,13.94,0,0,0,63,69.45c-4.61-3.25-8.8-5.21-10-7.31s-5.08-5.38-5.08-5.38S49.92,66.18,52.54,68s9.31,4.61,10.85,8.38c.88,2.15,2.66,6.38,4,9.62,1.28,6.79,2.34,14.58.28,17.53-2.31,3.32-10.29,8-13.48,11.59S58,140.2,58,140.2s-5.53-20.64-.26-24.36,11.46-6.58,13.94-9.28,4.65-9.81,4.22-14.13a28.78,28.78,0,0,1,3.72-1.58c3.76-1.29,2.78-2.45,4.87-5.56,1.68-2.5,2.83-6.7,3.22-8.26,4.56,1.15,8.72.11,11.89,4.57,3.55,5,6.58,6.16,6.77,10.46s-2.21,8.73-.86,13.84,7.6,12.24,7.6,12.24S108.13,111,108.66,103.64Zm-30-15.5c-1.34,2.21-2.37,2.55-3,2.42-.74-4.76-2.28-14.27.5-22.46,1.24,1.59,5.5,6.7,9.9,8.4C86.05,76.5,81.11,84.15,78.68,88.14Z"/><path class="cls-3" d="M108.66,103.64c.53-7.39,2.81-12.71,0-18.17s-3.43-2.84-7-7.42S88.22,73.48,85.86,72.3c-1.8-.91-5.8-6.33-7.59-8.84C82.89,55,88.45,50.74,89.59,47.3S89.1,36.88,89,36.46c.09.34,1.19,5.21-3.24,10.4-4.59,5.38-8.64,6.43-11.82,10-2.18,2.46-5.33,10.61-6.63,17.84A13.94,13.94,0,0,0,63,69.45c-4.61-3.25-8.8-5.21-10-7.31s-5.08-5.38-5.08-5.38S49.92,66.18,52.54,68s9.31,4.61,10.85,8.38c.88,2.15,2.66,6.38,4,9.62,1.28,6.79,2.34,14.58.28,17.53-2.31,3.32-10.29,8-13.48,11.59S58,140.2,58,140.2s-5.53-20.64-.26-24.36,11.46-6.58,13.94-9.28,4.65-9.81,4.22-14.13a28.78,28.78,0,0,1,3.72-1.58c3.76-1.29,2.78-2.45,4.87-5.56,1.68-2.5,2.83-6.7,3.22-8.26,4.56,1.15,8.72.11,11.89,4.57,3.55,5,6.58,6.16,6.77,10.46s-2.21,8.73-.86,13.84,7.6,12.24,7.6,12.24S108.13,111,108.66,103.64Zm-30-15.5c-1.34,2.21-2.37,2.55-3,2.42-.74-4.76-2.28-14.27.5-22.46,1.24,1.59,5.5,6.7,9.9,8.4C86.05,76.5,81.11,84.15,78.68,88.14Z"/><path class="cls-4" d="M78.46,88a.06.06,0,0,0,.11,0l-.08-.12Z"/><path class="cls-4" d="M78.94,87.69c0-.12,0-.26-.18-.28.06.15,0,.14.08.3s-.11.09-.14.05-.09.09,0,.17a.27.27,0,0,0,.21-.3S78.93,87.67,78.94,87.69Z"/><path class="cls-4" d="M83.19,81.36l0,0S83.18,81.38,83.19,81.36Z"/><path class="cls-4" d="M85.77,77.42a.07.07,0,0,0,0,.06S85.78,77.42,85.77,77.42Z"/><path class="cls-4" d="M86.54,76.48l-.06.07A.15.15,0,0,0,86.54,76.48Z"/><path class="cls-4" d="M83.19,81.36l.1-.08S83.23,81.32,83.19,81.36Z"/><path class="cls-4" d="M79.23,86.63a.11.11,0,0,0,0,.08l0-.06Z"/><path class="cls-4" d="M82.17,83.18l0,0s0,0,0,.05Z"/><path class="cls-4" d="M81.33,84.53s-.06-.09-.1-.13a.12.12,0,0,1,0,.11Z"/><path class="cls-4" d="M79.81,86.57v0Z"/><path class="cls-4" d="M82.8,82.22h0Z"/><path class="cls-4" d="M77.2,89.27h0S77.21,89.26,77.2,89.27Z"/><polygon class="cls-4" points="78.71 88.15 78.7 88.18 78.75 88.22 78.71 88.15"/><path class="cls-4" d="M85.07,75.44h0S85.09,75.45,85.07,75.44Z"/><path class="cls-4" d="M75.19,69.68c.14-.13.07.28.23.08C75.37,69.77,75.3,69.51,75.19,69.68Z"/><path class="cls-4" d="M79.27,86.6l0,0A.09.09,0,0,0,79.27,86.6Z"/><polygon class="cls-4" points="75.42 69.76 75.42 69.76 75.44 69.74 75.42 69.76"/><path class="cls-4" d="M82.28,73.69v.06S82.29,73.72,82.28,73.69Z"/><path class="cls-4" d="M84.23,75.23l0,0Z"/><path class="cls-4" d="M81.19,73s0,0-.06-.07v0S81.17,72.94,81.19,73Z"/><polygon class="cls-4" points="80.19 72.07 80.19 72.11 80.23 72.13 80.19 72.07"/><path class="cls-4" d="M75.83,88.6a.32.32,0,0,1-.09.08C75.82,88.65,75.87,88.84,75.83,88.6Z"/><path class="cls-4" d="M79.29,86.66s0,0,0-.06l0,.05S79.27,86.67,79.29,86.66Z"/><path class="cls-4" d="M80.56,73.61l-.15-.16A1.1,1.1,0,0,0,80.56,73.61Z"/><path class="cls-4" d="M75,78.91v0S75,78.93,75,78.91Z"/><path class="cls-4" d="M79.91,73a.33.33,0,0,0,0-.15h0Z"/><path class="cls-4" d="M75.74,88.68Z"/><path class="cls-4" d="M76.19,89.88l-.22.05c-.08-.2.09-.12.15-.21s-.21-.24-.22-.35,0,0,.06,0c-.14-.14-.08-.47-.25-.64l0,0a.41.41,0,0,1-.2.06c0-.09-.12-.16,0-.2s0,0,.08.07l0-.09c.12-.1.06.13.17.11-.08-.18-.22-.38-.2-.53s.09.33.18.12l0,.23c.19-.2,0,.14.21,0,0-.3-.11-.32-.11-.61-.09-.06-.11,0-.2,0-.19-.4.29-.37.08-.65-.1-.07-.28-.08-.22-.31l.17.06c0-.29-.24-.14-.18-.44.07,0,.08.21.09.17.1-.21-.1-.13-.12-.28l.13,0c-.06-.3-.19-.62-.25-1,0,0,.09.06.12,0a3.4,3.4,0,0,1,0-1.31l-.14-.15s0-.07.08,0c0-.16-.08,0-.13-.07s0-.13.09-.08a1.84,1.84,0,0,1-.17-1.08l0,.06c0-.24-.26-.25-.16-.47l0,0A5.18,5.18,0,0,1,75,80.78c-.17-.06.06-.49-.17-.52a1.9,1.9,0,0,0,.23-.61c0-.1-.16-.15-.18-.29H75l-.13-.18.14-.09L75,79c0,.05,0,.11-.09.1a.53.53,0,0,1,.16-.48l-.1-.46c.05,0,.07.09.1.15-.13-.24.13,0,0-.27,0,0-.08,0-.1,0a1,1,0,0,0,0-.55l.09,0c0-.34,0-.72,0-1.1,0,.14-.19.1-.2,0l.13,0c-.07-.08,0,.11-.14,0s.15-.09.19,0l0-.17s.06,0,.11.05.15-.29,0-.4h0c0-.38,0-.55,0-.86-.11,0-.08-.14-.16-.24a4.53,4.53,0,0,0,.2-.73c0-.2-.08-.07-.14-.17.11,0,.13-.27.19-.12a4.59,4.59,0,0,0,0-.84c-.05,0-.08.08-.11,0s.08-.16.12-.14v0c-.06-.49.49-1,.35-1.41v-.38c.06-.17,0,.12.14,0-.07-.44.18-.63.15-1,.19-.15.2-.2.21-.29s0-.26.09-.17l0-.1c0-.14,0,0,0,0s0-.07-.06-.15a.88.88,0,0,1,0-.2.89.89,0,0,1,.15.29s.12.22.2.35l.31.43c.18.24.39-.11.51.28h-.17c.52.35.84.93,1.35,1.26,0,0-.07,0-.11,0,0,.16.32.34.37.28s0,.07,0,.14.31.13.3.25,0,0-.07,0,.26.28.28.15c.13.19.35.25.43.42.17,0,.24.31.39.2-.14.13.2.38.36.4-.07,0,0,.13,0,.15.13.1.26.18.3.09.08.36.57.24.53.57.43.23.83.44,1.2.66-.12.14-.39-.27-.49-.11.37.2.66.2,1,.47.07.08-.09,0-.14,0a7,7,0,0,0,1,.56s-.06,0-.1,0,.14.11.17,0l-.07,0c0-.16.37-.06.41-.12-.22.15.29.22,0,.39.06,0,.13,0,.14,0s.06.09,0,.11c.25.08.21,0,.42.07,0,0-.07,0-.11.06a.55.55,0,0,1,.39.06s0,0,0,0a2.27,2.27,0,0,0,.34,0l.2,0,.09,0-.07.08c-.2,0-.12.08-.31.1a.13.13,0,0,1,0,.06l.11,0c-.06.08,0,.16-.11.28,0,0,0-.1,0-.13l-.15.28.15-.13c0,.19.17.09,0,.26,0-.05-.09.15-.22.18h0a.35.35,0,0,1-.11.29s-.12-.11-.16-.11-.19.36-.13.52a.16.16,0,0,0-.09-.09l0,.12c-.07,0-.09,0-.14,0-.14.2.2,0,0,.24a.15.15,0,0,1,0-.07c-.19.22-.24.5-.43.7-.16,0,.1-.22-.06-.21a8.43,8.43,0,0,1-.49,1l.05,0c.15.16-.24.18-.25.39,0,0-.07-.12-.06-.09a3,3,0,0,0-.37.82L83,81a3.57,3.57,0,0,0-.34.43c0,.07,0,.15.06.14-.53.25-.36.88-.82,1.12,0,0,0-.13,0-.1l-.16.34c.09,0,.07,0,.18,0a.36.36,0,0,1,0,.26c0-.17-.13-.08-.21,0s0,0,.07,0c-.24.08.14.13-.1.29l0,0a1,1,0,0,1-.09.3c-.12,0,0-.12-.06-.17-.08.13,0,.36-.15.42a1.8,1.8,0,0,0,.06-.22c-.18.06-.16.09-.24.17h0l-.19.19L81,84c.13.31-.16.35-.14.66,0-.3-.07-.08-.16-.16s-.15.1-.16.06c0,.15-.18.13-.14.34,0,0-.08.11-.15,0,0,.14.08,0,.12,0,0,.27-.44.39-.47.78s0,.41-.11.67c-.1.05-.08-.13-.08-.13a.53.53,0,0,0-.22.34s0,0-.11,0,.08.14,0,.24a.48.48,0,0,1-.07-.18c0,.13,0,.28-.1.42s0-.13,0-.19c-.06.14-.17.37-.1.47l.09-.07s-.1,0-.09-.07a.13.13,0,0,1,.17-.13l0,.1c.25,0,.18-.35.3-.52l.09.16v-.24c.06,0,.15,0,.12.1.15-.08,0-.14.16-.19s0,0,0,0l0-.15s.11,0,0,.11c.22-.17.11-.41.27-.43v0c.13-.33-.09-.09-.07-.39h.35l-.09-.09s.07-.09.11,0c0-.16-.06,0-.09-.12.19-.08.21-.43.4-.36,0-.1-.15.11-.11-.08.21.06.09-.2.25-.29.07.1-.06.2.11.12-.11-.18.2-.24.24-.37-.12-.09.1-.28.18-.49,0,0,.29-.32.45-.47v0c-.1-.11,0-.28.1-.42a.16.16,0,0,1,.07.18l.08-.12a.24.24,0,0,1,0-.2l.07.09c.1-.17.1-.4.3-.57-.08-.07-.35,0-.27-.24,0,0,.14.06.12.13s0-.09,0-.12l0,.14c.1-.08,0-.09,0-.17s.08,0,.13,0-.07,0-.07.1a.53.53,0,0,1,.25-.17.08.08,0,0,1-.06-.12c.1-.17.12,0,.21-.08s.1-.15,0-.21.08,0,.12,0,.24-.41.07-.38l0,0v0h0c.07-.34.42-.54.55-.85l0,0c.06-.19.21-.38.21-.54s.13-.08.16,0c.06-.15,0-.18.2-.33,0,.16.08,0,0,.16.13-.15.21-.15.23-.39,0,.12.18,0,.21-.15l-.14.08a1.11,1.11,0,0,1,.16-.24l.09.11c.35-.25.15-.76.54-.87,0-.14-.17.15-.21,0,.11-.14.37-.2.4-.25.2-.17,0-.3.15-.5-.06,0-.18,0-.12-.23s.29-.08.26,0,0,0-.06,0,0,.14,0,.1l0,0c.08-.05.22-.28.26-.19.09-.23,0-.11-.12,0a9,9,0,0,0,.56-.79c-.06.06-.16.11-.13.06a1.15,1.15,0,0,0,.15-.23s-.06,0-.08,0a.74.74,0,0,1-.3,0c-.08-.11.27-.07-.11-.17-.15-.12.07-.1.21-.09-.4-.07-.56-.31-.76-.41l.2,0a.89.89,0,0,1-.25-.09v.12s-.1-.07-.08-.11,0,.17-.18.18-.26-.08-.23-.2c.23.16,0-.13.25,0a.28.28,0,0,1-.15-.08s0,0,0,0c-.18-.22-.17.07-.42-.06.07,0,0-.14,0-.15s0,.13-.13.12-.19-.07-.26-.12l.07.08c-.06,0-.13,0-.25-.06s.11,0,.09,0c-.19,0-.2-.27-.41-.3,0-.09.07-.12,0-.19-.23,0-.14-.21-.37-.27,0,.11,0,.1-.16.09l.35.15-.28,0c.09.06.23.08.28.14-.14,0-.12,0-.12.08,0-.21-.3-.11-.39-.29l.14-.19c-.16-.23-.46-.18-.7-.44l.06.1c-.09,0-.18-.11-.29-.15.06-.06,0-.12,0-.19s-.19-.17-.32-.07l0-.18c-.19-.21-.4,0-.59-.22.12,0,.06-.14.24-.07-.07-.06-.12-.12-.16-.08s-.26-.08-.27-.2-.12.06-.19,0,0,0,0,0-.16-.07-.15.06c0-.37-.59-.53-.63-.84a4.84,4.84,0,0,1-.48-.4s0,0,0,0c-.12-.23-.27,0-.41-.21s.15.06.12,0c.16-.21-.26-.22-.29-.46l0,0c0-.16-.32-.18-.47-.37a.07.07,0,0,0,0,0,1.62,1.62,0,0,1-.64-.37c.13,0,.11,0,.16-.06s-.1.14-.26,0c0-.09-.07-.23,0-.32l.14.14c0-.17-.18-.18-.22-.27l.05,0c-.21-.21-.33-.11-.53-.36l0,.06c-.23,0,0-.17-.23-.23l.09-.14-.25-.15a2.24,2.24,0,0,1-.32-.26c.12,0,.43.25.55.29,0-.05-.34-.39-.43-.38s.13.07.15.14a1,1,0,0,1-.53-.37c.05-.28-.23-.56-.47-.9,0,.1-.1.18-.16.12a3.83,3.83,0,0,1-.25.91,8.09,8.09,0,0,0-.34.93c.29-.15,0,.2.2.22,0,.11,0,.15,0,.16l-.22.29c-.08.06,0-.12-.08-.12-.08.23-.12.07-.23.22.1,0,.11.11,0,.24l.16-.17c0,.36-.27.24-.23.61l0-.13c0,.18-.15.64,0,.85,0,0-.1,0-.11,0-.1.42,0,1-.14,1.27l0-.05c0,.09.09.16,0,.25s-.06,0-.07,0a.47.47,0,0,1,0,.32l-.05-.1c-.14.4.08.65.07,1-.18,0-.27.3-.31.46h0a5.94,5.94,0,0,0,.11,1.27c-.21.26-.13.92-.26,1.35,0-.06.14,0,.15.1s.11.29,0,.27v0c-.16.07-.12.29-.12.45l.21,0c-.31.43.09,1.14-.17,1.37a3.38,3.38,0,0,0,.11.34h-.12a4.15,4.15,0,0,0,0,.79L74,80.5c0,.2.34.24.35.43l-.17.06c0,.35-.11.72.06,1.06,0,0-.07,0-.08-.07,0,.16-.07.65.15.57-.15,0,0,.36.09.55l-.11,0c.15.15.19.15.25.37,0,0-.09,0-.07,0,0,.18.12.13.08.34l-.08-.07c0,.18,0,.17.14.26s0,.34-.09.38a.21.21,0,0,1,.13.22s-.06,0-.08,0c0,.31.17.44.09.65a.08.08,0,0,0-.06,0,2.17,2.17,0,0,1,0-.42c-.1,0-.1.21-.26.07.09.15.29.39.27.59l0,0v0a.27.27,0,0,0,0,.12.43.43,0,0,0,0,.16c-.08,0,0,.22,0,.32s.11.11.19,0,0,0,0-.08,0,0,0,0h0l0-.24a.21.21,0,0,1,.07.26l.2.11c-.14.16-.19.42-.28.47.1.28.13.68.36.84,0,.08,0,.11-.08.14s0-.1-.06-.12c.07.16.09.49.24.51,0,.22-.15-.1-.09.18l0,0c-.15.6.51.87.31,1.54,0,0,0-.07,0-.08a2.74,2.74,0,0,0,0,.56,3,3,0,0,0,.18.69,2.41,2.41,0,0,0,.71,0c.25,0,.45-.11.65-.15s.18-.18.24-.31l.11.07a1.52,1.52,0,0,0,.09-.25c.16-.27.61-.17.72-.6h-.09c.1-.1.24-.38.3-.3s0-.09,0-.11l.06,0,.11-.35c.18-.19.18.18.41-.14.06-.13.06-.44,0-.42s-.12.11-.17.08l0-.13c-.15-.12-.26-.3-.53-.11l0,.24H78l.1-.15c-.13,0-.1.13-.1.22a.15.15,0,0,0-.13,0l0,.27c-.08,0-.07-.16-.18-.07s.19,0,.14.18-.17,0-.18.1-.06,0,0-.1c0,.12-.15.23-.11.34-.14,0-.21.28-.33.15a.44.44,0,0,1-.09.29c0-.26-.26.23-.37,0,0,.22-.28.32-.41.48,0,0,0,0,0,0s-.15,0-.16,0c0,.15,0,.21-.14.32,0-.16.1-.2.11-.36,0,.14-.11.14-.16.25,0-.1,0-.05.08-.19-.17.18,0,0-.15.06.08-.12.17-.11.11-.13S76.19,89.89,76.19,89.88Zm-1-4.55h0l0,.1Zm0-.4,0,.17s-.08,0-.08,0S75.16,85,75.18,84.93Zm-.68.94c0-.06,0-.09,0-.1l0,.11h0Z"/><path class="cls-4" d="M74.66,86v0l0,0,0,0Z"/><path class="cls-4" d="M83.14,81.4h0Z"/><polygon class="cls-4" points="75.07 79.36 75.04 79.36 75.07 79.39 75.07 79.36"/><path class="cls-4" d="M81.62,83.09h0Z"/><path class="cls-4" d="M81.08,83.89,81,84A.57.57,0,0,0,81.08,83.89Z"/><path class="cls-4" d="M80.64,84.49l0,0h0Z"/><path class="cls-4" d="M83.88,75.9h0C83.79,75.88,83.83,75.89,83.88,75.9Z"/><path class="cls-4" d="M85.18,77.54s0-.08,0-.12S85.13,77.51,85.18,77.54Z"/><polygon class="cls-4" points="80.58 73.63 80.58 73.63 80.56 73.61 80.58 73.63"/><path class="cls-4" d="M85.29,77.28a.24.24,0,0,0-.09.14A.34.34,0,0,0,85.29,77.28Z"/><path class="cls-4" d="M78.87,87.19l0,0s0,0,0,0Z"/><path class="cls-4" d="M78.86,87.23v0S78.87,87.24,78.86,87.23Z"/><path class="cls-4" d="M78.83,87.35l0-.08S78.81,87.32,78.83,87.35Z"/><path class="cls-4" d="M79.44,86.38l0,0S79.42,86.37,79.44,86.38Z"/><path class="cls-4" d="M79.59,86.12c0,.06-.17.11-.2.21l0,0C79.39,86.28,79.61,86.22,79.59,86.12Z"/><path class="cls-4" d="M80.69,85.33l-.16.2c.06,0,.14,0,.08.07C80.89,85.4,80.5,85.6,80.69,85.33Z"/><path class="cls-4" d="M81.16,84.71c-.06.12,0,0,.07.05S81.24,84.65,81.16,84.71Z"/><path class="cls-4" d="M84.15,80l.08.07C84.28,79.94,84.2,80,84.15,80Z"/><polygon class="cls-4" points="84.28 78.78 84.17 78.83 84.23 78.92 84.28 78.78"/><polygon class="cls-4" points="85.23 78.64 85.22 78.68 85.28 78.52 85.23 78.64"/><path class="cls-4" d="M80.43,72.16l-.06.12C80.43,72.31,80.54,72.21,80.43,72.16Z"/><path class="cls-4" d="M77.55,69.34c0-.07,0-.19-.11-.2S77.51,69.32,77.55,69.34Z"/><polygon class="cls-4" points="74.07 78.28 74.03 78.19 74.06 78.35 74.07 78.28"/><path class="cls-4" d="M108.92,103.66c0-.21-.11-.1-.11.49l.13.41Z"/><path class="cls-4" d="M108.88,107.6c.18.67.46,1.42.49,1-.26-.64-.25-.81-.49-1.51s-.07-1,0-.93c0-.21,0-.91-.11-1.22a8,8,0,0,0,.21,2.73C109,107.85,108.91,107.64,108.88,107.6Z"/><path class="cls-4" d="M95.78,78.35l.35.16A2.36,2.36,0,0,0,95.78,78.35Z"/><path class="cls-4" d="M74.87,99.21a1.13,1.13,0,0,0,.07-.39A2.37,2.37,0,0,0,74.87,99.21Z"/><path class="cls-4" d="M72.51,104.72l.19-.29A2,2,0,0,0,72.51,104.72Z"/><path class="cls-4" d="M95.78,78.35c-.3-.12-.6-.24-.91-.34A6.9,6.9,0,0,0,95.78,78.35Z"/><path class="cls-4" d="M111.69,115c-.1-.17-.18-.32-.26-.44l.22.42Z"/><polygon class="cls-4" points="106.33 90 106.41 90.29 106.53 90.52 106.33 90"/><path class="cls-4" d="M105.44,102.06a.74.74,0,0,0-.13-.48,2.58,2.58,0,0,1,0,.6S105.41,102.15,105.44,102.06Z"/><path class="cls-4" d="M112.61,117.54l-.2-.28Z"/><path class="cls-4" d="M101.11,83a.3.3,0,0,0,0-.11S101.08,83,101.11,83Z"/><path class="cls-4" d="M110.46,89.66h0C110.46,89.73,110.47,89.75,110.46,89.66Z"/><path class="cls-4" d="M108.63,103.64v-.19s0,0-.06,0Z"/><path class="cls-4" d="M63.91,111.29l0,0C64.2,111.11,64.06,111.2,63.91,111.29Z"/><path class="cls-4" d="M64.66,78.2c.36,1.11-.85-1.69-.28,0C64.36,78,65.16,79.56,64.66,78.2Z"/><path class="cls-4" d="M111.81,115.24l.23.44Z"/><path class="cls-4" d="M64.38,78.16h0l.06.17Z"/><path class="cls-4" d="M56,133.38a2,2,0,0,0,0-.27S56,133.18,56,133.38Z"/><path class="cls-4" d="M58.45,115l-.4.25Z"/><path class="cls-4" d="M57.48,137.36a5.78,5.78,0,0,0-.18-.67v.11A3,3,0,0,1,57.48,137.36Z"/><path class="cls-4" d="M54.89,127.36l0,.19.07.32Z"/><path class="cls-4" d="M86.44,72a3.68,3.68,0,0,1,.4.23C86.72,72.12,88.1,72.49,86.44,72Z"/><path class="cls-4" d="M111.63,115a.69.69,0,0,1,.18.25l-.16-.3S111.61,114.92,111.63,115Z"/><path class="cls-4" d="M56.51,137.21l-.44-1.59Z"/><path class="cls-4" d="M71.19,60.64l.15-.35A1.93,1.93,0,0,0,71.19,60.64Z"/><path class="cls-4" d="M54.8,130.88c0-.29-.09-.6-.15-.92a1.71,1.71,0,0,0-.07-.18Z"/><path class="cls-4" d="M86.84,72.25Z"/><path class="cls-4" d="M97.51,74.48c-1.51-.57-.76-.12-1.11-.15-1.82-.54-.81-.36-1.41-.62-1.16-.28-2.08-.33-2.93-.5-.06,0-.23-.08,0-.07-1.24-.14-3.64-.61-5-.81a.66.66,0,0,1-.17-.08c.2.13.22.21.16.25a2.66,2.66,0,0,1-1.39-.56,1.11,1.11,0,0,0,.58.23,2.34,2.34,0,0,1-.62-.29c-.21-.26,0-.09.24.06a1.28,1.28,0,0,0,.65.22,4.51,4.51,0,0,1-1.76-1.1,13.41,13.41,0,0,1-1.36-1.41c-.06-.24,1.76,1.84.86.7a13,13,0,0,0,1.16,1.19c-.41-.5-.22-.33,0-.16s.4.33,0-.11c-.78-.72-1.2-1.18-1.62-1.62a20.45,20.45,0,0,1-1.52-1.79c-.37-.34,0,.2-.36-.14-2-2.42-1.25-2.18-2.77-3.95-.09-.09-.23-.24-.27-.24s-.17-.07-.13-.14a.46.46,0,0,1,0-.13l.16-.3c.12-.24.29-.51.51-.86l-.14.56c1.12-1.83.41-1.18,1.74-3-.17.37-.89,1.44-.69,1.18.91-1.15.49-.92,1.13-1.84l.24-.11C83,57,84.5,55,86.12,53c-.06.13-.3.5.11.06A48.81,48.81,0,0,0,89.31,49a7.36,7.36,0,0,0,1-2.49,13.79,13.79,0,0,0,.26-2.5c0-.41-.09-.82-.16-1.22s0-.52.07-.22c-.06-1.23-.08-.06-.18-.64s0-.93.06-.49c-.2-1.3-.56-3.22-1-5l-.7.17a8.11,8.11,0,0,1,0,3.14v-.43L88.46,41A4.74,4.74,0,0,1,88,42.67l.09-.29a15.46,15.46,0,0,1-3,4.76,21.86,21.86,0,0,1-3.76,3.39c-.3.5-3.06,2.14-3.14,2.46l-1.7,1a16.27,16.27,0,0,0-2.13,1.67A9,9,0,0,0,73,57.59l-.12-.05c-.23.42-.42.85-.61,1.28l-.49.59-.39.88c.17-.35.41-.71.41-.64-.32.67-.71,1.49-1,2.16A9,9,0,0,1,70.12,63c-.4,1.11-.76,2.24-1.1,3.36a8.37,8.37,0,0,1,.27-1.11c-.48,1.83-.24.28-.66,2,.1-.22,0,.14,0,.18a29,29,0,0,0-1.17,4.11l0-.29c-.15.55-.27,1.12-.4,1.7l0,.23L67,73l-.47-.7a15.92,15.92,0,0,0-1.65-2c.73.81.44.72-.18.1l-.16-.33c-.48-.33.64.66-.29-.06s-.48-.61.05-.22c-.36-.29-.74-.56-1.12-.81,0-.08.23.09.33.1a30.27,30.27,0,0,0-2.58-1.73l0-.08c-2.46-1.59-3.65-2.19-5.54-3.56-.1.07-.81-.5-1.34-.92a4.78,4.78,0,0,1-.74-1,9.81,9.81,0,0,0-.84-1.22,21.81,21.81,0,0,0-2.08-2.27l-.54-.46c-.12-.1-.19-.14-.19-.13s.06.13-.31-.17c-.06-.22-2.63-2.41-1.38-1.43l-.79-.67c.19.85.36,1.57.52,2.25l.26,1,.19.67c.24.8.51,1.7,1,3.05-.07-.34-.18-.72-.08-.54a4.22,4.22,0,0,1,.32,1.21L49.26,63c.34.84.71,1.74,1.13,2.66a7.89,7.89,0,0,0,1.78,2.61A32.44,32.44,0,0,0,56.75,71l-.14-.07c.87.46,1.71,1,2.54,1.47,1.08.79-.7-.4.07.22a11.23,11.23,0,0,1,2.94,2.56c.18.22.31.46.47.69l.36.73c.23.55.47,1.1.75,1.7a39.42,39.42,0,0,0,1.71,4.41c.38.87.76,1.76,1.11,2.6l.26.61a1.66,1.66,0,0,1,.08.22l0,.28c.06.4.12.78.15,1.12l0-.17a6.53,6.53,0,0,1,.18,1.37c.05-.08-.06-.77.05-.34a51.62,51.62,0,0,1,1,9.1,15.31,15.31,0,0,1-.56,4.47,8.28,8.28,0,0,1-2.67,3.34c-1.7,1.43-.71,1.12-3.05,2.73l.56-.59c-1.74,1.45-3.63,2.82-5.45,4.28a34,34,0,0,0-2.65,2.31l-.6.64a2.89,2.89,0,0,0-.53.85,5.54,5.54,0,0,0-.39,1.78,2.61,2.61,0,0,1,0-.75,7.77,7.77,0,0,0-.21,2.19,6,6,0,0,0,.16,1.43c0,.71-.06.17-.07.61,0,1,.41,2.37.4,2.88,0,.09-.07-.26-.11-.43.13.61.48,2.85.49,2.25.26,1.67.69,3.14.94,4.46.32.82.64,2.81.89,3-.22-.07.62,2.88,1,3.87-.15-.32.21.9,0,.53.34,1.16.7,2.21.73,2,.07.33.15.66.25,1l1-.28a26.51,26.51,0,0,1-1-4.58,66.58,66.58,0,0,1-1.61-9.94c.15.11.32,3.53.52,3.37a30.67,30.67,0,0,1-.46-7.75c.11-.76,0,.44.06.71a11,11,0,0,1,.84-4.17A3.86,3.86,0,0,1,58,116.21L59.64,115a4.14,4.14,0,0,1-.45.35c.44-.3,1.05-.66,1-.69l-.43.3c-.78.36,1.65-1.36,1.71-1.45-.65.67,2.32-1.35,1.24-.35.29-.19.65-.45.56-.46.45-.25.61-.31.19,0,1.62-1,1-.75,2.49-1.65,0,0-.28.23-.41.37.72-.53,1.44-1,2.7-1.81-.06.06.1,0-.27.24a23.57,23.57,0,0,0,2.79-2.09A11.15,11.15,0,0,0,73.08,105c-.14.4,0,.2.2-.11a3.09,3.09,0,0,1,.51-.77c.2-.47.41-.93.58-1.41-.1.18-.19.36-.3.53.53-1.21.8-2.35,1.16-3.42-.06.32-.14.64-.22,1,.25-.78.45-1.58.63-2.38-.13.44-.25.89-.4,1.33.28-1.3-.21.1.25-1.59,0,.35.28-1.28.45-1.94h0c0-.66.08-1.32.13-2.29.05-.25.16.21.2.05a6,6,0,0,1-.06-.78l0-.45c-.06-.15.09-.19.2-.25.66-.34,1.41-.67,1.75-.88-.23.13-.21.21-.13.19l.46-.29c.57-.19.66-.2.59-.11,1.71-.6-.61,0,1.45-.65a3.34,3.34,0,0,1-.4.2,4.88,4.88,0,0,0,2.64-1.84c.55-.93.83-1.89,1.35-2.72.39-.45-.74,1.54-.33,1a15.48,15.48,0,0,1,1-1.88,14.17,14.17,0,0,0,1-2,43.26,43.26,0,0,0,1.49-4.09l-.17.49a4.16,4.16,0,0,1,.35-1.32c.11-.28.24-.68.32-1,0-.1,0-.27.12-.31a2.08,2.08,0,0,0,.36.06c-.25,0-.25.07-.21.05l.19,0,.34.08.74.13c.5.07,1,.14,1.56.19a29.31,29.31,0,0,1,3.7.5l-.36,0a12.18,12.18,0,0,1,1.89.65,6.9,6.9,0,0,1,1.71,1.1c.32.17.78.67.55.32.61.69,1.07,1.44,1.62,2.17a26.27,26.27,0,0,0,1.72,2A22.18,22.18,0,0,1,105,88.42c-.21-.32-.57-.72-.39-.47a7.48,7.48,0,0,1,1.3,2.38c0-.23,0-.36-.2-.92a5.09,5.09,0,0,1,.61,1.73c-.31-1.23-.11,0-.14.57,0-.09.07.09.1,0,0,.73,0,.79.05.92s.12.33,0,1.32l0-.11a14.76,14.76,0,0,1-.25,2.24c-.16.32.09-.79,0-.86a26.35,26.35,0,0,1-.5,3.25l.25-1.65a15.2,15.2,0,0,0-.5,2l0-.09c-.13.64-.25,1.28-.33,1.93,0-.17,0-.33.09-.49.1,1.44-.22,3,.3,4.85-.45-1.83-.15-.29-.29-.41,0,.5.19,1.25.1,1a11.65,11.65,0,0,0,1,2.67c0,.07.42.89.25.74.59,1-.08-.27,0-.21a36.61,36.61,0,0,0,3.72,5.86c1.34,1.66,1.75,2,3,3.33h0l-.19-.27c-.24-.44.07-.05.28.2l-.17.14-.18-.19.16.21.21-.17-1.44-2.41c.14.17,0,0-.06-.34a8.74,8.74,0,0,1-.81-1.51,7.74,7.74,0,0,1,.5.72,28,28,0,0,1-1.31-2.76c0-.29.31.55.49.88-.48-1.07-1-2.85-1.22-3.19l.15.75c-.11-.42,0-.24.14.06a4.08,4.08,0,0,1,.4,1.46c-.1-.23-.18-.47-.27-.7,0,.81,1.06,2.82,1.75,4.15l-.43-.49c.27.44.54.88.83,1.31.12.31.15.56-.23-.09.45,1,.52.81.92,1.66,0,.09,0,.06,0,0,.15.21.3.43.46.64l.12-.1-.19-.2c.14.12,0-.12.25.15l-.25.2-.11-.17.1.17.27-.21a33.56,33.56,0,0,1-2.25-2.77l.11.12c-1.62-2.07-.26-.12-1.54-1.64-.17-.42-.35-.84-.51-1.26l-.24-.15c-.15-.23-.43-.68-.33-.63-.61-.81,0,.18-.34-.28-.62-1.15-1.8-3.12-1.73-3.48-.28-.39.47,1.16-.18-.08,0-.45-.68-1.47-.8-2.68.18.34.38,1.43.21.26a8.52,8.52,0,0,1-.3-3.25,14.08,14.08,0,0,1,.36-3.84,43.12,43.12,0,0,0,.9-4.7l0,0a26.23,26.23,0,0,0-.32-3.15c.09,0,.18.23.31.88a7.28,7.28,0,0,0-.22-1.13c-.12-.25-.23-.59-.57-1.25a2.18,2.18,0,0,1,.22.21,18.68,18.68,0,0,0-3-3.92c-.15,0,.81,1.31-.6-.13,0-.09,0-.21.39.16a6.74,6.74,0,0,1-.67-.7l.61.54c-.55-.67-.36-.28-.81-.81.06,0-.3-.42-.19-.39s.38.48.57.65A14.09,14.09,0,0,1,101.11,83c0,.08-.08.06-.44-.38-.9-1.16-.23-.46-.71-1.16-.26-.26-.82-1.07-.95-1a2.59,2.59,0,0,1-.42-.57l-.7-.56a9,9,0,0,0-1-.59c-.63-.35-1.12-.46-.73-.25l.18.08-.12,0h0c-2.39-.94-5.15-1.06-7.57-1.51l0,0-.63-.12c-.24,0-.57-.22-.55.16s-.21.85-.32,1.26c-.2.74-.38,1.43-.52,2s-.41,1-.39.76a14,14,0,0,1-1.11,2.66,5.46,5.46,0,0,1,.44-1.08C85,84,84.8,84.19,84,85.58c.2-.53-.72.9-1,1.58.17-.31.35-.61.54-.91-.38.71-.65,1.37-1,2l0-.39a4.49,4.49,0,0,1-1.13,1.58,6.86,6.86,0,0,1-1.6.92c-1.16.47-2.29.94-3.39,1.31-.7.41,1.54-.62.93-.22l-1,.39L76,92c-.18.12-.55.13-.45.4,0,.52,0,.69,0,.92s0,.38,0,.49c-.06.92-.06,1.35-.06,1.8a7.34,7.34,0,0,1-.23,1.88c.09-.24.29-.45,0,1s-.64,1.59-.43.74a2.43,2.43,0,0,1,.14-.45c.09-.44.21-1,0-.49v.18a9.7,9.7,0,0,1-.7,2c-.28,1-.06.44.2-.28a25.85,25.85,0,0,1-1.78,4.18c.15-.24.32-.45.19-.2-.66,1.14-.85,1.35-.92,1.53a2.57,2.57,0,0,1-.68.92c-.79.64.18-.34-1.15.86-.9.65-.26,0,.06-.25a19.82,19.82,0,0,1-3.36,2.22l.72-.5c-.42.3-.79.52-1.16.76l.47-.19A4.2,4.2,0,0,1,66,110c-.42.33.43-.08-.43.54a17,17,0,0,1-2,1.14c1.88-1.08-.27,0,1.29-.95a12.68,12.68,0,0,1-1.12.67c-.07,0,0-.06.17-.14-1.84,1-.75.61-2.59,1.73.19-.2-.5.15-.79.35.74-.45.41-.12-.23.35A18.9,18.9,0,0,0,58.45,115l.7-.44c-.2.21-.78.58-1.55,1.16-.11,0,.7-.53.4-.36a8.08,8.08,0,0,0-1.38,1.29,5.65,5.65,0,0,0-.92,2c-.21.68-.14,0-.32.63A19.6,19.6,0,0,0,55,122.9c.11-.52.07-.6.16.65a20.54,20.54,0,0,1,.09-2.93,16.84,16.84,0,0,0,0,1.88,18.17,18.17,0,0,1,.16-2.38c0,.9,0,.8.08.39a20.66,20.66,0,0,0-.18,3.76l-.23,0a45.46,45.46,0,0,0,.64,6.38l-.08-.87c.14.35.24,1.65.43,2.51-.09-.07,0,.47,0,.85a16.9,16.9,0,0,0,.56,2.15l.14,1.2a34,34,0,0,0,1.09,3.79l.36-.1-.2-.61c.23.48.1-.08.36.55l-.69.21c0-.05-.07-.2-.14-.43l.11.43.75-.22a3,3,0,0,0-.31-.83c-.07-.4-.66-1.82-.77-2.45a4.94,4.94,0,0,1-.43-1.1c0-.08,0,0,0,0s-.38-1.17-.28-.49c-.36-2.12-1.56-5.79-1.73-7.66-.35-1.47-.71-3.26-.92-4.62,0,.08,0,0,.07.25-.18-1.88-.41-1.12-.5-3.28,0-1.1.14,1.14.14.45.24-.3-.24-2.63.3-3.94a1.83,1.83,0,0,0-.07.32,3.79,3.79,0,0,1,.77-1.6,16.21,16.21,0,0,1,1.76-1.76s-.05.08,0,0a42.48,42.48,0,0,1,4.06-3.48c-.37.41-.6.53-.27.41.61-.49-.29,0,.94-1a11.06,11.06,0,0,1,1.56-.92l-1.17.9a17.38,17.38,0,0,0,2.15-1.63l0,.11a19.06,19.06,0,0,0,1.73-1.55c.42-.43.88-.85,1.72-1.75l-.21.15a11.32,11.32,0,0,1,.78-1,1.78,1.78,0,0,0,.28-.38,2.14,2.14,0,0,0,.31-.72l.3-.33a17.06,17.06,0,0,0,.36-4.7,15.06,15.06,0,0,1-.08,3.94,12.53,12.53,0,0,0,.23-3.47,6.31,6.31,0,0,1,0,1.15c-.06-1.09-.13-2.5-.27-4.23.16.14.09-1-.06-2.32s-.38-2.83-.37-3.47c-.14-.76-.29-1.51-.43-2.27l-.1-.57-.06-.29a1.14,1.14,0,0,0-.1-.36c-.15-.36-.29-.73-.44-1.09-.59-1.47-1.2-3-1.9-4.65.27,1.26-.41-1-.55-.66-.33-.77-.45-1.06-.47-1.14-.3-.8-.51-1.57-.88-2.39-.23-.61.44.74.42.63l-.53-1.19a2.23,2.23,0,0,0-.39-.73c.09.27-.5-.47-1.28-1.22a11.06,11.06,0,0,1,1,1.18c-.91-1-1.34-1.33-1.73-1.74a9.15,9.15,0,0,0-2-1.46c.24.13.49.25.73.4a38.22,38.22,0,0,0-5.42-3c-.18-.14-.41-.35.09-.08l-1-.61-.51-.32c-.15-.11-.27-.23-.41-.34a9.24,9.24,0,0,1-1.35-2,21.46,21.46,0,0,1-1.59-4.1l.13.21a10.23,10.23,0,0,1-.56-1.65s.12.2,0-.06l-.31-.93a1.84,1.84,0,0,1-.14-.5,2.33,2.33,0,0,0,.13.27,1.55,1.55,0,0,0-.06-.31l.25.17.07.05a.75.75,0,0,1,.14.11l.52.44a20.77,20.77,0,0,1,2,2c-.08,0,.28.54.63,1.15a5.52,5.52,0,0,0,.7,1.06,7.9,7.9,0,0,0,.8.82h0a28.08,28.08,0,0,0,4,2.72c1.28.76,2.54,1.48,3.93,2.37a21.66,21.66,0,0,1,2.56,2.21A13.35,13.35,0,0,1,65.72,73l.3.46c.15.23.34.58.5.86.33.65.66,1.3,1,1.93q.21-1,.42-2c.07-.33.13-.67.21-1l.14-.55c-.14.48-.12-.11,0-.68.21-.75.4-2.1.53-1.94l-.08.26a31.06,31.06,0,0,0,1.08-3.22l-.14-.26c.64-1.49,1.33-3.49,2.09-5.27a13.31,13.31,0,0,1,2.2-3.9,12.64,12.64,0,0,1,1.62-1.84l0,.12c1.62-1.37,2.57-1.89,4.76-3.49l-.41.39a30.77,30.77,0,0,0,2.47-2.29l.43-.15a29.67,29.67,0,0,0,2.91-2.81,13,13,0,0,0,2.3-3.35c0,.05,0,.15-.21.53a13.34,13.34,0,0,0,1.22-2.65c.33-1,.42-1.81.27-1.59a3.83,3.83,0,0,0,.25-1.5,9.11,9.11,0,0,0-.28-2.64l-.68.17,0,.15-.11-.13.82-.21,0,.07,0-.07-.87.22a12.93,12.93,0,0,1,.77,2.73c0,.4,0,.36-.09-.16.15,1.31.28,1,.4,2.6l-.13-.59a15.34,15.34,0,0,0,.27,2,7.57,7.57,0,0,1-.22,2.74,3.42,3.42,0,0,1-.3,1.65c-.07.08,0-.19,0-.32a12.71,12.71,0,0,1-1.26,2.34,12.22,12.22,0,0,1-1.35,1.75s-.12.07-.21.16c1.15-1.4,2-2.58,1.88-2.47-.07,0-.93,1.1-.38.1a27.2,27.2,0,0,1-2.67,3.71l-.15.13.08-.12a8.24,8.24,0,0,0-.56.71c-.3.34-.5.55-.78.9a16.9,16.9,0,0,0-1.54,1.88c.12,0-.47.78.15.11-.08.09.07-.12.37-.51l.18-.25,0,0c.29-.38.69-.87,1.13-1.43A11.18,11.18,0,0,1,83,55.84l-.48.93c-.73.7-1.93,2.24-2.15,2.42-.6,1-1.3,2.08-1.88,3.16l-.49.9-.08.15s0,.09,0,.13l.2.26.3.38a13.11,13.11,0,0,0,.87,1,3.16,3.16,0,0,1,.51.83c-.24-.28-.5-.63-.64-.78a28.45,28.45,0,0,0,2.62,3.14c1,1.29-.69-.61.74,1.08l-.23-.2a17.52,17.52,0,0,0,2,2.28,6.7,6.7,0,0,0,1.14.89,4.32,4.32,0,0,0,1.37.48c1.82.37,3.69.5,6,1.16a3.1,3.1,0,0,1-.54-.17A22.64,22.64,0,0,1,100,76.74l.8.64.7.75c.44.54.89,1.09,1.38,1.6a10.52,10.52,0,0,0,1.62,1.36,11.46,11.46,0,0,1,1.62,1.18,12,12,0,0,1,1,1.09,10.69,10.69,0,0,1,.67.84l.07.34c.29.44.61.88.86,1.34a8.13,8.13,0,0,1,.88,3,35,35,0,0,1,.19,3.57l.1-.37a16.18,16.18,0,0,1-.31,3.07,2.22,2.22,0,0,1-.06.74l-.07,0-.26,2.52c-.33,2-.22-.35-.62,2.51a11.67,11.67,0,0,0,0,2.66,4.5,4.5,0,0,1,.2-1.12l0,1c.17.19.29.94.64-1.41l.09-1.66.16-.52-.18,1.39a10,10,0,0,0,.21-1.85,3.43,3.43,0,0,0,.2-.68l.06-1.65c.11-.18,0,.76.24-.33,0-.77-.27.71-.14-.56a4.35,4.35,0,0,0,.28-1.49c.06-.13.07.08,0,.45a19.3,19.3,0,0,0,.12-2.67,9.65,9.65,0,0,0,0-1.75c0-.6-.08-1.09,0-1.06-.06-.27-.37-1.48-.6-2.24.28.68.12,0-.19-.88s-.78-1.72-.59-1.59c-.34-.42-.79-1.26-1.44-2.13a8,8,0,0,0-1.17-1.24,10.36,10.36,0,0,0-1.32-.83,2.11,2.11,0,0,1,.41.22A7.22,7.22,0,0,1,104,79.78c-.21.08-1.35-1-1.94-1.63-.68-1.07.63.47.49.07,0,.06-.36-.32-.76-.71s-.74-.71-.62-.51a10.93,10.93,0,0,1-1-1c-.27.08-.8-.51-1.61-.75-1.27-.69-.26-.34-1.75-.87C96.16,74.07,97.52,74.46,97.51,74.48ZM86.1,52.94h0l-.48.59ZM88,50.53l-.83,1c-.1.06-.06,0,.14-.29A5.85,5.85,0,0,0,88,50.53Zm-4.71,4.58a2.72,2.72,0,0,1,.47-.55l-.52.68,0,0A.52.52,0,0,1,83.32,55.11Z"/><path class="cls-4" d="M82.89,55.89l-.12.17.2-.22.08-.16Z"/><path class="cls-4" d="M96.19,78.54l-.06,0,.12.07Z"/><polygon class="cls-4" points="72.8 57.53 72.83 57.54 72.97 57.3 72.8 57.53"/><path class="cls-4" d="M106.14,91.71s0,.09,0,.22A1,1,0,0,0,106.14,91.71Z"/><path class="cls-4" d="M105.24,98.9c-.07.34-.14.68-.2,1C105.13,99.48,105.19,99.15,105.24,98.9Z"/><path class="cls-4" d="M105,104.58a.29.29,0,0,0,.07.11v0Z"/><path class="cls-4" d="M59.19,115.38l-.18.13C58.61,115.81,58.88,115.61,59.19,115.38Z"/><path class="cls-4" d="M75.94,96.17l-.08.86C75.94,96.56,76,96.19,75.94,96.17Z"/><path class="cls-4" d="M56.56,137.38h0l-.06-.18Z"/><path class="cls-4" d="M75.6,98.26A11,11,0,0,0,75.86,97Z"/><path class="cls-4" d="M109.85,110.36c0-.09,0-.17-.07-.26s0,0,0,0S109.82,110.26,109.85,110.36Z"/><path class="cls-4" d="M109.76,110.07l-.09-.28A.89.89,0,0,0,109.76,110.07Z"/><path class="cls-4" d="M109.48,109.19l.19.6A3.9,3.9,0,0,0,109.48,109.19Z"/><path class="cls-4" d="M112.81,117.09l.08,0S112.83,117.08,112.81,117.09Z"/><path class="cls-4" d="M112.12,117.41l.74,1,.57-.45-.47-.75-.07,0a7.76,7.76,0,0,1,.51.81l-.51.4C112.6,118,112.32,117.6,112.12,117.41Z"/><path class="cls-4" d="M107.17,109.35c.28.56.6,1.11.91,1.65-.13-.3-.3-.7.15,0C107.14,108.91,108.37,111.51,107.17,109.35Z"/><path class="cls-4" d="M105.43,103.86c.15,1,0,0,.09,0C105.44,103.27,105.42,103.12,105.43,103.86Z"/><path class="cls-4" d="M86.1,81.42,86,81.29C85.78,82,86.08,81.31,86.1,81.42Z"/><path class="cls-4" d="M82.93,88.9a6.82,6.82,0,0,0,.41-.68l.07-.37C83.26,88.2,83.12,88.55,82.93,88.9Z"/><path class="cls-4" d="M78.53,90.77l.32-.13c-.42.16-.82.34-1.23.52Z"/><path class="cls-4" d="M55.39,129.13l-.07.26C55.46,129.9,55.63,130,55.39,129.13Z"/><path class="cls-4" d="M67,104.79a4,4,0,0,0,1.14-1.4A9.05,9.05,0,0,1,67,104.79Z"/><path class="cls-4" d="M70.31,65.4l-.16.6c.11-.37.23-.74.35-1.11Z"/></g></g></g><g id="Layer_102" data-name="Layer 102"><g id="Pierna"><rect class="cls-5" width="160" height="195"/></g></g></g></g></svg>