<svg xmlns="http://www.w3.org/2000/svg" viewBox="0 0 130 250"><defs><style>.cls-1{isolation:isolate;}.cls-2{fill:#707070;}.cls-3{fill:#9d9d9d;}.cls-4{fill:#d9d9d9;}.cls-5{fill:#42210b;}.cls-6{fill:none;mix-blend-mode:multiply;}</style></defs><g class="cls-1"><g id="Layer_2" data-name="Layer 2"><g id="Variación_B" data-name="Variación B"><g id="AssetsB2"><g id="TailA2"><path class="cls-2" d="M118.8,218.09c.28-.23.58-.45.87-.68l.71-.68c.36-.37.71-.71,1.07-1a1.9,1.9,0,0,0-.49-.58l-.26-.22a1.68,1.68,0,0,0-.74-1.1l-1.6-1.05c.15-3-2.08-7.42-4.61-7.49a3.82,3.82,0,0,0-2.37-.78,3.61,3.61,0,0,1-.25-.3,1.74,1.74,0,0,0-3,.38,4.08,4.08,0,0,0-.62-1,4.34,4.34,0,0,0-1-1.17,1.39,1.39,0,0,0-.31-.18,2,2,0,0,0,.07-1.27c3-3.67,5.16-11.69.82-13.61H107c.6-1.1,1.16-2.23,1.69-3.37a76.62,76.62,0,0,0,4.77-6.59c3-4.63,5.69-11,5.9-16.63,0-.37-.49-.65-.74-.34a19.91,19.91,0,0,0-2.22,3.5c.33-1.12.68-2.23,1-3.37a.82.82,0,0,0,0-.38,22.22,22.22,0,0,0,.53-3.77c.14-2.55,0-11.44-3.77-11.18a.83.83,0,0,0-.65.36,12.14,12.14,0,0,0-2.37-2.12,1.92,1.92,0,0,0-.68-1.2,10.22,10.22,0,0,0-2.14-6.54c-1.78-2.23-5-6.47-8-6.64.11-.27.19-.55.28-.83,1.56-2.18,1.84-5.47,1.83-8.18,0-4.11-.42-7.9-3.9-10.29a1.62,1.62,0,0,0-.35-.17l-.12-.12a1,1,0,0,0-.2-.15c.09-.47.16-.94.23-1.41,4.78-5.8.93-19.4-5.31-22a.93.93,0,0,0-1.15.5c-.4-.53-.77-.05-1.26-.54-5.82-5.7-17.64-4.47-24.79-3.43-6.56,1-15.53,2.77-19.88,8.65h0c-3.32-.7-6.47,1.06-9.52,2.74C32.12,96,27.93,98.19,24,100.72a37.89,37.89,0,0,0-9.21,8.49c-2.46,3.11-5.93,7.5-6.29,11.66a4.13,4.13,0,0,0,.43,2.18c0,.1-.11.19-.16.3a4,4,0,0,0-.34,3.06,4.46,4.46,0,0,0-.57,2.18c-1.17,5.24,1.88,11.54,7.39,12.63a6.18,6.18,0,0,0,.68,3.95,25.22,25.22,0,0,0,3.23,4.8A31.39,31.39,0,0,0,22,153.09h0c-1.91,3.27-.74,6.58,1.25,9.47a23.55,23.55,0,0,0,1.95,4c.36.6.79,1.29,1.29,2-1.48,3.78.95,7.45,4.1,9.47,2.9,1.86,6.31,2.12,9.67,1.92l.06,0a15.92,15.92,0,0,0,7.58.85,24.12,24.12,0,0,0,3.38-.49c.24,0,.49-.09.73-.15.44-.08.83-.16,1.17-.21,1.26-.18,2.6-.36,3.95-.6,1.15,2.34,2.36,4.5,4.68,5.72.1.06.21.1.31.15a1.87,1.87,0,0,0-.2.29l-.14.06-.2-.35a.5.5,0,0,0-.93.25c-.22,2.91,1.63,6.82,4.14,9.54a1.77,1.77,0,0,0-.58.76c-1.65,4,0,9.2.88,13.48a1.36,1.36,0,0,0-.44.11.82.82,0,0,0-1.27,0,22.6,22.6,0,0,0,.21-3.51.37.37,0,0,0-.62-.2c-1.85,2.32-1.27,5.46-.33,8.11.89,2.47,2.09,5.75,4.76,6.51a.46.46,0,0,0,.55-.34,1.37,1.37,0,0,0,1.33.05,1.2,1.2,0,0,0,.51.32c1.09.4,2.22.89,3.37,1.33a10.05,10.05,0,0,0,2.49.8l.15,0a.85.85,0,0,0,.29,1.29l.09,0a1.41,1.41,0,0,0,.61.81q.8.49,1.59.9A4,4,0,0,0,81.2,227c5,2.88,10.67,1.21,15.62-2.19a1.81,1.81,0,0,0,.67-.11c2-.73,3.75-2.65,5.45-3.79a3.17,3.17,0,0,0,2.65,2.12,3.65,3.65,0,0,0,1.64-.18l.17.07.6.25v0l.47.14a1.4,1.4,0,0,0,1.28-.3,1.29,1.29,0,0,0,1.21-.4l.48-.52a1.65,1.65,0,0,0,1.6.68,3.85,3.85,0,0,0,1-.26l.55-.49A18.36,18.36,0,0,1,118.8,218.09ZM80.52,223.4l-1.78-.81.36-.06a14,14,0,0,0,1.6.18c0,.11,0,.22,0,.33A.89.89,0,0,0,80.52,223.4Zm28.18-13.19a2.08,2.08,0,0,0-.3-.43,9.2,9.2,0,0,0,.21-1.07l.12.12c.15.12.3.21.45.31Z"/><path class="cls-3" d="M96,89.79a.4.4,0,0,0-.62.32,9.93,9.93,0,0,0-1.67-2.06.39.39,0,0,0-.67.35c.46,5,1.9,8.92.94,14.08a45.82,45.82,0,0,1-6.27,15.69c-5.32,8.15-11.33,16.29-18.78,22.39-.88.71.2,2,1.09,1.55,5.78-2.74,10.73-8,14.88-13.68a24.63,24.63,0,0,0-.93,2.39c-.22.71.64,1.56,1.27,1.08,4.27-3.25,6.85-9.68,9-14.63a52,52,0,0,0,2.06-5.33C100.23,105.24,102.49,95,96,89.79Z"/><path class="cls-3" d="M40,150.89c-4.52.36-9,1-13.46-.3-4.85-1.4-6.57-4.63-9.88-8.1a.48.48,0,0,0-.82.44c2,10.77,16.41,13.8,24.45,9.28C40.85,151.91,40.71,150.83,40,150.89Z"/><path class="cls-3" d="M94,160.07c-10.92,6.13-21.16,11.2-33.43,13.79-5.78,1.22-12.21,2.85-18.13,2.68-6.46-.18-10.91-2.49-15.85-6.51-.31-.25-.66.1-.62.43a6.71,6.71,0,0,0,2.39,4.24.52.52,0,0,0-.49.63c.4,3.22,5.06,3.92,7.52,4.45,3.18.69,7.19,1.19,10.5.16,5.21.69,10.79-.23,15.76-1.32,5.33-1.16,12.54-2.82,17-6.67,6.17-2.46,11.88-5.84,16.19-10.69C95.31,160.67,94.71,159.66,94,160.07Z"/><path class="cls-3" d="M105.16,133.86a.43.43,0,0,0-.74.39c2,7.7,3.4,14.52-.32,22-2.91,5.84-7.92,10.26-12.62,14.3-.59.51,0,1.62.72,1.39C105.39,167.72,115.57,146.15,105.16,133.86Z"/><path class="cls-3" d="M82.53,184.79c-5.14,1-9.3,1.88-14.45.27a91,91,0,0,1-9.74-4.2c-.33-.15-.56.26-.45.54,1.49,4,6.85,5.39,10.41,6.45,5.11,1.52,10.52,1.62,14.9-1.75C83.83,185.61,83.18,184.67,82.53,184.79Z"/><path class="cls-3" d="M117.74,162.59c-3.13,9.17-9,15.84-16,21.92C94,191.16,85.11,192,75.84,194c-.81.18-.72,1.53.06,1.69,9.57,2,21-2.85,28.31-9.3,7-6.16,14.43-13.45,14.79-23.65A.64.64,0,0,0,117.74,162.59Z"/><path class="cls-3" d="M95.09,208.15c-5.71,2.12-12,5.11-18.11,3.43-2.24-.61-5.31-1.64-7.16-3.24C66,205,66.19,200.86,66,196.11c0-.26-.37-.37-.45-.09-2.54,8.08,1.16,13,7.81,16.1,7.06,3.32,15.79,1.13,22.08-3.15C95.77,208.72,95.57,208,95.09,208.15Z"/><path class="cls-3" d="M107.66,187.17c-.09-.21-.34-.11-.38.08-.27,1.68-.14,3.42-.49,5.08a10.42,10.42,0,0,1-4.05,6,35.77,35.77,0,0,1-10.85,5.39c-.4.11-.37.82.08.8a20.41,20.41,0,0,0,11.48-4.34l.11-.08a14.67,14.67,0,0,0,1.81-1.65C108.05,195.51,109.36,191,107.66,187.17Z"/><path class="cls-3" d="M103.78,218.93c-3.72,1.82-7.17,4.69-11.14,5.86-7,2-11.53,1.29-18-1.67a.32.32,0,0,0-.45.2l-.21-.09c-.2-.09-.29.19-.15.32.63.58,1.17,1.43,1.8,2.06a12.62,12.62,0,0,0,1.45,1.29,7.15,7.15,0,0,0,4.19,1.56.58.58,0,0,0,.39-1,3,3,0,0,0-.83-.62C89,229.08,98.6,226,104.53,220A.64.64,0,0,0,103.78,218.93Z"/><path class="cls-3" d="M113.47,205a.24.24,0,0,0-.3.28c.19,1.17.88,1.85,1.17,3a8.39,8.39,0,0,1-.58,5.16c-1.2,2.79-3.67,4.49-5.61,6.66a.65.65,0,0,0,.61,1.08,10.94,10.94,0,0,0,7.38-8.23C116.63,210.56,116.27,205.7,113.47,205Z"/><path class="cls-3" d="M98.87,110.6a.28.28,0,0,0-.51.2c2,9-3.67,19.15-9.29,25.55-5.23,6-11.62,9.74-18.21,13.75a.54.54,0,0,0,.38,1c9-2.19,17.08-8.84,22.53-16.51C97.77,129,103.43,117.44,98.87,110.6Z"/><path class="cls-3" d="M57.63,163.53a38.69,38.69,0,0,1-16.28,2.84c-6.21-.39-16.84-1.87-16.89-10.47,0-.23-.35-.34-.4-.08-1.4,6.72,5.31,9.54,10.43,10.76,7.73,1.83,16.34,1.69,23.37-2.39C58.18,164,58,163.4,57.63,163.53Z"/><path class="cls-3" d="M55.65,123.34c-7.89,6-16.15,10.89-25.82,12.93-6,1.28-15.3,1.72-17.36-6.33-1.65-6.44,2.67-13.39,5.31-18.88a.2.2,0,0,0-.32-.23c-6,7.52-11.84,23,.85,27.27,6.22,2.1,14-.18,19.85-2.35a45.53,45.53,0,0,0,18.1-11.56C56.65,123.78,56.14,123,55.65,123.34Z"/><path class="cls-3" d="M83,90.28c-8.36-4.45-22.9-.25-30,5.07-.32.24-.18.93.28.76,7.34-2.86,14.13-6.24,22.24-5.92a15.94,15.94,0,0,1,6.78,1.36,9.11,9.11,0,0,1,4.41,7.91c-.16,3.5-3.76,8.32-5.16,11.39-.21.45.36,1.08.72.61C87.21,105.19,92.25,95.19,83,90.28Z"/><path class="cls-3" d="M40.88,121.62c-3.59,1.12-20.09,6.92-20.71-.61,0-.18-.3-.19-.33,0C18,129.2,38.34,123.31,41,122.06,41.26,122,41.12,121.55,40.88,121.62Z"/><path class="cls-3" d="M47.32,99.19C38.52,101.66,31,107,24.08,113c-.23.19,0,.62.29.44,3.47-2.37,6.83-5,10.42-7.16,4.11-2.47,8.62-4,12.76-6.42C47.86,99.64,47.68,99.09,47.32,99.19Z"/><path class="cls-3" d="M70.58,131c-6.26,4.45-12.34,8.62-19.56,11.24s-14.53,3-22.11,3.86c-.28,0-.2.44,0,.48,14.05,2.22,32-4.83,41.93-15.13C71.09,131.27,70.84,130.84,70.58,131Z"/><path class="cls-3" d="M95.11,143.32C86.69,151,77.83,156.75,68.19,162.5c-.28.17-.13.71.2.58,10.11-3.9,19.64-11.25,27-19.43C95.57,143.45,95.31,143.14,95.11,143.32Z"/><path class="cls-3" d="M113.33,157.22c-4.7,8.82-15,15.34-22.38,21.42a.33.33,0,0,0,.36.54c5-2.66,9.37-7.33,13.56-11.14,3.46-3.13,7-6.18,8.84-10.62C113.81,157.18,113.45,157,113.33,157.22Z"/><path class="cls-3" d="M101.71,211.26c-4.25,3.64-8,8.86-12.66,11.92-.2.14,0,.49.18.37a34.5,34.5,0,0,0,13-11.84A.34.34,0,0,0,101.71,211.26Z"/><path class="cls-3" d="M73.87,216.14c-4.15.05-7.45-2.24-10.7-4.73-.19-.15-.39.17-.2.33,3.2,2.59,6.67,5.06,10.88,4.82C74.1,216.55,74.14,216.14,73.87,216.14Z"/><path class="cls-4" d="M66.29,85.6A69.79,69.79,0,0,0,43.9,94.68c-6.55,4.11-14,8.46-19.49,14.11-.19.2.08.52.27.33,5.39-5.29,12.51-9.44,19-13.16,7.25-4.18,14.58-8.12,22.72-10.07C66.52,85.85,66.47,85.56,66.29,85.6Z"/><path class="cls-4" d="M82.51,93.58c-1.42,4.58-2.68,8.51-5.68,12.3-3.16,4-7.24,6.85-11,10.09a.41.41,0,0,0,.46.66c7.56-4.19,17.16-13,16.65-23C82.89,93.43,82.59,93.33,82.51,93.58Z"/><path class="cls-4" d="M71.31,125.81c-7.59,7.7-17.54,10.52-26.67,15.58-.33.18-.13.8.24.66,9.3-3.35,20.53-7.58,26.8-15.91C71.86,125.91,71.51,125.61,71.31,125.81Z"/><path class="cls-4" d="M66.14,138.67c-8.87,4.4-17.4,8.07-27.08,10-.18,0-.16.35,0,.34,9.6-.56,18.82-5.59,27.18-10.11C66.41,138.84,66.3,138.6,66.14,138.67Z"/><path class="cls-4" d="M97.74,114.74c-5.4,14.38-18.3,23.75-29.35,32.81-.26.21,0,.65.33.5,12-6.74,25.14-19.21,29.35-33.19A.18.18,0,0,0,97.74,114.74Z"/><path class="cls-4" d="M61.73,154.74c-4.76,2.07-9.54,4.33-14.54,5.71-5.26,1.45-12.63,3.43-17.81,1-.15-.08-.28.19-.13.27,4.17,2.52,10.26,1.12,14.69.11a75.77,75.77,0,0,0,17.94-6.74A.17.17,0,0,0,61.73,154.74Z"/><path class="cls-4" d="M82.54,161.25a133.23,133.23,0,0,1-19.19,8.29c-5.58,1.81-11.34,2.33-17,3.89-.14,0-.14.27,0,.28,6.29.17,12.87-1.91,18.82-3.83a73.25,73.25,0,0,0,17.5-8.24C83,161.5,82.78,161.13,82.54,161.25Z"/><path class="cls-4" d="M101.41,131c0-.27-.42-.18-.39.09.88,9.65-4.68,17.66-9.24,25.27-.19.32.25.74.5.44C98.14,149.92,102.64,140.56,101.41,131Z"/><path class="cls-4" d="M103.54,149.92C97.75,162.05,86.93,169,76.08,175.2c-.27.15-.12.64.19.54,12-4,22.76-13.21,27.64-25.62C104,149.89,103.65,149.7,103.54,149.92Z"/><path class="cls-4" d="M89.37,178c-7,6.36-18.25,3.54-26.52,2.5a.15.15,0,0,0-.09.27C67,183.33,72.92,183,77.67,183s8.81-.81,12-4.62C89.87,178.13,89.59,177.78,89.37,178Z"/><path class="cls-4" d="M87.9,201.09c-7,.32-15.15-3.39-20.07-8.76-.16-.17-.42.07-.27.25,2.69,3.3,6.56,5.31,10.26,7.11,3.27,1.6,6.56,2.81,10.12,1.82C88.14,201.45,88.14,201.08,87.9,201.09Z"/><path class="cls-4" d="M105.65,191.22c-5.5,7.85-13.8,11.28-22.48,13.07-.27.06-.24.53,0,.51,9.05-.53,18-4.86,22.84-13.3A.24.24,0,0,0,105.65,191.22Z"/><path class="cls-4" d="M81.57,209.69a24.05,24.05,0,0,1-6-1.54c-1.79-.67-5.09-1.45-5.76-3.49-.08-.22-.42-.16-.35.08.59,1.86,2.54,2.4,4.12,3.09a23.54,23.54,0,0,0,8,2.19A.17.17,0,0,0,81.57,209.69Z"/><path class="cls-4" d="M98.18,211c-3.56,3-7,5.9-11.16,7.86-.21.1-.09.49.14.41a29.85,29.85,0,0,0,7.18-3.61c1.39-.95,4.13-2.59,4-4.55C98.38,211,98.27,211,98.18,211Z"/><path class="cls-4" d="M73.41,218.94a8.71,8.71,0,0,0-2.83-1.32A7.79,7.79,0,0,1,67,216.13a.15.15,0,0,0-.22.21c1.77,2,4.11,2.09,6.42,3C73.45,219.38,73.59,219.07,73.41,218.94Z"/><path class="cls-4" d="M112.33,207.51c.3,3.75-2,6.54-3.35,9.78-.1.23.24.46.4.28a13.25,13.25,0,0,0,3.31-10.14C112.66,207.18,112.31,207.26,112.33,207.51Z"/><path class="cls-5" d="M121.77,147.68c-1.9-3.93-6.93-10.19-11.69-9.6a10.8,10.8,0,0,0-.63-1.1,20.91,20.91,0,0,0-4.74-5.18,13.84,13.84,0,0,1,.71,1.19c1.59,2,2.15,5.31,2.63,7.63a21.44,21.44,0,0,1,.21,8.74,23.69,23.69,0,0,1-.75,4,.31.31,0,0,0,.13,0c.26-.28.52-.55.77-.84a21.48,21.48,0,0,0,2.26-3.52,14.91,14.91,0,0,0,.81-4.85,15.42,15.42,0,0,1,4.49,4.93,11,11,0,0,1-.29,11.5,33.13,33.13,0,0,1-13.49,12.28,43.93,43.93,0,0,0,4.75-1,29.4,29.4,0,0,0,8.45-5.55c.66-.67,1.34-1.32,2-2,.93-.91,1.84-1.85,2.83-2.7A13.14,13.14,0,0,0,121.77,147.68Z"/><path class="cls-5" d="M101.41,113.27a.54.54,0,0,0,0-.11c.89,4.16-.76,8.54-2.23,12.3-1.6,4.12-3,9.12-6,12.22a31.66,31.66,0,0,1-3.08,3.76,40.65,40.65,0,0,1-4.62,4.12A59.81,59.81,0,0,1,81,149.84a63.09,63.09,0,0,1-16.54,10.63h0c5.61-.11,12-5,16.67-8a56.75,56.75,0,0,0,15-14.25c.19-.26.36-.52.54-.79l-.06.37a25.79,25.79,0,0,1,2.37-3.8c.13-.22.26-.43.38-.65.68-1.28,1.3-2.63,2-3.94C103.91,124.78,103.64,118.14,101.41,113.27Z"/><path class="cls-5" d="M98.4,140c-1.7,3.2-3.73,7.14-6.17,9.34l-.11.13c-3.14,3.59-7.5,5.1-10.8,8.2,4.26-1.89,8.53-3.89,12.17-6.84l.21-.27a43.32,43.32,0,0,0,4.5-9.5C98.25,140.69,98.32,140.33,98.4,140Z"/><path class="cls-5" d="M104.45,134.58a20.83,20.83,0,0,0-1.12-2.77,23.78,23.78,0,0,1,.13,5.7,27.31,27.31,0,0,1-1.4,7.88c-1,3.31-3.36,6.42-5.4,8.75s-4.32,5.4-6.89,7.23c3.94-2.2,7.54-6.07,10.82-9.16.19-.23.39-.45.57-.68a15.61,15.61,0,0,0,1.24-1.84c.46-1,.87-2,1.35-2.91a34.83,34.83,0,0,0,1.08-5.76A18.36,18.36,0,0,0,104.45,134.58Z"/><path class="cls-5" d="M37.32,140.73c-10,2.19-25.18,3.26-29.11-8.61a1.19,1.19,0,0,1-.23-.78c0-.13-.07-.25-.11-.38l.13,0v-.06q0-.37-.06-.75a.5.5,0,0,1-.09-.33,22.58,22.58,0,0,1,2.1-8.28,39.85,39.85,0,0,1,2.56-5.43,44.74,44.74,0,0,1,5.37-8.88c.29-.41.58-.83.88-1.23-6.92,6.17-13.78,14.23-12,23.73.29,6,3.88,10.65,9.38,13,6.06,2.65,12.35,1.94,18.35,0,.49-.21,1-.44,1.47-.67s1.25-.72,1.86-1A.4.4,0,0,0,37.32,140.73Z"/><path class="cls-5" d="M96.07,89.55A15.38,15.38,0,0,0,91.44,83c-.77-.66-1.54-.26-2.4-.82-8.92-4.25-20.17-2.17-29.1.68a121,121,0,0,0-22.12,9.44,90.32,90.32,0,0,0-11.61,9.79,53.63,53.63,0,0,0-6,7.29C22.89,107,25.64,105,28,103.22A108.5,108.5,0,0,1,55.05,88.63c10-3.72,21.37-7.38,31.73-2.85,5,2.19,8.32,5.52,9.38,11,.1-.31.18-.64.27-1A13.84,13.84,0,0,0,96.07,89.55Z"/><path class="cls-5" d="M100.16,97.32c-.43,1.76-1,3.49-1.62,5.21-1.12,3.25-2.32,6.48-3.66,9.64-.36.87-.74,1.72-1.13,2.57-.09.23-.17.47-.27.69a30.4,30.4,0,0,1-1.17,3.49c-.32.6-.67,1.19-1,1.77-.22.39-.44.78-.67,1.16a25.78,25.78,0,0,1-4.25,5.76,18.91,18.91,0,0,1-2.5,2.56C79.2,135,73.22,138.55,67.65,142a95.59,95.59,0,0,1-18.39,8.75,35.62,35.62,0,0,0,9.3-2.36c.66-.23,1.32-.49,2-.78,1.91-.78,3.74-1.6,5.46-2.35a68.82,68.82,0,0,0,17-10.56,70,70,0,0,0,7-6.9,53.25,53.25,0,0,0,7.34-12.89,47,47,0,0,0,2.89-10.54,36.81,36.81,0,0,0,.33-4.68A17,17,0,0,1,100.16,97.32Z"/><path class="cls-5" d="M118.91,165c-.83.77-1.69,1.52-2.49,2.28s-1.38,1.38-2.07,2.08c-.25.53-.52,1.05-.83,1.57s-.67,1-1,1.46a44.75,44.75,0,0,0,4.16-3.54c.64-.63,1.28-1.27,1.9-1.95.1-.31.2-.63.28-1a.27.27,0,0,1,0-.13C118.86,165.58,118.88,165.31,118.91,165Z"/><path class="cls-5" d="M89.9,189.29c5.45-.59,10.63-3.68,15.26-6.76h0c.42-.31.84-.59,1.19-.82.05,0,.52-.31,1-.57,1.8-1.67,3.51-3.48,5.34-5.11.57-.63,1.12-1.28,1.65-2a.76.76,0,0,0,.08.11,46.38,46.38,0,0,0,3.5-5.75,36.53,36.53,0,0,1-7.17,6.16,36.35,36.35,0,0,1-3.43,3.37A50.29,50.29,0,0,1,89.64,188.1.61.61,0,0,0,89.9,189.29Z"/><path class="cls-5" d="M88.79,199.38c5.91.78,11.73-4.5,15.84-8.61a33.55,33.55,0,0,0,2.59-2.9,21.23,21.23,0,0,1,.7,3,5,5,0,0,1,.1.56.07.07,0,0,1,.06.07c.16,3.09-1.41,6.15-3.24,8.44-.47.59-1,1.21-1.61,1.82a.33.33,0,0,0,.35,0,13.18,13.18,0,0,0,2.8-1.63l0,.12q-.24.66-.51,1.26c.05,0,.06.09,0,.19-1.39,3.05-4,6.54-7.07,8a.47.47,0,0,0,.29,0c1.26-.25,2.38-1.59,3.47-2.11a19.18,19.18,0,0,0,3.2-3.17,30.75,30.75,0,0,0,2.47-4.27,11.28,11.28,0,0,0,.32-2.28,12,12,0,0,0,1.56-3.14,11.06,11.06,0,0,0,.52-3.05,6.68,6.68,0,0,0,.49-4c-.14-1.12-.44-2.77-1.41-3.47l.14-.23a8.81,8.81,0,0,0,1.87-2.72,14.59,14.59,0,0,0,.89-2.53c0-.12,0-.22.06-.33a24.42,24.42,0,0,1-3.53,3.64l0,0c-.75.79-1.51,1.57-2.31,2.34a21.31,21.31,0,0,1-2.42,2.89c-.48.56-1,1.11-1.48,1.63-3.94,3.95-8.81,8.21-14.15,9.5A.49.49,0,0,0,88.79,199.38Z"/><path class="cls-5" d="M114.57,222l.08-.12a12.83,12.83,0,0,1-2.41.38,36.8,36.8,0,0,1-4.33-.28c.73-.29,1.44-.62,2.15-1,1.08-.81,2.15-1.63,3.18-2.5.26-.22.52-.47.79-.73a.46.46,0,0,0-.47,0,83.83,83.83,0,0,1-9.11,4c4.71-4.88,9.64-13.05,5-17.23,2.64,0,5.38.86,6.49,3.64.78,2,.75,5.65-1.22,7a.47.47,0,0,0-.2.27l.74-.28a5.91,5.91,0,0,1,1.36-.72,18.68,18.68,0,0,0,1.55-1.14l.08-.09a0,0,0,0,1,.06,0v0h0c.06-.14.11-.27.16-.41a11,11,0,0,0,1.62,1.82,16.35,16.35,0,0,1,1.21,1.29,5.84,5.84,0,0,1,1.51-1.05,30.49,30.49,0,0,0-4-3.58,8.64,8.64,0,0,0-.61-4.33,8,8,0,0,0-3.7-4v0c-1-.33-2-.83-3-1.11l-.7.05a9.51,9.51,0,0,1-2.45.28s0,0,0-.07l0,0a.21.21,0,0,1-.15,0c-.25.52-.54,1-.84,1.53a15.66,15.66,0,0,0-.09,1.94c0-.07.09-.14.13-.22,1.21,6.19-1.32,11.59-5.64,15.33l-.35.35c-1.1,1-2.33,3.13-3.74,3.6a.93.93,0,0,1-.4.06q-.66.34-1.35.63a30.5,30.5,0,0,1-9.68,2.39,11,11,0,0,1-5.45-1.14,16.35,16.35,0,0,1-2.43-.49c-.58,0-1.36-.12-2.17-.25,5.85,6.85,17.53,4.16,24.27.35a6,6,0,0,0,.61-.38c2,.82,4.19.26,6.09.66a19.37,19.37,0,0,0,2.74.43,40.71,40.71,0,0,1,4-4,.22.22,0,0,1,.07-.27Z"/><path class="cls-5" d="M122.34,217.42a16.89,16.89,0,0,0,1,2,.59.59,0,0,0,1.12-.26,4.84,4.84,0,0,0-.6-2.85C123.34,216.67,122.84,217,122.34,217.42Z"/><path class="cls-5" d="M121.3,220.82a8.84,8.84,0,0,0-3,.16l-.32.27a36.58,36.58,0,0,0-3.85,4c3.35-.4,6.51-1.57,7.77-3.3C122.25,221.48,121.78,220.89,121.3,220.82Z"/><path class="cls-5" d="M89,220.11c-4.68.49-9,1.82-13.81,1.21A15.52,15.52,0,0,1,66,217a14.16,14.16,0,0,1-3-3.67,21.85,21.85,0,0,1-1.42-2.53c-.24,4.72,3.14,9,7.37,11,5.91,2.79,14.8,3,20.45-.4A.68.68,0,0,0,89,220.11Z"/><path class="cls-5" d="M73.48,212.35l-.4-.06a.52.52,0,0,0-.2-.3c-.75-.45-1.48-.93-2.2-1.44A15,15,0,0,1,67,207.44c-.26-.25-.51-.51-.76-.78a1.52,1.52,0,0,1-.33-.94,12.78,12.78,0,0,1-.94-6.44c.23-.41.5-.82.8-1.25a8.15,8.15,0,0,0,.53-.81c.21.18.44.36.67.54a3.85,3.85,0,0,1,.95.38,35.69,35.69,0,0,0,4.52,1.79,42.81,42.81,0,0,0,5.6,1.16c-1.08-.52-2.21-.77-3.34-1.19a20,20,0,0,1-5.7-3.39,18.62,18.62,0,0,1-3.51-3.74l-.41-.45c-.7-.74-1.4-1.51-2.06-2.31-.29-.34-.58-.67-.86-1-.16-.16-.32-.32-.47-.49a10.42,10.42,0,0,0-.07,3.82,15.53,15.53,0,0,0,.77,3.15c-2.67,3.56-2.56,8.76-.34,12.63a.75.75,0,0,0-.05.16,6,6,0,0,0,.43.74l.61.83c0-.09,0-.19,0-.28s0,0,0,0,0,.19.08.28a5.11,5.11,0,0,0,.61.62l.09.07c.6.51,1.29.93,1.87,1.46,4.09,2.83,9.74,3.58,14.73,3.4A36.17,36.17,0,0,1,73.48,212.35Z"/><path class="cls-5" d="M61.92,177.44c-4.37,1.19-9.85,2.54-14.51,2.22-.46.06-.91.12-1.37.16a29.54,29.54,0,0,1-12.38-1.25c-2.9-1-5.23-2.54-6.38-5.68-.45-1.23-.69-2.35-1.18-3.49,8.94,5.32,25.62,2.81,36.29-1.37-2.6.31-5.2.49-7.7.7-2.93.25-6,.72-9.13,1a36.34,36.34,0,0,1-4.48.46c-5.14.19-10.49-.2-14.69-3.63s-4.89-8-3.9-13.32c5.16,2.91,12.24,3.19,16.69.32l.1-.09a14.21,14.21,0,0,1-2.88.5c-2.32.17-6.66.16-9.8-1a.22.22,0,0,1-.25.18A13.35,13.35,0,0,1,22.49,151a25.66,25.66,0,0,1-2.86-2.55A26.64,26.64,0,0,1,17,145.65l-.79-.57a11.44,11.44,0,0,0,4.54,7.06c-2.08,8.28,0,13.52,4.31,16.6-2.58,8.69,7.48,12.65,13.7,13.41a45.35,45.35,0,0,0,15-1.08l2-.43a12.74,12.74,0,0,0,3.76,5.26c.66.29,1.32.58,2,.81a14.73,14.73,0,0,0,5.28.81l.62,0c-.86-.42-1.69-.87-2.45-1.3-2-1.13-4.54-2.55-6-4.6a4.8,4.8,0,0,1-.47-.53,3.56,3.56,0,0,1-.58-.8,0,0,0,0,1,0-.06h0l-.07-.06c4.13-1,8.36-2.18,11.86-4.39a.66.66,0,0,0,.26-.37C67.4,176.19,64.62,176.71,61.92,177.44Z"/><path class="cls-5" d="M79.65,95.23c-1.83-3.18-6.06-2-8.87-1.61a.59.59,0,0,0-.35.18,8.45,8.45,0,0,1,6.43,1.62c.85.61.64,2.23,0,3.7-.07.21-.15.42-.23.62s0,.28,0,.43l-.34.35A4.75,4.75,0,0,1,75,102.16c-1.91,2.32-5.28,4.51-7.32,6.13a93.22,93.22,0,0,1-16.79,10.56,86,86,0,0,1-19.06,6.7,67.51,67.51,0,0,1-10.57,1.72c-2.93.19-5.43-1.48-4.57-4.91a7.09,7.09,0,0,1,.75-1.77,13.88,13.88,0,0,1,3.1-4.49.39.39,0,0,0-.29.05c-3.55,2.33-10.2,11.16-2.73,12.92,4.76,1.12,11-.59,15.59-1.66a92.23,92.23,0,0,0,16-5.31,88.55,88.55,0,0,0,27.8-18.8C78.86,101.3,81.43,98.32,79.65,95.23Z"/><path class="cls-5" d="M77.46,110.92c-4.7,5.87-9.15,11.55-15.17,16-6.25,4.64-13.46,7.37-20.18,11.13-.42.24-.15,1,.31.84C56.07,133.38,70.87,125.62,78,111.4,78.18,111.05,77.74,110.58,77.46,110.92Z"/><path class="cls-5" d="M64.85,148.24c-11.6,7.69-24.95,14-38.92,9.19a.24.24,0,0,0-.19.42c5.86,3.82,13.39,2.89,19.82,1.36,7.1-1.68,14.43-5,19.74-10.31C65.61,148.59,65.23,148,64.85,148.24Z"/><path class="cls-5" d="M73.87,168.41c-12.23,4.74-24.62,8.1-37.79,6.6-.29,0-.33.4-.09.51,5.39,2.51,12.41,1,18,.08,6.91-1.1,14-2.9,20.11-6.48C74.47,168.92,74.27,168.25,73.87,168.41Z"/><path class="cls-5" d="M112.2,151.32a76.44,76.44,0,0,1-17.39,18.25A48.75,48.75,0,0,1,71,179.94c-.47.07-.49.92,0,1,9.09,1.57,18-4.12,25-9.6,6.25-4.94,14.16-11.67,17-19.64A.44.44,0,0,0,112.2,151.32Z"/><path class="cls-5" d="M98.37,202.46c-4.68,1.36-8.94,3.88-13.84,4.43-5.89.67-10.74-2-15.53-5.27-.37-.26-.82.3-.49.63,8.3,8.53,21,7.32,30.24,1.17C99.2,203.12,98.94,202.29,98.37,202.46Z"/><path class="cls-5" d="M89.69,214.86c-5.22,2.41-10.5,3.76-16.25,3-.21,0-.28.32-.07.38,5.7,1.65,11.85,1.16,16.77-2.51A.48.48,0,0,0,89.69,214.86Z"/><path class="cls-5" d="M105.18,209.36c-2.11,2.48-3.17,6.7-5.33,9.19a21.9,21.9,0,0,1-8.62,5.74c-.35.15-.19.74.17.74,6.52-.1,13.54-8.79,14.1-15.51C105.51,209.36,105.29,209.22,105.18,209.36Z"/><path class="cls-5" d="M65,96.55c-14.58,2-28.21,9.88-40.1,18.39-.11.09,0,.31.14.22,12.47-8.45,26.22-13,40.1-18A.31.31,0,0,0,65,96.55Z"/><path class="cls-5" d="M68.41,101.32c-6.47,5.29-12.95,10-20.57,13.31a89,89,0,0,1-10.58,3.82c-3.85,1.13-9.61,3.59-13.51,2-.42-.17-.68.48-.31.73,2.86,1.94,5.7,1,8.84.22a94,94,0,0,0,14.5-4.71c8.12-3.42,16.2-8.09,21.92-15.16C68.84,101.4,68.57,101.18,68.41,101.32Z"/><path class="cls-5" d="M53.7,103.68a54.42,54.42,0,0,0-16,7c-1.62,1.08-6.31,3.8-5.25,6.56a.53.53,0,0,0,.46.38c3.86.48,9.06-1.84,12.54-3.47.43-.2.14-.95-.31-.81-2.4.72-4.76,1.58-7.17,2.26-1.28.37-4,1.92-3.5-1.19.19-1.14,2.86-2.32,3.69-2.88a53,53,0,0,1,15.64-7.37C54.07,104.06,54,103.6,53.7,103.68Z"/><path class="cls-5" d="M56.17,106.37c-.76-.92-3.33-.18-4.23,0a19.46,19.46,0,0,0-6.62,2.88c-.19.12-.1.51.15.42,2.45-.87,4.85-2.06,7.43-2.47.48-.08,2.22-.66,1.84.49-.15.45-1.51,1-1.87,1.22-1.23.7-2.54,1.2-3.79,1.85a.36.36,0,0,0,.24.66C50.45,111.23,57.87,108.44,56.17,106.37Z"/><path class="cls-5" d="M36.76,100.44l-2,1.38c-.15.09,0,.35.12.25l2.05-1.38C37,100.6,36.91,100.34,36.76,100.44Z"/><path class="cls-5" d="M83.84,88C68.58,84.66,54.15,91.24,41,98.64c-.16.09,0,.36.12.27C54.39,91.5,68.48,85.38,83.82,88.26,84,88.29,84,88,83.84,88Z"/><path class="cls-5" d="M88,90.38c-.17-.16-.44.08-.27.25,5.09,4.93,2.7,12.83-.4,18.12-2.84,4.87-7,8.41-11.38,11.64-.38.28-.07.94.35.69,5.76-3.37,11.11-8.55,13.55-15.13C91.75,100.91,92.16,94.31,88,90.38Z"/><path class="cls-5" d="M101.55,175.77c-4.72,2.79-9.3,6.09-14.6,7.42-4.94,1.25-11.39,3.17-16.4,1.84a.31.31,0,0,0-.18.6c4.92,1.83,11.19.11,16.09-1.07a38.06,38.06,0,0,0,15.47-8.22C102.23,176.09,101.88,175.58,101.55,175.77Z"/><path class="cls-5" d="M89,194c-7.07-.29-14.45-.95-21.08-3.86-.26-.11-.49.28-.3.48,2.33,2.41,6.68,2.63,9.74,3.25,3.86.79,7.8,1.44,11.7.73A.31.31,0,0,0,89,194Z"/></g></g></g><g id="PixelsASSETS"><g id="Cola"><rect class="cls-6" width="130" height="250"/></g></g></g></g></svg>