<svg xmlns="http://www.w3.org/2000/svg" viewBox="0 0 464 265"><defs><style>.cls-1{isolation:isolate;}.cls-2{fill:#fff;}.cls-3{fill:#42210b;}.cls-4{fill:#9fa1a4;}.cls-5{fill:none;mix-blend-mode:multiply;}</style></defs><g class="cls-1"><g id="Layer_2" data-name="Layer 2"><g id="Variacion_C" data-name="Variacion C"><g id="AssetsC2"><g id="HornA2"><g id="Capa_40" data-name="Capa 40"><path class="cls-2" d="M328.52,184.11c-.29-2.23-1.37-3.31-2.92-3.6a8.57,8.57,0,0,0,.11-2.32,4.43,4.43,0,0,0-.13-3.63l.07,0c-1.65-3.17-3.19-6.43-6.33-8.4-.34-.22-.69-.4-1-.59a13.15,13.15,0,0,0-4.95-5.06,1.71,1.71,0,0,0-.23-.13c-1.17-2.75-4.07-4.16-7.15-4.25l-3.43-.1a6.22,6.22,0,0,0-2.09.29l-12.19.42a6.21,6.21,0,0,0-3.15.91A71.33,71.33,0,0,1,268,151.4a6,6,0,0,0-6.85.52q-2.71-.9-5.46-1.74a5.31,5.31,0,0,0-2.39-.16Q247.7,134,242.08,117.9a4.61,4.61,0,0,0-1.1-1.75c-.85-2.3-1.7-4.59-2.57-6.89-1.88-5-9.87-3.13-8.21,2.19.68,2.19,1.38,4.36,2.06,6.55,0,0,0,.07,0,.11a46.11,46.11,0,0,0-.48,10,4.75,4.75,0,0,0-4,4.21c-2.82,17.78,5.91,33.43,15.11,48a5.5,5.5,0,0,0,2.27,2.07c1.42,2.58,3.93,4.54,6.16,6.37s4.34,3.51,7.07,4.16a13.17,13.17,0,0,0,3,1.54,7.14,7.14,0,0,0,4.08.24c1.2.78,2.42,1.54,3.7,2.23a5.63,5.63,0,0,0,2.65.72l2.31,1.78a7.41,7.41,0,0,0,2,1.14,81.5,81.5,0,0,0-.44,8.86c0,4.57,3.52,6.41,7.08,6.11-.37,1.62-.73,3.24-1.1,4.85a4.29,4.29,0,0,0,3.41,4.93,19.68,19.68,0,0,0-.59,6.83.88.88,0,0,0,1.4.57c4.79-3.95,6-10.67,8.78-16a46.52,46.52,0,0,1,11.52-13.61,136.69,136.69,0,0,1,14.78-10.38C323.9,190.82,329.1,188.5,328.52,184.11Z"/><path class="cls-2" d="M439.57,153.47a4,4,0,0,0-1.05-2,7,7,0,0,0,.54-5.46,25.33,25.33,0,0,0-3.71-7.17,8.28,8.28,0,0,0-1-1.11,41,41,0,0,0-10.52-11.89c-5.14-3.67-11.41-5.73-17.67-7.16L396,109.78a7.49,7.49,0,0,0-1-2.72,46.79,46.79,0,0,1-6.5-19.18c-.55-5.17-1.23-14.24,2.11-18.69A6.94,6.94,0,0,0,392,63.6,35.5,35.5,0,0,0,395.91,58c2.59-3.56-2.56-7-5.6-4.59a35.93,35.93,0,0,0-4.64,4.52,6.87,6.87,0,0,0-5.76,2.34,52.28,52.28,0,0,0-14,32.13,7,7,0,0,0-1.1,6.35,82,82,0,0,0,7.35,17.42q6.13,11.73,12.75,23.18a6,6,0,0,0,1.77,2c0,.18,0,.36,0,.53a6.29,6.29,0,0,0-1.32,2.47c-1.49,5.63-.42,10.74,2.29,15.78a7.07,7.07,0,0,0,.38.61,23.5,23.5,0,0,0-2.18,1.5,5.94,5.94,0,0,0,1,10.31,23.2,23.2,0,0,0-3.8,3.25c-.58.61.36,1.47,1,1,3.52-2.51,8.09-2.49,12.17-2.87a120.67,120.67,0,0,1,14.47-.82,73.19,73.19,0,0,1,13.37,1.58c4,.88,7.94,2.52,12,3a2.47,2.47,0,0,0,2.57-1.35,4.19,4.19,0,0,0,.92-1.85A45.63,45.63,0,0,0,439.57,153.47Z"/></g><g id="Capa_39" data-name="Capa 39"><path class="cls-3" d="M236.43,93.84c-1,7.77.54,15.56,2.06,23.21a98.15,98.15,0,0,0,5.13,18.21c5,12.1,14.16,20.05,27.19,22.32a63.23,63.23,0,0,0,19,0c8-1,15.71-2,22.56,3.19a35.66,35.66,0,0,1,11.29,15.84,38.58,38.58,0,0,1,2.26,9.76c.36,3.69,0,6.34,3.08,8.81a2.89,2.89,0,0,0,3,.12c5.16-3.52,2.94-11.45,1.58-16.62A48.56,48.56,0,0,0,325,161.28a35.4,35.4,0,0,0-13.86-11.17c-6.69-2.81-13.71-2.18-20.72-1.15-13.91,2-28.85,1.55-38.21-10.55-9.82-12.7-9.82-30.09-14.74-44.71a.55.55,0,0,0-1,.14Z"/><path class="cls-3" d="M234.44,95.91c-11,26.4-16.33,62.66,2,87.12a47.85,47.85,0,0,0,13.46,12.37c6,3.61,13.19,4.5,19.15,8.07,6.39,3.82,8.46,11.17,9.52,18.1s-.16,16.57,4.06,22.39a3,3,0,0,0,4.74-.43c2.87-6.12.52-15.16-.37-21.71-.8-5.89-2-11.94-5.18-17.09-7.36-12.11-22.51-11.54-32.72-20-10.42-8.6-16.29-22.06-17.92-35.26-2.25-18.12,3.48-35.22,6-52.94a1.43,1.43,0,0,0-2.75-.66Z"/><path class="cls-3" d="M435.59,181.39c10.08-5.91,8.63-24,6.41-33.71-2.58-11.29-10.91-21.7-20.57-27.88-5.47-3.5-11.6-5.85-17.18-9.15a25.17,25.17,0,0,1-12-16.23c-4.24-17,6-31.48,10.15-47.24a1.07,1.07,0,0,0-1.84-1c-17.93,19.65-25.28,57.12,2.52,71.66,11.53,6,23.51,11.21,30.11,23.28,2.92,5.32,3.93,11.32,4.18,17.32a42,42,0,0,1-.69,11.13c-.77,3.37-2.64,6.26-3.62,9.54-.42,1.41,1,3.2,2.55,2.32Z"/><path class="cls-3" d="M401.52,46.25l-.34-.28a2.13,2.13,0,0,0-2.15-.16c-5.47,2.33-10.82,6.31-15.84,9.51-4.69,3-9.35,6.25-12.89,10.59-8.07,9.91-11.44,25.39-8.58,37.78,3.13,13.64,14.18,23.44,18.39,36.57a48.06,48.06,0,0,1,1.16,22.61,62.45,62.45,0,0,1-2.5,9.72c-1.09,3.21-2.71,5.51-.55,8.54a2.05,2.05,0,0,0,1.95.68c5.35-.64,6.82-10.14,7.83-14.43a56.17,56.17,0,0,0,1.13-20c-1.68-13.3-9.46-22.74-16.29-33.73-8.18-13.14-8.29-28.29-.3-41.7,3.08-5.17,8.07-8.79,13-12,5.29-3.43,12-6.24,16.16-11a2.08,2.08,0,0,0,.15-2.15,1.79,1.79,0,0,0-.37-.54Z"/></g><path class="cls-4" d="M221,127.83c2.43-13.25,9.55-25.35,11.67-38.6.12-.75-.86-.9-1.19-.33-3.51,6-5.62,13.18-8,19.72a122.91,122.91,0,0,0-5.74,19.78c-2.4,13.39-2,27.95,3.22,40.64a1,1,0,0,0,1.85-.53C220.16,155,218.5,141.57,221,127.83Z"/><path class="cls-4" d="M270.26,227.06a29,29,0,0,0-5.05-11.44c-4.88-6.74-11.65-8.7-19.66-6.75a.72.72,0,0,0,.2,1.42c5.94-.31,12.22,4.57,15.64,9.31,2.09,2.88,2.92,6,4.16,9.24s2.52,5.89,3.17,9.25c.13.65,1.2.74,1.24,0C270.13,234.48,270.9,230.6,270.26,227.06Z"/><path class="cls-4" d="M242.2,209.74c-8.18,3.74-10.48,11.45-7.93,19.73.27.89,1.68.46,1.55-.44-.54-3.66-1.72-7.9.15-11.35,1.49-2.75,4.47-4.43,7.3-5.54C244.83,211.52,243.75,209,242.2,209.74Z"/><path class="cls-4" d="M377.85,50.56c-12.38,6.56-21.92,15.29-28,28.05-6.53,13.64-7.86,32-.18,45.42.64,1.11,2.62.78,2.32-.68-2.94-14.61-4.36-28.44,1.18-42.69,4.58-11.77,14.05-23,25.2-28.88C379.09,51.38,378.6,50.17,377.85,50.56Z"/><path class="cls-4" d="M414.23,106.65c-4.63-2.8-7.85-9.47-9.18-14.52-.18-.68-1.26-.58-1.12.15.39,2.06,1,4.06,1.4,6.11a14.13,14.13,0,0,0,1.63,5,14.93,14.93,0,0,0,6.23,5C414.26,109,415.27,107.28,414.23,106.65Z"/><path class="cls-4" d="M269.31,190.49c-11.25-6.84-21.66-14-27.51-26.23-6.15-12.94-4.6-26.41-6.32-40.13a.37.37,0,0,0-.73,0c-3.66,26.21,6.4,58.67,34.06,67.28C269.37,191.61,269.86,190.82,269.31,190.49Z"/><path class="cls-4" d="M311.11,165.18c-3.15-3-6.73-5.81-11.27-5.51a.16.16,0,0,0,0,.32c4.47.18,7.7,2.81,11,5.49C311.07,165.63,311.28,165.35,311.11,165.18Z"/><path class="cls-4" d="M306.14,163.78c-.23-.18-.48.16-.27.36,1.79,1.63,3.61,3.25,5.37,4.93a15.35,15.35,0,0,1,4.12,7.19c.11.36.75.45.75,0C316,170.16,310.48,167,306.14,163.78Z"/><path class="cls-4" d="M381.05,114.68c-7.27-10-10.56-20.8-8.88-33.21a.21.21,0,0,0-.42,0c-2.53,11.6.56,24.9,8.85,33.62A.29.29,0,0,0,381.05,114.68Z"/><path class="cls-4" d="M421.44,132.58c-.18-.15-.45.12-.29.3,7,8,9.5,16.92,9.67,27.4a.33.33,0,0,0,.66.07C433.72,150.21,429.06,139.23,421.44,132.58Z"/><path class="cls-4" d="M426.8,149.08c-.07-.13-.29,0-.26.11a53.12,53.12,0,0,1-.34,18.9c0,.19.28.28.33.09C428.26,162.27,430.08,154.72,426.8,149.08Z"/></g></g></g><g id="PixelsASSETS"><g id="Cuernos"><rect class="cls-5" width="464" height="265"/></g></g></g></g></svg>