<svg xmlns="http://www.w3.org/2000/svg" viewBox="0 0 464 265"><defs><style>.cls-1{isolation:isolate;}.cls-2{fill:#fff;}.cls-3{fill:#42210b;}.cls-4{fill:#ccc;}.cls-5{fill:none;mix-blend-mode:multiply;}</style></defs><g class="cls-1"><g id="Layer_2" data-name="Layer 2"><g id="Variación_B" data-name="Variación B"><g id="AssetsB2"><g id="HornA6_1"><path class="cls-2" d="M267.72,221.44a24,24,0,0,1-12.37,3,18.5,18.5,0,0,1-9.88-4.64,16.79,16.79,0,0,1-4.78-9.76c-.42-10.11,5.59-20.06,13.43-24.4,9.31-5.15,20.65-2.82,28.4,5.07,4.43,4.5,8.23,10,8.28,16.86a9.21,9.21,0,0,1,.2.91,1.52,1.52,0,0,1,0,.21l0,.58a52.19,52.19,0,0,0,.17,5.59c-.49,2.88-.72,5.86-1,8.65,1.1-1.83,2.29-3.6,3.55-5.3a111,111,0,0,1,10.34-12c3.51-3.54,7.86-6.46,11.05-10.36l.31-.35a1.89,1.89,0,0,0,0-.58l0-.14.18-.45a1.55,1.55,0,0,0-.66-1.76c-3.62-15.28-14.36-27.28-27-33.85-13.38-6.93-32.51-10.73-46-3.13-13.81,7.79-22.46,22.09-25,39-2.51,16.34,1.64,33.55,16,41.21a28.76,28.76,0,0,0,22.58,2c5.7-1.87,14.78-6.3,15.43-13.92A2.32,2.32,0,0,0,267.72,221.44Z"/><path class="cls-2" d="M434,174.8a10.15,10.15,0,0,0-1.24-.81c1.81-9.59,2.94-18.85.36-28.39a156.09,156.09,0,0,0-10.28-26.31c-8.13-17-23.91-25.55-40.5-28.77-31.72-6.14-61.62,31.6-48.07,65.79,7.07,17.84,28.91,21,41.85,8.24a1,1,0,0,0,.16-.24c.24-.06.48-.1.72-.18,2.06-.69,1.33-4-.64-3.81a1.36,1.36,0,0,0-1.62.3c-5,.77-9.61-1.1-13.84-4.21-4.61-3.38-6.12-8.69-5.77-14.7.78-13.28,11.92-17.55,22-18.45,10.27-.93,18,7.86,20.22,18.74,2.31,11.43-2.15,21-4.1,31.79-.53.23-1.05.48-1.55.75a.74.74,0,0,0,.16,1.37c7,1.23,14.84-.9,22-.76q5,.09,9.9.62c3.47.37,6.57,1.48,9.94.43A.83.83,0,0,0,434,174.8Zm-78.2-44.47.33-1.06a20.17,20.17,0,0,1,3.22-3A21.76,21.76,0,0,0,355.78,130.33Zm72.55,42a2.25,2.25,0,0,0,.68-1.7.61.61,0,0,0,0-.14,1.69,1.69,0,0,0,.27-.32c-.12.75-.26,1.51-.4,2.28C428.7,172.43,428.51,172.4,428.33,172.36Z"/><path class="cls-3" d="M267.48,215.41c-5.64,9.19-16,3.16-19.42-4.54-4.2-9.3,3.71-20.29,13-22.4,9.72-2.19,18.09,4.42,22,12.84a38.18,38.18,0,0,1,3.32,15.08,61.09,61.09,0,0,1-.3,7.53c-.11,1,.15,4-.36,4.85a2.07,2.07,0,0,0,1,3.06c6.88,2.88,7.06-9,7.13-12.5A47.57,47.57,0,0,0,289.16,197c-6.44-12.7-21.25-20.43-34.85-13.83-12.89,6.25-19,22.14-10.7,34.42,6.94,10.32,22.27,13.37,29.11,1.14,1.95-3.48-3.14-6.78-5.24-3.34Z"/><path class="cls-3" d="M317.7,199c2.8-8.16-.83-18.39-4.52-25.74a50.52,50.52,0,0,0-19.83-21.08c-17.12-9.86-39.91-10.3-57,0-16.12,9.69-26.27,28.36-26,47.12.3,17.93,10.07,39.74,28.38,45.62a29,29,0,0,0,26.76-5.21c7-5.67,13.64-17.91,6.66-25.92-1.77-2-5.75-.71-5.62,2.12.15,3.43.61,6.73-.67,10a18.65,18.65,0,0,1-7.72,9,21,21,0,0,1-19.51,1.63c-15-6.6-21.81-25.85-20.84-41.17,2.1-33.28,38.45-52.28,67.8-38A47.47,47.47,0,0,1,305,174.28a46.26,46.26,0,0,1,5.54,12.11c1.18,4.06,1.38,8.33,2.71,12.32.67,2,3.63,2.66,4.44.31Z"/><path class="cls-3" d="M376.44,154.62c-9.7,6.25-16.39-5.89-16-14.34.43-10,12.45-15.6,21.28-12.76,9.17,3,13.85,12.31,14.19,21.44a38,38,0,0,1-2.38,14.24,48.26,48.26,0,0,1-3.1,6.88c-.69,1.28-1.76,4.28-2.92,5.21a2,2,0,0,0-.23,2.86c5.63,5.39,10-4.84,11.74-8.81a46.12,46.12,0,0,0,4.1-22c-1-13.57-10.18-26.75-24.64-27.84-14.24-1.08-26.77,10.26-25.05,24.7,1.46,12.15,13.77,24.47,26,15.89,3.2-2.25.49-7.7-2.93-5.49Z"/><path class="cls-3" d="M435.33,179.18c4.2-7.7,3.11-18.46,2.51-26.91-.63-8.79-1.73-17.92-4.59-26.29-6.87-20.07-25.17-37.62-46.21-41.77a50.39,50.39,0,0,0-51.86,21.31c-11,16.57-12.43,42-.39,58.43,6,8.16,15.83,13.2,26,12.37,9.75-.8,24.12-9.19,20.54-20.87a3.28,3.28,0,0,0-6.27-.2c-1.46,4.24-2.93,8-7,10.45a19,19,0,0,1-11.52,2.41c-8.58-.8-15.1-6.54-18.72-14.09-7.65-16-4.36-37,7.67-49.88s30-16.44,46.57-10.51c16.23,5.81,29.17,20.68,34,37.08a126.09,126.09,0,0,1,4.46,24.38c.7,7.75-.25,15.57.56,23.25.2,1.91,3.24,2.54,4.17.84Z"/><path class="cls-4" d="M267.8,161.25c-17.39-3.92-36.13,8.4-42.52,24.31-6.17,15.35-2.78,41.81,16,47,.52.15,1-.59.47-.9-15.37-8.82-20.78-27.63-14.84-44.07a37.36,37.36,0,0,1,16.77-19.71c7.48-4.24,15.43-5.19,23.89-5.29C268.26,162.6,268.61,161.44,267.8,161.25Z"/><path class="cls-4" d="M286.4,174.77c-5-4.31-11.48-9.09-18.48-8.61a.35.35,0,0,0-.07.67c11.81,3.5,25.8,11.89,27.06,25.52,0,.6.89.46,1,0C297.34,184.87,291.58,179.2,286.4,174.77Z"/><path class="cls-4" d="M291.24,172.19c-.27-.25-.56.15-.41.41,2.46,4,5.46,7.63,7.63,11.83,3.06,5.93,3.83,11.64,4.17,18.21a.5.5,0,0,0,.95.08C306.35,192,298.85,179.3,291.24,172.19Z"/><path class="cls-4" d="M377.73,94.63c-13.8.58-31.08,8.44-36.09,22.18-5,13.58-3.26,32.46,6.51,43.46a.66.66,0,0,0,1-.88c-8.51-10.68-10-27.51-6.09-40.36,2.22-7.36,7.64-12.75,14.33-16.29s13.83-4.17,20.6-6.87A.66.66,0,0,0,377.73,94.63Z"/><path class="cls-4" d="M409.67,114.37c-8.53-12.59-22.8-18.52-37.4-13.23-.52.19-.21.92.27.87,7.78-.74,15.16-2.24,22.47,1.6,5.5,2.89,9.17,7.78,13.84,11.68C409.44,115.79,410,114.9,409.67,114.37Z"/><path class="cls-4" d="M416,133.94c-3.76-9.37-10.86-19.28-19.43-24.82-.56-.36-1.26.37-.8.89,6.26,7.07,12.73,13.08,16.76,21.85a45.69,45.69,0,0,1,4.12,15.94c.4,5.91-1.24,11.13-2.07,16.86-.1.69.89.94,1.24.42C421.63,156.52,419.59,143,416,133.94Z"/></g></g></g><g id="PixelsASSETS"><g id="Cuernos"><rect class="cls-5" width="464" height="265"/></g></g></g></g></svg>