<?xml version="1.0" encoding="utf-8"?>
<!-- Generator: Adobe Illustrator 26.0.0, SVG Export Plug-In . SVG Version: 6.00 Build 0)  -->
<svg version="1.1" id="Capa_1" xmlns="http://www.w3.org/2000/svg" xmlns:xlink="http://www.w3.org/1999/xlink" x="0px" y="0px"
	 viewBox="0 0 464 265" style="enable-background:new 0 0 464 265;" xml:space="preserve">
<style type="text/css">
	.st0{fill:#FFFFFF;stroke:#42210B;stroke-width:6;stroke-linecap:round;stroke-linejoin:round;}
	.st1{fill:#FFFFFF;stroke:#999999;stroke-width:3.93;stroke-miterlimit:10;}
	.st2{fill:#E6E6E6;}
	.st3{fill:none;stroke:#999999;stroke-width:3.93;stroke-miterlimit:10;}
</style>
<g>
	<g id="Capa_2_00000023239258538127766580000012718042417494982054_">
		<g id="AssetsE2">
			<g id="HornE2">
				<path class="st0" d="M290.9,235.8c0,0-60.4-114.2-63.4-126.2s46.7,16.7,63.4,28.8s47.8,50.9,47.8,50.9s-20.1,6.3-28.1,15.3
					S290.9,235.8,290.9,235.8z"/>
				<path class="st0" d="M384.6,180.9c0,0-7.1-73.3-10.1-89.3s3-28,8-24s60.4,116.2,60.4,116.2s-6.9-4.7-25.2-6.4
					C406.6,176.4,395.3,177.6,384.6,180.9z"/>
				<path class="st1" d="M270.7,181.7c0.8-5.4-0.2-10.8-2.7-15.6l-0.6-1c-4-6.7-12.8-10.9-22.6-8.4c-3.1-7.2-11.5-10.6-18.7-7.5
					c-0.2,0.1-0.4,0.2-0.5,0.2c-7.6-9.5-23.8-24.3-48.9-19.2C151.6,135.5,140,161,140,161c-8.7-8.1-26.8-4.6-35.6,3.8
					c-9.3,8.8-9.1,15.5-9.1,15.5c-6.1-3.9-16,0-17.7,5.9c-1.4,4.6,0.6,9.5,4.8,11.8l0.8,0.4c8.2,4.1,13.3,1.8,13.3,1.8
					c9.8,21.1,28.3,15.6,36.8,11.3c2.6-1.4,8.1-3.7,8.1-3.7s15.2,14.4,36.3,15.2c12.6,0.5,34.1-6.1,39.1-17.6
					c22.6,13,62.5,3,67.7-9.9C286.6,190.2,284.6,177.9,270.7,181.7z"/>
				<path class="st2" d="M284.5,194.3c-5.2,12.7-45.1,22.5-67.7,9.9c-5.1,11.3-26.6,17.8-39.2,17.3c-21.1-0.7-36.2-14.8-36.2-14.8
					s-5.4,2.3-8.1,3.6c-8.5,4.2-27,9.6-36.7-11c0,0-5.1,2.2-13.3-1.7l-0.8-0.4c0.9-0.2,1.9-0.4,2.7-0.6c12.1-2.8,28.3-14.2,39-3.6
					c-0.1-8.2-8.5-13.9-16.5-12.9c3.9-5.1,10.6-7.1,16.6-5.1c6.1,2.2,10,8.1,9.6,14.6c6.3-3.2,13.5-4.2,20.4-2.8
					c7.5,1.3,12.5,5.9,15.6,12.8c-2.3-12.2-8.8-19.1-21.4-18.3c-0.4-7,0.4-11.7,4.7-17.3s11.9-9,18.8-7.2s11.8,9.7,9.1,16.2
					c1.1-1.6,5.1-2.6,7.5-1.1c1.9,1.2,2.3,4.7,1.9,6.1c2.1-5.6,7.5-9.2,13.5-9c5.9,0.3,10.9,4.4,12.5,10.1c1-10.3-9-20.2-19.5-19.4
					c14.6-8,34.3-2.8,36.4,13.5c5.7-18.2,30.7-14.6,34.5-7.7c2.8,4.9,3.6,11.6,2.7,15.3C284.5,177.2,286.5,189.2,284.5,194.3z"/>
				<path class="st3" d="M270.7,181.7c0.8-5.4-0.2-10.8-2.7-15.6l-0.6-1c-4-6.7-12.8-10.9-22.6-8.4c-3.1-7.2-11.5-10.6-18.7-7.5
					c-0.2,0.1-0.4,0.2-0.5,0.2c-7.6-9.5-23.8-24.3-48.9-19.2C151.6,135.5,140,161,140,161c-8.7-8.1-26.8-4.6-35.6,3.8
					c-9.3,8.8-9.1,15.5-9.1,15.5c-6.1-3.9-16,0-17.7,5.9c-1.4,4.6,0.6,9.5,4.8,11.8l0.8,0.4c8.2,4.1,13.3,1.8,13.3,1.8
					c9.8,21.1,28.3,15.6,36.8,11.3c2.6-1.4,8.1-3.7,8.1-3.7s15.2,14.4,36.3,15.2c12.6,0.5,34.1-6.1,39.1-17.6
					c22.6,13,62.5,3,67.7-9.9C286.6,190.2,284.6,177.9,270.7,181.7z"/>
			</g>
		</g>
	</g>
</g>
</svg>
