<?xml version="1.0" encoding="utf-8"?>
<!-- Generator: Adobe Illustrator 26.0.0, SVG Export Plug-In . SVG Version: 6.00 Build 0)  -->
<svg version="1.1" id="Capa_1" xmlns="http://www.w3.org/2000/svg" xmlns:xlink="http://www.w3.org/1999/xlink" x="0px" y="0px"
	 viewBox="0 0 275 259.5" style="enable-background:new 0 0 275 259.5;" xml:space="preserve">
<style type="text/css">
	.st0{fill:#D3D3D3;stroke:#42210B;stroke-width:7;stroke-linecap:round;stroke-linejoin:round;}
	.st1{fill:#FFFFFF;stroke:#42210B;stroke-width:7.73;stroke-linecap:round;stroke-linejoin:round;}
	.st2{fill:#FFFFFF;stroke:#B3B3B3;stroke-width:3.34;stroke-linecap:round;stroke-linejoin:round;}
	.st3{fill:#FFFFFF;stroke:#B3B3B3;stroke-width:3.6;stroke-linecap:round;stroke-linejoin:round;}
</style>
<g>
	<g id="Capa_2_00000062885416724152896600000001246071046413805714_">
		<g id="AssetsE2">
			<g id="LoinE2">
				<path class="st0" d="M188.5,150c-6.7-15.3-6.7-40.6-10.9-74.3c-2.8-23-18.8-8.5-26.7,2.4s-16.6,18.5-28.1,28.6
					s-11.8,14.7-7.8,15.1s20.3,1.3,20.3,1.3s-3.6,11.8,0,12s16.3,5.7,16.3,5.7L188.5,150z"/>
				<path class="st1" d="M160,184.1c0,0-21.8-42.1-31.7-122.1c-3.8-31-25.6-11.5-36.3,3.3s-22.6,25-38.2,38.6s-16,19.9-10.5,20.4
					s27.6,1.8,27.6,1.8s-4.9,15.9,0,16.2s14.9,0,14.9,0s-0.2,26.3,11.6,24.4s11.8-5,11.8-5s-1.4,9.9,4.3,12s13.1-4.4,13.1-4.4
					s0.2,12.1,4.5,11.4s1.2-5.7,7.4-4.1s4.9,16.9,4.9,16.9"/>
				<path class="st2" d="M142.6,157.5c0,0-20.5-46.2-24.8-97.4c-0.8-10-29.4,24.5-29.4,24.5"/>
				<path class="st3" d="M77.3,101c0,0-1.7,14.5,3.8,12.6s13.1-11.5,13.1-11.5s-8.4,27.2-2.5,29.7s16.5-9.7,16.5-9.7s-4,17.4,1,19.2
					s14.6-7.6,14.6-7.6s-1.7,15.1,2.5,14.5s5.3-2.2,5.3-2.2"/>
			</g>
		</g>
	</g>
</g>
</svg>
