<svg xmlns="http://www.w3.org/2000/svg" viewBox="0 0 275 259.5"><defs><style>.cls-1{isolation:isolate;}.cls-2{fill:#fff;}.cls-3{fill:#e6e6e6;}.cls-4{fill:#42210b;}.cls-5{fill:none;mix-blend-mode:multiply;}</style></defs><g class="cls-1"><g id="Layer_2" data-name="Layer 2"><g id="Variacion_C" data-name="Variacion C"><g id="AssetsC2"><g id="LoinA2"><path class="cls-2" d="M223.36,112a22,22,0,0,0-7.15-13.94,26.27,26.27,0,0,0-8.94-8.3,18.09,18.09,0,0,0-5.13-2.94,16.86,16.86,0,0,0-7.86-1c-.23,0-.45,0-.68,0-.42,0-.83,0-1.24,0a23.9,23.9,0,0,0-4.6-6.37c-.17-.31-.33-.62-.51-.93s-1-1.81-1.41-2.52-1.09-2.6-1.06-2.53c-.16-.42-.29-.85-.44-1.28-.23-1-.47-2-.73-3a11.28,11.28,0,0,0-.42-1.32,19.13,19.13,0,0,0,.39-7.52c-1.5-10.09-9-17.54-19-19.67a28.87,28.87,0,0,0-19,2.59,30.58,30.58,0,0,0-12,1.92,31,31,0,0,0-10.88,2.47,22,22,0,0,0-3.43-2.29A22.62,22.62,0,0,0,117.14,44c-7.55-7.21-20-9.48-29.38-3.7A21.86,21.86,0,0,0,77.43,57.67a16,16,0,0,0-3.3,5.12A18.16,18.16,0,0,0,73,70.9a16.87,16.87,0,0,0,.23,8.42,17.76,17.76,0,0,0-19.78-.93,24.27,24.27,0,0,0-15.35,11,21.36,21.36,0,0,0-2.6,14.43c.32,8.23,5.56,16,12.73,20.09a24.39,24.39,0,0,0,6,2.39A20.74,20.74,0,0,0,63,129.81c-5.59,6.73-8.87,17.4-6.69,24.86a18.2,18.2,0,0,0,7.22,10.05A20.78,20.78,0,0,0,71,172.57a19,19,0,0,0,3.67,3.32,21.53,21.53,0,0,0,24.55.23l.13,0a26,26,0,0,0,8.19-3.15c.1.68.23,1.35.39,2A20.54,20.54,0,0,0,113.59,200c2.87,5.45,7.68,9.16,14.15,9.63h0c-.77.37,2.57,1.68,2.84,1.76a20.76,20.76,0,0,0,4.64.86,31.34,31.34,0,0,0,4.94-.07c6.23-.52,12.59-2.69,16.94-7.4a36.77,36.77,0,0,0,4.47-6.12c.48-.8.89-1.62,1.32-2.44s.52-1,.17-.51q-.93,1.13,1-1.41a20.91,20.91,0,0,0,1.75-3.06A31.52,31.52,0,0,0,181.7,178.1c4.36-7.82,6.06-20.39,2.38-28.89a22.26,22.26,0,0,0-1-9.17,20,20,0,0,0-1.11-9,20.63,20.63,0,0,0-4.72-7.52,16.92,16.92,0,0,0-3.8-4.35,23.92,23.92,0,0,0-1.19-2.17l.84,0,.49,0a25.43,25.43,0,0,0,8.24,10.18,16.79,16.79,0,0,0,4.1,9.23,18.6,18.6,0,0,0,.84,5.71,12.82,12.82,0,0,0,1.63,3.49,1.93,1.93,0,0,1,.94.07c.39.12.77.25,1.14.4a1.9,1.9,0,0,1,.61.1c5.7,1.85,14.2-.35,19.41,3.14a14.92,14.92,0,0,0,6.94-12.66c0-.84,0-1.66,0-2.48a30.72,30.72,0,0,0,3-8.33A23.79,23.79,0,0,0,223.36,112Zm-141-20.44c-.38.28-.74.59-1.1.89a21,21,0,0,0-1.35-4.56,12.77,12.77,0,0,0,5.14,2A25.32,25.32,0,0,0,82.31,91.57Zm41.86,4.15c.48,0,1,0,1.43-.09a13,13,0,0,0,.28,1.35A13,13,0,0,0,124.17,95.72Zm10.18,17.91a55.49,55.49,0,0,0-2.74-7.52,18.15,18.15,0,0,0,7.1,3.52l.11.05A28.3,28.3,0,0,0,134.35,113.63Z"/><path class="cls-3" d="M168.54,159.87A12.25,12.25,0,0,0,164.9,154a.64.64,0,0,0-.2.41c-.57,4.53.13,8.46-2.4,12.61-2.34,3.83-5.74,5.81-9.86,7.16,3.8-1.81,5.8-6.88,5.28-10.9-.43-3.29-2.82-7.48-6.37-8,5.92-7,2.46-20-3.58-25.78s-17.3-6.21-24.59-1.51c2.42-6.23,1.72-14-2.88-18.46-.77-.75-1.58-1.46-2.41-2.14a21.67,21.67,0,0,0-7.15-3.32c-7-1.82-13.78-.48-20.67,1.06a1.09,1.09,0,0,0-.24.69,5.15,5.15,0,0,1,.82.4c.4.24.79.5,1.19.79l.17-.06C99,111,103.08,120,104.59,127.55a36.92,36.92,0,0,1,.63,9.89,23.05,23.05,0,0,0-3.93-8.62c-5.69-7.32-18.07-12.35-27.08-8.31a15.36,15.36,0,0,0,1-11.77c-3.67-6.21-10.91-8.68-18.24-9.64,2.64,2.38,5.25,4.4,6.92,7.75a14.49,14.49,0,0,1,1,2.85,35.88,35.88,0,0,1,1.69,6.8.72.72,0,0,1,0,.29v0c0,.31,0,.61-.06.92a15.45,15.45,0,0,0-5.74-6.57c-.46-.48-.91-.92-1.34-1.3a20.87,20.87,0,0,0-2.13-1.61A40.51,40.51,0,0,0,48.92,106a26.9,26.9,0,0,0-7.49-.56,22.63,22.63,0,0,0-5.76,1.44,1,1,0,0,0,0,.51,1.84,1.84,0,0,0,0,.25,2.58,2.58,0,0,0,.15,2.88.89.89,0,0,0,.47.35c.24,1.23.5,2.46.75,3.69a1.2,1.2,0,0,0,1.85.62l.78,2.71a1.48,1.48,0,0,0,2,.81c0,.26.11.52.16.77a1.28,1.28,0,0,0,2.07.74c.19.59.38,1.18.61,1.77a1.43,1.43,0,0,0,2.16.77,1.66,1.66,0,0,0,2.56.19l.24,1.17c.26,1.31,2.16,1.31,2.81.35a1.61,1.61,0,0,0,2.48-.07,1.77,1.77,0,0,0,.46.31.94.94,0,0,1-.1.1c-1.3,1.37.6,3.31,2.11,2.39a5.94,5.94,0,0,0,1.23-.87,15.9,15.9,0,0,0,3.35-.9,11,11,0,0,0,1.39.06c.06.47.12,1,.22,1.43a1,1,0,0,0,1.5.52,1.24,1.24,0,0,0,.36.29,15.16,15.16,0,0,0-1.14,2.36,14.06,14.06,0,0,0-5.39,6.24,23.16,23.16,0,0,0-1.43,11.45,28.31,28.31,0,0,0-.11,8.45c.66,4.52,3.07,11,7.23,13.34a21.54,21.54,0,0,0,7.81,5.79c.38.25.76.5,1.16.72a19.63,19.63,0,0,0,4.26,1.7c3,3.37,7.62,4.07,12,2.32a11.92,11.92,0,0,0,7-2.08,27.34,27.34,0,0,0,3.49-1.13,7,7,0,0,0,7.42-1.74l.3-.35a28.19,28.19,0,0,0,.17,10.12c-1.25,7.5-.13,16,7.34,17.18a12.3,12.3,0,0,0,1.94.14c.38.22.75.45,1.16.64a9.35,9.35,0,0,0,8.06.36,9.45,9.45,0,0,0,2.39,2.37,7.47,7.47,0,0,0,2.58,1.08,5,5,0,0,0,.69,1.18.93.93,0,0,0-.44.94l-.2.11a1.42,1.42,0,0,0-.45.51l-.33.07c-1.55.35-1.07,2.81.48,2.73.5,0,1,0,1.48,0,0-.09.09-.14.16-.13.32.06.65.1,1,.14h.22c0-.27.06-.56.23-.57,2.56,0,5,.47,7.6.14a35.37,35.37,0,0,0,7.24-1.88,27.54,27.54,0,0,0,3.82-1.74l.74-.48a16.37,16.37,0,0,0,2.66-2.37l.12-.19c.06-.13.12-.15.18-.11.3-.31.62-.61,1-.9,2.14-5,3.44-12.93.91-17.8,4-.92,7.52-4.64,9.44-8.3l.06-.29a48.66,48.66,0,0,0,1.53-8.55A27,27,0,0,0,168.54,159.87Zm-53.8-51.33a17.37,17.37,0,0,0-1.5-1.36c.75.48,1.49,1,2.23,1.59A1.56,1.56,0,0,0,114.74,108.54Zm6.64,8.79,0-.17c0-.12,0-.25,0-.37h0a13.5,13.5,0,0,0-.63-2.32,10.24,10.24,0,0,1,1,4C121.61,118.12,121.51,117.72,121.38,117.33Z"/><path class="cls-3" d="M205.9,118.67a12.25,12.25,0,0,0-3.64-5.91.64.64,0,0,0-.2.41c-.57,4.53.13,8.47-2.4,12.62-2.33,3.82-5.74,5.8-9.86,7.15,3.8-1.81,5.8-6.87,5.28-10.9-.42-3.29-2.82-7.48-6.37-8,5.93-7,2.46-20-3.58-25.78s-17.3-6.21-24.58-1.51c2.41-6.22,1.71-14-2.89-18.46-.77-.74-1.58-1.46-2.41-2.14a21.67,21.67,0,0,0-7.15-3.32c-7-1.82-13.78-.48-20.67,1.06a1.09,1.09,0,0,0-.24.69,6.18,6.18,0,0,1,.82.4c.4.24.8.51,1.19.79l.17-.06c6.94,4.14,11.07,13.1,12.59,20.64a37.38,37.38,0,0,1,.62,9.9,23,23,0,0,0-3.93-8.62c-5.69-7.33-18.07-12.35-27.08-8.31a15.39,15.39,0,0,0,1-11.78c-3.67-6.21-10.91-8.68-18.24-9.64,2.64,2.38,5.25,4.4,6.92,7.75a14.49,14.49,0,0,1,1,2.85A35.79,35.79,0,0,1,104,75.31a.68.68,0,0,1,0,.28v0c0,.31,0,.62-.06.92A15.24,15.24,0,0,0,98.21,70a18.09,18.09,0,0,0-1.34-1.31,20.14,20.14,0,0,0-2.13-1.61,41,41,0,0,0-8.46-2.24,26.52,26.52,0,0,0-7.49-.55A22.21,22.21,0,0,0,73,65.7a1,1,0,0,0,0,.51,2.38,2.38,0,0,0,0,.26,2.59,2.59,0,0,0,.15,2.87.89.89,0,0,0,.47.35c.24,1.23.5,2.46.75,3.69a1.2,1.2,0,0,0,1.85.62l.78,2.71a1.17,1.17,0,0,0,.33.53,2.84,2.84,0,0,0,.23,2.89,24.11,24.11,0,0,0,2.49,4.13,9,9,0,0,0-.69,2.51A2.77,2.77,0,0,0,82,89.68,2.81,2.81,0,0,0,84.9,87.1a4.78,4.78,0,0,0,.06-.53,4.69,4.69,0,0,0,.33-.4c.1-.15.19-.3.28-.46a2.52,2.52,0,0,0,2.86-1c.15-.28.31-.57.45-.85a1.6,1.6,0,0,0,.76-.56,1.61,1.61,0,0,0,2.48-.07,1.81,1.81,0,0,0,.46.32l-.1.1a1.46,1.46,0,0,0,.25,2.27c.27-.08.53-.17.82-.23a18,18,0,0,1,1.89-.2,4.09,4.09,0,0,0,.38-.33l.67-.11a4.59,4.59,0,0,1,.66-.42,6.55,6.55,0,0,1,5-.58,8.46,8.46,0,0,1,5.33,2A11,11,0,0,1,115,90.15c.15.18.28.37.42.56s.48.27.73.43a11.42,11.42,0,0,1,3.9,5c4.86,1.31,8.42,10,9.84,15.77l.32.36a19.17,19.17,0,0,1,3.31,6.53,11.16,11.16,0,0,1,1-.86l3.75-3a3.53,3.53,0,0,1,3.86-.72c.8-.29,1.63-.56,2.49-.79a13.56,13.56,0,0,1,4.32-2.35c6.34-2,12.34,2,18.26,3.86a5.74,5.74,0,0,1,3,2.94,7.47,7.47,0,0,1,1.52.31c7.9,2.47,10.45,13,11.25,20.12.11,1,.19,1.93.24,2.9a53.34,53.34,0,0,1,.34,5.82,4.58,4.58,0,0,1,4.3-.91l-.21-.06.25.07c.21,0,.44.12.66.19.45.13.91.24,1.36.36a24.44,24.44,0,0,1,6.87.73,10.38,10.38,0,0,0-.82-2.21c4-.93,7.52-4.65,9.44-8.31l.06-.28a48.93,48.93,0,0,0,1.53-8.56A27,27,0,0,0,205.9,118.67ZM152.1,67.34A19.17,19.17,0,0,0,150.6,66c.75.48,1.49,1,2.23,1.59A1.56,1.56,0,0,0,152.1,67.34Zm6.64,8.79a1,1,0,0,1,0-.17l-.06-.37h0a13.15,13.15,0,0,0-.63-2.31,10.19,10.19,0,0,1,1,4A12.29,12.29,0,0,0,158.74,76.13Z"/><path class="cls-4" d="M225.72,100.38a30.44,30.44,0,0,0-15.56-17.54c-5.4-2.57-13.42-4.54-19.5-2.35,1.64-9.28-2.32-20.23-6.81-28.16-4.7-8.32-12.26-14.66-21.64-16.94a32.57,32.57,0,0,0-25.47,4.15,36.49,36.49,0,0,0-8.85,8.08,27.26,27.26,0,0,0-1.9-4.31,17.71,17.71,0,0,0-9.91-8.44c-9.11-3.35-20.34-4.56-28.83.87A39.76,39.76,0,0,0,71.54,56.11,42.3,42.3,0,0,0,69.23,74a25.37,25.37,0,0,0-10.69-1.88C47.21,72.9,37.2,80.84,32.62,91A29.33,29.33,0,0,0,37.2,122.3c4.3,4.81,12.59,9.2,20.08,9.25a20.48,20.48,0,0,0-2.67,3.8,30.81,30.81,0,0,0-3.82,12.15c-.88,9,3,18.08,9.19,24.53a40.62,40.62,0,0,0,24.41,11.83,53.29,53.29,0,0,0,17.23-.8c-.08.45-.16.9-.22,1.33a24.94,24.94,0,0,0,3.46,16.76,26.42,26.42,0,0,0,13.22,10.67c5.26,1.92,14.92,3,19-1.62,1.15-1.31,1.6-3.92-.38-4.89-4-1.93-7.93-.44-12.22-.71A18.13,18.13,0,0,1,111.61,198a17.42,17.42,0,0,1-3.86-12.55,16.75,16.75,0,0,1,1.27-4.81,22.27,22.27,0,0,0,6.18-4.1,3.66,3.66,0,0,0-3.34-6.17c-3.84.74-7.37,2.7-11.13,3.81a43.17,43.17,0,0,1-12,1.88,33.23,33.23,0,0,1-21.54-7.45,25.68,25.68,0,0,1-9.68-18.74A26.16,26.16,0,0,1,59,139.78a45.26,45.26,0,0,1,3.12-6c.58-1,1.07-2.35,1.67-3.49a12.44,12.44,0,0,0,3.11-2c1.7-1.5.78-4.82-1.66-4.8-3.92,0-7.54,1.42-11.54.87a19.72,19.72,0,0,1-11.89-6.19c-5.81-6.41-7.09-15.93-3.91-23.85,3.25-8.1,10.86-14.68,19.6-16a17.72,17.72,0,0,1,8.63.83,1.88,1.88,0,0,0,.68.89l.25.07c5.17.43,8.7,5.95,10.5,10.42a.42.42,0,0,1,0,.1c1,1.12,2.11,2.12,3.15,1.89a2,2,0,0,0,1.56.13c5.89-2,13.22-8,19.58-6.82,5.52,1.06,11.52,4.4,16.06,7.62A27.23,27.23,0,0,1,128.46,108c.38,1.24.59,5.91,1.62,8.38-.19.44-.38.87-.54,1.33a1.78,1.78,0,0,0,2.37,2.22c7.82-3.07,14.46-8,23.25-7.7a27.87,27.87,0,0,1,20.5,10.28c5,6.19,6.84,14.23,6.58,22.05a47.62,47.62,0,0,1-1.68,11c-.93,3.41-3,6.72-2.14,10.28a2.84,2.84,0,0,0,4,1.92c4-2.11,5-7.34,6.09-11.43a55,55,0,0,0,1.81-15.42c-.34-9.76-3.65-19.54-10.65-26.56a36,36,0,0,0-26-10.44c-5.85.19-12.69,1.87-17.73,5.5.33-10.52-9.12-20.23-17.93-25.18C112.49,81.12,105,77,98.46,78c-5.95.85-12.53,5.27-16.72,10-.09-.21-.19-.42-.31-.64a13.1,13.1,0,0,0-3.8-7.89c-.85-7-1.87-12.86.32-19.85a33,33,0,0,1,11.3-16.46c7.12-5.4,15.16-3.94,23.16-1.4,4.22,1.33,7,3.27,9,7.35a20.44,20.44,0,0,0,2.15,4.18,1,1,0,0,0,0,.1.58.58,0,0,0-.15.4v.5c0,.41.37.53.68.42a4.84,4.84,0,0,0,.7,1.64,8,8,0,0,0,.55,2.21,1.93,1.93,0,0,0,2.54.92c2.62-1.26,4.15-3.9,5.9-6.14A29,29,0,0,1,142,45.88a24.33,24.33,0,0,1,20.13-2c7.36,2.5,12.12,8,15.72,14.62,3.5,6.48,4.62,13.39,6.73,20.18a.65.65,0,0,0-.28.74c.12.44.24.9.35,1.35a.53.53,0,0,0-.07.55l.55,1.41c.19.78.38,1.56.6,2.33a4.1,4.1,0,0,0,2.91,4.37c3.13.73,6.13-.07,9.3.18a24.25,24.25,0,0,1,8,2.11,21.23,21.23,0,0,1,12,14.83c1.69,7,.52,14.37-1.35,21.21-2,7.43-5.91,13.7-8.84,20.71-1.2,2.88,3,5.5,5.1,3.3,6-6.18,10-15.84,12.47-24C227.89,119.06,228.75,109.1,225.72,100.38Z"/></g></g></g><g id="PixelsASSETS"><g id="Espalda"><rect class="cls-5" width="275" height="259.5"/></g></g></g></g></svg>