<svg xmlns="http://www.w3.org/2000/svg" viewBox="0 0 160 195"><defs><style>.cls-1{isolation:isolate;}.cls-2{fill:#c2b6d5;}.cls-3{fill:none;mix-blend-mode:multiply;}</style></defs><g class="cls-1"><g id="Layer_2" data-name="Layer 2"><g id="Variación_B" data-name="Variación B"><g id="AssetsB2"><g id="HamA2"><path class="cls-2" d="M73.25,82.46c5.89-.35,7.16-10.09,6.77-14.53a23.25,23.25,0,0,0-9.46-16.4c-4.82-3.34-12-2.33-17.26-.42A18.22,18.22,0,0,0,42.09,63.55c-2.92,10.08,2,27,15.72,22.37a13.08,13.08,0,0,0,8.58-12.1c0-4.9-4.69-11.07-9.75-7.69a1.91,1.91,0,0,0,.12,3c1.39,1,3.88,2.13,4.63,3.64,1.28,2.54-1.15,5.81-3.14,7.08a7.27,7.27,0,0,1-10.83-3.69c-2.23-5.62-.67-13.89,4.22-17.73,2.88-2.26,6.78-2.93,10.36-2.82,4.18.12,7.09,2.73,9.19,6.25a17.74,17.74,0,0,1,2.42,10.65c-.29,3.25-2.41,6.12-1.48,9.33a1.06,1.06,0,0,0,1.12.62Z"/><path class="cls-2" d="M84.44,86.36c-1.5,5.38,7.12,8.83,11.11,9.67a22.45,22.45,0,0,0,18.23-4.52c5-4.31,6.09-12.11,5.4-18.31a18.3,18.3,0,0,0-9.9-14.15c-5-2.67-11.73-4.14-17.16-2-5.19,2-8.93,7.78-7.91,13.39.92,5.07,5.3,9.73,10.5,10.42,4.62.62,11.23-2.55,9.06-8a1.9,1.9,0,0,0-2.93-.64c-1.45,1.36-4.53,3.76-6.53,3.57-2.79-.25-4.53-3.75-4.77-6.15-.46-4.67,3.11-7.9,7.55-8.09,7-.31,15,3.82,16.23,11.18,1.44,8.28-2.9,15.57-11.34,16.94a17.77,17.77,0,0,1-10-1.34c-2.29-1-4.1-3-6.71-2.6a1,1,0,0,0-.81.65Z"/><path class="cls-2" d="M81.07,91c-1.77-5.63-11.64-4.37-15.79-2.88A23.32,23.32,0,0,0,52.52,100c-2.76,5.87-.46,12.42,2.86,17.67a18.13,18.13,0,0,0,14.7,8.3c10.62.57,26.25-8.56,18.22-20.86a13.07,13.07,0,0,0-13.89-5.24c-4.72,1.29-9.46,7.34-4.93,11.38a1.91,1.91,0,0,0,2.87-.89c.55-1.5,1.08-4.46,2.35-5.41,2.32-1.71,5.79-.43,7.62,1.28a7.3,7.3,0,0,1-.83,11.43c-5.4,4-14.77,4.17-19.57-.86-5.49-5.76-5.41-13.79.35-19.15a17.58,17.58,0,0,1,9.13-4.48c3-.49,6.44.83,9.12-.77A1.1,1.1,0,0,0,81.07,91Z"/></g></g></g><g id="PixelsASSETS"><g id="Pierna"><rect class="cls-3" width="160" height="195"/></g></g></g></g></svg>