<svg xmlns="http://www.w3.org/2000/svg" viewBox="0 0 130 250"><defs><style>.cls-1{isolation:isolate;}.cls-2{fill:#39b54a;}.cls-3{fill:#8cc63f;}.cls-4{fill:#42210b;}.cls-5{fill:none;mix-blend-mode:multiply;opacity:0.4;}</style></defs><g class="cls-1"><g id="Layer_2" data-name="Layer 2"><g id="Variacion_A" data-name="Variacion A"><g id="AssetsW4"><g id="TailW4"><path class="cls-2" d="M117.66,169.6c2.55-1.42,8.93-5,7-7.35s-1.63-1.7-6.73,1.14-3.78,5.58-5.7,6.64-4.66-.44-5.61.95,0,1.72,1,3.77-.57,5.52-1.87,4.51-4.15-2.9-4.46.31-.57,7.7,2.06,11.44,2,5.82.73,6.53-4.87-3.36-5.48-1.28.77,7,1.76,9.67,4.23,4.35,3,6.78-7.13,1.51-7.13,1.51l-.43-13.79-2.79-5s4,.8,5-.59,1.27-.71-.69-3.09-2.62-3.75-2-4.1,4.53-4.26,3.32-6.62-4.08-1.64-4.44-4,4.11-4.89,5-8,1.56-3.47.59-3.8-2.05-1.46-1.85-2.44,1.75-4.45-.24-8.55-4.23-3.72-4.28-7.16,3.45-6.26-.09-6.89-5.13,1.12-5.51-3,4-11.78.11-14.81-7.68,2.53-10-2.25.49-10.69-2.41-11.67-6.95,3.35-8.63,1.07.8-8.87-1.19-13-6.8-4-8.36-.55-1.51,6.91.81,11.7,6.57,10.22,4,11.64-6.79-1-6.89,2.32.56,4.67,3.77,4.62,11.53-2.94,11.61,2.22-9,7.85-7,10.51,7.79,1.19,8.45,2.56,1.32,2.73-1.23,4.15-5.36,7.32-3.4,9.7,11.61,2.22,12.88,1.51,4.16-1.44,2.91,1-2.53,3.14-.26,4.48,5.77-1.47,7.09,1.26a9.05,9.05,0,0,1,.41,5.85s-.49,10.69-1.72,14.84-3.38,11.42-3,12.1A5.27,5.27,0,0,1,86,198c-.2-.73-.92-1.77-3.21-2.54-3.88-1.32-6.76-.58-6.17-4.38s3.09-8.66.16-11.37-11.27-1.54-14.21-4.24-2.1-12.71-1.82-15.47-1.35-4.46-3.95-6.48-4.93,2.36-4.93,2.36a11.66,11.66,0,0,1-3,4.65c-2.24,2.11-5.43,3.88-4.1,6.61s7.22,3.49,7.37,6.16S49.06,180,49.06,180l-7.17-1.75s-2.13,1.88-3.9-1.77-6.34-8.06-8.91-8.36-3.27-3.39-4.26-5.44-1-2-3.9-3-2-5.82-1.4-7.9,1-3.89-.7-6.06-4.52.29-4.9-3.83.76-4.33,0-6.3a29,29,0,0,0-3.06-5l-5.68-4.21s.29,5.38.84,6.64A11.29,11.29,0,0,1,7.29,139c-.29,2.76-3.8,2.62-3.15,3.74s5.43,6.4,3.57,7.37S3,155.27,4.34,158s9.08,5.36,8.13,6.75-5.38,5.6-2.45,8.31,10.33,2.93,12.24,1.87,8.44,5.71,9.43,7.76,9.06,3.65,11.94,2.91,15,6.73,18.81,6.62,11.84,1.49,12.53,4.58,1.1,3.93,0,6.63-2.71,4.44-1.38,7.17,4.94,8.53,4.94,8.53l8.21,11.92s-3-6.15-2.39-9.95,1.53-5.19,1.53-5.19,1.94.66,2.27,1.34-.94,1.4.38,4.13,1.81,3.42,3.2,4.77,2.46-3.11,1.81,2.22-1.84,6.08-.73,8.46,1.3,6.95,2.22,8.16c0,0,.49-.48,1-1,.52-.83,1.41-2.11,2-3-.09-1.43,3.38-5.65,5-6a64.3,64.3,0,0,1,8-9c-.31,0-2.07-.12-2.51-.11-3.21.05-5.17-1-3.89-2.37s9.87-7,13-10.53,3.45-6.25,1.82-8-5.74,3.2-6.45-1.61,2.19-3.83,3.78-5.58,4.12-5.76.42-4.57-3.33,3.59-4.65.85a6,6,0,0,1,2.14-7.26c1.92-1.07,8.18-4.55,6-6.79s-3.2-2.56-6.39-.78-5.46.43-4.84-1.65S115.11,171,117.66,169.6Z"/><path class="cls-2" d="M38.79,208.78a6,6,0,0,0,3.6-1.56c1.46-1.47,2.64-4.48,5.31-5.64s3.88-5,6.14-2.68.32,5.4,3.65,7,8.41,1,8.94,3.3,1.68,3.06,1.33,6.31-2.17,10.69.09,10.53,7.2-1.47,9.62.8,10.47,11.23,10.47,11.23l3,1.72s-3.84,6.15-6.38,5.59-3.08-2-7.22-2.67-7.81.82-9.46-3-1.41-7.24-5.67-6.22-6.81.48-6.56-3,3.31-8.46-.38-9.58-7.21-.41-7.33-3.68,2.93-5.44,2.12-7.58-8.49,1.52-8.49,1.52l-3.24.27Z"/><path class="cls-3" d="M46.11,96.27s-5.48-.11-10.72-7.8-7.67-10-8.85-7,2.61,11,4.68,12.32a15.78,15.78,0,0,0,4.61,1.92s3.32,1.88-.92,5.39-7.3,5.67-5.94,9.24-1.85,3.3-2.1,6.73,1.38,7.72.71,8-4.2,7.32,2.66,7,9.94,1.65,10.75,3.79,0,8.29,3.65,7.56,7.32-3.2,8,.66-2.77,7,2,7.42,13.18,2,13.18,2-4.31-5.2-3.37-8.86-1-4.81-2.33-6.15a11.56,11.56,0,0,1-3.06-8.05c.25-3.43.47-5.92-5.65-6.21s-10.57-5.84-9.11-8.14,6.45-3.43,10.4-7.34,1.12-9.32-1.42-9.87A52.1,52.1,0,0,1,46.11,96.27Z"/><path class="cls-3" d="M22.58,125.23s-1.11-7-7.67-10-9.88-1.51-8.4.34,6.35,1.47,9.26,3.48A57.44,57.44,0,0,1,22.58,125.23Z"/><path class="cls-3" d="M24.48,179.27s1.71-5.2,3-8.12l1.31-2.92s4.56-2,6.77,1.63,3.89,11,7.59,9.08,5.14-8.4,8.62-7.42a6.84,6.84,0,0,1,4.52,3.59s-1.52,4.06,3.3,8.7,12.31,8,12.31,8A10.65,10.65,0,0,1,77,197.1l1.8,4.72-1.35,2.57s-6.71-5.39-9-5.24-13.84,7.41-15.2,2.33-.74-13.66-2.81-14-8.85,4.28-11.54,1.29-1.65-8.42-5.25-7.69-3.3,5.6-6.26,1.9Z"/><path class="cls-3" d="M17.75,191.93s-3.77-5.58-6.44-4.42S8,189,9.19,190.1a18,18,0,0,1,3.5,5.12c.54,1.43,2.29,4,4.29,3.12s4.53-4.47,5.89,1.18-.1,7.94,4.83,6.62.81,2.14,5.77,5,3,3.7,6.68,1.25,6.06-8.7,6.06-8.7-5.15,5-6.5,1.41.1-5.86-3.5-5.13-3,5.55-6,.16-.2-8.27-5.13-7-2.51,3.59-4.93,1.32S17.75,191.93,17.75,191.93Z"/><path class="cls-3" d="M96.67,242.66s-9.64-.87-11.39-3.43,3-7-.27-10.2-7.71-8.77-6.92-10.78,7.57-6.62,7.57-6.62a25.79,25.79,0,0,0,1.1,11.07c1.92,5.07,3.82,10.06,5.84,13.34S96.67,242.66,96.67,242.66Z"/><path class="cls-3" d="M96.6,240.44s1.47-4.3,0-6.14-5.19-4.49-3.76-6.31,7.48-3.55,7.19-4.71-4.41.65-5.9-2.45-1.07-4,1.11-5.43,1.28-3.05,0-4.8-3.14-4-1.3-4.52,4.76-.73,5-2.21-.54-3.62-.42-5.34-.84-5.46-1.8-10.44-1.89-5.41-.71-8.42,4.64-6.18,4.89-9.61a17.93,17.93,0,0,0,0-4.56s-3.06,2.58-6.54,1.6-8.16-3.09-5.59,3.68,6.6,9.18,3.93,10.34-7.34-1-6.65,2.91-.15,3.38,1.95,5,12.14,9.67,13,11.81S99,214.12,101,217.39a12.13,12.13,0,0,1,.86,10.44c-1.19,3-4,8.32-2.9,11.17,0,0-2.31,2.73-2.33,2.66S96.6,240.44,96.6,240.44Z"/><path class="cls-4" d="M94.33,247S94,240,111,226C120,218.59,94.33,247,94.33,247Z"/></g></g></g><g id="Layer_94" data-name="Layer 94"><g id="Cola"><rect class="cls-5" width="130" height="250"/></g></g></g></g></svg>