<svg xmlns="http://www.w3.org/2000/svg" xmlns:xlink="http://www.w3.org/1999/xlink" viewBox="0 0 464 265"><defs><style>.cls-1{isolation:isolate;}.cls-2{fill:url(#Degradado_sin_nombre_7);}.cls-3{fill:#69a7cf;}.cls-4{fill:#fff;}.cls-5{fill:#42210b;}.cls-6{fill:none;mix-blend-mode:multiply;opacity:0.4;}</style><radialGradient id="Degradado_sin_nombre_7" cx="273.51" cy="133.24" r="122.97" gradientUnits="userSpaceOnUse"><stop offset="0.05" stop-color="#e6e8ea"/><stop offset="0.13" stop-color="#dce4ea"/><stop offset="0.32" stop-color="#c9dde9"/><stop offset="0.53" stop-color="#bed8e9"/><stop offset="0.74" stop-color="#bad7e9"/><stop offset="1" stop-color="#afd3e8"/></radialGradient></defs><g class="cls-1"><g id="Layer_2" data-name="Layer 2"><g id="Variacion_C" data-name="Variacion C"><g id="AssetsW4"><g id="HornE4"><g id="Capa_44" data-name="Capa 44"><path class="cls-2" d="M399.84,165.56c-4-.77-8-1.09-12-1.61A84.5,84.5,0,0,1,369,159.58c-5.72-2.15-11.09-5-16.94-6.84a5.39,5.39,0,0,1-3.87-5.38,190.65,190.65,0,0,1-28.44-12.85,5.22,5.22,0,0,1-7.68,1c-6.92-5.38-13.51-10.8-21.07-15.32-7.92-4.73-16.13-9-24.21-13.43-13.95-7.7-27.87-16-38.35-28.28a60.19,60.19,0,0,1-6.75-9.6q-3-2.6-5.88-5.44c-4.2-4.2-8.23-8.57-12.19-13a26,26,0,0,0-2.77-.38,125.09,125.09,0,0,0-10-9.07,39.45,39.45,0,0,0-5.33-3.59c-.17-.63-.32-1.27-.46-1.9l-.19.05a9.49,9.49,0,0,0-1.7-3.11c-.37-1.83-.68-3.68-1-5.53-2.57-2.63-5.21-5.2-7.95-7.68a5,5,0,0,1-1.7-4.24c-.31,0-.62-.05-.94-.05a9.93,9.93,0,0,0-3.58.71c-1.31,11.56-3.65,23-4.39,34.63a286.84,286.84,0,0,0,.06,35.67c.18,3.08.41,6.14.68,9.21q2.84,3.2,5.8,6.28.75,2.57,1.53,5.12a14.34,14.34,0,0,0,1.33,3,285.78,285.78,0,0,0,19,54.54c1.88,5.59,3.89,11.2,6.17,16.66l.1.06c4.6,2.89,8.5,7.13,12.07,11.17,8.66,9.83,16.7,20,25.74,29.52q1.62,1.72,3.27,3.43a19,19,0,0,0,2.7-.25q1.83,1.84,3.63,3.73c7.92,4.43,15,10.34,22.79,15,3.82,2.25,7.79,4.38,11.75,6.58.67-.27,1.33-.58,2-.92a11.42,11.42,0,0,1,1.09-2.86,56.42,56.42,0,0,1,8.37-20.38c4.81-11.6,12.46-21,22.42-28.88,14.27-11.33,32.44-16.61,49.68-14.19a35,35,0,0,1,7.1.81,20.86,20.86,0,0,1,3.69,1.26c.15.07.27.16.41.24,6.39-4.82,16.6-12.33,25.93-13.36A21,21,0,0,0,399.84,165.56Z"/><path class="cls-3" d="M285.6,183.46a1.23,1.23,0,0,0-.58-1.24,13.17,13.17,0,0,0-1.75-.85h0c-12.09-8.67-24.56-16.31-35.95-26a260.93,260.93,0,0,1-28.7-28.5,261.22,261.22,0,0,1-24-32.81c-3.55-5.69-6.83-11.54-9.91-17.49-2.66-5.12-4.62-12.14-8.5-16.37a.36.36,0,0,0-.6.25,12.7,12.7,0,0,0,.15,1.6.6.6,0,0,0-.61.68,240.81,240.81,0,0,0,7.15,35.9,93.61,93.61,0,0,0,2.37,9.47,54.9,54.9,0,0,0,2.21,6.43c.05.19.11.38.17.56a254.14,254.14,0,0,0,19.61,47.84,186.89,186.89,0,0,0,26.68,37.55c8.79,9.5,19.22,19.45,31.08,25.29.93.7,1.93,1.32,2.89,2a15.56,15.56,0,0,0,1.34,1v0a.57.57,0,0,0,.59-.09l.06,0c0,.15,0,.3.05.45a0,0,0,0,0,.08,0c1.74-3,2.17-6.78,3.06-10.14,1-3.7,2-7.38,3.26-11a150.06,150.06,0,0,1,10.14-23.22A.92.92,0,0,0,285.6,183.46Z"/><path class="cls-4" d="M289,141.37c-22.56-14.42-44.53-29.32-64.73-47-10.31-9-20.16-18.55-28.48-29.46C188,54.66,181.18,43.59,173.05,33.53c-.32-.4-.94.11-.7.54C186,57.66,202.63,78.89,223,97c19.79,17.58,41.6,33.73,65.23,45.75A.79.79,0,0,0,289,141.37Z"/></g><g id="Capa_41" data-name="Capa 41"><path class="cls-5" d="M166.72,13.74c-7.32,17.81-7.72,39-6.32,58a221.56,221.56,0,0,0,11.9,57.84,223.49,223.49,0,0,0,83.29,108.91c8.35,5.77,18.34,12.43,28.54,14,4,.62,7.56-4.91,3.18-7.14-8-4.07-16.05-7.33-23.59-12.3a195,195,0,0,1-20.93-16,220,220,0,0,1-34.13-37.43,222.57,222.57,0,0,1-39.41-99.81C166.47,59,164.8,35.66,171.44,15.4c1-3.08-3.5-4.63-4.72-1.66Z"/><path class="cls-5" d="M412.31,168c-9-3.43-18.74-4.92-28-7.46-9-2.47-17.94-5.41-26.72-8.67a348.65,348.65,0,0,1-52.31-24.75c-33.41-19.15-64.32-42.81-93.4-68A191.46,191.46,0,0,1,189.63,37c-6.6-7.91-12.39-16.79-18.16-25.33-1-1.5-3.71-.24-3.23,1.5,5.11,18.71,17.59,33.39,31.61,46.36,14.34,13.28,29.67,25.68,45.22,37.49,31.62,24,65.59,45.13,102.58,59.8a281.81,281.81,0,0,0,30.9,10.28c10.71,2.88,22.26,6,33.42,5.32,2.44-.15,2.31-3.76.34-4.51Z"/></g></g></g></g><g id="Layer_94" data-name="Layer 94"><g id="Cuerno"><rect class="cls-6" width="464" height="265"/></g></g></g></g></svg>