<svg xmlns="http://www.w3.org/2000/svg" xmlns:xlink="http://www.w3.org/1999/xlink" viewBox="0 0 464 265"><defs><style>.cls-1{isolation:isolate;}.cls-2{fill:url(#Degradado_sin_nombre_7);}.cls-3{fill:#69a7cf;}.cls-4{fill:#fff;}.cls-5{fill:none;mix-blend-mode:multiply;opacity:0.4;}</style><radialGradient id="Degradado_sin_nombre_7" cx="242.2" cy="111.78" r="143.74" gradientUnits="userSpaceOnUse"><stop offset="0.05" stop-color="#e6e8ea"/><stop offset="0.13" stop-color="#dce4ea"/><stop offset="0.32" stop-color="#c9dde9"/><stop offset="0.53" stop-color="#bed8e9"/><stop offset="0.74" stop-color="#bad7e9"/><stop offset="1" stop-color="#afd3e8"/></radialGradient></defs><g class="cls-1"><g id="Layer_2" data-name="Layer 2"><g id="Variacion_B" data-name="Variacion B"><g id="AssetsW4"><g id="Capa_39" data-name="Capa 39"><path class="cls-2" d="M134.61,28.85q-1.31.81-2.64,1.59c3.91-1.17,7.77-2.57,11.66-3.85Q139.13,27.78,134.61,28.85Z"/><path class="cls-2" d="M332.59,202.22c-1.14.58-2.26,1.19-3.33,1.86l11.67-4.7C338.12,200.25,335.34,201.19,332.59,202.22Z"/><path class="cls-2" d="M415.31,154.39c.81-4.12,1.8-8.2,2.76-12.28-.13-.35-.25-.69-.4-1,0-.15,0-.31,0-.46-.22-2.27-.55-4.48-1-6.64h.08l-.33-1.24q-.6-2.79-1.41-5.46c-4.16-16.31-8-33.13-15.56-48.16a1.93,1.93,0,0,1-1.68-.25,26.2,26.2,0,0,1-10-13.15,2.4,2.4,0,0,1-.12-.58c-.16-.17-.31-.34-.47-.5a2,2,0,0,1-2.73.56C379.37,62.05,374.37,59,370,55c-6.6-1.24-13-3.58-19.28-6-1.73-.5-3.46-1-5.17-1.62a120.07,120.07,0,0,1-12.45.46,1.71,1.71,0,0,1-1.32-.54c-5.51,1-11.23.89-16.85,1.52a2,2,0,0,1-2.17-1.46c-4.8.76-9.63,1.32-14.48,1.61-3.67,1-7.39,1.71-11.11,2.42l-.05,0,0,0c-8.16,1.55-16.38,2.82-24.41,5a2,2,0,0,1-1.59-.21,25.45,25.45,0,0,1-4.46.25A2.05,2.05,0,0,1,253.17,58a28,28,0,0,0-2.36-2.06,29.4,29.4,0,0,0-3.56,2.46l-.17.1c-1.86,0-3.71,0-5.56,0a36.89,36.89,0,0,0-4.23-12.23,16.37,16.37,0,0,1-3.19-1.74,1.79,1.79,0,0,1-1-.16,69.88,69.88,0,0,1-10.25-6.22c-3-1.49-6-2.95-9-4.45-.75-.39-1.72-.79-2.79-1.23a1.69,1.69,0,0,1-2.17,1.38,47.55,47.55,0,0,1-9.72-3.78c-4.95.34-9.85-2.24-13.37-5.81a117.37,117.37,0,0,0-19.58,1.41,140.13,140.13,0,0,0-24.45,5.75c-6.92,2.36-13.81,4.82-21.14,5.37-5.29,2.89-10.6,5.77-15.72,8.92-2,1.59-3.93,3.19-5.87,4.82-2.68,2.24-5.23,4.8-8,7-3.47,5.56-8.87,10.13-12.7,15.36a127.44,127.44,0,0,0-8.79,13.67,22,22,0,0,0,1.56,1.79l1.58-1a51.36,51.36,0,0,1,6.86-5,2.29,2.29,0,0,1,.84-2.92c6.18-3.53,14.71-9.28,22.31-8.33l.06,0c6.86-2,14.39-4.11,21.56-2.92a1.8,1.8,0,0,1,.81-2,2,2,0,0,1,2.3-.42,18.72,18.72,0,0,1,4.23,2.48,12.18,12.18,0,0,1,1.48,0,.8.8,0,0,1,.15,0,2.19,2.19,0,0,1,3.1.07,2,2,0,0,1,1.3,1,2.58,2.58,0,0,1,.82.19,2.29,2.29,0,0,1,.64,0c5,.85,8.85,4.64,12,8.58a16.33,16.33,0,0,1,1.69,2.2,2,2,0,0,1,.29,1.62s0,0,0,0a1.82,1.82,0,0,1-.33,2.68,52.27,52.27,0,0,1,2.91,11.37,160.55,160.55,0,0,1,2.15,27.61,2.25,2.25,0,0,1-2.13,2.2c0,.27.09.53.13.79a1.79,1.79,0,0,1-.06.81,29.72,29.72,0,0,0,3,3c3.92,7,9.52,11.94,18.47,13.14a24.49,24.49,0,0,0,15.18-2.79,24.27,24.27,0,0,0,8-.46c7.57-4.22,17.25-4.48,25.57-5.75a1.7,1.7,0,0,1,1.2.23,21.93,21.93,0,0,1,5.87-1,1.93,1.93,0,0,1,.76-.47,34.49,34.49,0,0,1,15-1.22c6.34-.76,13.86,1,20.39,3.56.53-.18,1.05-.37,1.57-.59.16.49.35,1,.53,1.46.47.21.93.41,1.39.63a2.17,2.17,0,0,1,3.33.53l.78,1.57.6.33a1.64,1.64,0,0,1,.66,2.16h0a2.08,2.08,0,0,1,2,.14c6.5,4.11,10.68,12.29,12.14,19.65a1.72,1.72,0,0,1-.83,1.93,101.17,101.17,0,0,1,5.5,22.72c.17,1.6-1.84,3-3.1,2.05a92.93,92.93,0,0,1,.3,10.29,98,98,0,0,1,.48,10.16,1.78,1.78,0,0,1-.34,1.1.59.59,0,0,1,0,.13c.21.06.41.13.62.18a27,27,0,0,0,5.26.63,1.93,1.93,0,0,1,.47-2,95.47,95.47,0,0,1,36.62-23.6,56.53,56.53,0,0,1,20.62-3.59l.86,0a38.23,38.23,0,0,1,15.21,1.4,39.56,39.56,0,0,1,4.3,1,78.49,78.49,0,0,1,33.89-16.7,2.05,2.05,0,0,1,1.11.06,26.31,26.31,0,0,0,2.12-2.49,2.16,2.16,0,0,1-.32-3.74,7.46,7.46,0,0,0,2.63-4.28A2.07,2.07,0,0,1,415.31,154.39Z"/><path class="cls-3" d="M354.28,137c-3.4-5.91-7.75-11.2-12-16.47-1.56-1.92-3.05-4-4.57-6l-2.56-2.29a49.77,49.77,0,0,1-6.57-6.5,75.22,75.22,0,0,0-13.66-6.52c-14.92-5.32-31.24-5.93-46.85-4-16.85,2.07-32.61,8.06-49.17,11.36-9.72,1.94-20.78,3.32-30.66,1.61a18.64,18.64,0,0,1-9.67-4.54c-4.49-3.92-6.86-8.88-8.57-14.3.15,13.84,1.61,31.15,16.61,37,7.37,2.88,15.41,1,22.66-1.26,9.5-3,18.79-6.2,28.62-8.09,10.23-2,21-3.3,31.48-2.8,10.73.52,17.64,7.42,24.55,14.95,4.9,5.35,7.79,11.27,10,17.67,1.67,3.14,3.24,6.34,4.63,9.64a164.7,164.7,0,0,1,8.32,26.83c1.32-.77,2.59-1.66,3.91-2.33a78.7,78.7,0,0,1,10-4.18A108.5,108.5,0,0,1,352.62,172a100.16,100.16,0,0,1,15.14-.87C364.62,159.27,360.26,147.39,354.28,137Z"/><g id="Capa_40" data-name="Capa 40"><path class="cls-4" d="M384.1,84.62c-6.85-8.48-17.11-13.56-27-17.77a93,93,0,0,0-27.47-7.49c-1.67,0-3.34,0-5,0a.39.39,0,0,0,.19.19c16.37,8.32,31.89,17.15,44.3,31A115.46,115.46,0,0,1,395,137.69c0,.07,0,.15,0,.23a45.23,45.23,0,0,1,1.42,6.73c.22,1.28.41,2.57.56,3.86.37-1.08.73-2.16,1.06-3.26C403.31,125.13,397,100.64,384.1,84.62Z"/><path class="cls-4" d="M222.66,57.34c-9-15.39-29-22-45.78-23.06-19.32-1.2-41.92,3.16-57.43,15.34-.26.21.07.54.32.43,8.79-3.85,16.7-8.54,26.1-10.91A101,101,0,0,1,175,35.87a65.23,65.23,0,0,1,27.14,7.05c7.53,3.85,13.42,9.36,19.26,15.37A.79.79,0,0,0,222.66,57.34Z"/><path class="cls-3" d="M182.5,131.45c-4.39-2.67-8.45-5.21-11.33-9.61s-3.71-9.75-4.92-14.91a.29.29,0,0,0-.57.08c.57,10.3,5.69,22.06,16.61,24.93A.27.27,0,0,0,182.5,131.45Z"/><path class="cls-3" d="M359.8,133.86a177.78,177.78,0,0,0-12.72-16c-4.58-5.2-9.31-10.47-15.5-13.77a.38.38,0,0,0-.38.65c5.62,3.93,9.6,9.84,13.95,15.05a200,200,0,0,1,13,17.11,110.36,110.36,0,0,1,9.49,17.41c2.6,6,4,12.46,6.77,18.36.38.81,1.69.39,1.66-.45C375.7,158.91,367.21,144.48,359.8,133.86Z"/><path class="cls-3" d="M198.32,98.28C182,93.43,181,72.63,168.56,63.14c-11.4-8.69-29.29-11.25-43-7.42a.5.5,0,0,0,.13,1c9.19.25,17.66-1.14,26.75,1.49,8.28,2.4,15.78,7,20.67,14.22,6.77,10,10.14,27,25,27.53A.84.84,0,0,0,198.32,98.28Z"/><path class="cls-3" d="M165.08,99.45a1.27,1.27,0,0,0,0,2.53A1.27,1.27,0,0,0,165.08,99.45Z"/><circle class="cls-3" cx="164.08" cy="92.88" r="1.45"/><path class="cls-3" d="M164.66,81a2.61,2.61,0,1,0,2.61,2.61A2.66,2.66,0,0,0,164.66,81Z"/></g></g></g></g><g id="Layer_94" data-name="Layer 94"><g id="Cuerno"><rect class="cls-5" width="464" height="265"/></g></g></g></g></svg>