<svg xmlns="http://www.w3.org/2000/svg" viewBox="0 0 275 259.5"><defs><style>.cls-1{isolation:isolate;}.cls-2{fill:#c7b299;stroke:#42210b;stroke-linejoin:round;stroke-width:6.91px;}.cls-2,.cls-4,.cls-5{stroke-linecap:round;}.cls-3{fill:#a67c52;}.cls-4,.cls-7{fill:none;}.cls-4{stroke:#754c24;stroke-width:5.94px;}.cls-4,.cls-5{stroke-miterlimit:10;}.cls-5{fill:#f15a24;stroke:#c1272d;stroke-width:2.83px;}.cls-6{fill:#f7931e;}.cls-7{mix-blend-mode:multiply;opacity:0.4;}</style></defs><g class="cls-1"><g id="Layer_2" data-name="Layer 2"><g id="Variacion_A" data-name="Variacion A"><g id="AssetsW4"><g id="LoinW4"><path class="cls-2" d="M14.5,213c3,8,11.34,12.84,15,15,9,5.29,25.13,2.76,35,7,16.26,7,34.91,9.88,52,12s35.74,4.88,41,5.72,75.17,3.1,84.38-7.28,17-29.54,18.6-43.44-3-33.72-3-34c1-8,4-21.23,2-26,0-.09-23-29-42.85-34.4s-17.43-5.39-17.43-5.39-32.05-21.29-49.33-21.35-22.57,5-22.57,5-23.94-13.69-44.16-8.7A47.25,47.25,0,0,0,54.31,98s-24.52,8.74-32.8,19.59-9.18,30.32-9.18,30.32-5.11,10.6-5.28,15.67C5.92,197.93,11.26,204.37,14.5,213Z"/><path class="cls-3" d="M76,184.5s24.52,4.61,38,8a143.37,143.37,0,0,0,24,4s-.17-25.25.56-34.9,2.57-14.61,1.36-17.35-23-16-24.72-17.6-11.5-2.06-11.73-.27,17.18,11.73,19,18.31.88,24.84-11.37,30.73-31.47,2.68-31.47,2.68Z"/><path class="cls-3" d="M142,198.5s24.13,6.55,35,8a38.69,38.69,0,0,0,20-3s-8.38-41.05-8.07-44.9-31.91-13-31.91-13,23.9,14.49,25,18-3.11,24-7.4,26.4-32.9-8.15-32.9-8.15Z"/><path class="cls-3" d="M201.61,191l4.68,18s16.78,5.37,25.33-2.74,15-15.57,15.6-18.95-27-43.29-27-43.29l-20.18,9.93s11.55-.94,15,.14,15.86,12.27,17.11,16.48-6,14.61-11.54,16.44-21.92-2.71-21.92-2.71Z"/><path class="cls-3" d="M226.52,116.53l-1.29,19.34s1.47-9,7.63-5.54,14,12.23,14.94,18.83S246,170.44,246,170.44l4.17,10.23L254,168.5l4-24S249,135.31,242.46,127A30.92,30.92,0,0,0,226.52,116.53Z"/><path class="cls-3" d="M61.09,102.2s19.58,6.69,25.84,12l6.27,5.33s-14.6,50.76-15.76,49.61-2.62,15-18.44,12.34c-30-5-41-32.68-41-32.68s.14-12.73,4.17-19.11S28.59,122,28.59,122s8.87,21.29,20.62,22.2,20.85,4.35,26.12-7.76S61.09,102.2,61.09,102.2Z"/><path class="cls-3" d="M97.31,117.76s1-4.77,10.91-13.43a88.13,88.13,0,0,1,18.63-12.72l-9.82-3s-12.84,18.54-21.55,15.87S64,97,64,97s19.58,8.53,25.78,12A15.65,15.65,0,0,1,97.31,117.76Z"/><path class="cls-3" d="M106.83,120.7A197.53,197.53,0,0,1,127.31,127c10.13,3.82,18,11.62,18,11.62l-3.22-42.33L131.4,93s10.32,12.14,5.73,15.55-21.92,2-21.92,2Z"/><path class="cls-3" d="M148.77,97s11.25,5.64,19.38,6,11.7.67,11.7.67L188,151.84s-25.59-8.87-29.61-9.15a26.82,26.82,0,0,1-8.65-2.67l-.33-17.91s21,17.36,23.78,9.53,1.14-20.34-5.56-22.72-19.3-7-19.3-7Z"/><path class="cls-3" d="M184.43,105.1l11,43s14.31-5,16.75-9.44-4.74-18.54-7.89-21.08a36.29,36.29,0,0,0-5.17-3.62s6,18.18,1,15.8S184.43,105.1,184.43,105.1Z"/><path class="cls-3" d="M202.54,106.75,222.82,113l-3.75,16.09a16.39,16.39,0,0,0-5.85-10.43A82.66,82.66,0,0,1,202.54,106.75Z"/><path class="cls-3" d="M149.14,92.59A70.35,70.35,0,0,0,164.51,95c9.55.58,12.54-.86,12.54-.86s-10.94-6.54-15.13-7.84-12.14-1.39-12.14-1.39Z"/><path class="cls-4" d="M16,155.5s4.09,19.06,26,28c8.1,3.3,14.44,5.94,19.23,7.95A64.91,64.91,0,0,0,82,196.5a70.93,70.93,0,0,1,23.51,5.61c9.72,4.06,17.58,4.25,23.1,3.38a16.53,16.53,0,0,1,13.29,3.94c4,3.43,11.82,6.76,26.91,6.36L199,215s25.44,4.53,36.56-4.19S248,196.5,248,196.5"/><path class="cls-3" d="M14.16,170.16a2.9,2.9,0,0,0-3.95,3.08c.67,4.87,1.62,11.78,1.79,13.26.28,2.33,7.21,11.61,6.81,12.27-.26.44,6.67-4.47,11.43-7.88a3.69,3.69,0,0,0,0-6,60.47,60.47,0,0,1-8.25-6.61c-3.07-3.14-5.38-5.85-6.39-7.07a3.59,3.59,0,0,0-1.39-1Z"/><path class="cls-3" d="M25,200.5s-4.36,3.36-4,4c1.45,2.6,4.72,6.13,7.73,9.33,6.27,6.67,12.32,5.81,12.32,5.81s9.84-21.27,8-20.95-5.67,8-12.86,5.67S30,196.5,30,196.5Z"/><path class="cls-3" d="M48,211.84l-.15,9.74s7.54,3.42,13.89,3.95,14.81,3.65,16.25,2.73-.73-19.54-.73-19.54-4.42,4.46-9.07,6-8.66,2.92-11.77.84-7-5.48-7.6-5.24S48,211.84,48,211.84Z"/><path class="cls-3" d="M85.82,220c-1.68.78-4.67,1.11-3.13,4.36s3.39,8.42,5.77,7.72,16.06.95,18.58.93,3.89-8.68,1.84-14.82-1.6-8.37-5.71-7.56a88.13,88.13,0,0,1-10.61,1.07s11.32,4.21,9.09,5.75S85.82,220,85.82,220Z"/><path class="cls-3" d="M116.36,218.61a90.89,90.89,0,0,0-2.06,10.1c-.26,3.08-3.63,4.1.82,4.84s13.6,2.9,19.61,3.91,13.74,8.26,13.85,4.28-3.46-26-4.06-25.18-9-5.16-9-5.16,1.87,13.25-2.64,12.33S116.36,218.61,116.36,218.61Z"/><path class="cls-3" d="M151.13,230.5S150.46,244,152.47,245s17,1.68,18,2.35S173.61,223,173.23,223s-2.95,8.47-9.2,8.66A64,64,0,0,1,151.13,230.5Z"/><path class="cls-3" d="M176.56,234.56s-2.68,10.81-.91,11,12.83-3.55,19.13-1.55,9.05-9,6.84-15.18-2.4-10-3.41-7.68-6.91,17.55-11.56,15.1-10.54-5.85-10.54-5.85Z"/><path class="cls-3" d="M206.5,230.38s-.79,11.57.61,12,8.94,1.13,14.45,1.28,6.72,2.89,7.1-1.73-4-20.4-4.41-20.41-5.54,11.71-7.3,10.82S206.5,230.38,206.5,230.38Z"/><path class="cls-3" d="M231,231.59s2.14,8.87,2.12,9.1,2.28.94,6-6.59,7.55-19.77,7.84-22.84S240,217,239.23,218s-2.87,9-3.7,10.32S231,231.59,231,231.59Z"/><path class="cls-5" d="M60.52,97.3c1.48-1.15,3-2.5,4.65-3.94,8-7.19,17.37-16.71,23.26-12,8.49,7.07-9.19,23.33-2.12,32.52,2.83,3.54,13.43.71,20.88.08,2.28,0,4.44,0,6.31.17a16.76,16.76,0,0,1,4.58.91c6.76,2.73,10.2,6.19-3.54,11.88s-27.9,10.19-27.9,10.19,6.47,42.71-1.7,40.32-24.79-28.75-29.73-30.32-30.42,13.06-35,5.3c-1.52-2.59-.37-5.87,1.84-9.11a37.83,37.83,0,0,1,3.9-4.72c18.65-9.85,6.63-24.7-.44-38.13a3.12,3.12,0,0,1,.71-3.54c10.61-3.53,18.38,12.73,28.55,5Z"/><path class="cls-6" d="M31.88,145.34a2.48,2.48,0,1,0-2.48,2.47A2.47,2.47,0,0,0,31.88,145.34Z"/><path class="cls-6" d="M84.31,87.77A3.3,3.3,0,0,0,80,85.6c-1.41.71-.71,3.54,1.69,4.33A2.39,2.39,0,0,0,84.31,87.77Z"/><path class="cls-6" d="M112.47,120.6a2.48,2.48,0,1,0-2.47,2.47A2.48,2.48,0,0,0,112.47,120.6Z"/><path class="cls-6" d="M84.19,165.84a2.48,2.48,0,1,0-2.47,2.48A2.48,2.48,0,0,0,84.19,165.84Z"/><path class="cls-6" d="M42.48,139a3.89,3.89,0,1,0-3.89,3.89A3.89,3.89,0,0,0,42.48,139Z"/><path class="cls-6" d="M42.11,106.73a2.92,2.92,0,0,0-3.37-3,4.16,4.16,0,0,0-3.59,3.75,2.93,2.93,0,0,0,3.34,3A4,4,0,0,0,42.11,106.73Z"/><path class="cls-6" d="M78.56,98.61c-.73-3.11-5.68-5.94-7.8-2.4-.71,2.82,0,5.65,3.56,5.87A4,4,0,0,0,78.56,98.61Z"/><path class="cls-6" d="M100.45,124.13A3.89,3.89,0,1,0,96.56,128,3.89,3.89,0,0,0,100.45,124.13Z"/><path class="cls-6" d="M80.66,155.24a3.89,3.89,0,1,0-3.89,3.89A3.89,3.89,0,0,0,80.66,155.24Z"/><path class="cls-6" d="M53.09,131.2a4.6,4.6,0,1,0-4.6,4.6A4.6,4.6,0,0,0,53.09,131.2Z"/><path class="cls-6" d="M51.72,113a3.87,3.87,0,0,0-4.25-4,4.89,4.89,0,0,0-4.34,4.51,3.91,3.91,0,0,0,4.17,4A4.56,4.56,0,0,0,51.72,113Z"/><path class="cls-6" d="M71.48,110.69a4.52,4.52,0,0,0-4.57-4.6,4.6,4.6,0,1,0,4.57,4.6Z"/><path class="cls-6" d="M76.42,142.51a4.6,4.6,0,1,0-4.6,4.6A4.59,4.59,0,0,0,76.42,142.51Z"/><path class="cls-6" d="M86.31,127a4.6,4.6,0,1,0-4.59,4.59A4.59,4.59,0,0,0,86.31,127Z"/></g></g></g><g id="Layer_94" data-name="Layer 94"><g id="Espalda"><rect class="cls-7" width="275" height="259.5"/></g></g></g></g></svg>