<svg xmlns="http://www.w3.org/2000/svg" viewBox="0 0 275 259.5"><defs><style>.cls-1{isolation:isolate;}.cls-2{fill:#d2bea5;}.cls-3{fill:#cfc0c7;}.cls-4{fill:#fff7f6;}.cls-5{fill:#9c8f7d;}.cls-6{fill:#42210b;}.cls-7{fill:none;mix-blend-mode:multiply;opacity:0.4;}</style></defs><g class="cls-1"><g id="Layer_2" data-name="Layer 2"><g id="Variacion_C" data-name="Variacion C"><g id="AssetsW4"><g id="LoinW4"><path class="cls-2" d="M218.3,151.37l-.37-.34.22-.4c2.14-4.36.24-10-4.36-11.65a9.53,9.53,0,0,0-5.76-.28c1.81-3.92-.89-9.7-5.47-9.95a6.87,6.87,0,0,0-4-.09c-.84-4.18-3.79-7.65-8.65-6.92a3.35,3.35,0,0,0-2.25,1.43,13.15,13.15,0,0,0-3.9-.63,8.67,8.67,0,0,0-1.39-3.43c-3-4.53-7.92-4.5-12.29-2.21-6.42.65-14,4.71-17.48,9.85a2.54,2.54,0,0,0-.19-.65c-1.66-3.51-5.15-4.81-8.73-4.6a11.13,11.13,0,0,0-4.77.32c-4.63,1.34-10.73,5.13-12.36,10.12a5.73,5.73,0,0,0-3.06-2.37l-2.7-.9a7.56,7.56,0,0,0-5.28-1.68c-1.19.06-2.37.16-3.55.28a7.79,7.79,0,0,0-6.11-.75c-5,1.52-10,2.63-14.43,5a7.22,7.22,0,0,0-2.07.17c-3.84.92-5.54,4.11-5.63,7.85a7.32,7.32,0,0,0,.94,3.93c0,.11,0,.23-.08.34-.1-.09-.19-.19-.3-.28-5.06-4.16-11.87-1.35-15.56,3.16a16.61,16.61,0,0,0-3,3.41,14.52,14.52,0,0,0-1.91,4.4l-.2.28c-6.15.41-10.8,8.09-11.77,13.69a16.77,16.77,0,0,0,.19,6.13c-.53,4.75.82,9.41,5.53,11a9.73,9.73,0,0,0,3.17.54l.33,1.87a7.51,7.51,0,0,0,1.19,2.87c1.11,4.4,5.92,5.81,9.8,4.47l.36.49a12.61,12.61,0,0,0,1.31,2.56A6.83,6.83,0,0,0,77,201c2.27,2.7,6.28,3.07,9.33,1.65a15.31,15.31,0,0,0,3.42,6.66,14,14,0,0,0,1,1.74A6,6,0,0,0,99,212.88a7.58,7.58,0,0,0,6.09.29,8.41,8.41,0,0,0,3.12-1.85,10.61,10.61,0,0,0,1.61-1,17.41,17.41,0,0,0,3.25,3,8.7,8.7,0,0,0,4.15,1.6,8.52,8.52,0,0,0,4.53,2.35,16.49,16.49,0,0,0,10-1.21,6.82,6.82,0,0,0,.66-.34c.44-.19.87-.41,1.3-.63,1-.27,2-.62,3-1a10.14,10.14,0,0,0,6.08,1c.16.08.35.18.62.29a6.37,6.37,0,0,0,3.05,1.11,22.57,22.57,0,0,0,3.66.62,27.44,27.44,0,0,0,19.71-6.57,9.08,9.08,0,0,0,.81.83c4.19,3.66,10,2.51,13.35-1.61a21.68,21.68,0,0,0,4.13-10.62,9,9,0,0,0,1.74-.37c5,2.27,11.71-.3,15-4.94a11.38,11.38,0,0,0,1.74-3.77c5-1.72,9.62-7.69,11.41-12.21a10.32,10.32,0,0,0-1.44-10c0-.57-.11-1.14-.19-1.71C221.48,163.81,223,156.1,218.3,151.37Z"/><path class="cls-3" d="M98.71,137.07c-4.89,3.32-8.72,8.64-12.61,13.05a117.53,117.53,0,0,0-10.95,14.11c-6.56,10.16-11.68,21.84-13.44,33.87a1.61,1.61,0,0,0,3.15.64c2.85-12.21,7.06-23.63,14.08-34.11a142.17,142.17,0,0,1,10.15-13.06c3.6-4.22,8.18-8.34,10.72-13.31C100.15,137.61,99.48,136.55,98.71,137.07Z"/><path class="cls-3" d="M87.29,143.92a50.59,50.59,0,0,0-14.24,8.23,23.13,23.13,0,0,0-6.93,4,.66.66,0,0,0-.65-.09c-6.77,3.21-14.11,10-12.5,18.07a12.82,12.82,0,0,0-.62,4.86.54.54,0,0,0,.64.46,15,15,0,0,0,0,4.95.69.69,0,0,0,1.33.08c1.65-3.79,2.37-7.87,4.26-11.59a46.3,46.3,0,0,1,8.23-11.27,83.9,83.9,0,0,1,11.39-9.45c3.21-2.3,6.9-4.27,9.67-7.1C88.28,144.65,88,143.68,87.29,143.92Z"/><path class="cls-3" d="M104.52,135.72c-3.33,1.3-5.44,5.73-7.31,8.57A145.4,145.4,0,0,0,87,162.15a93.25,93.25,0,0,0-6.5,18c-.46,1.91-1,4.09-1.42,6.35a1.18,1.18,0,0,0-.19.51l-.09.54a1.52,1.52,0,0,0-1.27,1c-.06.19-.1.39-.16.58a1.3,1.3,0,0,0-.53.94c-.25,1.81-1.7,5.85-.64,7.89a1.36,1.36,0,0,0,1,1.12,1.51,1.51,0,0,0,1.38.58,22.22,22.22,0,0,0,.55,2.49c.36,1.3,2.63,1.05,2.42-.36s-.37-2.68-.49-4c1.64-4.71,1.12-10.31,2.19-15.23A87.4,87.4,0,0,1,89.1,165.2c4.54-10.07,11.25-18.75,16.3-28.48A.69.69,0,0,0,104.52,135.72Z"/><path class="cls-3" d="M121.36,214c-4.82-11.79-6.33-24.4-7.74-37-1.51-13.47-2.46-27-4.07-40.42-.1-.81-1.06-.91-1.61-.52a1,1,0,0,0-1.6,0c-2.45,4.76-4,10-5.68,15.06A183.68,183.68,0,0,0,95,170.09c-.59,2.61-1.07,5.24-1.48,7.89a1.59,1.59,0,0,0-1.14,1.31q-1.77,9.63-2.76,19.36a17.78,17.78,0,0,0-1.31,8.87,1.81,1.81,0,0,0,3.28.8c.14.72.32,1.44.53,2.16a1.51,1.51,0,0,0,1.39,1.13c.85,1.53,3.55,1.16,3.3-.9-.47-3.75-.71-7.5-.83-11.26q.15-6.22,0-12.45c.58-5.14,1.27-10.27,2.3-15.33,2.23-11,7.15-21.38,9.38-32.33.07,3,.16,5.94.29,8.9a1.42,1.42,0,0,0-.46.9,158.44,158.44,0,0,0,.15,37.19c.53,4.07,1.12,8.2,2,12.28a1.63,1.63,0,0,0-.08.55,44.82,44.82,0,0,0,3.08,13.4,1.61,1.61,0,0,0,1.72,1c.42.89.85,1.76,1.32,2.61.72,1.31,2.22.82,2.8-.22C119.51,217.36,122.1,215.82,121.36,214Z"/><path class="cls-3" d="M147.47,201.87A164.21,164.21,0,0,0,138,180.15c-3.84-7.05-8.7-13.5-13-20.26-4.6-7.21-8.62-14.88-13.65-21.8-.62-.85-1.67.16-1.37,1A122.29,122.29,0,0,0,121.47,161a1.24,1.24,0,0,0-.2,1.12,1.61,1.61,0,0,0,.2,1c.47.86.94,1.72,1.4,2.59,1.11,2.43,1.84,5,3.37,7.18,1.26,3.94,2.28,8,3.64,11.56a90.78,90.78,0,0,0,3.94,8.7c.45,1.21.91,2.42,1.39,3.62a1.91,1.91,0,0,0,0,1,71.18,71.18,0,0,0,3.68,11.84,1.52,1.52,0,0,0,1.36,1c.1.26.21.51.31.77a2,2,0,0,0,.41.61c.2.85.39,1.7.58,2.56a1.46,1.46,0,0,0,2.17.84h0a1.44,1.44,0,0,0,1.44,1,1.47,1.47,0,0,0,1.81.59.92.92,0,0,0,.25.23l.28.2a1.36,1.36,0,0,0,1.44-.06C152.61,214.44,148.73,205.28,147.47,201.87ZM142.55,200c-.37-1.14-.76-2.26-1.18-3.37.46,1.11.91,2.21,1.35,3.32Zm-8.79-19.08-.07-.08c-.42-1-.85-1.93-1.28-2.88a112.27,112.27,0,0,1,5.3,10.14Q135.91,184.43,133.76,180.91Z"/><path class="cls-3" d="M177.49,211.42a1.09,1.09,0,0,0,0-.25,1.61,1.61,0,0,0,.56-1.26c-.3-7.14-5.22-12.89-9.49-18.21-5.1-6.36-10.26-12.67-15.8-18.66-5.22-5.65-10.7-11.06-16.25-16.4-6.2-6-12.34-12.51-19.43-17.44-.67-.46-1.34.42-.89,1,8.66,11.45,20.4,20.77,30.33,31.18-.54-.44-1.08-.9-1.62-1.37-.25-.23-.54.14-.38.38a95.62,95.62,0,0,0,9,11.1c1.42,1.93,2.82,3.88,4.13,5.88,2.37,3.64,4.42,7.68,6.94,11.28a77.6,77.6,0,0,0,5.66,12.07,1.26,1.26,0,0,0,1.6.64c.33.53.64,1.07,1,1.6a1.51,1.51,0,0,0,2.36.17c.41,1.44,3.17,1.11,2.65-.83C177.68,212,177.58,211.72,177.49,211.42Z"/><path class="cls-3" d="M76.21,143.57c-4.7-2-11,2.68-11.66,7.42-.06.4.43.57.72.38,1.59-1.09,2.47-2.94,3.89-4.23,2-1.84,4.4-2,7-2.43A.6.6,0,0,0,76.21,143.57Z"/><path class="cls-3" d="M119.31,127.59c-1.58,2.63-8.79.85-11.41.72a39,39,0,0,0-9.71.68c-4.54.93-10.8,2.85-13.06,7.28a.47.47,0,0,0,.52.63c3.51-.88,6.51-3.16,10-4.18a37,37,0,0,1,13.37-1.09c3.5.3,11.44,1.85,13.18-2.59A1.64,1.64,0,0,0,119.31,127.59Z"/><path class="cls-3" d="M152,123.09c-2.74-2.64-7.7-1-10.8.32-3.53,1.54-8.46,3.53-10.44,7a.48.48,0,0,0,.47.74c3.43-.21,6.51-2.75,9.53-4.24a18.3,18.3,0,0,1,6.68-2.1c1.75-.14,2.81.13,4.36-.63A.68.68,0,0,0,152,123.09Z"/><path class="cls-3" d="M182.78,118.82c-.36-.12-.74-.23-1.15-.35a31.28,31.28,0,0,0-3.76-.84c-6-1.06-13.73-1.2-17.65,2.48-2.23,1-4.2,2.46-5,4.32a.82.82,0,0,0,.52,1c2.16.86,6.33-2.43,8.76-3.47l.7-.25a27,27,0,0,1,10.28-1.08h.08c.33,0,.67.09,1,.13a37.83,37.83,0,0,1,5.57,1.32C184.21,122.75,184.79,119.48,182.78,118.82Z"/><path class="cls-3" d="M194.15,124.53c-5.92-1.66-13.35-.13-19.36.72-4.71.67-11.52.77-15.06,4.15a.24.24,0,0,0,.06.4c2.28.66,3.65.23,6.07-.2,3.64-.64,7.27-1.27,10.95-1.69,5.61-.63,11.9,0,17.3-1.48A1,1,0,0,0,194.15,124.53Z"/><path class="cls-3" d="M206.35,131.29a1.22,1.22,0,0,0-1-1.36,15.4,15.4,0,0,0-4.89.1h0l-.36.06a1,1,0,0,0-.88.81l-.66.07a1.36,1.36,0,0,0-1.16.75,155.85,155.85,0,0,1-23.67.16c-9.52-.68-20.48-3.45-29.67.12a.74.74,0,0,0,.29,1.39c20.5.06,40.63,3.08,61.12.47A1.52,1.52,0,0,0,206.35,131.29Z"/><path class="cls-3" d="M216.06,143.5a239.08,239.08,0,0,0-38.41-7.81c-5.68-.7-11.37-1.2-17.09-1.45-6.13-.27-12.74-.89-18.75.6a.37.37,0,0,0,0,.73c5.51,1.07,11.29.66,16.88,1,6.74.34,13.48.95,20.17,1.83a235.07,235.07,0,0,1,33.29,7.12,1.22,1.22,0,0,0,.77.28l2.48.64C217.28,146.88,217.88,144,216.06,143.5Z"/><path class="cls-3" d="M220.47,168.66c-5.77-5.89-13.92-9.34-21.56-12-8.57-3-17.37-5.59-26.18-7.81-9.42-2.38-18.81-3.23-28.37-4.67-6.69-1-12.78-3.5-19-5.64,7.57,1.62,15.74,1.57,23.36,2.39,8.16.89,16.31,2,24.39,3.41a224.64,224.64,0,0,1,23.9,5.61,81.93,81.93,0,0,1,12.08,4.32c1.78.86,9.18,4.54,8.73,6.79a1.52,1.52,0,0,0,3,.65,3.92,3.92,0,0,0-.61-3.28,1.49,1.49,0,0,0,.1-1.6,5.65,5.65,0,0,0-2.56-2.64,1.22,1.22,0,0,0-1.54.32.67.67,0,0,0-.06.12,45.55,45.55,0,0,0-7-3.74c-8.55-3.68-17.93-5.86-27-7.76-9.87-2.05-19.88-3.46-29.9-4.57-9.64-1.07-20.06-3-29.72-1.94a.62.62,0,0,0-.44.84c-1.35-.42-2.71-.81-4.1-1.14a.62.62,0,0,0-.55,1.08c14,10.57,33.11,9.49,49.35,13.19,18,4.11,36.88,9.12,51.68,20.46A1.57,1.57,0,0,0,220.47,168.66Z"/><path class="cls-3" d="M203.11,190.08a10.38,10.38,0,0,1-.46-1.21,2.2,2.2,0,0,0-.05-.8l-.57-2.22a1.45,1.45,0,0,0-1.45-1.13,41.15,41.15,0,0,0-8.32-10.22c-4.62-4.15-11.61-9.61-18-10.81l-.94-.48c-7.56-3.71-15.42-6.87-23.13-10.25-7.92-3.47-16.39-8.5-24.9-10.17-.54-.11-.73.66-.35,1,6.4,4.78,14.91,7.45,22.18,10.73,7.06,3.19,14.18,6.29,21.16,9.66,2.73,1.32,5.46,2.71,8.09,4.25,1.14.78,2.34,1.51,3.56,2.22a49.2,49.2,0,0,1,5.74,4.45c6.25,5.7,9.93,13.24,13.17,20.92.93,2.19,3.92.92,3.38-1.29-.19-.76-.39-1.51-.59-2.27A1.72,1.72,0,0,0,203.11,190.08Z"/><path class="cls-4" d="M84.61,147.41C75.7,151.67,66,159.74,62,168.92c-.19.41.4.69.66.37,3.35-4.08,6.32-8.33,10.28-11.88s8.37-5.93,12-9.56C85.06,147.66,84.9,147.28,84.61,147.41Z"/><path class="cls-4" d="M86.46,152.81c-4.5,4.14-8,9.92-11.07,15.18a45.32,45.32,0,0,0-6.15,15.89.49.49,0,0,0,1,.21,99.33,99.33,0,0,1,8.07-17.3c2.79-4.56,6.4-8.79,8.69-13.62A.32.32,0,0,0,86.46,152.81Z"/><path class="cls-4" d="M97.89,149.88c-4.8,6.1-8.34,13.94-11.21,21.11-2.61,6.52-5.33,14.26-4.14,21.37.09.51.93.63,1.07.09,1.85-7.33,2.62-14.56,5.43-21.69s7-13.47,9.46-20.54A.35.35,0,0,0,97.89,149.88Z"/><path class="cls-4" d="M104.79,153.12a.46.46,0,0,0-.89-.2c-3.32,6.46-4.79,14.55-6,21.68-1.19,7.35-2.07,15.5.53,22.63.21.58,1.17.36,1.18-.24.1-8-.39-15.62,1-23.61C101.76,166.65,104.31,159.92,104.79,153.12Z"/><path class="cls-4" d="M123.58,205.31c-1.09-4.48-3.25-8.73-4.52-13.2a125.79,125.79,0,0,1-2.93-13.2c-1.38-8.11-1.75-16.43-3.43-24.49a.63.63,0,0,0-1.24.08c-.47,9.27.67,18.91,2.25,28,1.34,7.7,3,17.34,7.63,23.78A1.24,1.24,0,0,0,123.58,205.31Z"/><path class="cls-4" d="M137.59,174.74c-4.24-7.84-9.89-15.86-16.51-21.87a.66.66,0,0,0-1,.88c5.22,7.13,10.73,13.76,15,21.57s6.28,15.82,9,24.12c.21.62,1.27.7,1.27-.09C145.4,190.75,141.63,182.19,137.59,174.74Z"/><path class="cls-4" d="M170,184.93c-3.45-5.46-7.51-11.24-12.93-14.89a.46.46,0,0,0-.62.66c4,5.08,8.16,9.85,11.64,15.34,1.52,2.4,2.94,4.86,4.36,7.32,1.64,2.84,4.49,6.28,4.55,9.64a.52.52,0,0,0,1,.09C178.85,197,173.14,189.86,170,184.93Z"/><path class="cls-4" d="M145,161a49.55,49.55,0,0,0-4.88-4.62,19.59,19.59,0,0,0-4.61-3.52.37.37,0,0,0-.35.64c3.46,2.22,6,5.63,9.38,8C144.86,161.64,145.28,161.25,145,161Z"/><path class="cls-4" d="M182.26,159.47a.39.39,0,0,0-.19.75c5.34,1.91,10.73,3.67,15.55,6.75,5,3.22,6.62,8.46,10.73,12.26.27.25.69-.08.64-.4C207.17,167.18,192.36,161.09,182.26,159.47Z"/><path class="cls-4" d="M193.58,149.68c-6.53-4.13-15.1-5.35-22.63-6.45-7.94-1.16-17.78-3.57-25.64-1.67a.46.46,0,0,0,0,.9c7.48,1.43,15.35,1.47,22.92,2.49,8.59,1.16,16.38,3.82,24.72,5.91C193.68,151,194.25,150.11,193.58,149.68Z"/><path class="cls-4" d="M198.79,143.19c-7.79-3.5-18.86-6.45-27.47-5.38-.26,0-.34.47-.06.55,4.41,1.28,9.16,1.47,13.66,2.39s9,2.31,13.53,3.34A.48.48,0,0,0,198.79,143.19Z"/><path class="cls-4" d="M179,122.06c-4.74-1.57-15.2-3.56-18.26,2-.11.21.12.43.32.4,2.6-.36,4.83-1.84,7.55-2.07,3.39-.29,6.6.5,9.88,1.29A.85.85,0,0,0,179,122.06Z"/><path class="cls-4" d="M119,132.38c-6.16-.28-13.2-1.07-19.34-.17-3.88.56-7.54,2-9.81,5.35-.35.52.34,1.19.83.75,8.71-8,19.08-.55,28.59-4.63A.69.69,0,0,0,119,132.38Z"/><path class="cls-5" d="M89.57,142.27c6.6-4.7,11.92-6.52,20-5.57,3.61.42,7.68.74,10.09-2.43.45-.59-.31-1.32-.91-1-6,2.87-11.89.33-18.17,1.54-4.52.87-9,3.06-11.92,6.71-.44.56.36,1.14.87.78Z"/><path class="cls-5" d="M99.87,136.47a112.31,112.31,0,0,0-25.34,22.86c-7,8.32-13.55,18.24-15.63,29-.1.54.71.66.91.21,4.78-10.88,9.78-20.84,17.67-29.86,7-8,15.3-14.31,22.91-21.6a.41.41,0,0,0-.52-.64Z"/><path class="cls-5" d="M103.33,135.14a104.6,104.6,0,0,0-19.42,28.71A138.59,138.59,0,0,0,78,179.51c-1.69,5.37-4.12,11.34-4.37,17,0,.66,1,1.09,1.3.44,2.41-4.61,3.2-10.2,4.73-15.16A137.84,137.84,0,0,1,85.85,165c4.83-10.63,12.72-19,18.39-29,.32-.56-.39-1.36-.91-.81Z"/><path class="cls-5" d="M106.7,134.79a204.29,204.29,0,0,0-12.78,33.13,142.4,142.4,0,0,0-4.24,18c-.89,5.46-2,11.5-1.05,17,.12.68,1.27.8,1.42.08,1.15-5.68,1-11.63,2-17.38a149.4,149.4,0,0,1,4-17.09c3.34-11.32,8.21-22.09,11.72-33.33a.57.57,0,0,0-1.07-.39Z"/><path class="cls-5" d="M107.48,135.77c-2.36,12.55-2.74,25.93-2.55,38.67.16,11,.34,24.45,4.84,34.66.36.83,1.43.27,1.37-.49-.52-6.12-2.3-12.13-3-18.26-.67-5.9-1-11.85-1-17.79-.16-12.26,1.45-24.46,1.37-36.7a.51.51,0,0,0-1-.09Z"/><path class="cls-5" d="M108,136.63c5.38,13.21,11.77,26,17,39.25a348.83,348.83,0,0,1,12.85,39,1.13,1.13,0,0,0,2.17-.6c-6.8-26.74-17.19-54.16-30.91-78.17a.63.63,0,0,0-1.13.56Z"/><path class="cls-5" d="M169.17,208.62c-4.85-14.9-16-28.17-25.81-40.09-5.2-6.3-10.36-12.86-16.16-18.62s-12.59-10.6-18.81-15.68c-.49-.4-1.17.26-.9.78,3.26,6.24,10.52,9.69,15.65,14.19,6.09,5.34,11.15,12,16.36,18.23a260.68,260.68,0,0,1,15.95,20.63c4.63,6.76,8.29,14,12.5,21,.35.58,1.46.33,1.22-.42Z"/><path class="cls-5" d="M112.17,137c13.5,10.16,29,17.06,43.44,25.61,15.06,8.9,24.77,21.64,29.89,38.23a.69.69,0,0,0,1.36-.1c.39-7.64-4.67-15-8.9-20.93a62.51,62.51,0,0,0-16.25-16c-7.37-4.94-15.49-8.65-23.27-12.89-8.68-4.73-17-10.09-25.59-14.94a.61.61,0,0,0-.68,1Z"/><path class="cls-5" d="M111.69,137c17.47,6.59,34.37,14.32,51.7,21.29,16.81,6.77,35.26,16.49,40.85,35a1,1,0,0,0,2-.51c-2.09-16.83-22.65-28.15-36.53-33.92-9.67-4-19.38-7.79-28.92-12.14-9.21-4.2-18.78-9.06-28.87-10.66-.55-.09-.71.75-.21.94Z"/><path class="cls-5" d="M116.61,136.05c7.39,4.15,16.54,5.83,24.77,7.53,9.37,1.94,18.84,3.35,28.24,5.17,17.24,3.33,34.42,8,48.84,18.48,1.1.8,2.17-1,1.08-1.81-13.85-10-30.3-14.84-46.89-18-9-1.75-18.08-3.09-27.1-4.78-9.76-1.84-19.13-5-28.8-7.11-.36-.08-.41.42-.14.57Z"/><path class="cls-5" d="M118.09,136.24c8.21,1.16,16.75.8,25,1.48,8.87.73,17.73,1.84,26.51,3.36,8.22,1.42,16.4,3.18,24.48,5.27,7.83,2,15.47,4,22.28,8.51.85.57,2-.73,1.16-1.41-5.9-4.88-13.77-6.63-21-8.52q-13.05-3.39-26.37-5.64c-8.31-1.4-16.68-2.5-25.08-3.24-8.78-.77-18.28-1.91-27-.72-.53.07-.46.84,0,.91Z"/><path class="cls-5" d="M118.2,136.08c14.76,0,29.32-1.79,44.14-1,16.62.93,32.77,4,49,7.68,1.13.26,1.68-1.42.53-1.75-15.09-4.26-31-6.45-46.61-7.42-15.26-1-32.06-1.73-47,1.87-.3.07-.35.59,0,.59Z"/><path class="cls-5" d="M197.25,130.53c-13.31-2.14-27.95-1.15-41.39-.62-12.13.48-26.74.73-37.8,6.2a.35.35,0,0,0,.2.66c6.17-.71,12.17-2.45,18.33-3.31a201.11,201.11,0,0,1,21.09-1.68c13.12-.44,26.59,1.06,39.64-.1.69-.06.53-1.05-.07-1.15Z"/><path class="cls-5" d="M184.81,124.39c-8,0-16.25,1.47-24.14,2.7s-16.35,1.93-23.82,4.7c-.36.13-.27.78.13.77,7.74-.21,15.53-2.36,23.19-3.46,8.17-1.17,16.67-1.73,24.71-3.53.63-.14.63-1.17-.07-1.18Z"/><path class="cls-5" d="M152.71,125.28a31.43,31.43,0,0,1-7.17,5.27.44.44,0,0,0,.26.83,9.4,9.4,0,0,0,4.41-2.09,8.87,8.87,0,0,0,2.8-3.84c.08-.19-.17-.31-.3-.17Z"/><path class="cls-5" d="M64.32,156.66c12.41-6.24,24.45-13.29,36.85-19.59,1-.51.19-2-.83-1.54-12.51,5.43-25.55,12.21-36.27,20.7-.22.17,0,.56.25.43Z"/><path class="cls-5" d="M76.21,154.18c-2.76,1.92-5,4.89-7.2,7.44a71.29,71.29,0,0,0-6.75,9.18c-.18.3.22.62.44.33,2.14-2.92,4.2-5.87,6.54-8.63s5.2-5.07,7.39-7.9a.3.3,0,0,0-.42-.42Z"/><path class="cls-5" d="M84,154.41c-5.23,6.08-8.68,13.4-12.19,20.56-.16.34.35.52.52.22,1.77-3.15,3.42-6.35,5.11-9.53,2.09-3.91,5-7.13,7.1-10.95.18-.33-.32-.56-.54-.3Z"/><path class="cls-5" d="M75.94,171.9c-1.61,4.12-3.54,8.58-4.19,13a.36.36,0,0,0,.69.17c1.74-4.13,2.79-8.61,4.44-12.8.24-.6-.7-.94-.94-.35Z"/><path class="cls-5" d="M64.51,188.09a2,2,0,0,0,.45,1.36,4.11,4.11,0,0,0,1.29,1c.65.33,2.26.85,2.74,0a.34.34,0,0,0-.07-.47c-.33-.24-.6-.14-1-.14a3.08,3.08,0,0,1-1.19-.27,5.14,5.14,0,0,1-1.88-1.68.2.2,0,0,0-.35.15Z"/><path class="cls-5" d="M96.94,149.31c-3.59,4.74-6,10.74-8.38,16.17a121,121,0,0,0-6.69,18.82c-.09.36.49.49.61.16,2.3-5.92,4.33-11.91,6.82-17.76s5.81-11.32,8-17.2a.2.2,0,0,0-.34-.19Z"/><path class="cls-5" d="M87,182.82a11.48,11.48,0,0,0-.79,5.12c0,.35.5.28.58,0a28.13,28.13,0,0,0,.62-5c0-.23-.32-.35-.41-.11Z"/><path class="cls-5" d="M101.86,154.82A87.92,87.92,0,0,0,95.3,183a.36.36,0,0,0,.72.08c2.07-9.41,4.27-18.77,6.38-28.16.08-.32-.41-.42-.54-.14Z"/><path class="cls-5" d="M101.78,181.52a64.32,64.32,0,0,0,1,14.93c.06.3.57.33.57,0,0-4.95-.55-10-.86-14.94a.39.39,0,0,0-.76,0Z"/><path class="cls-5" d="M108.69,149.19c-.4,9.32-.12,18.94,1.88,28.09a.3.3,0,0,0,.6-.1c-.75-9.33-1.62-18.53-1.54-27.9,0-.6-.91-.7-.94-.09Z"/><path class="cls-5" d="M119.22,171.22a134.25,134.25,0,0,1,9.39,26.38.31.31,0,0,0,.62-.09,57.89,57.89,0,0,0-9.66-26.5.21.21,0,0,0-.35.21Z"/><path class="cls-5" d="M114.5,192.17a28,28,0,0,0,2.83,14.15c.14.27.63.18.55-.16-.53-2.38-1.26-4.68-1.66-7.09a42.88,42.88,0,0,0-1.28-7,.23.23,0,0,0-.44.06Z"/><path class="cls-5" d="M127,211.77a3,3,0,0,0,2.66-1.09c.11-.15-.08-.36-.22-.23a3.5,3.5,0,0,1-2.4,1.06c-.17,0-.21.25,0,.26Z"/><path class="cls-5" d="M118.59,149.61c4.72,4.73,8.88,9.92,13.34,14.88a.28.28,0,0,0,.44-.35c-3.54-5.68-8.19-10.56-13-15.18-.46-.45-1.24.18-.78.65Z"/><path class="cls-5" d="M129.71,174.3c2.81,9,6.54,18.17,10,26.9a.36.36,0,0,0,.68-.21c-1.7-9-5.36-19.23-10.35-26.91-.14-.23-.44,0-.37.22Z"/><path class="cls-5" d="M154.34,210.53c1.88-.85,3.43-3.33,2.74-5.41-.09-.27-.45-.15-.5.08a13.76,13.76,0,0,1-.67,2.46A6.68,6.68,0,0,1,154,210a.33.33,0,0,0,.35.56Z"/><path class="cls-5" d="M142.72,161.59c4.11,4.92,8.5,9.6,12.51,14.61a151.1,151.1,0,0,1,11.42,17.22.35.35,0,0,0,.63-.28c-4.79-12.22-14.78-22.94-24-32-.33-.33-.89.09-.58.46Z"/><path class="cls-5" d="M167.8,176.64a133.41,133.41,0,0,0,13.69,20.43.28.28,0,0,0,.48-.29,96.77,96.77,0,0,0-13.55-20.52c-.26-.3-.83,0-.62.38Z"/><path class="cls-5" d="M171.52,167.46A157.27,157.27,0,0,1,191,190.65a.32.32,0,0,0,.55-.33,62.29,62.29,0,0,0-19.83-23.09.14.14,0,0,0-.17.23Z"/><path class="cls-5" d="M164.06,151.27c6.51,2.09,13.41,2.51,19.95,4.86,7.13,2.57,13.49,6.71,20.51,9.42a.41.41,0,0,0,.39-.7c-6-4.39-13.59-7.32-20.49-9.85-6-2.22-13.79-5.08-20.31-4.12a.2.2,0,0,0-.05.39Z"/><path class="cls-5" d="M187.34,147.51a99.57,99.57,0,0,1,19.72,5.38.29.29,0,0,0,.22-.53A42.5,42.5,0,0,0,187.4,147a.28.28,0,0,0-.06.56Z"/><path class="cls-5" d="M184.29,139.46a107.83,107.83,0,0,0,15.21,3.39.29.29,0,0,0,.14-.55,58.91,58.91,0,0,0-15.25-3.21c-.21,0-.33.3-.1.37Z"/><path class="cls-5" d="M213.4,145.77c.87.64.08,1.66-.64,2a.27.27,0,0,0,0,.5,1.41,1.41,0,0,0,1.77-1,1.79,1.79,0,0,0-1-1.74c-.15-.08-.29.16-.15.26Z"/><path class="cls-5" d="M174.84,133.34c6,.66,12,1.64,18,2.26a.26.26,0,0,0,.06-.51,106.17,106.17,0,0,0-18-2.06c-.2,0-.24.29,0,.31Z"/><path class="cls-5" d="M159.55,125.73a96.45,96.45,0,0,1,13-1.27c.39,0,.34-.59,0-.65a27.22,27.22,0,0,0-13.17,1.41c-.28.1-.15.56.15.51Z"/><path class="cls-5" d="M170.55,119.27a14.72,14.72,0,0,0-3.37.29c-.19,0-.15.33,0,.29a14.61,14.61,0,0,1,3.3-.33c.16,0,.2-.25,0-.25Z"/><path class="cls-5" d="M146.34,123.94c-1.92,0-5,.53-5.89,2.54a.31.31,0,0,0,.41.4,26,26,0,0,0,2.49-1.53,8.9,8.9,0,0,1,3.05-1c.3,0,.22-.46-.06-.45Z"/><path class="cls-5" d="M89.28,136.75c4.15.23,8.33-2.63,11.22-5.29.17-.15,0-.48-.21-.36-1.73.92-3.35,2-5.06,2.92a27,27,0,0,1-6,2.15c-.29.08-.36.56,0,.58Z"/><path class="cls-6" d="M80.87,134.42c3.21,1.88,6.7,1.44,10-.13,5.87-2.76,9.29-6.88,16.33-5.36,6,1.29,17,1.61,17.64-6.88a1.3,1.3,0,0,0-1.47-1.41c-3.44.65-6.2,3-9.71,3.25-3.82.28-7.42-1.49-11.24-1.18-3.42.28-6.3,1.89-9.13,3.71-3.87,2.5-7.09,4.11-11.71,4.74-1.46.2-2.09,2.46-.74,3.26Z"/><path class="cls-6" d="M80.15,133.44c.09,1.37,2,5.1.19,5.74-.77.28-3.71-.82-4.71-.76-2.65.14-5.18,1.66-7.23,3.29-3.92,3.11-8.71,10.53-6,15.57a1.37,1.37,0,0,0,2.48-.05,16.7,16.7,0,0,0,1.21-4.39,13.8,13.8,0,0,1,4.57-7.44c4.08-3.32,7.23,0,11.66-.42,6.81-.58,4.82-11.48-.47-12.86a1.24,1.24,0,0,0-1.66,1.32Z"/><path class="cls-6" d="M62.77,153.55c-8,1.14-13.4,11.5-14.52,18.73S51.52,190,60.24,188c4-.95,2.64-7.06-1.43-6.28-4.76.93-5.7-5.28-5.39-8.31a18.86,18.86,0,0,1,2-6.25c2-4.12,4.49-7.41,8.74-9.34,2.39-1.09,1.06-4.59-1.41-4.24Z"/><path class="cls-6" d="M56.7,183.66c-2.8,4.69.48,11.15,4.28,14.18,4.61,3.68,11.11,3.92,15-.91,2.37-3-2.28-6.61-5-4.19-2.18,2-4.79,1.27-7-.45-2.61-2-3-5.35-4-8.33a2,2,0,0,0-3.33-.3Z"/><path class="cls-6" d="M70.36,198.3c1.47,8.06,12.49,10.93,18.38,5.74,3.08-2.71-1-7-4.2-4.63l3.08-.66a3.16,3.16,0,0,0-3.08.66c-1.71,1.29-4.82,1-6.56-.08-1.51-.92-2.29-2.6-3.9-3.47a2.43,2.43,0,0,0-3.72,2.44Z"/><path class="cls-6" d="M84.2,201.44c-.46,7.6,6.39,15.92,13.79,17.41,6.22,1.25,15.8-2.95,14.58-10.44-.37-2.33-3.21-2.41-4.51-.91-3.36,3.88-5.69,6.88-11.41,4.71-5.33-2-7.18-7.08-10-11.48a1.39,1.39,0,0,0-2.44.71Z"/><path class="cls-6" d="M107.92,208.49c-5,6.26,7.53,12.22,12,13.25,8.11,1.88,16.06.57,21.24-6.27a3.25,3.25,0,0,0,.14-3.31l-.33-.57c-.44-.76-1.29-.68-1.69-1.17-.09-.11-8.44,5.33-10,5.9a15.61,15.61,0,0,1-9.18.11,14.92,14.92,0,0,1-7-3.5c-1.52-1.53-2-3.49-3.83-4.6a.92.92,0,0,0-1.27.16Z"/><path class="cls-6" d="M137,216.46c3.88,5.45,14.37,8,20.5,5.38,4.88-2.11,14.35-7.88,12.37-14.31a2.67,2.67,0,0,0-4.31-1.44c-1.46,1.34-2,3-3.19,4.5a26.47,26.47,0,0,1-5.32,4.64c-4.94,3.57-12.49,1.39-16.84-2.36-2.24-1.92-4.69,1.52-3.21,3.59Z"/><path class="cls-6" d="M165.21,208.39c.17,8.23,9.29,10.49,16.06,8.79,7.37-1.85,12.78-11.63,9.55-18.79-1.22-2.7-6-1.81-5.84,1.27.24,4.22-1.17,9.75-5.52,11.43-4.07,1.59-9.18,1-11.45-3.15-.61-1.12-2.83-1.15-2.8.45Z"/><path class="cls-6" d="M187.16,204.59l-1.4-2.74a3,3,0,0,0,1.4,2.74c9.23,6.46,20.46-5.31,21.68-14.05a3.21,3.21,0,0,0-1.47-2.85l-.45-.34a2.44,2.44,0,0,0-3,.17c-1.15,1.15-1.27,2.08-1.83,3.51a17.66,17.66,0,0,1-3.33,4.92c-2.56,2.86-5.25,4.08-9,3.11a3.11,3.11,0,0,0-2.65,5.53Z"/><path class="cls-6" d="M203.15,191.29c3.89,4,10.18,1.12,13.07-2.79,3.87-5.24,5.43-13.19,4.4-19.55-.35-2.22-1-5.87-4.12-5.72-1.72.09-2.73,1.64-3,3.22-.68,3.87.56,7.77-.5,11.8-1.27,4.78-3.46,7.94-8.49,9.16-1.63.39-2.65,2.53-1.34,3.88Z"/><path class="cls-6" d="M214.28,168.87c1.73,2.27,4.84,1.94,6.94.28,2.28-1.8,3.24-5,3.6-7.74.66-5-1.66-13.1-8.3-11.36-1.18.31-2.19,1.95-1.09,3,1.85,1.77,3.36,3.39,3.41,6.08a9.42,9.42,0,0,1-.77,4.06c-.7,1.46-1.66,1.58-3,2.11s-1.58,2.5-.75,3.58Z"/><path class="cls-6" d="M220.7,153.88c4.19-4.81,2.19-12.68-3.47-15.35a14,14,0,0,0-4.3-1c-1.55-.2-3.13-.67-4.65-.08-1.87.73-4.14,2.43-2.71,4.49a2.09,2.09,0,0,0,2,.7c4.9-.45,12.13,2.24,8.64,8.2-1.82,3.1,2.26,5.63,4.52,3Z"/><path class="cls-6" d="M209.7,142.05c3.93-3.63,4.5-10.67.59-14.49-4.06-4-10.7-3.07-14.4.92-1.47,1.57,0,4.8,2.25,3.49s5.47-2.69,7.91-.6c2.06,1.75,1,5.27-.41,7.12-1.92,2.44,1.82,5.63,4.06,3.56Z"/><path class="cls-6" d="M200.25,129.83c.4-4.08-2.1-7.3-5.65-9s-9.34-1.94-12.1,1.16c-1.79,2,.12,6.06,2.91,4.33s10.12-1.44,10,3.19c-.07,3.1,4.52,3.47,4.82.35Z"/><path class="cls-6" d="M152.12,128.23c4.46-3.29,8.22-7,13.45-9.17,6.24-2.59,15.59-3.89,16.44,5,.3,3.17,4.63,2.25,5.13-.35,1.71-9-8.76-13.33-16-12.23-7.88,1.21-18.41,7.22-21.46,15a1.58,1.58,0,0,0,2.45,1.78Z"/><path class="cls-6" d="M122.19,121.48l-.06.13-.06.27v.28l.07.26a.9.9,0,0,0,.23.32.65.65,0,0,0,.21.16.6.6,0,0,0,.25.1.53.53,0,0,0,.28,0,.75.75,0,0,0,.39-.07l.14-.06a1.13,1.13,0,0,0,.65-.88,1.2,1.2,0,0,0-.08-.56.86.86,0,0,0-.25-.34.81.81,0,0,0-.34-.24,1.15,1.15,0,0,0-.58-.07,1.12,1.12,0,0,0-.85.67Z"/><path class="cls-6" d="M123,121.43c-3.48-.08-3.86,5.83-2.69,8.1,1.73,3.35,7.13,4.4,9.71,1.59,1.12-1.22-.14-3-1.47-3.17-1.67-.25-4.53.89-4.92-1.65-.16-1,1.61-4.81-.63-4.87Z"/><path class="cls-6" d="M125.3,132.15c3.6,1.38,7.07-1.84,10-3.84,3.24-2.25,13.82-11,13.54-2.09-.1,3.16,4.73,3.53,4.93.35.35-5.69-2.11-11.17-8.78-9.78-7.54,1.58-14.56,8.35-19.91,13.44a1.13,1.13,0,0,0,.27,1.92Z"/></g></g></g><g id="Layer_94" data-name="Layer 94"><g id="Espalda"><rect class="cls-7" width="275" height="259.5"/></g></g></g></g></svg>