<svg xmlns="http://www.w3.org/2000/svg" viewBox="0 0 275 260.93"><defs><style>.cls-1{isolation:isolate;}.cls-2{fill:#ec6902;}.cls-3{fill:#cf1303;}.cls-4{fill:#fff;}.cls-5{fill:#42210b;}.cls-6{fill:none;mix-blend-mode:multiply;opacity:0.4;}</style></defs><g class="cls-1"><g id="Layer_2" data-name="Layer 2"><g id="Variacion_B" data-name="Variacion B"><g id="AssetsW4"><g id="LoinW4"><path class="cls-2" d="M181.91,144.12c.17-.36.32-.71.5-1.06,1.85-3.6-5.39-5.77-7.78-2.59-1.74,2.31-3.39,4.66-5,7a4.76,4.76,0,0,0-3.59,1.58,76.93,76.93,0,0,0-5.7,7.12,3.28,3.28,0,0,0-3.31,2.42c-.4,1.73-.89,3.45-1.42,5.14a73.66,73.66,0,0,0-3.32,6.88,2.46,2.46,0,0,0-.09,1.78,70.87,70.87,0,0,1-5.55,9.68c-1.11,1.63-.39,3.19,1,4.13l-4.71,3.7a133.6,133.6,0,0,0-25.13,15.9,3.06,3.06,0,0,0-.65.71,4.39,4.39,0,0,0-.76.42L98.73,218.68c-2.08,1.16-4.18,2.29-6.3,3.42a3.59,3.59,0,0,0-1.82,2.09c-1.46.42-2.91.87-4.31,1.42a64.33,64.33,0,0,0-9.61,4.92,7.71,7.71,0,0,1-.84.08c-5.41.39-5.46,7.11,0,6.73,6.64-.47,11.39-3.78,16.62-6.31l1.86-.61a5.32,5.32,0,0,0,5,.55,118.43,118.43,0,0,0,20.44-10l.19-.07a49.19,49.19,0,0,0,11.81-7.24,4.4,4.4,0,0,0,5.38-.29q7.35-6.69,14.4-13.6,4.68-3.67,9.34-7.37c2.47-1.94,1.05-4.52-1.46-5.36a4,4,0,0,0,.25-.45l4-8.67a4.22,4.22,0,0,0,3.61-2.26c4.63-10.11,14.46-18,15.83-29A2.45,2.45,0,0,0,181.91,144.12Z"/><path class="cls-3" d="M183.52,144.84c.28-.85-1.12-1.27-1.8-.74.21-.62.42-1.24.62-1.87.34-1-1.71-1.49-2.05-.44-.38,1.2-.8,2.4-1.23,3.6q-3.15,5.54-6.31,11.08c-.62-.16-1.44.09-1.44.77v.24a.75.75,0,0,0,.48.68l-2.27,4c-.91-.2-1.88.75-1.05,1.4l.17.14-4.95,8.7c-.7,1-1.4,2-2.11,3a1.12,1.12,0,0,0-.76.53l-1,2-4.88,6.83c-.69,1,1,1.68,1.84.84l.08-.09a1.19,1.19,0,0,0,1.05-.38,131.38,131.38,0,0,0,11.52-15.41l1.58-2.34a1.1,1.1,0,0,0,1.24-.36,162.75,162.75,0,0,0,10-19.06l1.29-2.48A.52.52,0,0,0,183.52,144.84Z"/><path class="cls-3" d="M161.08,186.62l-.58.46a1.22,1.22,0,0,0-.93-.61l1.06-1.1c.73-.75-.92-1.76-1.67-1q-8.21,8.19-16.07,16.57-6.13,5.19-12.78,10a1.28,1.28,0,0,0-1.64-.17c-2.58,1.79-5.16,3.57-7.77,5.33-2.45,1.42-4.84,2.92-7.15,4.5q-2,1.14-4,2.23a51.18,51.18,0,0,0-12.1,5.28.87.87,0,0,0,.82,1.53l.25-.09h0l1-.37.11,0c-.38.22-.78.44-1.16.67-1.08.65-.19,1.94,1.07,1.45a84,84,0,0,0,14.28-7.27c3-1.28,6.09-2.45,9.27-3.5a.87.87,0,1,0-.57-1.62l-.06,0,.86-.48c1.07-.56,2.13-1.15,3.15-1.78l1.34-.75a.93.93,0,0,0,.35-.33l.16-.1a.62.62,0,0,0,.27-.76c.59-.49,1.16-1,1.72-1.53a.73.73,0,0,0,.19-.28l.07,0a1.18,1.18,0,0,0,.27-.2,8,8,0,0,0,1.77-.58,1.24,1.24,0,0,0,.86.57,1.36,1.36,0,0,0,1.52,0l5.22-4c-1,1-2.06,2.09-3.11,3.13-.84.83.47,1.93,1.51,1.19a53.7,53.7,0,0,0,11.67-12l.16-.14a.75.75,0,0,0,.31-.51c.05-.08.11-.15.17-.23,2.56-2.82,5.09-5.66,7.53-8.55a.56.56,0,0,0,.14-.54q2-1.71,3.94-3.36C163.53,187,162.07,185.87,161.08,186.62Z"/><path class="cls-3" d="M98.57,223.35c-1.37,0-1.37,1.68,0,1.68S100,223.35,98.57,223.35Z"/><path class="cls-3" d="M103.59,220.86a1,1,0,0,0-1.06.84l0,.25c-.07.45.53.84,1.06.84a1,1,0,0,0,1.06-.84l0-.25C104.72,221.25,104.12,220.86,103.59,220.86Z"/><path class="cls-3" d="M108.86,215.88l-.32.25c-1,.77.54,2,1.51,1.19l.31-.25C111.34,216.3,109.83,215.12,108.86,215.88Z"/><path class="cls-3" d="M110.87,219.12c-1.37,0-1.37,1.68,0,1.68S112.25,219.12,110.87,219.12Z"/><path class="cls-3" d="M115.6,215.88c-1.37,0-1.37,1.68,0,1.68S117,215.88,115.6,215.88Z"/><path class="cls-3" d="M117.69,212.65l-.31.25c-1,.76.53,1.95,1.5,1.18l.32-.25C120.17,213.07,118.66,211.88,117.69,212.65Z"/><path class="cls-3" d="M122.23,211.65h-.63c-1.37,0-1.37,1.68,0,1.68h.63C123.6,213.33,123.6,211.65,122.23,211.65Z"/><path class="cls-3" d="M131.26,205.27v.25c0,1.08,2.13,1.09,2.13,0v-.25C133.39,204.19,131.26,204.19,131.26,205.27Z"/><path class="cls-3" d="M135.47,201h-.31c-1.37,0-1.37,1.68,0,1.68h.31C136.84,202.63,136.85,201,135.47,201Z"/><path class="cls-3" d="M136.61,202.44l-.31.25c-1,.77.53,1.95,1.5,1.19l.32-.25C139.09,202.86,137.59,201.67,136.61,202.44Z"/><path class="cls-3" d="M140.84,195.23c-1.37,0-1.38,1.68,0,1.68S142.21,195.23,140.84,195.23Z"/><path class="cls-3" d="M142,197.81v.25c0,1.08,2.13,1.08,2.13,0v-.25C144.11,196.73,142,196.72,142,197.81Z"/><path class="cls-3" d="M138.2,200.05v.25c0,1.08,2.12,1.08,2.12,0v-.25C140.32,199,138.2,199,138.2,200.05Z"/><path class="cls-3" d="M146.51,192.49h-.31c-1.37,0-1.37,1.68,0,1.68h.31C147.88,194.17,147.89,192.49,146.51,192.49Z"/><path class="cls-3" d="M156.17,176.9v.25c0,1.08,2.13,1.08,2.13,0v-.25C158.3,175.82,156.17,175.82,156.17,176.9Z"/><path class="cls-3" d="M159,169.83l-.32.25c-1,.77.54,2,1.51,1.19l.31-.25C161.48,170.26,160,169.07,159,169.83Z"/><path class="cls-3" d="M163.55,166.35c-1.37,0-1.38,1.68,0,1.68S164.92,166.35,163.55,166.35Z"/><path class="cls-3" d="M161.77,173.07l-.31-.25c-1-.77-2.48.42-1.51,1.19l.32.25C161.24,175,162.75,173.84,161.77,173.07Z"/><path class="cls-3" d="M164.37,161.72v.49c0,1.08,2.13,1.09,2.13,0v-.49C166.5,160.63,164.37,160.63,164.37,161.72Z"/><path class="cls-3" d="M169.42,152.91l-.32.25c-1,.76.54,2,1.51,1.18l.31-.24C171.89,153.33,170.39,152.14,169.42,152.91Z"/><path class="cls-3" d="M168,158.14l-.13,0a1.12,1.12,0,0,0-.41,0,.85.85,0,0,0-.75,1,1.2,1.2,0,0,0,1.31.69,1.06,1.06,0,0,0,1-.92C169.09,158.53,168.48,158.14,168,158.14Z"/><path class="cls-3" d="M173.32,150.92c-1.37,0-1.37,1.68,0,1.68S174.69,150.92,173.32,150.92Z"/><path class="cls-3" d="M176.48,145.44h-.32c-1.37,0-1.37,1.68,0,1.68h.32C177.85,147.12,177.85,145.44,176.48,145.44Z"/><path class="cls-4" d="M170.24,151c-6.14,4.59-10.8,12.78-12.59,19.25-.08.29.46.51.65.22,2.13-3.42,3.79-7,6-10.38,2-3,4.57-5.82,6.23-8.95C170.61,151,170.35,150.93,170.24,151Z"/><path class="cls-4" d="M141.83,194.39a29.09,29.09,0,0,0-12.5,8.66c-.29.36.36.75.75.45,3.94-3,7.84-6,12.14-8.72C142.53,194.59,142.14,194.27,141.83,194.39Z"/><path class="cls-4" d="M117.39,215a39.29,39.29,0,0,0-8.16,3.64c-2.81,1.53-6,2.5-8.82,4-.24.12-.15.41.14.42,2.92.08,5.8-1.51,8.11-2.76,3-1.61,5.87-3.38,8.92-4.93C117.8,215.25,117.66,214.94,117.39,215Z"/><path class="cls-4" d="M89.7,229.48a4.38,4.38,0,0,0-1.93.61c-.31.16-.63.31-.91.49s-.53.48-.84.69c-.16.11,0,.36.22.29s.73-.13,1.08-.25a7.17,7.17,0,0,0,1-.45,3.51,3.51,0,0,0,1.58-1.08C90,229.65,89.91,229.48,89.7,229.48Z"/><path class="cls-5" d="M178.08,135.58c-17.24,10.9-30.3,27.69-32.79,48.29-.44,3.62,5.24,3.59,5.67,0,2.24-18.48,14.63-33.68,30-43.39,3.08-1.94.23-6.85-2.86-4.9Z"/><path class="cls-5" d="M178.08,141.28a30.76,30.76,0,0,1,6.44,5.72,2.87,2.87,0,0,0,4,0,2.91,2.91,0,0,0,0-4,35.72,35.72,0,0,0-7.59-6.61c-3.05-2-5.9,2.89-2.86,4.9Z"/><path class="cls-5" d="M183.59,144.55a116,116,0,0,1-25.67,39.22c-2.55,2.62,1.46,6.63,4,4a122.6,122.6,0,0,0,27.13-41.73c1.31-3.41-4.17-4.89-5.47-1.51Z"/><path class="cls-5" d="M146.3,187.27a25.11,25.11,0,0,0,9.37,1c2.2-.06,5.94.73,7.84-.56a2.87,2.87,0,0,0,0-4.9l-.17-.12a2.87,2.87,0,0,0-3.44.44l-.09.1c-2.48,2.68,1.52,6.7,4,4l.09-.1-3.44.44.18.12v-4.9c1.2-.22,1.13-.31-.19-.28-.71,0-1.42,0-2.12,0-1.07,0-2.13.07-3.2.1a20.18,20.18,0,0,1-7.33-.87c-3.45-1.23-4.94,4.25-1.51,5.47Z"/><path class="cls-5" d="M146.51,182.77a362.37,362.37,0,0,0-31.24,19.51,2.88,2.88,0,0,0,.67,5.19c5.47,2,12.22,4.2,14.71,9.94a2.86,2.86,0,0,0,3.88,1A149.3,149.3,0,0,0,154.9,203c5-4.6,11.62-9.83,12.12-17.12.25-3.64-5.42-3.63-5.67,0-.4,5.83-8.88,11.8-13,15.34a140.74,140.74,0,0,1-16.7,12.33l3.88,1c-3.1-7.15-11.3-10.08-18.1-12.56l.68,5.19a362.54,362.54,0,0,1,31.25-19.51c3.19-1.78.33-6.68-2.87-4.9Z"/><path class="cls-5" d="M116,203.56a133.08,133.08,0,0,1-30.41,17.05c-2.43,1-2.94,4.69,0,5.47,4.53,1.2,8.16,3.49,10.12,7.86a2.84,2.84,0,0,0,3.21,1.3,194.15,194.15,0,0,0,20.4-8.76c5.48-2.74,12.08-5.45,15.32-10.95,1.86-3.15-3-6-4.9-2.86-2.8,4.76-10.17,7.4-14.94,9.73a182,182,0,0,1-17.39,7.37l3.2,1.31c-2.52-5.62-7.7-8.94-13.51-10.47v5.47a138,138,0,0,0,31.76-17.62c2.88-2.16.06-7.09-2.86-4.9Z"/><path class="cls-5" d="M87.55,222.43c-9.73,6.42-22.12,8-33.28,10.56-3.56.81-2.05,6.29,1.51,5.47,11.67-2.67,24.45-4.41,34.63-11.13,3-2,.2-6.92-2.86-4.9Z"/><path class="cls-5" d="M55.24,238.34c7.34,2,14.71,1.29,22.19.42C84,238,90.21,236.64,96,233.49c3.21-1.73.35-6.63-2.86-4.9-5.47,3-11.41,4-17.54,4.69-6.38.67-12.61,1.31-18.88-.41-3.53-1-5,4.5-1.51,5.47Z"/><path class="cls-2" d="M148.88,144.19c.31-.15.61-.31.92-.45,3.21-1.47.66-5.28-2.58-4.24-2.35.75-4.68,1.56-7,2.4a3.63,3.63,0,0,0-2.9-.32c-2.53.62-5,1.36-7.43,2.19a3,3,0,0,0-3.26.26q-1.92,1.32-3.93,2.53c-2,.9-4,1.85-6,2.88a2.88,2.88,0,0,0-1.14,1,86.5,86.5,0,0,1-8.93,3.75,2.58,2.58,0,0,0-2,2.78l-4.79.52a120.76,120.76,0,0,0-23.25.58,3.71,3.71,0,0,0-.78.18,4.92,4.92,0,0,0-.67,0L58.48,159c-1.83-.05-3.65-.12-5.48-.19a3.86,3.86,0,0,0-2.26.59,29.54,29.54,0,0,0-3.19-.67,52.67,52.67,0,0,0-8.17-.47c-.17-.07-.33-.15-.5-.24-3.13-1.67-7.29,2.27-4.13,3.95,3.84,2,8.42,1.76,12.78,2.1l1.37.28c.07,1,.89,1.83,2.37,2.1a96.1,96.1,0,0,0,17.07,1.28l.15,0a43.74,43.74,0,0,0,10.78-.13c.22,1.12,1.27,2,3,1.71q8.07-1.37,16.08-3l9.54-1.06c2.51-.29,3.34-2.3,2.52-3.67a3.42,3.42,0,0,0,.4-.17l7.48-3.7a3.69,3.69,0,0,0,3.33-.07c8.7-4.32,18.8-5.51,26.34-11.54A1.9,1.9,0,0,0,148.88,144.19Z"/><path class="cls-3" d="M149.3,145.17c.67-.4.17-1.13-.51-1.06l1.48-.88c.83-.5,0-1.48-.82-1s-1.91,1.14-2.87,1.69l-10.2,4.31a.85.85,0,0,0-1.24-.05l-.15.14a.49.49,0,0,0-.16.57l-3.67,1.55c-.36-.44-1.47-.22-1.43.46v.14l-8,3.38-2.94,1a1,1,0,0,0-.74.05l-1.75.79-6.81,2.31c-1,.33-.48,1.35.47,1.14l.1,0a.85.85,0,0,0,.79.14,155.17,155.17,0,0,0,15.65-5l2.29-.82a.73.73,0,0,0,.88.23q8.77-3.5,17.07-7.72l2.22-1A.58.58,0,0,0,149.3,145.17Z"/><path class="cls-3" d="M111.59,161.89,111,162a.59.59,0,0,0-.12-.68l1.24-.28a.61.61,0,1,0-.27-1.18q-9.42,2-18.8,4.13-6.47.9-13,1.4c.05-.34-.23-.7-.78-.67-2.48.15-5,.3-7.44.42-2.19,0-4.38,0-6.59.15-1.18,0-2.34,0-3.51-.08A39.57,39.57,0,0,0,52,164c-.77,0-1.41,1-.51,1.19l.19,0h0l.77.15,0,.06h-1c-1,0-1.29,1.07-.32,1.23a69.63,69.63,0,0,0,12.12.71q3.6.45,7.12,1.18c.92.19,1.63-1,.69-1.15h.71q1.38.08,2.79.06l1.17,0a1.13,1.13,0,0,0,.39-.07h.15a.7.7,0,0,0,.61-.35q.93-.12,1.86-.3a.77.77,0,0,0,.28-.1h.06a.78.78,0,0,0,.27,0,5.36,5.36,0,0,0,1.3.28.59.59,0,0,0,.11.63.68.68,0,0,0,.79.55l5.24-.5-3.59.76c-1,.19-.94,1.29.07,1.22a58.06,58.06,0,0,0,13.6-3l.17,0a.92.92,0,0,0,.48-.19l.23-.08c3.11-.76,6.21-1.55,9.3-2.39a.7.7,0,0,0,.4-.27c1.4-.22,2.8-.42,4.18-.61C112.66,163,112.59,161.79,111.59,161.89Z"/><path class="cls-3" d="M55.52,161.65c-.73-.47-1.77.51-1,1S56.25,162.13,55.52,161.65Z"/><path class="cls-3" d="M59.74,161.94a.94.94,0,0,0-1.09.13l-.17.13a.52.52,0,0,0,.06.86.94.94,0,0,0,1.09-.12l.17-.13A.53.53,0,0,0,59.74,161.94Z"/><path class="cls-3" d="M65.62,160.86l-.32,0c-1,.11-.91,1.34.08,1.23l.32,0C66.69,162,66.61,160.74,65.62,160.86Z"/><path class="cls-3" d="M64.71,163.46c-.73-.48-1.77.51-1,1S65.45,163.94,64.71,163.46Z"/><path class="cls-3" d="M69.24,163.21c-.74-.48-1.77.51-1,1S70,163.69,69.24,163.21Z"/><path class="cls-3" d="M72.34,162l-.32,0c-1,.12-.91,1.34.08,1.23l.32,0C73.41,163.15,73.33,161.93,72.34,162Z"/><path class="cls-3" d="M75.39,163l-.34-.22c-.74-.48-1.77.51-1,1l.34.22C75.09,164.5,76.12,163.52,75.39,163Z"/><path class="cls-3" d="M84.14,162.44l-.15.15c-.66.63.48,1.38,1.14.74l.15-.14C86,162.55,84.81,161.81,84.14,162.44Z"/><path class="cls-3" d="M89.06,161.37l-.17-.11c-.73-.47-1.76.51-1,1l.17.11C88.76,162.84,89.8,161.85,89.06,161.37Z"/><path class="cls-3" d="M88.76,162.65l-.32,0c-1,.11-.92,1.34.07,1.23l.32,0C89.82,163.76,89.75,162.54,88.76,162.65Z"/><path class="cls-3" d="M95.46,159.88c-.74-.48-1.77.51-1,1S96.19,160.36,95.46,159.88Z"/><path class="cls-3" d="M94.48,161.8l-.15.14c-.67.64.47,1.38,1.14.75l.15-.15C96.29,161.91,95.15,161.16,94.48,161.8Z"/><path class="cls-3" d="M91.08,161.79l-.16.15c-.66.63.48,1.38,1.14.74l.16-.14C92.88,161.9,91.74,161.16,91.08,161.79Z"/><path class="cls-3" d="M100.18,160.25l-.17-.11c-.73-.47-1.77.51-1,1l.17.11C99.88,161.72,100.92,160.73,100.18,160.25Z"/><path class="cls-3" d="M114.94,154.47l-.15.14c-.67.64.47,1.38,1.14.75l.15-.15C116.74,154.57,115.6,153.83,114.94,154.47Z"/><path class="cls-3" d="M120.8,151.3l-.32,0c-1,.11-.92,1.33.08,1.22l.32,0C121.87,152.42,121.79,151.19,120.8,151.3Z"/><path class="cls-3" d="M125.37,150.84c-.73-.48-1.77.51-1,1S126.11,151.32,125.37,150.84Z"/><path class="cls-3" d="M120.29,154.17v-.26c0-.78-1.59-.61-1.54.18l0,.25C118.81,155.13,120.34,155,120.29,154.17Z"/><path class="cls-3" d="M128.67,148.41l-.31.29c-.66.63.48,1.38,1.14.74l.31-.29C130.47,148.51,129.33,147.77,128.67,148.41Z"/><path class="cls-3" d="M136.78,145l-.32,0c-1,.11-.91,1.33.08,1.22l.32,0C137.85,146.1,137.77,144.88,136.78,145Z"/><path class="cls-3" d="M132.79,147.56l-.08,0a.92.92,0,0,0-.24-.13.94.94,0,0,0-1,.35.58.58,0,0,0,.27.86,1,1,0,0,0,1.13-.18A.52.52,0,0,0,132.79,147.56Z"/><path class="cls-3" d="M140.1,145.19c-.74-.48-1.77.5-1,1S140.83,145.67,140.1,145.19Z"/><path class="cls-3" d="M145.16,143.07,145,143c-.74-.48-1.77.51-1,1l.17.11C144.86,144.54,145.89,143.55,145.16,143.07Z"/><path class="cls-4" d="M138.39,144.17c-6.11.55-13.64,3.73-18.58,6.91-.22.14-.07.46.21.35,3.25-1.26,6.33-2.78,9.6-4,2.92-1.08,6-1.82,8.84-3.08C138.59,144.29,138.5,144.15,138.39,144.17Z"/><path class="cls-4" d="M96.51,159.74a27.3,27.3,0,0,0-12,.72c-.38.11-.26.57.12.53,4-.41,7.88-.78,11.87-.88A.19.19,0,1,0,96.51,159.74Z"/><path class="cls-4" d="M70.73,163.32a31.28,31.28,0,0,0-6.61-.71c-2.45-.08-4.77-.64-7.18-.73-.2,0-.33.19-.18.3,1.51,1.06,4,1.13,6,1.2,2.6.1,5.22.06,7.81.22C70.8,163.61,70.92,163.37,70.73,163.32Z"/><path class="cls-4" d="M47,162.16a2.84,2.84,0,0,0-1.41-.31,6.85,6.85,0,0,0-.79,0c-.3,0-.58.1-.87.12s-.22.21-.07.24.48.18.74.24a7.09,7.09,0,0,0,.82.09,3.35,3.35,0,0,0,1.51-.09C47.06,162.36,47.11,162.23,47,162.16Z"/><path class="cls-5" d="M151.33,137.71a77.6,77.6,0,0,0-46.45,16.58c-2.08,1.66.86,4.56,2.92,2.92,12.32-9.83,27.85-15,43.53-15.37,2.66-.07,2.67-4.2,0-4.13Z"/><path class="cls-5" d="M149.47,144.65A142.52,142.52,0,0,1,110.94,159c-2.59.57-1.49,4.55,1.1,4a146.71,146.71,0,0,0,39.52-14.78c2.33-1.28.24-4.85-2.09-3.56Z"/><path class="cls-5" d="M103.58,156.81a11.17,11.17,0,0,0,4.26,4c.87.53,1.76,1,2.61,1.58s1.44,1.19,2.49,1.13a2.11,2.11,0,0,0,2-1.51l0-.09a2.11,2.11,0,0,0-1-2.33l-.1-.06a2.12,2.12,0,0,0-2.5.32l-.06,0c-2,1.72.91,4.63,2.92,2.92l.06-.05-2.5.32.1.06-1-2.33,0,.09,2-1.51c.75.34.92.37.5.08-.18-.14-.36-.28-.55-.41s-.48-.32-.72-.48c-.67-.43-1.37-.82-2.06-1.24a7.41,7.41,0,0,1-3-2.63c-1.26-2.35-4.82-.26-3.56,2.08Z"/><path class="cls-5" d="M105.42,154.42Q91,154.07,76.68,155a2.09,2.09,0,0,0-1.78,3.11c1.74,3.21,3.61,6.43,1.87,10.26a2.09,2.09,0,0,0,1.78,3.1,146.93,146.93,0,0,0,20.61-2c5.54-.94,11.6-1.7,16-5.43,2-1.72-.9-4.62-2.92-2.92-4,3.39-11,3.88-16,4.67a140,140,0,0,1-17.7,1.57l1.78,3.11c2.36-5.19.75-9.61-1.87-14.42l-1.78,3.1q14.35-.89,28.74-.55c2.65.06,2.65-4.07,0-4.13Z"/><path class="cls-5" d="M76.3,156a115.16,115.16,0,0,1-26.76-.59c-1.58-.23-3.48,1.38-2.34,3a6.9,6.9,0,0,1,.7,7.43c-.5,1.09-.19,2.79,1.24,3a155.31,155.31,0,0,0,16.09,2c4.82.32,10,.91,14.56-.9,2.44-1,1.37-5-1.1-4-4.22,1.67-9,1.05-13.46.76a143.11,143.11,0,0,1-15-1.82l1.24,3c1.88-4,1.89-7.85-.7-11.59l-2.33,3a119.66,119.66,0,0,0,27.86.74c2.62-.23,2.65-4.36,0-4.13Z"/><path class="cls-5" d="M49.44,157.14c-8.44.25-16.38-2.89-24.31-5.41-2.54-.8-3.63,3.18-1.1,4,8.31,2.64,16.57,5.82,25.41,5.56,2.65-.08,2.67-4.21,0-4.13Z"/><path class="cls-5" d="M23.39,155c5.37,7.23,16.51,11.4,25.27,11.82,2.66.13,2.65-4,0-4.13-7-.33-17.36-3.92-21.7-9.77-1.57-2.11-5.16,0-3.57,2.08Z"/><path class="cls-5" d="M149.11,140.47a15.48,15.48,0,0,1,1,5.25c0,2.58,4,2.58,4,0a18.84,18.84,0,0,0-1.11-6.31c-.87-2.41-4.73-1.37-3.86,1.06Z"/><path class="cls-2" d="M227.41,147c-.17-.28-.34-.56-.49-.85-1.59-2.95-7.41-.91-6.45,2.05.7,2.15,1.48,4.28,2.31,6.4a2.46,2.46,0,0,0-.92,2.57A51.72,51.72,0,0,0,223.8,164a1.92,1.92,0,0,0-.14,2.93c1.05,1.2,2,2.43,3,3.67,1,1.87,2,3.72,3.15,5.54a2.93,2.93,0,0,0,1.27,1.08,56.48,56.48,0,0,1,3.92,8.2,3.47,3.47,0,0,0,3.63,2v4.32a69.87,69.87,0,0,0-2.88,20.81,2.3,2.3,0,0,0,.15.71,2.91,2.91,0,0,0-.13.6q-.82,7.47-1.64,14.95-.54,2.44-1.14,4.89a2.31,2.31,0,0,0,.49,2,21.43,21.43,0,0,0-1.46,2.81,31.94,31.94,0,0,0-2,7.28c-.13.14-.27.29-.42.43-2.87,2.7,2.07,6.66,5,3.93,3.51-3.31,3.84-7.42,5-11.3.21-.4.41-.81.63-1.21a3.62,3.62,0,0,0,3.35-2,59.68,59.68,0,0,0,4.54-15.18c0-.05,0-.09,0-.13a25.46,25.46,0,0,0,1.53-9.65c1.63-.13,3.06-1,2.92-2.63q-.68-7.29-1.67-14.55,0-4.31,0-8.59c0-2.27-2.73-3.13-4.81-2.47-.06-.13-.11-.25-.18-.38l-4.08-6.91a2.28,2.28,0,0,0,.43-3c-4.77-8-4.86-17.14-12.25-24.25A3.22,3.22,0,0,0,227.41,147Z"/><path class="cls-3" d="M228.88,146.7a.92.92,0,0,0-1.59.39l-1-1.38c-.58-.77-2.11-.09-1.53.68s1.31,1.77,1.95,2.67l4.52,9.37c-.48.19-.77.71-.28,1.11l.19.14a.93.93,0,0,0,.77.18c.55,1.12,1.09,2.25,1.63,3.37-.68.3-.54,1.3.43,1.3h.2q1.77,3.69,3.55,7.36c.31.9.63,1.79,1,2.69a.58.58,0,0,0-.05.66l.85,1.61,2.21,6.23c.31.88,1.84.51,1.7-.35a.29.29,0,0,1,0-.09.62.62,0,0,0,.32-.7A91.79,91.79,0,0,0,239,167.65q-.39-1.05-.81-2.1c.36-.14.62-.43.47-.77a136.71,136.71,0,0,0-8.28-15.73l-1.08-2A.62.62,0,0,0,228.88,146.7Z"/><path class="cls-3" d="M246.69,181.41v.53a1.3,1.3,0,0,0-1,.07l-.19-1.12c-.14-.78-1.84-.62-1.73.17q1.28,8.53,2.89,17.05a114,114,0,0,1-.06,11.69c-.48-.06-1,.16-1.08.66-.18,2.22-.36,4.45-.58,6.67a58.37,58.37,0,0,0-.84,5.91c-.2,1-.43,2.09-.67,3.13a25.48,25.48,0,0,0-3.15,8.63c-.12.69,1.2,1.32,1.61.52,0,0,0-.11.08-.17h0v0l.33-.68.1,0c-.06.31-.13.62-.18.93-.15.87,1.32,1.22,1.7.36a41.93,41.93,0,0,0,2.93-10.8,61.42,61.42,0,0,1,2.81-6.29c.42-.81-1.1-1.51-1.52-.69l0,0c0-.22.09-.45.14-.67.21-.82.39-1.65.52-2.49.08-.35.15-.7.22-1a.58.58,0,0,0,0-.35s0-.09,0-.13a.56.56,0,0,0-.4-.57c0-.56-.06-1.12-.13-1.68a.49.49,0,0,0-.1-.26l0-.05a.66.66,0,0,0,0-.24,3.69,3.69,0,0,0,.59-1.15,1.36,1.36,0,0,0,.93-.06c.44,0,.9-.27.91-.68,0-1.57.07-3.14.11-4.71.17,1.09.35,2.17.51,3.26.12.87,1.69.91,1.75,0a33.05,33.05,0,0,0-2-12.34v-.15a.57.57,0,0,0-.2-.44c0-.07-.05-.14-.07-.22-.59-2.82-1.22-5.64-1.93-8.45a.6.6,0,0,0-.32-.38c-.08-1.26-.15-2.52-.2-3.77C248.41,180.52,246.71,180.52,246.69,181.41Z"/><path class="cls-3" d="M237.45,231.53c-.8.62.44,1.61,1.24,1S238.25,230.9,237.45,231.53Z"/><path class="cls-3" d="M238.53,227.77a.6.6,0,0,0,0,1l.16.16a1.07,1.07,0,0,0,1.24,0,.6.6,0,0,0,0-1l-.16-.16A1.07,1.07,0,0,0,238.53,227.77Z"/><path class="cls-3" d="M237.92,222.44v.29c0,.9,1.75.9,1.75,0v-.29C239.67,221.56,237.91,221.55,237.92,222.44Z"/><path class="cls-3" d="M241.48,223.42c-.8.62.44,1.61,1.24,1S242.28,222.79,241.48,223.42Z"/><path class="cls-3" d="M241.84,219.36c-.79.62.45,1.61,1.25,1S242.64,218.73,241.84,219.36Z"/><path class="cls-3" d="M240.67,216.51v.29c0,.89,1.75.89,1.75,0v-.29C242.42,215.62,240.66,215.61,240.67,216.51Z"/><path class="cls-3" d="M242.57,213.85l-.36.29c-.8.62.44,1.61,1.24,1l.36-.29C244.61,214.2,243.37,213.22,242.57,213.85Z"/><path class="cls-3" d="M243.12,206l.18.15c.8.63,2-.34,1.24-1l-.19-.14C243.56,204.37,242.31,205.35,243.12,206Z"/><path class="cls-3" d="M242.37,201.52l-.18.14c-.8.63.44,1.62,1.24,1l.19-.15C244.41,201.87,243.17,200.89,242.37,201.52Z"/><path class="cls-3" d="M244.14,201.87v.29c0,.89,1.76.9,1.75,0v-.29C245.89,201,244.14,201,244.14,201.87Z"/><path class="cls-3" d="M241.27,195.72c-.8.62.44,1.61,1.24,1S242.06,195.09,241.27,195.72Z"/><path class="cls-3" d="M243.84,196.7l.18.15c.8.63,2-.34,1.24-1l-.18-.14C244.28,195.09,243,196.07,243.84,196.7Z"/><path class="cls-3" d="M243.29,199.75l.19.14c.79.63,2-.34,1.23-1l-.18-.15C243.73,198.14,242.49,199.11,243.29,199.75Z"/><path class="cls-3" d="M242.55,191.51l-.19.15c-.79.63.45,1.61,1.24,1l.19-.14C244.59,191.87,243.35,190.88,242.55,191.51Z"/><path class="cls-3" d="M236.65,178l.18.15c.8.63,2-.34,1.24-1l-.18-.14C237.09,176.36,235.85,177.34,236.65,178Z"/><path class="cls-3" d="M233.08,172.54v.29c0,.89,1.76.9,1.75,0v-.29C234.83,171.65,233.08,171.65,233.08,172.54Z"/><path class="cls-3" d="M233.15,168.43c-.8.62.44,1.61,1.24,1S234,167.8,233.15,168.43Z"/><path class="cls-3" d="M237.08,173.17h-.37c-1.13,0-1.13,1.39,0,1.39h.36C238.21,174.55,238.21,173.17,237.08,173.17Z"/><path class="cls-3" d="M230.2,165.34l.37.29c.8.63,2-.35,1.24-1l-.37-.29C230.64,163.73,229.4,164.7,230.2,165.34Z"/><path class="cls-3" d="M226.63,157.87v.29c0,.9,1.76.9,1.76,0v-.29C228.38,157,226.63,157,226.63,157.87Z"/><path class="cls-3" d="M229.65,161.6s0,.05-.06.07a.74.74,0,0,0-.23.2c-.25.34-.06.73.33.94a1.13,1.13,0,0,0,1.27-.19.66.66,0,0,0-.07-1A1.07,1.07,0,0,0,229.65,161.6Z"/><path class="cls-3" d="M227.44,154.92c-.8.63.44,1.61,1.24,1S228.23,154.29,227.44,154.92Z"/><path class="cls-3" d="M225.23,150.27l-.19.15c-.8.63.44,1.61,1.24,1l.19-.14C227.26,150.63,226,149.65,225.23,150.27Z"/><path class="cls-4" d="M225.71,156.39c-.19,5.5,3.16,12.42,6.89,17,.17.21.65.09.54-.17-1.28-3-3-5.82-4.17-8.82-1.08-2.67-1.64-5.49-3-8.09C225.92,156.22,225.71,156.29,225.71,156.39Z"/><path class="cls-4" d="M241.23,194.77a15.67,15.67,0,0,0-.88,10.79c.1.35.76.27.77-.08a86.51,86.51,0,0,1,.63-10.66C241.78,194.57,241.32,194.56,241.23,194.77Z"/><path class="cls-4" d="M242.24,218a19.52,19.52,0,0,0-2.06,5.86c-.51,2.19-1.67,4.23-2.19,6.38-.05.18.22.31.4.18,1.75-1.29,2.25-3.54,2.68-5.33.55-2.32.91-4.67,1.54-7C242.66,218,242.34,217.86,242.24,218Z"/><path class="cls-4" d="M236.81,239.17a2.24,2.24,0,0,0-.67,1.25,4.2,4.2,0,0,0-.17.7c0,.27.05.52,0,.78s.27.21.35.08.33-.41.44-.64a5.05,5.05,0,0,0,.27-.74,1.92,1.92,0,0,0,.11-1.35A.24.24,0,0,0,236.81,239.17Z"/><path class="cls-5" d="M219.26,143.93c-2.24,16.55,4.32,32,16.2,43.46,2.17,2.09,5.48-1.21,3.31-3.31-10.55-10.16-17-24.07-15-38.91.4-2.94-4.11-4.21-4.51-1.24Z"/><path class="cls-5" d="M222.11,147.36a37,37,0,0,1,8,.3A2.41,2.41,0,0,0,233,146a2.35,2.35,0,0,0-1.63-2.88,43.4,43.4,0,0,0-9.25-.47c-3,.19-3,4.87,0,4.68Z"/><path class="cls-5" d="M228.84,146.86a89,89,0,0,1,14.3,35.21c.5,3,5,1.7,4.51-1.25a92.28,92.28,0,0,0-14.77-36.32c-1.68-2.48-5.73-.14-4,2.36Z"/><path class="cls-5" d="M237.6,188.87a17.39,17.39,0,0,0,6.49-3.77c1.62-1.36,4.34-2.65,4.55-4.92a2.32,2.32,0,0,0-1.72-2.25,2.7,2.7,0,0,0-2.5.66,2.36,2.36,0,0,0,0,3.31l.06,0c2.23,2,5.55-1.29,3.31-3.31l-.06,0v3.31l.1-.09-2.27.6.12,0L244,180.18l0,.2.68-1.66c-1.23,1.07-2.6,2-3.85,3.08a11.85,11.85,0,0,1-4.42,2.56c-2.89.82-1.66,5.33,1.24,4.51Z"/><path class="cls-5" d="M235.75,186a200.16,200.16,0,0,0-3.85,26.35,2.36,2.36,0,0,0,3,2.26c5.51-1.58,11.06-3,16.62-.94,1.59.59,2.78-.89,3-2.25a82,82,0,0,0,.1-20.82c-.6-4.75-1.26-9.34-4.95-12.69-2.22-2-5.54,1.28-3.3,3.31,3.86,3.5,3.84,10.22,4.11,15.05a81.68,81.68,0,0,1-.64,15.15l3-2.26c-6.33-2.34-12.83-.85-19.1.94l2.95,2.25a189.6,189.6,0,0,1,3.69-25.1c.63-2.94-3.87-4.19-4.51-1.25Z"/><path class="cls-5" d="M233.29,212.73a68.84,68.84,0,0,1-5.2,23.76c-.66,1.6,1.3,3.47,2.87,2.87a16.84,16.84,0,0,1,12.41-.05,2.35,2.35,0,0,0,2.64-1.07,99.21,99.21,0,0,0,6-16.53c1.09-4.24,2-8.07.22-12.19-1.21-2.75-5.24-.37-4,2.36,1.56,3.55-.65,8.72-1.69,12.19A92.68,92.68,0,0,1,242,235.88l2.64-1.08a20.83,20.83,0,0,0-14.89.06l2.87,2.87a72.32,72.32,0,0,0,5.38-25c.1-3-4.57-3-4.68,0Z"/><path class="cls-5" d="M230.65,236.81c-.93,7.74-7.12,14.55-11.43,20.72-1.72,2.47,2.33,4.81,4,2.36,5-7.13,11-14.17,12.07-23.08.36-3-4.32-3-4.68,0Z"/><path class="cls-5" d="M222.34,260.45c5.11-1.89,8.8-5.16,12.57-9s6.93-7.76,8.16-13c.69-2.93-3.81-4.18-4.51-1.25-1,4.43-3.85,7.73-7,10.91s-6.24,6.23-10.5,7.81c-2.8,1-1.59,5.56,1.24,4.51Z"/><path class="cls-2" d="M206,150c0-.21-.07-.42-.09-.64-.23-2.2-4.51-1.93-4.67.17q-.18,2.28-.21,4.56a1.94,1.94,0,0,0-1.27,1.51,34.39,34.39,0,0,0-.54,4.74,1.4,1.4,0,0,0-.86,1.87c.35,1,.66,1.94.94,2.92a37.38,37.38,0,0,0,.56,4.16,1.59,1.59,0,0,0,.53.93,36.78,36.78,0,0,1,.35,6,2,2,0,0,0,1.81,1.93l-1.14,2.8a53.86,53.86,0,0,0-7.34,13,1.25,1.25,0,0,0-.09.49,2.31,2.31,0,0,0-.25.36l-5,9.4c-.66,1-1.34,2-2,3a1.61,1.61,0,0,0-.23,1.42,19,19,0,0,0-1.68,1.55,26.45,26.45,0,0,0-3.18,4.37l-.38.21c-2.56,1.23-.43,4.69,2.15,3.44,3.13-1.51,4.42-4.12,6.19-6.42l.73-.67a2.73,2.73,0,0,0,2.67-.69,47.47,47.47,0,0,0,6.92-9l.07-.07a20,20,0,0,0,3.52-6,2.09,2.09,0,0,0,2.57-1.18q1.49-4.84,2.77-9.74,1.13-2.79,2.26-5.58c.59-1.47-.93-2.52-2.44-2.47,0-.09,0-.18,0-.28-.26-1.74-.53-3.47-.79-5.21a1.77,1.77,0,0,0,1.06-1.86c-.94-6.07,1.4-12-1.47-17.94A1.88,1.88,0,0,0,206,150Z"/><path class="cls-3" d="M207.05,150.09c-.13-.49-1-.43-1.13,0-.09-.36-.18-.72-.28-1.08-.17-.6-1.33-.44-1.16.17s.37,1.38.54,2.08c.14,2.3.29,4.6.43,6.9-.36,0-.68.32-.47.66l.08.13a.55.55,0,0,0,.45.25l.16,2.49a.46.46,0,0,0-.07.92l.13,0,.33,5.41L206,170a.44.44,0,0,0-.2.42l.12,1.2c-.08,1.47-.15,3-.23,4.43,0,.63,1,.67,1.18.08,0,0,0,0,0-.06a.49.49,0,0,0,.39-.39,60.35,60.35,0,0,0,.76-10.12c0-.5,0-1,0-1.51.27,0,.51-.16.5-.42a85.24,85.24,0,0,0-1.16-11.69l-.15-1.52A.42.42,0,0,0,207.05,150.09Z"/><path class="cls-3" d="M209.32,175.83c0,.11-.09.23-.14.34a.86.86,0,0,0-.65-.13l.17-.76c.12-.53-1-.73-1.15-.21q-1.44,5.77-2.65,11.59-1.36,3.84-3.12,7.57a.66.66,0,0,0-.86.23q-1,2.11-2.14,4.23a41.87,41.87,0,0,0-2.09,3.68c-.41.64-.83,1.27-1.26,1.91a20.46,20.46,0,0,0-4.3,5c-.25.42.42,1.07.9.63l.1-.1h0l.4-.39h.07c-.12.19-.25.38-.36.57-.33.54.53,1,1,.54a33.19,33.19,0,0,0,4.73-6.47,48.39,48.39,0,0,1,3.46-3.57c.49-.45-.3-1.18-.79-.73l0,0,.27-.42c.35-.49.69-1,1-1.51l.42-.64a.32.32,0,0,0,.07-.24l.05-.08a.34.34,0,0,0-.11-.44c.13-.37.26-.74.36-1.12a.28.28,0,0,0,0-.18l0,0,.07-.16a3,3,0,0,0,.68-.64.81.81,0,0,0,.61.13.65.65,0,0,0,.76-.27l1.32-3c-.18.74-.35,1.47-.54,2.21s.85.9,1.13.32a23.11,23.11,0,0,0,1.94-8.37l0-.1a.36.36,0,0,0,0-.32v-.16c.37-1.93.71-3.88,1-5.83a.37.37,0,0,0-.1-.3c.28-.84.57-1.66.87-2.48C210.66,175.57,209.57,175.25,209.32,175.83Z"/><path class="cls-3" d="M190.17,206.67c-.67.26-.14,1.12.54.86S190.85,206.41,190.17,206.67Z"/><path class="cls-3" d="M191.86,204.43a.44.44,0,0,0-.26.63l.06.14a.7.7,0,0,0,.8.22.44.44,0,0,0,.26-.63l-.07-.14A.68.68,0,0,0,191.86,204.43Z"/><path class="cls-3" d="M192.87,200.86l-.08.19c-.23.58.89.9,1.13.32l.07-.19C194.23,200.6,193.1,200.28,192.87,200.86Z"/><path class="cls-3" d="M194.9,202.14c-.68.26-.14,1.12.54.86S195.58,201.87,194.9,202.14Z"/><path class="cls-3" d="M196.2,199.57c-.67.26-.14,1.12.54.86S196.88,199.31,196.2,199.57Z"/><path class="cls-3" d="M196.2,197.51l-.08.19c-.23.57.89.9,1.13.32l.07-.19C197.56,197.25,196.43,196.93,196.2,197.51Z"/><path class="cls-3" d="M198.12,196.13l-.31.12c-.67.26-.14,1.12.54.86l.31-.12C199.34,196.73,198.8,195.86,198.12,196.13Z"/><path class="cls-3" d="M200.55,191.12l.08.13c.34.56,1.4.15,1.05-.41l-.08-.13C201.25,190.16,200.2,190.57,200.55,191.12Z"/><path class="cls-3" d="M201.25,188.09l-.16.07c-.67.26-.14,1.12.54.86l.16-.06C202.46,188.69,201.93,187.83,201.25,188.09Z"/><path class="cls-3" d="M202.29,188.64l-.08.19c-.23.58.89.9,1.13.32l.07-.19C203.65,188.38,202.52,188.06,202.29,188.64Z"/><path class="cls-3" d="M202.07,184.13c-.68.26-.14,1.12.54.86S202.75,183.87,202.07,184.13Z"/><path class="cls-3" d="M203.46,185.23l.08.13c.34.56,1.4.15,1.05-.41l-.08-.12C204.17,184.27,203.11,184.68,203.46,185.23Z"/><path class="cls-3" d="M202.3,187.11l.08.13c.35.55,1.4.14,1.06-.41l-.08-.13C203,186.15,202,186.55,202.3,187.11Z"/><path class="cls-3" d="M204,181.64l-.16.06c-.67.26-.14,1.12.54.86l.16-.06C205.21,182.23,204.68,181.37,204,181.64Z"/><path class="cls-3" d="M203.79,171.79l.08.12c.34.56,1.4.15,1-.41l-.08-.12C204.49,170.82,203.44,171.23,203.79,171.79Z"/><path class="cls-3" d="M202.93,167.62l-.08.18c-.23.58.89.9,1.13.33l.07-.19C204.29,167.36,203.16,167,202.93,167.62Z"/><path class="cls-3" d="M204.06,165c-.68.26-.14,1.12.53.86S204.74,164.7,204.06,165Z"/><path class="cls-3" d="M205.33,168.75l-.23-.07c-.73-.21-1.09.69-.37.9l.24.06C205.69,169.85,206.06,169,205.33,168.75Z"/><path class="cls-3" d="M203,162.42l.16.26c.35.55,1.4.15,1.06-.41L204,162C203.69,161.46,202.64,161.87,203,162.42Z"/><path class="cls-3" d="M202.66,156.94l-.08.19c-.23.57.89.89,1.13.32l.07-.19C204,156.68,202.89,156.36,202.66,156.94Z"/><path class="cls-3" d="M203.61,159.9l-.05,0a.53.53,0,0,0-.2.09.43.43,0,0,0,0,.68.77.77,0,0,0,.86.1.47.47,0,0,0,.23-.67A.68.68,0,0,0,203.61,159.9Z"/><path class="cls-3" d="M204,155.17c-.67.26-.14,1.12.54.86S204.63,154.9,204,155.17Z"/><path class="cls-3" d="M203.76,151.75l-.15.06c-.68.27-.14,1.13.53.87l.16-.07C205,152.35,204.44,151.49,203.76,151.75Z"/><path class="cls-4" d="M202.46,155.81c-1.57,3.53-1.25,8.63-.07,12.29.06.16.4.17.39,0,0-2.16-.36-4.31-.35-6.47,0-1.93.4-3.86.22-5.79C202.64,155.74,202.49,155.74,202.46,155.81Z"/><path class="cls-4" d="M202.29,183.51a11.92,11.92,0,0,0-3.41,6.84c0,.24.42.31.52.09a64.68,64.68,0,0,1,3.21-6.8C202.7,183.48,202.41,183.39,202.29,183.51Z"/><path class="cls-4" d="M196.81,198.78a15.49,15.49,0,0,0-2.87,3.43c-.9,1.32-2.19,2.44-3.09,3.74-.07.11.06.24.21.19a7,7,0,0,0,3.13-3c1-1.4,1.81-2.86,2.82-4.25C197.09,198.82,196.92,198.69,196.81,198.78Z"/><path class="cls-4" d="M187.75,211.51a1.82,1.82,0,0,0-.76.69c-.1.14-.21.28-.3.43s-.1.34-.19.51.12.18.2.11.32-.21.46-.34a3.49,3.49,0,0,0,.36-.42,1.58,1.58,0,0,0,.44-.86A.16.16,0,0,0,187.75,211.51Z"/><path class="cls-5" d="M201.52,146.57a33.5,33.5,0,0,0-.86,31.14c.87,1.85,3.62.24,2.75-1.61a30,30,0,0,1,.85-27.93c1-1.79-1.76-3.4-2.74-1.6Z"/><path class="cls-5" d="M202.72,149.32a22.53,22.53,0,0,1,5.06,1.65c1.84.86,3.46-1.88,1.61-2.75a26.1,26.1,0,0,0-5.82-2c-2-.43-2.85,2.64-.85,3.07Z"/><path class="cls-5" d="M207.05,150.22a57.83,57.83,0,0,1-.1,25c-.45,2,2.62,2.85,3.07.84a62,62,0,0,0,.1-26.67c-.42-2-3.49-1.16-3.07.85Z"/><path class="cls-5" d="M201.72,179a13.21,13.21,0,0,0,5.05-1.24c1.14-.48,3.39-.85,4-2a1.61,1.61,0,0,0-.57-2.18,1.85,1.85,0,0,0-1.77,0,1.62,1.62,0,0,0-.57,2.18l0,0c1,1.81,3.71.21,2.75-1.61l0,0-.57,2.18.09,0h-1.61l.07,0-.57-2.18c.4-.45.33-.52-.21-.22l-.92.37-1.54.66a9.55,9.55,0,0,1-3.63.89c-2.05,0-2.05,3.21,0,3.18Z"/><path class="cls-5" d="M201,176.83a149.32,149.32,0,0,0-9.21,16,1.62,1.62,0,0,0,1.38,2.4c3.84,0,7.72,0,10.9,2.4a1.59,1.59,0,0,0,2.18-.57c3.35-6.07,8.92-16.08,5.73-23-.85-1.86-3.6-.24-2.75,1.61,1.4,3.06-.59,7.92-1.63,10.87a59.67,59.67,0,0,1-4.1,8.94l2.18-.57c-3.6-2.75-8.16-2.87-12.51-2.84l1.37,2.39a152.1,152.1,0,0,1,9.2-16c1.13-1.71-1.62-3.31-2.74-1.6Z"/><path class="cls-5" d="M192.59,193.35A54.49,54.49,0,0,1,183,207.88c-.86.94-.34,2.84,1.12,2.72a11,11,0,0,1,8,2.21,1.59,1.59,0,0,0,1.93-.25c4.09-4.15,11.36-10.83,11.4-17.1a1.6,1.6,0,0,0-3.19,0c0,3.16-3.15,6.44-5,8.75a79.07,79.07,0,0,1-5.47,6.1l1.93-.25a13.5,13.5,0,0,0-9.58-2.64l1.13,2.71A56.78,56.78,0,0,0,195.34,195c.83-1.85-1.92-3.47-2.75-1.6Z"/><path class="cls-5" d="M184.55,208.49c-2.71,5.07-8.25,8.21-12.75,11.51-1.63,1.2,0,4,1.61,2.75,4.94-3.63,10.91-7.09,13.89-12.65,1-1.81-1.79-3.42-2.75-1.61Z"/><path class="cls-5" d="M173.05,222.72c6.9-.6,15-4.86,19-10.54,1.19-1.67-1.57-3.27-2.75-1.61-3.22,4.55-10.71,8.48-16.24,9-2,.17-2.05,3.36,0,3.18Z"/></g></g></g><g id="Layer_94" data-name="Layer 94"><g id="Espalda"><rect class="cls-6" width="275" height="259.5"/></g></g></g></g></svg>