<svg xmlns="http://www.w3.org/2000/svg" viewBox="0 0 160 195"><defs><style>.cls-1{isolation:isolate;}.cls-2{fill:#96c3e9;}.cls-3{fill:none;mix-blend-mode:multiply;opacity:0.4;}</style></defs><g class="cls-1"><g id="Layer_2" data-name="Layer 2"><g id="Variacion_C" data-name="Variacion C"><g id="AssetsW4"><g id="HamW4"><path class="cls-2" d="M42.43,93.65a17.61,17.61,0,0,1,2.42-4.75c.94-1.29,2.15-2.78,3.78-3.16,3.19-.75,4.88,3.6,7.14,5,3.24,2.07,6.23,0,7.87-3a46.41,46.41,0,0,1,2.56-4.7A14.08,14.08,0,0,1,70,79.43a5.42,5.42,0,0,1,4.58-1,10.31,10.31,0,0,1,3.38,2.32,6.74,6.74,0,0,0,3.9,2,6.8,6.8,0,0,0,4.37-1.56c2.84-2.16,4.15-5.75,7-7.85A6.27,6.27,0,0,1,98.09,72,10.8,10.8,0,0,1,102,74.16a7.66,7.66,0,0,0,5,1.77,6.57,6.57,0,0,0,4.62-2.23,7.11,7.11,0,0,0,1.59-4.55,28.1,28.1,0,0,0-.17-6.22c.33,1.59-.33,3.39,0,5,.38,1.85-.68.75.12-2.85-.07.36-.1.72-.2,1.07a7,7,0,0,1-.9,2,6.4,6.4,0,0,1-3.56,2.56A6.7,6.7,0,0,1,104,70.4a29.44,29.44,0,0,1-3.65-2.4c-2.92-1.89-6-1-8.34,1.37S88.31,75,85.41,76.71a6,6,0,0,1-4.3.91,8.29,8.29,0,0,1-3.43-2.09,9,9,0,0,0-3.27-2.15A5.5,5.5,0,0,0,70,74.43c-3,1.94-4.45,4.7-6,7.77-1.39,2.68-3.85,5.45-7.18,4.1a9.81,9.81,0,0,1-3.69-3.14c-1-1.2-2.2-2.6-3.92-2.5s-3,1.51-3.92,2.73a17.56,17.56,0,0,0-2.81,5.26,9.09,9.09,0,0,0,0,2.5,9.12,9.12,0,0,1,0,2.5Z"/><path class="cls-2" d="M45.43,110.31a17.9,17.9,0,0,1,2.42-4.75c.94-1.29,2.15-2.77,3.78-3.16,3.19-.74,4.88,3.6,7.14,5,3.24,2.07,6.23,0,7.87-3a45.51,45.51,0,0,1,2.56-4.71A14.08,14.08,0,0,1,73,96.09a5.42,5.42,0,0,1,4.58-1,10.31,10.31,0,0,1,3.38,2.32,6.74,6.74,0,0,0,3.9,2,6.75,6.75,0,0,0,4.37-1.56c2.84-2.16,4.15-5.75,7-7.85a6.31,6.31,0,0,1,4.84-1.33A10.82,10.82,0,0,1,105,90.83a7.65,7.65,0,0,0,5,1.76,6.57,6.57,0,0,0,4.62-2.23,7.11,7.11,0,0,0,1.59-4.55,28.1,28.1,0,0,0-.17-6.22c.33,1.59-.33,3.39,0,5,.38,1.85-.68.75.12-2.84-.07.35-.1.71-.2,1.06a7,7,0,0,1-.9,2,6.4,6.4,0,0,1-3.56,2.56,6.7,6.7,0,0,1-4.48-.28,27.34,27.34,0,0,1-3.65-2.4c-2.92-1.89-6-1-8.34,1.37s-3.71,5.59-6.61,7.34a6,6,0,0,1-4.3.91,8.19,8.19,0,0,1-3.43-2.09A9,9,0,0,0,77.41,90a5.5,5.5,0,0,0-4.43,1c-3,1.94-4.45,4.7-6,7.77-1.39,2.68-3.85,5.45-7.18,4.1a9.87,9.87,0,0,1-3.69-3.13c-1-1.2-2.2-2.61-3.92-2.51s-3,1.51-3.92,2.73a17.56,17.56,0,0,0-2.81,5.26,9.09,9.09,0,0,0,0,2.5,9.12,9.12,0,0,1,0,2.5Z"/><path class="cls-2" d="M47.59,128.78A17.64,17.64,0,0,1,50,124c.94-1.29,2.15-2.78,3.78-3.16,3.18-.75,4.88,3.6,7.13,5,3.25,2.07,6.24,0,7.88-3a47.58,47.58,0,0,1,2.55-4.71,14.23,14.23,0,0,1,3.79-3.63,5.41,5.41,0,0,1,4.58-1,10.41,10.41,0,0,1,3.38,2.32,6.71,6.71,0,0,0,3.9,2,6.78,6.78,0,0,0,4.36-1.56c2.84-2.16,4.15-5.75,7-7.85a6.24,6.24,0,0,1,4.84-1.33,10.67,10.67,0,0,1,3.9,2.18,7.7,7.7,0,0,0,5,1.77,6.54,6.54,0,0,0,4.63-2.24,7.14,7.14,0,0,0,1.59-4.55,28.12,28.12,0,0,0-.17-6.22c.32,1.6-.33,3.4,0,5,.38,1.86-.68.76.12-2.84-.08.36-.11.71-.21,1.07a6.63,6.63,0,0,1-.9,2,6.38,6.38,0,0,1-3.55,2.56,6.64,6.64,0,0,1-4.48-.29,26.71,26.71,0,0,1-3.65-2.4c-2.92-1.88-6-1-8.35,1.38s-3.7,5.59-6.6,7.34a5.93,5.93,0,0,1-4.31.9,8.13,8.13,0,0,1-3.42-2.08,8.87,8.87,0,0,0-3.27-2.15,5.5,5.5,0,0,0-4.43,1c-3,1.93-4.45,4.7-6,7.77-1.38,2.68-3.85,5.44-7.17,4.1a9.82,9.82,0,0,1-3.69-3.14c-1-1.2-2.2-2.6-3.92-2.5s-3,1.5-3.92,2.73a17.59,17.59,0,0,0-2.82,5.26,9.5,9.5,0,0,0,0,2.5,9.11,9.11,0,0,1,0,2.5Z"/></g></g></g><g id="Layer_94" data-name="Layer 94"><g id="Pierna"><rect class="cls-3" width="160" height="195"/></g></g></g></g></svg>