<svg xmlns="http://www.w3.org/2000/svg" viewBox="0 0 160 195"><defs><style>.cls-1{isolation:isolate;}.cls-2,.cls-3,.cls-4,.cls-6{fill:none;}.cls-2,.cls-3,.cls-4{stroke:#96c3e9;stroke-miterlimit:10;}.cls-2{stroke-width:3px;}.cls-3{stroke-width:2px;}.cls-5{fill:#96c3e9;}.cls-6{mix-blend-mode:multiply;opacity:0.4;}</style></defs><g class="cls-1"><g id="Layer_2" data-name="Layer 2"><g id="Variacion_B" data-name="Variacion B"><g id="AssetsW4"><g id="HamW4"><circle class="cls-2" cx="61.64" cy="126.74" r="7.36"/><ellipse class="cls-2" cx="79.41" cy="102.52" rx="11.62" ry="12.61"/><circle class="cls-3" cx="95.41" cy="78.1" r="3.44"/><path class="cls-2" d="M107.3,111.75a3.38,3.38,0,1,1-3.38-3.38A3.38,3.38,0,0,1,107.3,111.75Z"/><path class="cls-4" d="M95.66,91.63a1.72,1.72,0,1,1-1.72-1.72A1.72,1.72,0,0,1,95.66,91.63Z"/><path class="cls-3" d="M65.59,85.11a2,2,0,1,1-2-2A2,2,0,0,1,65.59,85.11Z"/><circle class="cls-3" cx="56.04" cy="105.88" r="4.75"/><circle class="cls-3" cx="78.1" cy="68.2" r="1.31"/><path class="cls-3" d="M116.52,87.42a1.63,1.63,0,1,1-1.62-1.62A1.62,1.62,0,0,1,116.52,87.42Z"/><circle class="cls-3" cx="89.04" cy="128.74" r="2"/><circle class="cls-3" cx="80.83" cy="82.37" r="2.74"/><circle class="cls-4" cx="92.22" cy="60.07" r="2.81"/><path class="cls-5" d="M86.09,104.36a1.56,1.56,0,0,0-2.26-.23A12.73,12.73,0,0,0,82.48,106a7.2,7.2,0,0,1-1.69,1.66c-.72.45-1.49.74-2.21,1.2-1.37.89-.52,3.34,1,3.36a6.83,6.83,0,0,0,5.08-2.68C85.73,108.39,87.21,105.82,86.09,104.36Z"/><path class="cls-5" d="M61.09,129.61c-.81-.59-1.85-.64-2.55-1.46s-.53-2.09-.78-3.17a.22.22,0,0,0-.35-.14c-2.36,1.83.94,7,3.61,5.7A.55.55,0,0,0,61.09,129.61Z"/><path class="cls-5" d="M55.41,107.34a2.54,2.54,0,0,1-1.22-1.51c0-.29.06-1.24-.46-1.18-.8.09-.52,1.43-.34,1.9a2.41,2.41,0,0,0,1.71,1.61C55.57,108.24,55.74,107.6,55.41,107.34Z"/><path class="cls-5" d="M85.23,96.93a2.76,2.76,0,0,0-.31-1,7,7,0,0,0-.67-.94,6.64,6.64,0,0,0-.76-.74,2.24,2.24,0,0,0-.5-.35c-.17-.08-.33,0-.5-.12a.31.31,0,0,0-.3.54c.13.12.21.34.35.48a7.69,7.69,0,0,1,.76.75,13.84,13.84,0,0,1,1.09,1.65C84.64,97.6,85.33,97.46,85.23,96.93Z"/><path class="cls-5" d="M93.53,59l-.13,0a.36.36,0,0,0-.48.29l0,.15a.47.47,0,0,0,.3.48l.13,0a.36.36,0,0,0,.48-.29l0-.15A.49.49,0,0,0,93.53,59Z"/><path class="cls-5" d="M92.87,60.76a2.19,2.19,0,0,1-.71.33.83.83,0,0,0-.44.34.22.22,0,0,0,.09.34c.58.3,1.07-.38,1.3-.83A.16.16,0,0,0,92.87,60.76Z"/><path class="cls-5" d="M97.1,78.27A.62.62,0,0,0,97,78c-.11-.12-.36-.17-.46,0a1.86,1.86,0,0,0-.1.2c-.16.16-.17.38-.36.57a.66.66,0,0,1-.85,0,.53.53,0,0,0-.61.87,1.64,1.64,0,0,0,2.63-.89A.54.54,0,0,0,97.1,78.27Z"/><path class="cls-5" d="M80,82a.33.33,0,0,0-.51,0,.87.87,0,0,0,.05,1.08.51.51,0,0,0,.53.28h.07a.39.39,0,0,0,.31-.33A1.43,1.43,0,0,0,80,82Z"/><path class="cls-5" d="M94.2,91.71c-.47,0-.55.73-.08.73S94.67,91.71,94.2,91.71Z"/><path class="cls-5" d="M104.76,111.15c-.69,0-.78,1.08-.09,1.08S105.46,111.15,104.76,111.15Z"/><path class="cls-5" d="M74.19,106.78c-.92-2-2-3.42-2-5.72,0-2.14,1.2-3.33,1.88-5.18a.22.22,0,0,0-.28-.28c-1.89.84-2.87,3.77-2.91,5.71,0,2.2.87,4.83,2.86,5.93C74,107.39,74.3,107,74.19,106.78Z"/></g></g></g><g id="Layer_94" data-name="Layer 94"><g id="Pierna"><rect class="cls-6" width="160" height="195"/></g></g></g></g></svg>