<svg xmlns="http://www.w3.org/2000/svg" viewBox="0 0 901.83 378.07"><defs><style>.cls-1{fill:#fff;}.cls-2{fill:#e5301c;}.cls-3{fill:#f7b01a;}.cls-4{fill:#1c1c1c;}.cls-5{fill:#f2941c;}</style></defs><g id="Capa_2" data-name="Capa 2"><g id="Capa_1-2" data-name="Capa 1"><path class="cls-1" d="M496.78,95.09q-12.93,0-19.82,7.9t-6.89,22.34q0,14.61,7.64,22.51t20.58,7.9A32.56,32.56,0,0,0,510,153.89a80.36,80.36,0,0,0,9.16-4.2,16.87,16.87,0,0,1,4.45,5.63,17.29,17.29,0,0,1,1.59,7.64q0,6.9-7.64,11.68t-23.27,4.79a68.94,68.94,0,0,1-21.17-3.19,47.3,47.3,0,0,1-17.3-9.83,46.43,46.43,0,0,1-11.68-16.8q-4.28-10.17-4.28-24.28a60.36,60.36,0,0,1,4.11-23.1A49.3,49.3,0,0,1,455.2,85.34a47.31,47.31,0,0,1,16.72-10.41,58.82,58.82,0,0,1,20.49-3.53q15.46,0,23.94,5t8.49,12.94a13.11,13.11,0,0,1-2.18,7.56,17.93,17.93,0,0,1-5,5,53.87,53.87,0,0,0-9.32-4.87A30.26,30.26,0,0,0,496.78,95.09Z"/><path class="cls-1" d="M631.86,175.73a47,47,0,0,1-5.8,1,60.91,60.91,0,0,1-7.81.5,35.23,35.23,0,0,1-6.81-.58,12.25,12.25,0,0,1-5-2.1,9.1,9.1,0,0,1-3-4.21,20.52,20.52,0,0,1-1-7V137.09H570.2v38.64a46.67,46.67,0,0,1-5.8,1,60.8,60.8,0,0,1-7.81.5,35.12,35.12,0,0,1-6.8-.58,12.36,12.36,0,0,1-5-2.1,9.08,9.08,0,0,1-3-4.21,20.25,20.25,0,0,1-1-7V74.59q1.85-.33,5.88-.92a53.87,53.87,0,0,1,7.73-.59,35.14,35.14,0,0,1,6.8.59,12.09,12.09,0,0,1,5,2.1,9.1,9.1,0,0,1,3,4.2,20.49,20.49,0,0,1,1,7V113.9h32.26V74.59q1.85-.33,5.88-.92a53.74,53.74,0,0,1,7.72-.59,35.17,35.17,0,0,1,6.81.59,12,12,0,0,1,5,2.1,9.05,9.05,0,0,1,3,4.2,20.49,20.49,0,0,1,1,7Z"/><path class="cls-1" d="M683.1,175.73a47,47,0,0,1-5.8,1,60.8,60.8,0,0,1-7.81.5,35,35,0,0,1-6.8-.58,12.24,12.24,0,0,1-5-2.1,9.17,9.17,0,0,1-3-4.21,20.52,20.52,0,0,1-1-7V74.59q1.84-.33,5.88-.92a53.87,53.87,0,0,1,7.73-.59,35.14,35.14,0,0,1,6.8.59,12.09,12.09,0,0,1,5,2.1,9.1,9.1,0,0,1,3,4.2,20.49,20.49,0,0,1,1,7Z"/><path class="cls-1" d="M765.92,173a20.55,20.55,0,0,1-7.3,3.53,37,37,0,0,1-10.84,1.51,31.42,31.42,0,0,1-12.1-2.1q-5-2.1-6.89-5.79-1.85-3.87-4.53-10t-5.63-13.69q-2.94-7.56-6-16.05t-6-17.22q-2.86-8.73-5.38-17.13t-4.37-15.79A22,22,0,0,1,703.68,76a23.55,23.55,0,0,1,9.49-1.93,18.17,18.17,0,0,1,10.16,2.6q4,2.61,5.8,9.66,4.53,16.47,9.16,31.5T748,149.19h1q4.53-15.8,9.32-34.44t9.16-37.13a38.37,38.37,0,0,1,6.46-2.52,27.93,27.93,0,0,1,7.82-1,19.32,19.32,0,0,1,10.58,2.77q4.37,2.77,4.37,9.16a48.24,48.24,0,0,1-1.77,10.75q-1.75,7-4.53,15.88T784.15,131q-3.43,9.59-6.89,18.06t-6.46,15A58.79,58.79,0,0,1,765.92,173Z"/><path class="cls-1" d="M828.25,77.62a35.22,35.22,0,0,1,8.65-3.19,46.06,46.06,0,0,1,11.68-1.52,42.11,42.11,0,0,1,14.87,2.44q6.46,2.43,8.32,7.64,3,8.74,6.55,20.33t7,23.94q3.52,12.36,6.89,24.36t5.88,21.26a14,14,0,0,1-6,3.78,28.76,28.76,0,0,1-9.57,1.42,29.32,29.32,0,0,1-6.81-.67,12.15,12.15,0,0,1-4.53-2,10,10,0,0,1-2.86-3.53,30.7,30.7,0,0,1-1.93-5l-3-11.6H833q-1.35,5-2.69,10.42t-2.69,10.42a44.25,44.25,0,0,1-5,1.43,29.2,29.2,0,0,1-6.3.58q-8.57,0-12.68-2.94a9.42,9.42,0,0,1-4.12-8.14,17,17,0,0,1,.68-4.71c.44-1.57.95-3.41,1.51-5.54q1.17-4.55,3.27-11.26T809.6,131q2.52-7.82,5.38-16.05t5.37-15.54q2.52-7.31,4.62-13C826.37,82.55,827.47,79.63,828.25,77.62Zm20.16,21.67q-2.35,7-5.29,15.71t-5.29,17.56h20.83q-2.35-9.07-4.79-17.73t-4.45-15.54Z"/><path class="cls-2" d="M378.07,189c0-104.41-84.63-189-189-189S0,84.63,0,189s84.63,189,189,189,189-84.63,189-189"/><path class="cls-1" d="M181.13,81.73a41.55,41.55,0,0,0,11.2,0c6.34-.84,11.82,6.37,11.82,6.37s4-1.73,13-1.45A35,35,0,0,1,232.7,91l1.72,5.38L184.3,124.62,163.23,95Z"/><path class="cls-1" d="M168.13,83.55s17-38.68,20.46-37.3,5.18,41,5.18,41Z"/><path class="cls-1" d="M232.7,94.69s32.42-31.62,39.08-31.87-4.71,29.14-8.65,39.69-6.61,13.24-6.61,13.24Z"/><path class="cls-3" d="M108.3,204.42s3.91-13.44,4.64-21.75,0-12,0-12-12.46-4.7-18.33-5.52-18.82.63-28.59-5.72-31.63-32.73-33.34-38.66-7.33-14.93,0-16.54S55.51,117,65.53,115.76s21.75,3.61,28.35,5.32,26.2,11.58,26.2,11.58-3.12-8.94,0-13,10.69-15,18-19.9,8.81-1.46,13.94-5.62,7.33-8.06,12.95-10.26,16.13-2.2,16.13-2.2L171.6,96.15s15.64,6.84,15.64,12.22,1.23,6.6,1.23,6.6,16.86-7.58,27.13-13.2,18.81-5.38,18.81-5.38L232.7,91s16.62,8.8,21.27,15.89,10.26,22.73,10.26,34.22v15.64s32.51,21,44.24,21.75,17.59,11.08,23.21,15.23,35.42,3.85,34.61,9.43-29.47,25.2-44.86,25.2-25.52-.24-34-5.86-3.86-7.82-15.59-7.82-30.06,5.36-30.06,5.36-8.56,29.34-13.69,37.41-24.94,19.3-43.76,26.88a93.15,93.15,0,0,1-36.89,6.36Z"/><path class="cls-1" d="M110.47,195.44s23.8-15.3,28.56-22.78,14.28-36.72,25.17-40.81,16.16,44.21,12.33,54.41-6.89,16.91-6.89,16.91a17.42,17.42,0,0,1,8.13,17.09A120.59,120.59,0,0,1,174.06,240S188,249.17,186,255.29s-12.24,18.73-19,24.49-25.16,20.05-27.55,20.73a8.28,8.28,0,0,0-6.07,8.84c.29,5.78-5.42,16-5.42,16l-2.11-4.08s-1.47,5.1-3.74,7.14-5.78-13.94-5.78-13.94l-5.78,2.38v-19s-3.4,4.08-9.52-4.42-11.22-34-10.88-45.9,8.5-26.53,10.2-31.63,8.84-16,8.84-16Z"/><path class="cls-4" d="M251.63,154.79c4.83,6.56,4.95,14.67.26,18.13s-12.41.93-17.23-5.62-4.95-14.67-.26-18.13,12.4-.94,17.23,5.62"/><path class="cls-4" d="M128.17,121.62c5.8-1.79,11.58.25,12.91,4.55s-2.29,9.25-8.09,11-11.58-.24-12.91-4.55,2.29-9.25,8.09-11"/><path class="cls-1" d="M254.22,124.92s-8.6-3.14-13.9-1.81-17,7.49-13.88,11.81,12.33,4.56,20,4.76,11.93-3.61,12.51-6.77c1.24-6.75-4.77-8-4.77-8"/><path class="cls-1" d="M151.28,111.83s-8-6.53-11.08-6.47-6.53.74-6.62,3.48,2.14,8.47,6.56,8.84,6.27,1.7,8.52.14,2.62-6,2.62-6"/><path class="cls-4" d="M105,215.84s3.74-11.9,7.14-12.58,33.67,2.38,41.49,9.18,9.18,18.37,1.7,22.79-33.33,8.16-34,9.18-5.78,21.76-4.08,24.82,17,6.8,33,1.7,22.78-9.52,23.46-14.28l.68-4.76s6.12,9.52-2.38,16-36.73,12.24-45.91,11.9-22.44-6.46-26.18-9.18S90.07,258,90.07,258s5.44,6.12,10.88,7.48l12.24,3.06,3.06-24.14s-8.5-4.42-10.54-11.23-.68-17.34-.68-17.34"/><path class="cls-5" d="M118.44,147.87s-14-3.89-19-11.34-7.9-13.9-12.9-11.33-5.8,4.91-13.7,5-16.33-5.41-17.12,0,11.33,27.54,23.18,28.59,20.28,3.68,26.07,3.95a30,30,0,0,1,10.27,2.37Z"/><path class="cls-5" d="M257.5,178.6s-1.84,2.89-4.48,11.85,0,18.43,0,18.43,11.33-5.53,18.44-3.42,9.48,10.27,22.91,11.85,26.86,7.37,28.44-5-10-20-19.48-20.55-18.18-5.73-25.55-7.34-19-9.25-19-9.25Z"/><path class="cls-1" d="M254.06,162.14a3,3,0,1,0-3,3,3,3,0,0,0,3-3"/><path class="cls-1" d="M139.36,127.65a3,3,0,1,0-3,3,3,3,0,0,0,3-3"/><path class="cls-1" d="M485.31,228.44v83.5a16.23,16.23,0,0,1-3.31.89,25.26,25.26,0,0,1-4.61.41c-3.34,0-5.7-.62-7.1-1.86s-2.1-3.31-2.1-6.22V228.44H439.6a10.17,10.17,0,0,1-1.37-2.9,13.18,13.18,0,0,1-.57-4,7.76,7.76,0,0,1,1.7-5.41,5.91,5.91,0,0,1,4.6-1.86h70.26a11.92,11.92,0,0,1,1.21,2.75,12.93,12.93,0,0,1,.56,3.87c0,5.07-2.1,7.59-6.3,7.59Z"/><path class="cls-1" d="M619.52,263.17a62.42,62.42,0,0,1-3.64,22.21,44.86,44.86,0,0,1-10.09,16.07,42.76,42.76,0,0,1-15.18,9.77,53.47,53.47,0,0,1-19.06,3.31,54.12,54.12,0,0,1-19.14-3.31,41.73,41.73,0,0,1-15.18-9.77,45.4,45.4,0,0,1-10-16.07,62.64,62.64,0,0,1-3.64-22.21A60.65,60.65,0,0,1,527.3,241,46.49,46.49,0,0,1,537.47,225a42,42,0,0,1,15.27-9.85,55.36,55.36,0,0,1,37.71,0A42.15,42.15,0,0,1,605.63,225,46.64,46.64,0,0,1,615.8,241,60.65,60.65,0,0,1,619.52,263.17Zm-17.61,0q0-18.09-8.23-27.54t-22.13-9.45q-13.56,0-21.88,9.53t-8.32,27.46q0,18.09,8.24,27.62t22,9.53q13.89,0,22.13-9.53T601.91,263.17Z"/><path class="cls-1" d="M658.28,268v44.1c-.86.21-2,.48-3.39.8a20.59,20.59,0,0,1-4.69.49q-5,0-7.18-1.86c-1.46-1.24-2.18-3.31-2.18-6.22V214.23c.86-.21,2-.45,3.47-.72a25.15,25.15,0,0,1,4.6-.41c3.12,0,5.46.6,7,1.78s2.34,3.28,2.34,6.3v36.5l41.5-44.25q6.15.15,8.89,2.66a7.72,7.72,0,0,1,2.74,5.89,9.44,9.44,0,0,1-1.45,5.09,29,29,0,0,1-4.2,5.09l-30.68,30.36q13.39,13.74,23.49,24.31T715.94,304a10.26,10.26,0,0,1-3,7,9,9,0,0,1-6.38,2.51,10.21,10.21,0,0,1-6.54-2.1,59.79,59.79,0,0,1-5.41-4.85Z"/><path class="cls-1" d="M736.93,309.84a9.17,9.17,0,0,1-2.58-6.78V223.44a8.94,8.94,0,0,1,2.58-6.71,9.36,9.36,0,0,1,6.78-2.5h53.46a8.1,8.1,0,0,1,1.37,2.75,12.61,12.61,0,0,1,.57,3.87,8.12,8.12,0,0,1-1.7,5.5,5.79,5.79,0,0,1-4.6,1.93H751.46v26.81h40.87a8.48,8.48,0,0,1,1.37,2.75,12.94,12.94,0,0,1,.56,3.88q0,3.7-1.69,5.49A6.06,6.06,0,0,1,788,269H751.46v29.4H798a13.14,13.14,0,0,1,1.29,2.74,11.32,11.32,0,0,1,.65,3.88c0,2.48-.57,4.33-1.7,5.57a5.91,5.91,0,0,1-4.6,1.86H743.71A9.13,9.13,0,0,1,736.93,309.84Z"/><path class="cls-1" d="M897.31,312.43a19.67,19.67,0,0,1-6.47,1,17,17,0,0,1-7.83-1.7q-3.32-1.69-6-6.38L850.31,259c-1.19-2-2.4-4.2-3.64-6.46s-2.42-4.52-3.55-6.78-2.21-4.45-3.23-6.54-1.91-4-2.67-5.58l-.8.17q.8,8.39,1.13,18t.32,18.17v42.16c-.75.21-1.86.45-3.31.72a24.2,24.2,0,0,1-4.44.41c-3.23,0-5.57-.6-7-1.78s-2.18-3.17-2.18-6V217a11.06,11.06,0,0,1,4.61-2.83,19.1,19.1,0,0,1,6.38-1.05,18.17,18.17,0,0,1,7.91,1.62q3.39,1.62,6.14,6.29l26.81,46.52c1.18,2,2.36,4.2,3.55,6.46s2.34,4.52,3.47,6.78,2.21,4.45,3.23,6.54,1.91,4,2.67,5.58l.64-.17q-1.29-12.27-1.45-24.3t-.16-23.5V214.23q1.29-.31,3.39-.72a23.88,23.88,0,0,1,4.52-.41c3.23,0,5.57.6,7,1.78s2.18,3.18,2.18,6V310A15.41,15.41,0,0,1,897.31,312.43Z"/></g></g></svg>