<?xml version="1.0" encoding="utf-8"?>
<!-- Generator: Adobe Illustrator 26.0.0, SVG Export Plug-In . SVG Version: 6.00 Build 0)  -->
<svg version="1.1" id="Capa_1" xmlns="http://www.w3.org/2000/svg" xmlns:xlink="http://www.w3.org/1999/xlink" x="0px" y="0px"
	 viewBox="0 0 160 280" style="enable-background:new 0 0 160 280;" xml:space="preserve">
<style type="text/css">
	.st0{fill:#FFFFFF;stroke:#42210B;stroke-width:7.77;stroke-linecap:round;stroke-linejoin:round;}
</style>
<g>
	<g id="Capa_2_00000070090462818642927450000008721840520540475583_">
		<g id="AssetsE4">
			<g id="BeardE4">
				<path class="st0" d="M28.8,40.1c0.7,5.2,3,16.6,2.2,23.5c-3.1,27.4-6.5,63.6,0.3,85.6S63,196.6,63,196.6l1.4-16.6
					c0,0-3.8,6.6,13.6,21.6s32.8,41,32.8,41l7.5,21.9c0,0,4.1-54.8,1.6-69.4s-8.8-43.4-8.8-43.4s17.1,11.4,20.1,25.9l3,14.6
					c0,0,10.9-5.7,4.8-31.2s-7.7-26.4-16-40.2c-23.5-39.1-18.5-40.3-22.9-56.6c-2.4-8.8-10.3-35.9-14.6-51"/>
			</g>
		</g>
	</g>
</g>
</svg>
