<svg xmlns="http://www.w3.org/2000/svg" viewBox="0 0 130 250.82"><defs><style>.cls-1{isolation:isolate;}.cls-2{fill:#714000;}.cls-3{fill:#a35c00;}.cls-4{fill:#42210b;}.cls-5{fill:none;mix-blend-mode:multiply;opacity:0.4;}</style></defs><g class="cls-1"><g id="Layer_2" data-name="Layer 2"><g id="Variación_C" data-name="Variación C"><g id="AssetsE4"><g id="TailE4"><path class="cls-2" d="M120.84,129.85c-.25-.65-1.07-.37-1.13.26a104.53,104.53,0,0,1-1.33,10.68c-1.22,2.71-2.33,5.44-3.54,8.1a.69.69,0,0,0-.93.05,30.37,30.37,0,0,0-3.83,3.93,1.17,1.17,0,0,0-1.7,0c-3.85,3.86-7.69,7.93-9.9,13.31-2.1,5.1-2.08,9-.35,13.5-.16,1.87-.3,3.91-.3,5.91-2.08,2.07-3.46,6.23-4.47,8.4-1.77,3.82-5.09,9.15-3.91,13.66a1.39,1.39,0,0,0,.12.28c-.76,3.45-1.67,7.4.54,10.14,0,1.15.1,2.31.24,3.45a1.39,1.39,0,0,0-.57.06,52.58,52.58,0,0,0-5.42-9.14,55.53,55.53,0,0,0-6.06-7.7c-.67-1.15-1.44-2.24-2.1-3.28-.9-1.41-2-4.22-3.8-4-1.18-2-2.34-3.94-3.42-6a.61.61,0,0,0,0-.12,4,4,0,0,0,.1-1,4,4,0,0,0-.06-2.64c1.51-1.72,3-3.44,4.49-5.19a14.55,14.55,0,0,0,1-1.18,1.52,1.52,0,0,0-.24-2.15l1-1.37a5.18,5.18,0,0,0,1.87-1.88c.7-1,1.71-2.17,2.44-3.43a.55.55,0,0,0,.55.11c2.16-.79,3-3.91,3.49-6.19a20.83,20.83,0,0,0,.38-8.71.91.91,0,0,0-.76-.75c0-.59.07-1.18.11-1.78.3-1.14.32-2.47.53-3.58.05-.26.11-.53.17-.79l.07-.18a.51.51,0,0,0,.76-.14,9,9,0,0,0,.87-3.06l.13-.27c.68-1.34,1.8-3.41.75-4.82a.73.73,0,0,0-.09-.08,8.12,8.12,0,0,0,.19-3.74c-.11-.4-.57-.72-.89-.35-1.17,1.36-1.33,3.7-1.58,5.58a.73.73,0,0,0-.41.4h0a24,24,0,0,0-2.26,7.24c-.26,1.52-.82,3.45-.2,4.87,0,.57-.06,1.14-.07,1.7-.08,1-.17,2.07-.24,3.1,0,.76-.18,1.55-.23,2.33,0,.07,0,.15,0,.23-.21.66-.39,1.32-.55,2l-.06.08a.47.47,0,0,0,0,.1l-.06,0a4.73,4.73,0,0,0-1.38,1.59c-1.25-.2-2.11.82-2.94,1.75.41-3.05-.57-6-1.46-9-.41-1.41-.83-2.84-1.26-4.28-.37-2.3-.86-4.59-1.33-6.85-.72-3.5-1.13-7.65-3.06-10.54a.17.17,0,0,0-.31.09,20.16,20.16,0,0,0,.65,6.4.47.47,0,0,0-.16.18c-1.08,2.45.89,7.66,1.4,10.18.67,3.3,1.2,6.79,2.09,10.09.07.86.16,1.73.24,2.6,0,.18,0,.37,0,.56a10.55,10.55,0,0,0,0,3.92c.07.54.15,1.15.28,1.73-1.16,1.74-2.31,3.49-3.43,5.26a1.14,1.14,0,0,0,0,1.14,1.41,1.41,0,0,0,0,.29c-.25.27-.51.57-.79.91a1.11,1.11,0,0,0-1.4.32c-.59.65-1.15,1.33-1.73,2a1.1,1.1,0,0,0-.44.35l-.94,1.25a1.54,1.54,0,0,0,0,1.86,5.06,5.06,0,0,0-.8,3,3.31,3.31,0,0,0-.12,1,2.55,2.55,0,0,0,.51,1.41,1.32,1.32,0,0,0,.37,1.23,1.84,1.84,0,0,0,1.21.61,1.14,1.14,0,0,0,.77-.08,35.54,35.54,0,0,0,3.77,5c.53.62,1.19,1.46,1.93,2.3a.88.88,0,0,0-.12.88c1.84,4,4.49,7.43,6.79,11,.93,1.46,1.81,3.15,2.8,4.7-.25.1-.5.18-.76.27a72.76,72.76,0,0,0-7.8.31,2.47,2.47,0,0,0-1.79,1.16c0,.15-.08.3-.12.45a1.44,1.44,0,0,0-1.9.36,1.77,1.77,0,0,0-.55.31,1.31,1.31,0,0,0-.57-.3l-.44-.81a43.31,43.31,0,0,0-3.9-8.07c-.13-.21-.26-.43-.4-.64a41.52,41.52,0,0,0-3.39-4.54,1.44,1.44,0,0,0-.49-1.65,69.82,69.82,0,0,0-8.65-5.66,1.16,1.16,0,0,0-.69-.15c-.56-.32-1.13-.64-1.7-.94L47,197.84c-.54-.48-1.08-1-1.6-1.46q0-.91,0-1.86a9.63,9.63,0,0,0,1.27-1.29c2.06-.39,3.42-3.69,4.19-5.65l.11-.3c.19-.41.38-.82.56-1.24a2,2,0,0,0,.18-.89,15.87,15.87,0,0,0,.5-3.4,14.21,14.21,0,0,0-1.91-11.25c0-.87,0-1.74,0-2.61a1.87,1.87,0,0,0,.86-1.58c0-.43,0-.86.06-1.29a1.54,1.54,0,0,0,.45-1c.28-3,.48-6,.58-9a2.16,2.16,0,0,0,.3-1.15c0-2-.1-3.88-.24-5.8,0-.69,0-1.38,0-2.08a1.88,1.88,0,0,0-.26-1q-.3-2.72-.78-5.42a1.65,1.65,0,0,0,.2-1.69Q49.21,133,47,128.16a1.88,1.88,0,0,0-.69-.85c-.26-.73-.52-1.47-.79-2.21s-.63-1.75-1-2.62a62.46,62.46,0,0,1-.79-6.65,66.43,66.43,0,0,0,1.94-10c.36-2.5.84-5.18.34-7.58.41-2.94,1-6.12-1.1-8.31a.59.59,0,0,0-1,.4c0,4.08-.86,8.21-1.48,12.33C40.79,106,40,109.94,39,113.62a93.93,93.93,0,0,0-2.41,9.69,1.8,1.8,0,0,0-.37,1.32c0,.28.07.55.11.82l0,.31a.86.86,0,0,0,.15.58,18.16,18.16,0,0,0,1.79,5.49.29.29,0,0,0,0,.09,1.69,1.69,0,0,0,.56,1A20,20,0,0,0,40,134.55a1.55,1.55,0,0,0,1.74.6c.48.6,1,1.19,1.52,1.77l1.46,4a46.21,46.21,0,0,0,3.67,10,2,2,0,0,0-.17.47c-.18.93-.32,1.87-.45,2.8a2.4,2.4,0,0,0-.24.67c-.23,1.2-.44,2.4-.62,3.6a.48.48,0,0,0-.11.09c-2.24,2.58-1,9.13-1.06,12.4a1.72,1.72,0,0,0,.27,1c-.4,3.49-.62,7-.68,10.47-.81,2.4-1.62,4.8-2.4,7.21-.39.55-.79,1.09-1.19,1.64A1.56,1.56,0,0,0,39,192c-.4,1.72-.79,3.44-1.19,5.16a1.65,1.65,0,0,0,.16,1.22c0,.21.06.43.1.64a1.48,1.48,0,0,0,.31,1.9l.43.36c2.35,5.12,8.72,9.28,12.55,10.87a1.64,1.64,0,0,0,2.11-1.4c.7.67,1.41,1.33,2.13,2a32.14,32.14,0,0,0,3.82,4.17,2.38,2.38,0,0,0,.22.65,46.92,46.92,0,0,0,4.25,6.69c.55,1,1.08,1.93,1.6,2.92.39,1.33.75,2.69,1.07,4.06.44,1.85,3,1.39,3.26-.23a1.74,1.74,0,0,0,1.57-.76c3.32-.64,6.6-1.85,9.93-2.24l2.92.05c.16.3.34.61.55.93a1.52,1.52,0,0,0,1.58.61,1.19,1.19,0,0,0,1.53-.64c.5,1.21,1,2.42,1.47,3.64.73,4.12,1.63,8.19,2.75,12.22.56,2.05,3,1.12,3-.74,0-.35,0-.7,0-1a1.5,1.5,0,0,0,.75-1.64c-.29-2.24-.48-4.47-.61-6.7,0-3.38,0-6.75,0-10.13a1.56,1.56,0,0,0-.6-1.23c-.58-4.31-.7-8.67-1-13a1.29,1.29,0,0,0-.05-.21c0-.37,0-.73.06-1.09.1-1.34.22-2.82.4-4.35a1.82,1.82,0,0,0,.76-.77c.5-.92.95-1.85,1.36-2.79a1.46,1.46,0,0,0,2.39-.65q.75-1.74,1.38-3.51a1.68,1.68,0,0,0,2.4-1.34c.29-2.08.49-4.14.6-6.21.32-.71.64-1.42,1-2.13a1.86,1.86,0,0,0-.91-2.48c0-.59,0-1.17,0-1.76a1.69,1.69,0,0,0-.59-1.27,8.88,8.88,0,0,0-.44-3.95c.13-2.25.54-4.88.78-7.49,4.56-2.19,8.43-7.84,11.26-12.16l.69-1.08C120.05,151.24,123.79,137.74,120.84,129.85Z"/><path class="cls-2" d="M24.24,145.77c-.15,0-.12.26,0,.26S24.39,145.77,24.24,145.77Z"/><path class="cls-3" d="M43.57,134.66c-.75-2.29-2-4.33-2.71-6.63a17.32,17.32,0,0,1-.46-9,.41.41,0,0,0-.79-.21c-2.16,5.24.14,12.22,3.39,16.25C43.26,135.38,43.71,135.08,43.57,134.66Z"/><path class="cls-3" d="M46,130.5c-.26-.61-1.06-.17-.83.45,1.75,4.69,2.32,9.39,3.22,14.33a.37.37,0,0,0,.74,0C49.52,140.18,48,135,46,130.5Z"/><path class="cls-3" d="M46,201.93a11.16,11.16,0,0,1-3-2.3,14.39,14.39,0,0,1-1.78-3.6.3.3,0,0,0-.58.1c-.28,3,2.5,6.51,5.13,6.54C46.07,202.67,46.36,202.15,46,201.93Z"/><path class="cls-3" d="M62.35,215.66a17,17,0,0,0-6.2-9.64c-.45-.32-1,.31-.64.81,2.12,3,4.14,6.06,6.15,9.19C61.88,216.38,62.45,216.1,62.35,215.66Z"/><path class="cls-3" d="M84.14,224.34A14.5,14.5,0,0,0,77,224c-2.66.6-5.5,1.08-8.11,1.88a.29.29,0,0,0,0,.55c2.05.46,3.82-.25,5.74-1a14.35,14.35,0,0,1,9.51-.65C84.31,224.77,84.35,224.4,84.14,224.34Z"/><path class="cls-3" d="M86.13,218.58c-2-3.12-3.66-6.9-6.35-9.35-.47-.42-.94.41-.52.84,2.53,2.62,3.49,6.93,6.35,9.14C86,219.49,86.39,219,86.13,218.58Z"/><path class="cls-3" d="M99.48,188a21.68,21.68,0,0,0-3.55,7.82c-.14.59.46.94.8.49a21.38,21.38,0,0,0,3.76-7.72C100.67,187.85,99.9,187.45,99.48,188Z"/><path class="cls-3" d="M50.87,180.22c0-1.29.23-3.84-1.13-4.3a.29.29,0,0,0-.38.34,22.49,22.49,0,0,1-.67,10,.35.35,0,0,0,.59.37A10,10,0,0,0,50.87,180.22Z"/><path class="cls-4" d="M98.63,245.68c4.39-10.8-2-23.1-1-34.24.58-6.55,4.32-11.24,7.41-16.76,2.63-4.71,2.82-7.87,1.25-12.83-1.28-4-2.22-8.6.23-12.4,1.53-2.37,4-4.28,5.87-6.38a95.4,95.4,0,0,0,10.54-14.27c2.81-4.77,1.88-9.68,1.41-15-.66-7.32-.83-14.88-2.43-22.07-.36-1.61-2.93-1.62-3,.15-.29,6.62.69,13.26,1.26,19.85.33,3.74,1.38,8.33.49,12-.79,3.26-3.29,6.11-5.22,8.82-6.09,8.56-16.06,14.62-14.18,26.26.52,3.24,2.5,6.44,1.79,9.77-.57,2.66-2.62,5.27-4.22,7.43-3.13,4.24-5.38,8.34-6.06,13.66-.7,5.52.2,11.13,1,16.59A166.76,166.76,0,0,1,95.24,245a1.76,1.76,0,0,0,3.39.71Z"/><path class="cls-4" d="M37.79,65.68c1.4,4.53,2.91,9,4.19,13.61a25.94,25.94,0,0,1,.22,11.2c-1.52,9.26-4.5,18.4-6.62,27.55-.73,3.15-2.42,7-2.11,10.34.3,3.07,3.35,5.32,5.12,7.6A33.08,33.08,0,0,1,45,148.48c1.22,5.12.09,9.29-1.21,14.26-1,3.91.72,7,0,11-.34,1.81-1.38,3.2-1.35,5.12,0,1.13.62,2.07.76,3.16,1,7.28-10,9.82-9.16,17,.64,5.65,9.7,10.09,13.94,12.72,1.89,1.17,4.14,2.1,5.86,3.5,2.07,1.7,3.06,3.87,4.35,6.08,2.57,4.39,5.54,8.46,8,13a1.75,1.75,0,0,0,2.31.8c6.7-3.64,13-2.57,20.12-3.85,1.17-.22,1.56-2.2.24-2.52A30.51,30.51,0,0,0,67,231.87l2.32.79C65.46,226.37,63,217.6,57.5,212.54c-2.93-2.68-6.93-4.26-10.23-6.46-3.87-2.57-10.18-5.48-7.55-10.8,1.59-3.21,5-5.35,6.53-8.71,1.16-2.59.31-4,.06-6.61-.34-3.44,1.17-5.83.49-9.25-.93-4.63,1.3-8.61,2.08-13.07,1.26-7.22-1.21-14.4-5.15-20.39-2.25-3.44-6.63-6.8-6.47-11,.18-4.45,2.28-9.46,3.3-13.8,1-4.51,2-9,3-13.55.87-4,2.22-8.21,1.93-12.31-.2-2.93-1.63-5.86-2.58-8.66C41.5,73.76,40,69.58,38.51,65.38c-.16-.48-.86-.17-.72.3Z"/><path class="cls-4" d="M87.11,229.91c.27,3.71,1.37,7.35,2.19,11,.75,3.34,1.23,6.62,3,9.59.43.7,1.43.22,1.55-.45.63-3.62-.34-7.12-1.06-10.67a52.49,52.49,0,0,0-2.77-10.42c-.76-1.74-3.06-.68-3,1Z"/><path class="cls-4" d="M118.4,112.28c.15,3.38.51,6.63,0,10-.44,2.82-1.14,5.54-1.42,8.39-.31,3.14-.21,6.59-1.14,9.64s-2.86,5.3-5,7.6c-6.35,6.71-14.74,13.25-15.94,23-.6,4.9,1.3,11.29-.84,15.8-2,4.22-4.41,7.92-5.65,12.55-2.13,7.95-1.47,15.24.9,23,.39,1.27,2.1.48,2-.62-.35-8.54-1.71-16.77,1.46-25,1.49-3.86,5.07-7.41,5.58-11.52.65-5.18-1-10.42-.1-15.58,1.11-6.41,7.59-10.86,11.88-15.31,2.89-3,6.23-6,8-9.77,2.09-4.39,2-9.75,2-14.51,0-2.28-.27-4.54-.36-6.82a51.41,51.41,0,0,1,1.15-11c.29-1.76-2.68-1.91-2.59.1Z"/><path class="cls-4" d="M43.86,90.37A25.47,25.47,0,0,1,44,93.52c0,.49.87.64,1,.13a6.89,6.89,0,0,0-.14-3.43c-.15-.65-1.17-.53-1,.15Z"/><path class="cls-4" d="M42,78.84a48.41,48.41,0,0,1,3.41,26c-1,7-4.25,12.66-1.37,19.72,1.38,3.37,3.6,6.29,5.13,9.58,2.23,4.82,2.75,10.33,2.94,15.58.3,7.76-3.53,15.49-2,23.1.27,1.34,2.18.76,2-.54-.69-5.11,1.25-9.71,1.86-14.7A54.39,54.39,0,0,0,53.9,146a39.73,39.73,0,0,0-2.25-11c-1.37-3.46-3.61-6.45-5.25-9.77-4.18-8.48,1-17.21,1.05-26.17a47.64,47.64,0,0,0-4.6-20.6.48.48,0,0,0-.86.41Z"/><path class="cls-4" d="M50.74,172.07c1.22,4.21,2.28,8.6.9,12.92-1.21,3.81-4,6.83-6.61,9.71a1,1,0,0,0,0,1.37c3.45,4.2,9.07,6.42,13.19,10,4.74,4.09,6.55,9.36,9,15a1.1,1.1,0,0,0,1.24.51,29.83,29.83,0,0,1,12.13-2.3,1.1,1.1,0,0,0,0-2.2,32.45,32.45,0,0,0-5.57.28c-1,.16-4.58,1.65-5.44,1.39-2.53-.77-3.33-5.58-4.51-7.94-2.42-4.79-7.45-8.58-12-11.26-1.22-.72-2.54-1.29-3.72-2.06-2.82-1.85-2.25-1.6-1.06-3.49,1.39-2.22,3.23-3.92,4.35-6.39,2.43-5.35,1.28-10.62-.81-15.86-.25-.6-1.28-.27-1.1.37Z"/><path class="cls-4" d="M81.33,217.34a114.21,114.21,0,0,0-13.6-21.19c-.8-1-2.6-2.08-3.18-3.1-1.71-3,.42-5.86,2-8.17,2-2.86,4.76-5.13,6-8.43,2.76-7.29-.24-16.37-1.81-23.6a63,63,0,0,1-1.64-15.16c.12-4.46.56-8.83-.82-13.13a1,1,0,0,0-1.84.46c.87,5.55.24,10.85.42,16.41a71.29,71.29,0,0,0,1.95,12.9c1,4.64,2.22,9.3,2.44,14.07.15,3.26,0,6.49-1.8,9.34-1.09,1.71-2.7,3.14-3.91,4.77-1.56,2.09-4.29,5.62-4.32,8.39,0,2.5,1.38,3,3.15,4.58,6.73,6.05,10,15.71,15.86,22.6a.67.67,0,0,0,1.09-.74Z"/><path class="cls-4" d="M67.06,124.65c.86,7.94,2.15,16,3.75,23.84,1.49,7.34,4.18,14,5,21.51.08.76,1.21.85,1.57.26,1.65-2.73,3.93-5.7,4.66-8.88.88-3.85-.46-7.68.47-11.68.78-3.29,2.13-6.35,3.21-9.53,1.25-3.69-.44-7.15,2-10.67.11-.17-.14-.36-.26-.19-1.12,1.55-2.28,3-2.64,4.87L85,137.5a11.65,11.65,0,0,1-1.11,3.36c-.57,1.63-1.21,3.22-1.72,4.88a36,36,0,0,0-1.87,9.39c-.07,2.13.53,4.46,0,6.6-.57,2.46-3.1,5.41-4.41,7.61l1.57.26c-.89-7.51-3.69-14.11-5.25-21.43-1.67-7.84-2.58-15.84-4.37-23.66a.42.42,0,0,0-.83.14Z"/><path class="cls-4" d="M87,129c-1.15,3.47-.85,6.82-.54,10.41s.31,6.45-1.34,9.65c-.73,1.41-1.44,2.15-1.76,3.78-1.24,6.36,1.63,12.2-3.2,17.72a47.1,47.1,0,0,0-6.4,9.07A55.55,55.55,0,0,1,71,184.52c-.32.45-2.31,2.54-2.44,3.51-.37,2.74,1.7,7.53,3,9.94A8.52,8.52,0,0,0,74,200.69a28,28,0,0,1,6.07,7.08c1.56,2.44,3.11,4.9,4.7,7.33,1.73,2.66,4.11,5.15,5.54,7.94a.59.59,0,0,0,1.1-.37c-.69-4.38-1.37-8.82-2.41-13.13a.59.59,0,0,0-1.16.23c.57,4.39,1.51,8.79,2.43,13.12l1-.49c-1.94-2.48-3.13-5.58-4.82-8.25-1.54-2.45-3.13-4.89-4.7-7.33a35.32,35.32,0,0,0-6.24-7.55,16.2,16.2,0,0,1-4.54-8.5c-.37-2.31.33-3.37,1.51-5.29,2.07-3.37,3.6-7.09,5.83-10.35,1.81-2.64,4.77-4.08,5.77-7.18,1.42-4.43.22-8.95.82-13.38.54-4,3.18-6.78,3.3-10.89.14-4.82-1.47-9.47,0-14.24.23-.76-.92-1.17-1.17-.41Z"/></g></g></g><g id="PixelsASSETS"><g id="Cola"><rect class="cls-5" width="130" height="250"/></g></g></g></g></svg>