<svg xmlns="http://www.w3.org/2000/svg" viewBox="0 0 464 265"><defs><style>.cls-1{isolation:isolate;}.cls-2{fill:#a67c52;}.cls-3{fill:#ce2527;}.cls-4{fill:#42210b;}.cls-5{fill:#af191d;}.cls-6{fill:#007131;}.cls-7{fill:none;mix-blend-mode:multiply;opacity:0.4;}</style></defs><g class="cls-1"><g id="Layer_2" data-name="Layer 2"><g id="Variación_B" data-name="Variación B"><g id="AssetsE4"><g id="HornE4"><g id="Capa_38" data-name="Capa 38"><path class="cls-2" d="M324,194.24l-.16.06c.18-.14.36-.28.53-.43a.73.73,0,0,0-.58-1.24,18.11,18.11,0,0,0-3.23.74,23,23,0,0,0-6.13-5.62,1.86,1.86,0,0,0-1.23-2.94,46.32,46.32,0,0,1-7.89-2.81A54.07,54.07,0,0,1,295,174.74a7.8,7.8,0,0,0-4.07-2.05,5.84,5.84,0,0,0-9.2-4.6,86.8,86.8,0,0,0-9.21-17.23,60.66,60.66,0,0,0-1.2-9.54c-1.14-5.88-3.89-16.57-11.4-18a3.27,3.27,0,0,0-1,0c-.05-.12-.11-.23-.15-.33l-.28-.5-.51-.9c-.83-1.55-3.54-.23-2.79,1.39a8,8,0,0,0,1.45,2.52c-.35,3.1,1.06,5.34,2.26,8.28.11.27.2.54.3.81-4.71,5.31.07,18,1.95,23.17a66.73,66.73,0,0,0,5.36,11.92,7.31,7.31,0,0,0-3.63,1.46,7.47,7.47,0,0,0-5.65-.12,11.62,11.62,0,0,0-2,1,15.45,15.45,0,0,0-4.32-1.32,10.79,10.79,0,0,0-8,1.76,7.54,7.54,0,0,0-3.63.71,7.9,7.9,0,0,0-6.53-.47,6.68,6.68,0,0,0-2.25-.6,79.89,79.89,0,0,0-2.07-11.39,33.45,33.45,0,0,0-2.35-9.77,36.41,36.41,0,0,0-2.91-6.08,4.67,4.67,0,0,0-.88-1.33c-.26-.36-.53-.71-.8-1.05a67,67,0,0,0-6.31-10.95,4.36,4.36,0,0,0-1-1,106.74,106.74,0,0,0-6.92-9.16,2.88,2.88,0,0,0,1.54-3.82,3.29,3.29,0,0,0,1.25-3.84c-.14-.42-.29-.83-.43-1.25a3.91,3.91,0,0,0,.49-3.57c.07-.9.14-1.9.17-2.94a76.47,76.47,0,0,0,.41-9c0-.12,0-.22-.05-.34a6.69,6.69,0,0,0-.17-1,61.57,61.57,0,0,0-6.87-16,4.53,4.53,0,0,0-1.87-1.73c-.49-.66-1-1.3-1.54-1.92a4.33,4.33,0,0,0-.91-5.43,76.91,76.91,0,0,1-9.89-10.36A3.77,3.77,0,0,0,187,58.6c-.07-.09-.13-.19-.2-.29-7.31-.42-14.48-2.21-21.51-4.27a26.86,26.86,0,0,0,.5,2.65,3.84,3.84,0,0,0-2.44-.95,11.76,11.76,0,0,0-6.29,1.81c-1.21,0-2.38-.07-3.14,0-2.63.14-5.25.19-7.88.27-5.36.15-10.69.61-16,.88-4,.2-8.69.42-12.31-1.72-3.93-2.32-5.83-7.11-9.17-10.14-4.35-3.94-10.49,2.18-6.44,6.47,4.27,4.54,7,10,13,12.58,5.42,2.37,11.46,2.17,17.24,1.78,7.24-.5,14.42-1.42,21.64-2.07,1.27,1.8,3.86,2.57,5.48.78l.4,0a3.78,3.78,0,0,0,1.36.11q1.86.12,3.72.12a3.82,3.82,0,0,1,.91,1.13,3.28,3.28,0,0,0,5.52.35c3.56,4.76,8.21,9,12.65,13.06a33.78,33.78,0,0,0,6.65,6,4.45,4.45,0,0,0,1.93.79,4.17,4.17,0,0,0,.3,2.86L197,99.48l1.32,3.79a3.47,3.47,0,0,0-1.19,2.09,78.11,78.11,0,0,1-10.25-6.93c-3.6-2.87-8.61,3.36-5.05,6.35,1.63,1.36,3.23,2.76,4.84,4.17a2.65,2.65,0,0,0-.45,3.67c5.26,7,10.87,13.76,16.05,20.82a69.6,69.6,0,0,0,5.27,7.55,18.41,18.41,0,0,0,3.44,4.76c.19.5.36,1,.52,1.51a5.26,5.26,0,0,0-.07,1,44.61,44.61,0,0,0,2.73,13.47,3.71,3.71,0,0,0,.24.49l.21,1.47a33.75,33.75,0,0,0,.08,4.93,5.27,5.27,0,0,0-3.25,3.41c-.18.52-.33,1-.47,1.54h0a.81.81,0,0,1,0,.16l-.06.27c-.52-.18-1.05-.34-1.58-.5l-9-7c-1.62-1.58-3.21-3.21-4.72-4.92a1.87,1.87,0,0,0-3,.19l-.08-.06a1,1,0,0,0-1.51.59,1.67,1.67,0,0,0,.44,1.78.79.79,0,0,0,.58.3c1.83,2.5,3.75,4.91,5.61,7.38a2.06,2.06,0,0,0-.12,2.5c.27.38.55.73.83,1.09a2,2,0,0,0,.37.58l.4.41a57.43,57.43,0,0,0,11.25,9.88,80.51,80.51,0,0,0,6.14,5.52,1.79,1.79,0,0,0,2.55-.14,1.46,1.46,0,0,0,.39-.12,8.37,8.37,0,0,0,5.1,1.66,138.26,138.26,0,0,0,16.45-1.1c3.31.25,6.62.6,10,1l1.74.17a7.76,7.76,0,0,0,5.84.67,31.5,31.5,0,0,0,3.4,2.11,6.08,6.08,0,0,0,1.42,1.53,5.42,5.42,0,0,0,1.2,2.48,10.79,10.79,0,0,0,.51,1.55,6.18,6.18,0,0,0,3.09,3.08l0,.1c-1,4.06,2.68,7,6.63,7.44a6.16,6.16,0,0,0,1.2,3c0,.06-.05.11-.07.17-2.5,5.89,3.17,9.71,8.28,8.7l.18,2.08a1.67,1.67,0,0,0,1.8,1.32,21.26,21.26,0,0,0-.91,3.57c-.09.6.83.68,1.14.29l.09-.13a.76.76,0,0,0,.73.06c1.19-.55,1.66-2.7,2.08-3.72.07-.15.12-.29.18-.43l.55-.81.08-.13a69.61,69.61,0,0,1,6.42-8.71,69.58,69.58,0,0,1,10.46-11.09c5-4.36,11.17-9.05,17.64-12.1A.61.61,0,0,0,324,194.24Z"/><path class="cls-3" d="M170.94,122a6.69,6.69,0,0,0-5.53-4.69,6.86,6.86,0,0,0-2.29.13,7.36,7.36,0,0,0-3.07.29,4.93,4.93,0,0,0-.53.22,7.06,7.06,0,0,0-5.19,2.07,7.37,7.37,0,0,0-1.84,3.11,2.83,2.83,0,0,0-.2.28,7.34,7.34,0,0,0,4.17,10.68,8.47,8.47,0,0,0,6.66-.74,7.53,7.53,0,0,0,7.16-3.78,6.71,6.71,0,0,0,.85-3.77A7.11,7.11,0,0,0,170.94,122Z"/><path class="cls-3" d="M295.84,116.28a5.15,5.15,0,0,0-4.36-3.6,6.55,6.55,0,0,0-2.21-.83,5.92,5.92,0,0,0-3.07.24,7.49,7.49,0,0,0-3.22,1.23c-4.47,3.06-4.78,9.6-3.16,14.32,1.88,5.47,8.19,7.77,12.58,3.44C296.25,127.28,297.28,121.34,295.84,116.28Z"/><path class="cls-3" d="M309.65,133.41A7.45,7.45,0,0,0,304,128.5c-2.08-1.76-5.71-1.15-7.8.26a8.29,8.29,0,0,0-3.56,7.26,9.24,9.24,0,0,0,11,8.54A8.55,8.55,0,0,0,309.65,133.41Z"/><path class="cls-3" d="M316,145.65a3.92,3.92,0,0,0-1.35-.59,3.53,3.53,0,0,0-4.35-.59c-3.08,1.62-5.65,2.68-9.19,2.31-3.9-.41-5.32,4.72-3.07,7.23.09.1.12,1.36.19,1.68a10.59,10.59,0,0,0,.81,2.5,10.13,10.13,0,0,0,3.31,3.81,10.53,10.53,0,0,0,9.71,1.24C319,160.64,322.91,150.48,316,145.65Z"/><path class="cls-3" d="M393.08,39.49c-1.4-2.75-4.41-5-7.43-4.35a5.74,5.74,0,0,0-2.91,1,7.55,7.55,0,0,0-3.32,2.53,10.18,10.18,0,0,0-3.61,7.18c-.2,4.38,2.82,8.77,7.19,9.66a4.79,4.79,0,0,0,2.74-.22c2.71-.74,5.06-3.23,6.52-5.43A10.33,10.33,0,0,0,393.08,39.49Z"/><path class="cls-3" d="M151.72,134.8a10.84,10.84,0,0,1-2.89-7.27c0-2.77.24-5.59-2.54-7.23-3.59-2.13-7,0-8.33,3.21a5.5,5.5,0,0,0-2.89,2.66c-2.62,3.09-2.66,7.77-.57,11.77,1.24,2.36,3.19,4.76,5.83,5.61a7,7,0,0,0,4.46-.12,8,8,0,0,0,1.55-.77,7.08,7.08,0,0,0,1-.37,6.75,6.75,0,0,0,1.24-.76C151.9,141.54,154.47,137.88,151.72,134.8Z"/><path class="cls-2" d="M455.05,91.07c-.09-.42-.16-.83-.24-1.25,1.32-2,2.39-4.43.78-6a3,3,0,0,0-4.19.1C450,85.19,450,87.07,450.32,89c0,.12-.09.23-.13.37a11.49,11.49,0,0,0-2.63,3.12,2.63,2.63,0,0,0-.38.3q-4.11,4.1-7.88,8.41l-.19-.09a2.09,2.09,0,0,0-3.13.38q-2.3,3.69-4.33,7.45c-2.12,3.14-4.19,6.3-6.14,9.54a2.43,2.43,0,0,0-3.05,1.41c0,.17-.07.34-.12.51a2,2,0,0,0-2.24,1.4,7.14,7.14,0,0,0-3.29.67c-.77-2.59-4.44-6.48-8.58-9.64a86.43,86.43,0,0,1-8.23-9,2.14,2.14,0,0,0-3.68.7l-2.85-3.22c.14-.35.26-.68.36-1a36.42,36.42,0,0,0,9.31-8.52,1.8,1.8,0,0,0,.36-1.49A55.16,55.16,0,0,0,407.67,86l.3-.35a1.69,1.69,0,0,0,1.72-1c.8-1.57,1.57-3.16,2.34-4.75.49-.9,1-1.81,1.41-2.72a1.88,1.88,0,0,0,1-1.22c.16-.54.31-1.09.47-1.63a2,2,0,0,0,1.42-1.34c.93-3,1.78-6,2.57-9.09,2.59-4.2,3.79-9.42,4.73-14.12,1.11-5.56,2.4-12.2,2-18.18.31-1.56.59-3.12.8-4.68a15.48,15.48,0,0,0,.69-4.68A2.93,2.93,0,0,0,426,19.93c-.08.43-.18.84-.27,1.26a1,1,0,0,0-.64.56,50.71,50.71,0,0,0-2.46,7.84c-.65,1.38-1.32,2.74-2,4.05a50.36,50.36,0,0,1-7.41,11.43c-.36,1.34-.68,2.69-.95,4.06-1.51,3.29-2.9,6.6-4.44,9.87a3.77,3.77,0,0,0-.94-.21c.15,0,0,0-.44,0a1.61,1.61,0,0,0-.37,0h-.05l-.07,0a2.93,2.93,0,0,0-.75.27,5.24,5.24,0,0,0-1.51,1.17,7.58,7.58,0,0,0-1.67,4.16,26.15,26.15,0,0,0-.59,5.7c-1.59,2.29-3.27,4.53-4.77,6.86a31.24,31.24,0,0,1-7,10.35,2,2,0,0,1-3.23-2l-.71.63c-2.52,2.42-5,5-7.51,7.38a37.45,37.45,0,0,0-4.48-6c-3.7-3.86-8.32-6.06-13.21-8-3.58-1.43-7.33-2.68-11.11-3.8A5.9,5.9,0,0,0,351.39,71q0-7.24,0-14.48A5.19,5.19,0,0,0,350,52.88a20.3,20.3,0,0,0-2.65-7.81c-1.3-2.1-3.26-3.52-4.73-5.44s-2.48-4.19-4.38-6c-8.68-8.2-20.95-13-31.73-17.72-5.53-2.82-10.29,5.48-4.78,8.41,6,3.2,12,6.78,17.83,10.6A41.82,41.82,0,0,1,330,48.21q-.94,5.3-1.88,10.59a4.64,4.64,0,0,0-2.44,3.75c0,.54-.09,1.06-.12,1.58h0c0,.26,0,.51,0,.76s0,.25,0,.37a33.94,33.94,0,0,1-.79,6.19,5.08,5.08,0,0,0-.78,0,16,16,0,0,0-1.71-.55,10.87,10.87,0,0,0-2.85,0h0c.23-1.42.41-2.83.5-4.24a50.91,50.91,0,0,0-3.3-8.32,28.32,28.32,0,0,0-4.73-5.73,10,10,0,0,1-3.45-1.39c.79,4.47,2.43,6.49,3,11a7.05,7.05,0,0,1,0,.71,14.44,14.44,0,0,1-.61,8.27c-1.24,2.9-4,4.56-5.17,7.61-1.63,4.12,4.07,6.85,6.94,4.22a15,15,0,0,1,8.68-4c.13.06.27.13.41.18a4,4,0,0,0,2.91,1.52,4.21,4.21,0,0,0,4.2.88c1.56,1.63,4.36,2.17,6,.26,2.11-2.44,10.12,1.7,12.62,2.45,4.6,1.38,9.42,2.34,13.94,3.92,5.18,1.82,8.37,5.69,11.5,9.73-.47.36-.94.72-1.43,1v0c.93,1.27,1.73,2.63,2.45,3.85,1.83,3.07,3.42,6.26,5.05,9.43,1.07,1.5,2.19,2.94,3.35,4.36a3.33,3.33,0,0,0,.09,2.77c1.3,2.69,2.49,5.41,3.61,8.14.5,1.77,1,3.53,1.6,5.29a2.9,2.9,0,0,0-1.17,2.06,4.13,4.13,0,0,0-.65.6,3.49,3.49,0,0,0-.44.2c-2.26,1.36-4.52.08-6.58-1a3.27,3.27,0,0,0-3.85.31c-3.73-.93-7.47-1.79-11.19-2.68-1.45-1.8-5.35-3.72-5-1.64-.35-2.29-3.18-3.31-5.1-2.44a3.66,3.66,0,0,0-3-.12l-.26-.21a3.36,3.36,0,0,0-2.6-3.44,4.46,4.46,0,0,0-2.11-2.07,4.16,4.16,0,0,0-5.12-3.57l-.45-.22c-2-4.27-9.3-1.34-7.71,3.16.11.29.21.59.32.88a4.29,4.29,0,0,0,1.38,2,8.22,8.22,0,0,0,2.69,1.94c.81,1.44,1.65,2.86,2.59,4.24l.23.3,0,.12a4,4,0,0,0,3.32,4.79,4.06,4.06,0,0,0,4.66,1.06,2.79,2.79,0,0,0,.7.08,6.22,6.22,0,0,0,3-.8,3.68,3.68,0,0,0,2.81-.15,6.71,6.71,0,0,0,1.81.72l.92.24a3.25,3.25,0,0,0,2.14,1.64c7.24,1.87,14.51,3.92,21.84,5.5a5.63,5.63,0,0,0,3.26.67l3.48.63a8.06,8.06,0,0,1,.28.91,3.07,3.07,0,0,0,1.25,1.86c.35,1,.71,2,1.06,2.93a3.77,3.77,0,0,0,1.75,2.09l-.11.1c-.36,1.83-.67,3.67-.91,5.52-.1.2-.21.39-.31.58l-2.48.64c-2.19.57-1.81,3.45-.13,4.26l-1.53,2.89-.25.07a2.1,2.1,0,0,0-1.33,2.89L382.32,175a1.86,1.86,0,0,0,1.22,2.78c.64,0,1.28,0,1.94,0a2.5,2.5,0,0,0,1.36-1c.21-.32.4-.65.61-1a2.28,2.28,0,0,0,.61.11.48.48,0,0,0,.24.89l1.35.17c5.74-2.28,13.24-1.77,19.18-1.31.85.07,1.78.15,2.74.25,6.81-.25,13.48.2,19.5,2.58a27.5,27.5,0,0,0,4.43-.57.55.55,0,0,0,.44-.41c2.57-.24,3.11-3.92.29-4.13l-.37,0c.05-3.9.55-7.92-1.05-11.46,0-2.11-.13-4.22-.32-6.34a2.16,2.16,0,0,0-.11-.53,7.84,7.84,0,0,0-.23-1.07c.38-7.75-1.56-16-2.69-23.47a1.73,1.73,0,0,0-.62-1.07c.1-.13.19-.27.29-.41a1.91,1.91,0,0,0,1.06-.6c4.09-4.41,6.74-9.81,9.76-14.83L449.49,101a13.36,13.36,0,0,0,1.24-.93,19.09,19.09,0,0,0,3.42-2.91,1.77,1.77,0,0,0,.55-.67,6.69,6.69,0,0,0,1.44-4A1.56,1.56,0,0,0,455.05,91.07Z"/><path class="cls-4" d="M271.46,194.62c-2.1-2.76-4.23-6.75-7.8-8.14-.56-.22-1.3.4-.74.84,7.2,5.64,11.45,14.64,17.32,21.39.25.28.73-.06.56-.37A105.36,105.36,0,0,0,271.46,194.62Z"/><path class="cls-4" d="M291.2,200.77c-3.42.8-1.74,4.53,1,4.8a.52.52,0,0,0,.31-1c-1.06-.65-1.54-1.09-1.48-1.33a.68.68,0,0,1-.05-.58c.6-1.75,3.14-1.05,4.25-.23a5.12,5.12,0,0,1,1.15,1.26,3.17,3.17,0,0,1,.57,1.1c1,2.11.65,4.35-2.78,4.76-2.85.34-5.47-1.87-7.06-3.69-2.82-3.21-4.41-7.06-6.86-10.46-.28-.4-1.06-.18-.9.33,1.43,4.58,5.13,10.78,9.53,13.59,2.71,1.73,8.7,2.74,9.53-1.48C299.05,204.44,295.3,199.81,291.2,200.77Z"/><path class="cls-4" d="M305,191.36c-7.76-3.15-15.66-3.88-21.83-9.88-6.35-6.17-9-15.55-12.95-23-.26-.49-1.21-.15-1,.36,3.33,7.82,6.49,17.44,12.83,23.7,5.27,5.22,14.85,9.56,22.81,9.54A.35.35,0,0,0,305,191.36Z"/><path class="cls-4" d="M236.25,185.94a41.35,41.35,0,0,0-5.44-.61c-1.06-.05-2.7.23-3.71-.12l-.08-.07c-1.15.33-3-.9-3.62-1.47a4.58,4.58,0,0,1-1.61-3.25l0,0c0-.63-.05-1.25,0-1.87,0-4.2.76-8.63,0-12.77,0-.24-.5-.27-.56,0-.84,3.45-.57,7.15-.65,10.66,0,2.21-.24,4.49.85,6.54,2.5,4.69,10.06,4,14.88,3.49A.24.24,0,0,0,236.25,185.94Z"/><path class="cls-4" d="M205.38,126.15c-.45-.41-1.12.19-.72.63A88.81,88.81,0,0,1,219.77,149c.1.2.49.08.42-.14A53.93,53.93,0,0,0,205.38,126.15Z"/><path class="cls-4" d="M398.76,123.22c-.27-.32-.82,0-.65.36,3.67,7.72,5.5,15,4,23.41-1.44,8-5.47,15.31-8.6,22.83-.14.35.42.67.67.33C403.3,157.55,409.89,136.56,398.76,123.22Z"/><path class="cls-4" d="M424.39,158.94c-.33-4.78-.54-10.09-2.58-14.54-.18-.4-.76-.17-.75.2.18,5.82,2.22,11.34,1.89,17.26a21.36,21.36,0,0,1-.81,5.38l-1.37,3.07-.12,0a2,2,0,0,1-1.54,1.54,4,4,0,0,1-3.89,0,4.57,4.57,0,0,1-2.55-1.81A3.06,3.06,0,0,1,412,168a.45.45,0,0,1,0-.11.4.4,0,0,1,.07-.3l-.17,0c.05-1.35.09-2.7.14-4.06a5.43,5.43,0,0,1,.44-1.83,1.73,1.73,0,0,1,1.74-1.62,2,2,0,0,1,1.81,1.36,6.22,6.22,0,0,1,.44,2.8,6.69,6.69,0,0,1-.81,2.86c-.2.41.42.66.72.36,2-2,2.85-9.59-2-9.3-5.19.31-4.95,9.43-3.21,12.08,3,4.49,9.05,4.84,11.7.06C424.73,166.85,424.65,162.68,424.39,158.94Z"/><path class="cls-4" d="M429,124.78c2.2-5.28,6.32-9.83,8-15.29a.21.21,0,0,0-.36-.2c-4,4.55-8.47,11.8-10.16,17.49s1,12.52,2.43,18c.11.45.83.35.78-.11C428.91,138.3,426.39,131,429,124.78Z"/><path class="cls-4" d="M392.18,108c-.4-.26-.93.22-.6.58,4.62,4.92,10.34,9,14.82,14,5.13,5.79,6.22,14.21,7.08,21.37a.39.39,0,0,0,.76,0C415.81,128.85,405.06,116.5,392.18,108Z"/><path class="cls-4" d="M415.61,55.52c-2.14,12.67-9.14,22-18.69,31.07-4,3.8-8.58,6.68-12.71,10.24-2.33,2-4,4.44-3.09,7.32.06.2.36.11.4-.05,1.61-5.7,7.35-10,12.23-13.66A62.53,62.53,0,0,0,404.5,80.27c6.06-7.29,10.75-15.49,11.72-24.68C416.26,55.24,415.67,55.17,415.61,55.52Z"/><path class="cls-4" d="M290.74,234.16c-4.94-8.11-9.74-16.34-15.33-24-4.28-5.9-9-12.49-15.18-16.52-6.59-4.29-15-3.3-22.45-2.76-8.27.59-18.85,3.31-24.9-3.93-2.79-3.34-7.54,1.46-4.77,4.77,11.21,13.41,30.27,2.45,44.63,5.91,7.64,1.84,13.7,11.48,17.88,17.38,5.15,7.28,9.65,15,14.29,22.58,2.26,3.71,8.1.32,5.83-3.4Z"/><path class="cls-4" d="M90.16,32.56C96,38.83,101.82,45,108,50.88c5.09,4.9,10,8.44,17.23,8.77,16.46.73,32.94-3.06,49.31.22,7.52,1.51,15.22,4.4,21.05,9.52C201.07,74.24,203.78,81.2,206,88c2.42,7.41,4.35,15.93,2.76,23.71-1.11,5.42-3.42,10,.18,15.06,4.9,6.86,10.32,12.61,13.91,20.43a51.32,51.32,0,0,1,4.77,24.91c-.2,3.14,2.94,5.09,5.73,4.55,10.45-2,21.17-3.62,31.84-3.61,6.27,0,6.23-10.13.13-9.63-11.54.94-22.89,1.94-34.24,4.33l5.73,4.54c.72-15-4.82-29.27-13.55-41.29-2.15-3-4.68-5.5-6.94-8.33s-.37-5.89.29-9.13c1.53-7.45.26-15.91-1.84-23.13-4-13.65-10.07-25.66-23.21-32.31C176.91,50.71,160.38,51,144.4,52c-9,.55-20.87,3.25-28.51-2.62C108,43.28,100.8,35.86,93.07,29.44c-1.87-1.56-4.56,1.33-2.91,3.12Z"/><path class="cls-4" d="M247.33,117.9a36.75,36.75,0,0,0,11.78,7.2c2.69,1.11,6.69,1.49,7.34,5,.34,1.83-.61,4.21-.56,6.14.26,9.31,7.3,16.13,10.11,24.59,1.23,3.68,1.31,6.67,4.88,8.85,4.82,2.94,10.06,5.3,14.94,8.16a314.29,314.29,0,0,1,28.66,18.69c4,3,8.17-3.57,4.17-6.51a233.29,233.29,0,0,0-28-18c-4.8-2.57-9.73-4.87-14.64-7.21-3.75-1.79-4.12-7.62-6-11.28-2-3.94-4.62-7.63-6.3-11.75-1.93-4.73-.45-8.64-1.12-13.4-.5-3.58-2.79-5.74-6.09-6.91-5.84-2.07-11.09-4.41-16.74-7-1.92-.88-4,1.93-2.45,3.45Z"/><path class="cls-4" d="M246.2,118.34c2.41,3.89,5,7.88,6.36,12.28s.39,8.58,1.11,13c1.51,9.13,5.53,19.53,9.93,27.64,1.74,3.22,7.66,1.49,6.33-2.27-3.4-9.59-9.7-20-9.53-30.44.15-9.37-4-15.95-9.89-23-1.83-2.19-5.89.24-4.31,2.8Z"/><path class="cls-4" d="M384.24,182.65c2.1-9.35,6-18,9.73-26.82,2.61-6.23-7.55-9-10.13-2.8-3.69,8.8-7.63,17.48-9.72,26.83-1.48,6.58,8.65,9.39,10.12,2.79Z"/><path class="cls-4" d="M421.55,28.71c0,12.06.3,24.45-3.21,36.12a64.33,64.33,0,0,1-23.7,33.32,3.43,3.43,0,0,0,0,5.83,177,177,0,0,1,24,19.64c3.11,3,7.89-1.73,4.78-4.78a188.35,188.35,0,0,0-25.34-20.69V104a72.13,72.13,0,0,0,26-34.79c4.49-13,4.27-26.95,4.27-40.48,0-4.35-6.75-4.35-6.75,0Z"/><path class="cls-4" d="M451.5,75.8a32,32,0,0,0,2,13.38c1,2.88,2.66,5.8-.23,7.79-1.53,1-3.21,1.88-4.68,3-6.66,5.21-8.67,13.62-12.6,20.69-1.72,3.07-5.21,5.74-5.91,9.25-.84,4.23,1.49,9.89,2.2,14.07a250,250,0,0,1,3.61,35.8c.11,4.95,7.86,5.3,7.73.32a200.91,200.91,0,0,0-3.46-34c-.87-4.31-4.6-12.5-2.36-16.39,2-3.54,4.47-6.63,6.19-10.44s3.2-7.85,5.75-11.22,6.39-4.77,9.23-7.71a7.83,7.83,0,0,0,1.82-8.53c-1.88-5.48-3.57-10.57-4.92-16.23-.57-2.34-4.08-2.36-4.34.19Z"/><path class="cls-4" d="M450.34,75.26c-1.67,4.21-3.36,8.49-6,12.18-2.92,4-7.3,6.07-10.52,9.76A108.6,108.6,0,0,0,417.48,122c-1.65,3.57,3.95,6,6,3,5.81-8.54,10.42-19.64,18.73-26.12C449.82,93,453,86.26,455.21,77c.78-3.18-3.61-4.94-4.87-1.77Z"/><path class="cls-4" d="M206.09,174c6.81,7.73,11.26-2.75,12.11-9.25,1.18-9.11-2.93-17.82-7.69-25.31-2.56-4-5.38-7.88-8.16-11.75-2.53-3.5-6.12-5.44-8.82-8.66-3.23-3.85-4.38-10.24-6.4-14.84a46.33,46.33,0,0,0-8-12.65c-3.06-3.4-8.07,1.63-5,5,5.31,5.9,7.68,13.25,10.6,20.47,1.23,3,2.39,5.71,4.81,8s5.11,4.05,7.19,6.91c8.12,11.14,19.85,25.48,11.7,39.56l2.12-1.63-.75.26,2.74.35a18.65,18.65,0,0,1-1.36-1.45c-3-3.44-8,1.6-5,5Z"/><path class="cls-4" d="M384.64,117.71c-4.84-6.83-7.31-15-12.17-21.77-4.12-5.76-10.26-9.47-16.92-11.69-4.39-1.47-9-1.72-13.51-2.51-4.07-.72-8.11-1.61-12.2-2.23s-8.39-1.31-12.41-1c-3.47.32-9,4.62-12.21,2.58L307,84.21v-3l-4.49,3.42.44.09-1-2.51a2.93,2.93,0,0,1-.3,1.72l1.63-2.12-.58.33,2.74-.36-.43-.08.91,3.45c1.39-8.23,7.71-14.53,7-23.27-.39-4.51-7.49-4.55-7.1,0C306.2,67.58,303,72,300.88,77c-1.4,3.28-3.54,8,.05,10.49,7,4.9,11.77-7.5,3.44-9.75a3.59,3.59,0,0,0-4.49,3.43c0,3.31,0,5.72,3.52,7,3.71,1.34,7,.09,10.47-1.23,8.77-3.36,19.15.47,28.09,1.91s18.57,2.82,24.38,10.63c5,6.69,7.34,15,12.17,21.77,2.62,3.7,8.78.16,6.13-3.58Z"/><path class="cls-4" d="M265.29,9.9l48.23,14.6c7.3,2.21,14.54,4.47,20.35,9.64A44.21,44.21,0,0,1,345.19,50.7c2.23,5.49,2.72,10.41,3.09,16.24.25,4.07.45,8.77,3.63,11.74,3.37,3.16,8.53,4.58,12.79,6.06,2,.7,4.42,1.16,6.29,2.23,2.83,1.62,4.32,4.86,6,7.54,2.41,3.87,8.56.31,6.13-3.58-3-4.86-5.61-9.05-11.13-11.15-4.52-1.73-10.4-2.67-14.32-5.63-3.71-2.81-2.28-10.66-2.75-14.89-.63-5.79-3-11.54-5.7-16.67-6.77-12.83-17.51-19.9-31.1-24.12-16.94-5.26-34-10.27-50.94-15.41-4.38-1.33-6.25,5.52-1.88,6.84Z"/><path class="cls-4" d="M384.16,94.93c2.13-6.22,11.13-8,15.43-12.52a14.64,14.64,0,0,0,4.19-8.9c.13-1.67-.52-3.47-.22-5.08.42-2.24,2.63-4.36,4-6.1,2.83-3.53-2.16-8.58-5-5-2.23,2.78-5.39,5.94-6.12,9.55-.46,2.25.63,4.39.24,6.63s-2.12,4.09-3.92,5.46c-5.84,4.45-12.86,6.52-15.45,14.08-1.48,4.33,5.37,6.19,6.85,1.89Z"/><path class="cls-4" d="M244.89,181.27a59.5,59.5,0,0,0,6-.58,36.51,36.51,0,0,1,9.61.75,21.62,21.62,0,0,1,8.4,2.64c1.95,1.18,3.51,2.5,5.71,3.16.4.12.77-.43.37-.68-4.16-2.65-7.6-5.28-12.55-6.07a48.82,48.82,0,0,0-17.51.2c-.3.06-.33.58,0,.58Z"/><path class="cls-4" d="M295.06,197.3A12,12,0,0,0,303.6,199c3.06-.36,6.85-1,9.11-3.23.22-.22,0-.65-.3-.5a27.44,27.44,0,0,1-17.15,1.47.29.29,0,0,0-.2.52Z"/><path class="cls-4" d="M359.93,136.33c-4.43.29-7.94-1.24-11.58-3.58-2.88-1.85-6.54-3.69-9.09-5.93-5.08-4.47-6-11.93-12.63-15-3.91-1.82-7.35,4-3.41,5.83,6.67,3.11,8,12.35,14.5,16.27,7.13,4.3,13.36,9.76,22.21,9.19,4.31-.28,4.34-7,0-6.75Z"/><path class="cls-4" d="M388.24,161.76c5.35-3,6.46-10.57,1.26-14.27-8.39-6-18.67-9.36-28.78-10.82-4.25-.62-6.09,5.89-1.8,6.51a66.81,66.81,0,0,1,16,4.16c2.14.88,14.61,5.9,9.87,8.59-3.77,2.14-.38,8,3.41,5.83Z"/><path class="cls-4" d="M324.3,116.47c7.38,2.27,12.89,3.81,20.05,7.12,3.31,1.53,4.69,4.48,7.6,6.37,3.21,2.08,7,.61,10.41,2.12a106.25,106.25,0,0,0,20.75,6.62c1.44.3,3.35-.33,3.67-2,.55-2.84,1.93-6.51,1.25-9.46a11.87,11.87,0,0,0-1.42-2.74,28.17,28.17,0,0,1-2.26-6.86c-.56-2.33-4.48-2.8-5-.18a11.72,11.72,0,0,0,1,7.77c.49,1.08,1.71,2.29,1.9,3.42.31,1.77-.73,4.57-1.07,6.37l3.67-2a117.35,117.35,0,0,1-11.91-2.41c-3.93-1-7.38-3.4-11.23-4.39-3.41-.87-5.88.9-8.57-2a20.5,20.5,0,0,0-7.22-5.4c-7.29-3.14-12.93-5.12-20.8-6-2.09-.25-2.78,3-.76,3.63Z"/><path class="cls-4" d="M395.25,135.34l-.06.22a1,1,0,0,0,.07.52l.13.22a1,1,0,0,0,.41.31.73.73,0,0,0,.39.06.72.72,0,0,0,.38-.07,1.14,1.14,0,0,0,.53-.53,1,1,0,0,0,.06-.53l-.06-.22A.7.7,0,0,0,397,135a.75.75,0,0,0-.23-.27l-.21-.12a.69.69,0,0,0-.37-.06.52.52,0,0,0-.25,0,.69.69,0,0,0-.32.16l-.17.17a.9.9,0,0,0-.18.45Z"/><path class="cls-4" d="M340.91,124.92c-.05,1.69,1.61,3.4,2.78,4.45s3.05,2.43,4.77,2.29a.37.37,0,0,0,.15-.65c-1.3-1-2.95-1.4-4.22-2.52s-1.83-2.7-3-3.76a.28.28,0,0,0-.45.19Z"/><path class="cls-4" d="M310.89,78.41c1.26.19,1.78-.32,2.9-.82,1.69-.75,3.34-.43,5.1-.85a21.47,21.47,0,0,1,2.42-.81c1.45-.18,2.53.8,3.85.92a1.77,1.77,0,0,0,1.7-.42c.3-.21.05-.65-.27-.61-1.71.2-2.93-1.17-4.55-1.21a8.15,8.15,0,0,0-2.73.7c-1.45.47-2.76.15-4.18.45s-2.59,1.75-4.27,1.85c-.48,0-.4.74,0,.8Z"/><path class="cls-4" d="M383.49,108.69c4.72,10.11,10.21,17.92,7.17,29.62a.38.38,0,0,0,.7.27c5.16-9.84-1-22.44-7.29-30.25a.35.35,0,0,0-.58.36Z"/><path class="cls-4" d="M390.23,143.74a15.52,15.52,0,0,1,4.68,4.83.28.28,0,0,0,.52-.22,8.46,8.46,0,0,0-4.92-5.11.29.29,0,0,0-.28.5Z"/><path class="cls-4" d="M406.55,162.84c1.19-2.22,1.71-4.68,3.3-6.68,2-2.5,4.31-3,7.32-3.07a.43.43,0,0,0,.2-.83c-2.48-1.22-5.7.35-7.52,2.11a13.11,13.11,0,0,0-3.79,8.34.26.26,0,0,0,.49.13Z"/><path class="cls-4" d="M430.12,159.42c-.21,4.44.47,11.88-3.2,15.18-.22.2-.08.66.26.58,2.35-.54,3.17-2.63,3.57-4.82.63-3.49,1.13-7.64-.27-11-.07-.16-.35-.15-.36,0Z"/><path class="cls-4" d="M367.51,86.85a61.38,61.38,0,0,0,4.93,4.6c1.62,1.56,3.05,3.31,4.69,4.85.19.17.43-.11.3-.3a40.84,40.84,0,0,0-5-5.45,21.88,21.88,0,0,0-4.72-4c-.16-.09-.32.14-.21.28Z"/><path class="cls-4" d="M261.29,129.3c2,5.6.31,12.52,4.08,17.45.25.34.75,0,.6-.37-2.18-5.68-1.55-11.88-3.78-17.51-.23-.6-1.11-.17-.9.43Z"/><path class="cls-4" d="M308.78,72c6.38-5.9.79-21.88-4.33-26.91a.87.87,0,0,0-1.53.43c-.59,4.45.77,8.85,1.79,13.15,1,4.14.69,8.44,1.67,12.46a1.49,1.49,0,0,0,2.4.87Z"/><path class="cls-4" d="M302.11,44.75c-.92,5.34,9.27,9.29,12.2,12.71,4.34,5.06.37,12.34,8.15,14.82,2.84.91,4.66-3,2.21-4.69-3.47-2.33-2.54-5-3.77-8.35a17,17,0,0,0-4.78-6.59,62.57,62.57,0,0,0-6.78-5C307.2,46.2,305.75,44,303.07,44a.9.9,0,0,0-1,.75Z"/><path class="cls-4" d="M422.84,19.4c-.67,10.31-6.31,17.75-12.41,25.67-3.28,4.25-11.69,13.58-7.79,19.19a1.2,1.2,0,0,0,1.16.44c3.91-.64,6.2-5.86,8.48-8.62,3.22-3.91,6.56-7.72,9.54-11.81,5.19-7.11,9.24-16.58,6.51-25.43a2.8,2.8,0,0,0-5.49.56Z"/><path class="cls-4" d="M213.47,189.16c-2.87-4.62-5.57-8-10.35-10.69-3.21-1.79-3.79-3.53-5.09-6.75-1.07-2.67-2.75-4.87-4.18-7.34s-2.12-5.38-3.57-7.89c-1.6-2.78-4-5-5.74-7.69-2.12-3.27-3.81-9.35-8.45-9.07a1.23,1.23,0,0,0-1,.81c-.95,3.8,3.06,9.31,5.16,12.37,1.7,2.46,3.9,4.5,5.31,7.17s2.48,5.65,4.34,8.27a25.05,25.05,0,0,1,3.84,7.35c.74,2.26,1.34,4.08,3.26,5.65,1.73,1.42,4,2,5.8,3.23,2.75,1.87,4.87,4.58,6.91,7.16,1.59,2,5.13-.36,3.75-2.58Z"/><path class="cls-4" d="M176.4,142c-.3,3.92,3,6.65,5.34,9.51s4.73,6,7.81,8.36c3.82,2.9,8,5.1,11.64,8.27,2.62,2.27,4.53,5.26,8.09,5.7a1.47,1.47,0,0,0,1.57-1.7c-.55-3.79-4.39-6.26-7.16-8.65s-6-4.45-9.05-6.62c-3.57-2.52-6.17-5.7-9-9-2.38-2.8-4.34-6.33-8.2-6.72a1,1,0,0,0-1.07.85Z"/><path class="cls-4" d="M176.28,92.6c5.49,6.36,13.45,11.43,20.11,16.51,1.72,1.32,4.55-.43,4-2.59-3-11.72-6.71-23.66-16.48-31.54-10.82-8.74-24.11-12.3-37.85-12-7.57.18-15.21,1.67-22.77,1.3a20.08,20.08,0,0,1-10.59-3.08c-3.29-2.28-4.47-5.79-6-9.3a66.53,66.53,0,0,0-5.9-10.72c-2.54-3.81-5.84-7.17-8.22-11-.45-.74-1.74-.17-1.56.66,1.83,8.53,6.88,15.17,10.22,23.06,2.26,5.32,4.17,10,9.36,13.1,5.51,3.3,12.06,3.76,18.32,3.42,15.21-.8,29.8-3,43.81,4.62,6.1,3.31,11.57,7.69,15.15,13.71,3.45,5.8,5.44,12.34,7.41,18.75l4-2.6c-6.84-4.74-14.09-10.72-21.77-14a1.1,1.1,0,0,0-1.28,1.68Z"/><path class="cls-4" d="M268.4,5c7.05,4.6,13.76,9.66,21,14q10.38,6.3,20.78,12.56c6.55,4,13.63,8.19,15.54,16.19,1.85,7.74-.94,15-2.51,22.5-.56,2.66,3.12,4.1,4.1,1.41,2.6-7.08,4.24-15.78,2.92-23.28-1.25-7.08-5.68-12.3-11.45-16.31-15.64-10.86-33.05-19.17-49.68-28.29-.68-.38-1.34.75-.68,1.18Z"/><path class="cls-4" d="M336.69,47.73q1.92,11.3,3.83,22.58c.08.47.8.28.72-.19q-1.9-11.23-3.8-22.49c-.08-.47-.83-.38-.75.1Z"/><path class="cls-4" d="M336.49,71.54c2.94,3.54,6.5,7.9,11.64,7.68a.82.82,0,0,0,.37-1.46c-3.63-2.51-8.31-3.34-11.41-6.67-.32-.34-.91.08-.6.45Z"/><path class="cls-4" d="M181.59,65a199.24,199.24,0,0,1,14.75,21c5.22,8.6,9.68,17.27,8.83,27.62a.61.61,0,0,0,1.21.16c1.46-9-2.62-17.65-7.06-25.27a169.38,169.38,0,0,0-17.13-24c-.31-.37-.9.07-.6.45Z"/><path class="cls-4" d="M323,30.52c.66,1,.65,2.1,1.4,3.15,1,1.49,2.17,2.94,3.22,4.42,2.09,2.94,3.73,6,5.62,9.08.36.6,1.31.12,1.21-.51a30.91,30.91,0,0,0-3.75-9.93A28.91,28.91,0,0,0,328,32.78a10.21,10.21,0,0,0-2.13-2.27c-.63-.43-1.3-.34-2-.85a.61.61,0,0,0-.85.86Z"/><path class="cls-4" d="M296.87,170.6c-1.53-7-5.63-12.62-5.24-20.11.38-7.17,3.61-13.82,2.47-21.09a1.4,1.4,0,0,0-2.49-.56c-4.68,6.68-7,17.43-6.23,25.54.61,6.58,3.29,14.86,10,17.39a1.09,1.09,0,0,0,1.46-1.17Z"/><path class="cls-4" d="M301.24,129.34c-2.74-1.81-4.66-2.43-7.56-.42s-4,5.76-3.68,9.28c.82,8.17,9.4,14.59,17.27,10.9,7.41-3.47,9.54-13.29,5.08-19.91-3.55-5.25-14.76-8.6-17.58-.91a1.3,1.3,0,0,0,1.42,1.73c3.72-.56,7.57-2,10.7.94a8.47,8.47,0,0,1,.38,11.55c-3.56,3.87-8.62,2.4-11.13-1.69-1.17-1.9-2.52-4.65-1.71-6.93.68-1.9,4.08-4.38,6.24-3.58.57.21,1.12-.6.57-1Z"/><path class="cls-4" d="M299.84,149.42c-4.84,2.72-4.51,7.63-1.08,11.79,4.54,5.51,11.4,7.46,17.71,3.59,5.52-3.38,8.8-10.28,7.18-16.66-1.13-4.47-8.79-11.58-12.26-5.17-.36.67-.31,1.74.59,2,3.53,1,6.7,1.83,6.83,6.24a10.66,10.66,0,0,1-4.67,8.7c-3.2,2.3-6.45,2.39-9.6,0-2.32-1.76-7.38-6.28-4.12-9.47.43-.41.05-1.36-.58-1Z"/><path class="cls-4" d="M294.88,130.86c6.41-3.25,6.28-13.34,2.32-18.44-4.91-6.32-13.62-5.42-18.68.23-5.38,6-4.83,14-.38,20.31,2.48,3.51,5.27,6.06,9.85,5.64,3.56-.34,7-2.46,8.09-5.91a1.23,1.23,0,0,0-1.34-1.64c-1.82.4-3,1.32-4.73,2-4.4,1.74-6.83-.58-9-4.16-2.34-3.94-2.51-8.36.17-12.2,3.4-4.89,10.45-5.88,13.43.07,2.32,4.64-.58,9-.51,13.68a.53.53,0,0,0,.74.42Z"/><path class="cls-4" d="M370.61,79.48c0-15.19,1.86-29,9-42.55.32-.6-.58-1.31-1.08-.82-11.33,11.15-11.4,28.73-10.74,43.49.07,1.6,2.83,1.49,2.83-.12Z"/><path class="cls-4" d="M388.31,35.23c-1.74-3-5.45-2.93-8.4-1.62-4,1.78-6.1,5.84-7.24,9.88C370.4,51.6,374.6,61,384.11,60.09c9-.87,14.62-9.85,13.37-18.46-1-6.79-9.49-16.48-15.67-8.7-.91,1.15.49,2.38,1.64,2,11.22-3.81,12.51,18.43.66,20-5.8.76-7.55-4.51-7.1-9.28.24-2.54.85-5.18,2.61-7.12,2.35-2.59,4.71-2,7.77-2,.59,0,1.3-.59.92-1.24Z"/><path class="cls-4" d="M197.47,127.41c-1.65-2.24-2.69-4.79-4.79-6.68a30.22,30.22,0,0,0-6.38-4.23,34,34,0,0,0-15-3.91c-8.56-.16-21.41,2.34-23.76,12.06-.27,1.14,1.33,1.47,1.94.76,5.74-6.73,15.27-9.24,23.87-8.38a32.64,32.64,0,0,1,12,3.65c3.47,1.85,8.33,4.7,10.87,7.71a.8.8,0,0,0,1.26-1Z"/><path class="cls-4" d="M163.78,116.16c-3.56-1-6.08-1.26-9.46.78a11.7,11.7,0,0,0-5.76,8.19c-1.16,6.73,3.73,14.64,11.06,14.55,6.25-.08,14-7.25,15-13.34.87-5.59-4.66-14.67-11.17-11.81a1.46,1.46,0,0,0-.23,2.5c3.7,2.27,8.63,3.64,6.66,9.27-1.2,3.43-6.37,7.58-9.93,7.93-4.87.48-7.71-5.54-6.11-9.78,1.36-3.61,5.92-6.41,9.73-6.58a.9.9,0,0,0,.2-1.71Z"/><path class="cls-4" d="M149.13,122c-1.1-5-8.85-3.51-12.11-1.72A13.09,13.09,0,0,0,130.81,135c1.4,5.8,6.27,10.65,12.3,11.33,5.09.58,12.45-3.38,11.06-9.38a1.37,1.37,0,0,0-2.61-.24c-1.16,2.33-1.75,4.49-4.38,5.63a9,9,0,0,1-7.67-.85A11.38,11.38,0,0,1,134,131a9.64,9.64,0,0,1,7.51-8.55c2.46-.56,4.73.47,7.19.12a.49.49,0,0,0,.42-.55Z"/><path class="cls-4" d="M148.72,121.31c-2.55,1.35-1.59,5.31-.85,7.5.9,2.69,2.58,5.83,5.6,6.36a1.15,1.15,0,0,0,1.25-1.33c-.53-2.43-2.46-4.32-3.33-6.64-.71-1.89-.52-4.52-2.25-5.83a.4.4,0,0,0-.42-.06Z"/></g><path class="cls-2" d="M324,195.24l-.16.06c.18-.14.36-.28.53-.43a.73.73,0,0,0-.58-1.24,18.11,18.11,0,0,0-3.23.74,23,23,0,0,0-6.13-5.62,1.86,1.86,0,0,0-1.23-2.94,46.32,46.32,0,0,1-7.89-2.81A54.07,54.07,0,0,1,295,175.74a7.8,7.8,0,0,0-4.07-2.05,5.84,5.84,0,0,0-9.2-4.6,86.8,86.8,0,0,0-9.21-17.23,60.66,60.66,0,0,0-1.2-9.54c-1.14-5.88-3.89-16.57-11.4-18-1.25-.24-3.06.36-3.28,1.69-.56,3.35.95,5.66,2.22,8.75.11.27.2.54.3.81-4.71,5.31.07,18,1.95,23.17a66.73,66.73,0,0,0,5.36,11.92,7.31,7.31,0,0,0-3.63,1.46,7.47,7.47,0,0,0-5.65-.12,11.62,11.62,0,0,0-2,1,15.45,15.45,0,0,0-4.32-1.32,10.79,10.79,0,0,0-8,1.76,7.54,7.54,0,0,0-3.63.71,7.9,7.9,0,0,0-6.53-.47,6.68,6.68,0,0,0-2.25-.6,79.89,79.89,0,0,0-2.07-11.39,33.45,33.45,0,0,0-2.35-9.77,36.41,36.41,0,0,0-2.91-6.08,4.67,4.67,0,0,0-.88-1.33c-.26-.36-.53-.71-.8-1.05a67,67,0,0,0-6.31-10.95,4.36,4.36,0,0,0-1-1,106.25,106.25,0,0,0-9.35-11.94,5,5,0,0,0-3.44-1.57c-2-2.07-3.91-4.1-5.72-6.1a2.94,2.94,0,0,0-2.17-1c-.62-.79-1.19-1.6-1.73-2.42a2.62,2.62,0,0,0-.5-1.5,3.13,3.13,0,0,0-1.77-1.18,2.46,2.46,0,0,0-3,3.35c.1.22.21.43.32.65a2.71,2.71,0,0,0-.68,3.88c5.26,7,10.87,13.76,16.05,20.82a69.6,69.6,0,0,0,5.27,7.55,18.41,18.41,0,0,0,3.44,4.76c.19.5.36,1,.52,1.51a5.26,5.26,0,0,0-.07,1,44.61,44.61,0,0,0,2.73,13.47,3.71,3.71,0,0,0,.24.49l.21,1.47a33.75,33.75,0,0,0,.08,4.93,5.27,5.27,0,0,0-3.25,3.41c-.18.52-.33,1-.47,1.54h0a.81.81,0,0,1,0,.16l-.06.27a71.3,71.3,0,0,0-16.21-3.19c-7.35-.74-11.75,1.69-18.29,4.49-.89.38-1.78.75-2.68,1.11h0q-.84-2.53-1.7-5a3.53,3.53,0,0,0-.25-1.27c-.41-1.06-.83-2.13-1.25-3.2a4.52,4.52,0,0,0-.89-1.42c-1.84-3.74-3.81-7.42-5.73-11.13a3.69,3.69,0,0,0-3.37-2l-.32-.61a4.21,4.21,0,0,0-.59-.86,3.94,3.94,0,0,0-.4-1,4.37,4.37,0,0,0-.68-1l-1.32-1.46c-.71-.82-1.43-1.63-2.18-2.42a3.64,3.64,0,0,0-4-1l-4.29-5a3.5,3.5,0,0,0-4.19-1.15c-.67-.49-1.32-1-2-1.47a3.84,3.84,0,0,0-3.65-.5,95,95,0,0,1-8.45-5.28c-4.67-3.31-8.14-7.87-12.27-11.69a3.72,3.72,0,0,0,0-.82c-1-8.7-3.83-16.51-10.21-22.67-3.41-3.3-7-6.54-10.63-9.55-3-2.48-6.6-6.39-10.61-6.87a1.28,1.28,0,0,0-1.11-1.62c-.92-.1-1.88,1-1.36,1.87l.07.13a1.48,1.48,0,0,0,.59.6.31.31,0,0,0,0,.1c.86,3.83,4.84,5.89,7.63,8.44C93.67,92.24,96.9,95,100,98l.56.54a2.93,2.93,0,0,0,.19,2.29c2.67,5.51,4.9,12.05,9,16.77a14.73,14.73,0,0,0-2.23-.69,5.54,5.54,0,0,0-2-2,10.53,10.53,0,0,0-6.17-.91,3.21,3.21,0,0,0-2.94-.3c-1.1.4-2.19.82-3.28,1.25a3.13,3.13,0,0,0-3.18.32l-1.29.93a4.38,4.38,0,0,0-1.29.72l-1,.8a4,4,0,0,0-1.62,1.21c-.54.39-1.07.79-1.6,1.22a3.2,3.2,0,0,0-.62.66L81,121.92a3.27,3.27,0,0,0-.85,4.36,25.21,25.21,0,0,0-5.22,5.95,4,4,0,0,0-.32.66c-.53.46-1.07.9-1.61,1.35a3.22,3.22,0,0,0-3,1.09q-2.22,2.32-4.61,4.42a3.06,3.06,0,0,0-3.28.65l-2.3,2.06a3.32,3.32,0,0,0-1.94.81c-.79.66-1.56,1.34-2.3,2A3,3,0,0,0,53,146.4c-1.18,1.28-2.32,2.6-3.45,3.93a41.5,41.5,0,0,0-3.85,4,3.39,3.39,0,0,0-2.55,1A62.06,62.06,0,0,0,36.56,163c-.7.86-1.39,1.72-2.07,2.59a2.74,2.74,0,0,0-1,1c-.16.26-.33.52-.5.78l-.1,0c-2.45.88-3.71,2.64-4.82,4.92-.13.25-.24.52-.36.78a3,3,0,0,0-1.59,2.08c-.27,1.08-.54,2.16-.8,3.24A3.5,3.5,0,0,0,32,180.5a12.37,12.37,0,0,1,2.23-3.61c1.09-1.23,2.44-2.39,3-3.94,5.65-4.21,11.34-8.4,16.76-12.92,1.65-1.37,3.26-2.76,4.86-4.17a3.64,3.64,0,0,0,2.21-.92q3.72-3.33,7.4-6.72a3.09,3.09,0,0,0,1.72-.08c.5-.16,1-.35,1.48-.55a3.77,3.77,0,0,0,2.79,1.34c2.86,0,4.77-2.13,6.8-3.93s3.37-3.24,3.29-5.65a3.5,3.5,0,0,0,3.69-1.09c.31-.37.63-.71.94-1a4.24,4.24,0,0,0,2,0,13.17,13.17,0,0,0,2.65-1c7.15-2.1,15.25,2.3,22.06,3.59a4.55,4.55,0,0,0,5.58-4.44c.36.25.73.48,1.09.72,3.61,2.33,7.46,4.23,11.12,6.43a4,4,0,0,0,1.07,4.65A44.7,44.7,0,0,0,143,153c1.82,1.28,3.61,2.57,5.38,3.92.82,1.7,1.61,3.42,2.37,5.14A78.64,78.64,0,0,0,156,175a3.76,3.76,0,0,0,.31.52,3.8,3.8,0,0,0-.47,1.4,23.25,23.25,0,0,0,0,6.4l-2.18.63c-3.65,1-7.35,2.07-11.07,2.84a14.33,14.33,0,0,1-5.78.47c-1.56-.32-2.81-1.23-4.37-1.61-1.94-.47-4.05.94-3.57,3.13,1.31,6.09,9,5.89,13.87,5.07,7.92-1.33,15.84-3.9,23.42-6.49,3.32-1.14,6.61-2.64,9.92-4.1a2,2,0,0,0,2.22.72,39.3,39.3,0,0,1,13.49-1.18c3.28.23,6.91.63,9.1-2.25a1.43,1.43,0,0,0,.28-1c3,.63,6,1.38,8.93,1.87a19,19,0,0,0,1.43,6.14,5.84,5.84,0,0,0,6.4,3.68,8.34,8.34,0,0,0,6.47,2.93,137,137,0,0,0,25.36-2.54c2.26,3.61,8,5,11.25,1.66a5.57,5.57,0,0,0,2.22,5.22,5.42,5.42,0,0,0,1.2,2.48,10.79,10.79,0,0,0,.51,1.55,6.18,6.18,0,0,0,3.09,3.08l0,.1c-1,4.06,2.68,7,6.63,7.44a6.16,6.16,0,0,0,1.2,3c0,.06-.05.11-.07.17-2.5,5.89,3.17,9.71,8.28,8.7l.18,2.08a1.67,1.67,0,0,0,1.8,1.32,21.26,21.26,0,0,0-.91,3.57c-.09.6.83.68,1.14.29l.09-.13a.76.76,0,0,0,.73.06c1.19-.55,1.66-2.7,2.08-3.72.07-.15.12-.29.18-.43l.55-.81.08-.13a69.61,69.61,0,0,1,6.42-8.71,69.58,69.58,0,0,1,10.46-11.09c5-4.36,11.17-9.05,17.64-12.1A.61.61,0,0,0,324,195.24Z"/><path class="cls-5" d="M56.12,116.76a7.67,7.67,0,0,0-8.28-5.1,6.21,6.21,0,0,0-.89-.1c-2.05-.08-3.67,1-5.21,2.22a11.53,11.53,0,0,0-1.86,1.9,7.41,7.41,0,0,0-.49-2,9.22,9.22,0,0,0-11.34-5.35,9.62,9.62,0,0,0-6.52,9.94c.35,4.15,3.5,8.79,7.73,9.18A5.9,5.9,0,0,0,34,127a7.87,7.87,0,0,0,2.73-1.82,10.18,10.18,0,0,0,1.9-2.75c2.12,5.91,12.09,9,16.15,3.52A9.85,9.85,0,0,0,56.12,116.76Z"/><path class="cls-5" d="M72.13,108a11.56,11.56,0,0,0-.17-1.22c-.91-4.74-7-6.75-9.82-2.56a3.56,3.56,0,0,0-3.52,1,8.16,8.16,0,0,0-1,1.54,3.47,3.47,0,0,0-.85.1,5,5,0,0,0,1.78-2.37c.19-.53.37-1.07.53-1.62a6.31,6.31,0,0,0,.78-.56c1.77-1.51,2.36-4.51,2.46-7.54a7.1,7.1,0,0,0,.94-4.29,2.3,2.3,0,0,0-.06-.28,8.27,8.27,0,0,0-3.59-6.34c-2.44-1.84-6.69.34-6.92,3.3A5.87,5.87,0,0,0,51,94a1.62,1.62,0,0,1,.1.18v0c-.1.15-.18.3-.26.45-.25.19-.48.4-.71.61A11.55,11.55,0,0,0,47.69,94,8.4,8.4,0,0,0,39,93a9.35,9.35,0,0,0-1.85.39l0,0a6.31,6.31,0,0,0-.61-5.17,7.37,7.37,0,0,0-9.81-2.39,6.87,6.87,0,0,0-2,.44c-4.87,1.82-6.08,8.41-3.18,12.44a6.71,6.71,0,0,0,2.38,3.64,5.53,5.53,0,0,0,2.64,1.12,5,5,0,0,0,4.7.55c.76,2.25,3.27,3.27,5.53,3a7.1,7.1,0,0,0,4.52,2c3.43,2.5,8.25,1.47,10.84-1.58a4.86,4.86,0,0,0,3.24.19A3.26,3.26,0,0,0,54.13,111c.89,3.73,4.47,7.27,8.24,6.13a6.33,6.33,0,0,0,4.16.1,5.5,5.5,0,0,0,1-.18,5.42,5.42,0,0,0,2.29-1.32,4.26,4.26,0,0,0,2.44-1.67A4.83,4.83,0,0,0,72.13,108Z"/><path class="cls-5" d="M147.25,12.92C145.73,8,140.16,8,136.67,10.59a8.87,8.87,0,0,0-1.41.41A8.65,8.65,0,0,0,130,16.27a7.13,7.13,0,0,0,1.57,7.21,9.19,9.19,0,0,0-2.64.23,8.26,8.26,0,0,0-3.1,1.53A9.18,9.18,0,0,0,121.36,29c-3.41,5.72.7,14.43,8,12.47a12.18,12.18,0,0,0,6.19-4.37c1.9-2.41,3.7-6,2.73-9.11a5.4,5.4,0,0,0-1.19-2.07,7,7,0,0,0,2.3-.44c2.67-1,4.46-3,6-5.3S148.06,15.56,147.25,12.92Z"/><path class="cls-5" d="M234.85,15.53a5.91,5.91,0,0,0-2.4,1.88A10.87,10.87,0,0,0,230,22a10.81,10.81,0,0,0,0,7.5c2.72,7,12.58,5.78,14.24-1.35C245.51,22.57,242.38,12.35,234.85,15.53Z"/><path class="cls-5" d="M265.59,97.5l-.18.08-.15-.07a10.74,10.74,0,0,0-4.51-.81c-1.87.07-4.32,1.48-4.58,3.56a8.57,8.57,0,0,0,2.46,7.78c2.32,2.18,5.23,2.39,8.21,1.78,3.19-.65,6-3.07,6.05-6.52C273,99.64,269.34,96.13,265.59,97.5Z"/><path class="cls-5" d="M381.85,27.55a9.26,9.26,0,0,0-.89-1.89,4.48,4.48,0,0,0-1.4-3.38c-5-4.93-15.51-6-19.2,1-3.21,6,.66,15.56,7.57,17C374.55,41.62,384.36,35,381.85,27.55Z"/><path class="cls-5" d="M451.32,31.8a6.13,6.13,0,0,0-6.66-2.61,3.39,3.39,0,0,0-2.21.3c-2.43,1.34-2.79,3.84-3,6.37a18,18,0,0,0-.05,2.64,4.5,4.5,0,0,0-1.95-.27,7.53,7.53,0,0,0-4.51,2.05,3.85,3.85,0,0,0-2.51,1.21c-3.26,3.87-3.63,11.78.1,15.78A9.17,9.17,0,0,0,436.2,62c2.75.84,5.39-1.17,6.19-3.68a31.13,31.13,0,0,0,.92-13.76,6.54,6.54,0,0,0,3,.62,4.8,4.8,0,0,0,2.88-.63,4.89,4.89,0,0,0,1.43-1.37,8.21,8.21,0,0,0,2.1-4.22A9.65,9.65,0,0,0,451.32,31.8Z"/><path class="cls-6" d="M49.15,59.59a2.17,2.17,0,0,0-.21-.78c-.32-.64-.62-1.28-.91-1.93-.24-1.25-.52-2.48-.87-3.7a2.34,2.34,0,0,0-4.45-.34,30.28,30.28,0,0,0-2.1,7.27,16.54,16.54,0,0,0-1.6,3.5,18.3,18.3,0,0,0,1.28,14A3.34,3.34,0,0,0,41.47,79v0a72.74,72.74,0,0,0,1.82,8.37c.9,3.2,6.18,3.15,6.14-.53-.08-6.08,1.89-11.94,1.81-18C51.21,66.26,50.86,62.19,49.15,59.59Z"/><path class="cls-6" d="M284,87.25a2.94,2.94,0,0,0,.35-1.68,25.63,25.63,0,0,0-.6-3.78,2.08,2.08,0,0,0-2.39-1.69,2.78,2.78,0,0,0-2.77,1.41,2.76,2.76,0,0,0-1.74,2.39,2.8,2.8,0,0,0-1.69,2.58c0,.11,0,.22,0,.33a2.61,2.61,0,0,0-1.65,2.62c0,.07,0,.13,0,.19a3,3,0,0,0-1,3.13l1.17,5c.09.49.18,1,.28,1.46l-.73,1.83c-1.29,3.22,2.87,5.15,5.1,3.39a2.37,2.37,0,0,0,.56-.26,3,3,0,0,0,1.8-1.85,60,60,0,0,0,3.12-10.82,3.76,3.76,0,0,0,0-1.2.52.52,0,0,0,0-.11A21.7,21.7,0,0,0,284,87.25Z"/><path class="cls-6" d="M90.92,191.45c1-5.14-.68-10.53-3.38-15-3-5-7.59-7.56-11.9-11a21.8,21.8,0,0,0-2.58-2.09c-2.19-1.54-4.63-.49-6,1.36a1.76,1.76,0,0,0-1.37,1.79,32.62,32.62,0,0,0,.33,4.46,3.27,3.27,0,0,0-1.33,3.27,22.28,22.28,0,0,0,5.71,12.31,27.76,27.76,0,0,0,13.88,9.91c1.54,2.58,6.33,2.73,7-.73l.2-1.07A4.65,4.65,0,0,0,90.92,191.45Z"/><path class="cls-2" d="M455.05,92.07c-.09-.42-.16-.83-.24-1.25,1.32-2,2.39-4.43.78-6a3,3,0,0,0-4.19.1C450,86.19,450,88.07,450.32,90c0,.12-.09.23-.13.37a11.49,11.49,0,0,0-2.63,3.12,2.63,2.63,0,0,0-.38.3q-4.11,4.1-7.88,8.41l-.19-.09a2.09,2.09,0,0,0-3.13.38q-2.3,3.69-4.33,7.45c-2.12,3.14-4.19,6.3-6.14,9.54a2.43,2.43,0,0,0-3.05,1.41c0,.17-.07.34-.12.51a2,2,0,0,0-2.24,1.4,7.14,7.14,0,0,0-3.29.67c-.77-2.59-4.44-6.48-8.58-9.64a86.43,86.43,0,0,1-8.23-9,2.14,2.14,0,0,0-3.68.7l-2.85-3.22c.14-.35.26-.68.36-1a36.42,36.42,0,0,0,9.31-8.52,1.8,1.8,0,0,0,.36-1.49A55.16,55.16,0,0,0,407.67,87l.3-.35a1.69,1.69,0,0,0,1.72-1c.8-1.57,1.57-3.16,2.34-4.75.49-.9,1-1.81,1.41-2.72a1.88,1.88,0,0,0,1-1.22c.16-.54.31-1.09.47-1.63a2,2,0,0,0,1.42-1.34q2.17-7.09,3.88-14.29a74.87,74.87,0,0,0,1.94-8.75,1.78,1.78,0,0,0-1.23-2c.05-.26.11-.51.16-.76A1.66,1.66,0,0,0,421,47q.35-3,.45-6.08a47.48,47.48,0,0,0,2.29-5.73c1.48-3.74,3.6-7.92,3.49-12C427.11,20.28,423,19,422,22.08c-.95,2.91-1.74,5.85-2.59,8.79a1.93,1.93,0,0,0-.24,0l-.09.2c-.58,1.25-1.17,2.48-1.78,3.71l-.07,2a39.29,39.29,0,0,0-4.85,13.39c-1.51,3.29-2.9,6.6-4.44,9.87a3.77,3.77,0,0,0-.94-.21c.15,0,0,0-.44,0a1.61,1.61,0,0,0-.37,0h-.05l-.07,0a2.93,2.93,0,0,0-.75.27,5.24,5.24,0,0,0-1.51,1.17,7.58,7.58,0,0,0-1.67,4.16,26.15,26.15,0,0,0-.59,5.7c-1.59,2.29-3.27,4.53-4.77,6.86a31.24,31.24,0,0,1-7,10.35,2,2,0,0,1-3.23-2l-.71.63c-2.52,2.42-5,5-7.51,7.38a37.45,37.45,0,0,0-4.48-6c-3.7-3.86-8.32-6.06-13.21-8a146.78,146.78,0,0,0-18.76-5.9A18.16,18.16,0,0,0,334,74a4.75,4.75,0,0,0-1.69-.48,3.43,3.43,0,0,0-3.78-.08,3.61,3.61,0,0,0-2.15-.44,4.25,4.25,0,0,0-2.41-.51,16,16,0,0,0-1.71-.55,10.87,10.87,0,0,0-2.85,0h0c.77-4.62,1-9.18-.89-13.56-4.14-9.52-13.69-9.52-20.7-15.57-3.94-3.41-9.41,1.58-6.06,5.61A19.35,19.35,0,0,0,284,53.6c-3.26,3.38-7.14,3.9-11.67,4.44-4.22.5-10,1.27-14.38,0a3.82,3.82,0,0,0-6.13.45A2.4,2.4,0,0,1,249.48,60a4.17,4.17,0,0,0-4.55,1.76l-.1.17h0c-2.94.13-14.36,3.83-15.41-.07a3.61,3.61,0,0,0-3.8-2.65c-1.27-1.41-2.68-5.19-3.26-6.27-.75-1.41-1.49-2.84-2.24-4.26a3.86,3.86,0,0,0,.78-4.53,28.58,28.58,0,0,0-9.07-11.55c-.26-.34-.53-.67-.79-1a2.88,2.88,0,0,0-2.47-1.22c-8.81-5.35-20.12-7.39-30-8.74-3.75-.51-3.93,5.18-.32,5.81,10.37,1.81,20.84,4.54,28.53,11.15,3.26,6.19,6.5,12.4,9.83,18.56,1.6,3,3.78,8.2,7.26,9.2,2.48,3.77,7.24,4.72,12,3.88a71.47,71.47,0,0,1,10-.91,3.43,3.43,0,0,0,3.17-.11c1.39,0,2.79-.08,4.19-.15l.27,0c1,1.62,3,2.63,4.77,1.32.58-.42,1.17-.81,1.76-1.22a11.06,11.06,0,0,0,4.42-.14c5-.9,10.1-.72,15.11-1.64a57.48,57.48,0,0,0,7.12-1.89c4.18,0,8.18-.53,11-3,4.08-.88,8.21-1.59,12.33-2.29l.07,0a14.17,14.17,0,0,1,.85,12c-1.24,2.9-4,4.56-5.17,7.61-1.63,4.12,4.07,6.85,6.94,4.22a15,15,0,0,1,8.68-4c.13.06.27.13.41.18a4,4,0,0,0,2.91,1.52,4.21,4.21,0,0,0,4.2.88c1.56,1.63,4.36,2.17,6,.26,2.11-2.44,10.12,1.7,12.62,2.45,4.6,1.38,9.42,2.34,13.94,3.92,5.18,1.82,8.37,5.69,11.5,9.73-.47.36-.94.72-1.43,1v0c.93,1.27,1.73,2.63,2.45,3.85,1.83,3.07,3.42,6.26,5.05,9.43,1.07,1.5,2.19,2.94,3.35,4.36a3.33,3.33,0,0,0,.09,2.77c1.3,2.69,2.49,5.41,3.61,8.14.5,1.77,1,3.53,1.6,5.29a2.9,2.9,0,0,0-1.17,2.06,4.13,4.13,0,0,0-.65.6,3.49,3.49,0,0,0-.44.2c-2.26,1.36-4.52.08-6.58-1a3.27,3.27,0,0,0-3.85.31c-3.73-.93-7.47-1.79-11.19-2.68-1.45-1.8-5.35-3.72-5-1.64-.35-2.29-3.18-3.31-5.1-2.44a3.66,3.66,0,0,0-3-.12l-.26-.21a3.36,3.36,0,0,0-2.6-3.44,4.46,4.46,0,0,0-2.11-2.07,4.16,4.16,0,0,0-5.12-3.57l-.45-.22c-2-4.27-9.3-1.34-7.71,3.16.11.29.21.59.32.88a4.29,4.29,0,0,0,1.38,2,8.22,8.22,0,0,0,2.69,1.94c.81,1.44,1.65,2.86,2.59,4.24l.23.3,0,.12a4,4,0,0,0,3.32,4.79,4.06,4.06,0,0,0,4.66,1.06,2.79,2.79,0,0,0,.7.08,6.22,6.22,0,0,0,3-.8,3.68,3.68,0,0,0,2.81-.15,6.71,6.71,0,0,0,1.81.72l.92.24a3.25,3.25,0,0,0,2.14,1.64c7.24,1.87,14.51,3.92,21.84,5.5a5.63,5.63,0,0,0,3.26.67l3.48.63a8.06,8.06,0,0,1,.28.91,3.07,3.07,0,0,0,1.25,1.86c.35,1,.71,2,1.06,2.93a3.77,3.77,0,0,0,1.75,2.09l-.11.1c-.36,1.83-.67,3.67-.91,5.52-.1.2-.21.39-.31.58l-2.48.64c-2.19.57-1.81,3.45-.13,4.26l-1.53,2.89-.25.07a2.1,2.1,0,0,0-1.33,2.89L382.32,176a1.86,1.86,0,0,0,1.22,2.78c.64,0,1.28,0,1.94,0a2.5,2.5,0,0,0,1.36-1c.21-.32.4-.65.61-1a2.28,2.28,0,0,0,.61.11.48.48,0,0,0,.24.89l1.35.17c5.74-2.28,13.24-1.77,19.18-1.31.85.07,1.78.15,2.74.25,6.81-.25,13.48.2,19.5,2.58a27.5,27.5,0,0,0,4.43-.57.55.55,0,0,0,.44-.41c2.57-.24,3.11-3.92.29-4.13l-.37,0c.05-3.9.55-7.92-1.05-11.46,0-2.11-.13-4.22-.32-6.34a2.16,2.16,0,0,0-.11-.53,7.84,7.84,0,0,0-.23-1.07c.38-7.75-1.56-16-2.69-23.47a1.73,1.73,0,0,0-.62-1.07c.1-.13.19-.27.29-.41a1.91,1.91,0,0,0,1.06-.6c4.09-4.41,6.74-9.81,9.76-14.83L449.49,102a13.36,13.36,0,0,0,1.24-.93,19.09,19.09,0,0,0,3.42-2.91,1.77,1.77,0,0,0,.55-.67,6.69,6.69,0,0,0,1.44-4A1.56,1.56,0,0,0,455.05,92.07Z"/><path class="cls-4" d="M271.46,195.62c-2.1-2.76-4.23-6.75-7.8-8.14-.56-.22-1.3.4-.74.84,7.2,5.64,11.45,14.64,17.32,21.39.25.28.73-.06.56-.37A105.36,105.36,0,0,0,271.46,195.62Z"/><path class="cls-4" d="M291.2,201.77c-3.42.8-1.74,4.53,1,4.8a.52.52,0,0,0,.31-1c-1.06-.65-1.54-1.09-1.48-1.33a.68.68,0,0,1-.05-.58c.6-1.75,3.14-1.05,4.25-.23a5.12,5.12,0,0,1,1.15,1.26,3.17,3.17,0,0,1,.57,1.1c1,2.11.65,4.35-2.78,4.76-2.85.34-5.47-1.87-7.06-3.69-2.82-3.21-4.41-7.06-6.86-10.46-.28-.4-1.06-.18-.9.33,1.43,4.58,5.13,10.78,9.53,13.59,2.71,1.73,8.7,2.74,9.53-1.48C299.05,205.44,295.3,200.81,291.2,201.77Z"/><path class="cls-4" d="M305,192.36c-7.76-3.15-15.66-3.88-21.83-9.88-6.35-6.17-9-15.55-12.95-23-.26-.49-1.21-.15-1,.36,3.33,7.82,6.49,17.44,12.83,23.7,5.27,5.22,14.85,9.56,22.81,9.54A.35.35,0,0,0,305,192.36Z"/><path class="cls-4" d="M236.25,186.94a41.35,41.35,0,0,0-5.44-.61c-1.06-.05-2.7.23-3.71-.12l-.08-.07c-1.15.33-3-.9-3.62-1.47a4.58,4.58,0,0,1-1.61-3.25l0,0c0-.63-.05-1.25,0-1.87,0-4.2.76-8.63,0-12.77,0-.24-.5-.27-.56,0-.84,3.45-.57,7.15-.65,10.66,0,2.21-.24,4.49.85,6.54,2.5,4.69,10.06,4,14.88,3.49A.24.24,0,0,0,236.25,186.94Z"/><path class="cls-4" d="M205.38,127.15c-.45-.41-1.12.19-.72.63A88.81,88.81,0,0,1,219.77,150c.1.2.49.08.42-.14A53.93,53.93,0,0,0,205.38,127.15Z"/><path class="cls-4" d="M398.76,124.22c-.27-.32-.82,0-.65.36,3.67,7.72,5.5,15,4,23.41-1.44,8-5.47,15.31-8.6,22.83-.14.35.42.67.67.33C403.3,158.55,409.89,137.56,398.76,124.22Z"/><path class="cls-4" d="M424.39,159.94c-.33-4.78-.54-10.09-2.58-14.54-.18-.4-.76-.17-.75.2.18,5.82,2.22,11.34,1.89,17.26a21.36,21.36,0,0,1-.81,5.38l-1.37,3.07-.12,0a2,2,0,0,1-1.54,1.54,4,4,0,0,1-3.89,0,4.57,4.57,0,0,1-2.55-1.81A3.06,3.06,0,0,1,412,169a.45.45,0,0,1,0-.11.4.4,0,0,1,.07-.3l-.17,0c.05-1.35.09-2.7.14-4.06a5.43,5.43,0,0,1,.44-1.83,1.73,1.73,0,0,1,1.74-1.62,2,2,0,0,1,1.81,1.36,6.22,6.22,0,0,1,.44,2.8,6.69,6.69,0,0,1-.81,2.86c-.2.41.42.66.72.36,2-2,2.85-9.59-2-9.3-5.19.31-4.95,9.43-3.21,12.08,3,4.49,9.05,4.84,11.7.06C424.73,167.85,424.65,163.68,424.39,159.94Z"/><path class="cls-4" d="M429,125.78c2.2-5.28,6.32-9.83,8-15.29a.21.21,0,0,0-.36-.2c-4,4.55-8.47,11.8-10.16,17.49s1,12.52,2.43,18c.11.45.83.35.78-.11C428.91,139.3,426.39,132,429,125.78Z"/><path class="cls-4" d="M392.18,109c-.4-.26-.93.22-.6.58,4.62,4.92,10.34,9,14.82,14,5.13,5.79,6.22,14.21,7.08,21.37a.39.39,0,0,0,.76,0C415.81,129.85,405.06,117.5,392.18,109Z"/><path class="cls-4" d="M415.61,56.52c-2.14,12.67-9.14,22-18.69,31.07-4,3.8-8.58,6.68-12.71,10.24-2.33,2-4,4.44-3.09,7.32.06.2.36.11.4-.05,1.61-5.7,7.35-10,12.23-13.66A62.53,62.53,0,0,0,404.5,81.27c6.06-7.29,10.75-15.49,11.72-24.68C416.26,56.24,415.67,56.17,415.61,56.52Z"/><path class="cls-4" d="M291.91,234.47c-4.94-8.11-9.74-16.34-15.32-24-4.42-6.07-9.28-12.87-15.68-17-6.82-4.42-15.4-3.51-23.13-2.95s-18.2,3.33-23.94-3.53c-3.91-4.68-10.58,2-6.69,6.69,11.65,13.94,30.45,2.54,45.23,6.26,7.29,1.83,13.06,11.09,17.07,16.76,5.15,7.27,9.65,15,14.29,22.58,3.16,5.19,11.35.44,8.17-4.78Z"/><path class="cls-4" d="M176.06,98.72c11.86,10.69,25.36,19.3,35.83,31.53,10.29,12,17.16,26.79,16,42.85-.21,3,2.72,4.81,5.36,4.32,10.43-1.93,21.3-3.53,31.94-3.35,6.31.1,6.18-10.23.13-9.63-11.51,1.13-22.81,2.11-34.14,4.58l5.36,4.32c1.4-34.73-29.87-63.83-58.46-78.38-2.35-1.2-3.66,2.28-2,3.76Z"/><path class="cls-4" d="M247.33,118.9a36.75,36.75,0,0,0,11.78,7.2c2.69,1.11,6.69,1.49,7.34,5,.34,1.83-.61,4.21-.56,6.14.26,9.31,7.3,16.13,10.11,24.59,1.23,3.68,1.31,6.67,4.88,8.85,4.82,2.94,10.06,5.3,14.94,8.16a314.29,314.29,0,0,1,28.66,18.69c4,3,8.17-3.57,4.17-6.51a233.29,233.29,0,0,0-28-18c-4.8-2.57-9.73-4.87-14.64-7.21-3.75-1.79-4.12-7.62-6-11.28-2-3.94-4.62-7.63-6.3-11.75-1.93-4.73-.45-8.64-1.12-13.4-.5-3.58-2.79-5.74-6.09-6.91-5.84-2.07-11.09-4.41-16.74-7-1.92-.88-4,1.93-2.45,3.45Z"/><path class="cls-4" d="M246.2,119.34c2.41,3.89,5,7.88,6.36,12.28s.39,8.58,1.11,13c1.51,9.13,5.53,19.53,9.93,27.64,1.74,3.22,7.66,1.49,6.33-2.27-3.4-9.59-9.7-20-9.53-30.44.15-9.37-4-15.95-9.89-23-1.83-2.19-5.89.24-4.31,2.8Z"/><path class="cls-4" d="M384.24,183.65c2.1-9.35,6-18,9.73-26.82,2.61-6.23-7.55-9-10.13-2.8-3.69,8.8-7.63,17.48-9.72,26.83-1.48,6.58,8.65,9.39,10.12,2.79Z"/><path class="cls-4" d="M419.58,19.69c1.46,28-.92,60.08-25.89,77.84a5.34,5.34,0,0,0,0,9.07,175.08,175.08,0,0,1,23.6,19.34c4.84,4.73,12.27-2.69,7.42-7.42a189.75,189.75,0,0,0-25.72-21v9.07C427.31,86.46,431.77,52,430.08,19.69c-.35-6.73-10.85-6.77-10.5,0Z"/><path class="cls-4" d="M451.5,76.8a32,32,0,0,0,2,13.38c1,2.88,2.66,5.8-.23,7.79-1.53,1-3.21,1.88-4.68,3-6.66,5.21-8.67,13.62-12.6,20.69-1.72,3.07-5.21,5.74-5.91,9.25-.84,4.23,1.49,9.89,2.2,14.07a250,250,0,0,1,3.61,35.8c.11,4.95,7.86,5.3,7.73.32a200.91,200.91,0,0,0-3.46-34c-.87-4.31-4.6-12.5-2.36-16.39,2-3.54,4.47-6.63,6.19-10.44s3.2-7.85,5.75-11.22,6.39-4.77,9.23-7.71a7.83,7.83,0,0,0,1.82-8.53c-1.88-5.48-3.57-10.57-4.92-16.23-.57-2.34-4.08-2.36-4.34.19Z"/><path class="cls-4" d="M450.34,76.26c-1.67,4.21-3.36,8.49-6,12.18-2.92,4-7.3,6.07-10.52,9.76A108.6,108.6,0,0,0,417.48,123c-1.65,3.57,3.95,6,6,3,5.81-8.54,10.42-19.64,18.73-26.12C449.82,94,453,87.26,455.21,78c.78-3.18-3.61-4.94-4.87-1.77Z"/><path class="cls-4" d="M214.31,192.1c4.08-10.32-11.62-14.93-19-14.26-6,.55-11.66,2.88-17.33,4.8q-9.08,3.06-18.4,5.25c-6.08,1.45-12.32,3-18.56,3.55-2.76.24-7.86,1-9.46-1.92-1.07-1.94-1.07-4.06-2.47-6.05-3.27-4.68-7.36-9.05-11.07-13.39-3.09-3.61-6.6-8.92-11.87-8.41a1.7,1.7,0,0,0-1.38,1.54c0,4.74,4.69,8,7.55,11.39,3.48,4.09,8.53,8.79,10.83,13.64,1.83,3.83,1.25,7.48,5.66,9.73,4.8,2.44,11,2.16,16.19,1.64a185.84,185.84,0,0,0,33.59-6.76c5.94-1.74,12.1-4.68,18.35-4.88,6-.18,8.9,3.79,13.92,6,1.45.62,3-.55,3.49-1.83Z"/><path class="cls-4" d="M175.55,180.62c9.58-3.15,19.39-10.82,29.36-4.76,3.91,2.38,7.48-3.75,3.58-6.13-12.29-7.48-22.92.13-34.83,4-4.32,1.42-2.47,8.28,1.89,6.85Z"/><path class="cls-4" d="M105.07,168.34c8.16,5.56,14.39,13.77,23.27,18.34a25.15,25.15,0,0,0,13.09,3.07c4.91-.3,8.66-3.73,13.46-4.4,4.5-.62,2.58-7.46-1.89-6.84s-7.9,3.88-12.25,4.17-8.66-1.76-12.26-4.17c-7.13-4.78-12.74-11.47-19.84-16.3-3.79-2.58-7.34,3.57-3.58,6.13Z"/><path class="cls-4" d="M203.77,172.76c2,2.11,4.41,2.41,7,3.61a2.52,2.52,0,0,0,2.46-.53c5.87-4.23,4.35-13.57,2.63-19.51a92.05,92.05,0,0,0-10-22.4,36.69,36.69,0,0,0-7.6-8.87c-2.83-2.39-6.4-4.14-7.43-7.9a44.87,44.87,0,0,0-5.21-11.75c-2.4-4.06-4.39-8.89-8-12-1.33-1.14-3.2.43-2.94,1.93,1.35,7.79,8.24,14,10.28,21.7.7,2.67,1,4.76,3,6.91,2.09,2.34,4.93,4,7.23,6.13,5.39,5,8.28,11.74,11.21,18.32a70.62,70.62,0,0,1,4.16,11.07c.9,3.52,2.62,9.92-.67,12.65l2.45-.53c-2.85-1.09-5.41-2.17-8.15-.57a1.13,1.13,0,0,0-.41,1.71Z"/><path class="cls-4" d="M292,45.18l-36.6-24.45c-3.81-2.54-7.37,3.61-3.58,6.13l36.6,24.45c3.81,2.55,7.37-3.6,3.58-6.13Z"/><path class="cls-4" d="M384.64,118.71c-4.84-6.83-7.31-15-12.17-21.77-4.12-5.76-10.26-9.47-16.92-11.69-4.39-1.47-9-1.72-13.51-2.51-4.07-.72-8.11-1.61-12.2-2.23s-8.39-1.31-12.41-1c-3.47.32-9,4.62-12.21,2.58L307,85.21v-3l-4.49,3.42.44.09-1-2.51a2.93,2.93,0,0,1-.3,1.72l1.63-2.12-.58.33,2.74-.36-.43-.08.91,3.45c1.39-8.23,7.71-14.53,7-23.27-.39-4.51-7.49-4.55-7.1,0C306.2,68.58,303,73,300.88,78c-1.4,3.28-3.54,8,.05,10.49,7,4.9,11.77-7.5,3.44-9.75a3.59,3.59,0,0,0-4.49,3.43c0,3.31,0,5.72,3.52,7,3.71,1.34,7,.09,10.47-1.23,8.77-3.36,19.15.47,28.09,1.91s18.57,2.82,24.38,10.63c5,6.69,7.34,15,12.17,21.77,2.62,3.7,8.78.16,6.13-3.58Z"/><path class="cls-4" d="M254.74,25.46c11.49,8.33,25,13.84,37.71,20.21q9.57,4.78,19.12,9.63c2.56,1.3,6.12,2.52,6.85,5.66.68,3-.65,6.83-1,9.78A2.72,2.72,0,0,0,320,73.53c5.57.36,11.23.69,16.77,1.39,5.86.74,10.41,3,15.72,5.31,8.87,3.84,20.92,4.64,25.17,14.75,1.33,3.19,6.08.64,4.74-2.53-4.4-10.37-15.59-12.63-25.13-16.12-5.77-2.1-10.39-5.48-16.66-6-6.81-.62-13.61-1.21-20.4-2.13l2.46,3.51c1.07-5.77,3.59-12.35-1-17.31-1.88-2-4.44-3.17-6.86-4.4q-6.07-3.08-12.19-6.09c-15.06-7.44-30.33-16.51-46.54-20.94a1.46,1.46,0,0,0-1.36,2.54Z"/><path class="cls-4" d="M381.85,96.3a48.76,48.76,0,0,1,11.08-8.67c3.54-2.18,7-4.63,9-8.39a13.23,13.23,0,0,0,1.63-5.15c.17-2.32-.81-4.65-.14-7,1.24-4.24,5.75-7.56,7.89-11.4s2.2-8.44,3.71-12.44,3.6-7.28,4.36-11.41c.57-3.07.9-5.33,2.75-7.85a71.14,71.14,0,0,0,4.12-5.88c2.17-3.67,3.4-6.9,2.73-11.21a1.47,1.47,0,0,0-2.37-.86c-3.23,3.21-4.79,7.14-7.3,10.86-2.36,3.5-5.07,6.2-6,10.43-.63,2.84-.82,5.2-2,7.86-.78,1.69-1.67,3.32-2.34,5.07-1.83,4.73-.71,9.81-2.49,14.46-1.7,4.44-6,6.71-8.35,10.61-2.48,4.12.78,8.39-2.15,12.49-4.79,6.69-15.32,7.75-17,17-.24,1.4,1.85,2.54,2.84,1.45Z"/><path class="cls-4" d="M427,7.79c-2.3,2.58-1.7,6.6-1.44,9.82a61.46,61.46,0,0,1,.18,11.1,1.18,1.18,0,0,0,1.63,1.18c3-1.41,3.4-4.95,3.15-8s-.61-6-.8-9.06c-.11-2-.21-3.47-1.4-5.08a.85.85,0,0,0-1.32,0Z"/><path class="cls-4" d="M176.48,176.1c-2.1-12.22-10.14-23.86-19.31-31.92-11-9.73-26.45-13.9-36.13-25.29-4.75-5.59-3-13.65-7-19.88A56.05,56.05,0,0,0,101,85.46a70.55,70.55,0,0,0-17.28-9.63c-5.21-2-12.47-4.75-18.08-3.19-1.19.33-1.94,2.13-.64,2.89C70,78.45,76.55,79,82,81.12A67.77,67.77,0,0,1,99.22,91.2c5.16,4.1,11.18,9.41,12.69,16.11.7,3.11.33,6.18,1.43,9.21a20.44,20.44,0,0,0,4.24,6.65c9.09,10,21.89,14.45,32.68,22.11,11.44,8.12,17.53,19.35,22.38,32.15.85,2.23,4.21.87,3.84-1.33Z"/><path class="cls-4" d="M67.12,76.63c11,7.15,22.69,13,30.72,23.89,7.08,9.58,6.93,22.65,14.83,31.63,3.53,4,8.14,6.87,12.47,9.94a117.71,117.71,0,0,1,14.29,11.69A67.45,67.45,0,0,1,150.82,168c1.49,2.55,2.7,4.91,2.84,7.92a56.7,56.7,0,0,0,1.1,7c.18,1.09,1.93,1.4,2.27.24.78-2.69,1.72-4,1.62-7a18,18,0,0,0-1.19-6.29c-2.16-5.43-6.1-10.58-9.91-14.94a100.17,100.17,0,0,0-13.26-12.37c-5.25-4.17-11.32-7.52-16.2-12.12-5.58-5.25-7-12.32-9.48-19.26a50.91,50.91,0,0,0-8.37-14.94c-8-10-19.87-17.61-31.72-22.26a1.51,1.51,0,0,0-1.4,2.64Z"/><path class="cls-4" d="M165.81,175.39c1.19,0,1.44-1.86.23-1.86s-1.44,1.86-.23,1.86Z"/><path class="cls-4" d="M141.06,144.72c8.62,7.74,17.71,17.84,19.74,29.54a.39.39,0,0,0,.76,0c.43-5.91-3.12-11.06-6.47-15.63-3.9-5.32-7.94-11-13.41-14.78-.59-.4-1.12.44-.62.89Z"/><path class="cls-4" d="M244.89,182.27a59.5,59.5,0,0,0,6-.58,36.51,36.51,0,0,1,9.61.75,21.62,21.62,0,0,1,8.4,2.64c1.95,1.18,3.51,2.5,5.71,3.16.4.12.77-.43.37-.68-4.16-2.65-7.6-5.28-12.55-6.07a48.82,48.82,0,0,0-17.51.2c-.3.06-.33.58,0,.58Z"/><path class="cls-4" d="M295.06,198.3A12,12,0,0,0,303.6,200c3.06-.36,6.85-1,9.11-3.23.22-.22,0-.65-.3-.5a27.44,27.44,0,0,1-17.15,1.47.29.29,0,0,0-.2.52Z"/><path class="cls-4" d="M119.15,129.69a31.56,31.56,0,0,0,7.2,5.47c2.54,1.54,5.37,3.25,8.28,3.89.33.08.51-.42.24-.6-2.48-1.62-5.32-2.68-7.88-4.21s-4.87-3.46-7.44-5c-.26-.15-.64.14-.4.41Z"/><path class="cls-4" d="M388.89,161.3c2.38-3.13,4.08-7.47,2-11.21-2.32-4.2-7.15-5.38-11.34-6.94-10.92-4.07-22.17-7.25-33.88-7.15-1.19,0-4.24.27-4.91-.65-.27-.37-.05-1.76-.09-2.19a22.8,22.8,0,0,0-1.78-7,23.4,23.4,0,0,0-8.6-10.09,55.35,55.35,0,0,0-14.17-6.56,60.4,60.4,0,0,0-7.5-1.86c-2.11-.39-6.33-.24-8-1.59-3.24-2.67-7.94,1.87-4.69,4.66s6.84,2.72,10.86,3.44a56.76,56.76,0,0,1,14.65,4.72c4.5,2.16,8.8,4.86,11,9.53,1.69,3.63.42,8.46,3.06,11.55,2.27,2.65,6.17,3.24,9.45,3.34a72.53,72.53,0,0,1,16.19,1.87c5,1.29,9.92,3,14.85,4.58,2.23.72,4.51,1.34,6.71,2.14,3.85,1.39,3,3.09,1.47,6.52a2.77,2.77,0,0,0,4.7,2.92Z"/><path class="cls-4" d="M297,109.81c15.69,4.5,32.49,7.82,47.34,14.79,3.31,1.55,4.64,4.52,7.58,6.42,3.16,2,6.94.75,10.35,2.23a93.68,93.68,0,0,0,20.83,6.45c1.44.27,3.35-.3,3.67-2,.55-2.84,1.93-6.51,1.25-9.46a11.87,11.87,0,0,0-1.42-2.74,28.17,28.17,0,0,1-2.26-6.86c-.56-2.33-4.48-2.8-5-.18a11.72,11.72,0,0,0,1,7.77c.49,1.08,1.71,2.29,1.9,3.42.31,1.77-.73,4.57-1.07,6.37l3.67-2c-4-.74-8-1.53-11.89-2.53s-7.35-3.47-11.22-4.45c-3.33-.84-5.9,1-8.57-1.83a20.53,20.53,0,0,0-7.25-5.37,198.54,198.54,0,0,0-48.09-13.69c-2.09-.3-2.79,3.06-.76,3.64Z"/><path class="cls-4" d="M289.05,47.89c-10.23,9.38-24.9,5.1-37.34,7.47-5.3,1-12.93,5.86-18.21,3.79-5.59-2.18-7.27-11.38-9.26-16.44-4-10.26-11.67-16.76-21.91-20.6-5.9-2.21-12.47-2.21-18.67-2.78-6.87-.62-13.72-1.32-20.58-2-3.61-.36-3.72,5.23-.14,5.62,7.49.82,15,1.64,22.47,2.52,7.11.83,13.79,1.39,20.2,4.81,6.77,3.61,10.84,8.69,13.55,15.8,2,5.16,3.57,10.78,7.23,15.06,3.21,3.76,7.4,4.58,12.14,3.78,6.78-1.15,12.77-4.38,19.72-5,11.59-1.08,24.64,0,33.54-8.91,1.85-1.87-.76-4.9-2.74-3.09Z"/><path class="cls-4" d="M162.44,23c2.6,1.37,5.87,2.05,8.68,3.06,3.83,1.36,7.85,2.21,11.71,3.49s7.8,2.78,11.61,4.39,9.87,3.19,12.25,6.68c1.82,2.66,2.32,7,3.47,10.05q2.07,5.51,4.66,10.78c2.78,5.62,5.52,12.18,12.23,13.73s14.91-.71,21.65-1.5l2.68-.31c-.83-.61-.87-.51-.13.29a11.18,11.18,0,0,0,2.37,1.62c2.54,1,5.16-.1,7.48-1.13,8.12-3.59,16.07-3.46,24.76-3.41,3.79,0,7.29-1.66,10.9-2.66a99.45,99.45,0,0,1,12.07-2.51c4.25-.62,2.46-7.1-1.77-6.46A95,95,0,0,0,295,61.65c-3.6,1-6.83,2.39-10.61,2.33-7.15-.11-14.6.17-21.49,2.42-1.57.51-4,2.26-5.59,2.31s-.87-.2-2.23-.93c-2.17-1.15-3.87-1.07-6.35-.73-4.14.57-8.27,1.18-12.4,1.74s-8.67,1.56-11.8-1.9c-4.81-5.31-8.05-13.59-10.83-20.1-2.47-5.77-3.24-9.77-9.06-12.66a148.81,148.81,0,0,0-21.37-8.55c-3.61-1.14-7.27-2-10.91-3-2.78-.78-6.33-1.11-8.94-2.17-1.7-.69-2.51,1.79-1,2.59Z"/><path class="cls-4" d="M395.25,136.34l-.06.22a1,1,0,0,0,.07.52l.13.22a1,1,0,0,0,.41.31.73.73,0,0,0,.39.06.72.72,0,0,0,.38-.07,1.14,1.14,0,0,0,.53-.53,1,1,0,0,0,.06-.53l-.06-.22A.7.7,0,0,0,397,136a.75.75,0,0,0-.23-.27l-.21-.12a.69.69,0,0,0-.37-.06.52.52,0,0,0-.25,0,.69.69,0,0,0-.32.16l-.17.17a.9.9,0,0,0-.18.45Z"/><path class="cls-4" d="M282.38,60.81c3.92,0,7.57.82,11.37-.39,5.2-1.66,12.47-4.88,17.85-2.18.38.19.6-.36.34-.61-2.69-2.55-8.14-1.26-11.32-.7s-5.66,2.14-8.69,2.83-6.41-.14-9.58.25c-.45.06-.44.81,0,.8Z"/><path class="cls-4" d="M340.91,125.92c-.05,1.69,1.61,3.4,2.78,4.45s3.05,2.43,4.77,2.29a.37.37,0,0,0,.15-.65c-1.3-1-2.95-1.4-4.22-2.52s-1.83-2.7-3-3.76a.28.28,0,0,0-.45.19Z"/><path class="cls-4" d="M310.89,79.41c1.26.19,1.78-.32,2.9-.82,1.69-.75,3.34-.43,5.1-.85a21.47,21.47,0,0,1,2.42-.81c1.45-.18,2.53.8,3.85.92a1.77,1.77,0,0,0,1.7-.42c.3-.21.05-.65-.27-.61-1.71.2-2.93-1.17-4.55-1.21a8.15,8.15,0,0,0-2.73.7c-1.45.47-2.76.15-4.18.45s-2.59,1.75-4.27,1.85c-.48,0-.4.74,0,.8Z"/><path class="cls-4" d="M215.72,45.74c.46,3,2.21,6,3.61,8.75a50,50,0,0,0,5,8.09c.2.26.66,0,.5-.3-1.54-3-3.33-5.76-4.84-8.73-1.32-2.6-2.24-5.56-3.89-7.95a.19.19,0,0,0-.34.14Z"/><path class="cls-4" d="M259.74,65c3.95-.38,7.76-1.92,11.59-2.91a48.48,48.48,0,0,0,8.46-2.62.23.23,0,0,0-.12-.44,56.64,56.64,0,0,0-10.81,2.77c-3.07,1-6.32,1.41-9.23,2.8a.21.21,0,0,0,.11.4Z"/><path class="cls-4" d="M383.49,109.69c4.72,10.11,10.21,17.92,7.17,29.62a.38.38,0,0,0,.7.27c5.16-9.84-1-22.44-7.29-30.25a.35.35,0,0,0-.58.36Z"/><path class="cls-4" d="M390.23,144.74a15.52,15.52,0,0,1,4.68,4.83.28.28,0,0,0,.52-.22,8.46,8.46,0,0,0-4.92-5.11.29.29,0,0,0-.28.5Z"/><path class="cls-4" d="M406.55,163.84c1.19-2.22,1.71-4.68,3.3-6.68,2-2.5,4.31-3,7.32-3.07a.43.43,0,0,0,.2-.83c-2.48-1.22-5.7.35-7.52,2.11a13.11,13.11,0,0,0-3.79,8.34.26.26,0,0,0,.49.13Z"/><path class="cls-4" d="M430.12,160.42c-.21,4.44.47,11.88-3.2,15.18-.22.2-.08.66.26.58,2.35-.54,3.17-2.63,3.57-4.82.63-3.49,1.13-7.64-.27-11-.07-.16-.35-.15-.36,0Z"/><path class="cls-4" d="M367.51,87.85a61.38,61.38,0,0,0,4.93,4.6c1.62,1.56,3.05,3.31,4.69,4.85.19.17.43-.11.3-.3a40.84,40.84,0,0,0-5-5.45,21.88,21.88,0,0,0-4.72-4c-.16-.09-.32.14-.21.28Z"/><path class="cls-4" d="M160.82,179.53c.47,3.37,6.58,6,9.32,3.93a.37.37,0,0,0-.19-.65c-1.66-.06-3,.34-4.71-.28-1.82-.68-2.63-2-4-3.27-.19-.19-.49,0-.46.27Z"/><path class="cls-4" d="M261.29,130.3c2,5.6.31,12.52,4.08,17.45.25.34.75,0,.6-.37-2.18-5.68-1.55-11.88-3.78-17.51-.23-.6-1.11-.17-.9.43Z"/><path class="cls-4" d="M107.55,113.3C99,109.78,88,111,82.11,118.64c-4,5.23-6,10.78-11.81,14.52-4.91,3.14-10.38,5.23-15.24,8.48-9.36,6.28-16.77,15-23.65,23.8-3.22,4.14-7.18,8.15-7.55,13.64-.25,3.63.26,7.42.43,11,.17,3.44.06,7,.88,10.31a1.48,1.48,0,0,0,2.92-.14c.86-6-.33-12.53-.46-18.62-.14-6.37,4.21-10.67,8-15.39,6.87-8.67,14.36-17.2,23.91-23,7.67-4.63,16.16-7.31,21.17-15.25,2.77-4.39,4.76-9.34,9.81-11.62,5.29-2.39,11-.91,16.43-.38a1.44,1.44,0,0,0,.64-2.76Z"/><path class="cls-4" d="M27.05,201c.7-3.25,1.62-6.39,2.24-9.66.65-3.46,1-7,3.17-9.91,3.11-4.27,7.93-7.54,12-10.81L59,159c2.29-1.84,4.51-3.83,6.9-5.54C69.25,151,72,150.82,76,150.28c3-.41,7-.55,8.29-3.83,1-2.54,1-4.27,3.65-5.88a21.7,21.7,0,0,1,8-2.79c10.68-1.47,19.14,9.29,29.28,2.56,1.41-.93.13-3.1-1.34-2.82a19.88,19.88,0,0,1-11.58-.84,40,40,0,0,0-8.53-3,26.66,26.66,0,0,0-13.14,1c-3.27,1.12-8.16,3.3-9.71,6.7-.3.66-.21,1.62-.49,2.19-1,2-2.43,2.11-4.37,2.55-3,.69-6.29.44-9.15,1.7-5,2.19-9.47,7.18-13.69,10.58-5.12,4.14-10.32,8.2-15.33,12.47-3.62,3.09-7.85,6.42-9.89,10.86-2.67,5.79-2.33,12.79-3,19a1,1,0,0,0,2,.22Z"/><path class="cls-4" d="M205.71,36.62c-4-1.87-9.1-.5-13.38-.13-5,.44-10.1,1.07-15.16,1.13a36.64,36.64,0,0,1-14.12-2.19c-4.84-1.93-7.77-5.63-11.53-9-6.36-5.67-15.31-6.27-23.36-7.7-9-1.58-17.8-2.6-25.4,3.53-1.14.92-.15,2.4,1.08,2.35,4.68-.21,9.15-1.83,13.87-1.73,5.05.11,10.13,1.34,15.08,2.29,4.49.85,9.64,1.4,13.46,4.11,3.56,2.52,6,6.27,9.67,8.72,7,4.7,15.76,5.6,24,5.21,4.67-.23,9.31-.84,13.94-1.37,4.16-.48,8.83-.25,12.28-2.83a1.42,1.42,0,0,0-.4-2.4Z"/><path class="cls-4" d="M97.64,95.77C92.89,90.16,81.4,91,74.77,91.37c-7.93.49-12.21,5.25-16.72,11.26-3.92,5.22-8,8-14.71,5.89-4.51-1.4-8.65-4-12.83-6.17-7-3.58-13.92-6.89-21.92-5.46a1.13,1.13,0,0,0,.06,2.22c8.78,1.79,16.57,5.63,24.49,9.66,6.09,3.09,13.45,7.54,20.37,4.5,7.27-3.19,9.08-12.64,16.23-15.61,4-1.63,8.92-1.18,13.11-1,4.53.22,8.84,2.08,13.26,2.15a1.87,1.87,0,0,0,1.53-3.06Z"/><path class="cls-4" d="M27.32,106.15c-6.12,1.38-8.22,11-7.21,16.29,1.36,7.08,9.18,10.54,15.65,7.76,7.16-3.08,7.73-10.64,4.8-16.95-1.59-3.44-3.05-7-7-8-4.35-1.17-9.42.16-13.16,2.4-1.09.66-1,2.6.47,2.68,4.47.21,11.25-1.72,14.52,1.94,3.56,4,5.22,10.2.31,13.73-5.13,3.7-11.69.67-12.77-5.32-.87-4.81.71-10.52,4.88-13.31a.66.66,0,0,0-.49-1.17Z"/><path class="cls-4" d="M37.07,108.42c-2.49-4.25-3.43-9.76.23-13.63,4.43-4.68,12.56.77,13,6.21s-4,7.69-8.86,6.57c-3-.69-5.65-2.63-8.44-3.86a1.11,1.11,0,0,0-1.49,1.21c1.34,6.4,9.2,8.86,15,7.6,7.53-1.64,10.07-9,7-15.73-2.46-5.35-11.34-9.8-16.55-6-6.19,4.52-6,13.07-1.68,18.72.71.92,2.4,0,1.78-1.09Z"/><path class="cls-4" d="M42,111.58c-6.35.68-6.37,8.78-4.78,13.27,2.38,6.71,7.73,11.07,15,8.4,6.3-2.3,10.33-8.79,8.58-15.47-.87-3.34-3.44-6-6.26-7.92a5.11,5.11,0,0,0-3.74-1.12c-1.63.26-2.31,1.55-3.67,2.25a1.35,1.35,0,0,0,.08,2.46c3,1.29,6.2,1.67,7.57,5.31,1.27,3.4-.94,6.74-3.81,8.4-3.94,2.28-7.08,1.31-9.26-2.59-2.3-4.11-2.62-8,1-11.37a.92.92,0,0,0-.71-1.62Z"/><path class="cls-4" d="M25.77,103.83c-.92-2.36-2.62-4.18-3.64-6.41-1.64-3.59-.37-6.39,2-9.18,2-2.37,5.29-3.75,8.2-1.88s2.34,5.22,2.13,8.19a1.19,1.19,0,0,0,1.91,1c7.05-6.6-3.67-16.69-11.26-13.13-3.83,1.79-7.11,6.73-7.93,10.82-1,4.82,3.87,9.14,7.59,11.31a.64.64,0,0,0,1-.75Z"/><path class="cls-4" d="M54.91,100c-.85-2.92-2.12-5.82-2.08-8.91.05-3.33,2.63-8.76,6.84-6.33,2.76,1.6,3.21,5.83,2.59,8.63-.56,2.53-2.37,4.46-2.83,7A1.33,1.33,0,0,0,61,101.8c5-.8,6.44-7.65,6.06-11.88-.41-4.57-3.36-9.58-8.34-10.07s-9,3.7-9.92,8.36c-.82,4.3.13,11.11,4.62,13,.73.31,1.77-.39,1.52-1.23Z"/><path class="cls-4" d="M56.94,107.54c2.42.22,4.36-2.05,6.79-2.44,3.43-.54,6.73.9,6.8,4.68a5.48,5.48,0,0,1-5.22,5.9c-3.11.19-5.22-1.12-7.34-3.24a1.29,1.29,0,0,0-2,.06c-1.53,1.63-1.22,4.42.23,6,1.82,2.06,5,2.71,7.57,2.88,6.16.42,11.19-3.13,11.9-9.45.57-5.08-2.16-10-7.32-11.19-3.75-.85-12.71.65-12.37,5.84a1.08,1.08,0,0,0,1,.91Z"/><path class="cls-4" d="M428.87,51.08a86.31,86.31,0,0,1,7.31-12.5c2.81-3.95,6.59-7.21,9.22-11.28A.9.9,0,0,0,444.33,26C434.32,29,428,41,426.25,50.47c-.31,1.6,2,1.89,2.62.61Z"/><path class="cls-4" d="M449.64,29.56l.9-.86a1.37,1.37,0,0,0,.18-1.9c-5.21-5.15-13.25,2.37-14.3,7.72C435.21,40.74,439.94,50,447,49.82s10-8,9-14c-.92-5.83-6.93-13.61-12.84-8.27a1.49,1.49,0,0,0,.43,2.52c2.45.72,5.41,2.39,6.65,4.6,1.83,3.28,2,9.29-3,9.61-3.63.23-6.31-6.37-5.65-9.3a6.78,6.78,0,0,1,3.6-4.58c1.67-.83,3.44-.61,5.05-1.49l-1.91-1.36-.09,1.25c0,.68.82,1.34,1.4.78Z"/><path class="cls-4" d="M436.19,38.92c-6.33-1-10.27,7.4-10.41,12.6-.16,6.14,3.48,13.61,10.5,13.41s11-7.51,10-14c-.76-4.53-6.33-15.17-12.07-10a1.39,1.39,0,0,0,.08,2.16,20.67,20.67,0,0,1,6.15,7.3c1.77,3.79-.18,10.22-5.38,9.47-4.43-.63-5.36-6.63-5-10.12a10.63,10.63,0,0,1,6.47-9.18.9.9,0,0,0-.26-1.7Z"/><path class="cls-4" d="M383.18,35.16c7.6-7.37-.26-17.43-8.6-19.89-9.11-2.69-19,3.07-19.64,12.93-.58,9.28,8.1,19.36,17.64,16.19C377,42.93,382,40.21,383.7,35.6c1.29-3.39,1-8.09-2.82-9.45a1.07,1.07,0,0,0-1.44.87c0,2.51.41,4.73-.94,7-1.56,2.62-5.12,4.68-8.08,5.35-5.8,1.33-11.32-6.77-10-12.18,3.26-13,25.05-4.81,21.31,6.91-.25.78.7,1.75,1.42,1.06Z"/><path class="cls-4" d="M133.49,22.77c-7.6-1.32-16.57,2.95-16.21,11.74a8.94,8.94,0,0,0,6,8.1c4.46,1.63,9,0,12.74-2.59,3.43-2.39,5.42-5,4.89-9.28s-2.19-9.22-6.82-10.35c-2.53-.62-9.4.66-7.9,4.66.51,1.34,2,1.67,3.3,1.64,1,0,2.15-.61,3.18-.5,2.12.22,3.05,2.56,3.35,4.4.63,3.89-2.69,6.09-6,7.35-2.93,1.1-7.07,1-8.25-2.5-2.36-7,6.84-9.88,11.83-10.86a.92.92,0,0,0,0-1.81Z"/><path class="cls-4" d="M129.85,21.06c1.42-2.65,1.84-5.95,4.26-8,2.16-1.86,6.72-2.3,9.16-1.07a4.85,4.85,0,0,1,.94,8.14c-2,1.65-6.11,1.21-8.6,1.31a1.2,1.2,0,0,0-.89,1.67c2.38,5.12,8.78,4.72,12.62,1.19a10.34,10.34,0,0,0,1.58-13.44c-3.2-4.41-9.18-4.88-14-3.09-5.8,2.15-6.63,7.71-5.92,13.2a.45.45,0,0,0,.85.12Z"/><path class="cls-4" d="M231,56.05c-1.15-8-.55-16.42-.22-24.53a85.49,85.49,0,0,1,.93-11.64c.77-4.33,2.92-7.64,4.71-11.57.36-.8-.76-1.72-1.42-1.06a39.67,39.67,0,0,0-6.83,9.37c-2,3.89-2,8.56-2.29,12.84-.61,9.5-.07,18.19,3.6,27a.8.8,0,0,0,1.52-.43Z"/><path class="cls-4" d="M238.17,16.22c-1.08-3.22-4.28-2.93-6.84-1.52A9.63,9.63,0,0,0,226.07,23c-.23,6.73,3.46,18.09,12,17s10.45-12.23,8.14-19c-1.09-3.22-3.37-7.25-6.7-8.57-2.77-1.1-5.73,0-6.09,3.13a1.58,1.58,0,0,0,1.41,1.67c3.75.53,6.2,3.31,7,7,.66,3.23.15,10.22-4.49,10.06-3-.1-4-3.94-4.82-6.29a15.37,15.37,0,0,1-1-4.53c-.09-2.15,1.87-8.22,5.63-6.15.71.39,1.3-.51,1.09-1.12Z"/><path class="cls-4" d="M48.08,93.61C46.77,89.49,44.37,86,42.8,82a35.15,35.15,0,0,1-2.46-13.37,34.59,34.59,0,0,1,2.89-12.7c1.39-3.35,3.39-6.38,4.21-9.94.21-.93-1.24-1.47-1.73-.69-2.47,4-5.78,7.58-7.71,11.86A30.17,30.17,0,0,0,35.74,71c.48,8.22,3.93,18.94,11.16,23.53a.78.78,0,0,0,1.18-.92Z"/><path class="cls-4" d="M44.48,48C46,55.54,48,62.42,48.26,70.23S46.82,85,45.14,92.53A2,2,0,0,0,49,93.85C54.9,80.42,54,59.74,45.44,47.58a.54.54,0,0,0-1,.4Z"/><path class="cls-4" d="M71.88,151.13l-.12-.23a1.14,1.14,0,0,0-1.46-.56c-4.81,1.66-6.49,11.83-7.37,15.93-1.38,6.43-1.38,12.9,1.42,19a1,1,0,0,0,1.88-.29c.41-5.66.25-11.38.9-17a41.39,41.39,0,0,1,2-8.58c.06-.2,2.67-7,2.08-6.94a.93.93,0,0,0,.7-1.28Z"/><path class="cls-4" d="M62.35,168.49c-1.82,7.8,2.83,18,8.06,23.65s13.87,9.5,21.59,8.54a1.28,1.28,0,0,0,.53-2.27c-5.52-4-12.77-4.49-17.89-9.16C68.94,184,64,176.48,64.12,168.7a.89.89,0,0,0-1.77-.21Z"/><path class="cls-4" d="M92,199.56c5.06-7.69.49-18.49-4.16-25.37-5.11-7.55-12.63-14.91-22.28-11.52-1.17.41-.77,2.22.38,2.32,8.52.72,14.89,7.57,18.91,14.56,3.67,6.39,4.23,13,6.23,19.89a.54.54,0,0,0,.92.12Z"/><path class="cls-4" d="M278.39,126.21c4.29-11.32-2.1-26.52-12.81-31.76-1-.5-1.7.83-1.18,1.6,2.91,4.31,6.1,8.78,8.17,13.56,2.25,5.2,2.86,10.88,3.89,16.39a1,1,0,0,0,1.93.21Z"/><path class="cls-4" d="M275.79,107c1.1-5-2-10.08-1-15.36a12.91,12.91,0,0,1,4.52-7.84c1.74-1.48,3.25-2.46,4.35-4.52.4-.74-.41-1.36-1.06-1.34-12.71.53-16.75,22.35-8.7,29.9.74.69,1.72-.08,1.89-.84Z"/><path class="cls-4" d="M281.72,78.74c1,5.17,1.45,10.47-.15,15.59-1.24,4-5.16,7.24-5.61,11.26a1.32,1.32,0,0,0,1.53,1.42c5.09-.68,7.57-8.33,8.46-12.67,1.18-5.73.56-11.38-2.57-16.33-.51-.8-1.84-.15-1.66.73Z"/><path class="cls-4" d="M268.94,98.5c-1.84-2.79-4.21-3.5-7.59-3.48-2.76,0-5.87.64-7.44,3.16-3.16,5.06,1.2,11.63,5.76,14,4.93,2.52,11.56,1.32,14-4,2-4.2.9-11.4-5.12-10.71a1.11,1.11,0,0,0-.23,2.11c4.61,1.44,4.07,6.67.31,8.7a8,8,0,0,1-8.35-.61c-2.74-1.94-5.48-6.9-.88-8.63,2.41-.9,6.08,0,8.35,1,1,.45,1.67-.79,1.16-1.56Z"/><path class="cls-4" d="M101.87,135.67c-.37,5.94-1.88,9.71-5.13,14.66-2.11,3.21-4,6.55-4.48,10.41-.15,1.06,1.25,1.26,1.71.43,3.79-6.95,16-17.1,10.62-26-.68-1.12-2.63-1.06-2.72.48Z"/><path class="cls-4" d="M82,134.6a51.66,51.66,0,0,1,22.69-12.66c.2,0,.16-.37,0-.32a48.46,48.46,0,0,0-22.88,12.67c-.17.17.06.48.24.31Z"/><path class="cls-4" d="M72.75,144.81l.26-.26c.12-.12-.06-.3-.17-.18a3.19,3.19,0,0,0-.26.26c-.1.1.07.27.17.18Z"/><path class="cls-4" d="M73.73,144.61c1.2-.44,5.44-4.79,5.81-4.24a.74.74,0,0,0,1.25.07c2.61-4.09,7.3-6.43,11.74-8.09,3.07-1.15,5.38-.92,8.47-.75,2,.1,4.88-.73,6.45.62.26.21.67-.12.51-.41-1.45-2.77-4.26-1.46-6.88-1.6-5.56-.28-9,.58-14.14,3.17a18.19,18.19,0,0,0-5.59,3.77c-1.72,2-.57,1-1.82,1.42-.58.17-1.22-.18-2,.2-2.2,1.18-1.45,4.44-3.94,5.61a.12.12,0,0,0,.09.23Z"/><path class="cls-4" d="M98.22,116.11a13.55,13.55,0,0,0-8,1.83c-1.82,1-5.14,3.3-5.29,5.67-.13,2,1.8,2.23,3.27,1.75,2.36-.77,5-2.38,5.95-4.73.13-.31-.31-.68-.56-.41a17.24,17.24,0,0,1-4.26,3.23c-.86.46-3.23,2.11-2.83-.79.09-.61,1.52-1.9,1.82-2.19,2.76-2.71,6.19-3.73,10-4,.21,0,.21-.35,0-.37Z"/><path class="cls-4" d="M70.76,139.87a110.84,110.84,0,0,0-36.26,31.2.22.22,0,0,0,.34.27A165.29,165.29,0,0,1,71,140.22c.19-.12,0-.45-.21-.35Z"/><path class="cls-4" d="M102.79,96.55a33.08,33.08,0,0,1,7.81,17.7.27.27,0,0,0,.53,0,22.33,22.33,0,0,0-8.06-18,.2.2,0,0,0-.28.28Z"/><path class="cls-4" d="M110.13,55.8a14.73,14.73,0,0,0,19,6.22.29.29,0,0,0-.16-.55c-7,.8-14.18.74-18.32-6-.17-.27-.63,0-.48.29Z"/><path class="cls-4" d="M157.63,61.06a177.38,177.38,0,0,1,19.29,4.61c.22.06.37-.25.14-.33a88,88,0,0,0-19.4-4.53.13.13,0,0,0,0,.25Z"/><path class="cls-4" d="M188.82,69.1c7.82,7.53,12.73,15.81,16.4,26a.32.32,0,0,0,.6-.17c-1.95-10.21-8.45-20-16.69-26.2-.27-.2-.55.19-.31.41Z"/><path class="cls-4" d="M190.62,114.67c2.62,4.4,7.06,10.52,12.29,11.93a.27.27,0,0,0,.26-.46c-2.23-1.93-4.72-3.4-6.81-5.53-1.93-2-3.57-4.15-5.34-6.25a.25.25,0,0,0-.4.31Z"/><path class="cls-4" d="M223.58,160.51c1.69,6.39-1.25,14.76,3.84,20a.24.24,0,0,0,.38-.29c-4-6.09-.73-13.52-3.82-19.77-.09-.21-.46-.14-.4.11Z"/><path class="cls-4" d="M235.14,183.47c1.5.1,2.42,1.1,3.77,1.45,1.79.47,3.69-.33,5.52-.14,2.71.29,5,1.76,7.75,1.09a.27.27,0,0,0-.08-.54c-3.11.25-5.57-1.71-8.57-2-1.87-.17-3.58.27-5.49,0a13.08,13.08,0,0,0-2.91-.3.24.24,0,0,0,0,.47Z"/><path class="cls-4" d="M285.46,179.63a23.36,23.36,0,0,0,7.86,6.79c1.55.81,5.22,1.76,5.83-.85.44-1.85-2.68-3.64-3.95-4.19-1.61-.71-4.15-.51-3.55,1.85.09.36.67.5.8.08.31-1.06,4.48-.53,4.73.72l-2,2-.74-.29a8.39,8.39,0,0,1-2.35-1.35,26.53,26.53,0,0,1-6.15-5.11.3.3,0,0,0-.47.37Z"/><path class="cls-4" d="M331.81,78.2A35.1,35.1,0,0,0,344,79.82c.35,0,.32-.56,0-.6-4-.57-8-1.08-12-1.8a.41.41,0,0,0-.19.78Z"/><path class="cls-4" d="M333.08,65.39a11.91,11.91,0,0,1,1.18-8.52l-.53.09a12.85,12.85,0,0,1,2.48,2.57l.57,1-1.55,1.09s.21-1.5.22-1.6a.35.35,0,0,0-.7-.07c-.12,1-.75,2.47.13,3.36a1.71,1.71,0,0,0,2.33-.09c2.47-2.11-1.45-5.63-3-6.85a.39.39,0,0,0-.58.17,12.61,12.61,0,0,0-1.28,9c.11.48.86.36.76-.12Z"/><path class="cls-4" d="M339.93,48.47c1.89,6.44,5.06,13.16,4,20a.29.29,0,0,0,.56.14c2.38-7.09-1.14-14-4-20.34-.15-.34-.61-.12-.51.22Z"/><path class="cls-4" d="M407.33,71.49c.48-1.9.38-3.79,1.15-5.65.86-2.07,2.31-3.49,3.74-5.15.21-.24-.11-.62-.39-.48-3.41,1.68-6.52,7.62-4.92,11.34a.22.22,0,0,0,.42-.06Z"/><path class="cls-4" d="M417.21,39.68c-.7,4-1.91,7.79-2.85,11.71-.06.24.31.33.4.11a53.89,53.89,0,0,0,2.79-11.78.17.17,0,0,0-.34,0Z"/><path class="cls-4" d="M415.1,128.24a47.35,47.35,0,0,1,3.8,18.52c0,.39.59.33.65,0a28,28,0,0,0-3.51-19,.52.52,0,0,0-.94.45Z"/><path class="cls-4" d="M201.85,31.12a26,26,0,0,1,5.38,3.05,21,21,0,0,1,3.92,4.73c.16.24.52,0,.43-.26-1.4-3.73-5.57-7.48-9.62-7.94a.22.22,0,0,0-.11.42Z"/><path class="cls-4" d="M243.9,65.82a19.52,19.52,0,0,0,12.38-3.74c.22-.17,0-.56-.25-.43a38.11,38.11,0,0,1-12.13,3.8c-.21,0-.22.36,0,.37Z"/><path class="cls-4" d="M292.19,55.39a9.57,9.57,0,0,1,4.15-3.29c.8-.34,2.56-1.08,2.48.55a2.38,2.38,0,0,1-2.67,2.25.42.42,0,0,0-.29.76c2.44,1.75,5.58-2.79,3.67-4.65-1-1-2.92,0-4,.45-1.82.78-3.2,1.7-3.85,3.65-.09.29.3.56.49.28Z"/><path class="cls-4" d="M136.87,61.85a12.82,12.82,0,0,0,5,1.32c2,0,4-.6,6.06-.64.29,0,.35-.5.07-.57a11.62,11.62,0,0,0-4.24-.16,15.44,15.44,0,0,1-6.65-.63.37.37,0,0,0-.27.68Z"/><path class="cls-4" d="M219,153.5a23.14,23.14,0,0,1,2,5.27,8,8,0,0,1,.17,1.09,2.72,2.72,0,0,1,0,1.17l-1.1-.23c-.58-.52-.77-1.93-1-2.65-.08-.26-.48-.1-.39.16.36,1,.5,3.14,1.63,3.71a1.1,1.1,0,0,0,1.56-.53c.58-1.12,0-2.81-.33-3.91a12.2,12.2,0,0,0-2.11-4.29c-.15-.18-.47,0-.37.21Z"/><path class="cls-4" d="M217.37,174.68c-.25,1.21-.69,2.69-1.88,3.31a2.27,2.27,0,0,1-2.79-.77c-.11-.18-.45,0-.39.17a2.05,2.05,0,0,0,2.87,1.26c1.67-.59,2.27-2.32,2.54-3.93,0-.22-.31-.27-.35,0Z"/><path class="cls-4" d="M215.7,180.43c-.5.73-.12,1.56.16,2.31a13,13,0,0,0,1.52,3.21c1.08,1.47,2.61,2.38,4.43,1.8.29-.1.18-.52-.08-.56-2-.28-3.24-2.05-3.93-3.81-.38-1-.63-2.89-2-3a.15.15,0,0,0-.15.06Z"/></g></g></g><g id="PixelsASSETS"><g id="Cuerno"><rect class="cls-7" width="464" height="265"/></g></g></g></g></svg>