<svg xmlns="http://www.w3.org/2000/svg" viewBox="0 0 464 265"><defs><style>.cls-1{isolation:isolate;}.cls-2{fill:#42210a;}.cls-3,.cls-4,.cls-7,.cls-8,.cls-9{fill:#8cc63f;stroke:#006837;}.cls-3,.cls-4,.cls-5,.cls-7,.cls-8,.cls-9{stroke-linecap:round;stroke-linejoin:round;}.cls-3{stroke-width:5.47px;}.cls-4{stroke-width:1.16px;}.cls-5{fill:#a67c52;stroke:#42210b;stroke-width:6.97px;}.cls-6{fill:#c7b299;}.cls-7{stroke-width:7.75px;}.cls-8{stroke-width:1.64px;}.cls-9{stroke-width:1.4px;}.cls-10{fill:none;mix-blend-mode:multiply;opacity:0.4;}</style></defs><g class="cls-1"><g id="Layer_2" data-name="Layer 2"><g id="Variación_A" data-name="Variación A"><g id="AssetsE4"><g id="HornE4"><path class="cls-2" d="M209.46,151.89s-15.56,1.73-21.72,1.75,21,11.54,21,11.54Z"/><path class="cls-3" d="M193.45,153.88s-17.43,19-35.66,13.73-23.28-19.94-23.28-19.94,22.33-18.2,38.39-10.95S193.45,153.88,193.45,153.88Z"/><path class="cls-4" d="M191.84,155.48s-21.63-1-31-2.36-10.92-1.87-10.92-1.87"/><path class="cls-5" d="M440.65,163.54S376.79,16.59,311.93,10.76,184.78,32.41,183.07,93.18s26.46,93.87,26.46,93.87,17.07,17.47,16.21,3.43-11.94-82.31,3.42-104,58-13.32,73.39,0,57.95,98,57.95,98,10.62,6.15,31-2a71.72,71.72,0,0,1,30-6c20.22,0,28,13,28,13Z"/><path class="cls-5" d="M355.91,176.68s-86.19-122-168.82-143C87.5,8.5,20.34,54,18.1,110.84s34.69,87.83,34.69,87.83S75.18,215,74.06,201.88,56.35,131.75,76.5,111.5c29-29.11,74-27,98.28-6.89C193,119.72,283.5,255.5,283.5,255.5a85.15,85.15,0,0,1,15-30c7-9,10.16-18.24,33-29s29-12,29-12Z"/><path class="cls-2" d="M389.14,72.38S396,72,403,61l7-11s7.71,3.26,1.85,13.63-10.26,29.25-10.26,29.25Z"/><path class="cls-6" d="M86.68,68.54S88,65,100,61s2.82-8.68,22.41-7.34S135,50,147,57s22-2,48,22l26,24a158.21,158.21,0,0,1-23-15c-13-10-11-12-23-15s-14-6-22-6-13,6-18,4-8-9-12-9-10-1-19,0S80,74,80,74Z"/><path class="cls-6" d="M55,148s-5-16,5-35S90,83,90,83s-27,9-33,22-10,24-8,37,10,24,10,24Z"/><path class="cls-6" d="M323,168s-16-26-31-40-41.54-43.23-52.27-47.11-23.5-13-21.61-9.45,38.81,38.19,52.35,47.88,55.48,64.25,55.51,59A22.78,22.78,0,0,0,323,168Z"/><path class="cls-6" d="M285.25,172.5s-58.11-58.22-55.18-47.86,39.2,47.93,45.07,53.65,24.72,21,23.79,17.83S285.25,172.5,285.25,172.5Z"/><path class="cls-6" d="M264.46,43.64s14.59-6.36,40.56,0S366,98,372,112s17,35,7,22-34.75-47-37.37-51-18.9-34-34.77-33-54.81,8.33-53.34,3.17S264.46,43.64,264.46,43.64Z"/><path class="cls-6" d="M399.75,107.49s21.56,44.44,25.41,47.47,9.58,13.47,6.71,13.75-22.06-15-22.46-19.84-17.88-44.11-23.64-56A169,169,0,0,1,378,75Z"/><path class="cls-2" d="M215.23,98.12S204.9,83.6,201.12,77.64s7.28,23.83,7.28,23.83Z"/><path class="cls-2" d="M262.62,219.17s-14.24,6.51-20.09,8.46S266.1,232,266.1,232Z"/><path class="cls-3" d="M250,226.07s-10.63,23.47-29.58,24.19-28.35-11.68-28.35-11.68,15.53-24.26,33.05-22.39S250,226.07,250,226.07Z"/><path class="cls-4" d="M249,228.1s-20.87,5.8-30.18,7.43-11,1.64-11,1.64"/><path class="cls-3" d="M414,55.91s-25.53,3.49-36.23-12.17-5.2-30.22-5.2-30.22,28.81.23,36.55,16.07S414,55.91,414,55.91Z"/><path class="cls-4" d="M411.71,56.12s-16-14.58-22.35-21.6-7.22-8.4-7.22-8.4"/><path class="cls-4" d="M382,35a36.32,36.32,0,0,0,11.07,3.42"/><path class="cls-4" d="M390.26,25.28a72.45,72.45,0,0,1-.9,9.24"/><path class="cls-4" d="M400.87,46a38.63,38.63,0,0,1-12.69-1.3"/><path class="cls-4" d="M399.68,44.88a23.85,23.85,0,0,0,4.08-8.22"/><path class="cls-7" d="M59.35,145S61,110.19,86.52,103a57.94,57.94,0,0,1,45.29,6.26S124,146.72,98.9,150,59.35,145,59.35,145Z"/><path class="cls-8" d="M59.64,141.93S85,127.35,96.88,122.12,111,116.34,111,116.34"/><path class="cls-8" d="M98.1,112.34a40.33,40.33,0,0,0-7.87,13"/><path class="cls-8" d="M110.09,127.28a127.24,127.24,0,0,1-13.21-5.16"/><path class="cls-8" d="M77.16,132.16s1-9,5.2-16"/><path class="cls-8" d="M79.12,131.1S82.37,135.31,90,140"/><path class="cls-2" d="M49.16,167.35s5.73-16.87,8.35-23.43-15.06,19.86-15.06,19.86Z"/><path class="cls-3" d="M55.28,147.57s-25.29-5-30.34-23.24S29.8,94.06,29.8,94.06s27.18,9.54,29.38,27S55.28,147.57,55.28,147.57Z"/><path class="cls-4" d="M53.07,147s-10.44-19-14.17-27.66-4.11-10.29-4.11-10.29"/><path class="cls-4" d="M31.8,117.45a36,36,0,0,0,9.36,6.82"/><path class="cls-4" d="M42.75,110.91a72.91,72.91,0,0,1-3.85,8.46"/><path class="cls-4" d="M46.08,134a38.69,38.69,0,0,1-11.59-5.33"/><path class="cls-4" d="M45.32,132.51a23.92,23.92,0,0,0,6.52-6.46"/><path class="cls-3" d="M202.31,84.26s-21.57-7.79-27.81-20.2,2-42.45,2-42.45l1.76-5.32S194.1,20.54,206,31.39s8.54,39.94,5.09,46.11S202.31,84.26,202.31,84.26Z"/><path class="cls-9" d="M203.88,83.48s-8.56-24.76-11.23-35.88-2.8-13.11-2.8-13.11"/><path class="cls-9" d="M184.57,43.85a43.61,43.61,0,0,0,9.77,10"/><path class="cls-9" d="M199,38.3a88.52,88.52,0,0,1-6.31,9.3"/><path class="cls-9" d="M198.22,66.47a46.77,46.77,0,0,1-12.73-8.72"/><path class="cls-9" d="M197.61,64.58s4-1.46,9.1-6.37"/><path class="cls-3" d="M408.69,58.94S405.32,33.39,421,22.77s30.24-5.05,30.24-5.05S450.9,46.53,435,54.19,408.69,58.94,408.69,58.94Z"/><path class="cls-4" d="M408.49,56.67s14.66-15.94,21.71-22.25,8.44-7.17,8.44-7.17"/><path class="cls-4" d="M429.75,27.07a36.3,36.3,0,0,0-3.48,11.06"/><path class="cls-4" d="M439.44,35.37a71.62,71.62,0,0,1-9.24-.95"/><path class="cls-4" d="M418.64,45.88A38.92,38.92,0,0,1,420,33.19"/><path class="cls-4" d="M419.78,44.69a24,24,0,0,0,8.2,4.13"/></g></g></g><g id="PixelsASSETS"><g id="Cuerno"><rect class="cls-10" width="464" height="265"/></g></g></g></g></svg>