<svg xmlns="http://www.w3.org/2000/svg" viewBox="0 0 275 259.5"><defs><style>.cls-1{isolation:isolate;}.cls-2{fill:#22b573;}.cls-10,.cls-2,.cls-3,.cls-4,.cls-9{stroke:#006837;}.cls-10,.cls-2,.cls-3,.cls-4,.cls-5,.cls-7,.cls-8,.cls-9{stroke-linecap:round;stroke-linejoin:round;}.cls-2,.cls-4{stroke-width:4px;}.cls-10,.cls-3,.cls-9{fill:#39b54a;}.cls-3{stroke-width:5.31px;}.cls-11,.cls-4{fill:#8cc63f;}.cls-5{fill:#8c6239;}.cls-5,.cls-7,.cls-8{stroke:#42210b;}.cls-5,.cls-9{stroke-width:6.97px;}.cls-6{fill:#a67c52;}.cls-7,.cls-8{fill:#b8bfb8;}.cls-7{stroke-width:6.67px;}.cls-8{stroke-width:4.34px;}.cls-10{stroke-width:6.47px;}.cls-12{fill:#006837;}.cls-13{fill:none;mix-blend-mode:multiply;opacity:0.4;}</style></defs><g class="cls-1"><g id="Layer_2" data-name="Layer 2"><g id="Variación_A" data-name="Variación A"><g id="AssetsE4"><g id="LoinE4"><path class="cls-2" d="M249.14,139a110.74,110.74,0,0,0-8.3-23.72c-5.84-11.78-10.59-14.41-10.59-14.41s2.25,29.36,0,36.5L228,144.5s-9.1-21.76-15.05-25.38-20.17-15.73-20.17-15.73,17.3,63.61,17.76,67.86,34.73-18.33,38.6-23S249.14,139,249.14,139Z"/><path class="cls-2" d="M97.5,140.58S94,106.5,93,92.5s18,26.35,19,30.18S130,94.5,132,93.5s0,45.5,0,45.5,13.2-25.5,16.1-28.5,9.64-6.19,9.64-6.19L156.5,149.5Z"/><path class="cls-3" d="M191,153s4.51-16.11-.8-33.11a127.39,127.39,0,0,0-8.15-19s-3,30.48-4.92,40c-1.77,8.65-3.74,15.94-3.74,15.94"/><path class="cls-4" d="M146,138.5s3.34-14.5,8.17-20.75S160,110.5,160,110.5s2,20,3,26,3,8,3,8,4-17,7-21l3-4,2.66,28.71"/><path class="cls-5" d="M24.87,153.37S46,151.43,53.26,165.22s6.65,19.92,13.45,32.35,20.73,21.37,41.76,33.4,21.11,29.26,58,18,29.75-8.24,47-30,14.51-18,29-29,27-70.88,27-70.88-20,23.88-37,29.88-30.36,3.08-49,0-85.4-13.44-109-14-36,7.76-43.52,9.88A86.31,86.31,0,0,0,17.5,150Z"/><ellipse class="cls-6" cx="161.25" cy="171.25" rx="7.75" ry="4.75"/><ellipse class="cls-6" cx="108.25" cy="197.25" rx="3.75" ry="4.75"/><ellipse class="cls-6" cx="183.25" cy="199.25" rx="6.75" ry="4.75"/><ellipse class="cls-6" cx="230.25" cy="171.25" rx="6.75" ry="4.75"/><ellipse class="cls-7" cx="140.5" cy="149.5" rx="16" ry="10.5"/><ellipse class="cls-8" cx="119.5" cy="157" rx="9.5" ry="7.5"/><path class="cls-9" d="M74.5,151s-10-20-8-44a180.81,180.81,0,0,1,5-27.43S83.5,119,88.5,131c4.55,10.93,9,20,9,20"/><path class="cls-10" d="M206.52,157a135.89,135.89,0,0,0,6.27-48.35,269.6,269.6,0,0,0-3.92-30.15s-9.4,43.33-13.32,56.52c-3.57,12-7.05,22-7.05,22"/><path class="cls-11" d="M38.52,148.53a119.39,119.39,0,0,1-5-26.36c-.4-5.34-.36-11,2.42-15.62,1.19,11.08,9.26,20.15,17.77,27.36A49.08,49.08,0,0,1,53,120.78c.51-4.36,2.21-8.72,5.45-11.69a65.81,65.81,0,0,0,7.91,15.43,6.49,6.49,0,0,1,1.23,2.41c.15.79,1.2,3.79,1.39,4.57,1.52,6.18,3,11,6,20"/><path class="cls-12" d="M41.41,147.73a117,117,0,0,1-4.49-21.25c-.67-6-1.59-13,1.61-18.42l-5.59-1.51c1.4,12.22,9.6,21.78,18.64,29.48,2.4,2,5.46.05,5-2.92-1.1-7.34-2-16.3,4-21.9l-5-1.33a71.48,71.48,0,0,0,6,12.79c.62,1,1.26,2,1.94,3a8,8,0,0,1,1.18,2c.36,1.26.76,2.51,1.15,3.76.92,3,1.56,6,2.44,9,1.18,4,2.48,7.93,3.8,11.87a3.07,3.07,0,0,0,3.69,2.09,3,3,0,0,0,2.09-3.69c-1.31-3.94-2.61-7.88-3.79-11.86-.88-3-1.53-6-2.45-9-.39-1.26-.8-2.5-1.15-3.76-.58-2.15-2.08-3.87-3.25-5.73a63.34,63.34,0,0,1-5.89-12.11,3,3,0,0,0-5-1.32c-7.65,7.22-7,18.22-5.54,27.74l5-2.92c-7.63-6.5-15.69-14.83-16.89-25.24a3.12,3.12,0,0,0-2.2-2.9A3.08,3.08,0,0,0,33.35,105c-3.72,6.33-3.24,14-2.48,21a125.41,125.41,0,0,0,4.75,23.33c1.13,3.68,6.92,2.11,5.79-1.6Z"/><path class="cls-4" d="M131,169.5s-2-23-8-36a219.53,219.53,0,0,0-13-23.87s1-3.56,9.5,5.65S140,141.5,143,150.5a109.73,109.73,0,0,1,4,15s2-6.05,9.5-12,18.5-10,18.5-10-17.53,14-19.77,21a52.13,52.13,0,0,0-2.23,14"/><path class="cls-2" d="M82,166.5s2.34-34.76,9.17-47.38S109.5,98.5,109.5,98.5s-5.5,40.42-5,49.71,0,11.79,0,11.79,13.9-34,19.7-39.27a161.54,161.54,0,0,1,12.88-10.23s-17.31,39.58-19.69,46.29,1.62,6.71-1.89,9.71"/><path class="cls-2" d="M183.25,175s.63-9.51-2.81-23.51-8-22.48-8-22.48S190,142.5,196,152.5a70.39,70.39,0,0,1,8,20s7.66-15.36,12.83-20.18L222,147.5s-3.48,13-4.24,19a68.16,68.16,0,0,0,.24,14"/></g></g></g><g id="PixelsASSETS"><g id="Espalda"><rect class="cls-13" width="275" height="259.5"/></g></g></g></g></svg>