<svg xmlns="http://www.w3.org/2000/svg" viewBox="0 0 160 195"><defs><style>.cls-1{isolation:isolate;}.cls-2{fill:#b8bfb8;stroke:#42210b;stroke-linecap:round;stroke-linejoin:round;stroke-width:6.97px;}.cls-3{fill:none;mix-blend-mode:multiply;opacity:0.4;}</style></defs><g class="cls-1"><g id="Layer_2" data-name="Layer 2"><g id="Variación_A" data-name="Variación A"><g id="AssetsE4"><g id="HamE4"><path class="cls-2" d="M140.29,68.5s-13-36-19-35-18,5-20,14-6,26,3,33,10,13,19,12,15-6.69,17-11.84S140.29,68.5,140.29,68.5Z"/><path class="cls-2" d="M125.26,121.62s8-13.12-7-16.12-32-19-36-8-19,26-11,36,16,23,24,23,15.74-3,20.37-13.5S125.26,121.62,125.26,121.62Z"/><path class="cls-2" d="M89.29,74.5s7-15.81,0-20.91-15.62-10.9-20.31,0S51.91,76.2,64.1,79.85,89.29,74.5,89.29,74.5Z"/><path class="cls-2" d="M51.71,35.42c-1.42.08-14.42-.92-15.42,5.08s1,30,5,31,12-6,15-14S67.67,53.32,69,47.41,51.71,35.42,51.71,35.42Z"/><path class="cls-2" d="M16.25,9.57s-8,15.93-8,20.93,8,26.73,8,26.73,5.82,17.46,8.43,14.37,9.39-9.5,9.39-9.5l2.22-21.6s5-12-2-19S16.25,9.57,16.25,9.57Z"/><path class="cls-2" d="M16.25,57.23s-11,16.27-10,26.27,11.78,33.25,18.39,38.12S38,134.78,38,134.78s3.27-7.28,3.27-21.28S45.75,91.32,38,85.91,24.68,71.6,24.68,71.6Z"/><path class="cls-2" d="M42.57,74.11S39.29,63.5,35.29,64.5s-12.72,4.23-8.86,9.61,12.54,15.71,14.7,15S42.57,74.11,42.57,74.11Z"/><path class="cls-2" d="M57.68,71.6s-4.56-3.2-6-4.15,5.58-13,9.58-13,3-1,4,2S57.68,71.6,57.68,71.6Z"/><path class="cls-2" d="M98.19,68.53S95.83,60.59,94.06,63,82.29,85.5,83.29,87.5s6.23,6.38,9.12,6.19,12.88,7.81,13.88,5.81,6-7,3-12S98.19,68.53,98.19,68.53Z"/><path class="cls-2" d="M61.56,78.77s-4.3-6.08-7.28-7.17-8.19-5.17-9.09.36S38,83.82,41.13,89.16A20.9,20.9,0,0,1,44,99.82S58.29,95.5,63.29,90.5s5.76-9.3,5.76-9.3Z"/><path class="cls-2" d="M85.69,92.61,81.45,78.48,69,84.47,59.61,96s6.19,14.81,9.44,14.65,6.15,0,6.15,0Z"/><path class="cls-2" d="M42.32,99.82l-2.71,38.1S51.82,151,54.06,152.27s4.23.23,9.23-1.77,13.45-9.91,13.45-9.91-11.42-6.46-8.43-14.28,5.57-13.37,5.57-13.37-6.42-3.82-8.5-6.63S59.61,96,59.61,96Z"/><path class="cls-2" d="M111.55,92.61,107.94,97a6.91,6.91,0,0,0,5.47,7.14c5.88,1.37,9.88,7.37,10.88,1.37s-1-13-1-13Z"/><path class="cls-2" d="M145.29,82.5,124.57,94.57s-1.28,8.93-.28,10.93.28,23,.28,23,6.34,9.09,10,9.07,13.69-4,14.69-14,3.65-27.62,3.83-29.81S145.29,82.5,145.29,82.5Z"/><path class="cls-2" d="M134.6,137.53s-5.75-12.11-10-9.07-10.36,17.44-8.32,18.24,6.27,20.67,11.16,17.24,10.33-1.41,11.11-9.92S134.6,137.53,134.6,137.53Z"/></g></g></g><g id="PixelsASSETS"><g id="Pierna"><rect class="cls-3" width="160" height="195"/></g></g></g></g></svg>