<svg xmlns="http://www.w3.org/2000/svg" xmlns:xlink="http://www.w3.org/1999/xlink" viewBox="0 0 130 250"><defs><style>.cls-1{isolation:isolate;}.cls-2{fill:url(#Degradado_sin_nombre_175);}.cls-3{fill:#42210b;}.cls-4{fill:none;mix-blend-mode:multiply;opacity:0.4;}</style><radialGradient id="Degradado_sin_nombre_175" cx="84.89" cy="170.22" r="57.17" gradientUnits="userSpaceOnUse"><stop offset="0.09" stop-color="#faeb36"/><stop offset="0.24" stop-color="#fa7e36"/><stop offset="0.3" stop-color="#fa6d30"/><stop offset="0.4" stop-color="#f95226"/><stop offset="0.51" stop-color="#f83f1f"/><stop offset="0.62" stop-color="#f8341a"/><stop offset="0.74" stop-color="#f83019"/><stop offset="1" stop-color="#b9051c"/></radialGradient></defs><g class="cls-1"><g id="Layer_2" data-name="Layer 2"><g id="Variacion_A" data-name="Variacion A"><g id="AssetsF2"><g id="TailE2"><path class="cls-2" d="M96.52,244.74C86.24,240.3,65.6,230,59.54,221c-8.63-12.93-6.15-29.74-3.64-36.82.84-2.35,2.49-3.73,4.58-5.48,4.53-3.81,10.17-8.54,6.45-23.73-1.29-5.27-2.68-10.06-4-14.28,2.47,2,5,3.26,7.27,3.26a6.26,6.26,0,0,0,3.27-.9c4.75-2.87,4-10.49,3-20.14-.73-7.13-1.63-16,.59-20a40.86,40.86,0,0,1,5.12-7.23c.84,18.79,4.09,65.06,15.95,75.07,11.7,9.89,9.44,31.2,9.42,31.42l-.61,5.38,5.15-1.67a14.55,14.55,0,0,0,4.19-2.42c-.37,5.85-.94,13.24-1.57,20.29-1.5,1.52-4.82,4.89-9.08,9.06A72.65,72.65,0,0,0,96.52,244.74Z"/><path class="cls-3" d="M88.81,94.38h0M79.34,107.1c.38,5.33.89,11.4,1.59,17.66,4,35.71,10.43,44.88,14.92,48.67,8.5,7.18,8.81,22.91,8.21,28.34l-1.25,10.79,9.53-3.09c-.3,4.08-.65,8.49-1,12.73-1.73,1.75-4.62,4.66-8.16,8.13a66,66,0,0,0-8,10C83.27,235,67.16,226.09,62.44,219c-7.29-10.93-5.94-26.15-3.25-33.72.49-1.39,1.55-2.32,3.53-4,6-5,11.5-11.27,7.59-27.23-.58-2.38-1.18-4.66-1.78-6.83a11.45,11.45,0,0,0,1.65.12,9.78,9.78,0,0,0,5.08-1.4c6.64-4,5.72-13,4.65-23.47-.48-4.74-1.16-11.41-.57-15.42m46.74,87.27h0M85.37,88.31S79.45,91.52,74,101.21s3.45,35.31-2.34,38.81a2.71,2.71,0,0,1-1.47.4c-6.33,0-17.87-17.79-17.87-17.79a185.92,185.92,0,0,1,11.23,33.12c4.89,20-7.57,17.79-10.92,27.23s-4.7,26.85,4,39.92,41.3,26.22,41.3,26.22,5.28-9.08,10.1-13.81c5.92-5.8,10-10,10-10s3-33.85,1.81-33.84c-.12,0-.28.33-.5,1.06-2.36,8.1-8.37,10-8.37,10s2.69-23.22-10.63-34.47-15-79.79-15-79.79Z"/></g></g></g><g id="Layer_102" data-name="Layer 102"><g id="Cola"><rect class="cls-4" width="130" height="250"/></g></g></g></g></svg>