<svg xmlns="http://www.w3.org/2000/svg" xmlns:xlink="http://www.w3.org/1999/xlink" viewBox="0 0 464 265"><defs><style>.cls-1{isolation:isolate;}.cls-2,.cls-3{stroke:#f15a24;stroke-width:6px;}.cls-2,.cls-3,.cls-4{stroke-linecap:round;stroke-linejoin:round;}.cls-2{fill:url(#Nueva_muestra_de_degradado_3);}.cls-3{fill:url(#Nueva_muestra_de_degradado_3-2);}.cls-4,.cls-5{fill:none;}.cls-4{stroke:#42210b;stroke-width:6.97px;}.cls-5{mix-blend-mode:multiply;opacity:0.4;}</style><radialGradient id="Nueva_muestra_de_degradado_3" cx="281.23" cy="171.18" r="59.12" gradientUnits="userSpaceOnUse"><stop offset="0.13" stop-color="#cce0f4"/><stop offset="0.17" stop-color="#cee1eb"/><stop offset="0.24" stop-color="#d4e2d1"/><stop offset="0.33" stop-color="#dde5a8"/><stop offset="0.44" stop-color="#eae96e"/><stop offset="0.56" stop-color="#fbee25"/><stop offset="0.57" stop-color="#fcee21"/><stop offset="0.87" stop-color="#f7931e"/><stop offset="0.99" stop-color="#f15a24"/></radialGradient><radialGradient id="Nueva_muestra_de_degradado_3-2" cx="407.34" cy="126.65" r="48.06" xlink:href="#Nueva_muestra_de_degradado_3"/></defs><g class="cls-1"><g id="Layer_2" data-name="Layer 2"><g id="Variacion_A" data-name="Variacion A"><g id="AssetsF2"><g id="HornE2"><path class="cls-2" d="M289,234.31s-59.5-111.39-62.5-123.39,46.7,16.69,63.35,28.85S336,188.31,336,188.31s-10,5-27,16C298.93,210.85,289,234.31,289,234.31Z"/><path class="cls-3" d="M384,181.31s-7.5-72.39-10.5-88.39,3-28,8-24,60.4,116.23,60.4,116.23-7.66-9.06-25.9-10.84A54.73,54.73,0,0,0,384,181.31Z"/><path class="cls-4" d="M282.54,256.81l6.12-21.17a96.44,96.44,0,0,1,9-19s7.8-10.34,17.85-15.58l15.36-9.23A54.61,54.61,0,0,1,355.2,185c13.94-.44,20.24,2.25,20.24,2.25s10.8-8.82,18.45-10.64,15.65-1.81,21.65-1.81l14.4,2.49c4.11,1.61,8.5,4.56,12.83,7.91l10.77,8.6"/></g></g></g><g id="Layer_102" data-name="Layer 102"><g id="Cuerno"><rect class="cls-5" width="464" height="265"/></g></g></g></g></svg>