<svg xmlns="http://www.w3.org/2000/svg" xmlns:xlink="http://www.w3.org/1999/xlink" viewBox="0 0 464 265"><defs><style>.cls-1{isolation:isolate;}.cls-2{fill:url(#Degradado_sin_nombre_9);}.cls-3{fill:url(#Degradado_sin_nombre_9-2);}.cls-4{fill:#df6437;}.cls-5{fill:#3e2210;}.cls-6{fill:none;mix-blend-mode:multiply;opacity:0.4;}</style><radialGradient id="Degradado_sin_nombre_9" cx="291.52" cy="192.81" r="40.81" gradientTransform="matrix(1.08, -0.01, 0.01, 1.13, -35.13, -30.83)" gradientUnits="userSpaceOnUse"><stop offset="0.13" stop-color="#cedff1"/><stop offset="0.17" stop-color="#d0e0e9"/><stop offset="0.24" stop-color="#d6e0d1"/><stop offset="0.33" stop-color="#dee3ad"/><stop offset="0.44" stop-color="#e9e780"/><stop offset="0.56" stop-color="#f8ec57"/><stop offset="0.57" stop-color="#f9ec56"/><stop offset="0.87" stop-color="#e9963e"/><stop offset="0.99" stop-color="#df6437"/></radialGradient><radialGradient id="Degradado_sin_nombre_9-2" cx="461.48" cy="136.93" r="43.41" gradientTransform="matrix(-1.06, -0.08, -0.06, 1.13, 904.49, 1.99)" xlink:href="#Degradado_sin_nombre_9"/></defs><g class="cls-1"><g id="Layer_2" data-name="Layer 2"><g id="Variacion_C" data-name="Variacion C"><g id="AssetsF2"><g id="HornF5_1"><path class="cls-2" d="M322.84,185.33c-.09-.75-.17-1.5-.25-2.25a4.78,4.78,0,0,0-1.47-.05,9.41,9.41,0,0,0-1.57-5.06c-.89-1.36-4.56-3.8-4.37-5.39.51-4.28-2.7-7.94-6.56-6.88a6.89,6.89,0,0,0-2.23-2.89,33.42,33.42,0,0,0-14.66-6.54c-.27-2.76-6.06-17.15-8.83-17.2s-2.21,12.11-4.91,12.57c-6.48-1.8-13.58,2.81-19.17,7.59a4.73,4.73,0,0,0-5,.19,62.32,62.32,0,0,0-9.24,6.83,5,5,0,0,0-1.76,1.75c-.42.45-.82.91-1.22,1.39a19,19,0,0,0-4.8,6.43c-2.21,4.85,2.64,10.84,7.47,7.65.24-.16.45-.33.67-.5a5.94,5.94,0,0,0,2.38-2.18l2.55-3.94a4.14,4.14,0,0,0,5.19,1.29,17.21,17.21,0,0,0,5.3-3.31,7.69,7.69,0,0,0,.69,1.24,7.83,7.83,0,0,0,1.33,1.51c-2.37,5,3.37,9.17,7.61,7a6.94,6.94,0,0,0,1.66,2.69c-.82,1.77-1.57,3.57-2.28,5.41l-.91,1.05a5.77,5.77,0,0,0-1.27,5.21,5.36,5.36,0,0,0,3.91,6.63c-1.59,2.88,0,6.52,2.56,8a6.35,6.35,0,0,0,2.56,4,6.12,6.12,0,0,0,2.78,3.85c-1.09,5.71,5.23,8.35,9.12,5.07.73-.61,1.41-1.25,2.11-1.88a5.55,5.55,0,0,0,4.09-2.46l6.67-9.54a134.77,134.77,0,0,1,13.17-14.76,70.7,70.7,0,0,1,8.95-3.66,5.46,5.46,0,0,0,1-.46C323.53,190.92,323.15,188.13,322.84,185.33Z"/><path class="cls-3" d="M437.3,131.72a6.12,6.12,0,0,0-.87-.73,4.61,4.61,0,0,0,.2-1.56c-.31-8.5-7.87-13.59-14.36-17.35a106.35,106.35,0,0,1-4.37-11c-1.07-3.22-1.5-5.06-3-9-.39-1,1.58-4.68,0-8-2.57-5.39,16.11-21.17,15-21-1.53.25-21.24,6.81-25,13-1.4,2.33-5.15,17.13-6,18a42.75,42.75,0,0,1-6,5c-2.77,2-4.55,3.9-6,4-5.95.43-18.9,14.38-13,14,.64,0,15.37-1.32,16-1.36a43.76,43.76,0,0,1,6.06.06c.74,0,1.47.15,2.2.24a6.55,6.55,0,0,0,.61,1.57,1.64,1.64,0,0,1,.66.56,11.87,11.87,0,0,1,.91,1.51l.06.07a25.26,25.26,0,0,0,2.08,1.72,6.11,6.11,0,0,0-1.06,1.26,14.69,14.69,0,0,1,.05,5.61c.28.46.56.95.88,1.41l-.47.21c-.3.14-.59.3-.88.46a30.33,30.33,0,0,1-5.66,10.4,6.69,6.69,0,0,0,.86,1.88c-4.6,2.18-8.64,4.28-9.37,10.31,0,.35-1.16,1-1.12,1.31-1.55.94-1,4.06-1.87,6.1a8.68,8.68,0,0,0-.15,6.79,5.61,5.61,0,0,0,3.43,5.93c.67.24,1.34.43,2,.6,8.09-1.64,16.28-1.94,24.49-2,5.35,0,10.65,1,15.94,1.41,5.87-9.75,9.7-19.51,10.63-32.29a1.86,1.86,0,0,1,1.05-1.62A16.21,16.21,0,0,0,437.3,131.72Z"/><path class="cls-4" d="M289.37,223.31a15.2,15.2,0,0,1-12.89-5.24c-3.75-4.4-4-10.21-3.93-15.71.08-9,.27-19.75-7.63-25.9-7-5.45-17-2.87-23.41,2.24-7.78,6.16-10.83,16.22-9.27,25.82.82,5,8.64,3.73,7.82-1.32-1.49-9.09,3-18.88,12.41-21.4,12-3.2,12.25,11.32,12.18,19.24s.47,16,5.91,22.31a22.94,22.94,0,0,0,19.28,7.8c4.41-.28,4-8.1-.47-7.84Z"/><path class="cls-4" d="M291.36,127.8c-4.14,5.5-8.16,11.59-7.14,18.83.77,5.45,4.47,8.59,9.25,10.74,6.5,2.92,11.91,5.65,16.68,11.23a40.24,40.24,0,0,1,9.45,24.08c.2,3.54,6.45,3.26,6.28-.32a46.2,46.2,0,0,0-18.08-34.67c-4.4-3.35-9.68-4.36-14.18-7.34-7.17-4.74-.89-13.84,2.79-18.69,2.48-3.26-2.58-7.13-5.05-3.86Z"/><path class="cls-4" d="M389.7,172.53c-8.88-8.05-1.54-19.17,4.72-26.13,5.86-6.51,12.37-14.45,10.36-23.88-1.73-8.11-10.54-12.46-18.26-12.36-8.69.1-16.29,5.4-20.84,12.55-2.71,4.24,3.6,8.89,6.34,4.63,4.29-6.66,12.33-11.88,20.38-8.16,11.14,5.16.55,17.14-4.31,22.58-9.18,10.28-15.72,25.7-3.59,36.57,3.29,2.95,8.51-2.8,5.2-5.8Z"/><path class="cls-4" d="M431,60.89c-7.73,7.48-15.88,15.84-18.32,26.69-1.89,8.41.18,17.49,6.93,23.18,4.2,3.55,8.51,6.25,11.81,10.81a38.3,38.3,0,0,1,6.75,16.31,42.24,42.24,0,0,1-8.85,32.74c-2.38,3,2.5,6.41,4.86,3.41,12.36-15.72,14.08-38.41,2.6-55.11a43.31,43.31,0,0,0-10.26-10.49c-4.44-3.22-7.73-6.57-8.47-12.27-1.62-12.51,8.51-22.55,16.6-30.58,2.66-2.65-.89-7.36-3.65-4.69Z"/><path class="cls-5" d="M290.28,238.29c8.13-21,25.87-35.36,45-46.06,3.42-1.91.83-7.44-2.63-5.53-20.64,11.41-39.43,27-48.16,49.55-1.43,3.68,4.35,5.71,5.77,2Z"/><path class="cls-5" d="M388,181c7.72-3.05,15.93-3.93,24.18-3.73,7,.16,15.07.12,20.71,4.8,3.26,2.7,7.08-2.72,3.8-5.39-6.49-5.27-15.22-5.71-23.24-6-9.7-.31-19.19.77-28.27,4.32-3.94,1.55-1.11,7.51,2.82,6Z"/><path class="cls-4" d="M292,125.63c-11.54,5.94-21.87,16.14-19.6,30.19.82,5.14,8.85,3.86,8-1.3-1.69-10.23,6.68-17.1,14.77-21.44,4.54-2.43,1.51-9.86-3.16-7.45Z"/><path class="cls-4" d="M239.94,203.43c-6.39-11.08.52-22.44,8.34-30.6,7.65-8,17.15-14.06,28.09-16.21,5.13-1,2.79-9-2.37-7.84-13.25,2.88-24.6,10.45-33.59,20.49s-15.59,24.87-7.86,37.68c2.68,4.45,10,1.08,7.39-3.52Z"/><path class="cls-4" d="M434.39,57.36c-22.28-2.42-49.18,23.7-41.65,46.58,1.73,5.25,10.23,3.61,8.55-1.8C396.08,85.41,416.05,63.8,433.21,66c5.57.72,6.78-8,1.18-8.66Z"/><path class="cls-4" d="M370.57,124.42c-1.25-2.09,1.64-6.47,2.65-8.14a33.18,33.18,0,0,1,6.73-8,33.78,33.78,0,0,1,8.15-5.3c2.23-1,7.08-3.31,9.5-2.61l-1.36-2.84-.07.18,2.21-1-.14,0c-2.48-.64-3.45,3.23-1,3.85l.21.06a2,2,0,0,0,2.21-1l.1-.25a2,2,0,0,0-1.36-2.84c-3.15-.89-8.2,1.25-11,2.46a38.28,38.28,0,0,0-10.29,6.55c-4.44,3.94-13.84,14.42-10,20.81,1.31,2.19,4.79.29,3.47-1.92Z"/></g></g></g><g id="Layer_102" data-name="Layer 102"><g id="Cuerno"><rect class="cls-6" width="464" height="265"/></g></g></g></g></svg>