<svg xmlns="http://www.w3.org/2000/svg" xmlns:xlink="http://www.w3.org/1999/xlink" viewBox="0 0 275 259.5"><defs><style>.cls-1{isolation:isolate;}.cls-2{fill:url(#Degradado_sin_nombre_141);}.cls-3{fill:url(#Degradado_sin_nombre_134);}.cls-4{fill:url(#Degradado_sin_nombre_95);}.cls-5{fill:url(#Degradado_sin_nombre_95-2);}.cls-6{fill:url(#Degradado_sin_nombre_95-3);}.cls-7{fill:url(#Degradado_sin_nombre_95-4);}.cls-8{fill:url(#Degradado_sin_nombre_95-5);}.cls-9{fill:#fcee21;}.cls-10{fill:none;mix-blend-mode:multiply;opacity:0.4;}</style><radialGradient id="Degradado_sin_nombre_141" cx="114.54" cy="88.31" r="45" gradientUnits="userSpaceOnUse"><stop offset="0" stop-color="#603813"/><stop offset="0.81" stop-color="#f15a24"/><stop offset="0.89" stop-color="#f7931e"/><stop offset="1" stop-color="#cce0f4" stop-opacity="0"/></radialGradient><radialGradient id="Degradado_sin_nombre_134" cx="114.29" cy="88.31" r="43.92" gradientUnits="userSpaceOnUse"><stop offset="0" stop-color="#fca921"/><stop offset="0.32" stop-color="#fbd820"/><stop offset="0.5" stop-color="#f7931e"/><stop offset="0.67" stop-color="#f15a24"/><stop offset="0.82" stop-color="#703c15"/><stop offset="1" stop-color="#facf20" stop-opacity="0"/></radialGradient><radialGradient id="Degradado_sin_nombre_95" cx="103.13" cy="72.23" r="3.55" gradientTransform="translate(0.79 -0.88) scale(0.99 0.76)" gradientUnits="userSpaceOnUse"><stop offset="0.2" stop-color="#ffffbd"/><stop offset="0.24" stop-color="#fffeb4"/><stop offset="0.32" stop-color="#fefb9a"/><stop offset="0.42" stop-color="#fef771"/><stop offset="0.53" stop-color="#fcf038"/><stop offset="0.57" stop-color="#fcee21"/><stop offset="0.88" stop-color="#fcee21"/></radialGradient><radialGradient id="Degradado_sin_nombre_95-2" cx="119.85" cy="72.67" r="3.73" xlink:href="#Degradado_sin_nombre_95"/><radialGradient id="Degradado_sin_nombre_95-3" cx="136.39" cy="80.48" r="5.34" xlink:href="#Degradado_sin_nombre_95"/><radialGradient id="Degradado_sin_nombre_95-4" cx="142.85" cy="130.45" r="5.15" xlink:href="#Degradado_sin_nombre_95"/><radialGradient id="Degradado_sin_nombre_95-5" cx="141.97" cy="139.63" r="5.48" xlink:href="#Degradado_sin_nombre_95"/></defs><g class="cls-1"><g id="Layer_2" data-name="Layer 2"><g id="Variacion_A" data-name="Variacion A"><g id="AssetsF2"><g id="HamE2"><circle class="cls-2" cx="114.54" cy="88.31" r="45"/><path class="cls-3" d="M157.85,88.31c0-2,.5-4,.22-6a51.86,51.86,0,0,0-2.17-7.52c-.76-2.44-2.37-4.15-3.53-6.39-.87-1.68-.58-3.3-1.65-4.85-1.64-2.34-2.92-5.12-5-7.09-1.5-1.44-4-2-5.73-3.18-2.89-2.08-5.55-5.06-8.92-6.38-2.42-.94-5.71-.62-8.32-1.12s-4.15-1.42-7-1.42c-2.51,0-5.26.86-7.65,1.27-2,.34-5.12-.6-7,0-2.24.71-4.31,2.77-6.38,3.82A47.64,47.64,0,0,0,89,53.27a38.92,38.92,0,0,0-5.73,4.46c-1.59,1.62-2.51,3.88-3.83,5.73a45,45,0,0,0-3.36,4.77,43.33,43.33,0,0,0-2.64,6.18c-.57,1.68-1.68,3.4-2,5.17-.57,2.82-.24,5.74-.24,8.73,0,2.4-1.08,4.76-.7,7,.31,1.89,2,3.73,2.55,5.52.71,2.32,1,4.56,2,6.7a61,61,0,0,0,4.82,8c1.54,2,3.26,2.68,5.14,4.42,1.65,1.53,3.42,4.22,5.3,5.48,3.07,2.07,6.43,3.12,10,4.36,2.42.84,4.94.83,7.54,1.23,2.17.34,4.39,1.15,6.66,1.15,1.52,0,3-.72,4.5-.87A43.64,43.64,0,0,0,126.3,130c2.12-.6,4.17-.71,6.15-1.61s3.67-2.47,5.38-3.57a48.38,48.38,0,0,0,6.92-4.88c2-1.87,3.2-3.94,4.81-6.16,1.44-2,3.34-4.05,4.43-6.25,1.19-2.38,1.52-4.9,2.25-7.51.54-1.91,1.59-3.87,1.86-5.88S157.85,90.29,157.85,88.31Z"/><path class="cls-4" d="M105,54s2.08-2.36.85-2.49-7.3,3.37-6.32,3.07,4.34,0,4.34,1.15v1.16s2.46.69,2-.38A18.74,18.74,0,0,1,105,54Z"/><path class="cls-5" d="M119.64,52.3s-2.63-1.45-3.38.29a2.84,2.84,0,0,0,0,3c.38,1-.51,1.77.87,1.55a7.07,7.07,0,0,1,3.36,0c1.4.32,3.07.84,2.23,0s-2.43-1.65-2.57-2.84A8.27,8.27,0,0,0,119.64,52.3Z"/><path class="cls-6" d="M135.38,59.54s-1.87-3.48-3.37-3.48-.38.56,0,1.59,2.25,1.31,2.25,2.76,1.12,3.18,1.87,3.18.79-1.26.79-1.26,3.71,3.87,3.33,2.71-1.57-4.42-2.65-4.38A3.7,3.7,0,0,1,135.38,59.54Z"/><path class="cls-7" d="M144.75,94.29a9.85,9.85,0,0,0-3,2.32c-.75,1.16-.75,2.61-1.87,2.9s.37.9,0,1.17-1.87,3.17-1.5,2.88a8.12,8.12,0,0,0,2.25-1.45c.75-.86,1.87-1.73,2.62-2.6s1.13-1.74,1.13-1.16-1.5,2.32-.75,2a4,4,0,0,0,1.87-3.48c0-1.74.75-.87.38-2S144.75,94.29,144.75,94.29Z"/><path class="cls-8" d="M145.5,101.25a5.22,5.22,0,0,0-2.62,1.15c-.38.58-2.63,1.45-3,2.32s-3.37,2.9-2.62,2.61,3.37-2.32,3.37-2-3.37,2.32-3.75,2.9a3.44,3.44,0,0,0-.37,1.73c0,.29.07,1.16,1.16,0a32.61,32.61,0,0,0,2.58-3.06c.75-1,2.63-1.86,3.38-3s2.83-1.64,2.35-2.12Z"/><path class="cls-9" d="M126.22,125.9c0,.42.22.45.49.36.81-.31,1.62-.63,2.43-1a7.77,7.77,0,0,1,1-.41,17,17,0,0,1-1.63,1.08,16,16,0,0,1-1.81.61c-.7.25-1.4.54-2.11.76a6,6,0,0,1-1.32.21c-.5,0-1-.05-1.49,0a20.31,20.31,0,0,0-3.66.53c-.63.19-1.12.94-1.66,1.46s-.4.41-1,.2c.47-.41.87-.77,1.27-1.14l-.07-.26a9.14,9.14,0,0,0-1.9.22,7.92,7.92,0,0,1-3.68.25c-1.31-.18-2.63-.27-3.93-.47a3.37,3.37,0,0,1-1-.6l-.32-.18c.86.23,1.7.49,2.56.69a7.77,7.77,0,0,0,1.66.2,27.15,27.15,0,0,0,3.83-.08c1.39-.19,2.75-.62,4.12-1l1.72-.42c-.49-1.61-.77-1.82-2.12-1.8a17.31,17.31,0,0,1-2-.07c-2.64-.27-5.27-.53-7.9-.87a47.89,47.89,0,0,1-5.44-.92c-1.79-.45-3.53-1.15-5.29-1.74l-2.68-.88a7.62,7.62,0,0,0,2.42,3.48,4.16,4.16,0,0,0,1.54,1,29.43,29.43,0,0,0,3.11.6,8.56,8.56,0,0,1,4.37,1.73,14.72,14.72,0,0,0-5.22-1.6c-1.41-.23-2.8-.59-4.2-.89-.09,0-.16-.1-.23-.23l.93.13-1.71-1.53a14.86,14.86,0,0,1-4.2-6.77c-.3-.89-.53-1.76-1.75-1.86.91-.49.81-1.12.58-1.78-.54-1.55-1.19-3-2.83-3.46a.38.38,0,0,1-.23-.26l1.93.45A1,1,0,0,0,90,109a21,21,0,0,1,4.61-6.5c1.12-1.1,1.1-1.4-.11-2.38-.82-.66-1.62-1.35-2.41-2a13.36,13.36,0,0,1-3.61-5.81,3.43,3.43,0,0,0-1.66-2c-1.29-.68-2.57-1.38-3.74-2a10.83,10.83,0,0,0,1.2-1.69c.3-.67,0-1.09-.65-1.21-1.36-.25-2.73-.51-4.1-.74-1-.17-1.22.08-1.41,1.17-.33,1.93-.73,3.85-1.1,5.77a.58.58,0,0,1-.2.33c.42-2.45,1-4.87,1.3-7.44a9.74,9.74,0,0,1-1.23.58c-.16,0-.38-.14-.57-.23.12-.18.19-.45.35-.54A7.45,7.45,0,0,1,78,83.76a1,1,0,0,0,.74-1.05A36,36,0,0,1,80.41,72c.16-.54.15-1-.49-1.15a.65.65,0,0,1-.26-.46c.13-.19.39-.46.53-.42.62.22.84-.15,1-.69a8.09,8.09,0,0,1,2.38-3.45,1.36,1.36,0,0,0,.3-.65A20.69,20.69,0,0,1,87,58.61a9.79,9.79,0,0,1,1-1.08,24.05,24.05,0,0,0-2.64,5.92,5.23,5.23,0,0,0-.24,2.81c.41,1.66,1.26,2.12,2.52,1.89,2.53-.45,5-.1,7.55,0l8.69.26c3.11.09,6.22.07,9.32.31,3.46.27,6.9.79,10.35,1.17a1.32,1.32,0,0,0,1.62-.92c.46-1.24,1-2.43,1.51-3.65.3-.76.21-1.05-.46-1.46a11,11,0,0,0-1.25-.6,2.55,2.55,0,0,1-1.44-1.1c-.21-.41-.6-.33-.82.11s-.48,1.06-.75,1.57c-.08.16-.28.25-.42.37l-.18-.16c.17-.52.33-1,.51-1.56.31-.89.11-1.28-.75-1.29-2.58,0-5.17,0-7.76,0h-1.86V61h4c1.62,0,3.24,0,4.85,0a1.88,1.88,0,0,0,1.65-.77,8.7,8.7,0,0,1,3.55-3,3.7,3.7,0,0,0,.62-.5C125,56.06,124,55.47,123,54.89c-.57-.33-1.15-.61-1.72-.94-.9-.54-1.79-1.14-2.7-1.67a4.55,4.55,0,0,1-2.18-2.42,1.44,1.44,0,0,0-1.63-1.09c-.68,0-1.37-.27-2.06-.31a15.88,15.88,0,0,0-2.39.1c-1.46.14-2.91.37-4.36.5a5.64,5.64,0,0,1-2.39,0c-1.89-.7-3.39.43-5,1-1.37.53-2.7,1.23-3.94,1.8,2.79-2.16,6.28-2.86,9.53-4.61-.15.34-.22.51-.3.7A.67.67,0,0,0,104,48a6,6,0,0,0,4.62-.4c1.11-.58,2.24-1.1,3.39-1.58A18.13,18.13,0,0,0,108.43,48l0,.22,1.85-.17c1.32-.12,2.63-.29,3.94-.35a1.32,1.32,0,0,1,.91.55,1.25,1.25,0,0,0,1.46.37s0,0,0-.12l-.78-.24V48c.79,0,1.58,0,2.36,0,.58,0,1.14,0,1.53-.72.16-.32.79-.39,1.23-.48a6.66,6.66,0,0,1,1.19,0c-1,.06-1.21.25-1.54,1.15,0,.15-.36.25-.56.27-.65.07-1.31.1-2,.16a1.52,1.52,0,0,0-.34.14,5.84,5.84,0,0,0,2,2.57c2.52,1.62,5.07,3.17,7.61,4.75a1.47,1.47,0,0,0,2-.28,6.92,6.92,0,0,1,1.25-.78l.24.32a3.17,3.17,0,0,0-.42.19c-1.2.82-2.37,1.67-3.59,2.46-1.44.93-1.51,1.42-.19,2.54.62.53,1.32,1,1.92,1.5a1.49,1.49,0,0,1,.39,1c0,1.52,0,3,0,4.68l2.18.36a17.1,17.1,0,0,0,5.39.13,6.75,6.75,0,0,0,5.63-4.25,12.85,12.85,0,0,0,.57-2.43,5.67,5.67,0,0,0,0-1,1.66,1.66,0,0,1,.71,1.83,14.43,14.43,0,0,1-.57,2.31,1,1,0,0,0,.3,1.28,30.9,30.9,0,0,1,7.64,11.19c.09.24.17.47.25.71a2.82,2.82,0,0,1,.14.68c-1.85-5.15-5.25-8.93-9-12.54a5,5,0,0,1-2.73,2.43,18,18,0,0,1-3.35.88,18.87,18.87,0,0,1-6.48-.39,1.8,1.8,0,0,0-1.81.7c-2.25,2.4-4.54,4.73-6.82,7.09l-.27.29c-.41.51-.36.79.21,1.08a1,1,0,0,0,.35.14c2,.06,3.51,1.51,5.08,2.66a27.75,27.75,0,0,1,2.91,2.64,5.37,5.37,0,0,1,.87,1.3c.45.85.77,1.09,1.65.94,1.21-.21,2.4-.51,3.61-.73,3.69-.68,7.4-1.29,11.08-2,1.53-.32,3-1,4.52-1.44.21-.07.6,0,.68.09.2.35.28.84-.19,1.06a14.63,14.63,0,0,1-2.89,1.18c-4.64,1-9.29,1.86-13.94,2.76-.73.14-1.48.18-2.22.28a4.51,4.51,0,0,0-3.15,2.2,22.66,22.66,0,0,1-4.83,5.56,3.75,3.75,0,0,0-.69.94c-.38.59-.71,1.21-1.11,1.78s-.33.75.17,1,1.24.54,1.84.85c1.2.62,2.36,1.34,3.59,1.87a6.33,6.33,0,0,0,2.52.53,7.35,7.35,0,0,1,4.5,1,1.7,1.7,0,0,0,1.79-.07c1.08-.53,2.16-1,3.25-1.55a6.39,6.39,0,0,0,2.85-2c.12-.18.41-.22.74-.37a2.91,2.91,0,0,1-1.42,2c-.79.4-1.62.7-2.4,1.13-1,.57-2.09,1.19-3.09,1.85a1.84,1.84,0,0,0-.41,2.26c.54,1,1.1,1.88,1.62,2.84a.71.71,0,0,0,1,.35L147,105.7c.53-.21,1.06-.47,1.58-.71l.08.2-2.09,1a10.74,10.74,0,0,0-1,.49c-.77.45-1.54.92-1.43,2.13a1.7,1.7,0,0,1-.25.83c0-.47.06-1,.08-1.42s-.16-.59-.54-.47l-5.33,1.65c.06.31.12.63.17,1,.1.52.18,1,.29,1.55a1.87,1.87,0,0,1-.66,2,20.19,20.19,0,0,0-2.64,3.27,5.18,5.18,0,0,0-.44,1.55,2.22,2.22,0,0,1,.65.12c.17.09.38.24.42.42.24.87.68,1.14,1.48.84.12,0,.23-.12.35-.18.1.24.19.47.31.74-.13,0-.24.13-.35.12-.68-.06-1.36-.13-2-.22-.3,0-.56-.1-.46-.6,0-.14-.31-.52-.46-.51a2.65,2.65,0,0,0-1.34.42c-1.19,1-2.31,2-3.54,3.16l.88.25s-.05.1-.07.09c-1.66-.26-2.63,1.1-3.8,2-.22.17-.43.36-.64.54.25-.88,1-1.26,1.56-1.78l5.08-4.53a3.34,3.34,0,0,0,.45-.47.73.73,0,0,0-.2-1.18,3.09,3.09,0,0,1-.4-.47c-.2-.2-.42-.54-.63-.54a20,20,0,0,0-3.63.29,24.31,24.31,0,0,0-3.4,1.23,16.15,16.15,0,0,0-5.42,3.42c-.86.81-.84,1.32-.09,2.16a2.61,2.61,0,0,1,.75,1.15,1.9,1.9,0,0,0,2.38,1.83c.08,0,.17,0,.25,0C124.1,127,125.31,127,126.22,125.9Zm6.25-22.76a.68.68,0,0,1,0-.18.76.76,0,0,1,.09-.18c.38-.59.34-.78-.31-.84a2.76,2.76,0,0,0-1.57.15,6.78,6.78,0,0,1-3.7.54,5.42,5.42,0,0,0-2.38.3c-1.4.65-2.72,1.54-4.07,2.33-.39.23-.77.48-1.16.72l-.1-.21,6-3.84a10.69,10.69,0,0,0-1.32-.81q-4.4-1.91-8.82-3.77c-2.88-1.21-5.82-2.27-8.65-3.63a19.23,19.23,0,0,0-7.17-2,8.64,8.64,0,0,1-5-2,.94.94,0,0,0-.6-.29c-1.44.19-2.88.4-4.31.65-.68.12-.81.48-.5,1.18.44,1,.86,2,1.36,3A11.63,11.63,0,0,0,92,97.12,56.32,56.32,0,0,0,96.53,101c.15.12.55,0,.76-.14,1.45-1,2.88-2,4.3-3,.38-.27.67-.26.91.18a7.09,7.09,0,0,0-1.12.61A35.3,35.3,0,0,0,92,109.49c-.17.33-.47.58-.65.91a1.59,1.59,0,0,0-.24.85,42.91,42.91,0,0,0,2.34,8.24,1.38,1.38,0,0,0,.94.88c2.63.79,5.24,1.7,7.89,2.41a39.56,39.56,0,0,0,5,.86c2.36.31,4.73.55,7.1.8a1.43,1.43,0,0,0,.9-.1,16.62,16.62,0,0,0,3.14-2.31,13.69,13.69,0,0,1,5.9-3.79,19.32,19.32,0,0,0,2.74-.84,6,6,0,0,1,2.82-.68,13.47,13.47,0,0,0,1.68,0,2,2,0,0,0,.92-.43,2.39,2.39,0,0,1,1.6-.79.71.71,0,0,0,.45-.18c.71-.6,1.41-1.21,2.09-1.84a1.07,1.07,0,0,0,.26-1.4c-.55-1-1.15-2.08-1.61-3.18-.68-1.63-1.95-3.16-.88-5.21ZM90.69,83l.07-.17c1.22.6,2.46,1.17,3.66,1.82a2.52,2.52,0,0,0,2.33.08c5.72-2.44,11.45-4.84,17.18-7.25,3.44-1.45,7-2.75,9.78-5.55a6.93,6.93,0,0,0,.63-.85,3.2,3.2,0,0,0-1-.48q-4.84-.6-9.69-1.13a146.73,146.73,0,0,0-15-.52,1.5,1.5,0,0,0-1.46.94,9,9,0,0,1-3.47,3.71,32.81,32.81,0,0,0-3.19,2.36,3.3,3.3,0,0,0-1.37,2.43c0,.14-.14.27-.22.4l-.2-.09c.15-.55.27-1.12.46-1.65.42-1.14,1.42-1.62,2.21-2.33,1.62-1.42,3.26-2.81,4.85-4.27a9,9,0,0,0,1.07-1.59c-.14-.11-.17-.16-.2-.16a40.75,40.75,0,0,0-8.11-.36c-.91.1-1.81.22-2.72.25s-1.35-.41-1.61-1.37a6.82,6.82,0,0,0-.36-.91,5,5,0,0,0-1.94,2C80.65,71.92,80.09,76,79.57,80a7.33,7.33,0,0,0,.2,2.37c.16.75.7.85,1.13.24a13.27,13.27,0,0,0,.73-1.28l.28-.53a8.78,8.78,0,0,1-.66,2.07c-.19.44-.14.7.3.89.8.34,1.58.71,2.36,1.08s.84.55.62,1.41-.07,1.21.58,1.53a20.29,20.29,0,0,0,2.54,1.1,2.9,2.9,0,0,0,1.46.09c1.3-.28,2.58-.66,3.86-1a.9.9,0,0,0,.54-.3c.52-.78,1-1.6,1.52-2.46Zm27.82,14.25A3.42,3.42,0,0,0,121,96Q125,91.18,129,86.34a.89.89,0,0,0-.12-1.36c-.74-.73-1.49-1.45-2.24-2.17a13.13,13.13,0,0,0-4.45-2.94,16.68,16.68,0,0,1-4.08-2.17,1.54,1.54,0,0,0-1.68-.17c-3.27,1.32-6.56,2.58-9.82,3.92s-6.69,2.84-10,4.3A6.05,6.05,0,0,0,95,86.83a1.7,1.7,0,0,0,.27,2.87,3.7,3.7,0,0,0,1.21.52c1.56.32,3.13.61,4.71.86A17.51,17.51,0,0,1,107,92.77,27.21,27.21,0,0,0,109.61,94q3.48,1.38,7,2.7C117.21,96.91,117.87,97,118.51,97.22Zm.7,27.77.08-.22c-.3-.46-.58-.94-.91-1.38a.49.49,0,0,0-.48-.13c-.68.43-1.33.92-2,1.39l0,.15Zm15.4-9.28a4.5,4.5,0,0,0-1.08.45.89.89,0,0,0-.24.74c.2.29.49.67.92.3a5.56,5.56,0,0,0,.65-.53,2.87,2.87,0,0,0,.35-.59Z"/><path class="cls-9" d="M87.05,107.05l-5.6-1.54a31.69,31.69,0,0,1-3.4-9c.17.44.36.87.51,1.32s.33.94.46,1.41a18.6,18.6,0,0,0,1.84,4.49,3.94,3.94,0,0,0,2.54,1.88,34.38,34.38,0,0,1,3.46,1.29A.67.67,0,0,1,87.05,107.05Z"/><path class="cls-9" d="M129.52,54.07c.51-1.14,3.59-1.67,5.27-1A8.43,8.43,0,0,0,129.52,54.07Z"/><path class="cls-9" d="M141,115.12l-.89,2c-.18.41-.4.8-.08,1.28.07.11-.09.41-.15.65l-.85-.36C139.81,117.64,139.83,116.11,141,115.12Z"/><path class="cls-9" d="M81.05,105.85l.44,2.55-.65-.76.15,0-.13-1.81Z"/><path class="cls-9" d="M82,109.43l1.45,2.85-.11.07c-.48-1-.95-1.92-1.43-2.87Z"/><path class="cls-9" d="M76.65,92.13l.18,2.32-.17,0-.11-2.32Z"/><path class="cls-9" d="M109.34,114.61a2,2,0,0,0,1.24,1.47c.76.3,1.53.55,2.29.86.47.19.92.44,1.37.66l-.06.28a2.08,2.08,0,0,1-.66,0c-1.4-.5-2.79-1-4.18-1.56a2.93,2.93,0,0,1-.4-.19c-.56-.35-.58-.67-.08-1.13C109,114.86,109.16,114.75,109.34,114.61Z"/><path class="cls-9" d="M82.38,80c1.71,0,3.35,1.31,5.2.41.21.34.48.76.74,1.19l-.06.15-5.9-1.58Z"/></g></g></g><g id="Layer_102" data-name="Layer 102"><g id="Espalda"><rect class="cls-10" width="275" height="259.5"/></g></g></g></g></svg>