<svg xmlns="http://www.w3.org/2000/svg" viewBox="0 0 275 259.5"><defs><style>.cls-1{isolation:isolate;}.cls-2{fill:#d54322;}.cls-3{fill:#eb6f2d;}.cls-4{fill:#ee9637;}.cls-5{fill:#f0a23a;}.cls-6{fill:#3e2210;}.cls-7{fill:none;mix-blend-mode:multiply;opacity:0.4;}</style></defs><g class="cls-1"><g id="Layer_2" data-name="Layer 2"><g id="Variacion_B" data-name="Variacion B"><g id="AssetsF2"><g id="HamF2"><path class="cls-2" d="M217,170.88l.07,0a.94.94,0,0,1,.46-1.54c1.05-.32,2.14-.59,3.24-.84,0-.54.11-1.09.2-1.64-.84.14-1.69.26-2.54.35a.87.87,0,0,1-.63-1.59l-.88.1a.89.89,0,0,1-.52-1.69c.47-.21.95-.39,1.43-.58l-1.24.11a.82.82,0,0,1-.92-.76.91.91,0,0,1,.65-1.22l2.35-.55-1-.34c-1.06.14-2.13.26-3.2.35a.69.69,0,0,1-.48-1.23,13.93,13.93,0,0,1,2.83-1.43.71.71,0,0,1-.08-1.42l1.52-.23a.68.68,0,0,1,.6-.66,129,129,0,0,1,16.78-1.18c.14-1.44.22-2.88.25-4.28.11-5.6-.27-11.66-2-17a26.92,26.92,0,0,0-2.59-5.57,12.21,12.21,0,0,0-1.16-3.66,36.23,36.23,0,0,0-8.41-15.56c-3.19-5.39-7.8-9.62-12.93-13.33a13.29,13.29,0,0,0-1.53-1.65c-3.73-3.31-8.79-5.87-13.15-8.27-3.56-2-7.79-4.59-12-4.22a23.64,23.64,0,0,0-4.53-2.69c-2-1.53-4.2-2.14-6.37-3.56a3.11,3.11,0,0,0-1.74-.48,43.73,43.73,0,0,0-7.11-5.08c-.77-.43-2,.3-1.43,1.22a40,40,0,0,0,4.93,6.59,2.26,2.26,0,0,0,.5,2.3l2.24,2.48a2.79,2.79,0,0,0,.49.42A15.43,15.43,0,0,0,173.38,87c1.93,1.48,3.93,2.83,5.94,4.18a2.21,2.21,0,0,0,1.53,2.09l2.27.82a3.74,3.74,0,0,0,.18,1.06,27,27,0,0,1,1.25,6.2,9.57,9.57,0,0,1-1.35,2.12,3.41,3.41,0,0,0-1.26.53c-.79.57-1.59,1.13-2.39,1.69-5.42-.31-10.34-1.16-13.88-6.29A62.88,62.88,0,0,1,161,91.33q-2.07-5.51-4.37-10.93a2.68,2.68,0,0,0-.59-.87c-.08-.19-.15-.39-.22-.58a2.64,2.64,0,0,0-2.51-1.85c-1.67-5.16-4.46-10-8.79-13.34-1.83-1.41-4.87.57-3.34,2.72.84,1.19,1.59,2.39,2.3,3.6.18,1.15.38,2.28.59,3.41a26.45,26.45,0,0,0-3.34-4.57,3.63,3.63,0,0,0-4.59-.35c-5.54-6.48-12.72-13.19-21.16-14.15a2.31,2.31,0,0,0-.52-.06,18,18,0,0,0-3.87.09,3,3,0,0,0-2.07,1.16l-1.55-.1a2.49,2.49,0,0,0-1,0c-1.59,0-3.18,0-4.79.07-2.67.13-3.13,4.26-.38,4.72l3,.47a40.23,40.23,0,0,0,6.6,14.63l0,0Q108.62,77,107,78.59a2.56,2.56,0,0,0-2,1c-.23.28-.47.54-.71.81a2.69,2.69,0,0,0-1.57.19c-.5.21-1,.43-1.44.66a29.72,29.72,0,0,0-10-4.82A66.7,66.7,0,0,0,87,64.31C84.64,59,81.2,53.2,76.06,50.17c-1.36-.8-3.26.81-2.31,2.22.43.64.87,1.27,1.3,1.89l-.12,0a13.82,13.82,0,0,0-1.49-1c-1.61-1.57-3.35-3-4.64-4.1-6-5.27-11-6.62-19-6.76a2.09,2.09,0,0,0-1.69.73c-1.85-.42-3.56-.36-4.81.6a1,1,0,0,0-.34,1c.6,2.33,2.57,2.81,4.61,3.67.58.79,1.23,1.54,1.87,2.31A8.16,8.16,0,0,0,51.8,54c1.37,2.12,2.66,4.28,4,6.41a2.13,2.13,0,0,0,1.38,1,86.75,86.75,0,0,0,7.46,21.8,3.18,3.18,0,0,0,1.58,1.56c.58,1.25,1.21,2.47,1.87,3.68q.89,2.4,1.75,4.8a2.66,2.66,0,0,0,2.53,1.88,39.34,39.34,0,0,0,3.75,4.44,3.19,3.19,0,0,0,4.6.28,2.47,2.47,0,0,0,1.37.73,60.86,60.86,0,0,0,18.66.78c4-.5,8-1.06,11.18-3.16a2.08,2.08,0,0,0,2.45,1.26,54.64,54.64,0,0,0,8.92-2.23,3,3,0,0,0,3.76.17,3.13,3.13,0,0,0,3,1.42l-.17,6.75A3.29,3.29,0,0,0,133,109c-.38,1.3-.77,2.6-1.16,3.9l-.64.62a2.51,2.51,0,0,0-2.38,2.14q-1.74,1.47-3.62,2.78a6,6,0,0,1-1.54-.71,3.17,3.17,0,0,0-3.51,0l-.44-.69a2.88,2.88,0,0,0-3.34-1c-.32-.78-.61-1.5-.88-2.1-1.24-2.69-5.33-1.49-4.51,1.47,1.78,6.36,4.7,16.2,11.86,18.55.33.64.66,1.28,1,1.92a3,3,0,0,0,1.48,1.42c0,.09.07.18.11.26a2.75,2.75,0,0,0,3.1,1.77,3.22,3.22,0,0,0,2.9.24,2.91,2.91,0,0,0,2.53.62c.1.33.19.67.29,1,.88,2.85,4.48,2.16,5.55,0a3.23,3.23,0,0,0,1.89-.59c5.32.62,10.7,0,16.12,0a29.52,29.52,0,0,1,5.66.55,37.51,37.51,0,0,1,3.88,4.39A25,25,0,0,1,172,155.76a15.73,15.73,0,0,0-.48,3,10.77,10.77,0,0,0-2.71,4.57,9.45,9.45,0,0,1-2.43-.87,3.9,3.9,0,0,0-1.67-1.34,3,3,0,0,0-4.7,1.32,2.62,2.62,0,0,0-.4,1.92,3,3,0,0,0,2.36,2.89,5.45,5.45,0,0,0,1.28.63l.37.11a25,25,0,0,0,2.81,1.92,10.5,10.5,0,0,0,4.08.92,10.75,10.75,0,0,0,6.48-1.89,24.1,24.1,0,0,0,3.89-.87c1.1-.27,2.2-.56,3.29-.87a3.38,3.38,0,0,0,1.32-.19c1.31-.45,2.59-.94,3.86-1.46.76-.26,1.52-.53,2.27-.82l6.23-1.85a3.06,3.06,0,0,0,3.09-.75,4,4,0,0,0,1.06.16l3.26,1.21c.72.27,1.45.56,2.19.82a3,3,0,0,0,3,.68l.08,0a7.07,7.07,0,0,0,3.41-.54,8.69,8.69,0,0,1,1,0l.18.46c.22.6,1.14,3.5,1.92,6Z"/><path class="cls-2" d="M221.15,175.88c-.17-1.08-.29-2.16-.37-3.25-1,.32-2,.66-2.95,1,.19.64.31,1.06.3,1.07-1.36,1-1.36,3.58.66,3.93.76.13,1.51.28,2.26.43C221.07,178,221.11,177,221.15,175.88Z"/><path class="cls-3" d="M215.79,168.92c.67-1.07,1.29-2.17,1.89-3.3l-.73.08a.89.89,0,0,1-.52-1.69c.47-.21.95-.39,1.43-.58l-1.24.11a.82.82,0,0,1-.92-.76.91.91,0,0,1,.65-1.22l2.35-.55-1-.34c-1.06.14-2.13.26-3.2.35a.69.69,0,0,1-.48-1.23,13.93,13.93,0,0,1,2.83-1.43.71.71,0,0,1-.08-1.42l1.52-.23a.68.68,0,0,1,.6-.66c1-.14,2-.26,3-.38,3.68-11.56,4-24.41-1-35.29-3.27-7.24-7.84-14.94-14-20.09-6.79-5.64-14.39-11.35-22.28-15.38A1,1,0,0,0,183.13,86a1,1,0,0,0,.18.4,55,55,0,0,1,7.94,14.13c1.71,4.72,2.36,9.72,3.76,14.52.13.45.29.89.43,1.33a30.13,30.13,0,0,1-4,.79,36.24,36.24,0,0,1-18.2-2.66c-6.6-2.63-13.49-5.26-16.65-12-2.78-5.92-3.49-12.49-6.08-18.43a.63.63,0,0,0-1.19.19c0,.17,0,.34,0,.52a.9.9,0,0,0-.76.53,21.72,21.72,0,0,0-2,9.19A49.37,49.37,0,0,0,140.69,82a45,45,0,0,0-6.26-7.32,1.3,1.3,0,0,0-.31-.31l-1.08-1a30.6,30.6,0,0,0-21.48-13.51,1,1,0,0,0-.67,1.8,1,1,0,0,0,.34.87,78.67,78.67,0,0,1,13.54,13.78c-2.54,1.68-4.89,3.7-7.51,5.26s-5.59,2.87-8.33,4.4a34.5,34.5,0,0,1-15.27.24c-6.38-1.35-13.74-4.54-18.24-9.32a26.72,26.72,0,0,1-3.51-4.8c-2.08-4-3.88-8.17-5.82-12.09a.86.86,0,0,0-.2-.26c-.25-.47-.51-1-.78-1.41a1,1,0,0,0-.51-.41c-.14-.37-.28-.75-.43-1.12A.73.73,0,0,0,62.8,57c-.17,7.72,4,16.45,7.7,23.05S78.68,90.69,86,93.15a46.22,46.22,0,0,0,24.57,1.35c4.23-.93,8.2-2.67,12.32-3.94l.6-.17c1.15.73,2.5,1.23,3.69,2a28.22,28.22,0,0,1,6.78,5.82c.42.49.8,1,1.17,1.52,1.2,5.53,2.12,11.15,3.9,16.45a28.28,28.28,0,0,0,4.81,10.6c-7.81,3.4-15.42,3-21.26-4.08a.74.74,0,0,0-.3-.23,1.12,1.12,0,0,0-2,.87c1.43,8.15,11.19,12.67,18.73,13.85,4.59.72,8.89-1,13-2.76,2.18-.9,4.33-1.85,6.45-2.87,5.16,2,10.76,2.65,15.82,5.32,5.64,3,15.95,9.4,11.74,17.17-.49.9.65,2.22,1.49,1.32a11.37,11.37,0,0,0,1.63-2.25c4.73-5.38,8.35-13.24,8-20.33,5,4.38,10.82,9.25,13,15.41,1.67,4.76.76,10.17,1.85,15.05-.08.89-.2,1.78-.36,2.64s1,1.31,1.64.91c.07.12.12.26.2.39a1.2,1.2,0,0,0,.9.59c0,.21-.1.41-.14.61C214.06,169.19,215.37,169.61,215.79,168.92Zm-46.06-44.07-.08,0a2.16,2.16,0,0,0,1,0,14,14,0,0,0,1.52.71A19.72,19.72,0,0,1,169.73,124.85Zm42.56-13.42c-1.55-2.08-3.21-4.28-5-6.42a48.22,48.22,0,0,1,5.2,6.7Z"/><path class="cls-4" d="M216.43,164c.36-.16.73-.3,1.1-.44l.06-.11-1,.08a.82.82,0,0,1-.92-.76.91.91,0,0,1,.65-1.22l2.35-.55-1-.34c-1.06.14-2.13.26-3.2.35a.69.69,0,0,1-.48-1.23,13.93,13.93,0,0,1,2.83-1.43.71.71,0,0,1-.08-1.42l1.52-.23a.68.68,0,0,1,.6-.66l1-.12c.13-1.1.22-2.2.3-3.26A61.32,61.32,0,0,0,219,135.84c-2.35-11.29-7.92-23.19-16.84-30.9a1.21,1.21,0,0,0-1.81,1.61c6,8.53,11,17,13.33,27.22A63,63,0,0,1,215.34,149c-.09,5.66-1.78,10.62-2.79,16.1a1.41,1.41,0,0,0,2.28,1.42,10.53,10.53,0,0,0,1.31-1.16A.83.83,0,0,1,216.43,164Z"/><path class="cls-4" d="M167.8,115.3c-2.18,4-4.28,8.62-7.21,12.12-3.53,4.23-8.49,6.17-13.92,6.65s-11.73.27-16.56-2.36c-4.53-2.46-6.24-7.08-10-10.17a1.06,1.06,0,0,0-1.64.78c.19,5.19,5.31,10.51,9.61,13.06,5.4,3.2,12.65,3.94,18.85,3.47,13.31-1,21.65-10.11,23.21-22.8A1.28,1.28,0,0,0,167.8,115.3Z"/><path class="cls-4" d="M137.41,77.85a42.87,42.87,0,0,0-10.14-10.46c-4.43-3.08-10-6.9-15.27-8.14-1-.23-2,.86-1.17,1.71,2.91,3.2,7.12,5.12,10.76,7.39a38.92,38.92,0,0,1,11.35,10.44c6.22,8.57,11.18,18.5,10.44,29.33-.13,1.87,2.82,2.28,3.29.49C149.67,97.17,144.06,87,137.41,77.85Z"/><path class="cls-4" d="M127.16,81.94c-11.49,5.54-28,4.83-39.58-.14A36.25,36.25,0,0,1,73.39,71.37c-3.39-4.29-5.06-10.59-9-14.24-.48-.44-1.51-.34-1.51.47,0,6.29,5.11,14,9.16,18.61a40,40,0,0,0,16.65,11A57.24,57.24,0,0,0,111.1,90.1c6.35-.34,13.63-.93,17.65-6.42C129.49,82.66,128.22,81.42,127.16,81.94Z"/><path class="cls-4" d="M200.37,144.91c-.14-.68-1.3-.92-1.49-.14-1.51,6.33-4.29,11.28-10.19,14.72a30.84,30.84,0,0,1-9.23,3.33c-2.63.56-5.73.42-8,1.85a.82.82,0,0,0,.06,1.49c5.84,2.53,15.95-1.63,20.81-5S201.6,151.22,200.37,144.91Z"/><path class="cls-4" d="M53.38,46.89C52.76,46,51.16,47,51.74,48A184.81,184.81,0,0,1,61.86,67.52a.84.84,0,0,0,1.58-.5C62.42,59.59,57.47,53,53.38,46.89Z"/><path class="cls-4" d="M90.33,97.64c-2.63-.37-5.7-.56-8-2-2.48-1.52-4.58-4.39-6.53-6.5a1.16,1.16,0,0,0-1.75,1.53c2.22,2.6,4.23,6,7.35,7.58,2.82,1.48,5.93,1.27,9,.79A.72.72,0,0,0,90.33,97.64Z"/><path class="cls-4" d="M189.54,113a40,40,0,0,0-7.63-2.13,57.81,57.81,0,0,0-6.88-1.39.53.53,0,0,0-.39,1c4,2.7,9.89,4.56,14.76,4A.74.74,0,0,0,189.54,113Z"/><path class="cls-4" d="M215.64,105.1a.91.91,0,0,0-1.39,1.17c4.87,7,9.9,13.29,12.44,21.56s1.81,16.6.62,25.15a1,1,0,0,0,1.78.62C238.43,137.13,228.52,116.71,215.64,105.1Z"/><path class="cls-5" d="M189.55,94.08a1.12,1.12,0,0,0-2,1c3.22,6.63,7.36,13.31,9.61,20.32,2.4,7.45,1.4,14.66-.39,22.09-.23.95,1.09,1.87,1.68.86C207.35,123,197.09,107.45,189.55,94.08Z"/><path class="cls-5" d="M187.66,143.47c-5.77-.83-11.53-.17-16.17-4.45-.88-.82-2.33.32-1.46,1.24,4.3,4.51,11.58,6.88,17.73,5A.91.91,0,0,0,187.66,143.47Z"/><path class="cls-5" d="M151,82.33a.72.72,0,0,0-1.2.74c3.08,7,5.77,13.61,6.24,21.33.44,7.33-1.45,13.81-3.36,20.78-.28,1,1.11,1.87,1.76.88C162.43,113.88,160.68,93.18,151,82.33Z"/><path class="cls-6" d="M157.69,55.61c1.79,8,4.16,16.6,11.7,21.07,3.94,2.33,8.42,3.42,12.72,4.87a100.72,100.72,0,0,1,11.82,4.78,74.14,74.14,0,0,1,20.61,14.36,58,58,0,0,1,13.62,22.2c3.41,10.09,4.45,20.77,6.15,31.23.18,1.16,2.16,1.08,2.1-.14-.86-18.24-4.15-37.57-16.47-51.81a73.59,73.59,0,0,0-19.49-15.56,96,96,0,0,0-11.63-5.55c-4.06-1.63-8.24-2.8-12.38-4.19-4.82-1.63-9-4-11.71-8.39-2.54-4-3.8-8.71-5-13.29-.34-1.28-2.34-.9-2,.42Z"/><path class="cls-6" d="M157.23,54.75c-.79,3.54-.24,7.47.55,11a40.39,40.39,0,0,0,4.34,10.92,49.17,49.17,0,0,0,7,9.45A80.74,80.74,0,0,0,178.37,94c1.71,1.35,3.44,3.06,3.73,5.33a3.54,3.54,0,0,1-.82,2.83,5.3,5.3,0,0,1-1.16,1c-.76.51-1.42,1.1-2.17,1.61-1,.66-.62,2.48.75,2.13a10.89,10.89,0,0,0,3-1,8.16,8.16,0,0,0,2.3-2,6.83,6.83,0,0,0,1-5.79c-1.1-4.38-5.21-6.67-8.5-9.27a46.37,46.37,0,0,1-14.68-19.7,41.46,41.46,0,0,1-1.87-6.64c-.48-2.51-.51-5-.82-7.55-.11-.93-1.67-1.09-1.88-.15Z"/><path class="cls-6" d="M134.76,61.2a30.6,30.6,0,0,1,13.33,8,42.14,42.14,0,0,1,7.06,11.49c3.64,8.07,6.61,17.24,13.7,23,2.36,1.92,5.14,3.58,8.26,3.69a7.14,7.14,0,0,0,6.78-3.54c.74-1.31-1-3-2.12-1.77a6.35,6.35,0,0,1-6.19,1.47,14.65,14.65,0,0,1-6-3.73,35.22,35.22,0,0,1-7.13-10.43c-3.79-7.82-6.5-16.59-12.78-22.88A26.27,26.27,0,0,0,135.19,59c-1.28-.19-1.63,1.82-.43,2.22Z"/><path class="cls-6" d="M133.31,59.35A23,23,0,0,0,135.63,62c.76.86,1.52,1.73,2.2,2.66A32,32,0,0,1,141.41,71c2,4.62,2.36,9.56,2.76,14.51a.9.9,0,0,0,1.72.14c1.55-5.13.35-10.68-1.68-15.53a30,30,0,0,0-3.94-6.68,25.15,25.15,0,0,0-2.66-3,10.73,10.73,0,0,0-3.15-2.35c-.7-.27-1.59.56-1.15,1.26Z"/><path class="cls-6" d="M144.26,74.24c-.5-4-4.3-7.19-7.35-9.49-3.53-2.67-7.16-5.29-10.87-7.72a28.88,28.88,0,0,0-22-4.08,23.78,23.78,0,0,0-11.51,5.34,1,1,0,0,0,1.07,1.62c6.53-2.56,13-5,20.13-4,7.74,1.05,13.77,6.51,19.89,10.9a29.46,29.46,0,0,1,4.81,4.1c1.38,1.51,2.44,3.24,4.17,4.4a1.05,1.05,0,0,0,1.61-1.07Z"/><path class="cls-6" d="M92.92,59.32a22.34,22.34,0,0,0,4.65,1,6.59,6.59,0,0,1,3.84,1.8,19.33,19.33,0,0,1,5.14,6.5c1,2.39,1.3,5.37-.1,7.67a7.4,7.4,0,0,1-2.29,2.27c-1,.65-2.17,1-3.11,1.64a1,1,0,0,0,.09,1.56c1.2.85,3.09.52,4.36,0a8.44,8.44,0,0,0,3.68-3.14c2-3,2.1-6.92.93-10.22a21,21,0,0,0-6.49-8.7,8.56,8.56,0,0,0-5-2.39,22.33,22.33,0,0,0-5.6.06,1,1,0,0,0-.14,1.9Z"/><path class="cls-6" d="M69.26,45.55a3.53,3.53,0,0,0,1.62,1.64c.81.56,1.6,1.13,2.39,1.71A40.35,40.35,0,0,1,84.42,61.63a38.66,38.66,0,0,1,2.37,5.1c.73,1.93,1.24,3.93,2.15,5.78a19.28,19.28,0,0,0,8.49,8.13c2.94,1.46,9.43,2.12,9.88-2.54a.83.83,0,0,0-1.17-.82,9.15,9.15,0,0,1-4.23,1.61,9,9,0,0,1-5.11-2,19.93,19.93,0,0,1-4.15-3.73,17.07,17.07,0,0,1-2.58-5.26A42.65,42.65,0,0,0,79,50.58a42.12,42.12,0,0,0-4.45-3.65c-1.19-.85-3.3-2.6-4.86-2.23a.62.62,0,0,0-.45.85Z"/><path class="cls-6" d="M68.71,45a7.32,7.32,0,0,0,1.21,1.89,24.27,24.27,0,0,1,1.45,2.4,27.54,27.54,0,0,1,2,4.93c1.06,3.4,1.14,6.89,1.52,10.4a.87.87,0,0,0,1.66.14c1.15-3.86.34-8.13-1-11.85A26.57,26.57,0,0,0,73,47.57c-.76-1.19-2.15-3.94-3.87-3.34a.71.71,0,0,0-.41.78Z"/><path class="cls-6" d="M74.71,51.71c-2.32-3-5.77-5.16-9.11-6.84a41.47,41.47,0,0,0-11-3.76,42.16,42.16,0,0,0-11.49-.57c-3.79.35-7.81,1.06-11.06,3.15-.81.52-.53,1.91.56,1.71,3.53-.67,7-1.7,10.58-2a39.8,39.8,0,0,1,21.09,4,75,75,0,0,1,9,6c1.07.74,2.2-.69,1.44-1.65Z"/><path class="cls-6" d="M33,45.48a15.87,15.87,0,0,1,13.39,3.68c4,3.36,6.52,8.14,8.3,13C56.59,67.42,58,72.86,60,78.1a95.62,95.62,0,0,0,7.24,15.56,21.23,21.23,0,0,0,12.3,9.56c5.59,1.68,11.68,1.8,17.45,1.31a139,139,0,0,0,18.22-3.13c4.77-1.06,10.54-3,14,1.71a7.31,7.31,0,0,1-3.7,11.31c-5.62,1.84-10.69-3.53-14.92-6.32-1-.65-2.41.51-1.77,1.6,2.86,4.85,7.87,8.87,13.66,9.19a11.8,11.8,0,0,0,11.68-8.32c1.56-5-1.06-10.41-5.46-12.93a13,13,0,0,0-8.57-1.21c-3.31.5-6.55,1.41-9.81,2.12A87.38,87.38,0,0,1,90.7,101c-5.66-.08-12.26-.87-16.68-4.77a24.07,24.07,0,0,1-5.09-7c-1.49-2.82-2.84-5.73-4.09-8.67C62.43,75,60.65,69.11,58.59,63.34c-2.15-6.05-4.94-12.12-10.07-16.21C44,43.5,38,41.4,32.26,43.45c-1.17.42-.47,2.28.71,2Z"/><path class="cls-6" d="M109,109c-1,5.44.65,11.49,2.94,16.4a36.41,36.41,0,0,0,10.51,13.22c5,3.89,11.18,6.62,17.61,6.2,3.57-.24,7.06-1.16,10.64-1.32a31.23,31.23,0,0,1,10.65,1.34c3,.92,6.27,2.42,8.07,5.14a9.13,9.13,0,0,1,.76,8.4c-.42.94.85,1.65,1.56,1.08a6.32,6.32,0,0,0,2.53-4.15,9.68,9.68,0,0,0-.37-4.5,13.06,13.06,0,0,0-5.49-6.78c-5.54-3.65-13.11-4.66-19.59-4-3.69.37-7.34,1.38-11.07,1.22a22.62,22.62,0,0,1-9.26-2.8,31.69,31.69,0,0,1-12.09-11.15,33,33,0,0,1-3.84-8.54,50.18,50.18,0,0,1-1.42-9.9c-.1-1.33-1.94-.94-2.14.14Z"/><path class="cls-6" d="M155.41,152.85a10.57,10.57,0,0,0,3.07,6.38,15.65,15.65,0,0,0,5.39,3.82,7.23,7.23,0,0,0,6.87-.4A5.93,5.93,0,0,0,173,160a4.91,4.91,0,0,0,.4-1.72,5.72,5.72,0,0,0-.25-1.43c-.19-.74-1.37-1-1.62-.14a9.56,9.56,0,0,1-.62,1.34,5.9,5.9,0,0,1-.75,1.16,4.41,4.41,0,0,1-1.84,1.33c-1.59.56-3.11-.06-4.5-.83A13.19,13.19,0,0,1,160,156.5a46.36,46.36,0,0,1-2.8-4.24,1,1,0,0,0-1.77.59Z"/><path class="cls-6" d="M216.11,174.75a7,7,0,0,1-.06.92l.07-.48a6.26,6.26,0,0,1-.44,1.59l.18-.43a5.63,5.63,0,0,1-.6,1.07,1.82,1.82,0,0,0-.18,1.39,1.87,1.87,0,0,0,.83,1.08,1.83,1.83,0,0,0,1.39.18l.43-.18a1.84,1.84,0,0,0,.65-.65,7.87,7.87,0,0,0,1.34-4.49,1.81,1.81,0,0,0-1.8-1.8,1.79,1.79,0,0,0-1.28.53,1.89,1.89,0,0,0-.53,1.27Z"/><path class="cls-6" d="M154.75,152.73c.53,8,3.93,17.17,12.09,20.07,5,1.77,10.59.24,15.45-1.24,6-1.83,12-3.74,18.05-5.49,2.84-.83,5.44-1.7,8.33-.56a14.32,14.32,0,0,1,6,5.11c1.34,1.87,4.47.07,3.12-1.82-2.83-3.94-6.87-7.35-12-7.5-2.75-.09-5.49,1-8.09,1.77-2.94.87-5.86,1.77-8.79,2.66s-5.83,1.83-8.76,2.69a31,31,0,0,1-8.53,1.56,11.32,11.32,0,0,1-9.2-4.82,23.69,23.69,0,0,1-4.12-12.43c-.15-2.31-3.76-2.32-3.61,0Z"/><path class="cls-2" d="M219.52,158.21a27.28,27.28,0,0,0-2.6-5.58,12,12,0,0,0-1.16-3.65,36.2,36.2,0,0,0-8.41-15.57c-3.18-5.39-7.8-9.62-12.93-13.33a12.46,12.46,0,0,0-1.52-1.64c-3.73-3.32-8.8-5.87-13.16-8.28-3.56-2-7.79-4.59-12-4.21a23.4,23.4,0,0,0-4.52-2.7c-2-1.53-4.21-2.13-6.38-3.56a3.08,3.08,0,0,0-1.74-.47A42.55,42.55,0,0,0,148,94.14c-.77-.43-2,.3-1.43,1.21a39.64,39.64,0,0,0,4.93,6.6,2.25,2.25,0,0,0,.5,2.29l2.24,2.48a2.73,2.73,0,0,0,.49.42A15.59,15.59,0,0,0,159,111.7c1.93,1.47,3.94,2.82,5.94,4.17a2.24,2.24,0,0,0,1.54,2.1l2.27.81a3.2,3.2,0,0,0,.18,1.07,28.1,28.1,0,0,1,1.25,6.19,9.18,9.18,0,0,1-1.36,2.12,3.27,3.27,0,0,0-1.26.54l-2.38,1.68c-5.43-.3-10.35-1.16-13.89-6.29a63.44,63.44,0,0,1-4.68-8.1q-2.07-5.51-4.37-10.94a2.53,2.53,0,0,0-.59-.86c-.07-.2-.15-.4-.22-.59a2.64,2.64,0,0,0-2.51-1.85c-1.67-5.16-4.46-10-8.79-13.34-1.83-1.4-4.86.57-3.34,2.73.84,1.18,1.59,2.38,2.3,3.59.19,1.15.39,2.29.59,3.41a26.45,26.45,0,0,0-3.34-4.57,3.65,3.65,0,0,0-4.59-.35c-5.54-6.47-12.72-13.19-21.16-14.15a3,3,0,0,0-.52,0,17.87,17.87,0,0,0-3.86.08,3,3,0,0,0-2.08,1.16l-1.55-.1a2.65,2.65,0,0,0-1,0c-1.58,0-3.18,0-4.78.06-2.68.14-3.13,4.27-.39,4.72,1,.17,2,.32,3,.47A40.26,40.26,0,0,0,96,100l0,0q-1.71,1.58-3.36,3.2a2.61,2.61,0,0,0-2,1c-.23.28-.47.55-.7.81a2.72,2.72,0,0,0-1.58.2q-.74.3-1.44.66a29.84,29.84,0,0,0-10-4.83A67,67,0,0,0,72.64,89c-2.35-5.26-5.78-11.11-10.92-14.13-1.37-.8-3.27.8-2.32,2.22l1.3,1.89-.12,0a12.48,12.48,0,0,0-1.49-1c-1.61-1.58-3.35-3-4.64-4.1-6-5.27-11-6.62-19-6.76a2,2,0,0,0-1.69.73c-1.84-.42-3.56-.37-4.81.59a1,1,0,0,0-.33,1c.59,2.33,2.56,2.81,4.6,3.67.58.79,1.24,1.54,1.87,2.32a8.16,8.16,0,0,0,2.32,3.29c1.37,2.11,2.66,4.28,4,6.4a2.13,2.13,0,0,0,1.38,1,87.55,87.55,0,0,0,7.46,21.8,3.14,3.14,0,0,0,1.58,1.56c.59,1.25,1.21,2.48,1.87,3.68l1.76,4.8A2.64,2.64,0,0,0,58,119.76a38.26,38.26,0,0,0,3.75,4.45,3.18,3.18,0,0,0,4.59.28,2.52,2.52,0,0,0,1.37.72A60.57,60.57,0,0,0,86.4,126c4-.5,8-1.06,11.18-3.16a2.07,2.07,0,0,0,2.45,1.26,55.66,55.66,0,0,0,8.92-2.22,3,3,0,0,0,3.76.17,3.18,3.18,0,0,0,3,1.42l-.17,6.74a3.28,3.28,0,0,0,3.11,3.47l-1.17,3.91-.63.61a2.51,2.51,0,0,0-2.38,2.14c-1.17,1-2.37,1.91-3.62,2.79a5.94,5.94,0,0,1-1.55-.72,3.17,3.17,0,0,0-3.51.06c-.15-.23-.29-.47-.44-.69a2.89,2.89,0,0,0-3.34-1c-.31-.78-.61-1.49-.88-2.09-1.24-2.7-5.33-1.5-4.5,1.46,1.77,6.36,4.69,16.21,11.85,18.56.33.64.67,1.27,1,1.92a3,3,0,0,0,1.47,1.41l.11.27a2.77,2.77,0,0,0,3.1,1.77,3.27,3.27,0,0,0,2.91.23,2.92,2.92,0,0,0,2.52.63c.1.33.19.66.29,1,.89,2.86,4.48,2.16,5.56,0a3.24,3.24,0,0,0,1.88-.6c5.33.63,10.7,0,16.12,0a29.44,29.44,0,0,1,5.66.56,36.56,36.56,0,0,1,3.88,4.38,25,25,0,0,1,4.67,10.14,16.27,16.27,0,0,0-.48,3,10.62,10.62,0,0,0-2.7,4.56,9.16,9.16,0,0,1-2.43-.86,3.81,3.81,0,0,0-1.67-1.34,3,3,0,0,0-4.7,1.31,2.53,2.53,0,0,0-.4,1.92,3,3,0,0,0,2.35,2.9,5.86,5.86,0,0,0,1.28.62,2.26,2.26,0,0,0,.37.11,25.17,25.17,0,0,0,2.81,1.93,11,11,0,0,0,10.56-1,23.08,23.08,0,0,0,3.89-.87c1.11-.26,2.2-.55,3.29-.86a3.37,3.37,0,0,0,1.32-.2c1.31-.45,2.59-.94,3.87-1.45l2.26-.82,6.23-1.85a3.07,3.07,0,0,0,3.09-.76,3.64,3.64,0,0,0,1.06.16l3.26,1.22c.73.26,1.45.55,2.19.81a3,3,0,0,0,3,.69l.07,0a6.94,6.94,0,0,0,3.41-.54,8.69,8.69,0,0,1,1,0l.18.46c.4,1.1,3.12,9.76,3.06,9.8-1.36,1-1.36,3.59.66,3.94.94.16,1.86.33,2.79.52a1.6,1.6,0,0,0,2.42.67c8.61-6.84,11.67-18.82,11.87-29.25C221.63,169.65,221.25,163.58,219.52,158.21Z"/><path class="cls-3" d="M206.54,145c-3.28-7.24-7.85-14.94-14-20.09-6.78-5.64-14.39-11.35-22.27-15.38a1,1,0,0,0-1.45,1.11,1.12,1.12,0,0,0,.18.41,54.92,54.92,0,0,1,7.94,14.12c1.71,4.73,2.36,9.72,3.76,14.53.13.45.29.88.43,1.33a30.29,30.29,0,0,1-4,.78,36.15,36.15,0,0,1-18.21-2.66c-6.59-2.63-13.49-5.25-16.65-12-2.78-5.91-3.48-12.48-6.07-18.42A.63.63,0,0,0,135,109c0,.17,0,.35-.05.52a.9.9,0,0,0-.76.53,21.75,21.75,0,0,0-2,9.19,49.37,49.37,0,0,0-5.83-12.58,45.45,45.45,0,0,0-6.26-7.32,1.11,1.11,0,0,0-.31-.3c-.35-.35-.71-.69-1.07-1A30.68,30.68,0,0,0,97.21,84.47a1,1,0,0,0-.67,1.81,1,1,0,0,0,.34.86,79.09,79.09,0,0,1,13.55,13.78c-2.54,1.68-4.9,3.71-7.52,5.26s-5.59,2.87-8.33,4.41a34.46,34.46,0,0,1-15.26.23c-6.39-1.34-13.75-4.53-18.25-9.32a26.37,26.37,0,0,1-3.51-4.8c-2.08-4-3.88-8.17-5.82-12.08a.88.88,0,0,0-.19-.26c-.26-.48-.52-1-.79-1.42a.9.9,0,0,0-.51-.4c-.14-.38-.27-.75-.42-1.12a.73.73,0,0,0-1.38.22c-.17,7.73,3.95,16.45,7.71,23s8.17,10.65,15.45,13.12a46.22,46.22,0,0,0,24.57,1.34c4.24-.93,8.2-2.66,12.32-3.94l.6-.16c1.15.72,2.5,1.23,3.69,2a28.19,28.19,0,0,1,6.79,5.81c.41.5.79,1,1.16,1.52,1.21,5.53,2.12,11.16,3.9,16.46a28.35,28.35,0,0,0,4.81,10.6c-7.8,3.39-15.42,3-21.26-4.09a.81.81,0,0,0-.3-.22,1.12,1.12,0,0,0-2,.87c1.44,8.14,11.19,12.67,18.73,13.85,4.6.72,8.9-1,13-2.77,2.17-.9,4.33-1.85,6.44-2.86,5.16,2,10.76,2.64,15.82,5.31,5.65,3,16,9.41,11.74,17.18-.49.89.65,2.22,1.49,1.31a10.71,10.71,0,0,0,1.63-2.25c4.73-5.38,8.35-13.24,8-20.33,5,4.39,10.82,9.25,13,15.42,1.67,4.76.76,10.17,1.86,15-.09.89-.2,1.77-.37,2.63s1,1.31,1.64.91l.2.39a1.2,1.2,0,0,0,.9.59c-.05.21-.1.41-.14.62-.17.82,1.13,1.25,1.55.56C210.11,179.57,213.45,160.34,206.54,145Zm-51.16,4.47-.08,0a2.17,2.17,0,0,0,1,0,11.77,11.77,0,0,0,1.53.7A19.38,19.38,0,0,1,155.38,149.5Zm42.56-13.42c-1.54-2.08-3.21-4.28-5-6.42a50.32,50.32,0,0,1,5.21,6.7C198.08,136.27,198,136.17,197.94,136.08Z"/><path class="cls-4" d="M204.68,160.49c-2.35-11.28-7.92-23.19-16.83-30.9A1.22,1.22,0,0,0,186,131.2c6,8.53,11,17,13.33,27.23A63.47,63.47,0,0,1,201,173.66c-.1,5.67-1.79,10.62-2.79,16.1a1.4,1.4,0,0,0,2.27,1.42c4.34-3.16,4.91-8.88,5.27-13.86A60.94,60.94,0,0,0,204.68,160.49Z"/><path class="cls-4" d="M153.45,140c-2.18,4-4.28,8.62-7.2,12.13-3.53,4.23-8.5,6.17-13.93,6.65s-11.73.26-16.55-2.36c-4.53-2.47-6.25-7.09-10-10.18a1.05,1.05,0,0,0-1.63.78c.18,5.2,5.3,10.51,9.6,13.06,5.4,3.21,12.65,3.95,18.86,3.47,13.31-1,21.64-10.1,23.2-22.8A1.29,1.29,0,0,0,153.45,140Z"/><path class="cls-4" d="M123.07,102.51a42.88,42.88,0,0,0-10.14-10.46c-4.44-3.08-10-6.9-15.28-8.14-1-.23-2,.85-1.16,1.71,2.9,3.19,7.11,5.12,10.75,7.39a38.81,38.81,0,0,1,11.36,10.44c6.21,8.56,11.18,18.49,10.43,29.33-.13,1.86,2.82,2.28,3.29.48C135.32,121.82,129.71,111.66,123.07,102.51Z"/><path class="cls-4" d="M112.81,106.59c-11.49,5.55-28,4.83-39.58-.14A36.15,36.15,0,0,1,59,96C55.65,91.74,54,85.43,50,81.78c-.48-.44-1.51-.34-1.51.48,0,6.29,5.11,14,9.16,18.61a40,40,0,0,0,16.65,10.95,57.25,57.25,0,0,0,22.43,2.94c6.35-.35,13.63-.93,17.65-6.42C115.15,107.32,113.87,106.08,112.81,106.59Z"/><path class="cls-4" d="M186,169.56c-.13-.68-1.3-.91-1.49-.14-1.51,6.33-4.29,11.28-10.19,14.72a30.86,30.86,0,0,1-9.23,3.34c-2.63.55-5.73.42-8,1.85a.81.81,0,0,0,.06,1.48c5.85,2.53,16-1.62,20.81-5C183,182.26,187.26,175.87,186,169.56Z"/><path class="cls-4" d="M39,71.54c-.61-.91-2.22.12-1.64,1.07A184.66,184.66,0,0,1,47.51,92.17a.85.85,0,0,0,1.59-.5C48.07,84.24,43.12,77.64,39,71.54Z"/><path class="cls-4" d="M76,122.3c-2.63-.38-5.69-.56-8-2-2.48-1.52-4.57-4.38-6.53-6.49a1.16,1.16,0,0,0-1.75,1.53c2.22,2.6,4.23,5.94,7.36,7.58,2.81,1.48,5.93,1.27,9,.78A.72.72,0,0,0,76,122.3Z"/><path class="cls-4" d="M175.19,137.64a40,40,0,0,0-7.63-2.12,57.44,57.44,0,0,0-6.88-1.4.54.54,0,0,0-.39,1c4,2.69,9.89,4.56,14.76,4A.74.74,0,0,0,175.19,137.64Z"/><path class="cls-4" d="M201.29,129.76a.91.91,0,0,0-1.39,1.16c4.87,7,9.91,13.29,12.44,21.56s1.81,16.61.63,25.16a1,1,0,0,0,1.77.62C224.09,161.79,214.17,141.36,201.29,129.76Z"/><path class="cls-5" d="M175.2,118.74a1.12,1.12,0,0,0-2,1c3.22,6.62,7.36,13.3,9.62,20.31,2.39,7.45,1.4,14.66-.4,22.1-.23.94,1.09,1.86,1.68.85C193,147.69,182.74,132.11,175.2,118.74Z"/><path class="cls-5" d="M173.31,168.13c-5.77-.83-11.53-.18-16.16-4.46-.89-.82-2.34.33-1.47,1.24,4.3,4.51,11.58,6.88,17.73,5A.91.91,0,0,0,173.31,168.13Z"/><path class="cls-5" d="M136.61,107a.71.71,0,0,0-1.2.73c3.09,7,5.78,13.61,6.24,21.34.44,7.32-1.44,13.8-3.36,20.77-.28,1,1.11,1.87,1.77.89C148.08,138.54,146.33,117.83,136.61,107Z"/><path class="cls-6" d="M143.34,80.26c1.79,8,4.16,16.6,11.7,21.07,3.94,2.34,8.42,3.43,12.72,4.88A102.43,102.43,0,0,1,179.58,111a74,74,0,0,1,20.61,14.36,58,58,0,0,1,13.62,22.2c3.41,10.1,4.45,20.77,6.15,31.24.19,1.16,2.16,1.07,2.1-.15-.86-18.23-4.15-37.57-16.47-51.81a73.59,73.59,0,0,0-19.49-15.56,97.57,97.57,0,0,0-11.63-5.55c-4.06-1.62-8.24-2.79-12.38-4.19-4.82-1.62-9-4-11.71-8.39-2.53-4-3.8-8.71-5-13.28-.34-1.29-2.34-.91-2,.41Z"/><path class="cls-6" d="M142.88,79.41c-.79,3.54-.24,7.46.55,11a40.39,40.39,0,0,0,4.34,10.92,49.1,49.1,0,0,0,7,9.44,79.76,79.76,0,0,0,9.28,7.93c1.71,1.35,3.45,3.06,3.73,5.34a3.5,3.5,0,0,1-.82,2.83,5.94,5.94,0,0,1-1.16,1c-.75.5-1.42,1.09-2.17,1.6-1,.66-.62,2.49.75,2.13a10.25,10.25,0,0,0,3-1,8,8,0,0,0,2.3-2,6.83,6.83,0,0,0,1-5.8c-1.09-4.38-5.2-6.66-8.49-9.26a46.48,46.48,0,0,1-14.69-19.71,42.52,42.52,0,0,1-1.87-6.64c-.48-2.5-.51-5-.82-7.55-.11-.92-1.67-1.09-1.88-.14Z"/><path class="cls-6" d="M120.41,85.85a30.73,30.73,0,0,1,13.33,8,42.14,42.14,0,0,1,7.06,11.49c3.64,8.07,6.61,17.25,13.71,23.05,2.35,1.93,5.13,3.59,8.25,3.69a7.14,7.14,0,0,0,6.78-3.54c.75-1.31-1-3-2.12-1.76a6.37,6.37,0,0,1-6.19,1.46,14.65,14.65,0,0,1-5.95-3.73,35.38,35.38,0,0,1-7.12-10.43c-3.79-7.81-6.51-16.59-12.79-22.88a26.32,26.32,0,0,0-14.52-7.6c-1.29-.19-1.64,1.82-.44,2.21Z"/><path class="cls-6" d="M119,84a21.23,21.23,0,0,0,2.31,2.62c.77.87,1.52,1.73,2.2,2.66a31.77,31.77,0,0,1,3.58,6.35c2,4.62,2.36,9.57,2.76,14.52.07.88,1.47.95,1.72.14,1.55-5.13.35-10.69-1.68-15.53a29.72,29.72,0,0,0-3.94-6.68,25.15,25.15,0,0,0-2.66-3,10.9,10.9,0,0,0-3.15-2.35c-.69-.26-1.58.57-1.14,1.26Z"/><path class="cls-6" d="M129.92,98.9c-.5-4-4.31-7.2-7.35-9.5-3.54-2.66-7.17-5.28-10.87-7.71a28.87,28.87,0,0,0-22-4.09,24,24,0,0,0-11.51,5.34,1,1,0,0,0,1.07,1.63c6.53-2.57,13-5,20.14-4,7.73,1.06,13.76,6.51,19.88,10.91a29.4,29.4,0,0,1,4.81,4.09c1.38,1.52,2.45,3.25,4.18,4.41a1.06,1.06,0,0,0,1.61-1.07Z"/><path class="cls-6" d="M78.57,84a22.46,22.46,0,0,0,4.65,1,6.74,6.74,0,0,1,3.85,1.8,19.53,19.53,0,0,1,5.13,6.5c1,2.39,1.3,5.38-.1,7.67a7.37,7.37,0,0,1-2.28,2.27c-1,.65-2.17,1-3.11,1.64a1,1,0,0,0,.08,1.57c1.2.85,3.09.51,4.37,0a8.41,8.41,0,0,0,3.67-3.14,11.48,11.48,0,0,0,.94-10.22,21.07,21.07,0,0,0-6.5-8.7,8.52,8.52,0,0,0-5-2.38,21.87,21.87,0,0,0-5.6,0A1,1,0,0,0,78.57,84Z"/><path class="cls-6" d="M54.91,70.2a3.59,3.59,0,0,0,1.62,1.65c.81.56,1.6,1.12,2.39,1.71A40.09,40.09,0,0,1,70.07,86.28a38.25,38.25,0,0,1,2.38,5.11c.72,1.92,1.23,3.93,2.14,5.78a19.23,19.23,0,0,0,8.5,8.12c2.93,1.47,9.42,2.12,9.87-2.54a.82.82,0,0,0-1.17-.81,9.26,9.26,0,0,1-4.22,1.61,9.09,9.09,0,0,1-5.12-2,19.39,19.39,0,0,1-4.15-3.73,16.77,16.77,0,0,1-2.57-5.25,42.11,42.11,0,0,0-15.5-21c-1.19-.84-3.31-2.6-4.86-2.23a.62.62,0,0,0-.46.85Z"/><path class="cls-6" d="M54.36,69.66a7.37,7.37,0,0,0,1.21,1.9A25.34,25.34,0,0,1,57,74a27.89,27.89,0,0,1,2,4.93c1,3.41,1.13,6.89,1.51,10.4a.87.87,0,0,0,1.66.14c1.15-3.85.34-8.13-1-11.85a26.49,26.49,0,0,0-2.63-5.34c-.76-1.19-2.15-4-3.87-3.35a.72.72,0,0,0-.41.78Z"/><path class="cls-6" d="M60.37,76.36c-2.32-3-5.78-5.15-9.12-6.84A41.87,41.87,0,0,0,28.71,65.2c-3.78.34-7.81,1.06-11.06,3.14-.81.52-.53,1.92.56,1.71,3.54-.67,7-1.7,10.59-2a39.91,39.91,0,0,1,21.08,4,75,75,0,0,1,9,6c1.07.75,2.2-.68,1.45-1.65Z"/><path class="cls-6" d="M18.62,70.14A15.86,15.86,0,0,1,32,73.82c4,3.36,6.51,8.13,8.29,13,1.93,5.26,3.31,10.7,5.33,15.94a94.45,94.45,0,0,0,7.25,15.56,21.18,21.18,0,0,0,12.29,9.56,47.08,47.08,0,0,0,17.45,1.31,139,139,0,0,0,18.22-3.13c4.77-1.06,10.54-2.94,14,1.71a7.33,7.33,0,0,1-3.71,11.32c-5.62,1.83-10.69-3.54-14.92-6.32-1-.66-2.41.51-1.77,1.59,2.86,4.85,7.87,8.87,13.66,9.2a11.84,11.84,0,0,0,11.69-8.33c1.56-5-1.07-10.4-5.47-12.93a13,13,0,0,0-8.57-1.21c-3.3.51-6.55,1.42-9.81,2.13a86.71,86.71,0,0,1-19.63,2.46c-5.66-.08-12.26-.87-16.69-4.77a24,24,0,0,1-5.08-7c-1.5-2.83-2.85-5.73-4.1-8.67C48.08,99.61,46.3,93.77,44.24,88c-2.15-6-4.93-12.11-10.07-16.2-4.55-3.64-10.57-5.74-16.26-3.69-1.17.43-.47,2.29.71,2Z"/><path class="cls-6" d="M94.6,133.65c-1,5.43.65,11.49,2.94,16.4a36.57,36.57,0,0,0,10.51,13.21c5,3.9,11.19,6.63,17.61,6.2,3.57-.23,7.06-1.16,10.64-1.32A31.44,31.44,0,0,1,147,169.48c3,.92,6.27,2.43,8.08,5.15a9.13,9.13,0,0,1,.75,8.4c-.42.94.85,1.64,1.56,1.07a6.29,6.29,0,0,0,2.53-4.15,9.69,9.69,0,0,0-.37-4.5,13,13,0,0,0-5.49-6.78c-5.54-3.65-13.1-4.66-19.58-4-3.69.37-7.35,1.38-11.08,1.22a22.62,22.62,0,0,1-9.26-2.8A31.64,31.64,0,0,1,102,152a32.9,32.9,0,0,1-3.85-8.55,50.06,50.06,0,0,1-1.41-9.9c-.11-1.33-2-.94-2.15.15Z"/><path class="cls-6" d="M141.06,177.5a10.54,10.54,0,0,0,3.07,6.38,15.81,15.81,0,0,0,5.39,3.83,7.23,7.23,0,0,0,6.87-.4,6,6,0,0,0,2.26-2.7,5.09,5.09,0,0,0,.41-1.72,6.14,6.14,0,0,0-.26-1.42c-.19-.74-1.37-1-1.62-.15a9.09,9.09,0,0,1-.62,1.35,5.83,5.83,0,0,1-.75,1.15,4.31,4.31,0,0,1-1.84,1.34c-1.58.55-3.1-.07-4.5-.84a13.45,13.45,0,0,1-3.84-3.16,47.93,47.93,0,0,1-2.8-4.25,1,1,0,0,0-1.77.59Z"/><path class="cls-6" d="M140.78,177.33A28.61,28.61,0,0,0,146,193c3.29,4.37,8.37,5.79,13.65,5.16,5.72-.68,11.3-2.75,16.81-4.37l9.06-2.68c1.4-.41,2.8-.86,4.22-1.24a5.49,5.49,0,0,1,4,0,19.22,19.22,0,0,1,6.4,5.35,8.62,8.62,0,0,1,1.59,3.73,8.2,8.2,0,0,1-.22,3.69,1.07,1.07,0,0,0,1.7,1.16c4.5-4,1.42-10.08-2.24-13.42a21.12,21.12,0,0,0-6.49-4.44c-2.86-1-5.87.14-8.62,1q-9.28,2.81-18.55,5.61c-4.59,1.39-10.24,3.37-14.92,1.26-2.7-1.22-4.48-3.79-5.81-6.34a26.75,26.75,0,0,1-2.9-10c-.15-1.8-3-2-2.86-.1Z"/></g></g></g><g id="Layer_102" data-name="Layer 102"><g id="Espalda"><rect class="cls-7" width="275" height="259.5"/></g></g></g></g></svg>