<svg xmlns="http://www.w3.org/2000/svg" viewBox="0 0 160 195"><defs><style>.cls-1{isolation:isolate;}.cls-2{fill:#ff0;}.cls-3,.cls-5{fill:none;}.cls-4{fill:#fcd354;}.cls-5{mix-blend-mode:multiply;opacity:0.4;}</style></defs><g class="cls-1"><g id="Layer_2" data-name="Layer 2"><g id="Variacion_A" data-name="Variacion A"><g id="AssetsF2"><g id="LoinE2"><path class="cls-2" d="M111.14,106.36c.54-8.63,3-14.83-.07-21.21s-3.74-3.34-7.62-8.7-14.62-5.38-17.19-6.78c-2-1.06-6.31-7.4-8.27-10.35C83,49.5,89,44.51,90.22,40.5c1.28-4.17-.57-12.17-.69-12.67.1.4,1.32,6.1-3.47,12.14-5,6.27-9.36,7.47-12.81,11.66-2.36,2.86-5.74,12.36-7.13,20.8a16.34,16.34,0,0,0-4.74-6.17c-5-3.8-9.56-6.12-10.89-8.57S45,51.39,45,51.39s2.26,11,5.11,13.13,10.12,5.42,11.81,9.82c1,2.52,2.91,7.47,4.41,11.25,1.41,7.94,2.6,17,.37,20.48-2.5,3.87-11.14,9.3-14.59,13.48s4.21,29.32,4.21,29.32-6.07-24.13-.37-28.45,12.42-7.64,15.1-10.79,5-11.44,4.53-16.49a30.64,30.64,0,0,1,4-1.82c4.08-1.49,3-2.85,5.26-6.48,1.82-2.91,3-7.81,3.47-9.63,5,1.36,9.47.16,12.93,5.38,3.87,5.86,7.17,7.22,7.39,12.24S106.26,103,107.75,109s8.3,14.31,8.3,14.31S110.59,115,111.14,106.36ZM78.53,88.15c-1.45,2.57-2.57,3-3.28,2.81-.83-5.56-2.54-16.67.46-26.22,1.35,1.85,6,7.84,10.77,9.84C86.48,74.58,81.15,83.5,78.53,88.15Z"/><path class="cls-3" d="M111.14,106.36c.54-8.63,3-14.83-.07-21.21s-3.74-3.34-7.62-8.7-14.62-5.38-17.19-6.78c-2-1.06-6.31-7.4-8.27-10.35C83,49.5,89,44.51,90.22,40.5c1.28-4.17-.57-12.17-.69-12.67.1.4,1.32,6.1-3.47,12.14-5,6.27-9.36,7.47-12.81,11.66-2.36,2.86-5.74,12.36-7.13,20.8a16.34,16.34,0,0,0-4.74-6.17c-5-3.8-9.56-6.12-10.89-8.57S45,51.39,45,51.39s2.26,11,5.11,13.13,10.12,5.42,11.81,9.82c1,2.52,2.91,7.47,4.41,11.25,1.41,7.94,2.6,17,.37,20.48-2.5,3.87-11.14,9.3-14.59,13.48s4.21,29.32,4.21,29.32-6.07-24.13-.37-28.45,12.42-7.64,15.1-10.79,5-11.44,4.53-16.49a30.64,30.64,0,0,1,4-1.82c4.08-1.49,3-2.85,5.26-6.48,1.82-2.91,3-7.81,3.47-9.63,5,1.36,9.47.16,12.93,5.38,3.87,5.86,7.17,7.22,7.39,12.24S106.26,103,107.75,109s8.3,14.31,8.3,14.31S110.59,115,111.14,106.36ZM78.53,88.15c-1.45,2.57-2.57,3-3.28,2.81-.83-5.56-2.54-16.67.46-26.22,1.35,1.85,6,7.84,10.77,9.84C86.48,74.58,81.15,83.5,78.53,88.15Z"/><path class="cls-4" d="M78.3,88s.09.06.12,0l-.08-.12Z"/><path class="cls-4" d="M78.81,87.62c0-.12,0-.28-.18-.28.06.15,0,.14.08.31s-.12.12-.15.08-.1.11,0,.19a.34.34,0,0,0,.23-.35S78.8,87.6,78.81,87.62Z"/><path class="cls-4" d="M83.4,80.2l0,0A.08.08,0,0,0,83.4,80.2Z"/><path class="cls-4" d="M86.2,75.57s0,.06,0,.07S86.21,75.57,86.2,75.57Z"/><path class="cls-4" d="M87,74.51l0,.08A.19.19,0,0,0,87,74.51Z"/><path class="cls-4" d="M83.4,80.2l.11-.11S83.45,80.14,83.4,80.2Z"/><path class="cls-4" d="M79.14,86.42a.14.14,0,0,0,0,.09l0-.07Z"/><path class="cls-4" d="M82.29,82.31l0,0,0,.06Z"/><path class="cls-4" d="M81.39,83.89s-.07-.1-.1-.14a.18.18,0,0,1,0,.12A.15.15,0,0,0,81.39,83.89Z"/><path class="cls-4" d="M79.75,86.29v0Z"/><path class="cls-4" d="M83,81.19h0Z"/><path class="cls-4" d="M76.94,89.55h0S77,89.54,76.94,89.55Z"/><polygon class="cls-4" points="78.55 88.16 78.55 88.19 78.6 88.23 78.55 88.16"/><path class="cls-4" d="M85.32,73.38h0S85.34,73.38,85.32,73.38Z"/><path class="cls-4" d="M74.64,66.92c.14-.15.06.31.23.08C74.82,67,74.75,66.72,74.64,66.92Z"/><path class="cls-4" d="M79.18,86.39l0-.07Z"/><path class="cls-4" d="M74.87,67h0l0,0Z"/><path class="cls-4" d="M82.21,71.21a.06.06,0,0,0,0,.06A.09.09,0,0,0,82.21,71.21Z"/><path class="cls-4" d="M84.37,73.06l-.05,0Z"/><path class="cls-4" d="M81,70.33s0,0-.07-.08v0A.11.11,0,0,1,81,70.33Z"/><polygon class="cls-4" points="79.9 69.24 79.91 69.27 79.94 69.31 79.9 69.24"/><path class="cls-4" d="M75.38,88.62a.2.2,0,0,1-.09.09C75.37,88.67,75.43,88.9,75.38,88.62Z"/><path class="cls-4" d="M79.2,86.45s0,0,0-.06l0,0S79.19,86.46,79.2,86.45Z"/><path class="cls-4" d="M80.34,70.93l-.17-.19Z"/><path class="cls-4" d="M74.47,77.49v.06A.13.13,0,0,0,74.47,77.49Z"/><path class="cls-4" d="M79.63,70.23a.3.3,0,0,0,0-.16h0Z"/><path class="cls-4" d="M75.29,88.71Z"/><path class="cls-4" d="M75.79,90.29c0-.24-.16-.09-.25-.13-.08-.27.09-.14.15-.25s-.22-.28-.23-.41,0,0,.06,0c-.14-.17-.08-.54-.26-.74t0,0a.41.41,0,0,1-.19.06c0-.11-.12-.18,0-.24s0,.07.08.09l-.06-.1c.12-.12.07.14.17.13a1.93,1.93,0,0,1-.21-.61c.13-.06.1.38.19.14l0,.26c.19-.22,0,.16.21,0,0-.34-.12-.37-.12-.71-.09-.06-.11,0-.19,0-.2-.46.28-.42.06-.75-.1-.07-.27-.09-.21-.35l.16.07c0-.33-.24-.16-.18-.51.06,0,.08.25.09.19.09-.23-.1-.14-.13-.31l.14,0c-.07-.34-.2-.71-.27-1.09,0,0,.09.07.12,0a4.79,4.79,0,0,1,0-1.51l-.14-.16s0-.09.07,0c0-.19-.07,0-.12-.09s0-.14.09-.08a2.3,2.3,0,0,1-.18-1.24l0,.06c0-.27-.26-.28-.17-.53l0,0a6.39,6.39,0,0,1,0-1.65c-.17-.07.06-.57-.18-.6a2.22,2.22,0,0,0,.23-.69c0-.13-.15-.19-.18-.34h.12l-.13-.21.15-.11,0-.14c0,.06,0,.12-.09.11a.64.64,0,0,1,.15-.55l-.1-.52s.07.1.1.17c-.12-.28.13-.05,0-.31,0,0-.07,0-.1,0a1.14,1.14,0,0,0,.05-.63l.09,0c0-.39,0-.82,0-1.26,0,.16-.19.12-.2,0l.13,0c-.08-.09-.05.13-.14,0s.15-.1.19,0l0-.2s.06,0,.11,0,.14-.33,0-.46h0c0-.44,0-.64,0-1-.11,0-.08-.16-.16-.27a6.25,6.25,0,0,0,.2-.85c0-.23-.08-.08-.14-.19.1,0,.13-.31.19-.14a6.1,6.1,0,0,0,0-1s-.07.1-.1.07.06-.19.11-.18v0c-.07-.56.5-1.17.36-1.63v0c0-.16,0-.31,0-.46s0,.13.15,0c-.07-.5.18-.73.16-1.14.18-.11.22-.38.28-.65s.07-.31.09-.38,0,0,.07,0l-.06-.06c0-.08,0,0,.05,0s-.05,0-.08-.1a.61.61,0,0,1,.05-.23.9.9,0,0,1,.13.32s0,0,0,0l.14.22c.09.15.18.29.28.43s.41-.08.55.36h-.18c.57.44.91,1.1,1.47,1.52-.05,0-.08,0-.12,0,0,.17.35.4.41.35s0,.07,0,.14.33.19.32.31,0,0-.08,0,.3.33.32.19c.13.22.36.32.46.51.19,0,.27.35.43.26-.14.11.21.42.39.47-.08,0,.06.14,0,.15.13.12.28.22.32.13.1.39.62.33.58.66.47.3.91.57,1.33.85-.13.13-.44-.33-.54-.17a5.88,5.88,0,0,1,1.07.6c.08.09-.11,0-.16,0a9.36,9.36,0,0,0,1.14.69s-.06,0-.1,0,.15.12.18,0l-.07,0c-.05-.17.4,0,.45-.07-.25.13.32.26,0,.4.06,0,.14,0,.16,0s.07.1,0,.11c.28.11.24,0,.47.11,0,0-.08,0-.12,0a.69.69,0,0,1,.49.14s0,0-.07,0l.26.09h.18l.19,0s.19,0,.08.12-.12.09-.3.11v.08l.1,0a.57.57,0,0,0,0,.15.39.39,0,0,1-.11.21l0-.16-.16.34.15-.15c0,.21.17.08,0,.28,0,0-.11.17-.23.21h0a.47.47,0,0,1-.13.33c-.06,0-.12-.11-.16-.1s-.21.41-.15.59c0-.06-.08-.1-.1-.09l0,.12c-.07.06-.09.06-.14,0-.16.23.21,0,0,.26,0,0,0,0,0-.08-.2.26-.26.58-.46.82-.17,0,.1-.25-.06-.23a9.59,9.59,0,0,1-.54,1.22l0-.06c.16.16-.25.21-.27.45,0,0-.06-.12-.05-.1a4.58,4.58,0,0,0-.42,1l0-.08a6,6,0,0,0-.36.52c0,.08,0,.16.06.15-.56.33-.4,1-.88,1.31,0,0,0-.14,0-.1l-.18.39c.1,0,.08,0,.19-.06a.46.46,0,0,1-.06.29c0-.2-.13-.07-.22,0s0,0,.08,0c-.26.11.14.13-.11.34l0,0a1.28,1.28,0,0,1-.11.33c-.12,0,0-.13-.06-.18-.08.15,0,.4-.17.48A2.41,2.41,0,0,0,81.4,83a.45.45,0,0,0-.26.22h0l-.2.22.07,0c.13.33-.18.41-.17.75,0-.33-.06-.09-.15-.17s-.16.13-.17.08c0,.17-.19.16-.16.4,0,0-.08.13-.15,0-.06.17.08,0,.12,0,0,.3-.47.48-.51.91s0,.45-.13.76c-.11.06-.08-.15-.08-.15a.76.76,0,0,0-.24.4s0,0-.12,0,.08.15-.05.27a.4.4,0,0,1-.07-.19c0,.15-.07.32-.12.47-.08,0,0-.13,0-.2-.06.17-.18.43-.11.53l.09-.08c0,.06-.1,0-.09-.07A.14.14,0,0,1,79,87l0,.11c.25,0,.2-.41.32-.6l.1.16V86.4c.06,0,.16,0,.12.11.16-.1,0-.16.18-.23s0,0,0,0l0-.16c0,.05.11,0,0,.11.23-.2.13-.46.29-.49v0c.15-.37-.09-.09-.06-.42l.36,0-.08-.1s.07-.1.1-.06c0-.17-.06,0-.08-.12.2-.11.23-.5.42-.44,0-.1-.15.13-.1-.08.21,0,.09-.23.26-.34.07.1-.07.22.11.11-.11-.18.21-.28.26-.43-.13-.08.11-.32.2-.56,0,0,.31-.38.48-.56l0,0c-.11-.11,0-.31.1-.48.08,0,.09.1.08.2l.08-.15a.27.27,0,0,1,0-.21l.08.09c.11-.2.11-.46.32-.67-.08-.06-.36.06-.26-.24,0,0,.14.06.12.14s0-.11,0-.14l0,.15c.1-.09,0-.1,0-.18s.09,0,.13,0-.07.07-.07.12a.58.58,0,0,1,.26-.21.08.08,0,0,1,0-.13c.11-.2.12,0,.22-.11s.1-.17,0-.24.09,0,.13,0,.26-.47.08-.42l0,0v0h0c.09-.39.45-.65.6-1l0,0a2.71,2.71,0,0,0,.24-.62c0-.06.14-.1.17-.06a.67.67,0,0,1,.21-.38c0,.19.09,0,0,.18.14-.18.22-.19.25-.45,0,.12.19-.08.22-.19l-.14.1a1.89,1.89,0,0,1,.17-.28l.08.12c.37-.31.18-.85.59-1,0-.15-.18.18-.22,0,.12-.18.4-.27.43-.32.21-.21,0-.33.17-.57-.06,0-.19,0-.12-.24s.31-.12.27,0,0,.06-.06,0,0,.16,0,.11l0,0c.1-.06.24-.31.27-.22,0-.17,0-.09-.11,0a2.19,2.19,0,0,0,.27-.39,4.64,4.64,0,0,1,.31-.49c-.08.07-.18.13-.14.07.27-.29,0-.26,0-.27a.65.65,0,0,1-.32-.06c-.12-.13.24-.08-.18-.21-.2-.14,0-.12.16-.1a1.12,1.12,0,0,1-.65-.4l.12,0a.75.75,0,0,1-.18-.08l0,.12c-.06-.06-.12-.09-.1-.12s0,.17-.2.16-.29-.1-.26-.23c.26.19,0-.13.28,0a.38.38,0,0,1-.17-.1s0,0,0,0c-.21-.25-.2.06-.47-.11.07,0,0-.15,0-.17s0,.13-.14.12-.21-.09-.3-.16l.09.09c-.07,0-.15,0-.28-.08s.13,0,.1,0c-.21,0-.23-.3-.46-.37,0-.1.07-.11,0-.19-.25-.07-.16-.24-.41-.33,0,.12,0,.11-.18.07l.39.2-.31,0c.11.08.26.12.31.18-.15,0-.13,0-.12.07-.06-.22-.34-.14-.45-.34l.15-.19c-.17-.27-.5-.24-.77-.54l.07.11c-.1,0-.2-.14-.32-.2.06-.06,0-.13,0-.21s-.22-.19-.35-.1L81.79,71c-.21-.25-.42-.08-.64-.32.13,0,.07-.14.26,0-.07-.07-.13-.14-.17-.11s-.29-.12-.3-.24-.13,0-.21,0,0,0,0,0-.17-.1-.16,0c0-.41-.65-.62-.69-1-.18-.14-.39-.33-.54-.47,0,0,0,0,0,0-.14-.26-.28,0-.44-.28s.17.09.13,0c.16-.21-.29-.27-.32-.54l0,0c0-.18-.34-.24-.5-.46a0,0,0,0,0,0,0,1.92,1.92,0,0,1-.69-.48c.13,0,.12.06.17,0s-.11.13-.28,0c0-.1-.08-.26,0-.35l.15.17c0-.18-.19-.22-.24-.32l.05,0c-.23-.25-.35-.16-.57-.45l0,.06c-.24-.06,0-.19-.25-.28l.09-.14a7.3,7.3,0,0,1-.64-.55c.11,0,.38.22.6.39-.13-.16-.44-.56-.51-.53s.12.07.16.16a.88.88,0,0,1-.54-.4,1.15,1.15,0,0,0-.24-.63c-.1.25-.2.7-.35.7a5.18,5.18,0,0,1-.3,1.13,3.91,3.91,0,0,0-.24.73c.27-.13,0,.16.22.19,0,.12,0,.17,0,.18l-.22.34c-.09.07,0-.13-.09-.13-.08.27-.12.09-.23.26.1,0,.1.12,0,.27l.16-.2c0,.41-.28.29-.24.7l-.05-.13c0,.2-.13.73,0,1,0,0-.11.06-.11,0A9.91,9.91,0,0,1,74,70.49l0,0c0,.09.09.17,0,.28s-.06,0-.07,0a.61.61,0,0,1,0,.37L73.89,71c-.13.45.08.73.08,1.12-.18,0-.27.35-.31.53h0a6.28,6.28,0,0,0,.1,1.45c-.2.3-.12,1-.25,1.55,0-.07.13,0,.15.11s.12.33,0,.31v0c-.16.09-.12.33-.13.52l.21,0c-.31.49.1,1.3-.16,1.57,0,.12.06.26.11.38h-.11a4.59,4.59,0,0,0,0,.91l-.08-.09c0,.24.34.29.35.5l-.16.07a3.22,3.22,0,0,0,.06,1.2.07.07,0,0,1-.08-.07c0,.19-.07.74.16.65-.15,0,0,.42.09.63l-.11,0a.75.75,0,0,1,.25.43c0,.06-.09.06-.06,0,0,.2.12.15.08.39L73.94,83c0,.21,0,.19.14.29s0,.4-.09.44a.27.27,0,0,1,.14.25s-.07,0-.08,0c0,.35.17.5.09.75,0,0,0,0-.06,0a2.84,2.84,0,0,1,0-.48c-.1,0-.1.23-.26.07.09.17.3.46.27.68l0,0,0,0a.25.25,0,0,0,0,.14,1.1,1.1,0,0,0,0,.18c-.08,0,0,.26,0,.37s.11.12.19,0c0,0,0,0,0-.1s0,0,0,0h0l0-.28a.27.27,0,0,1,.07.3l.2.13c-.14.17-.19.47-.28.52.11.33.14.79.38,1,0,.09-.05.11-.08.15s0-.11-.07-.14c.08.18.1.56.25.59,0,.25-.15-.12-.08.21l0,0c-.15.69.52,1,.32,1.77,0,0,0-.08,0-.09a4.21,4.21,0,0,0,0,.62,5,5,0,0,0,.16.77c0,.17.19.14.31.16a1.79,1.79,0,0,0,.4,0A4.22,4.22,0,0,0,76.5,91c.24-.1.21-.19.29-.34l.11.06c0-.09.08-.18.11-.27.18-.31.66-.24.79-.72h-.1c.11-.12.26-.43.32-.36s0-.09,0-.12l.06,0c0-.12.08-.25.12-.38.2-.23.19.17.43-.2.07-.16.08-.5,0-.46s-.11.12-.17.09l0-.14c-.14-.12-.26-.3-.55-.06l0,.27-.12,0,.1-.18c-.13.05-.1.15-.11.25a.18.18,0,0,0-.14,0l0,.3c-.08,0-.07-.17-.19-.06s.2,0,.14.19-.18,0-.19.13c0,0-.06,0,0-.11,0,.14-.17.27-.13.38-.15,0-.23.33-.36.21a.59.59,0,0,1-.1.33c0-.28-.3.27-.41.06,0,.23-.32.36-.47.53,0,0,0-.06,0-.06s-.17,0-.18,0c0,.16-.06.22-.19.32,0-.16.14-.19.15-.35,0,.14-.13.13-.2.24,0-.11,0-.09.12-.21-.17.15,0,0-.15,0a.21.21,0,0,1,.11-.08s0,0,0-.11S75.79,90.29,75.79,90.29Zm-1.05-5.43h0l0,.11Zm0-.46,0,.2s-.08,0-.08,0S74.67,84.47,74.69,84.4ZM74,85.46c0-.07,0-.1,0-.11l0,.12h0Z"/><path class="cls-4" d="M74.18,85.57v0l0,0,0,0Z"/><path class="cls-4" d="M83.35,80.25h0Z"/><polygon class="cls-4" points="74.53 78.01 74.5 78.01 74.53 78.05 74.53 78.01"/><path class="cls-4" d="M81.72,82.26l0,0Z"/><path class="cls-4" d="M81.14,83.21l-.11.11A1.11,1.11,0,0,0,81.14,83.21Z"/><path class="cls-4" d="M80.66,83.91s0,0,0,0h0Z"/><path class="cls-4" d="M84,73.73l0,0C83.9,73.69,84,73.71,84,73.73Z"/><path class="cls-4" d="M85.59,75.77a.36.36,0,0,1,0-.14C85.56,75.69,85.53,75.74,85.59,75.77Z"/><polygon class="cls-4" points="80.36 70.95 80.37 70.95 80.34 70.93 80.36 70.95"/><path class="cls-4" d="M85.7,75.47a.33.33,0,0,0-.09.16A.42.42,0,0,0,85.7,75.47Z"/><path class="cls-4" d="M78.75,87.07l0,0a0,0,0,0,1,0,0Z"/><path class="cls-4" d="M78.74,87.12v0S78.75,87.13,78.74,87.12Z"/><path class="cls-4" d="M78.7,87.26l0-.09A.1.1,0,0,0,78.7,87.26Z"/><path class="cls-4" d="M79.37,86.13l0,0S79.35,86.12,79.37,86.13Z"/><path class="cls-4" d="M79.53,85.82c0,.07-.18.14-.21.25l0,0C79.31,86,79.55,85.93,79.53,85.82Z"/><path class="cls-4" d="M80.69,84.84l-.17.23c.06,0,.14,0,.09.07C80.9,84.89,80.49,85.16,80.69,84.84Z"/><path class="cls-4" d="M81.2,84.1c-.06.15,0,0,.07.05S81.29,84,81.2,84.1Z"/><path class="cls-4" d="M84.45,78.56l.08.06C84.57,78.51,84.49,78.6,84.45,78.56Z"/><polygon class="cls-4" points="84.61 77.23 84.5 77.3 84.55 77.39 84.61 77.23"/><polygon class="cls-4" points="85.61 76.97 85.59 77.03 85.66 76.84 85.61 76.97"/><path class="cls-4" d="M80.16,69.37l-.06.11C80.17,69.52,80.29,69.43,80.16,69.37Z"/><path class="cls-4" d="M77,66a.22.22,0,0,0-.13-.24C77,65.83,77,65.94,77,66Z"/><polygon class="cls-4" points="73.52 76.77 73.48 76.68 73.51 76.86 73.52 76.77"/><path class="cls-4" d="M111.4,106.38c0-.24-.11-.11-.11.56l.12.47Z"/><path class="cls-4" d="M111.38,110.88c.18.78.48,1.64.49,1.12-.27-.74-.25-.93-.5-1.75-.11-.66-.07-1.17,0-1.06,0-.23,0-1-.11-1.39a10.21,10.21,0,0,0,.23,3.12C111.47,111.17,111.41,110.94,111.38,110.88Z"/><path class="cls-4" d="M97.63,77.06a2.36,2.36,0,0,1,.38.22A2.13,2.13,0,0,0,97.63,77.06Z"/><path class="cls-4" d="M74.49,100.93a1.5,1.5,0,0,0,.07-.45A2.76,2.76,0,0,0,74.49,100.93Z"/><path class="cls-4" d="M72,107.34c.08-.12.13-.24.19-.35C72.13,107.12,72.06,107.26,72,107.34Z"/><path class="cls-4" d="M97.63,77.06a9.19,9.19,0,0,0-1-.46C96.54,76.61,97.15,76.81,97.63,77.06Z"/><path class="cls-4" d="M114.34,119.4l-.27-.52.24.5Z"/><path class="cls-4" d="M108.72,91.17l.06.34.1.27Z"/><path class="cls-4" d="M107.61,104.94a1.13,1.13,0,0,0-.15-.54,5.31,5.31,0,0,1,.07.68S107.57,105,107.61,104.94Z"/><path class="cls-4" d="M115.34,122.35l-.2-.33Z"/><path class="cls-4" d="M103.29,82.88a.55.55,0,0,0-.05-.13S103.25,82.81,103.29,82.88Z"/><path class="cls-4" d="M113,90.39s0,0,0,0S113,90.5,113,90.39Z"/><path class="cls-4" d="M111.11,106.36v-.22s0,0-.06,0Z"/><path class="cls-4" d="M62.52,115.27l0,0C62.84,115.05,62.68,115.15,62.52,115.27Z"/><path class="cls-4" d="M63.53,77.28c.39,1.28-.91-2-.28-.06C63.22,77,64.07,78.85,63.53,77.28Z"/><path class="cls-4" d="M114.48,119.73l.24.5Z"/><path class="cls-4" d="M63.25,77.22h0l.06.2Z"/><path class="cls-4" d="M54.15,140.88a1.56,1.56,0,0,0,0-.31A1.19,1.19,0,0,0,54.15,140.88Z"/><path class="cls-4" d="M56.4,119.66,56,120Z"/><path class="cls-4" d="M55.72,145.78c-.07-.29-.08-.39-.2-.77l0,.12A4.62,4.62,0,0,1,55.72,145.78Z"/><path class="cls-4" d="M52.9,134.31l0,.21.09.37Z"/><path class="cls-4" d="M86.58,69.29a4.27,4.27,0,0,1,.41.29c-.07-.07.29,0,.43,0s.09,0,0,0A5.31,5.31,0,0,1,86.58,69.29Z"/><path class="cls-4" d="M114.29,119.43a1.19,1.19,0,0,1,.19.3l-.17-.35S114.26,119.35,114.29,119.43Z"/><path class="cls-4" d="M54.74,145.55l-.48-1.82C54.4,144.24,54.57,144.9,54.74,145.55Z"/><path class="cls-4" d="M70.1,56.57l.16-.4C70.19,56.32,70.14,56.46,70.1,56.57Z"/><path class="cls-4" d="M52.88,138.3c0-.33-.1-.69-.17-1.05l-.07-.21Z"/><path class="cls-4" d="M87,69.58Z"/><path class="cls-4" d="M99.09,72.45c-1.7-.72-.85-.18-1.24-.26-2.07-.67-.92-.41-1.61-.72-1.31-.35-2.35-.44-3.33-.66-.07,0-.26-.09,0-.07-1.4-.21-4.15-.73-5.7-1.07a.84.84,0,0,1-.19-.09c.22.14.24.23.17.26A2.58,2.58,0,0,1,85.67,69a1.48,1.48,0,0,0,.62.38,4.62,4.62,0,0,1-.67-.45c-.22-.29,0-.11.28.12s.66.42.69.37a6.75,6.75,0,0,1-1.9-1.5,16.78,16.78,0,0,1-1.47-1.7c-.08-.26,1.91,2.21.92.87.41.49.82,1,1.26,1.44-.87-1.17.8.8,0-.28A37.83,37.83,0,0,1,82,64.17c-.4-.41,0,.22-.38-.2-2.22-2.86-1.37-2.52-3-4.61,0,0-.13,0-.12-.09s0-.1.08-.32a9.75,9.75,0,0,1,.87-1.65c-.06.21-.13.42-.18.63,1.23-2.13.48-1.34,1.92-3.49-.19.42-1,1.68-.76,1.37a19.76,19.76,0,0,0,1.24-2.14l.26-.14C83.35,51.32,85,49,86.79,46.62c-.07.16-.34.58.11.06a37.64,37.64,0,0,0,3.27-4.85,12.47,12.47,0,0,0,1-5.74c0-.46-.12-.92-.19-1.38s0-.59.06-.25c-.08-1.4-.08-.07-.19-.73s-.05-1.06,0-.56c-.21-1.4-.59-3.45-1.07-5.42l-.7.16a10.54,10.54,0,0,1,0,3.92c0-.16,0-.33,0-.49-.12,1-.19,1.51-.26,2a6.32,6.32,0,0,1-.55,1.89l.1-.34a18.53,18.53,0,0,1-3.33,5.56,25.18,25.18,0,0,1-4.17,4c-.35.56-3.43,2.55-3.53,2.91-1,.7-1.4,1-1.87,1.3a15.94,15.94,0,0,0-2.31,2.06A10,10,0,0,0,71.91,53l-.12,0q-.35.73-.63,1.47c-.17.23-.33.47-.49.71s-.28.67-.41,1c.17-.41.42-.83.43-.76l-1.07,2.51A13.72,13.72,0,0,1,69,59.27c-.42,1.28-.8,2.57-1.15,3.87a8.47,8.47,0,0,1,.29-1.27c-.52,2.09-.25.33-.7,2.26.11-.25,0,.16,0,.21a37.94,37.94,0,0,0-1.22,4.72v-.33c-.14.56-.26,1.21-.37,1.75a2.07,2.07,0,0,1,0,.22l-.09-.15-.22-.36c-.13-.22-.26-.43-.41-.64a16.46,16.46,0,0,0-1.95-2.41c.82.94.51.82-.18.1l-.2-.37c-.53-.39.73.76-.31-.09s-.56-.67,0-.22a13.61,13.61,0,0,0-1.25-.94c0-.09.26.11.36.13-.54-.32-2-1.67-2.87-2.06l-.05-.08C56,61.69,54.62,61,52.59,59.28c-.12,0-.87-.65-1.4-1.2a5.87,5.87,0,0,1-.37-.59c-.13-.24-.26-.48-.41-.71-.29-.46-.62-.9-1-1.35a34.52,34.52,0,0,0-2.33-2.62l-.46-.43-.36-.33c-.17-.14-.21-.16-.21-.15s.1.17-.3-.16a19.33,19.33,0,0,0-1.51-1.54c.1.55.14.81-.1-.18h0c.25,1.18.46,2.16.68,3.06l.25,1,.19.73c.28,1,.59,2.07,1.21,3.8-.09-.39-.2-.82-.1-.61a5.84,5.84,0,0,1,.37,1.38l-.07-.17c.38,1,.78,2,1.28,3a10.78,10.78,0,0,0,.87,1.54,3.9,3.9,0,0,0,.58.72,4.25,4.25,0,0,0,.69.61,59.69,59.69,0,0,0,5.12,3.25l-.16-.09c1,.58,1.9,1.19,2.79,1.84,1.17,1-.75-.52.08.25a10.82,10.82,0,0,1,3,3.22,14.82,14.82,0,0,1,.78,1.79c.24.63.51,1.27.81,2a48.56,48.56,0,0,0,1.85,5.08c.41,1,.82,2,1.2,3l.13.33,0,.3.11.71c.07.46.12.89.17,1.28l0-.19a7.88,7.88,0,0,1,.19,1.57c0-.09-.07-.88,0-.39a62,62,0,0,1,1,10.43,16.53,16.53,0,0,1-.68,5.11l-.22.58-.28.51a8.79,8.79,0,0,1-.76,1,20.69,20.69,0,0,1-1.8,1.83c-1.9,1.69-.82,1.27-3.41,3.21l.62-.69c-1.94,1.72-4,3.36-6,5.12a27.18,27.18,0,0,0-2.87,2.81,3.74,3.74,0,0,0-.63.91,4.53,4.53,0,0,0-.34,1,10.67,10.67,0,0,0-.23,2,4.56,4.56,0,0,1,0-.84,13.47,13.47,0,0,0,.1,4.08c.07.8-.05.2,0,.69.05,1.1.45,2.7.46,3.29a2.52,2.52,0,0,1-.12-.5c.14.7.54,3.26.53,2.57.3,1.9.77,3.59,1,5.1.34.95.71,3.21,1,3.47-.22-.08.69,3.3,1.1,4.44-.16-.38.23,1,0,.59a7.94,7.94,0,0,0,.78,2.29c.07.33.15.65.23,1l.95-.26a37.83,37.83,0,0,1-1.12-5.4A83.08,83.08,0,0,1,53.89,132c.15.12.37,4,.56,3.86a40.22,40.22,0,0,1-.55-8.88c.09-.88.05.51.06.81a15.57,15.57,0,0,1,.79-4.86A5,5,0,0,1,55.9,121a7.21,7.21,0,0,1,.88-.72l.93-.71a4.65,4.65,0,0,1-.51.42c.49-.36,1.17-.8,1.07-.83l-.47.37c-.87.46,1.84-1.6,1.91-1.7-.74.77,2.6-1.63,1.38-.48.33-.23.73-.54.63-.53.51-.31.69-.39.21,0,1.82-1.22,1.12-.87,2.79-1.95,0,0-.31.27-.46.42.81-.61,1.62-1.22,3-2.15-.07.08.11,0-.31.28a25.34,25.34,0,0,0,3.1-2.49,12.85,12.85,0,0,0,2.53-3.37c-.29.92.55-.94.73-1,.22-.53.43-1.07.61-1.62l-.31.62c.56-1.4.84-2.7,1.21-3.94-.07.37-.15.73-.24,1.09.26-.9.47-1.82.66-2.74-.14.52-.26,1-.42,1.54.29-1.49-.2.12.27-1.82-.06.41.28-1.46.46-2.23h0c0-.75.07-1.51.13-2.62,0-.29.16.24.19,0s0-.5-.06-.88-.2-.74.19-.83c.77-.42,1.61-.82,2-1-.27.15-.25.23-.15.2L78.4,92c.65-.23.75-.25.67-.15,1.94-.74-.69.1,1.64-.78-.17.08-.08.07-.45.24a7,7,0,0,0,1.65-.9,4.13,4.13,0,0,0,1.17-1.43c.52-1.09.85-2.17,1.43-3.14.23-.26,0,.17-.21.6s-.38.87-.17.55a19.69,19.69,0,0,1,1.12-2.19,17,17,0,0,0,1.09-2.33c.62-1.58,1.1-3.19,1.55-4.72l-.18.56a5.28,5.28,0,0,1,.37-1.5l.32-1.06.06-.2c0-.05,0,0,.06,0l.1,0,.48.09c-.41-.08-.36,0-.34,0l.31.08.41.09c.28,0,.56.11.84.15.57.1,1.16.17,1.78.24a23.92,23.92,0,0,1,4.19.72,2.57,2.57,0,0,0-.4-.06,8.88,8.88,0,0,1,3.9,2.38c.31.26.82.85.57.45.59.86,1.11,1.77,1.73,2.59s1.26,1.61,1.91,2.36a19,19,0,0,1,3.44,4.57c-.2-.39-.57-.89-.38-.59a8.41,8.41,0,0,1,1.17,2.88,3.23,3.23,0,0,0-.13-1.07,6.35,6.35,0,0,1,.48,2c-.21-1.43-.12,0-.16.64,0-.1.06.11.09,0-.07.84-.05.91,0,1.06s.12.38-.06,1.51l0-.12a24,24,0,0,1-.3,2.56c-.17.36.1-.91,0-1-.2,1.28-.25,2.56-.53,3.71.05-.55.19-1.34.26-1.89a17,17,0,0,0-.51,2.35l0-.09c-.13.73-.23,1.46-.31,2.2l.08-.56c.14,1.65-.18,3.38.46,5.53-.54-2.09-.17-.33-.33-.47a6,6,0,0,1,.15,1.19,16.32,16.32,0,0,0,1.17,3c0,.08.47,1,.28.85.64,1.21-.08-.32,0-.24a46.22,46.22,0,0,0,4.08,6.8c1.39,1.85,1.86,2.29,3.08,3.72h0c-.09-.12-.22-.32-.36-.54-.35-.71.41.43.46.47l-.2.15h0l.2-.15c-.63-1.12-1.1-2-1.68-3,.14.21,0,0-.06-.39a11.23,11.23,0,0,1-.88-1.75,8,8,0,0,1,.54.84c-.5-1-1-2.08-1.4-3.21,0-.32.34.65.52,1-.51-1.24-1.1-3.29-1.28-3.68l.17.85c-.13-.48,0-.27.13.08a5.1,5.1,0,0,1,.42,1.68c-.1-.27-.18-.54-.27-.81,0,.92,1.12,3.25,1.86,4.8-.15-.2-.31-.39-.45-.59.28.52.57,1,.88,1.54.13.36.16.63-.25-.12.49,1.15.55,1,1,1.93,0,.11,0,.07,0,0,.21.34.43.67.65,1l.11-.08,0,0s0,0,0,0l-.12.08c-.1-.1,0,.22-.34-.38l.26.44.28-.21a36.94,36.94,0,0,1-2.3-3l.11.14c-1.77-2.43-.27-.16-1.67-2l-.57-1.44-.26-.18c-.16-.27-.47-.79-.37-.72-.66-1,0,.19-.35-.34-.69-1.33-2-3.62-1.92-4-.3-.45.51,1.33-.19-.1,0-.49-.74-1.69-.93-3.06.16.4.49,1.63.21.31a11,11,0,0,1-.41-3.73,4,4,0,0,1,0-1.51c.06-.85.2-1.93.34-2.89,0,.13.75-3.55,1-5.36l0,.05a35.71,35.71,0,0,0-.16-3.59c.11,0,.16.28.27,1-.05-.44-.06-.87-.15-1.3s-.19-.7-.48-1.49c.07.09.15.18.21.27a16,16,0,0,0-3.08-4.74c-.16,0,.9,1.51-.64-.2,0-.1,0-.23.41.22-.13-.15-.49-.51-.73-.83l.66.64c-.61-.78-.39-.34-.89-.95.06,0-.34-.49-.22-.44s.42.55.64.76a15.52,15.52,0,0,1-1.37-1.87c0,.09-.09.06-.5-.44-1-1.36-.27-.52-.8-1.34-.26-.3-.85-1.23-1-1.18-.29-.42-.32-.51-.43-.68a10,10,0,0,0-1.73-1.53c-.67-.46-1.2-.68-.79-.39l.2.12-.13-.07h0c-2.61-1.4-5.81-1.49-8.56-2v0a5.59,5.59,0,0,1-.64-.13l-.42-.1-.21,0c-.06,0-.17-.09-.17,0l-.34,1.49c-.21.85-.4,1.65-.55,2.24s-.42,1.11-.4.89a16.5,16.5,0,0,1-1.16,3.08,7.15,7.15,0,0,1,.46-1.24c-.67,1.54-.85,1.85-1.67,3.45.23-.6-.79,1-1,1.83.18-.36.37-.71.58-1-.41.81-.72,1.56-1,2.29l0-.45a6.82,6.82,0,0,1-1.15,2,6.31,6.31,0,0,1-1.75,1.17c-1.3.56-2.59,1.1-3.82,1.58-.8.48,1.74-.76,1-.3l-1.1.47-.55.25-.36.17s-.16,0-.14.11v.8c0,.15,0,.28,0,.41s0,.43,0,.55c-.06,1.06-.06,1.56-.07,2.08A9.58,9.58,0,0,1,74.86,99c.1-.27.29-.52,0,1.15s-.67,1.84-.45.87a2.19,2.19,0,0,1,.15-.52c.1-.5.22-1.16,0-.56v.21a11.53,11.53,0,0,1-.72,2.33c-.29,1.15-.07.51.2-.33A29.68,29.68,0,0,1,72.21,107c.17-.29.35-.54.21-.24-.69,1.35-.9,1.61-1,1.8a3.08,3.08,0,0,1-.72,1.1c-.86.78.21-.38-1.26,1.06-1,.78-.28.08.07-.27a22.26,22.26,0,0,1-3.73,2.68l.81-.59c-.48.36-.89.63-1.3.9l.52-.23a4.85,4.85,0,0,1-.93.54c-.47.39.48-.12-.48.61a25,25,0,0,1-2.29,1.38c2.11-1.3-.3,0,1.45-1.11-.33.23-.74.5-1.25.81-.09,0,.05-.07.19-.16-2.06,1.19-.85.7-2.91,2,.22-.23-.56.2-.88.44.83-.55.46-.17-.26.39a21.7,21.7,0,0,0-2.07,1.51l.78-.54c-.21.26-.87.66-1.72,1.43-.06,0,.13-.18.3-.33s.3-.24.14-.13a6.61,6.61,0,0,0-2.27,4c-.21.78-.16,0-.32.74a27.6,27.6,0,0,0-.35,4.13c.12-.59.07-.68.18.74a28.47,28.47,0,0,1,0-3.33c0,.71,0,1.43,0,2.14a24.34,24.34,0,0,1,.14-2.72c0,1-.05.92.08.45a25.93,25.93,0,0,0-.13,4.29l-.24,0a58.77,58.77,0,0,0,.72,7.28l-.09-1c.15.4.26,1.88.46,2.86-.09-.08,0,.55,0,1a20.51,20.51,0,0,0,.6,2.47l.16,1.37c.42,2.23.74,2.67,1.2,4.51l.35-.1-.16-.55c.22.52.11,0,.32.5L56,149a6.69,6.69,0,0,1-.2-.64l.16.65.75-.21a3.18,3.18,0,0,0-.29-.82c-.08-.45-.71-2.08-.83-2.81a6.38,6.38,0,0,1-.46-1.26c0-.1,0,0,0,0s-.41-1.34-.3-.56c-.4-2.42-1.68-6.64-1.9-8.78-.38-1.69-.78-3.74-1-5.29a.67.67,0,0,1,.07.29c-.22-2.15-.44-1.28-.59-3.75,0-1.27.17,1.3.16.51.23-.35-.3-3,.12-4.57l0,.39a7.67,7.67,0,0,1,.55-2A11,11,0,0,1,54,117.94s-.06.08,0,0a45.11,45.11,0,0,1,4.48-4.13c-.42.47-.67.61-.31.45.68-.58-.31,0,1.06-1.11A13.84,13.84,0,0,1,61,112.05l-1.3,1.07a24.14,24.14,0,0,0,2.39-1.94l0,.12A26.23,26.23,0,0,0,64,109.49c.47-.5,1-1,1.92-2l-.22.19c.45-.63.66-.87.87-1.12a3.19,3.19,0,0,0,.7-1.24l.31-.38a11.66,11.66,0,0,0,.42-2.38c.07-1,.1-2.07.07-3a17.29,17.29,0,0,1-.17,4.48,15.32,15.32,0,0,0,.32-4c0,.4,0,.92,0,1.32-.06-1.25-.12-2.85-.26-4.84.17.17.11-1.13-.05-2.64s-.4-3.24-.39-4L67,87.35,66.78,86a3.21,3.21,0,0,0-.16-.74l-.24-.63c-.64-1.69-1.29-3.46-2-5.36.31,1.44-.44-1.1-.57-.78a11.79,11.79,0,0,1-.51-1.3l-.92-2.74c-.18-.66.38.82.4.72-.36-1-.43-1.19-.47-1.33a2.42,2.42,0,0,0-.33-.88c.07.31-.48-.63-1.29-1.57a9.08,9.08,0,0,1,1,1.46c-.9-1.23-1.36-1.69-1.78-2.19a10,10,0,0,0-2.12-1.82l.8.51c-.62-.46-1.76-1.3-3-2a29.05,29.05,0,0,0-3.07-1.72c-.21-.16-.47-.4.1-.07-.75-.48-1.59-1-2.31-1.51a6.65,6.65,0,0,1-1.57-2.15,22.87,22.87,0,0,1-1.81-4.69l.14.24a12,12,0,0,1-.62-1.89s.13.24,0-.06-.2-.59-.35-1.08l-.21-.75c-.09-.33-.08-.32-.1-.41a1.52,1.52,0,0,1,.17.4l-.1-.47-.07-.27.25.16.18.14.51.47a26,26,0,0,1,2.05,2.11,5.81,5.81,0,0,0,.77,1.32c.24.37.39.7.67,1.16a6.51,6.51,0,0,0,.81,1l-.05,0a24.17,24.17,0,0,0,4.44,3.39c1.43.92,2.84,1.79,4.39,2.87a25.93,25.93,0,0,1,3,2.69,15.45,15.45,0,0,1,1.54,2l.35.56.08.14.14.25.28.53c.37.77.74,1.53,1.09,2.28l.39-2c.11-.63.28-1.48.34-1.69-.15.56-.12-.11,0-.77.21-.86.41-2.41.54-2.23l-.07.3c.31-.61.7-2.37,1.11-3.73l-.14-.28c.66-1.73,1.39-4,2.17-6.11A18.3,18.3,0,0,1,73,52.91a11.25,11.25,0,0,1,1.68-2.23l0,.11A54.81,54.81,0,0,1,80,46.58l-.46.45a35.42,35.42,0,0,0,2.77-2.66l.48-.19A34.62,34.62,0,0,0,86,40.87,15.22,15.22,0,0,0,88.47,37c0,.06,0,.16-.23.61a17,17,0,0,0,1.33-3c.35-1.12.46-2.05.3-1.8A5.32,5.32,0,0,0,90.16,31a11.92,11.92,0,0,0-.26-3.06l.15.24a2.66,2.66,0,0,0-.12-.39l-.8.19a17.17,17.17,0,0,1,.74,2.85c.06.45,0,.41-.09-.19.17,1.5.3,1.15.45,3l-.14-.67a19,19,0,0,0,.32,2.26,10,10,0,0,1-.15,3.16,4.66,4.66,0,0,1-.2,1.92c-.07.11,0-.21,0-.37a11.59,11.59,0,0,1-1.19,2.79,13.64,13.64,0,0,1-1.43,2.07.65.65,0,0,0-.24.21,32.45,32.45,0,0,0,2-2.94c-.1,0-.93,1.34-.4.16A27.3,27.3,0,0,1,86,46.53l-.16.15.09-.15c-.24.3-.44.57-.62.83-.33.41-.54.67-.84,1.07a20.48,20.48,0,0,0-1.69,2.2c.13,0-.53.89.15.11a3.69,3.69,0,0,1,.41-.59l.2-.3,0,0,1.25-1.67a15.1,15.1,0,0,1-1.34,1.85l-.53,1.06C82,52,80.75,53.79,80.5,54c-.66,1.11-1.43,2.41-2.06,3.65l-.46.92-.26.52-.07.16s-.07.1,0,.15l.2.28a13.1,13.1,0,0,0,1,1.23,4.28,4.28,0,0,1,.55,1c-.26-.33-.54-.75-.69-.92a35,35,0,0,0,2.83,3.71c1,1.51-.74-.74.81,1.26l-.25-.24a23.67,23.67,0,0,0,2.17,2.7,10.44,10.44,0,0,0,1.2,1.1,4.46,4.46,0,0,0,.7.46,8.11,8.11,0,0,0,.78.28c2.06.54,4.2.69,6.83,1.47a4.14,4.14,0,0,1-.61-.19c3,.74,6.18,1.59,8.67,3.55,1.25,1,2,2.41,3.16,3.57a12.28,12.28,0,0,0,1.83,1.56,8.06,8.06,0,0,1,1.75,1.44c.55.64.8,1.05,1,1.36s.42.57.71,1l.07.39a17.66,17.66,0,0,1,.89,1.58,10.21,10.21,0,0,1,.88,3.47c.11,1.19.15,2.46.16,4.09l.09-.42a19.6,19.6,0,0,1-.34,3.51,2.9,2.9,0,0,1-.06.85l-.06,0-.29,2.88c-.33,2.23-.22-.38-.63,2.88a14.36,14.36,0,0,0,0,3,5.76,5.76,0,0,1,.2-1.28l0,1.11c.17.22.29,1.07.64-1.62l.09-1.9.17-.6-.19,1.59a11.2,11.2,0,0,0,.22-2.12,4.13,4.13,0,0,0,.2-.78l.08-1.88c.1-.21,0,.86.24-.38,0-.89-.28.81-.14-.64a5.63,5.63,0,0,0,.29-1.7c.07-.15.08.08,0,.51a24,24,0,0,0,.15-3c.19-1-.06-3.27.09-3.19,0-.31-.33-1.7-.58-2.56.27.78.15-.06-.17-1s-.81-2-.6-1.84c-.35-.51-.83-1.47-1.5-2.5A8.74,8.74,0,0,0,109,81a6.76,6.76,0,0,0-1.44-1.08,2.05,2.05,0,0,1,.47.28,13.49,13.49,0,0,1-1.75-1.39,2.79,2.79,0,0,1-.92-.66c-.44-.4-.91-.91-1.24-1.28-.74-1.23.67.58.51.13,0,.07-.42-.4-.79-.84s-.79-.85-.67-.61c-.72-.91-.69-.71-1-1.22a1.55,1.55,0,0,1-.66-.34,4.38,4.38,0,0,0-1.12-.63c-.7-.45-.78-.52-.89-.59a4.64,4.64,0,0,0-1.07-.48c-.4-.17-.21-.14.08-.06S99.09,72.45,99.09,72.45ZM86.76,46.6h0l-.53.69Zm2.1-2.85c-.26.35-.57.79-.9,1.25-.1.07,0,0,.16-.34A9.3,9.3,0,0,0,88.86,43.75Zm-5.1,5.5a2.9,2.9,0,0,1,.52-.64c-.16.21-.34.46-.57.79l0,.06A.62.62,0,0,1,83.76,49.25Z"/><path class="cls-4" d="M83.29,50.15l-.13.19.21-.26.09-.18Z"/><path class="cls-4" d="M98.07,77.32l-.06,0,.13.09Z"/><path class="cls-4" d="M71.76,53h0a2.55,2.55,0,0,1,.13-.29A2.54,2.54,0,0,0,71.76,53Z"/><path class="cls-4" d="M108.42,93.09a1.62,1.62,0,0,0,0,.25A1.3,1.3,0,0,0,108.42,93.09Z"/><path class="cls-4" d="M107.35,101.34l-.19,1.18Z"/><path class="cls-4" d="M107.21,107.83a.3.3,0,0,0,.06.12h0Z"/><path class="cls-4" d="M57.2,120l-.19.15Z"/><path class="cls-4" d="M75.58,97.42l-.09,1A2.68,2.68,0,0,0,75.58,97.42Z"/><path class="cls-4" d="M54.79,145.75h0l-.06-.2Z"/><path class="cls-4" d="M75.23,99.8a13.82,13.82,0,0,0,.26-1.4C75.42,98.84,75.3,99.35,75.23,99.8Z"/><path class="cls-4" d="M112.38,114.07l-.07-.3s0,0,0,0Z"/><path class="cls-4" d="M112.29,113.74l-.1-.32A1.52,1.52,0,0,0,112.29,113.74Z"/><path class="cls-4" d="M112,112.73l.19.69A5.06,5.06,0,0,0,112,112.73Z"/><path class="cls-4" d="M115.55,121.88l.08.06S115.57,121.88,115.55,121.88Z"/><path class="cls-4" d="M115.12,122.63l.65.9.57-.42L115.7,122l-.07,0c.14.18.4.71.68,1.19l-.5.37A9.43,9.43,0,0,0,115.12,122.63Z"/><path class="cls-4" d="M109.66,113.3c.32.65.66,1.29,1,1.92-.16-.35-.36-.81.15,0C109.61,112.82,111,115.8,109.66,113.3Z"/><path class="cls-4" d="M107.66,107c.17,1.13.06,0,.09,0C107.63,106.33,107.61,106.15,107.66,107Z"/><path class="cls-4" d="M86.67,80.11,86.61,80C86.33,80.81,86.64,80,86.67,80.11Z"/><path class="cls-4" d="M83.27,88.73c.15-.26.29-.53.42-.79l.07-.42C83.6,87.92,83.45,88.32,83.27,88.73Z"/><path class="cls-4" d="M78.51,91.24l.36-.16c-.47.2-.93.4-1.39.62Z"/><path class="cls-4" d="M53.44,136.34l-.06.29C53.53,137.22,53.7,137.31,53.44,136.34Z"/><path class="cls-4" d="M65.72,107.74a8.25,8.25,0,0,0,.65-.66,5.88,5.88,0,0,0,.63-.93A16.45,16.45,0,0,1,65.72,107.74Z"/><polygon class="cls-4" points="69.16 62 68.99 62.69 69.36 61.41 69.16 62"/></g></g></g><g id="Layer_102" data-name="Layer 102"><g id="Pierna"><rect class="cls-5" width="160" height="195"/></g></g></g></g></svg>