<svg xmlns="http://www.w3.org/2000/svg" xmlns:xlink="http://www.w3.org/1999/xlink" viewBox="0 0 130 250"><defs><style>.cls-1{isolation:isolate;}.cls-2{fill:url(#Degradado_sin_nombre_175);}.cls-3{fill:#42210b;}.cls-4{fill:none;mix-blend-mode:multiply;opacity:0.4;}</style><radialGradient id="Degradado_sin_nombre_175" cx="74.4" cy="154.66" r="69.21" gradientUnits="userSpaceOnUse"><stop offset="0.09" stop-color="#faeb36"/><stop offset="0.24" stop-color="#fa7e36"/><stop offset="0.3" stop-color="#fa6d30"/><stop offset="0.4" stop-color="#f95226"/><stop offset="0.51" stop-color="#f83f1f"/><stop offset="0.62" stop-color="#f8341a"/><stop offset="0.74" stop-color="#f83019"/><stop offset="1" stop-color="#b9051c"/></radialGradient></defs><g class="cls-1"><g id="Layer_2" data-name="Layer 2"><g id="Variacion_A" data-name="Variacion A"><g id="AssetsF3"><g id="TailE4_copia" data-name="TailE4 copia"><path class="cls-2" d="M97.84,244.06C83,239.17,49.82,226.41,42,215.18c-10.73-15.44-7.66-35.48-4.54-43.92,1.09-2.93,3.28-4.7,5.83-6.75,5.43-4.38,12.19-9.83,7.7-27.45-1.83-7.22-3.83-13.68-5.72-19.18,3.56,3.15,7.25,5.43,10.5,5.43a7,7,0,0,0,3.56-.94c5.47-3.18,4.53-12,3.34-23.21-.9-8.49-2-19.06.79-23.86a47.49,47.49,0,0,1,7.73-10c.9,20.85,4.67,77.94,19.45,89.92s11.83,37.32,11.8,37.58l-.63,5.33,5.13-1.59a18.72,18.72,0,0,0,7.3-4.9c.07,8.88-.19,22.28-.63,35A74.55,74.55,0,0,0,105.4,235C102.14,238.84,99.43,242.12,97.84,244.06Z"/><path class="cls-3" d="M77.76,64.45h0m-9.54,9.86c.47,7.51,1.21,17,2.36,26.91C75.45,143,83.11,153.57,88.45,157.9,101.57,168.55,99,192.13,99,192.35L97.7,203l10.29-3.2a16.84,16.84,0,0,0,2.77-1.2c-.06,7.72-.27,17.19-.58,26.31a89,89,0,0,0-7.43,7.82c-2.42,2.82-4.51,5.32-6.08,7.23-18.41-6.24-45.52-17.78-51.79-26.81-9.19-13.23-7.51-31.6-4.13-40.72.71-1.94,2.19-3.19,4.73-5.24,7.35-5.93,13.56-12.76,8.9-31-.91-3.57-1.86-7-2.81-10.15a12.72,12.72,0,0,0,4.21.74,10.39,10.39,0,0,0,5.31-1.41c7.42-4.31,6.33-14.64,5.06-26.59-.8-7.56-1.9-17.92.33-21.72q.87-1.48,1.74-2.76m54.67,109h0m-48.44-125s-7.28,3.79-14,15.23,4.24,41.68-2.87,45.81a3.54,3.54,0,0,1-1.81.47c-7.78,0-22-21-22-21s7.79,15.54,13.8,39.1-9.3,21-13.43,32.13-5.77,31.7,4.95,47.12,59.89,31,59.89,31,3.75-4.69,9-10.81c6-7,9-9,9-9s1.75-48.08-.25-48.08c-.17,0-.37.35-.59,1.09-2.91,9.56-10.29,11.86-10.29,11.86s3.3-27.41-13.07-40.69S74.45,58.31,74.45,58.31Z"/></g></g></g><g id="Layer_102" data-name="Layer 102"><g id="Cola"><rect class="cls-4" width="130" height="250"/></g></g></g></g></svg>