<svg xmlns="http://www.w3.org/2000/svg" xmlns:xlink="http://www.w3.org/1999/xlink" viewBox="0 0 464 265"><defs><style>.cls-1{isolation:isolate;}.cls-2{fill:url(#Degradado_sin_nombre_9);}.cls-3{fill:url(#Degradado_sin_nombre_9-2);}.cls-4{fill:url(#Degradado_sin_nombre_9-3);}.cls-5{fill:url(#Degradado_sin_nombre_9-4);}.cls-6{fill:url(#Degradado_sin_nombre_9-5);}.cls-7{fill:url(#Degradado_sin_nombre_9-6);}.cls-8{fill:url(#Degradado_sin_nombre_9-7);}.cls-9{fill:url(#Degradado_sin_nombre_9-8);}.cls-10{fill:url(#Degradado_sin_nombre_9-9);}.cls-11{fill:#df6437;}.cls-12{fill:#471f05;}.cls-13{fill:none;mix-blend-mode:multiply;opacity:0.4;}</style><radialGradient id="Degradado_sin_nombre_9" cx="201.11" cy="171.29" r="18.28" gradientUnits="userSpaceOnUse"><stop offset="0.13" stop-color="#cedff1"/><stop offset="0.17" stop-color="#d0e0e9"/><stop offset="0.24" stop-color="#d6e0d1"/><stop offset="0.33" stop-color="#dee3ad"/><stop offset="0.44" stop-color="#e9e780"/><stop offset="0.56" stop-color="#f8ec57"/><stop offset="0.57" stop-color="#f9ec56"/><stop offset="0.87" stop-color="#e9963e"/><stop offset="0.99" stop-color="#df6437"/></radialGradient><radialGradient id="Degradado_sin_nombre_9-2" cx="228.55" cy="238.73" r="11.56" xlink:href="#Degradado_sin_nombre_9"/><radialGradient id="Degradado_sin_nombre_9-3" cx="241.22" cy="93.46" r="18.4" xlink:href="#Degradado_sin_nombre_9"/><radialGradient id="Degradado_sin_nombre_9-4" cx="316.21" cy="160.65" r="12.5" xlink:href="#Degradado_sin_nombre_9"/><radialGradient id="Degradado_sin_nombre_9-5" cx="364.44" cy="109.57" r="9.11" xlink:href="#Degradado_sin_nombre_9"/><radialGradient id="Degradado_sin_nombre_9-6" cx="436.75" cy="86.71" r="17.17" xlink:href="#Degradado_sin_nombre_9"/><radialGradient id="Degradado_sin_nombre_9-7" cx="358.23" cy="55.45" r="15.11" xlink:href="#Degradado_sin_nombre_9"/><radialGradient id="Degradado_sin_nombre_9-8" cx="321.51" cy="198.62" r="39.05" gradientTransform="translate(-138.47 -154.01) scale(1.3 1.64)" xlink:href="#Degradado_sin_nombre_9"/><radialGradient id="Degradado_sin_nombre_9-9" cx="418.54" cy="174.61" r="35.23" gradientTransform="translate(-138.47 -154.01) scale(1.3 1.64)" xlink:href="#Degradado_sin_nombre_9"/></defs><g class="cls-1"><g id="Layer_2" data-name="Layer 2"><g id="Variacion_B" data-name="Variacion B"><g id="AssetsF3"><g id="HornF3"><g id="Capa_36" data-name="Capa 36"><path class="cls-2" d="M208.25,189.29c1.06-6.91,3.29-13.87,1.51-20.74-2.1-8.06-8.32-15.24-14.24-20.82-1.72-1.61-4.81.59-3.35,2.65a59.91,59.91,0,0,1,9.51,19.45c1.8,7-1,14.77,2.18,21.34a2,2,0,0,0,1.27,1.14,15.74,15.74,0,0,0,.55,2.28c.33,1,2,1.18,2.08-.12a34.37,34.37,0,0,1,.3-3.78A2.45,2.45,0,0,0,208.25,189.29Z"/><path class="cls-3" d="M237.16,250.82c-3.55-6.24-3-13.94-7.81-19.58a.87.87,0,0,0-.88-.32c-.1-.15-.18-.3-.29-.44a1.43,1.43,0,0,0-2.21-.06,26.83,26.83,0,0,0-3.3-4.95c-1.12-1.34-3.14,0-2.82,1.54.16.76.33,1.52.5,2.28a22,22,0,0,0,4,14.17,1.87,1.87,0,0,0,2,.69,15.49,15.49,0,0,0,3.77,4.76,1.74,1.74,0,0,0,2.46-.17,14.11,14.11,0,0,0,2.93,3.57C236.35,253.08,237.71,251.79,237.16,250.82Z"/><path class="cls-4" d="M249.28,88.89l0-1.09a2.08,2.08,0,0,0-.32-1.07,11.72,11.72,0,0,1,.09-3.29,2.36,2.36,0,0,0-.77-2.15,31.72,31.72,0,0,0-1.38-11.14c-.73-2.49-4.28-1.43-3.84,1.06,1,5.6-2.29,11-2.94,16.54q-1.41,2.94-2.7,5.92c-.54,1.1-1,2.22-1.48,3.38l-.09.1c-4,5.38-2.84,11.65-.65,17.54a1.9,1.9,0,0,0,.86,1c-.12.4-.23.8-.34,1.2-.24.91,1,1.82,1.6.85,3.11-5.62,5.41-11.67,7.93-17.57,1.14-2.66,3.84-6.84,3.72-10.15A1.85,1.85,0,0,0,249.28,88.89Z"/><path class="cls-5" d="M323.8,172.74c-1-8-2.83-16.2-7.69-22.81-.41-1-.83-2-1.25-2.93a1.69,1.69,0,0,0-.78-.84,1.54,1.54,0,0,0-2.83-.76c-3,5.33-3.18,12.14-1.85,18,1.4,6.27,6.32,9.75,11.5,12.93a1.49,1.49,0,0,0,2-2A1.47,1.47,0,0,0,323.8,172.74Z"/><path class="cls-6" d="M372.57,117.52c-.71-4.8-1.77-9.61-6.08-12.43a1.35,1.35,0,0,0-1.36-.16,8.08,8.08,0,0,0-3.62-3.81,1.45,1.45,0,0,0-1.42.24c-.18-.32-.36-.65-.55-1-1.15-1.86-4.14-.23-3,1.65,3.38,5.53,5,11.88,9.2,17a1.63,1.63,0,0,0,2.56-.16,1.73,1.73,0,0,0,2.45.25A1.41,1.41,0,0,0,372.57,117.52Z"/><path class="cls-7" d="M444.29,103.33a2,2,0,0,0,1-2.79c-.14-.33-.29-.66-.43-1a1.89,1.89,0,0,0,.88-2.44l-1-2.5a1.88,1.88,0,0,0,.72-2.34,108.25,108.25,0,0,0-5.63-12.36c-1.14-2.15-2.7-4.27-3.64-6.5-1.12-2.65-.88-5-1.37-7.68-.43-2.34-3.48-1.68-4.15.05a12.35,12.35,0,0,0-.71,4.87,2.18,2.18,0,0,0-2.39,2.14,47.53,47.53,0,0,0,2.19,17,2.27,2.27,0,0,0,1.37,1.52,65.76,65.76,0,0,0,11.53,17.45,1.32,1.32,0,0,0,2.15-1.47c-.4-.87-.85-1.72-1.31-2.56A2,2,0,0,0,444.29,103.33Z"/><path class="cls-8" d="M375.41,63.78A20.08,20.08,0,0,0,368.25,57a1.85,1.85,0,0,0-1.15-.2l-.09-.07a2.08,2.08,0,0,0-.34-.24L365,54.21a2.14,2.14,0,0,0-3.3-.34,2,2,0,0,0-1.09-.18,2.17,2.17,0,0,0-.22-.34,5.56,5.56,0,0,0-2.2-2,2.22,2.22,0,0,0-.93-.29c-2.12-1.31-4.29-2.52-6.5-3.66a2.16,2.16,0,0,0-1.54-.18l-.71-.64a2.18,2.18,0,0,0-2.23-.4c-.23-.34-.45-.69-.67-1a7.48,7.48,0,0,0-.74-1.15c-1.64-2.16-5.28-.13-3.7,2.23,2.59,3.57,2.23,8.33,5,11.85,2.32,2.94,5.95,4.45,8.37,7.32a1.88,1.88,0,0,0,1.11.69,1.32,1.32,0,0,0,1.19,1.47c5.8.81,11.29-1,17.06-1.35C375,66.17,376.18,64.92,375.41,63.78Z"/></g><g id="HornF6_2"><path class="cls-9" d="M309.61,186.93a8.76,8.76,0,0,0-.87.58c-.3.23-.58.47-.88.69a8.93,8.93,0,0,0-2.38-1.5A55.52,55.52,0,0,1,293.89,180l-9.31-8.67a37.26,37.26,0,0,1-7.71-16.94l-.09,0a29.71,29.71,0,0,0-.52-3,8.62,8.62,0,0,0-4.43-6.11q2.19-11.5,4.35-23a9.71,9.71,0,0,0-.17-4.41q1.69-5.81,3.64-11.51c2.27-6.75-5.55-9.43-8.52-4.73a86.47,86.47,0,0,0-6.34,12.06,8.7,8.7,0,0,0-.63.86c-2.48,4.12-4.84,8.16-7,12.29a7.45,7.45,0,0,0-1.46.8c-8.43,6-12.32,23.85-14.8,34.8a140.16,140.16,0,0,0-2.76,42.8,11.28,11.28,0,0,0,3.39,7.11,30.3,30.3,0,0,0,6.14,12.94l.14.14a43.1,43.1,0,0,0,4,8.55c2.39,3.88,5.9,5,9,4,.2.19.37.39.58.56,3.18,2.69,6.62,2.86,9.4,1.15a8.78,8.78,0,0,0,1.83.62,8.74,8.74,0,0,0,8.49,4.32c.67-2.09,1.42-4.12,2.24-6,2.73-6.35,7.22-11.42,11.3-16.37,4.56-5.52,9.32-10.79,14.19-15.85,4.38-4.56,8.89-9.79,13.82-13.49,0-.13-.1-.25-.15-.38A55.41,55.41,0,0,1,309.61,186.93Z"/><path class="cls-10" d="M449.16,144.32a107.6,107.6,0,0,0-2-11c-2.84-11-8.15-20.85-16.36-23.59-.74-1.39-5.32-5.5-6.13-6.42-3.77-4.34-5.48-4.33-9.8-7.71-8.75-6.87-18.32-12-28.84-13.53a6.73,6.73,0,0,0-1.79,0c-6.18-5-13.26-7.26-20.78-4.6-6.14,2.16-3.61,13.13,2.49,11.88,3.61-.74,7.11.34,10.33,2.57-.47,4.08.88,8.33,4.83,10.42a22.34,22.34,0,0,1,4.08,2.84c1.59,11.33,6.39,21.19,9.33,31.53a13.17,13.17,0,0,0-.53,1.9,132.93,132.93,0,0,0-2.51,17.5c-.27.81-.53,1.62-.8,2.43L385,175.82a14,14,0,0,0-.67,3.42c4.87-1.7,10-2.15,15.06-2.37l4-.17a37,37,0,0,1,7.14-.19c3,0,6,0,9,.16,6.92.41,13.72,1.48,20.19,4.72.45.22,1.29.55,2.25,1,7.63-5,9.56-17.4,11.83-27A10.22,10.22,0,0,0,449.16,144.32Z"/><path class="cls-11" d="M325.32,192l-1.31-.5-.66-.25c.14,0,.44.19-.18-.08-1-.45-2.11-.82-3.18-1.19l-.68-.25c.53.2,0,0-.12-.06l-1.35-.55c-1-.42-1.93-.83-2.88-1.28a59.06,59.06,0,0,1-5.38-2.87c-.84-.49-1.66-1-2.48-1.55l-1.31-.87c.47.32-.08-.06-.14-.1l-.81-.58a73,73,0,0,1-9.81-8.53c-.55-.58-1.56-1.68-1.83-2,.28.32-.26-.3-.31-.37s-.35-.4-.52-.61c-.38-.46-.76-.93-1.13-1.4q-2-2.49-3.65-5.16c-.55-.86-1.07-1.74-1.57-2.62-.25-.44-.5-.89-.74-1.34-.12-.23-.7-1.37-.4-.77q-1.42-2.91-2.55-5.94T280.41,147c-.27-1-.52-2.08-.74-3.13-.05-.2-.09-.39-.13-.59.14.67,0,0,0-.12-.11-.66-.23-1.33-.34-2a67.21,67.21,0,0,1-.77-12.91c0-.53,0-1.07.09-1.6-.05.74.07-.8.09-.93.1-1.07.24-2.13.4-3.18a55.3,55.3,0,0,1,1.35-6.23,62.24,62.24,0,0,1,6.24-14c1.31-2.28,2.7-4.51,4.1-6.74.73-1.17,1.45-2.34,2.14-3.54a17.91,17.91,0,0,0,.95-1.85,4.91,4.91,0,0,0-.23-4.12c-.42-1-2.52-1.86-3.42-1l-.63,0-.85.39a4.23,4.23,0,0,0-1,1,27.06,27.06,0,0,0-1.68,2.3c-.89,1.27-1.72,2.57-2.55,3.87-1.3,2-2.58,4.09-3.8,6.17a74.15,74.15,0,0,0-6.46,14,62.87,62.87,0,0,0-2.34,27.12,66.6,66.6,0,0,0,26.71,46.31A68.2,68.2,0,0,0,310.26,194c4.53,2.09,9.24,3.69,14.28,3.69a2.92,2.92,0,0,0,2.88-2.53,3,3,0,0,0-2.1-3.21Z"/><path class="cls-11" d="M291.72,85.28a14.91,14.91,0,0,0-4.5.87,26.87,26.87,0,0,0-4,2.24,68.19,68.19,0,0,0-7.93,6,83.24,83.24,0,0,0-12.76,14.52c-8,11.19-13.9,23.71-18.65,36.58-5.37,14.52-9.59,29.65-10.43,45.18-.76,14.27,1.68,29.76,9.58,41.94,7.22,11.13,20.92,19.4,34.36,14.8a8.07,8.07,0,0,0,2.86-1.49,7.83,7.83,0,0,0,1.6-2.48c.82-1.71.17-4.11-1.91-4.55a10.55,10.55,0,0,0-2.89-.44,11.34,11.34,0,0,0-2.78.86c-.65.23-1.32.41-2,.59,1.09-.29,0,0-.21,0l-1,.14a17.6,17.6,0,0,1-7.68-.8,21.26,21.26,0,0,1-3.57-1.54c-.65-.34-1.28-.71-1.9-1.09-.06,0-1.06-.73-.36-.23l-.91-.66a31.29,31.29,0,0,1-3.42-3c-.28-.27-.54-.55-.81-.83,0,0-.85-1-.36-.4-.51-.59-1-1.21-1.45-1.84a45.33,45.33,0,0,1-4.49-7.65,58.69,58.69,0,0,1-3.23-9.32,59.59,59.59,0,0,1-1.63-9.45,83.07,83.07,0,0,1-.4-10.34c.34-14.43,4.31-29,9.12-42.68,2-5.77,4.49-11.84,7.23-17.71a138.76,138.76,0,0,1,9.19-16.74,96.53,96.53,0,0,1,12.4-15.35,60.89,60.89,0,0,1,7.1-6.26c1.2-.91,2.46-1.75,3.69-2.63a23.22,23.22,0,0,0,3.55-3.46,1.64,1.64,0,0,0-1.38-2.82Z"/><path class="cls-11" d="M383.49,181.24c8.42-13.89,12.19-30.71,11.41-46.88-.76-15.62-5.91-31.78-17.45-42.83a43,43,0,0,0-12.92-8.59c-5.23-2.22-10.78-3.37-16.24-4.84-3.49-.93-5,4.47-1.49,5.41,4.63,1.24,9.35,2.22,13.86,3.88a37.08,37.08,0,0,1,11,6.46,46.53,46.53,0,0,1,12.39,17.07c5.93,13.4,6.63,29.65,3.63,44a73.25,73.25,0,0,1-9,23.46c-1.87,3.09,3,5.91,4.84,2.83Z"/><path class="cls-11" d="M348.29,83.51c20.1-6.33,41.43-2.5,59.33,8.48a98.14,98.14,0,0,1,25.11,22.46,112.08,112.08,0,0,1,10.14,15.12,61.62,61.62,0,0,1,6.87,16.37c2.79,12,1.09,25.61-8.2,34.48-2.62,2.5,1.35,6.46,4,4,9.14-8.74,12.23-21.83,10.66-34.09-1.64-12.78-8.09-24.33-15.53-34.65a107.43,107.43,0,0,0-26.19-25.91,85.3,85.3,0,0,0-30.69-13.36,73.68,73.68,0,0,0-33,.6c-1.31.34-2.62.72-3.92,1.12-3.43,1.08-2,6.5,1.49,5.41Z"/><path class="cls-12" d="M330,188.63a36.6,36.6,0,0,0-7.67,4.12,81.2,81.2,0,0,0-6.81,4.82,122.33,122.33,0,0,0-12.93,11.57,119.75,119.75,0,0,0-10.95,13.35A68.22,68.22,0,0,0,282.73,239a58.75,58.75,0,0,0-2.62,9.84,42.27,42.27,0,0,0-.64,5.25,17.5,17.5,0,0,0,0,2.61,12.47,12.47,0,0,0,1,3.61c.77,1.89,3.29,1.06,3.9-.41a12.74,12.74,0,0,0,.9-2.58c.15-.74.25-1.47.35-2.21.22-1.54.4-3.09.66-4.63a55.39,55.39,0,0,1,9.59-23.26A123.35,123.35,0,0,1,317.42,203c2.25-1.91,4.63-3.68,7-5.41s5.28-3.24,7.64-5.17c1.73-1.41,0-4.47-2.12-3.79Z"/><path class="cls-12" d="M377.49,185.81c2.44,0,4.65-2.14,6.78-3.21a35.41,35.41,0,0,1,6.62-2.48,57.43,57.43,0,0,1,14.95-1.7c9.81,0,20,.25,28.88,4.72a38.05,38.05,0,0,1,6,3.74c1,.77,2,1.59,2.95,2.41a13.84,13.84,0,0,0,4,2.33c1.63.65,3.13-1.32,2.69-2.79-1.5-4.88-6.94-8.13-11.16-10.51a44.2,44.2,0,0,0-14-5,107.49,107.49,0,0,0-17.47-1.12A65.48,65.48,0,0,0,390.62,174a39.58,39.58,0,0,0-8.07,3.07,24.07,24.07,0,0,0-3.85,2.28c-1.33,1-2.91,2.15-3.18,3.91a2.06,2.06,0,0,0,2,2.57Z"/><path class="cls-11" d="M208.07,194.11A24.33,24.33,0,0,1,203.18,184c-1-4.41-.73-9-1-13.46a38.34,38.34,0,0,0-2.87-12.73,34.43,34.43,0,0,0-6.53-9.89c-2.67-2.85-5.93-5.39-9.79-6.23-1.07-.23-2.29.1-2.38,1.41-.08,1.15,1.25,2,2,2.69,1.53,1.37,3.22,2.54,4.71,4a32.69,32.69,0,0,1,6.69,8.85,30.61,30.61,0,0,1,3,11.57c.38,5.13.23,10.34,1.56,15.34a22,22,0,0,0,2.61,6.29,11.5,11.5,0,0,0,5.32,4.52c1.36.59,2.45-1.22,1.59-2.27Z"/><path class="cls-11" d="M179.62,143.49c1.34,1.5,3.85,2.18,5.72,2.75,2.12.64,4.25,1.24,6.34,2a20.55,20.55,0,0,1,8.67,5.6,33.6,33.6,0,0,1,5.42,8.46c.76,1.61,1.49,3.26,2.12,4.92a14.94,14.94,0,0,1,1.26,5.68,1.6,1.6,0,0,0,2.9,1c2.56-4,.12-8.92-1.69-12.79a40.32,40.32,0,0,0-6.24-9.76,23.92,23.92,0,0,0-9.83-6.65c-2.21-.78-4.52-1.29-6.79-1.86s-5.17-1.59-7.51-.88a1,1,0,0,0-.37,1.55Z"/><path class="cls-11" d="M238.35,116.41a14.86,14.86,0,0,1-4.44-8.9c-.34-4,1.66-7.51,3.53-10.93,4.34-7.91,7.1-16.47,6.95-25.57-.07-4.39-.58-9.67-4.27-12.56-1.4-1.09-3.26.72-2.52,2.2a21.5,21.5,0,0,1,2.06,5.22,26.1,26.1,0,0,1,.45,5.85,43.12,43.12,0,0,1-2.18,12.88c-1.45,4.36-3.94,8-6.09,12.05-2.05,3.82-3.3,7.76-2.68,12.12a14.39,14.39,0,0,0,6.77,10.43c1.73,1,4-1.22,2.42-2.79Z"/><path class="cls-11" d="M237.41,60c2.83,5.65,8.68,9.33,10.11,15.75a26.76,26.76,0,0,1,.36,8.23c-.28,3-1,6-.75,9,.11,1.5,2.58,2,3.27.63,1.51-2.89,2-6.48,2.22-9.7a26.06,26.06,0,0,0-.79-9.39,22,22,0,0,0-4.89-8.32c-2.36-2.65-4.75-5.71-7.68-7.74A1.25,1.25,0,0,0,237.41,60Z"/><path class="cls-11" d="M313.11,169.69c-.09-1.2-1-2.06-1.77-2.91a8.29,8.29,0,0,1-1.48-2.47,14.54,14.54,0,0,1-.44-7.63,43.25,43.25,0,0,1,2.06-7.57c.91-2.51,2.15-4.92,2.83-7.51.32-1.24-1.19-2.76-2.3-1.61-2.33,2.41-3.62,5.58-4.65,8.71a49.5,49.5,0,0,0-2,9.16,15.78,15.78,0,0,0,1,8.91c1.05,2.17,3.7,5.61,6.4,3.9a1,1,0,0,0,.37-1Z"/><path class="cls-11" d="M312.22,141.34c-2.24,1.68,1.31,5.9,2.28,7.41a91.2,91.2,0,0,1,5.3,8.93c2.82,5.78,3.58,12,1.17,18.08a1.37,1.37,0,0,0,2.4,1.26c3.85-5.21,2.91-12.41.7-18.11a46,46,0,0,0-4.77-8.84c-.94-1.41-1.92-2.79-2.88-4.18-.51-.72-1-1.45-1.53-2.16a11.73,11.73,0,0,0-1.49-1.5.77.77,0,0,0-1.18-.89Z"/><path class="cls-11" d="M237.73,251.53a25.41,25.41,0,0,1-4.53-2.45,32.36,32.36,0,0,1-3.92-2.74,24.53,24.53,0,0,1-5.91-7.41,25.84,25.84,0,0,1-2.74-10.55,33,33,0,0,1,.25-5.62c.29-2.12.9-4.18,1-6.3a1.36,1.36,0,0,0-2.44-.9c-2.35,3.46-2.73,8.5-2.62,12.6A29.35,29.35,0,0,0,220,240.9a25.92,25.92,0,0,0,7.19,8.65,18.87,18.87,0,0,0,4.83,2.77,19.11,19.11,0,0,0,5.31.94.9.9,0,0,0,.44-1.73Z"/><path class="cls-11" d="M219.24,217c-.74,1.66-.09,3.51.45,5.16a20.33,20.33,0,0,0,2.42,4.9,16.72,16.72,0,0,0,7.95,6.82,1.06,1.06,0,0,0,1-1.84,29.58,29.58,0,0,1-6.47-6.65,22.5,22.5,0,0,1-2.07-4.17,16.85,16.85,0,0,1-.69-2.19,5.47,5.47,0,0,0-1-2.26.93.93,0,0,0-1.58.23Z"/><path class="cls-11" d="M359.48,66.84c-2.6-1.77-5.27-3.41-7.89-5.14a18.15,18.15,0,0,1-6.06-6.29,26.18,26.18,0,0,1-2.68-8.22,69.94,69.94,0,0,0-1.61-8.78,1.32,1.32,0,0,0-2.6.12A28.22,28.22,0,0,0,339,48.85a28.22,28.22,0,0,0,3.18,9A20.93,20.93,0,0,0,349,64.88a27.14,27.14,0,0,0,9.84,3.48.85.85,0,0,0,.61-1.52Z"/><path class="cls-11" d="M338.48,39.38a11.28,11.28,0,0,0,1.28,2.46,15.54,15.54,0,0,0,2.14,1.91,52.22,52.22,0,0,0,5.18,3.63c3.5,2.18,7.14,4.13,10.82,6,3.38,1.72,7,3.1,10.27,5a16.92,16.92,0,0,1,4,3,10.91,10.91,0,0,1,2.32,4.08c.45,1.27,2.12.49,2.07-.63-.14-3.26-2.75-5.92-5.25-7.72a69,69,0,0,0-10.08-5.53c-3.8-1.87-7.57-3.82-11.21-6-1.84-1.09-3.66-2.24-5.45-3.41a26.88,26.88,0,0,1-2.38-1.69,23.31,23.31,0,0,1-2.41-1.81c-.56-.6-1.72-.06-1.31.77Z"/><path class="cls-11" d="M351.37,98.74c.8.45,1.57,1,2.4,1.34s1.72.65,2.57,1c1.75.69,3.49,1.42,5.16,2.27a31.82,31.82,0,0,1,8.38,6.38c.87.88,2.58,0,1.95-1.22-1.77-3.56-5.08-5.93-8.52-7.73a44.38,44.38,0,0,0-5.39-2.35c-.95-.34-1.91-.7-2.88-1a21.44,21.44,0,0,0-3-.45c-.9-.1-1.56,1.26-.69,1.75Z"/><path class="cls-11" d="M352,99.54c.54,1.39,1.29,2.74,1.91,4.11s1.19,2.65,1.74,4a50.88,50.88,0,0,0,3.56,7.76,12.81,12.81,0,0,0,6.13,5.55,8,8,0,0,0,4.22.57,5,5,0,0,0,3.41-2.66c.41-.74-.44-1.54-1.15-1.43a16.12,16.12,0,0,1-3.33,0,5.43,5.43,0,0,1-2.53-.81c-1.92-1.17-3.07-3.22-4-5.19-1.07-2.27-1.91-4.64-3-6.91-1.16-2.5-2.5-5.2-4.64-7-1.35-1.15-2.88.71-2.36,2.05Z"/><path class="cls-11" d="M434.59,96.25a101.1,101.1,0,0,1-3.54-9.69,29.11,29.11,0,0,1-1.66-9.27c0-3.4,1.21-6.48,2.26-9.66a37.91,37.91,0,0,0,1.33-4.8,22.85,22.85,0,0,0,.34-5.78c-.09-1.47-2.08-1.27-2.59-.22a94.93,94.93,0,0,0-3.94,10.77,29.29,29.29,0,0,0-2.06,10.62,27.42,27.42,0,0,0,2.41,10.27,40.31,40.31,0,0,0,5.8,8.77,1,1,0,0,0,1.65-1Z"/><path class="cls-11" d="M430.28,56.31c.1,1.25-.08,2.36.13,3.61s.42,2.34.71,3.48a39,39,0,0,0,2.55,6.67c2,4.25,4.38,8.28,6.44,12.49a41.91,41.91,0,0,1,4.31,12.91c.58,4.44-.39,8.55-1.62,12.78a1.39,1.39,0,0,0,2.42,1.28c4.68-5.4,3.61-14.37,1.54-20.66C444.34,81.51,440.09,75,436.71,68c-.91-1.87-1.67-3.78-2.49-5.7a28.62,28.62,0,0,1-1.16-3.13A30.8,30.8,0,0,1,432,56a.89.89,0,0,0-1.75.27Z"/></g></g></g></g><g id="Layer_102" data-name="Layer 102"><g id="Cuerno"><rect class="cls-13" width="464" height="265"/></g></g></g></g></svg>