<svg xmlns="http://www.w3.org/2000/svg" xmlns:xlink="http://www.w3.org/1999/xlink" viewBox="0 0 464 265"><defs><style>.cls-1{isolation:isolate;}.cls-2{fill:url(#Degradado_sin_nombre_9);}.cls-3{fill:url(#Degradado_sin_nombre_9-2);}.cls-4{fill:url(#Degradado_sin_nombre_9-3);}.cls-5{fill:#f15a24;}.cls-6{fill:#42210b;}.cls-7{fill:none;mix-blend-mode:multiply;opacity:0.4;}</style><radialGradient id="Degradado_sin_nombre_9" cx="252.83" cy="158.34" r="76.8" gradientUnits="userSpaceOnUse"><stop offset="0.13" stop-color="#cedff1"/><stop offset="0.17" stop-color="#d0e0e9"/><stop offset="0.24" stop-color="#d6e0d1"/><stop offset="0.33" stop-color="#dee3ad"/><stop offset="0.44" stop-color="#e9e780"/><stop offset="0.56" stop-color="#f8ec57"/><stop offset="0.57" stop-color="#f9ec56"/><stop offset="0.87" stop-color="#e9963e"/><stop offset="0.99" stop-color="#df6437"/></radialGradient><radialGradient id="Degradado_sin_nombre_9-2" cx="363.95" cy="109.39" r="75.3" xlink:href="#Degradado_sin_nombre_9"/><radialGradient id="Degradado_sin_nombre_9-3" cx="438.52" cy="148.45" r="0.06" xlink:href="#Degradado_sin_nombre_9"/></defs><g class="cls-1"><g id="Layer_2" data-name="Layer 2"><g id="Variacion_C" data-name="Variacion C"><g id="AssetsF3"><g id="HornE3"><g id="Capa_36" data-name="Capa 36"><path class="cls-2" d="M287.88,231.32c1.56-4.66,2.63-8.6,5.62-12.65a100,100,0,0,1,11.08-12.11,129.19,129.19,0,0,1,12.47-10.78c4.12-3.08,8.52-5,12.88-7.47a7.8,7.8,0,0,0,0-1.08,6.93,6.93,0,0,0-.82-2.78c2.78-1.78,4.39-5,2.67-8.32a6.13,6.13,0,0,0-.35-3.89,33.34,33.34,0,0,0-8.88-12.16,7.34,7.34,0,0,0-3.45-1.72c-.82-1.39-1.62-2.8-2.38-4.23a6.13,6.13,0,0,0-4.87-3L295.07,133.8c-1.15-1.19-2.34-2.36-3.52-3.54A61.94,61.94,0,0,1,291.43,93c1.15-3.78-1.22-6.69-4.37-7.89a21.55,21.55,0,0,0-11.21,14.34,1.88,1.88,0,0,1-2.45,1.39A82.06,82.06,0,0,0,271,114.12a8.5,8.5,0,0,0-4.7,1.11q-2.25-4.11-4.66-8.15a7.09,7.09,0,0,0,.45-2,1.5,1.5,0,0,1-.15-.25c-1.45-3.13-6.2-5.31-9-7.09-.55-.36-1.11-.7-1.66-1a1.88,1.88,0,0,1-1.47-.21,117.5,117.5,0,0,0-10.41-5.65l-.1-.06-1.11-.09c-9.82-.68-19.86-1.9-29.52.58-17.69,4.53-30.1,24.82-34.4,41.44-1.17,4.5-2.15,10.79,1.67,11.42,2.45-2.74,10-7.78,13.44-7.81q1.14-1.15,2.34-2.25a7,7,0,0,0,2.92,1.3,177.76,177.76,0,0,1,18,4.49,30.77,30.77,0,0,0,6.82,3c2.86,1.89,5.69,3.82,8.48,5.83a7.18,7.18,0,0,0,2.77,1.22l7.38,20.5a6.58,6.58,0,0,0,5.32,4.64c2.46,14.35,5,28.79,10.23,42.43a31.4,31.4,0,0,1,9.48,7.59l.55-.13a8.18,8.18,0,0,0,6.68,1l.21.53a7.35,7.35,0,0,0,10.08,3.89,7.32,7.32,0,0,0,7.19,1.53A2.15,2.15,0,0,1,287.88,231.32Z"/><path class="cls-3" d="M385.78,177c10.55-1.78,20.88-3.07,31.59-2.14,4.76.42,10.54.81,15.47,2.54,10.59-4.26,15.09-19.72,6.1-28.46l-.14-.14c-.51-1.39-.42-.95-.25-.28a.86.86,0,0,1,.07.1l-.06-.06c.21.79.52,1.83.12.52l-.18-.59c-.53-.55-.33-.46,0-.07-.24-.77-.48-1.53-.71-2.3a18.55,18.55,0,0,0-2.27-7.83l-1.81-3.35a45.17,45.17,0,0,0-2.31-4.27l-5.61-10.39a156.69,156.69,0,0,1-10.09-13.08c-1.95-2.74-8.2-10-6.06-14.06-1-10,0-20.64,5.89-28.69a14.85,14.85,0,0,0-3.77-4.16,66.25,66.25,0,0,1-8.25,7.26,29.62,29.62,0,0,1-7.59,9v.19a2.14,2.14,0,0,1-1.09,1.84c0,.28.07.56.09.84.15,1.87-2.63,3.07-3.64,1.29A26.61,26.61,0,0,1,389.53,77c-2.45-2.41-5.12-5.37-6.17-8.71q-1.16,1.58-2.28,3.18a98,98,0,0,0-7.3-12.75,1.61,1.61,0,0,1-1-.11c-3.47-1.58-5.77-4.69-9-6.65-2.55-1.55-5.17-2.93-7.58-4.64a37.19,37.19,0,0,0-9.62-.69l-2.53-1.38c-9.28-5.07-18.3-7.44-28.93-6a43,43,0,0,0-11.28,3.32,1.77,1.77,0,0,1-1,1.34c-4.4,2.32-8.43,8.7-11.05,12.78A40.6,40.6,0,0,0,286,71.5a17.12,17.12,0,0,0,.94,1.69A17.7,17.7,0,0,0,289.21,76c2.68-1.18,6.29-1.14,8.83-1.2,4.63-.11,9.2.23,13.82-.13,1.52-.12,3.3-.29,5.21-.41a1.92,1.92,0,0,1,2.12-.71c.59.16,1.18.35,1.76.55,7.16-.08,14.76,1.21,16.69,8.22a2,2,0,0,1,0,1.23,23.74,23.74,0,0,1,5.18,5,1.62,1.62,0,0,1,.1,1.95c.15.1.3.19.45.3,0,0,1.15.9,1.83,1.41s1.51,1.44,1.66,1.6c.57.6,3.3,4.14,1.21,1.11a24.31,24.31,0,0,0,3.2,3.75,21.38,21.38,0,0,0,.25,7.16c.71,3.51,2.74,6.22,4.15,9.34-.42-.76.62,2.81.66,3,.36,1.63.6,3.29.85,4.94.53,3.56,1,7.12,1.72,10.65,2,9.8,4.15,20.17,9.32,28.6a13.29,13.29,0,0,0,1.71,3.71,28.49,28.49,0,0,0,15,11.26A1.89,1.89,0,0,1,385.78,177Z"/><path class="cls-4" d="M438.56,148.52v0a.86.86,0,0,0-.07-.1l0,.07Z"/></g><g id="Capa_35" data-name="Capa 35"><path class="cls-5" d="M328.46,194.5c.25-.07.32-.07.19,0a2.16,2.16,0,0,0,1.9-1.14,32.68,32.68,0,0,0,2.08-12.59,42,42,0,0,0-2-12.28c-2.48-7.78-7.36-14.15-13.34-19.59-5.53-5-11.71-9.34-17-14.68a33.55,33.55,0,0,1-9.75-19.83,59.7,59.7,0,0,1,.26-14c.63-5.12,1.38-10.19,1.75-15.35.16-2.16-2.85-2.33-3.55-.53-6.11,15.68-7.82,35.75,3.39,49.63,9.39,11.64,24.61,17.9,31.56,31.59a35.09,35.09,0,0,1,3.56,12.44,37.63,37.63,0,0,1,0,7c-.2,2.23-.74,4.41-1.15,6.6a2.24,2.24,0,0,0,.61,2.16c.44.35.78.74,1.39.64Z"/><path class="cls-5" d="M288.68,83.48c-3.66.92-7.12,3.87-9.79,6.42a35.09,35.09,0,0,0-6.74,9c-4.15,7.91-4.28,16.85-4.63,25.57a1.42,1.42,0,0,0,2.75.51c3.25-7.46,2.62-16,6.34-23.34a32.13,32.13,0,0,1,5.85-8,28.55,28.55,0,0,1,3.74-3.21c1.39-1,3-1.8,4.3-2.87,1.92-1.53.82-4.74-1.82-4.08Z"/><path class="cls-5" d="M271,124.63c-.37-5.45-1.63-11.51-4.91-16a46.88,46.88,0,0,0-10.84-10.57A56.34,56.34,0,0,0,227.07,88a49.41,49.41,0,0,0-28.43,6.13c-8.51,4.91-15.35,12.54-20.13,21.06-5.36,9.56-8.29,20.76-6.37,31.71a1.3,1.3,0,0,0,2.56-.2c.89-17.64,8.79-36.08,23.69-46.31S233.75,91,249,100.1a49.1,49.1,0,0,1,11.47,9.49A22.93,22.93,0,0,1,265,117c1,2.77,1.74,5.64,3,8.32.64,1.38,3.09.88,3-.7Z"/><path class="cls-5" d="M174,149.74a4.13,4.13,0,0,0,1.89-1.06,16.76,16.76,0,0,0,1.06-1.71,26,26,0,0,1,2-2.88,19.92,19.92,0,0,1,5.3-4.46,23.42,23.42,0,0,1,14-3.07c11.74,1.1,22.26,9.23,29.79,17.81a48.28,48.28,0,0,1,8.94,14.78c2.24,6,3.39,12.3,4.56,18.56,2.17,11.58,4.82,23.8,13.37,32.5a38.36,38.36,0,0,0,14.9,8.94,61.7,61.7,0,0,0,8.12,2.22c1.39.28,2.77.53,4.17.75a11.39,11.39,0,0,0,4.93.1,2.18,2.18,0,0,0,1.55-2.1,2.23,2.23,0,0,0-1.6-2.05,19.22,19.22,0,0,0-4.34-1.11,81.37,81.37,0,0,1-8.46-1.89,36.4,36.4,0,0,1-14.33-7.36c-8.8-7.8-11.23-20.14-13.3-31.17-1.19-6.33-2.34-12.72-4.59-18.79A53.57,53.57,0,0,0,232.69,152c-7.6-9.05-17.95-17.2-29.67-19.84-10.66-2.4-22.58.85-28.92,10.17a13.07,13.07,0,0,0-1.61,3.24,6.17,6.17,0,0,0-.43,1.84,3.8,3.8,0,0,0,1,2.1.77.77,0,0,0,.89.21Z"/><path class="cls-5" d="M434.79,177.33c4.52-.07,6.74-6.09,7.78-9.72a32.93,32.93,0,0,0,1-11.82c-.77-8.59-4.46-16.33-9.23-23.4-5.15-7.62-11.4-14.45-16.41-22.17-4.77-7.36-8.71-16-8-25a42.36,42.36,0,0,1,4-13.81c2.06-4.56,5-8.75,6.88-13.37.63-1.49-1.33-2.28-2.37-1.52-3.64,2.65-6.23,7-8.25,11a54.89,54.89,0,0,0-4.82,12.93c-2.06,9.23.42,18.47,4.64,26.71,8,15.7,23.74,27.35,27.82,45.05a30.46,30.46,0,0,1,.42,12.25,24.46,24.46,0,0,1-1.83,5.78c-.41.9-.9,1.75-1.33,2.64a7.21,7.21,0,0,0-1,3.86.79.79,0,0,0,.69.65Z"/><path class="cls-5" d="M420.42,56.31a11.26,11.26,0,0,0-1.38-.18,7.27,7.27,0,0,0-2.3.48,24.55,24.55,0,0,0-2.63,1.14,41.56,41.56,0,0,0-4.56,2.68,48.32,48.32,0,0,0-8.77,7.5,42.32,42.32,0,0,0-6.52,9A33.26,33.26,0,0,0,392,82.24,18.22,18.22,0,0,0,390.74,88a1.24,1.24,0,0,0,2.24.76,52.73,52.73,0,0,0,2.6-5c.88-1.55,1.75-3.1,2.7-4.6a55,55,0,0,1,6.23-8.26,46.43,46.43,0,0,1,7.83-6.71c1.46-1,3-1.85,4.52-2.7.74-.41,1.5-.8,2.23-1.23a9.11,9.11,0,0,0,1.24-.9,1.76,1.76,0,0,0,.65-.62c.15-.47.21-.57.18-.29a1.25,1.25,0,0,0-.74-2.15Z"/><path class="cls-5" d="M392.68,87.38c1.2-2.39.25-4.88-.75-7.2A32,32,0,0,0,388,73.54,103.21,103.21,0,0,0,377.4,61.72a90.45,90.45,0,0,0-24.81-17.43,66.75,66.75,0,0,0-31.39-6.4,43.81,43.81,0,0,0-15.57,3.43,31.29,31.29,0,0,0-11.12,8.46c-6.46,7.71-9.93,17.67-11.88,27.42A1.27,1.27,0,0,0,285,78c3.28-7.68,6-15.81,11-22.61a30,30,0,0,1,8.65-8,33.52,33.52,0,0,1,13.88-4.23c19.74-2,38.57,7,53,20A130.69,130.69,0,0,1,382.57,74.5a48.64,48.64,0,0,1,4.7,6.16c1.43,2.27,2,5,3.8,7a1,1,0,0,0,1.61-.28Z"/><path class="cls-5" d="M385.1,177.45c-2.25-1.29-4.67-2.28-6.84-3.74a28.13,28.13,0,0,1-5.37-5,36.69,36.69,0,0,1-7.21-13.43c-3.83-12.48-2.79-25.85-5.75-38.52a70.67,70.67,0,0,0-15.09-30.05,52.5,52.5,0,0,0-12.59-10.81,44.45,44.45,0,0,0-14.78-5.3,57.12,57.12,0,0,0-18.22-.29c-5.92.88-12.15,2.19-16.81,6.18A1.44,1.44,0,0,0,283.72,79c5-1,9.89-2.8,15-3.51a56.88,56.88,0,0,1,15.42-.18,42.4,42.4,0,0,1,14.2,4.33,45.77,45.77,0,0,1,12.15,9.89c7.27,8,12.05,18.19,14.54,28.68,3,12.58,2.07,25.83,5.87,38.25A42.51,42.51,0,0,0,369.38,172c3.62,4.14,9.57,8.26,15.29,7.64a1.2,1.2,0,0,0,.43-2.14Z"/></g><path class="cls-6" d="M331.2,186.19c-21.74,8.92-43.24,28.7-47.61,52.68-.85,4.71,6.6,5.47,7.42.76,3.72-21.26,24.26-38.92,43.28-46.66,4.45-1.81,1.35-8.61-3.09-6.78Z"/><path class="cls-6" d="M380.45,184.14c8.52-4.78,18-6,27.67-5.87,9.18.1,19.1.35,27.16,5.24,3.26,2,6.75-2.84,3.47-4.85-8.83-5.43-19.23-6.15-29.36-6.32-10.84-.19-21.77,1-31.36,6.35-3.31,1.86-.94,7.33,2.42,5.45Z"/></g></g></g><g id="Layer_102" data-name="Layer 102"><g id="Cuerno"><rect class="cls-7" width="464" height="265"/></g></g></g></g></svg>