<svg xmlns="http://www.w3.org/2000/svg" xmlns:xlink="http://www.w3.org/1999/xlink" viewBox="0 0 275 259.5"><defs><style>.cls-1{isolation:isolate;}.cls-2{fill:url(#Degradado_sin_nombre_141);}.cls-3{fill:url(#Degradado_sin_nombre_134);}.cls-4{fill:url(#Degradado_sin_nombre_95);}.cls-5{fill:url(#Degradado_sin_nombre_95-2);}.cls-6{fill:url(#Degradado_sin_nombre_95-3);}.cls-7{fill:url(#Degradado_sin_nombre_95-4);}.cls-8{fill:url(#Degradado_sin_nombre_95-5);}.cls-9{fill:#fcee21;}.cls-10{fill:none;mix-blend-mode:multiply;opacity:0.4;}</style><radialGradient id="Degradado_sin_nombre_141" cx="114.54" cy="88.31" r="55.5" gradientUnits="userSpaceOnUse"><stop offset="0" stop-color="#603813"/><stop offset="0.81" stop-color="#f15a24"/><stop offset="0.89" stop-color="#f7931e"/><stop offset="1" stop-color="#cce0f4" stop-opacity="0"/></radialGradient><radialGradient id="Degradado_sin_nombre_134" cx="114.24" cy="88.31" r="54.17" gradientUnits="userSpaceOnUse"><stop offset="0" stop-color="#fca921"/><stop offset="0.32" stop-color="#fbd820"/><stop offset="0.5" stop-color="#f7931e"/><stop offset="0.67" stop-color="#f15a24"/><stop offset="0.82" stop-color="#703c15"/><stop offset="1" stop-color="#facf20" stop-opacity="0"/></radialGradient><radialGradient id="Degradado_sin_nombre_95" cx="100.37" cy="61.87" r="4.38" gradientTransform="translate(0.79 -0.88) scale(0.99 0.76)" gradientUnits="userSpaceOnUse"><stop offset="0.2" stop-color="#ffffbd"/><stop offset="0.24" stop-color="#fffeb4"/><stop offset="0.32" stop-color="#fefb9a"/><stop offset="0.42" stop-color="#fef771"/><stop offset="0.53" stop-color="#fcf038"/><stop offset="0.57" stop-color="#fcee21"/><stop offset="0.88" stop-color="#fcee21"/></radialGradient><radialGradient id="Degradado_sin_nombre_95-2" cx="120.99" cy="62.41" r="4.6" xlink:href="#Degradado_sin_nombre_95"/><radialGradient id="Degradado_sin_nombre_95-3" cx="141.4" cy="72.04" r="6.58" xlink:href="#Degradado_sin_nombre_95"/><radialGradient id="Degradado_sin_nombre_95-4" cx="149.36" cy="133.67" r="6.35" xlink:href="#Degradado_sin_nombre_95"/><radialGradient id="Degradado_sin_nombre_95-5" cx="148.27" cy="144.99" r="6.76" xlink:href="#Degradado_sin_nombre_95"/></defs><g class="cls-1"><g id="Layer_2" data-name="Layer 2"><g id="Variacion_A" data-name="Variacion A"><g id="AssetsF3"><g id="LoinE3"><circle class="cls-2" cx="114.54" cy="88.31" r="55.5"/><path class="cls-3" d="M168,88.31c0-2.52.62-5,.28-7.42-.4-2.9-1.83-6.52-2.68-9.26-.94-3-2.92-5.13-4.35-7.89-1.08-2.07-.71-4.07-2-6-2-2.88-3.61-6.31-6.14-8.74-1.85-1.78-5-2.43-7.07-3.93-3.57-2.56-6.85-6.23-11-7.86-3-1.17-7-.77-10.26-1.39s-5.12-1.75-8.6-1.75c-3.09,0-6.48,1.07-9.43,1.57-2.44.42-6.32-.74-8.64,0-2.76.88-5.31,3.42-7.86,4.71a60,60,0,0,0-7.07,4.72A49.21,49.21,0,0,0,76,50.59c-2,2-3.09,4.79-4.72,7.07a53.32,53.32,0,0,0-4.14,5.89,52.45,52.45,0,0,0-3.26,7.62c-.7,2.07-2.07,4.19-2.51,6.37-.71,3.48-.3,7.08-.3,10.77,0,3-1.33,5.87-.87,8.7.38,2.32,2.48,4.6,3.15,6.81.87,2.86,1.18,5.62,2.5,8.26A73,73,0,0,0,71.82,122c1.9,2.53,4,3.31,6.33,5.45,2,1.9,4.23,5.21,6.54,6.77,3.79,2.55,7.93,3.85,12.32,5.37,3,1,6.1,1,9.3,1.52,2.68.42,5.42,1.42,8.21,1.42,1.88,0,3.73-.89,5.56-1.08a52,52,0,0,0,9-1.71c2.62-.73,5.15-.88,7.59-2s4.52-3,6.64-4.4a59,59,0,0,0,8.53-6c2.47-2.31,3.94-4.85,5.94-7.59,1.76-2.42,4.11-5,5.46-7.71,1.46-2.94,1.87-6,2.77-9.26.67-2.36,1.95-4.78,2.29-7.26S168,90.75,168,88.31Z"/><path class="cls-4" d="M102.8,46s2.56-2.91,1-3.06-9,4.15-7.8,3.78,5.36,0,5.36,1.42v1.43s3,.85,2.44-.47A23.54,23.54,0,0,1,102.8,46Z"/><path class="cls-5" d="M120.83,43.89s-3.24-1.78-4.16.36-.47,2.44,0,3.72-.64,2.18,1.07,1.91a8.74,8.74,0,0,1,4.13,0c1.73.39,3.79,1,2.76,0s-3-2-3.17-3.5A10.15,10.15,0,0,0,120.83,43.89Z"/><path class="cls-6" d="M140.24,52.83s-2.31-4.29-4.16-4.29-.46.69,0,2,2.78,1.62,2.78,3.41,1.38,3.93,2.31,3.93,1-1.56,1-1.56,4.57,4.77,4.1,3.34-1.93-5.45-3.28-5.4A4.61,4.61,0,0,1,140.24,52.83Z"/><path class="cls-7" d="M151.8,95.69s-2.77,1.43-3.7,2.86-.92,3.21-2.31,3.57.46,1.12,0,1.45-2.31,3.91-1.85,3.55a10.28,10.28,0,0,0,2.78-1.78c.92-1.08,2.31-2.15,3.23-3.22s1.39-2.14,1.39-1.43-1.85,2.86-.93,2.5a4.92,4.92,0,0,0,2.32-4.28c0-2.15.92-1.08.46-2.5S151.8,95.69,151.8,95.69Z"/><path class="cls-8" d="M152.73,104.26c-.47,0-2.78.72-3.24,1.43s-3.24,1.79-3.7,2.86-4.16,3.57-3.23,3.22,4.16-2.86,4.16-2.5-4.16,2.85-4.63,3.57a4.22,4.22,0,0,0-.46,2.14c0,.36.09,1.43,1.43,0a42.34,42.34,0,0,0,3.19-3.78c.93-1.22,3.24-2.29,4.16-3.72s3.5-2,2.91-2.62Z"/><path class="cls-9" d="M129,134.67c0,.52.27.56.59.44,1-.38,2-.77,3-1.19a8.6,8.6,0,0,1,1.21-.51,17.47,17.47,0,0,1-2,1.33,18.73,18.73,0,0,1-2.22.76c-.87.3-1.73.67-2.61.93a7.49,7.49,0,0,1-1.63.26c-.61,0-1.23-.05-1.84,0a25.16,25.16,0,0,0-4.51.66c-.77.24-1.38,1.16-2.05,1.8-.5.49-.49.5-1.2.25l1.56-1.4-.09-.33a10.69,10.69,0,0,0-2.34.27,9.72,9.72,0,0,1-4.54.31c-1.61-.22-3.24-.33-4.85-.58a4.08,4.08,0,0,1-1.25-.74l-.39-.22c1,.29,2.09.61,3.15.85a9.42,9.42,0,0,0,2,.25,33.93,33.93,0,0,0,4.73-.11c1.7-.23,3.38-.76,5.07-1.16l2.12-.52c-.6-2-1-2.25-2.61-2.23a19.24,19.24,0,0,1-2.52-.08c-3.25-.33-6.5-.65-9.74-1.07a58.38,58.38,0,0,1-6.71-1.14c-2.21-.55-4.35-1.41-6.52-2.14l-3.31-1.09a9.36,9.36,0,0,0,3,4.29,5.14,5.14,0,0,0,1.9,1.17,35.17,35.17,0,0,0,3.84.74,10.59,10.59,0,0,1,5.39,2.14,18.05,18.05,0,0,0-6.44-2c-1.73-.27-3.45-.72-5.17-1.09a.48.48,0,0,1-.29-.29l1.14.16-2.11-1.88a18.45,18.45,0,0,1-5.18-8.35c-.36-1.09-.65-2.17-2.15-2.3,1.12-.59,1-1.37.71-2.19-.67-1.92-1.47-3.7-3.49-4.27a.46.46,0,0,1-.28-.31l2.38.55a1.25,1.25,0,0,0,1.58-.82,25.72,25.72,0,0,1,5.68-8c1.38-1.35,1.36-1.72-.13-2.93-1-.81-2-1.66-3-2.52a16.64,16.64,0,0,1-4.45-7.17,4.19,4.19,0,0,0-2-2.4l-4.6-2.48a13.67,13.67,0,0,0,1.47-2.1c.37-.81,0-1.33-.79-1.48-1.69-.32-3.38-.64-5.07-.92-1.25-.2-1.5.1-1.73,1.45-.41,2.38-.9,4.74-1.37,7.11a.64.64,0,0,1-.23.41c.51-3,1.23-6,1.6-9.18a9.91,9.91,0,0,1-1.53.72c-.19.06-.46-.18-.69-.28.14-.23.23-.56.42-.67a10,10,0,0,1,1.57-.69,1.22,1.22,0,0,0,.9-1.29,44.65,44.65,0,0,1,2.13-13.17c.19-.68.18-1.22-.6-1.42a.82.82,0,0,1-.33-.58c.16-.23.49-.57.65-.51.77.27,1-.19,1.3-.85a9.77,9.77,0,0,1,2.94-4.25,1.74,1.74,0,0,0,.37-.81,25.6,25.6,0,0,1,3.79-8.14,11.34,11.34,0,0,1,1.18-1.33,29.4,29.4,0,0,0-3.26,7.3,6.46,6.46,0,0,0-.3,3.47c.5,2.05,1.56,2.61,3.11,2.33,3.12-.56,6.21-.12,9.31,0l10.72.32c3.83.12,7.68.09,11.5.38,4.26.33,8.51,1,12.76,1.45a1.64,1.64,0,0,0,2-1.14c.58-1.52,1.27-3,1.87-4.5.37-.94.25-1.29-.57-1.8a12.12,12.12,0,0,0-1.54-.74A3.17,3.17,0,0,1,125.56,56c-.26-.5-.74-.41-1,.14s-.58,1.31-.92,1.94c-.1.19-.34.3-.52.45l-.22-.2c.21-.64.41-1.29.63-1.93.38-1.09.13-1.57-.92-1.58-3.19,0-6.39,0-9.58,0h-2.29v-.23h4.9l6,0a2.32,2.32,0,0,0,2-.94A10.79,10.79,0,0,1,128,50a5.08,5.08,0,0,0,.76-.61c-1.35-.8-2.56-1.54-3.79-2.25-.7-.4-1.43-.74-2.12-1.16-1.12-.67-2.21-1.41-3.34-2a5.55,5.55,0,0,1-2.68-3,1.81,1.81,0,0,0-2-1.35c-.84,0-1.68-.33-2.54-.38a20.81,20.81,0,0,0-3,.13c-1.79.17-3.58.45-5.38.61a7.08,7.08,0,0,1-2.94,0c-2.32-.87-4.18.53-6.16,1.28-1.7.65-3.33,1.51-4.86,2.22,3.44-2.66,7.74-3.53,11.75-5.69l-.37.86a.62.62,0,0,0,.17.11,7.36,7.36,0,0,0,5.7-.49q2.06-1.07,4.18-1.95A22.56,22.56,0,0,0,107,38.54l0,.26,2.29-.2c1.62-.16,3.23-.37,4.86-.44a1.68,1.68,0,0,1,1.12.68,1.55,1.55,0,0,0,1.8.46s0,0,0-.15l-1-.3v-.22c1,0,1.94,0,2.91,0,.71,0,1.41,0,1.89-.88.2-.4,1-.48,1.51-.6a8,8,0,0,1,1.48,0c-1.24.08-1.5.31-1.9,1.43-.07.18-.45.3-.69.33-.81.09-1.63.13-2.44.2a1.64,1.64,0,0,0-.42.17A7.2,7.2,0,0,0,121,42.42c3.11,2,6.26,3.91,9.39,5.85a1.79,1.79,0,0,0,2.45-.34,8.07,8.07,0,0,1,1.55-1l.29.4a3.43,3.43,0,0,0-.52.23c-1.48,1-2.93,2.06-4.43,3-1.78,1.15-1.86,1.76-.24,3.14.77.65,1.63,1.16,2.38,1.84a1.91,1.91,0,0,1,.48,1.2c0,1.88,0,3.75,0,5.77l2.69.45a21.5,21.5,0,0,0,6.65.16A8.31,8.31,0,0,0,148.64,58a15.6,15.6,0,0,0,.7-3,7.43,7.43,0,0,0,0-1.26,2.05,2.05,0,0,1,.88,2.26,16.36,16.36,0,0,1-.7,2.84,1.3,1.3,0,0,0,.36,1.58,38.18,38.18,0,0,1,9.43,13.81c.11.29.21.57.31.87a5.18,5.18,0,0,1,.18.84c-2.29-6.36-6.48-11-11.08-15.46a6.15,6.15,0,0,1-3.37,3,22.06,22.06,0,0,1-4.13,1.09,23.12,23.12,0,0,1-8-.49,2.24,2.24,0,0,0-2.24.87c-2.77,3-5.6,5.84-8.41,8.75-.11.11-.22.23-.32.35-.52.63-.45,1,.25,1.34a1.08,1.08,0,0,0,.43.16c2.53.08,4.33,1.87,6.26,3.29a33.33,33.33,0,0,1,3.6,3.25,6.42,6.42,0,0,1,1.06,1.61c.57,1,.95,1.34,2,1.15,1.49-.26,3-.62,4.44-.89,4.56-.85,9.13-1.59,13.67-2.54,1.89-.39,3.71-1.19,5.58-1.77.26-.08.74,0,.83.12.25.43.35,1-.23,1.29a17.56,17.56,0,0,1-3.56,1.46c-5.72,1.2-11.46,2.29-17.19,3.4-.91.18-1.83.23-2.74.36a5.53,5.53,0,0,0-3.89,2.71,28.26,28.26,0,0,1-6,6.86,4.38,4.38,0,0,0-.86,1.15c-.46.73-.88,1.5-1.36,2.2s-.41.93.21,1.25,1.52.66,2.26,1c1.48.76,2.91,1.66,4.43,2.31a7.81,7.81,0,0,0,3.1.66,9,9,0,0,1,5.56,1.16,2.1,2.1,0,0,0,2.21-.08c1.33-.66,2.66-1.29,4-1.91a7.72,7.72,0,0,0,3.51-2.47c.15-.22.52-.27.92-.46a3.59,3.59,0,0,1-1.75,2.51c-1,.49-2,.87-3,1.39q-2,1.06-3.82,2.29a2.28,2.28,0,0,0-.5,2.78c.67,1.17,1.36,2.32,2,3.51a.88.88,0,0,0,1.26.42q4.75-1.87,9.5-3.78c.67-.26,1.31-.58,2-.88l.1.26-2.59,1.23c-.42.2-.86.37-1.26.6-1,.57-1.91,1.14-1.77,2.64a2.12,2.12,0,0,1-.31,1c0-.59.09-1.18.11-1.76s-.2-.73-.67-.58l-6.57,2c.06.39.14.79.21,1.19.11.64.21,1.28.35,1.91a2.29,2.29,0,0,1-.81,2.49,23.87,23.87,0,0,0-3.25,4,6.28,6.28,0,0,0-.55,1.9,3.69,3.69,0,0,1,.8.15,1,1,0,0,1,.52.52c.3,1.07.84,1.41,1.83,1a3.29,3.29,0,0,0,.42-.21c.13.29.25.58.38.9-.15.06-.29.17-.42.16-.84-.07-1.68-.17-2.51-.27-.38,0-.7-.13-.57-.75,0-.16-.39-.64-.57-.62a3.25,3.25,0,0,0-1.66.51c-1.46,1.21-2.85,2.53-4.37,3.9l1.09.31s-.06.12-.08.11c-2.05-.33-3.25,1.36-4.69,2.45a9.86,9.86,0,0,0-.79.66c.31-1.09,1.19-1.56,1.92-2.2,2.1-1.85,4.18-3.72,6.26-5.59a3,3,0,0,0,.56-.57c.44-.61.35-1-.25-1.46a5.75,5.75,0,0,1-.49-.58c-.24-.24-.52-.67-.77-.66a23.9,23.9,0,0,0-4.48.35,30.2,30.2,0,0,0-4.2,1.52,20.05,20.05,0,0,0-6.68,4.22c-1.05,1-1,1.62-.11,2.67a3.2,3.2,0,0,1,.93,1.41c.3,1.93,1.39,2.4,2.93,2.25.1,0,.21,0,.31,0C126.33,136,127.82,136,129,134.67Zm7.7-28.07a.8.8,0,0,1,.13-.44c.48-.73.43-1-.37-1a3.51,3.51,0,0,0-1.94.18c-1.48.85-3,.7-4.57.67a6.85,6.85,0,0,0-2.93.37c-1.73.8-3.35,1.9-5,2.88-.48.28-1,.59-1.43.89l-.13-.26,7.36-4.74a14.08,14.08,0,0,0-1.63-1q-5.43-2.35-10.87-4.65c-3.56-1.49-7.19-2.8-10.67-4.48a24,24,0,0,0-8.85-2.45,10.58,10.58,0,0,1-6.12-2.44,1.17,1.17,0,0,0-.74-.34c-1.77.23-3.54.48-5.31.8-.84.15-1,.59-.62,1.45.54,1.24,1.06,2.5,1.68,3.7a14,14,0,0,0,2.1,3.48,73.14,73.14,0,0,0,5.6,4.83c.19.15.69,0,.94-.17,1.79-1.21,3.55-2.46,5.31-3.72.47-.33.82-.32,1.12.23a8.64,8.64,0,0,0-1.38.74c-4.55,3.71-8.69,7.86-11.58,13.34-.21.41-.58.72-.8,1.13a1.88,1.88,0,0,0-.3,1,52.81,52.81,0,0,0,2.89,10.17,1.66,1.66,0,0,0,1.15,1.08c3.25,1,6.47,2.09,9.74,3a48.5,48.5,0,0,0,6.11,1.07c2.91.38,5.84.67,8.76,1a1.79,1.79,0,0,0,1.11-.12,20.56,20.56,0,0,0,3.87-2.85,16.83,16.83,0,0,1,7.28-4.67,24.06,24.06,0,0,0,3.38-1,7.44,7.44,0,0,1,3.48-.84,14.14,14.14,0,0,0,2.06-.07,2.18,2.18,0,0,0,1.14-.53,3,3,0,0,1,2-1,.93.93,0,0,0,.56-.23c.86-.74,1.73-1.49,2.57-2.27a1.32,1.32,0,0,0,.32-1.72c-.68-1.3-1.41-2.57-2-3.93-.85-2-2.41-3.9-1.09-6.42ZM85.13,81.72l.08-.2c1.51.74,3,1.44,4.51,2.24a3.07,3.07,0,0,0,2.87.09q10.59-4.5,21.2-8.93c4.25-1.79,8.58-3.4,12-6.85a7.58,7.58,0,0,0,.79-1,4.26,4.26,0,0,0-1.19-.59c-4-.49-8-1-12-1.39A180.55,180.55,0,0,0,95,64.4a1.84,1.84,0,0,0-1.8,1.15A11.08,11.08,0,0,1,89,70.13,40.37,40.37,0,0,0,85,73a4.12,4.12,0,0,0-1.69,3c0,.18-.17.34-.26.5l-.25-.11c.18-.68.33-1.38.57-2,.51-1.4,1.74-2,2.72-2.87,2-1.75,4-3.46,6-5.27a10.18,10.18,0,0,0,1.32-2c-.17-.14-.21-.19-.25-.2-3.33-.29-6.65-.81-10-.44-1.12.13-2.24.28-3.35.32s-1.67-.52-2-1.7a10.28,10.28,0,0,0-.46-1.12A6.09,6.09,0,0,0,75,63.59c-2.24,4.51-2.93,9.49-3.57,14.48A8.83,8.83,0,0,0,71.66,81c.19.93.86,1,1.4.29.34-.48.59-1,.89-1.57.11-.22.23-.44.35-.66a12.06,12.06,0,0,1-.81,2.55c-.24.55-.18.87.37,1.1,1,.42,1.93.88,2.9,1.34s1,.67.77,1.74-.08,1.48.71,1.88A23.26,23.26,0,0,0,81.37,89a3.6,3.6,0,0,0,1.81.12c1.6-.35,3.18-.81,4.76-1.25a1.14,1.14,0,0,0,.67-.37c.63-1,1.22-2,1.86-3Zm34.3,17.58a4.24,4.24,0,0,0,3-1.52q5-5.93,9.95-11.9a1.11,1.11,0,0,0-.14-1.68l-2.76-2.67A16.37,16.37,0,0,0,124,77.9a20.36,20.36,0,0,1-5-2.67,1.92,1.92,0,0,0-2.08-.22c-4,1.64-8.09,3.18-12.11,4.84s-8.25,3.5-12.36,5.3a7.45,7.45,0,0,0-2,1.33A2.09,2.09,0,0,0,90.76,90a4.4,4.4,0,0,0,1.49.65c1.93.39,3.87.75,5.81,1.06a21.66,21.66,0,0,1,7.15,2.08,32.82,32.82,0,0,0,3.25,1.49q4.29,1.71,8.61,3.33C117.84,98.92,118.64,99.08,119.43,99.3Zm.86,34.25.1-.27c-.36-.57-.71-1.16-1.11-1.7a.62.62,0,0,0-.59-.17c-.84.54-1.65,1.14-2.46,1.72l.07.19Zm19-11.45a5.27,5.27,0,0,0-1.33.56,1.09,1.09,0,0,0-.3.91c.25.36.61.83,1.14.37a6.3,6.3,0,0,0,.8-.65,3.58,3.58,0,0,0,.43-.74Z"/><path class="cls-9" d="M80.63,111.42l-6.9-1.9c-2.09-3.34-3.19-7.18-4.2-11.07.21.54.44,1.07.64,1.62s.39,1.16.57,1.75A22.88,22.88,0,0,0,73,107.35a4.83,4.83,0,0,0,3.14,2.32,43,43,0,0,1,4.26,1.59A.68.68,0,0,1,80.63,111.42Z"/><path class="cls-9" d="M133,46.08c.64-1.41,4.43-2.06,6.51-1.23A10.36,10.36,0,0,0,133,46.08Z"/><path class="cls-9" d="M147.17,121.38c-.43,1-.78,1.7-1.11,2.46-.21.5-.48,1-.1,1.57.09.14-.11.51-.18.8l-1.05-.45C145.7,124.48,145.73,122.59,147.17,121.38Z"/><path class="cls-9" d="M73.24,109.94c.18,1.08.37,2.15.53,3.14l-.79-.93.18,0L73,109.89Z"/><path class="cls-9" d="M74.46,114.35c.59,1.18,1.19,2.35,1.78,3.52l-.14.09-1.75-3.54Z"/><path class="cls-9" d="M67.8,93c.08,1,.16,1.91.23,2.86l-.21,0-.13-2.86Z"/><path class="cls-9" d="M108.12,120.74a2.47,2.47,0,0,0,1.54,1.82c.93.38,1.89.68,2.82,1.06.58.23,1.13.54,1.69.82,0,.11,0,.23-.07.34a2.49,2.49,0,0,1-.82,0c-1.73-.62-3.44-1.28-5.15-1.93a2.75,2.75,0,0,1-.49-.23c-.7-.43-.73-.83-.1-1.39C107.71,121.06,107.9,120.92,108.12,120.74Z"/><path class="cls-9" d="M74.88,78.11c2.1,0,4.13,1.62,6.4.5l.93,1.47-.08.19-7.28-2Z"/></g></g></g><g id="Layer_102" data-name="Layer 102"><g id="Espalda"><rect class="cls-10" width="275" height="259.5"/></g></g></g></g></svg>