<svg xmlns="http://www.w3.org/2000/svg" viewBox="0 0 160 195"><defs><style>.cls-1{isolation:isolate;}.cls-2{fill:#ff0;}.cls-3,.cls-5{fill:none;}.cls-4{fill:#fcd354;}.cls-5{mix-blend-mode:multiply;opacity:0.4;}</style></defs><g class="cls-1"><g id="Layer_2" data-name="Layer 2"><g id="Variacion_A" data-name="Variacion A"><g id="AssetsF3"><g id="HamE3"><path class="cls-2" d="M117.21,108.32c.69-9.65,3.67-16.58,0-23.7s-4.49-3.7-9.12-9.67-17.54-6-20.62-7.51c-2.34-1.18-7.55-8.24-9.89-11.52,6-11,13.27-16.58,14.76-21.06,1.55-4.66-.64-13.59-.78-14.14.11.44,1.56,6.8-4.22,13.57-6,7-11.27,8.37-15.42,13.06C69.09,50.55,65,61.18,63.29,70.6a18.34,18.34,0,0,0-5.66-6.87c-6-4.23-11.47-6.79-13-9.53s-6.63-7-6.63-7,2.67,12.28,6.09,14.64,12.13,6,14.14,10.92c1.14,2.81,3.47,8.33,5.26,12.55,1.66,8.86,3,19,.36,22.85-3,4.34-13.42,10.43-17.57,15.11S51.19,156,51.19,156s-7.2-26.92-.34-31.76,14.94-8.58,18.17-12.1,6.07-12.8,5.5-18.43a37.24,37.24,0,0,1,4.86-2c4.9-1.68,3.62-3.2,6.34-7.26,2.19-3.25,3.69-8.73,4.2-10.77,6,1.51,11.38.15,15.51,6,4.63,6.52,8.58,8,8.83,13.64s-2.89,11.37-1.13,18S123,127.21,123,127.21,116.52,118,117.21,108.32ZM78.13,88.1C76.38,91,75,91.43,74.18,91.25c-1-6.2-3-18.6.65-29.27C76.45,64,82,70.71,87.73,72.92,87.73,72.92,81.29,82.9,78.13,88.1Z"/><path class="cls-3" d="M117.21,108.32c.69-9.65,3.67-16.58,0-23.7s-4.49-3.7-9.12-9.67-17.54-6-20.62-7.51c-2.34-1.18-7.55-8.24-9.89-11.52,6-11,13.27-16.58,14.76-21.06,1.55-4.66-.64-13.59-.78-14.14.11.44,1.56,6.8-4.22,13.57-6,7-11.27,8.37-15.42,13.06C69.09,50.55,65,61.18,63.29,70.6a18.34,18.34,0,0,0-5.66-6.87c-6-4.23-11.47-6.79-13-9.53s-6.63-7-6.63-7,2.67,12.28,6.09,14.64,12.13,6,14.14,10.92c1.14,2.81,3.47,8.33,5.26,12.55,1.66,8.86,3,19,.36,22.85-3,4.34-13.42,10.43-17.57,15.11S51.19,156,51.19,156s-7.2-26.92-.34-31.76,14.94-8.58,18.17-12.1,6.07-12.8,5.5-18.43a37.24,37.24,0,0,1,4.86-2c4.9-1.68,3.62-3.2,6.34-7.26,2.19-3.25,3.69-8.73,4.2-10.77,6,1.51,11.38.15,15.51,6,4.63,6.52,8.58,8,8.83,13.64s-2.89,11.37-1.13,18S123,127.21,123,127.21,116.52,118,117.21,108.32ZM78.13,88.1C76.38,91,75,91.43,74.18,91.25c-1-6.2-3-18.6.65-29.27C76.45,64,82,70.71,87.73,72.92,87.73,72.92,81.29,82.9,78.13,88.1Z"/><path class="cls-4" d="M77.9,88c0,.05.09.07.13,0L78,87.81Z"/><path class="cls-4" d="M78.48,87.51c0-.13,0-.31-.16-.31,0,.17,0,.17,0,.35s-.13.13-.16.09-.11.12-.07.21a.46.46,0,0,0,.28-.39S78.46,87.49,78.48,87.51Z"/><path class="cls-4" d="M84,79.24l0,0Z"/><path class="cls-4" d="M87.3,74.08s0,.07,0,.07S87.32,74.08,87.3,74.08Z"/><path class="cls-4" d="M88.19,73l-.07.09A.17.17,0,0,0,88.19,73Z"/><path class="cls-4" d="M84,79.24l.12-.12S84,79.17,84,79.24Z"/><path class="cls-4" d="M78.94,86.19a.15.15,0,0,0,0,.09l0-.08Z"/><path class="cls-4" d="M82.6,81.58l0,0,0,.07Z"/><path class="cls-4" d="M81.5,83.35s0-.11-.09-.15a.16.16,0,0,1,0,.13Z"/><path class="cls-4" d="M79.57,86v0Z"/><path class="cls-4" d="M83.41,80.34h0S83.43,80.33,83.41,80.34Z"/><path class="cls-4" d="M76.32,89.68h0S76.33,89.67,76.32,89.68Z"/><path class="cls-4" d="M78.15,88.11v0l0,0Z"/><path class="cls-4" d="M86.38,71.7h0Z"/><path class="cls-4" d="M73.72,64.07c.14-.17,0,.35.23.08C73.9,64.17,73.84,63.84,73.72,64.07Z"/><path class="cls-4" d="M79,86.15l0-.07S79,86.13,79,86.15Z"/><path class="cls-4" d="M74,64.15h0v0Z"/><path class="cls-4" d="M82.73,69.37a.17.17,0,0,0,0,.07A.1.1,0,0,0,82.73,69.37Z"/><path class="cls-4" d="M85.31,71.35l-.06,0Z"/><path class="cls-4" d="M81.33,68.41s0-.06-.08-.08v0A.08.08,0,0,1,81.33,68.41Z"/><polygon class="cls-4" points="80.02 67.22 80.03 67.26 80.08 67.3 80.02 67.22"/><path class="cls-4" d="M74.27,88.73l-.09.09C74.26,88.79,74.32,89,74.27,88.73Z"/><path class="cls-4" d="M79,86.22a.06.06,0,0,1,0-.07l0,0S79,86.23,79,86.22Z"/><path class="cls-4" d="M80.7,69l-.21-.2A2.08,2.08,0,0,0,80.7,69Z"/><path class="cls-4" d="M73.2,76.07l0,.06A.07.07,0,0,0,73.2,76.07Z"/><path class="cls-4" d="M79.85,68.27a.51.51,0,0,0-.07-.17h0Z"/><path class="cls-4" d="M74.18,88.82Z"/><path class="cls-4" d="M74.72,90.62c0-.25-.16-.1-.25-.14-.09-.31.08-.17.14-.29s-.23-.32-.24-.47,0,0,.06,0c-.15-.2-.1-.63-.28-.85l0,0a.29.29,0,0,1-.2.07c0-.12-.12-.21,0-.27s0,.08.08.11L74,88.61c.12-.13.07.16.17.15a2.53,2.53,0,0,1-.22-.7c.13-.06.11.43.19.16v.3c.18-.25,0,.18.21-.06,0-.38-.13-.41-.14-.8-.09-.07-.11,0-.2,0-.21-.52.28-.47,0-.84-.1-.09-.28-.11-.22-.41l.16.08c0-.37-.25-.18-.19-.58.07.06.08.28.1.22.08-.26-.11-.16-.14-.35l.13-.06c-.07-.39-.21-.81-.29-1.25.05,0,.1.09.13,0a5.8,5.8,0,0,1-.08-1.71l-.13-.2s0-.09.07,0c0-.21-.08,0-.13-.1s0-.16.09-.09a3,3,0,0,1-.19-1.42l0,.08c0-.31-.27-.33-.18-.61l0,0a7.65,7.65,0,0,1,0-1.87c-.18-.09,0-.65-.18-.69a2.82,2.82,0,0,0,.22-.79c0-.14-.15-.21-.18-.38h.12l-.13-.24.15-.12,0-.17c0,.07-.06.14-.1.13a.79.79,0,0,1,.16-.62l-.09-.6s.06.11.09.19c-.12-.32.13,0,0-.35,0,0-.07,0-.1,0a1.6,1.6,0,0,0,.06-.72l.09.05c0-.44,0-.93,0-1.43,0,.17-.19.13-.2,0l.13,0c-.07-.1,0,.15-.14-.05s.15-.12.19,0l0-.23s.06,0,.11.06.16-.38,0-.52h0c0-.49,0-.72,0-1.12-.11,0-.07-.18-.15-.31a9.29,9.29,0,0,0,.23-1c0-.25-.08-.08-.13-.2s.14-.36.19-.17c0-.43,0-.55,0-1.1-.06,0-.09.12-.11.08s.08-.22.13-.2v0c0-.63.55-1.33.43-1.85v-.48c.08-.22,0,.15.15,0,0-.57.22-.83.22-1.29.35-.21.4-1.4.49-1.07l0-.07c0-.11,0,0,0,0s0-.07-.06-.14a.38.38,0,0,1,0-.16.93.93,0,0,1,.12.18l0,.1a.44.44,0,0,0,.09.15c.26.38.52.76.8,1.12s.42-.07.62.41l-.19,0c.65.49,1.09,1.2,1.73,1.66-.06,0-.08,0-.14,0,.05.19.42.44.48.39s0,.07,0,.15.39.2.38.33,0,0-.08,0,.35.36.35.21c.17.24.44.35.56.55.2,0,.33.39.48.29-.14.12.28.45.48.5-.08,0,.08.15,0,.16.16.14.33.24.36.15.15.42.71.36.7.71.54.33,1.06.61,1.53.92-.12.13-.51-.36-.6-.19a7.06,7.06,0,0,1,1.22.64c.1.1-.1,0-.16,0a12.88,12.88,0,0,0,1.32.75s-.06,0-.11,0,.17.14.21.06l-.09,0c-.07-.18.44,0,.48-.07-.25.13.39.26,0,.41.07,0,.15,0,.17,0s.08.1,0,.11c.32.12.25,0,.52.13,0,0-.08,0-.13,0a1,1,0,0,1,.57.15s0,0-.09,0l.3.09.19,0a.85.85,0,0,1,.22,0l.11,0a.59.59,0,0,1-.08.11c-.19,0-.13.09-.31.1v.09l.1,0a1.49,1.49,0,0,1-.22.45l0-.18-.2.37.17-.17c-.06.24.17.09,0,.32,0-.06-.12.18-.26.24h0a.6.6,0,0,1-.16.36c-.06,0-.12-.12-.16-.11,0,.16-.25.46-.22.65a.11.11,0,0,0-.08-.1l0,.14c-.08.07-.1.07-.15,0-.18.26.22,0,0,.29,0,0,0,0,0-.08-.24.29-.33.64-.56.9-.18,0,.13-.27,0-.24a12.17,12.17,0,0,1-.68,1.35l.06-.07c.15.17-.28.24-.32.5,0-.06-.06-.13,0-.1a5.67,5.67,0,0,0-.52,1V78.8a5.13,5.13,0,0,0-.43.58c0,.08-.06.17,0,.15-.6.38-.51,1.13-1,1.47,0,0,0-.16,0-.11l-.21.43c.1,0,.08,0,.19-.07a.51.51,0,0,1-.08.32c.06-.21-.13-.07-.23,0s0,0,.07,0c-.27.13.14.14-.14.37l0,0a1.31,1.31,0,0,1-.15.37c-.12,0,0-.14,0-.2-.1.17,0,.44-.22.53a2.15,2.15,0,0,1,.1-.27.52.52,0,0,0-.29.24h0l-.23.25.08,0c.1.35-.23.45-.25.82,0-.36-.06-.09-.15-.18s-.17.14-.18.1c0,.18-.2.18-.2.44,0,0-.09.14-.16.06-.08.18.08,0,.12,0-.06.34-.53.54-.62,1s-.07.49-.21.83c-.12.07-.07-.15-.07-.15a.9.9,0,0,0-.28.44s-.05,0-.12,0,.07.15-.09.29a.54.54,0,0,1,0-.21c-.07.17-.1.35-.16.52-.09,0,0-.14,0-.22-.08.19-.23.48-.17.59l.11-.09c0,.06-.1,0-.09-.07,0-.2.16-.2.2-.19l0,.13c.26,0,.24-.46.39-.67l.09.17,0-.29c.07,0,.17,0,.12.11.17-.12,0-.17.2-.26s0,0,0,0l.06-.18c0,.05.11,0,0,.12.26-.23.18-.51.35-.55v0c.19-.41-.08-.1,0-.46l.38,0-.08-.1s.08-.11.11-.07c0-.19-.06,0-.07-.13.21-.13.29-.55.48-.49,0-.12-.18.14-.1-.1.21.06.12-.25.31-.37.06.11-.1.24.09.12-.08-.2.25-.32.32-.48-.12-.09.15-.35.26-.63,0,0,.36-.42.55-.62l0,0c-.1-.12.07-.34.16-.53.07.05.08.1,0,.22l.1-.17a.42.42,0,0,1,.05-.24l.07.1a2.71,2.71,0,0,1,.4-.74c-.08-.07-.38.07-.26-.26.06,0,.15.06.12.15s0-.11.07-.15v.16c.11-.1,0-.1,0-.2.06,0,.09,0,.14,0s-.09.07-.09.13a.69.69,0,0,1,.29-.23s-.09-.06,0-.15.13,0,.24-.12.12-.19,0-.26.1,0,.14,0,.32-.53.13-.47l0,0v0h0c.13-.42.54-.72.72-1.11l0,0a4,4,0,0,0,.31-.69c0-.07.15-.11.17-.06a1,1,0,0,1,.26-.43c0,.2.09,0-.06.2.16-.2.25-.21.3-.5,0,.13.21-.09.25-.21l-.16.11a2.53,2.53,0,0,1,.21-.32l.07.13c.42-.35.27-.94.71-1.13,0-.16-.2.21-.23,0,.14-.19.44-.3.48-.36.24-.24,0-.36.22-.63-.06,0-.19,0-.09-.26s.33-.14.28,0-.06.07-.07.05-.06.18,0,.12l0,0c.1-.07.27-.35.3-.25.06-.17,0-.1-.12,0,.19-.18.34-.53.64-.93-.07.07-.18.13-.14.07l.2-.29s0,0,0,0h-.07a.83.83,0,0,1-.36-.06c-.15-.14.26-.07-.22-.22-.23-.15,0-.13.18-.1a1.66,1.66,0,0,1-.79-.43L87,72a.53.53,0,0,1-.22-.08l0,.12c-.07,0-.14-.09-.12-.12s0,.17-.2.17-.34-.12-.32-.25c.3.21,0-.13.31,0a.53.53,0,0,1-.2-.1s0,0,0,0c-.25-.26-.21,0-.53-.12.08,0,0-.16-.06-.18.12.08,0,.14-.14.12s-.24-.1-.34-.17l.1.1c-.07,0-.17,0-.32-.1,0,0,.15.05.11,0-.22,0-.28-.31-.54-.38-.07-.11.06-.12,0-.2-.29-.09-.2-.26-.49-.36,0,.13,0,.12-.18.07l.44.22-.34-.06c.12.09.29.13.36.19-.17,0-.14,0-.13.08-.09-.24-.38-.16-.52-.37l.14-.19c-.23-.28-.57-.27-.9-.59l.09.12c-.11,0-.23-.16-.38-.22.06-.05,0-.13,0-.21s-.26-.22-.39-.12l-.09-.21c-.26-.27-.48-.09-.73-.34.14,0,0-.15.27,0-.09-.08-.16-.16-.19-.12s-.32-.13-.36-.26-.12,0-.22,0,0,0,0,0-.2-.1-.17,0c-.11-.42-.77-.68-.86-1-.21-.16-.44-.36-.62-.52,0,0,0,0,.06,0-.18-.28-.31,0-.51-.3,0-.23.18.09.14,0,.14-.22-.34-.29-.41-.58l.06,0c-.07-.2-.4-.27-.6-.51,0,0,0,0,0,0a2.63,2.63,0,0,1-.78-.53c.14,0,.13.06.17,0s-.1.14-.3,0c0-.1-.11-.28,0-.37l.17.18c0-.19-.22-.24-.29-.35l0,0c-.27-.27-.39-.18-.65-.5v.06c-.27-.07-.06-.2-.3-.3l.08-.15a6.65,6.65,0,0,1-.67-.51,3.26,3.26,0,0,1,.63.37,1.44,1.44,0,0,0-.45-.41c.07.07.13.08.16.15a.84.84,0,0,1-.34-.19,2.15,2.15,0,0,1-.33-.34c.09-.23-.28-.62-.58-1.05-.07.16-.13.29-.2.27a7.39,7.39,0,0,1-.38,1.3l-.1.26-.08.2a3.62,3.62,0,0,0-.14.43c.29-.15,0,.17.2.2,0,.14,0,.2,0,.2l-.25.39c-.09.09,0-.14-.07-.15-.1.31-.14.11-.25.3.1,0,.1.14,0,.3l.17-.22c0,.46-.29.33-.27.79l0-.15c0,.23-.19.83,0,1.09,0,0-.11.07-.11,0a11.81,11.81,0,0,1-.21,1.63l0,0c0,.11.08.2,0,.31s-.06,0-.07,0a.77.77,0,0,1,0,.41l0-.12c-.15.52,0,.83,0,1.28-.18,0-.28.39-.32.59h0a9,9,0,0,0,.07,1.65,10.12,10.12,0,0,0-.28,1.77c0-.09.14,0,.15.12s.11.37,0,.35v-.05c-.16.1-.12.37-.13.59l.21,0c-.31.56.09,1.48-.17,1.78.06.14.06.31.11.44h-.11a7,7,0,0,0,0,1l-.08-.09c0,.26.34.32.35.56l-.16.08a4.2,4.2,0,0,0,.07,1.37s-.08,0-.09-.09c0,.22,0,.84.17.75-.15,0,0,.47.1.71l-.11,0a.81.81,0,0,1,.26.49c0,.07-.09.07-.07,0,0,.24.12.17.09.45l-.08-.09c0,.23,0,.21.14.33s0,.45-.08.5a.28.28,0,0,1,.14.28s-.06,0-.08,0c0,.4.19.58.11.86a.08.08,0,0,0-.06,0,3.07,3.07,0,0,1,0-.54c-.1,0-.1.26-.26.08a1.72,1.72,0,0,1,.29.77s0,0,0,0v0a.41.41,0,0,0,0,.16,1.33,1.33,0,0,0,0,.2c-.09,0,0,.3,0,.42s.11.15.19,0c0,0,0,0,0-.1s0,0,0-.06h0l0-.31a.33.33,0,0,1,.08.34l.2.15c-.14.19-.18.53-.27.59.11.38.16.9.4,1.11,0,.11,0,.13-.07.18s0-.14-.07-.17c.08.21.11.64.26.68,0,.28-.15-.14-.08.23l0,0c-.13.77.55,1.14.37,2a.19.19,0,0,1,0-.11,4.39,4.39,0,0,0,.07.72l.08.42a2,2,0,0,0,.12.45,2.9,2.9,0,0,0,.93,0c.26-.06.5-.14.75-.21S76,91,76,90.87l.12.06a2.59,2.59,0,0,0,.14-.29c.23-.33.72-.27.91-.79h-.1c.13-.13.32-.48.37-.4s0-.1,0-.13l0,0c.06-.13.12-.28.17-.42.23-.26.18.19.47-.23.08-.17.13-.54,0-.51s-.13.14-.19.12l.06-.16c-.14-.13-.24-.33-.56-.06l-.06.3-.12,0,.12-.2c-.14.07-.12.18-.14.29a.15.15,0,0,0-.14,0v.32c-.08,0,0-.18-.19-.06s.21,0,.12.2-.18,0-.21.16c0,0-.06-.06,0-.12,0,.15-.2.3-.17.42-.16,0-.29.36-.41.23a.63.63,0,0,1-.15.36c0-.3-.34.3-.45.08,0,.25-.39.41-.59.6,0,0,0-.06,0-.06a.6.6,0,0,1-.3,0,.18.18,0,0,1-.09.19,1.79,1.79,0,0,1-.14.15c-.06-.15.09-.2.07-.34,0,.13-.11.13-.15.24,0-.11,0,0,.06-.19-.17.17,0,0-.15,0a.15.15,0,0,1,.1-.1s0,0,0-.11S74.73,90.63,74.72,90.62Zm-1.18-6.17h0l0,.13Zm-.07-.53,0,.23a.06.06,0,0,1-.09,0S73.45,84,73.47,83.92Zm-.64,1.2c0-.08,0-.11,0-.12l0,.14h0S72.84,85.14,72.83,85.12Z"/><path class="cls-4" d="M73,85.26s0,0,0,0l0-.05,0,0Z"/><path class="cls-4" d="M83.9,79.29h0Z"/><polygon class="cls-4" points="73.26 76.66 73.23 76.66 73.26 76.7 73.26 76.66"/><path class="cls-4" d="M82,81.55s0,0,0,0Z"/><path class="cls-4" d="M81.32,82.6l-.13.13A.79.79,0,0,0,81.32,82.6Z"/><path class="cls-4" d="M80.75,83.39l0,0h0Z"/><path class="cls-4" d="M85,72h0Z"/><path class="cls-4" d="M86.65,74.32l0-.16C86.63,74.23,86.6,74.28,86.65,74.32Z"/><polygon class="cls-4" points="80.72 69.05 80.72 69.05 80.69 69.03 80.72 69.05"/><path class="cls-4" d="M86.8,74a.47.47,0,0,0-.12.18A.44.44,0,0,0,86.8,74Z"/><path class="cls-4" d="M78.46,86.91l0,0h0Z"/><path class="cls-4" d="M78.45,87l0,.05S78.45,87,78.45,87Z"/><path class="cls-4" d="M78.4,87.12l0-.11S78.38,87.08,78.4,87.12Z"/><path class="cls-4" d="M79.19,85.86l0,0S79.18,85.84,79.19,85.86Z"/><path class="cls-4" d="M79.39,85.52c0,.07-.2.15-.24.28l0,0C79.15,85.74,79.4,85.63,79.39,85.52Z"/><path class="cls-4" d="M80.69,84.41l-.2.26c.07,0,.16-.06.09.07C80.91,84.46,80.45,84.76,80.69,84.41Z"/><path class="cls-4" d="M81.29,83.59c-.08.16,0,0,.07,0S81.39,83.5,81.29,83.59Z"/><path class="cls-4" d="M85.2,77.41l.07.07C85.33,77.36,85.24,77.46,85.2,77.41Z"/><polygon class="cls-4" points="85.5 75.94 85.37 76.02 85.42 76.12 85.5 75.94"/><polygon class="cls-4" points="86.55 75.64 86.53 75.69 86.62 75.48 86.55 75.64"/><path class="cls-4" d="M80.32,67.36l0,.12C80.35,67.53,80.46,67.44,80.32,67.36Z"/><path class="cls-4" d="M76.59,63.65a.24.24,0,0,0-.16-.25A2.86,2.86,0,0,0,76.59,63.65Z"/><polygon class="cls-4" points="72.26 75.24 72.22 75.14 72.25 75.34 72.26 75.24"/><path class="cls-4" d="M117.48,108.33c0-.28-.12-.12-.12.64l.12.54Z"/><path class="cls-4" d="M117.49,113.47c.22.88.55,1.87.55,1.28-.3-.85-.31-1.07-.57-2-.13-.76-.1-1.33,0-1.21,0-.26-.05-1.18-.13-1.59a11.61,11.61,0,0,0,0,1.67,14.71,14.71,0,0,0,.29,1.89C117.6,113.8,117.52,113.53,117.49,113.47Z"/><path class="cls-4" d="M100.41,75.39l.44.2Z"/><path class="cls-4" d="M73.24,102.55a2.46,2.46,0,0,0,.1-.5C73.27,102.37,73.2,102.63,73.24,102.55Z"/><path class="cls-4" d="M70.19,109.78l.24-.39A4.22,4.22,0,0,0,70.19,109.78Z"/><path class="cls-4" d="M100.41,75.39c-.4-.15-.79-.31-1.19-.43C99.12,75,99.83,75.17,100.41,75.39Z"/><path class="cls-4" d="M121.07,123.11c-.12-.23-.23-.41-.33-.58l.29.56Z"/><path class="cls-4" d="M114.09,90.55l.11.38.14.3Z"/><path class="cls-4" d="M112.92,106.24a1.11,1.11,0,0,0-.12-.61,4.3,4.3,0,0,1,0,.77S112.89,106.36,112.92,106.24Z"/><path class="cls-4" d="M122.39,126.41l-.25-.37Z"/><path class="cls-4" d="M107.29,81.51a.34.34,0,0,0-.05-.14S107.25,81.43,107.29,81.51Z"/><path class="cls-4" d="M119.4,90.1h0C119.4,90.19,119.41,90.22,119.4,90.1Z"/><path class="cls-4" d="M117.18,108.31l0-.25s0-.06-.06-.06Z"/><path class="cls-4" d="M59,118.43l0,0C59.33,118.19,59.15,118.31,59,118.43Z"/><path class="cls-4" d="M59.72,75.2c.49,1.43-1.08-2.23-.3-.08C59.38,74.9,60.39,77,59.72,75.2Z"/><path class="cls-4" d="M121.24,123.48l.3.57Z"/><path class="cls-4" d="M59.42,75.12h0l.08.22Z"/><path class="cls-4" d="M48.76,147.05a2.1,2.1,0,0,0,0-.34A1.22,1.22,0,0,0,48.76,147.05Z"/><path class="cls-4" d="M51.8,123.17l-.52.34Z"/><path class="cls-4" d="M50.4,152.3c-.09-.32-.11-.44-.25-.87l0,.14A5.32,5.32,0,0,1,50.4,152.3Z"/><path class="cls-4" d="M47,139.26l0,.24.1.42Z"/><path class="cls-4" d="M88.2,67.22c.23.13.41.19.53.27C88.57,67.35,90.4,67.85,88.2,67.22Z"/><path class="cls-4" d="M121,123.15a1.44,1.44,0,0,1,.23.33l-.21-.39S121,123.06,121,123.15Z"/><path class="cls-4" d="M49.39,152,48.81,150C49,150.54,49.17,151.29,49.39,152Z"/><path class="cls-4" d="M68.49,52.3c.06-.15.12-.3.19-.45A4.53,4.53,0,0,0,68.49,52.3Z"/><path class="cls-4" d="M47.15,143.79c0-.39-.13-.79-.21-1.2l-.08-.24Z"/><path class="cls-4" d="M88.74,67.49h0Z"/><path class="cls-4" d="M102.61,70.48c-2-.74-1-.2-1.41-.27-2.37-.71-1.07-.44-1.86-.75-1.5-.37-2.68-.48-3.8-.7-.08,0-.3-.09,0-.08-1.61-.21-4.74-.78-6.55-1.09l-.22-.1c.26.15.29.24.22.27A3.91,3.91,0,0,1,87.12,67a1.61,1.61,0,0,0,.77.33,3.12,3.12,0,0,1-.82-.4c-.29-.32,0-.09.31.1a2.16,2.16,0,0,0,.85.32,6,6,0,0,1-2.31-1.48A19.58,19.58,0,0,1,84.15,64c-.11-.29,2.29,2.41,1.08.95a20.23,20.23,0,0,0,1.53,1.54c-.55-.62-.3-.4-.05-.17s.53.43,0-.12c-1-.95-1.58-1.55-2.13-2.14s-1.09-1.2-2-2.34c-.47-.46,0,.24-.42-.22-2.64-3.18-1.71-2.78-3.66-5.12L78.19,56,78.08,56s-.08-.06,0-.11a4.6,4.6,0,0,1,.31-.62c.17-.3.38-.66.67-1.12l-.23.71c.7-1.21.89-1.56,1.07-2a10.6,10.6,0,0,1,1.24-2c-.24.46-1.17,1.87-.92,1.52A26.36,26.36,0,0,0,81.66,50l.28-.17c1.7-2.47,3.69-5.1,5.81-7.68-.09.17-.42.63.11.06a59.64,59.64,0,0,0,4-5.3,9.61,9.61,0,0,0,1.28-3.21,17.51,17.51,0,0,0,.32-3.24c0-.52-.1-1-.17-1.57,0-.36,0-.68.06-.29-.09-1.6-.08-.07-.19-.84s-.06-1.2,0-.63a64.83,64.83,0,0,0-1.28-6.53l-.7.17a11.15,11.15,0,0,1,.06,4.14l0-.56c-.13,1.1-.22,1.72-.31,2.33a7.66,7.66,0,0,1-.66,2.14l.12-.38a19.8,19.8,0,0,1-4,6.25,29.87,29.87,0,0,1-4.88,4.45c-.43.61-4,2.81-4.13,3.18l-2.19,1.4a20.92,20.92,0,0,0-2.74,2.18,11.82,11.82,0,0,0-1.81,2.4l-.12,0c-.31.53-.57,1.09-.83,1.63l-.58.79-.53,1.14A3.38,3.38,0,0,1,69.2,51l-1.33,2.82a16.85,16.85,0,0,1-.75,1.51c-.54,1.44-1,2.9-1.46,4.37A10.86,10.86,0,0,1,66,58.26c-.66,2.37-.29.38-.86,2.56.12-.28,0,.18,0,.23a42.93,42.93,0,0,0-1.52,5.35V66c-.19.71-.35,1.45-.51,2.2l-.11.49v.08s0,.12,0,.16l-.11-.17-.35-.57c-.15-.22-.3-.45-.46-.67A18.45,18.45,0,0,0,60,65c.94,1,.61.9-.19.09l-.24-.41c-.6-.44.84.85-.34-.11s-.65-.75,0-.23a13.21,13.21,0,0,0-1.43-1.06c-.06-.1.29.12.4.15-.63-.36-2.4-1.82-3.35-2.25l-.06-.09C51.58,59,50,58.23,47.56,56.44a8.28,8.28,0,0,1-1.73-1.25,6.74,6.74,0,0,1-1-1.34,12.5,12.5,0,0,0-1.09-1.56A29.48,29.48,0,0,0,41,49.35c-1.45-1.3-.48-.33-1.16-.88a13.17,13.17,0,0,0-1.43-1.4c-.63-.57-1.09-1-.22-.29l-1-.88c.26,1.12.47,2.05.7,3l.26,1,.21.77c.31,1,.66,2.22,1.3,4-.11-.44-.26-.93-.14-.69A8.91,8.91,0,0,1,40,55.45l-.08-.18c.43,1.09.91,2.27,1.46,3.46a10.2,10.2,0,0,0,2.3,3.35,30.45,30.45,0,0,0,3.19,2c1,.59,2,1.11,2.78,1.54l-.18-.1c1.12.61,2.22,1.26,3.29,2,1.42,1-.9-.54.12.26a15,15,0,0,1,3.86,3.38c.23.29.41.6.62.9s.31.65.48,1c.3.72.61,1.45,1,2.23.37,1.28,1.29,3.45,2.27,5.73l1.44,3.39.33.8c0,.1.14.33.12.3l.06.38c.09.52.17,1,.22,1.46l0-.22a10,10,0,0,1,.25,1.78c0-.1-.1-1,0-.43a70.59,70.59,0,0,1,1.29,11.89,20,20,0,0,1-.71,5.87c-.55,1.79-2.06,3.14-3.53,4.46-2.21,1.87-1,1.37-4,3.52l.75-.75c-2.29,1.88-4.75,3.67-7.12,5.57a44.5,44.5,0,0,0-3.44,3l-.78.83a3.71,3.71,0,0,0-.67,1.07,7.28,7.28,0,0,0-.51,2.28,3.8,3.8,0,0,1,.08-1A10.86,10.86,0,0,0,44.6,128a10.18,10.18,0,0,0,.18,1.86c0,.91-.06.22-.05.78,0,1.26.5,3.09.5,3.75a2.73,2.73,0,0,1-.12-.56c.14.8.62,3.71.6,2.93.35,2.17.89,4.1,1.23,5.81.38,1.08.85,3.65,1.12,3.95-.23-.1.86,3.75,1.34,5.05-.18-.43.28,1.17.06.67a10.07,10.07,0,0,0,.92,2.59c.1.43.21.86.34,1.28l1-.28a42.18,42.18,0,0,1-1.33-6,85.43,85.43,0,0,1-2-13c.13.14.41,4.6.61,4.4-.28-2-.46-3.52-.58-5.07a28.63,28.63,0,0,1,0-5.06c.13-1,0,.58,0,.92a14.76,14.76,0,0,1,1.12-5.48,5.16,5.16,0,0,1,1.52-2l2.19-1.54s-.31.24-.6.45c.58-.39,1.37-.87,1.26-.89l-.56.39c-1,.5,2.19-1.71,2.28-1.82-.89.82,3-1.77,1.57-.54.38-.25.85-.58.74-.57.59-.34.79-.42.23,0,2.12-1.32,1.32-.94,3.27-2.1,0,0-.38.28-.55.44.94-.66,1.9-1.31,3.54-2.32-.09.08.12,0-.37.3a33.21,33.21,0,0,0,3.65-2.69A13.78,13.78,0,0,0,70.77,110c-.2.51,0,.25.22-.15a5,5,0,0,1,.65-1c.26-.6.54-1.2.76-1.82-.13.23-.24.47-.37.7a46.39,46.39,0,0,0,1.53-4.45c-.09.42-.2.83-.31,1.24.33-1,.59-2.06.83-3.11-.16.59-.32,1.17-.51,1.75.39-1.69-.21.13.38-2.06-.08.45.35-1.67.55-2.54h0c.07-.84.13-1.71.19-3,0-.33.16.27.2,0a9.83,9.83,0,0,1-.06-1l0-.64c-.08-.2.1-.23.28-.33.91-.46,1.86-.88,2.32-1.14-.31.17-.29.25-.18.22l.6-.36c.75-.25.86-.27.76-.17,2.23-.79-.77.1,1.91-.82a4.85,4.85,0,0,1-.53.25,6.36,6.36,0,0,0,3.42-2.37c.72-1.19,1.08-2.45,1.76-3.54.25-.29,0,.19-.26.68s-.46,1-.22.61A21.52,21.52,0,0,1,86,84.58,18,18,0,0,0,87.34,82a50.61,50.61,0,0,0,2-5.32l-.22.64a6.8,6.8,0,0,1,.48-1.71c.13-.4.28-.84.41-1.3l.07-.23s0-.2.09-.18l.5.09c-.41-.07-.37,0-.33,0l.78.17,1,.17c.65.1,1.32.19,2,.26a39.11,39.11,0,0,1,4.83.69l-.46-.06a15.25,15.25,0,0,1,2.48.85,8.8,8.8,0,0,1,2.25,1.44c.41.23,1,.88.69.44A34.39,34.39,0,0,1,106,80.78q1.07,1.39,2.22,2.64a33.42,33.42,0,0,1,4.25,5c-.29-.42-.75-1-.51-.63a9.67,9.67,0,0,1,1.69,3.14,3.41,3.41,0,0,0-.3-1.2,6.82,6.82,0,0,1,.77,2.27c-.38-1.61-.09,0-.11.74,0-.12.07.12.09,0,0,1,0,1,.06,1.2s.13.43,0,1.73l0-.14a21.88,21.88,0,0,1-.35,2.92c-.18.41.13-1,0-1.12a42.53,42.53,0,0,1-.68,4.23c.1-.63.25-1.52.35-2.15a22.93,22.93,0,0,0-.62,2.67l0-.11c-.16.83-.31,1.66-.41,2.51,0-.22.06-.43.1-.64,0,1.87-.3,3.84.33,6.31-.54-2.4-.17-.39-.32-.55,0,.65.27,1.62.16,1.36a15.51,15.51,0,0,0,1.33,3.47c0,.08.54,1.16.34,1,.76,1.36-.12-.35,0-.26a50,50,0,0,0,4.84,7.64c1.73,2.17,2.23,2.6,3.83,4.38h0l-.25-.34c-.31-.58.08-.06.34.28l-.17.13-.23-.24.21.26.22-.17c-.71-1.12-1.24-2-1.89-3.15.17.24,0,0-.1-.43a12.72,12.72,0,0,1-1-2c.14.21.34.48.61,1-.59-1.18-1.19-2.34-1.68-3.62,0-.37.38.74.6,1.17-.61-1.41-1.34-3.74-1.54-4.18l.22,1c-.15-.55,0-.31.14.08a7.41,7.41,0,0,1,.54,1.9c-.13-.3-.23-.6-.34-.91.07,1,1.38,3.68,2.28,5.42l-.52-.66c.35.58.69,1.16,1,1.73.17.4.23.7-.26-.14.61,1.28.66,1.06,1.21,2.15.06.12,0,.07,0,0,.19.28.38.57.59.84l.12-.09-.24-.27c.18.16,0-.14.31.21l-.26.2-.15-.22.15.22.26-.2c-1.45-1.81-2.48-2.83-2.93-3.62l.13.16c-2.09-2.72-.3-.18-1.94-2.19-.25-.53-.5-1.06-.73-1.6l-.29-.21c-.2-.29-.56-.89-.45-.81-.77-1.07.07.22-.4-.39s-1-1.75-1.49-2.64a7.6,7.6,0,0,1-.81-1.88c-.34-.52.63,1.5-.2-.12a4.94,4.94,0,0,0-.46-1.36,10.47,10.47,0,0,1-.6-2.13c.2.45.49,1.87.23.35a12.07,12.07,0,0,1-.39-4.26,5.36,5.36,0,0,1,0-1.72c.08-1,.29-2.2.47-3.29a58.12,58.12,0,0,0,1.13-6.12l0,.06a24.73,24.73,0,0,0-.37-4.09c.09,0,.2.31.36,1.15a9.17,9.17,0,0,0-.28-1.46,15.43,15.43,0,0,0-.72-1.63,3.79,3.79,0,0,1,.26.29c-.85-1.84-2.31-3.23-3.92-5.1-.17,0,1.12,1.65-.7-.24,0-.11,0-.25.46.25-.16-.17-.58-.57-.86-.92l.77.71c-.73-.86-.46-.38-1-1.06.07,0-.4-.54-.26-.48s.49.61.74.85a21.77,21.77,0,0,1-1.63-2.09c0,.09-.08.06-.55-.51-1.17-1.52-.32-.58-.95-1.5-.33-.34-1.06-1.38-1.2-1.3a4.26,4.26,0,0,1-.57-.72l-.9-.73a12.76,12.76,0,0,0-1.25-.77c-.81-.46-1.45-.61-.94-.35l.24.1-.16,0h0c-3.09-1.26-6.69-1.36-9.85-2v0l-.76-.16-.48-.1-.13,0s0,.07,0,.1l-.06.24c-.14.53-.28,1.07-.41,1.59l-.71,2.54c-.18.55-.51,1.25-.47,1a20.73,20.73,0,0,1-1.45,3.47,9,9,0,0,1,.58-1.4,37.72,37.72,0,0,1-2.08,3.86c.29-.67-.89,1.19-1.21,2.07.21-.4.44-.8.67-1.19-.49.92-.83,1.77-1.23,2.57l.09-.49A5.85,5.85,0,0,1,82,89.87a8.81,8.81,0,0,1-2.13,1.21c-1.53.6-3,1.19-4.41,1.71-.92.51,2-.83,1.18-.34L75.37,93l-.61.26-.42.19s-.19,0-.16.12v.89c0,.17,0,.32,0,.46s0,.5,0,.64L74,97.9a12.18,12.18,0,0,1-.32,2.45c.1-.32.32-.59-.07,1.3s-.78,2.09-.5,1a3,3,0,0,1,.19-.59c.12-.57.28-1.32.06-.64v.24a14.49,14.49,0,0,1-.87,2.64c-.38,1.3-.1.58.23-.37a32.64,32.64,0,0,1-2.32,5.47c.2-.32.4-.6.23-.27-.85,1.51-1.11,1.78-1.21,2a4.08,4.08,0,0,1-.91,1.19c-1,.86.26-.41-1.49,1.16-1.17.85-.32.08.11-.3a27.6,27.6,0,0,1-4.38,2.92l.95-.64c-.56.39-1,.68-1.52,1l.6-.26a7.63,7.63,0,0,1-1.08.6c-.56.41.54-.15-.59.64-.8.43-2.33,1.45-2.66,1.51,2.45-1.42-.33,0,1.71-1.2-.38.25-.87.54-1.46.87-.09,0,.07-.07.23-.17-2.39,1.3-1,.76-3.4,2.22.26-.25-.63.23-1,.48,1-.59.52-.19-.33.42a28,28,0,0,0-2.42,1.62l.92-.58c-.27.26-1,.75-2,1.5-.12,0,.92-.69.54-.45a8.9,8.9,0,0,0-1.77,1.65,7.72,7.72,0,0,0-1.18,2.58c-.26.89-.15,0-.37.84-.17,1.1-.26,1.7-.35,2.31a14,14,0,0,0-.15,2.4c.12-.67.08-.78.16.84a30.23,30.23,0,0,1,.13-3.8c0,.82-.06,1.63,0,2.45a23.68,23.68,0,0,1,.23-3.1c-.08,1.16-.08,1,.06.5a26.67,26.67,0,0,0-.22,4.9l-.24-.05a61.74,61.74,0,0,0,.82,8.3l-.12-1.12c.16.45.31,2.15.55,3.26-.1-.09,0,.62,0,1.11a27,27,0,0,0,.68,2.81l.22,1.56c.5,2.47.84,3,1.36,4.95l.36-.11-.26-.79c.28.63.1-.1.42.74l-.69.2s-.09-.26-.17-.55l.14.56.75-.22a5.77,5.77,0,0,0-.39-1.1c-.11-.51-.84-2.37-1-3.19a7.74,7.74,0,0,1-.53-1.44c0-.11,0,0,0,0s-.48-1.52-.32-.64c-.54-2.75-2-7.55-2.32-10-.44-1.92-.91-4.26-1.17-6,0,.11,0,0,.08.34-.26-2.46-.47-1.47-.62-4.29,0-1.44.17,1.48.16.59a8.49,8.49,0,0,0,0-2.07,9.15,9.15,0,0,1,.34-3.1,3,3,0,0,0-.09.43,4.64,4.64,0,0,1,1-2.14,20.17,20.17,0,0,1,2.32-2.29s-.07.09,0,0a63.09,63.09,0,0,1,5.33-4.48c-.5.51-.79.67-.38.49.8-.63-.34,0,1.27-1.21a20,20,0,0,1,2-1.25L55.8,115.7a29.53,29.53,0,0,0,2.79-2.14l-.06.13a28.81,28.81,0,0,0,2.27-2c.55-.55,1.16-1.09,2.25-2.27l-.26.22c.55-.69.77-1,1-1.26a2.7,2.7,0,0,0,.36-.5,3,3,0,0,0,.41-.92l.35-.45.26-1.14c0-.47.16-1,.18-1.56a30.15,30.15,0,0,0,.07-3.4,19.94,19.94,0,0,1-.18,5.11,17.82,17.82,0,0,0,.33-2.45,15.31,15.31,0,0,0,0-2,10.71,10.71,0,0,1,0,1.5c0-1.41-.12-3.25-.3-5.51.16.19.08-1.29-.13-3s-.49-3.69-.52-4.52c-.18-1-.36-2-.55-3L64,85.79l-.07-.38,0-.22L63.75,85c-.19-.47-.39-1-.58-1.43-.78-1.91-1.58-3.91-2.49-6.05.42,1.62-.53-1.25-.64-.89-.44-1-.59-1.38-.62-1.48-.4-1-.7-2-1.19-3.1-.3-.77.55,1,.52.83-.5-1.12-.64-1.38-.7-1.52a3.79,3.79,0,0,0-.52-.91c.13.32-.62-.63-1.63-1.6a14.18,14.18,0,0,1,1.28,1.51c-1.17-1.27-1.73-1.72-2.25-2.25a14.36,14.36,0,0,0-2.55-1.89c.31.18.63.35.93.54a57,57,0,0,0-7-4c-.25-.17-.56-.43.1-.07l-1.34-.8-.67-.42c-.2-.15-.37-.31-.56-.47a11.36,11.36,0,0,1-1.76-2.59A29.84,29.84,0,0,1,40,53l.15.28a17.87,17.87,0,0,1-.71-2.17s.15.28,0-.06l-.39-1.23c-.08-.25-.16-.53-.23-.79a2.27,2.27,0,0,1-.07-.28c.06.12.1.22.14.28,0-.17-.05-.28-.08-.41l.34.25L40.48,50a29.26,29.26,0,0,1,2.63,2.61A8,8,0,0,0,44,54.13a8.43,8.43,0,0,0,.91,1.35,10.36,10.36,0,0,0,1,1.05l-.06,0a38.18,38.18,0,0,0,5.23,3.55c1.67,1,3.3,1.95,5.1,3.13a23.91,23.91,0,0,1,3.4,2.88,18,18,0,0,1,1.76,2.21l.4.61c.14.22.21.33.47.79.43.78.86,1.65,1.27,2.45L64,69.5l.13-.61.08-.35.17-.67c-.18.63-.12-.14,0-.88.26-1,.56-2.73.68-2.53l-.1.34c.35-.69.86-2.69,1.37-4.22l-.12-.32c.79-2,1.7-4.58,2.7-6.89a19.28,19.28,0,0,1,2.87-5.13A16.65,16.65,0,0,1,74,45.85L74,46c2.13-1.8,3.36-2.48,6.22-4.55l-.54.48A43.15,43.15,0,0,0,83,39l.54-.23a40.68,40.68,0,0,0,3.77-3.66,18.18,18.18,0,0,0,3-4.33,2,2,0,0,1-.3.68A17.3,17.3,0,0,0,91.55,28c.42-1.27.54-2.32.38-2a5.88,5.88,0,0,0,.3-1.95,11.84,11.84,0,0,0-.32-3.4l-.68.17,0,.2-.12-.18.82-.2,0,.08,0-.09-.87.22a20,20,0,0,1,.94,3.59c.07.51,0,.46-.1-.22.21,1.71.34,1.31.51,3.4,0-.26-.1-.52-.15-.77.18,1.76.18,1.62.32,2.59a13.71,13.71,0,0,1,0,2.13A6,6,0,0,1,92.41,33,5.09,5.09,0,0,1,92,35.16c-.09.12,0-.23.09-.41a15.73,15.73,0,0,1-1.67,3.07,17.91,17.91,0,0,1-1.76,2.29.81.81,0,0,0-.26.22C89.89,38.51,91,37,90.84,37.1c-.06-.05-1.18,1.47-.43.17a38,38,0,0,1-3.54,4.82,1.36,1.36,0,0,1-.18.17l.11-.15c-.28.32-.52.62-.74.92-.39.45-.64.73-1,1.18a26,26,0,0,0-2,2.45c.13,0-.63,1,.15.12-.1.11.1-.15.49-.66l.24-.33,0,.06c.38-.5.9-1.14,1.48-1.87a19,19,0,0,1-1.59,2.07c-.24.43-.52.91-.67,1.17-.91.94-2.45,3-2.71,3.21-.79,1.24-1.71,2.7-2.47,4.1l-.61,1.12-.1.18c0,.07-.08.13,0,.18l.25.34.34.45c.42.53.8,1,1.12,1.32a4.88,4.88,0,0,1,.67,1.08c-.3-.38-.64-.84-.81-1a43.08,43.08,0,0,0,3.36,4.12c1.28,1.67-.86-.82,1,1.39l-.29-.27a24.09,24.09,0,0,0,2.63,3A9.15,9.15,0,0,0,87,67.52a5.59,5.59,0,0,0,1.75.63c2.35.5,4.8.71,7.82,1.51a4.63,4.63,0,0,1-.71-.2A51.39,51.39,0,0,1,101,70.85a19,19,0,0,1,4.87,2.33l1,.85.91,1c.58.7,1.16,1.42,1.81,2.08a13,13,0,0,0,2.09,1.76,16,16,0,0,1,2.14,1.53,15.32,15.32,0,0,1,1.31,1.43c.27.36.52.62.86,1.13l.11.43c.37.57.77,1.15,1.09,1.76A11.43,11.43,0,0,1,118.46,89a35,35,0,0,1,.25,4.66l.1-.47a23.16,23.16,0,0,1-.39,4,3.6,3.6,0,0,1-.08,1l-.07,0-.38,3.29c-.41,2.54-.21-.44-.73,3.28a20.24,20.24,0,0,0-.12,3.46,8.22,8.22,0,0,1,.23-1.46l-.07,1.27c.17.25.26,1.22.68-1.85,0-.72.08-1.45.14-2.17l.19-.68-.23,1.81a16.54,16.54,0,0,0,.28-2.41,4.88,4.88,0,0,0,.23-.89l.14-2.14c.11-.24,0,1,.25-.44.07-1-.3.93-.11-.72a7.5,7.5,0,0,0,.34-1.94c.06-.17.07.09,0,.58a28.14,28.14,0,0,0,.19-3.47c0-.28.06-.65.08-1s0-.83,0-1.22c0-.78-.11-1.41,0-1.37-.06-.35-.44-1.92-.73-2.9.33.88.13-.06-.28-1.13s-1-2.22-.8-2c-.41-.56-1-1.65-1.83-2.77a9.77,9.77,0,0,0-1.5-1.59,12.74,12.74,0,0,0-1.7-1.08,3.73,3.73,0,0,1,.54.29,10.31,10.31,0,0,1-2-1.54c-.26.06-1.74-1.36-2.48-2.21-.93-1.36.77.65.55.16,0,.07-.45-.44-1-.94s-.93-.93-.76-.68c-1-.9-.83-.77-1.31-1.26-.31,0-1-.67-2.06-1-.81-.48-.92-.51-1-.61a6,6,0,0,0-1.24-.48C100.87,69.92,102.62,70.45,102.61,70.48ZM87.72,42.15h0l-.63.76ZM90.25,39c-.3.39-.68.87-1.09,1.37-.12.09,0-.05.2-.37A8.06,8.06,0,0,0,90.25,39Zm-6,6.12a3.93,3.93,0,0,1,.61-.72l-.69.88,0,.07A.85.85,0,0,1,84.29,45.13Z"/><path class="cls-4" d="M83.7,46.12l-.16.21.25-.28.11-.2Z"/><path class="cls-4" d="M100.93,75.63l-.08,0,.16.09Z"/><polygon class="cls-4" points="70.59 48.28 70.62 48.29 70.8 47.98 70.59 48.28"/><path class="cls-4" d="M114,92.75a1.65,1.65,0,0,0,0,.28A1.51,1.51,0,0,0,114,92.75Z"/><path class="cls-4" d="M112.83,102.14c-.09.44-.18.88-.25,1.33Z"/><path class="cls-4" d="M112.48,109.52c0,.09.06.12.07.14h0Z"/><path class="cls-4" d="M52.64,123.51l-.23.16C51.88,124.06,52.24,123.8,52.64,123.51Z"/><path class="cls-4" d="M74.5,98.56l-.12,1.12A3.69,3.69,0,0,0,74.5,98.56Z"/><path class="cls-4" d="M49.46,152.25h0l-.07-.23Z"/><path class="cls-4" d="M74.05,101.27c.15-.6.25-1.11.33-1.59Z"/><path class="cls-4" d="M118.67,117.1a3.37,3.37,0,0,1-.1-.34s0,0,0,0S118.62,117,118.67,117.1Z"/><path class="cls-4" d="M118.54,116.73l-.11-.38C118.48,116.53,118.52,116.68,118.54,116.73Z"/><path class="cls-4" d="M118.2,115.57l.23.78A5.78,5.78,0,0,0,118.2,115.57Z"/><path class="cls-4" d="M122.55,125.89l.09.07S122.57,125.89,122.55,125.89Z"/><path class="cls-4" d="M121.79,126.2l1,1.25.57-.45-.62-1-.08-.06c.14.17.39.61.67,1.06l-.51.4C122.43,127,122,126.45,121.79,126.2Z"/><path class="cls-4" d="M115.22,115.78c.37.73.79,1.44,1.19,2.16-.18-.4-.42-.91.17,0C115.12,115.24,116.78,118.6,115.22,115.78Z"/><path class="cls-4" d="M112.93,108.61c.18,1.29,0,0,.09,0C112.93,107.83,112.9,107.63,112.93,108.61Z"/><path class="cls-4" d="M87.88,79.37l0-.16C87.48,80.17,87.86,79.24,87.88,79.37Z"/><path class="cls-4" d="M83.6,89.05c.18-.29.35-.59.51-.89l.11-.47C84,88.14,83.84,88.6,83.6,89.05Z"/><path class="cls-4" d="M78,91.66l.42-.17c-.53.21-1.07.43-1.59.67Z"/><path class="cls-4" d="M47.64,141.57l-.06.33C47.76,142.57,47.94,142.68,47.64,141.57Z"/><path class="cls-4" d="M62.86,109.75a5.82,5.82,0,0,0,1.46-1.81A11.38,11.38,0,0,1,62.86,109.75Z"/><path class="cls-4" d="M67.07,58.41l-.22.77c.15-.48.3-1,.47-1.44Z"/></g></g></g><g id="Layer_102" data-name="Layer 102"><g id="Pierna"><rect class="cls-5" width="160" height="195"/></g></g></g></g></svg>