<svg xmlns="http://www.w3.org/2000/svg" viewBox="0 0 464 265"><defs><style>.cls-1{isolation:isolate;}.cls-2{fill:#fff;}.cls-3{fill:#fffdfd;}.cls-4{fill:#42210b;}.cls-5{fill:#9fa1a4;}.cls-6{fill:none;mix-blend-mode:multiply;}</style></defs><g class="cls-1"><g id="Layer_2" data-name="Layer 2"><g id="Variacion_C" data-name="Variacion C"><g id="AssetsC1"><g id="HornA1"><path class="cls-2" d="M397.06,166.18a6.44,6.44,0,0,1,.1,1.19,21.13,21.13,0,0,1-.69,4.92,8.73,8.73,0,0,1,.51.9l.27.54,0,0h0a2,2,0,0,1,.1.21c.19.31-.06,1.15.12,1.47.83.05,2.15,1.83,3,2,3.07.61,3.87-.18,7,0,1,.06,4.27-.95,5.31-.9h1.09c4.05-.24,8.09-.44,12.13-.9.9-.1,1.8-.21,2.69-.33.06-.09.13-.17.18-.26,1.15-1.14,2.33-2.26,3.41-3.47,2.05-2.3,3.49-4.54,5.49-6.5,2.91-6.58,2-14.5-1.28-21.4-2.39-5.07-5.41-9.86-10.31-12.76-5.24-3.1-11.56-6.93-17.68-8.34-1.75-1.28-3.53-2.54-5.33-3.8-3.88-2.71-7.92-5.81-10.13-10.13a15.7,15.7,0,0,1-1.41-10c.09-.53.93-4.89,1.43-5a.42.42,0,0,0,.17-.74l-.25-.22.57-.87a.69.69,0,0,0-1-.89c-10.8,7.61-13.43,25.24-10.18,37.07,1.94,7.09,5.62,13.5,8.84,20C393.78,153.23,396.81,159.86,397.06,166.18Z"/><path class="cls-3" d="M327.09,168.51c-4.49-5.59-11-7.58-18-8-10.09-.6-20,2.51-30.05,1.26-4.71-.59-10.71-1.92-14.24-5.37-1.81-1.78-2.49-4.47-3.84-6.57s-3.49-3.62-3.56-6.49a1.37,1.37,0,0,0-1.07-1.34.81.81,0,0,0-1.33-.08l-.29.36-.53.27a1.08,1.08,0,0,0-.54,1.16c-7.27,10.83.54,25,8,33.64,4.55,5.3,9.35,10,15.46,13.51a109.93,109.93,0,0,1,11.24,6.7c3.83,2.81,9.92,7,10.33,12.1.1,1.2,1.87,1.9,2.54.83a9.18,9.18,0,0,0,2.78-1.87c3.12-2.61,6-5.52,9.15-8.08q4.14-3.33,8.55-6.29c2.95-2,6.5-3.46,8.93-6l0-.06a.79.79,0,0,0,.48-.45C333.77,181.55,331.11,173.49,327.09,168.51Zm-34.41,24.8c-.19-.29-.38-.6-.57-.91a3,3,0,0,0,.5-.17l.16,1.16Zm26.49-2a2.36,2.36,0,0,0,.48.29c-.79.57-1.57,1.16-2.33,1.75C318,192.73,318.57,192.05,319.17,191.35Z"/><path class="cls-4" d="M331.82,191.21c6.11-15.31-6.12-33-21.75-34.89-10.48-1.24-20.52,1.66-31,1.75-6.43.06-12.25-.43-16.17-6.11-3.33-4.84-4.22-10.71-7.29-15.64a1,1,0,0,0-1.81.53c-.56,7.79,3,17.47,9.32,22.37,7.16,5.57,18.56,4,26.94,3,9-1,20.29-3.68,28.32,1.94,8.86,6.2,11.25,16.09,10.3,26.33a1.62,1.62,0,0,0,3.13.69Z"/><path class="cls-4" d="M253.81,138c-4.29,6.27-4.24,16.06-3.27,23.3,1,7.7,3.82,15.22,9.77,20.42,6.45,5.62,13.8,9.66,21.3,13.63,3.85,2,7.95,4.24,10.69,7.72,3,3.81,3.42,8.13,3.77,12.78a2.92,2.92,0,0,0,5.84.12c2.41-16.36-12.79-22.93-24.56-29.34-8.67-4.72-17.06-10.14-20.5-19.82a47.34,47.34,0,0,1-2.61-14.52c-.13-4.69,1-9.29.93-13.94,0-.67-1-.86-1.36-.35Z"/><path class="cls-4" d="M433.35,175.22c15-10.79,8.73-31.67-1.64-43.5-6.51-7.41-17.59-9.62-25.85-14.58-5.41-3.25-10.35-6.57-10.89-13.42-.48-6,2-11.55,2-17.46a1,1,0,0,0-1.83-.72c-4.79,6.66-6.93,17.57-3.31,25.23s13.6,12.09,20.84,15.49c4.86,2.29,10.34,3.82,14.29,7.64,3.37,3.24,5.56,7.75,7.55,11.94s3.84,8.7,3.33,13.44c-.58,5.46-3.61,9.6-6.87,13.77-1.19,1.54,1,3.18,2.38,2.17Z"/><path class="cls-4" d="M394.5,86.54c-6.44,2.81-11.36,10.46-14.33,16.53-3.22,6.59-5.42,14.37-3.82,21.69,1.8,8.2,6.1,16.08,10.37,23.21,5.24,8.75,8.81,16.75,3.78,26.46-1.41,2.73,2.3,6.36,4.51,3.62,11.18-13.85-1.44-28.55-7.93-41.11-4.7-9.1-7.39-17.16-4.38-27.31a48.61,48.61,0,0,1,5-11.37c2.27-3.74,5.49-6.82,7.67-10.56.36-.61-.14-1.49-.91-1.16Z"/><path class="cls-5" d="M280.89,180c-3.68-2.4-8.13-3.15-11.75-5.79A25,25,0,0,1,260.4,162a.81.81,0,0,0-1.55.43,21.59,21.59,0,0,0,7.27,12.45c3.6,3.21,9,7,14,7C281.05,181.86,281.87,180.6,280.89,180Z"/><path class="cls-5" d="M313.13,166.69c-.43-.36-1.08.34-.67.73,4.9,4.73,7.68,10.18,10.57,16.23a.43.43,0,0,0,.82-.25C322.69,176.81,318.13,170.89,313.13,166.69Z"/><path class="cls-5" d="M317.13,180.32c-.1-.25-.48-.09-.39.17.5,1.35,1,2.73,1.6,4a.2.2,0,0,0,.38-.15A42.31,42.31,0,0,0,317.13,180.32Z"/><path class="cls-5" d="M396.94,140.9c-2.84-5-6-9.8-8.31-15.05-1.46-3.28-2.8-6.81-2.83-10.45,0-3.83,1.39-7.41,2.29-11.07a.52.52,0,0,0-1-.36c-6.33,13.22-.11,27.08,8.94,37.51C396.44,141.93,397.26,141.45,396.94,140.9Z"/><path class="cls-5" d="M428.22,141.07c-.28-.34-1-.09-.82.38,1.51,5.48,3.77,10.34,3.15,16.21-.5,4.76-2.94,8.31-5.61,12.11a.63.63,0,0,0,.79.91C436.37,165.7,434.7,148.63,428.22,141.07Z"/><path class="cls-5" d="M428.43,155.37c-.05-.42-.59-.4-.75-.08-1.05,2.07-1.32,4.53-2.16,6.72a76,76,0,0,1-4,7.89.56.56,0,0,0,.93.64C425.58,167.05,429,160.18,428.43,155.37Z"/></g></g></g><g id="PixelsASSETS"><g id="Cuernos"><rect class="cls-6" width="464" height="265"/></g></g></g></g></svg>