<svg xmlns="http://www.w3.org/2000/svg" viewBox="0 0 464 265"><defs><style>.cls-1{isolation:isolate;}.cls-2{fill:#fff;}.cls-3{fill:#42210b;}.cls-4{fill:none;mix-blend-mode:multiply;}</style></defs><g class="cls-1"><g id="Layer_2" data-name="Layer 2"><g id="Variación_B" data-name="Variación B"><g id="AssetsB1"><g id="HornA6"><path class="cls-2" d="M279.94,208.88a23.41,23.41,0,0,1-11,1.46,16.74,16.74,0,0,1-8.21-4.27,12.22,12.22,0,0,1-3.39-7.86c.43-7.82,6.44-15.07,13.58-17.87a22.21,22.21,0,0,1,24.25,5.88c3.49,3.79,6.35,8.27,5.85,13.59.05.23.08.47.11.71a.81.81,0,0,0,0,.16c0,.15,0,.31,0,.46a34.45,34.45,0,0,0-.3,4.32c-.64,2.18-1.08,4.46-1.52,6.6q1.65-2,3.5-3.84a91.22,91.22,0,0,1,9.91-8.5c3.33-2.49,7.33-4.44,10.4-7.22l.3-.25a1.12,1.12,0,0,0,0-.45s0-.07,0-.11a3.65,3.65,0,0,0,.18-.34,1.11,1.11,0,0,0-.43-1.4c-1.94-12-10.32-22-20.8-28-11.07-6.28-27.37-10.54-39.65-5.62-12.59,5-21.22,15.46-24.8,28.3-3.46,12.42-1.21,26,10.65,32.89a27.69,27.69,0,0,0,19.44,3.1c5.1-1,13.33-3.82,14.49-9.66A1.94,1.94,0,0,0,279.94,208.88Z"/><path class="cls-2" d="M433.18,173c-.36-.21-.73-.4-1.12-.58,1.16-7.48,1.74-14.68-.92-22a115.52,115.52,0,0,0-10.09-19.94c-7.83-12.82-21.93-18.83-36.51-20.68-27.86-3.52-52.24,26.83-39,52.74,6.93,13.52,26.08,15.14,36.78,4.75a1.27,1.27,0,0,0,.13-.19c.2-.06.41-.1.62-.17a1.51,1.51,0,0,0-.72-2.92,1.27,1.27,0,0,0-1.4.3c-4.32.78-8.41-.48-12.23-2.72-4.16-2.44-5.71-6.49-5.66-11.15.1-10.3,9.61-14,18.3-15.12,8.9-1.11,16,5.39,18.41,13.71,2.51,8.75-.95,16.29-2.18,24.74a14.51,14.51,0,0,0-1.31.65.56.56,0,0,0,.19,1.05c6.16.68,12.88-1.27,19.13-1.45,2.88-.08,5.76,0,8.64.1,3,.16,5.78.9,8.67,0C433.4,173.94,433.67,173.29,433.18,173Zm-70-31.36c.07-.27.15-.55.23-.83a17.06,17.06,0,0,1,2.67-2.48A17.44,17.44,0,0,0,363.19,141.63Zm65,29.7a1.68,1.68,0,0,0,.51-1.35s0-.07,0-.11a1.79,1.79,0,0,0,.22-.25c-.08.58-.16,1.18-.25,1.77Z"/><path class="cls-3" d="M280.5,204l2.51-.56a2.47,2.47,0,0,0-2.51.56c-5.25,5.88-13.31,2.79-16.49-3.63-4-8,4.16-15.59,11.65-17a17.5,17.5,0,0,1,18.83,9.89,24.92,24.92,0,0,1,2.34,11.54c-.06,2.88-.21,8.44-1.8,11.08a1.7,1.7,0,0,0,.8,2.52c5.25,2.31,6.33-5.72,6.75-9.06a33.17,33.17,0,0,0-2.5-18.3c-5.2-11.11-18.13-17-29.73-12.33-10.66,4.26-17.31,16-10.42,26.36,5.75,8.65,17.62,10.48,24.47,2.18,1.83-2.23-2-5.42-3.9-3.26Z"/><path class="cls-3" d="M325,195c3-6.72.2-15.77-2.94-22a41.09,41.09,0,0,0-16.31-16.92c-14-8-32.29-9.41-47.17-3.07-14.11,6-25,19.25-26.46,34.74-1.38,14.95,6.84,32.55,21.71,37.66a27.05,27.05,0,0,0,23.38-2.88c6.07-4,12.1-12.61,6.92-19.51-1.43-1.91-4.57-.41-4.62,1.74-.09,4.07-.48,7.19-3.53,10.2a19.62,19.62,0,0,1-10.34,5c-8.71,1.54-16.53-2.8-21.56-9.77-9.78-13.52-7.13-32.11,4.61-43.47S278.61,153,293.81,158a42.22,42.22,0,0,1,19.35,12.89,33.71,33.71,0,0,1,6.06,11c1.38,4.24,1.2,8.59,2.17,12.88A1.92,1.92,0,0,0,325,195Z"/><path class="cls-3" d="M385,159.72c-2.71-1.21-5.1,1.47-8,1.27-4.62-.33-7.86-4.23-9-8.47-2.42-9.13,6.81-14.75,15-14.3,8,.45,14.29,6.59,15.86,14.27a24.69,24.69,0,0,1-1,12.66c-1,2.94-2.58,7.8-4.89,9.9a1.69,1.69,0,0,0,.13,2.63c4.46,3.78,7.85-4.09,9.16-7.09A33.09,33.09,0,0,0,405,153.38c-1.36-11.29-10.32-20.61-21.94-21.15-10.8-.51-22.76,7.15-21.32,19,1.32,10.89,12.73,19.41,22.94,12.87a2.62,2.62,0,0,0,1.28-2.85c-.19-.64-.3-1.22-1-1.51Z"/><path class="cls-3" d="M434.62,176c2.91-5.86,1.59-13.95.77-20.21-1-7.42-2.54-15.06-5.74-21.87-7.52-16-24.87-27.35-42.15-29.48-16.7-2.06-34.42,4.88-43.6,19.35-8.89,14-8.12,35.8,5,47.09a27.26,27.26,0,0,0,23.2,5.86c7-1.49,17.29-8.15,14.28-16.61-.83-2.34-4.32-2.9-5.15-.17-1.4,4.63-3.47,7.77-8.19,9.52a20.77,20.77,0,0,1-12.19.43c-9.32-2.37-14.74-11-16.35-20-3.37-18.89,10.8-35.76,29-39,19-3.4,39,6.76,48.64,23.28,3.58,6.15,5.4,13.34,6.78,20.26,1.41,7.12,1,14.24,2,21.32.3,2.05,2.91,1.75,3.66.25Z"/></g></g></g><g id="PixelsASSETS"><g id="Cuernos"><rect class="cls-4" width="464" height="265"/></g></g></g></g></svg>