<?xml version="1.0" encoding="utf-8"?>
<!-- Generator: Adobe Illustrator 26.0.0, SVG Export Plug-In . SVG Version: 6.00 Build 0)  -->
<svg version="1.1" id="Capa_1" xmlns="http://www.w3.org/2000/svg" xmlns:xlink="http://www.w3.org/1999/xlink" x="0px" y="0px"
	 viewBox="0 0 464 265" style="enable-background:new 0 0 464 265;" xml:space="preserve">
<style type="text/css">
	.st0{fill:#FFFFFF;stroke:#42210B;stroke-width:6;stroke-linecap:round;stroke-linejoin:round;}
	.st1{fill:#FFFFFF;stroke:#999999;stroke-width:2.77;stroke-miterlimit:10;}
	.st2{fill:#E6E6E6;}
	.st3{fill:none;stroke:#999999;stroke-width:2.77;stroke-miterlimit:10;}
</style>
<g>
	<g id="Capa_2_00000061473505187006817730000000118980025929138320_">
		<g id="AssetsA1">
			<g id="HornA1">
				<path class="st0" d="M326.7,194.3c0,0-45.5-45.9-55.9-46.3s5.8,46.2,13.5,62c5.5,11.2,8.1,16.4,8.1,16.4s5.9-12,15.5-18.9
					S326.7,194.3,326.7,194.3z"/>
				<path class="st0" d="M430.5,177.5c0,0-24.4-57.5-29.8-55.4s-6.8,55.4-6.8,55.4"/>
				<path class="st1" d="M279,183.9c0.5-3.8-0.1-7.6-1.9-11l-0.4-0.7c-2.8-4.7-9-7.6-15.9-5.9c-2.2-5.1-8.1-7.4-13.1-5.3
					c-0.1,0.1-0.3,0.1-0.4,0.2c-5.4-6.7-16.7-17.1-34.4-13.5S187,169.3,187,169.3c-6.1-5.7-18.8-3.2-25,2.7
					c-6.5,6.2-6.4,10.9-6.4,10.9c-4.3-2.8-11.3,0-12.5,4.1c-1,3.2,0.4,6.7,3.4,8.3l0.6,0.3c5.8,2.9,9.4,1.3,9.4,1.3
					c6.9,14.9,19.9,11,25.9,8c1.9-0.9,5.7-2.6,5.7-2.6s10.7,10.2,25.6,10.7c8.9,0.3,24-4.3,27.6-12.4c15.9,9.1,44,2.1,47.7-7
					C290.2,189.9,288.8,181.2,279,183.9z"/>
				<path class="st2" d="M288.7,192.8c-3.7,8.9-31.8,15.9-47.7,6.9c-3.6,8-18.7,12.5-27.6,12.2c-14.8-0.5-25.5-10.4-25.5-10.4
					s-3.8,1.6-5.7,2.6c-6,3-19,6.8-25.9-7.8c0,0-3.6,1.6-9.3-1.2l-0.6-0.2c0.7-0.1,1.3-0.2,1.9-0.4c8.5-2,20-10,27.5-2.5
					c-0.1-5.8-6-9.8-11.6-9.1c2.7-3.6,7.4-5,11.7-3.6c4.3,1.6,7,5.7,6.8,10.3c4.4-2.3,9.5-3,14.4-2c5.3,0.9,8.8,4.2,11,9
					c-1.6-8.6-6.2-13.4-15.1-12.9c-0.3-4.9,0.3-8.2,3.3-12.1s8.4-6.4,13.2-5.1s8.3,6.8,6.4,11.4c0.8-1.2,3.6-1.9,5.3-0.8
					c1.3,0.9,1.6,3.3,1.3,4.3c1.5-3.9,5.3-6.4,9.5-6.3c4.2,0.2,7.7,3.1,8.8,7.1c0.7-7.3-6.3-14.2-13.7-13.6
					c10.3-5.6,24.1-2,25.7,9.5c4-12.8,21.6-10.3,24.3-5.4c1.8,3.3,2.5,7.1,1.9,10.8C288.8,180.7,290.2,189.2,288.7,192.8z"/>
				<path class="st3" d="M279,183.9c0.5-3.8-0.1-7.6-1.9-11l-0.4-0.7c-2.8-4.7-9-7.6-15.9-5.9c-2.2-5.1-8.1-7.4-13.1-5.3
					c-0.1,0.1-0.3,0.1-0.4,0.2c-5.4-6.7-16.7-17.1-34.4-13.5S187,169.3,187,169.3c-6.1-5.7-18.8-3.2-25,2.7
					c-6.5,6.2-6.4,10.9-6.4,10.9c-4.3-2.8-11.3,0-12.5,4.1c-1,3.2,0.4,6.7,3.4,8.3l0.6,0.3c5.8,2.9,9.4,1.3,9.4,1.3
					c6.9,14.9,19.9,11,25.9,8c1.9-0.9,5.7-2.6,5.7-2.6s10.7,10.2,25.6,10.7c8.9,0.3,24-4.3,27.6-12.4c15.9,9.1,44,2.1,47.7-7
					C290.2,189.9,288.8,181.2,279,183.9z"/>
			</g>
		</g>
	</g>
</g>
</svg>
