<svg xmlns="http://www.w3.org/2000/svg" viewBox="0 0 275 259.5"><defs><style>.cls-1{isolation:isolate;}.cls-2{fill:#838383;}.cls-3{fill:#d1d1d1;}.cls-4{fill:#b3b3b3;}.cls-5{fill:#fff;}.cls-6{fill:#919191;}.cls-7{fill:#42210b;}.cls-8{fill:none;mix-blend-mode:multiply;}</style></defs><g class="cls-1"><g id="Layer_2" data-name="Layer 2"><g id="Variación_B" data-name="Variación B"><g id="AssetsB1"><g id="LoinA1"><path class="cls-2" d="M232.36,147.56a2.35,2.35,0,0,0-.37-.14,3.27,3.27,0,0,0,1-3.72c-2.22-6.16-4.89-11.82-9.37-16.39a4,4,0,0,0-1-4.29c-2.3-2.17-4.95-3.35-7.9-4.6-1.57-.66-3.15-1.46-4.77-2.14a4.93,4.93,0,0,0-2.75-2.06,23,23,0,0,0-6.8-.78c-7.8-3.1-16.56-4.66-24.85-5.69a100.87,100.87,0,0,0-22.5-.42l-.13,0a5.49,5.49,0,0,0-8.37-1.62c-.19-.44-.37-.88-.55-1.31a4.86,4.86,0,0,0-7.73-1.87c-.47-1.49-1-3-1.61-4.44a5.51,5.51,0,0,0-3.38-2.92c-.18-.51-.37-1-.54-1.52a4.07,4.07,0,0,0-1-1.59C128.89,90,128,87.87,127,85.8a11.92,11.92,0,0,0-2.78-6.15,2.88,2.88,0,0,0-.7-.83c-.24-.57-.47-1.15-.7-1.73a1.78,1.78,0,0,0-2.18-1.27,66.45,66.45,0,0,0-11.43-8.94,2,2,0,0,0-2.74.5l-.08-.07c-4.69-4.11-10.16-7.25-14.83-11.37-2.43-2.15-4.63-4.47-6.84-6.83-1.73-1.84-2.51-3.28-5-3.7a.63.63,0,0,0-.7.5c-.21,2.47,1.14,3.6,2.72,5.6a66.93,66.93,0,0,0,7,7.79c4.75,4.44,10.55,7.65,15.39,12,5.63,5.1,10.36,9.58,11,17.25.35,4.3,1.32,10.06,7.07,10.29a1.29,1.29,0,0,0,.49-.08l.21.55a4.1,4.1,0,0,0-1.43,4.43c.82,3.07,1.45,6.17,2.21,9.25a4.2,4.2,0,0,0,4.93,3.29l.24.79c1,3.22,4.76,3.88,7.3,2.55h.21a7.18,7.18,0,0,0,2.45-.73,7.9,7.9,0,0,0,3.6,3.29,5.55,5.55,0,0,0,5.28-.17,9.14,9.14,0,0,0,1.25-1,9.66,9.66,0,0,0,10.59-.46c.27-.19.78-.53,1.23-.9a17.8,17.8,0,0,0,4.11,3.42c4.44,2.77,7.81,1.42,12.5.48,2.38-.48,4.2.85,6.48,1.47a20.45,20.45,0,0,0,7.23.43,12.11,12.11,0,0,1,7,1,41.48,41.48,0,0,0,6.24,2.26c5,1.35,8.9,2.79,12.44,6.54a61,61,0,0,1,8.51,11.58,3.9,3.9,0,0,0,.89,1l-.88.1c-1.2.14-.89,1.75.27,1.71l3.86-.13a5.73,5.73,0,0,0,3.12-.64A.72.72,0,0,0,232.36,147.56Z"/><path class="cls-3" d="M210.75,141.05a19.11,19.11,0,0,0-5.11-4.8,8.88,8.88,0,0,0-1.79-1.72,10,10,0,0,0-4.07-1.72c-2.36-2.71-6.4-4.16-10.57-4.84-5.65-2.06-12.82-2.17-17.8-2a83.17,83.17,0,0,0-14.67,2c-3.36-.69-6.68-1.19-9.61-1.63a109.55,109.55,0,0,0-14.93-1.2,9.33,9.33,0,0,0-3.39-1.46,15.66,15.66,0,0,0-6.44.21c.79-4.35-1.35-9.26-2.93-13.35,0-.68.07-1.35.1-2,.16-3.73-.43-6.61-4.2-8.44a4.85,4.85,0,0,0-3.91-.1,8.2,8.2,0,0,0-1.44-2.1c-1.74-1.85-4.76-2.85-7.09-1.1a17.29,17.29,0,0,0-1.85,1.62,5.07,5.07,0,0,0-5.29,0,8.31,8.31,0,0,0-.87.6c-3.62-4.35-11.18-6.54-16.14-8.25a3.47,3.47,0,0,0-1.82-.17,17.63,17.63,0,0,1-7-4.69C64.2,79.23,64.48,68.16,58.09,62c-1.56-7.26-3.82-15.19-10.3-19.52a.46.46,0,0,0-.72.27,15,15,0,0,0,0,1.77A22.79,22.79,0,0,0,45.68,42c-.26-.39-.89-.08-.84.33C46.45,54.3,47.63,66.7,52,78.1a44.48,44.48,0,0,0,8.57,14.7c1.46,1.58,4.51,4.16,7.5,5a3.33,3.33,0,0,0-2.38,4.09s0,.11,0,.17a9,9,0,0,1-2.85-2.14,1,1,0,0,0-1.73.69c-1.29-1.3-2.06-2.7-3.39-4.19a.56.56,0,0,0-.84,0c-2,2.89,1,5.92,3.28,7.84,5.35,4.51,8.57,8.83,9.85,15.67a64.89,64.89,0,0,0,1.4,6.72C69.67,124,69,121,68.08,117.92c-.14-.49-.92-.4-1.1,0-5,10.82,10.79,20,17.57,25.95a23,23,0,0,1,4.55,4.81,5,5,0,0,1,.58,1.31,2.88,2.88,0,0,0-.1.78,15.33,15.33,0,0,0,.26,2.26q0,.38,0,.78a20.54,20.54,0,0,0,2,7.65c2.16,5,5.09,9.37,11.35,9.73,5.87.34,11.78-2.17,17.56-3a61.63,61.63,0,0,1,20.46.31,35.19,35.19,0,0,1,3.83,1c8.51,4.55,16.11,10.9,25.64,13.34a21.15,21.15,0,0,0,4.88.89,3,3,0,0,0,.52,0l.74.07v-.14c4.15-.66,5.71-6,2.75-7.94a6.72,6.72,0,0,0,2.91-.32,6.87,6.87,0,0,0,4.5,1.58c4.45-.19,9.6-.4,13.59-2.45,3.82-2,6.28-5.83,8.35-9.3C213.47,157.59,216.54,149,210.75,141.05ZM77.83,105.2a4.53,4.53,0,0,0-1.58-1.81c-.55-1.08-1.11-2.15-1.67-3.23a4.39,4.39,0,0,0-1.19-1.41c1.38.63,3.07,1.53,4.83,2.37a32.23,32.23,0,0,0,1.24,7.33C78.92,107.37,78.38,106.28,77.83,105.2Zm21.93,18.67a4.35,4.35,0,0,0-1.47-1.74,11.54,11.54,0,0,0,1.36-1.26,4.41,4.41,0,0,0,1.29,3A6.63,6.63,0,0,0,99.76,123.87Zm77.58,51.22a26.94,26.94,0,0,1-8.41-2.2c-2.81-1.47-5.44-3.45-7.94-5a59.4,59.4,0,0,0-5.82-3.25,59.32,59.32,0,0,0-14.74-7.16c.91-.52,1.81-1.06,2.68-1.63.44,1.46,1.6,2.74,3.83,3.61,2.95,1.14,5.77-.15,8.3-2.07a6.35,6.35,0,0,0,1.88,1.84c-1.3,3.89,3,8,7.2,6.41a5.5,5.5,0,0,0,6.19,3.57A5.56,5.56,0,0,0,175,171.9c.07.15.14.3.22.45a7.18,7.18,0,0,0,2.44,2.78Z"/><path class="cls-4" d="M231.77,148.77c.33,0,.67.1,1,.13a2.26,2.26,0,0,1,.53.09c.25,0,.5,0,.76,0s.56,0,.84-.08a1.35,1.35,0,0,1,.75.09c1.51-6.36,0-13-3.22-18.89-.95-7.15-6.63-14-12-18.63a24.88,24.88,0,0,0-15.13-5.66c-3-2.15-7.16-3.27-10.65-4-5.11-1-11.62-1.36-16.18,1.51l-1.3-.19a112.43,112.43,0,0,1-15.75-3.53c-3.44-1.07-6.76-2.48-10.21-3.52a3.84,3.84,0,0,0-2.45-3.79,5.94,5.94,0,0,1-1-.52l-.43-.35-.19-.16a42.84,42.84,0,0,0-3.69-4.16c2.56-3.24,1.84-7.43-.37-11.23a12.14,12.14,0,0,0-1.54-5.59,5.67,5.67,0,0,0-3.62-2.65c-1.83-5-6.31-7.45-11.48-8-2.19-1.75-4.61-3-7.3-2.91a4.21,4.21,0,0,0-2.41.88C110.54,54,103,52.54,96.15,50.53a1.83,1.83,0,0,0-1.91.57c-4.15-3.83-8.62-7.68-14.38-7.7-1.12,0-2.09,1.26-1.19,2.16,4.18,4.25,9.17,7.84,13.72,11.74a95.23,95.23,0,0,0,15.75,11c5.07,2.82,14.1,5.09,13.56,11.8-.28,3.47,0,6.14,1.32,8.57a17.91,17.91,0,0,0,4,8.2c5.63,6.59,15.41,10.32,23.75,12.75,10.14,3,20.07,2.12,30.49,2.89,5.59.41,11.11,1,16.63,2,2.73.46,5.36,1.07,8,1.7l.2.08c7.34,2.93,14.44,7.29,19.14,13.47A29.81,29.81,0,0,1,231.77,148.77Z"/><path class="cls-4" d="M222.93,157.75c.24-.14.47-.29.68-.44-.12-2.69.27-5.5,1.94-7.48a4,4,0,0,1,.57-.54,17,17,0,0,0-.92-3.39,16.51,16.51,0,0,0-1.9-3.48c-2.69-5.95-8.68-11.28-13.68-14.58-6.53-4.33-17.39-8.86-25.75-6.61-5.31-1-11.24,0-16.56.06-6.33,0-12.71-.24-19-.66-6-.4-13.89-.17-19.53-2.38s-3.79-7.57-6.31-11.2l.17-.11.87-.58a2.25,2.25,0,0,0,.72-2.21,9.91,9.91,0,0,0-.41-1.91c2.11-6.38-7.69-10.84-13-11.72-4.3-.72-8.45.79-12.78.59-4.59-.21-9.15-.93-13.66-.25a63,63,0,0,1-11.2-5.29c-5.54-3.34-7.8-7.2-9.44-13.09-1.32-4.74-2.19-9.56-3.94-14.18-.29-.76-.6-1.5-.92-2.23l.78,1.17a1.05,1.05,0,0,0,1.82-.5c.25-3.69-2.24-6.78-4.6-9.53s-4.58-6.11-8.16-7.49c-.34-.13-.76.21-.58.55s.41.74.62,1.11a56.73,56.73,0,0,0-4.28-3.9c-1-.84-2.58.71-1.63,1.63A53.21,53.21,0,0,1,57.7,64.86c2,8.26,2.75,17.17,10.36,22.71A63.17,63.17,0,0,0,94,98.23a90.32,90.32,0,0,0,14.13,1.1H109a14.57,14.57,0,0,1,1.62,1.26,12.91,12.91,0,0,1,2.49,3.13,5.12,5.12,0,0,1,.37.84c-1.06,7.09.14,14,6.75,19.14.12.1.26.19.39.28a12.1,12.1,0,0,0,7,3.79c7.83,2.89,16.73,2.41,25.18,1.39,13.71-1.65,26.91-1.92,40.3,1.91a83.69,83.69,0,0,1,8.17,2.8,35.72,35.72,0,0,1,5.62,5.87,29.69,29.69,0,0,1,2.69,8.3,41.45,41.45,0,0,1,0,10.44A29.83,29.83,0,0,1,208.1,162c-1.37,2.89-4,5.49-5.18,8.47-.12.13-.24.25-.35.38a.9.9,0,0,0-.06,1c0,.13-.06.26-.08.39a1.11,1.11,0,0,0,1.56,1.06,8.4,8.4,0,0,0,3.22-2.29,26.77,26.77,0,0,0,8.82-7,15.38,15.38,0,0,0,3.67-3.4,22.68,22.68,0,0,0,1.9-2.81A1.62,1.62,0,0,0,222.93,157.75Z"/><path class="cls-4" d="M195.48,171c-.49-1.67-2-3-2.86-4.49a28.45,28.45,0,0,1-1.67-3.42,13.83,13.83,0,0,0-1.3-8.14c2.25-9.55-11.93-17.45-20.39-17.3-6.6.12-13.23,1.27-19.74,2.19a30.69,30.69,0,0,1-11.33-.61c-2.91-.63-5-1.12-7.78.12a29.91,29.91,0,0,1-3.85-2.88,52.31,52.31,0,0,1-6.6-7.76c-.31-.43-.62-.82-.95-1.2a8,8,0,0,0-1-2.65c-2.2-3.41-7.18-3.3-10.82-2.18a32.15,32.15,0,0,0-4.91,0,33.57,33.57,0,0,1-7.82-.44c-1.06-.2-2.07-.49-3.07-.77l-1.76-.88c-2-1-3.4-2.5-5.17-3.68-.39-.57-.78-1.13-1.15-1.71a15.19,15.19,0,0,1-1.16-2c.4-2.05-.31-4.86-.94-6.93,1.12-4.34-2.07-8.23-6.5-9.45a31.61,31.61,0,0,0-7.83-.65c-2.38,0-4.69-.93-7-.83a23.44,23.44,0,0,0-2.65-.53.87.87,0,0,0-.23,0,13.57,13.57,0,0,1-1.82-2.6c-.31-.57-1.44-.38-1.24.33,1.5,5.19,5.11,8.37,10.72,9.54s9.61,1.27,11.24,7.35c.78,2.92,1,6,2.36,8.71,2.39,4.73,7.4,7.73,12.56,9.25,7.5,2.2,17.08-.41,22.66,5.71,2.1,2.3,3.91,4.49,5.89,6.46a12.4,12.4,0,0,0,2.12,2,.55.55,0,0,0,.15.08,25.43,25.43,0,0,0,6.64,4,37.93,37.93,0,0,0,18.51,2.59c9.09-1,17.25-5.4,26.49-2.28a22,22,0,0,1,11.21,8.42c2.06,3.07,2.87,6.64,4.42,9.93a.93.93,0,0,0,.45.45,16.27,16.27,0,0,0,1.21,2.67c.92,1.61,2,3.67,3.81,4.44C194.88,172.08,195.64,171.6,195.48,171Z"/><path class="cls-4" d="M206.76,95.34c-5.65-.74-11.1-1.71-16.82-2.23-6.27-.56-12.82-1.3-18.19-4.67-4.36-2.73-8.23-7.16-9.63-12-2.73-9.43,8.71-10.06,15.33-12.88a1,1,0,0,0-.31-1.83c-5.69-.62-14.66,1-18.35,5.58-4.26,5.29-1.1,13,2.42,17.82,10.23,14.07,29.71,12.56,45.57,11.6A.71.71,0,0,0,206.76,95.34Z"/><path class="cls-4" d="M50.44,64.63A39.22,39.22,0,0,0,40.08,49.41C36,45.7,30.94,42.21,25,42.32a17.37,17.37,0,0,0-14.37,8.21C5.94,58.16,5.8,75.06,18.76,74.87,28.35,74.73,39.34,61.33,29,54.8c-.73-.46-2,.25-1.45,1.09,2.64,4.39,2.54,9.23-1.65,12.79-4.84,4.13-12.5,4.17-14.5-2.6C9,57.8,13.28,45.39,23.87,45c8.62-.32,16.13,8.86,19.82,15.25,3.79,6.55,5.38,14.23,6.42,21.54.08.6,1.13.8,1.32.16A26.26,26.26,0,0,0,50.44,64.63Z"/><path class="cls-4" d="M59.62,133.58c-7.61-7.82-16.13-14-19.74-24.53-3.66-10.69-2.57-22.4-.67-33.3.18-1-1.57-1.46-1.93-.45C29.35,97.84,35,123.16,58.4,135.15A1,1,0,0,0,59.62,133.58Z"/><path class="cls-4" d="M98.12,71.3C79.3,64.25,68,48.42,61.68,30.84c-.14-.4-.87-.23-.76.19C62.16,36.1,63,40.7,65.32,45.5a57,57,0,0,0,8.26,12.78c6.2,7.19,14.33,12.8,24.16,14.39A.72.72,0,0,0,98.12,71.3Z"/><path class="cls-4" d="M125.63,28.06c-4.19.31-11.34,1.56-12.71,6.21s6.22,5.9,9.42,6.58c4.57,1,15.85,2.59,18.63-2.35,1.35-2.39-.5-5.14-3.23-3.48-.57.35,0,1.26.61,1,0,.59-.09,1.18-.14,1.77l-1.46.36a13.13,13.13,0,0,1-3.32.5,38.18,38.18,0,0,1-8.81-.16,18.23,18.23,0,0,1-4.53-.92,3.18,3.18,0,0,1-2.17-1.45c-1.76-.77-1.83-1.46-.19-2.1,1.62-1.89,5.29-2.19,7.67-2.4a68.2,68.2,0,0,1,15.57.74c1.58.23,4.24.35,5.56,1.31l3.12,6.28c-.65.8-1.31,1.59-2,2.39a13.53,13.53,0,0,1-4.9,2.21c-19.16,5.45-38.87-1.34-56.07-9.29a.62.62,0,0,0-.64,1C91.57,40.34,98.4,42.5,105,44.6s13.13,4.24,20.13,4.54c8.47.36,28.12-.48,28-12.16C152.91,26.62,132.43,27.55,125.63,28.06Z"/><path class="cls-4" d="M162.22,32.44c-.25-.6-1.39-.5-1.4.2,0,4.35,1.19,8.5-.82,12.68s-6.1,6.42-8.9,9.87a1,1,0,0,0,1.19,1.39C161.7,51.51,166.23,42.2,162.22,32.44Z"/><path class="cls-4" d="M201.8,172.39c-2.5-.72-4.49.22-7,.69a88.4,88.4,0,0,1-9,1.14,22.41,22.41,0,0,1-8.77-.78l-.93-.36c-4.31-1.83-8.12-4.42-12-6.86-.59-3-4.6-6-7.22-7.54-3.19-1.86-7.43-2.7-10.58-.36a.87.87,0,0,0-.38.78A73.54,73.54,0,0,0,134.12,158c-10.4-.23-23.09,2.26-32.9-1.81-2.67-1.11-5.11-2.93-6-5.67a13.65,13.65,0,0,1-.33-4.46l.28,0c3-.59,3.79-3.38,2.31-5.82-2-3.23-6.8-3.83-10.18-5C82.07,133.42,76.84,131,73,127s-7-10.64-6.14-16c.09-.58-.78-.65-.92-.12-1.14,4.14-1.77,6.72-.29,11a24.48,24.48,0,0,0,6.49,9.61,40,40,0,0,0,10.35,6.77c1.71.8,5,1.57,7.6,2.75,1.17,3.68-.11,7.34,1.26,11.16,1.25,3.47,4.31,6.05,7.74,7.59,9.32,4.18,21.32,2.67,31.3,2.63,6,0,12.1.18,17.92,1.66,5.5,1.4,10.19,4.11,14.81,7.14,1.75,1.15,3.57,2.3,5.46,3.39a.39.39,0,0,0,.38.46.3.3,0,0,0,.24-.1,53,53,0,0,0,11.9,5.16l-1,.22c-4,.78-8.24.78-12.22,1.5-2.32-1.66-4.81-3.1-7.08-4.84s-4.39-4-6.76-5.75c-4.78-3.64-10.92-4.28-16.87-4.56-14.52-.69-28.59,4.16-42.64-1a.54.54,0,0,0-.56.9c9.28,8.6,25.26,3.2,36.6,3,8-.14,16.75,0,22.94,5.3,4.4,3.78,8.75,8,14.59,9.7a1.18,1.18,0,0,0,1-.16,8,8,0,0,0,2.35.47,42.26,42.26,0,0,0,7.61-.79c3.81-.55,9.07-.86,12.54-2.93h.07a1.78,1.78,0,0,0,1.56-1.24s0,0,0,0a.66.66,0,0,0,.07-.75,2,2,0,0,0-.94-1.74c4.05-.37,8-1.28,9.69-3.73A.74.74,0,0,0,201.8,172.39Z"/><path class="cls-5" d="M125.4,65c-3.57-2.68-9-3.5-13.37-4.51C106,59.1,99.86,58,94.46,55a.41.41,0,0,0-.43.68c7.7,5.66,16.47,6.4,25.47,9.09,11.17,3.34,9.7,17,10.54,25.88.07.72,1.21.67,1.32,0C132.6,82.78,132.8,70.55,125.4,65Z"/><path class="cls-5" d="M189.19,108.59a176.82,176.82,0,0,1-26.61-2.34c-8.7-1.56-20.75-2.51-25.43-10.41-.11-.19-.43-.13-.4.1,1.19,8.36,14.14,9.52,20.93,10.89,10.23,2.07,21.07,4,31.54,2.58A.41.41,0,0,0,189.19,108.59Z"/><path class="cls-5" d="M126.52,125.6c-3.93-3.41-7.23-7.34-8.62-12.28-1.32-4.66-.47-8.89.43-13.5,0-.27-.34-.32-.46-.11-5.13,8.88-.56,21.25,8.27,26.38A.31.31,0,0,0,126.52,125.6Z"/><path class="cls-5" d="M187.74,124.3a66.07,66.07,0,0,0-17.93-.47c-7.37.85-14.74,2.84-22.2,2.78-.2,0-.26.29,0,.31,10.47.73,20.6-2.44,31.13-2.06,10.85.39,26.15,2.42,29.36,14a.48.48,0,0,0,.94-.16C208.46,128.9,196.24,125.66,187.74,124.3Z"/><path class="cls-5" d="M214.89,140.61c-.1-.16-.4,0-.31.16,5,8.85.18,18.14-5.1,25.63-.19.27.2.54.41.3C216.51,159.19,220.66,149.59,214.89,140.61Z"/><path class="cls-5" d="M147.82,145.35c-6.69.71-13.59.82-19.65-2.35-5.59-2.93-8-7.29-9.87-12.75a.19.19,0,0,0-.36,0c-.31,5.52,4.29,10.61,9,13.3,6.26,3.55,14,3.94,20.93,2.37A.31.31,0,1,0,147.82,145.35Z"/><path class="cls-5" d="M106.23,124.67c-5.55.37-13.33,2.34-18.45-.38-5.63-3-8.21-10.42-8.59-16.1a.16.16,0,0,0-.31,0c-1.68,5.27,2.23,12.68,6.51,16.11,5.38,4.3,14.78,2.22,20.94,1A.3.3,0,1,0,106.23,124.67Z"/><path class="cls-5" d="M78.12,102.59c-.87-1.93-2.16-4.21-4.66-4.43-1.72-.16-3.64.77-5.37.92a13.36,13.36,0,0,1-10-3.1.14.14,0,0,0-.18.21,13.11,13.11,0,0,0,7.44,3.68,11.5,11.5,0,0,0,4-.19,21.52,21.52,0,0,1,2.07-.79c3.45-.44,4.91,1.06,6.32,3.84C77.88,102.93,78.21,102.8,78.12,102.59Z"/><path class="cls-5" d="M42.47,55.49c-.14-.16-.38,0-.26.18a41,41,0,0,1,7.22,16.82.19.19,0,0,0,.37,0A29.67,29.67,0,0,0,42.47,55.49Z"/><path class="cls-5" d="M36.32,86.13c0-.2-.3-.24-.34,0A48.81,48.81,0,0,0,38,111c.06.19.36.07.3-.12A54.13,54.13,0,0,1,36.32,86.13Z"/><path class="cls-5" d="M84.34,162.43a11.65,11.65,0,0,1-12.2-7.76c-.91-2.4-1-5.22-3.63-6.63s-6.82-1.09-9.76-.89A39.82,39.82,0,0,0,46,150.46c-.22.09-.08.4.15.32A47.84,47.84,0,0,1,63,148.5c1,.06,2.88-.05,3.8.44,1.57.85,2.68,3.37,3.26,4.9a26,26,0,0,0,1.74,4.37c2.54,4.33,7.72,7.3,12.82,5.09C85.18,163.07,84.86,162.4,84.34,162.43Z"/><path class="cls-5" d="M180,158.8c-4.52-4.23-10.41-5.87-16.51-7-.67-.12-.85.88-.24,1.09,4.39,1.48,9.09,3,12.89,5.58a16.74,16.74,0,0,1,4.8,4.72c1.25,1.92,1.61,4.18,2.93,6a.24.24,0,0,0,.38-.05C186,165.69,182.59,161.2,180,158.8Z"/><path class="cls-5" d="M123.53,146.77a7,7,0,0,0-9.33,1.41c-.35.41.2.9.65.72,2-.8,5.48-2.32,7.5-.73q2.54,5.1-1,5c-.71.09-1.42.14-2.14.16a15,15,0,0,1-3.34-.24c-6-1.14-7.16-6-8.87-10.78a.24.24,0,0,0-.44.06c-.22,4,.89,8.39,4.45,10.87,3,2.13,9.55,3.08,13,1.28S126.09,148.55,123.53,146.77Z"/><path class="cls-6" d="M172.85,165.38c-4.27-5.94-12.66-12.23-20.37-13.37-5.65-.83-15.57-1.16-20.34,2.32a.25.25,0,0,0,.2.43c7.18-1.13,14.8-2.74,22-.58s11.84,8.06,17.79,11.94A.52.52,0,0,0,172.85,165.38Z"/><path class="cls-6" d="M183.05,130.91a69.16,69.16,0,0,0-30,2.9c-.37.12-.16.6.18.58,8.18-.5,15.9-2.86,24.22-2.61a43.86,43.86,0,0,1,11.51,1.78,25.35,25.35,0,0,1,5.42,2.2q4.81,2-.62,6.18c-2.71-.83-2.57-1.31.4-1.43.25.23.73,0,.56-.32-1.15-2.25-6.19-2-5.21.77.63,1.78,4.57,3,6.36,2.63a3.79,3.79,0,0,0,3.16-3.81C199,133.54,187.82,131.56,183.05,130.91Z"/><path class="cls-6" d="M199.56,149.09c1.08-3.46,3.44-6.49,2.27-10.15-.07-.22-.48-.16-.49.07-.12,5.79-4.42,10.72-4.59,16.71-.11,4,.73,8.24,4.29,10.71.3.21.77-.12.58-.46C198.59,160.4,197.64,155.22,199.56,149.09Z"/><path class="cls-6" d="M111.2,117.39c-4.41-2.57-5.79-5.38-7-10-.45-1.65-.88-3.36-2.37-4.48-3.33-2.51-9.89-1.17-13.42,0-.28.1-.14.47.13.45,2.23-.15,4.46-.5,6.69-.55,2.59-.06,2.87,0,5.14,1.83s2.22,1.86,2.76,4.15a25.36,25.36,0,0,0,.84,3.07c1.15,3,3.31,6,6.94,6.29C111.35,118.27,111.64,117.64,111.2,117.39Z"/><path class="cls-6" d="M61.45,87.27c-3.47-7.56-5-16.47-5.17-24.66,0-.23-.41-.22-.44,0-1,9.07,1,16.7,5.19,24.82C61.16,87.69,61.57,87.53,61.45,87.27Z"/><path class="cls-6" d="M56.16,110.66C52.3,106,49,101.2,47.2,95.45c-2.14-6.92-1.09-13.28-1.09-20.28,0-.22-.33-.35-.43-.11-4.36,11.36-1.29,29.09,10,36.12C56,111.4,56.43,111,56.16,110.66Z"/><path class="cls-6" d="M111.73,141.27c-1.64-8.24-13.37-13.16-21.36-10.74a.22.22,0,0,0,.06.42c4.65.54,9,.29,13.28,2.58,3.47,1.88,5.48,4.71,7.32,7.94C111.22,141.8,111.82,141.68,111.73,141.27Z"/><path class="cls-6" d="M121.05,164.27c-4.66-.22-9.32,0-14,0s-13.14-1.6-14.63-6.63c0-.19-.34-.09-.32.08.34,4.29,5.88,6.43,9.8,7.3,5.92,1.31,13.16.46,19.14-.27A.24.24,0,0,0,121.05,164.27Z"/><path class="cls-6" d="M169.93,179.32c-7.91-1.62-10.76-9.93-18.41-11.7-.24-.05-.3.28-.11.38,6.39,3.05,10.58,12.27,18.53,11.81C170.25,179.79,170.2,179.38,169.93,179.32Z"/><path class="cls-6" d="M54,141.39a64.09,64.09,0,0,1-11.66-9c-3.72-3.68-4.94-7.71-5.88-12.56,0-.18-.34-.2-.35,0-.41,10.31,8.16,17.95,17.67,21.91C54,141.84,54.23,141.52,54,141.39Z"/><path class="cls-6" d="M85.72,150.82a10.82,10.82,0,0,0-3.22-6.92c-2.22-2-5.37-2.26-8.3-2.54a.18.18,0,0,0,0,.36c5.29.71,9.42,2.82,10.48,8.13a8.56,8.56,0,0,1,.11,2.9c-.42,2.89-1.42,3.57-4.06,3.94-2.07.82-3.66.17-4.78-2l3.23-5c1.81-.66,2.5,3.33,1.29,4.59-.22.23.11.61.39.47,3.27-1.68,1.36-6-2.13-5.82-5.29.29-4.32,7-.52,8.69C83.05,159.78,86.06,154.8,85.72,150.82Z"/><path class="cls-6" d="M80.11,71c-4.1-2.3-4.9,2.88-4.14,5.41a.33.33,0,0,0,.65-.09c-.21-2.46,1.9-5.31,4.23-2.82a8,8,0,0,1,1.79,3.87q2.28,5.09-7.2,3l-.89-1.09A15.54,15.54,0,0,1,72,75c-2.16-4.8-2.41-9.84-3.9-14.78-.06-.22-.48-.28-.48,0A35.27,35.27,0,0,0,73,78.73c1.93,2.93,6.82,7.33,10.11,3.19C85.39,79,83.28,72.83,80.11,71Z"/><path class="cls-7" d="M225.63,154c2.19-15-7.43-27.67-21.27-32.53-16.08-5.65-33.18-2.1-49.75-2.17a72.23,72.23,0,0,1-13.45-1.16c-4.36-.84-12.33-2.46-15-6.53s.29-8.54-1-12.87a14.62,14.62,0,0,0-5.52-7.28c-15.11-11-37.71,5.89-49.3-12.67C61.84,65.24,64.5,39,43.63,36.37a1,1,0,0,0-.46,1.87C61.61,44.65,58.3,66.61,66.9,80.57c3.46,5.62,8.51,9.71,15,11.1,8,1.72,16.11-.54,24.2-.25,4.76.18,9.78,1.29,13.14,4.93,4.06,4.42.86,8.35,1.7,13.31,1.08,6.4,8.84,9.45,14.24,11.1,16,4.91,32.78,1,49.12,1.45,9,.23,18.44,1.47,26.12,6.43a25.85,25.85,0,0,1,11.77,25.16c-.28,2.19,3.08,2.4,3.4.24Z"/><path class="cls-7" d="M52.87,92.09c3.86,3.88,9.64,4.13,14.82,4.34,3.32.14,7,.06,9.87,1.9,4.83,3,2.91,8,3.32,12.7,1.11,12.64,17.29,11.43,26.18,11.9,3.85.2,7.87.86,11,3.21,3.38,2.51,2.87,5.48,4.37,8.9,1.79,4.08,6.63,5.24,10.65,5.65,8.17.83,16.44-.44,24.59-1,7.81-.5,18-1.27,24.4,4.15,8.64,7.27,4.59,29.83,20.39,29.36a1.21,1.21,0,0,0,.23-2.4c-13.82-3-9.48-22.24-19.34-29.67-10.26-7.74-26.11-4-37.82-3.25a69,69,0,0,1-12.85,0,12.53,12.53,0,0,1-5.06-1.38c-2.47-1.55-2.78-3.68-3.46-6.22-1.18-4.36-4.92-7.19-9-8.65-6.3-2.24-13-.89-19.54-1.69-3.49-.44-7.22-1.47-9.75-4.06-3.52-3.59-2-7.88-2.35-12.31-1.3-15-22.71-5.29-30.21-12.07-.36-.33-.78.25-.46.57Z"/><path class="cls-7" d="M193.16,178.63c-2.48-1.93-6-2-9-2.85a37.66,37.66,0,0,1-9.3-3.85c-5.56-3.43-8.45-9.57-14.35-12.68-12.57-6.62-27-2.24-40.39-2.36a42.36,42.36,0,0,1-11.8-1.55,30.9,30.9,0,0,1-5.71-2.35,13.1,13.1,0,0,1-2.47-1.47q-3.63-4-.55-6.44c1.59-3.89.78-7.06-3.25-9.17-2.46-1.3-5.32-1.68-7.9-2.68a32.41,32.41,0,0,1-10.17-6.36c-5.1-4.69-6.86-10.21-9.86-16.14-.55-1.08-2.44-.92-2.47.43-.23,11.36,11.62,21.73,21.31,25.5,1.78.69,4.37.86,6,1.86,8.15,5.13,2.64,3.71,1.65,6.36-.78,2.08-1.25,3.39-.29,5.57,2.48,5.66,11.07,8.24,16.46,9.36,15.57,3.24,32.85-5,47.64,2.6,6.42,3.3,9.63,10.19,16.13,13.55,4.52,2.34,13.12,5.65,18.18,4.08a.82.82,0,0,0,.16-1.41Z"/><path class="cls-7" d="M222.32,142c-.71,3.17.24,6.45-.27,9.71s-2.26,6.09-2.58,9.28a1,1,0,0,0,1.61.88c4.78-3.51,6.55-15.72,2.43-20.2a.68.68,0,0,0-1.19.33Z"/><path class="cls-7" d="M235.4,151c8.48-10.1,1.95-25.85-5.51-34.35a55.86,55.86,0,0,0-16.62-13.21c-6.28-3.07-13.23-3.61-20.11-3.85-7.57-.27-15.15-.54-22.62-1.91a70.69,70.69,0,0,1-10.81-2.82c-3.7-1.33-9.23-3.21-11.7-6.61s-1.07-8.84-1.45-13a17.07,17.07,0,0,0-2.86-8.09c-3.26-4.86-8.19-8-13.53-10.16-8-3.25-16.72-5-25-7.3-8.7-2.39-17.4-5.28-26.43-6.16A1.28,1.28,0,0,0,78.16,46c8.68,4.08,18.21,6.13,27.42,8.69,8.66,2.41,18.34,4,26.32,8.35,4.12,2.22,8.16,5.64,9.3,10.39,1,4-.48,8.19.06,12.26.93,7,7,10.53,13,13.2a78.87,78.87,0,0,0,23.22,5.85c8.88,1,18.16.06,26.91,2s16.67,8.49,22.29,15.4a34.69,34.69,0,0,1,6.32,11.4c1.79,5.76.77,10.67-.38,16.43-.33,1.65,1.93,2,2.79,1Z"/></g></g></g><g id="PixelsASSETS"><g id="Espalda"><rect class="cls-8" width="275" height="259.5"/></g></g></g></g></svg>