<?xml version="1.0" encoding="utf-8"?>
<!-- Generator: Adobe Illustrator 26.0.0, SVG Export Plug-In . SVG Version: 6.00 Build 0)  -->
<svg version="1.1" id="Capa_1" xmlns="http://www.w3.org/2000/svg" xmlns:xlink="http://www.w3.org/1999/xlink" x="0px" y="0px"
	 viewBox="0 0 275 259.5" style="enable-background:new 0 0 275 259.5;" xml:space="preserve">
<style type="text/css">
	.st0{fill:#FFFFFF;stroke:#42210B;stroke-width:7;stroke-linecap:round;stroke-linejoin:round;}
	.st1{fill:#FFFFFF;stroke:#B3B3B3;stroke-width:2.48;stroke-linecap:round;stroke-linejoin:round;}
	.st2{fill:#FFFFFF;stroke:#B3B3B3;stroke-width:2.67;stroke-linecap:round;stroke-linejoin:round;}
	.st3{fill:#D3D3D3;stroke:#42210B;stroke-width:7;stroke-linecap:round;stroke-linejoin:round;}
</style>
<g>
	<g id="Capa_2_00000033348974964717538830000000535907890947005095_">
		<g id="AssetsA1">
			<g id="LoinA1">
				<path class="st0" d="M141,162.9c0,0-15.8-32-23.1-92.8c-2.8-23.6-18.6-8.7-26.4,2.5s-16.4,19-27.8,29.3s-11.7,15.1-7.6,15.5
					s20,1.4,20,1.4s-3.6,12.1,0,12.3s10.8,0,10.8,0s-0.2,20,8.4,18.5s8.6-3.8,8.6-3.8s-1,7.5,3.1,9.1s9.5-3.4,9.5-3.4
					s0.2,9.2,3.3,8.7s0.9-4.4,5.4-3.1s3.6,12.9,3.6,12.9"/>
				<path class="st1" d="M128.4,142.6c0,0-14.9-35.1-18-74C109.7,61,89,87.2,89,87.2"/>
				<path class="st2" d="M80.9,99.7c0,0-1.2,11,2.8,9.6s9.5-8.7,9.5-8.7s-6.1,20.7-1.8,22.6s12-7.4,12-7.4s-2.9,13.2,0.7,14.6
					s10.6-5.8,10.6-5.8s-1.2,11.5,1.8,11s3.9-1.7,3.9-1.7"/>
				<path class="st3" d="M184.5,145c0,0-8-25-7.9-66.1c0.1-15.9-12-7.4-18.3-0.6s-12.8,11.2-21.5,17.1s-9.3,9-6.5,9.7
					c2.7,0.7,13.6,2.6,13.6,2.6s-3.5,7.7-1,8.2s7.4,0.9,7.4,0.9s-1.8,13.3,4.2,13.1s6.2-1.8,6.2-1.8s-1.3,4.9,1.4,6.3
					s6.8-1.4,6.8-1.4s-0.2,6.8-0.4,7.9"/>
			</g>
		</g>
	</g>
</g>
</svg>
