<?xml version="1.0" encoding="utf-8"?>
<!-- Generator: Adobe Illustrator 26.0.0, SVG Export Plug-In . SVG Version: 6.00 Build 0)  -->
<svg version="1.1" id="Capa_1" xmlns="http://www.w3.org/2000/svg" xmlns:xlink="http://www.w3.org/1999/xlink" x="0px" y="0px"
	 viewBox="0 0 160 195" style="enable-background:new 0 0 160 195;" xml:space="preserve">
<style type="text/css">
	.st0{clip-path:url(#SVGID_00000170249894189545698070000012049762515988291488_);}
	.st1{fill:#C2B6D5;}
</style>
<g>
	<g id="Capa_2_00000070120612222359376740000013231884205689010367_">
		<g id="AssetsA1">
			<g id="HamA1">
				<g>
					<defs>
						<rect id="SVGID_1_" x="22.3" y="34.6" width="104.2" height="81.4"/>
					</defs>
					<clipPath id="SVGID_00000021820325833032661210000006613451334615616384_">
						<use xlink:href="#SVGID_1_"  style="overflow:visible;"/>
					</clipPath>
					<g style="clip-path:url(#SVGID_00000021820325833032661210000006613451334615616384_);">
						<path class="st1" d="M22.3,81.5c2-0.6,3.9-1.3,5.8-2.1c2.1,0.7,4.2,1.8,6,3.1c9,6.6,21.6,4.6,28.1-4.4
							c0.3-0.4,0.5-0.7,0.7-1.1c3.7-6.8,4.3-16-1.2-22.2c-2.7-2.8-6.6-4.2-10.5-3.7c-3.8,0.8-6.6,4.1-6.8,8c0,2.5,1.2,4.9,3.7,4.3
							c1.2,0,2.5-1.8,3.7-1.8c2.2-0.5,4.4,0.8,4.9,2.9c0,0,0,0.1,0,0.1c0.6,4.3-0.6,8.6-4.3,11.1c-5.5,2.5-12.3,1.9-16.7-3.1
							c1.9,1.2,3.7,2.5,5.6,2.5c-9.3-9.2-8-26.5,4.3-32.7c13-5.5,24.7,4.9,28.2,16.8c0.9,3.3,1.4,4.1,1.8,4.6l1.2,0.9
							c0,0-0.1,0.2,0.3-0.6c1.1,1.7,2.7,3,4.5,3.9c5.9,5.8,12.1,11.4,21.4,10.2c9.9-1.2,16-9.2,16.7-18.5c0-6.2-2.5-13-8-16
							c-3.7-1.8-9.3-2.5-12.3,1.2c-3.7,4.3-5.6,11.7,0,15.4c1.8,1.2,4.3-0.6,5.6-2.5V56c-2.5-1.8-6.2-3.7-3.7-7.4
							c2.1-3,6.2-3.8,9.3-1.8c7.4,4.9,7.4,17.3,0,21c-10.5,6.2-22.2-4.9-21.6-16c0.6-6.4,4.3-12.2,9.8-15.5
							c6.6-3.1,14.4-1.9,19.8,3.1c8,8,9.9,20.4,4.8,31c-1.1,2.3-1.3,3.2-1.3,3.8c3.4,11.2,5.8,23,3.6,28.3
							c-4.9,11.9-77.2,18.2-89.5,9.1S22.3,81.5,22.3,81.5"/>
					</g>
				</g>
			</g>
		</g>
	</g>
</g>
</svg>
