<svg xmlns="http://www.w3.org/2000/svg" viewBox="0 0 464 265"><defs><style>.cls-1{isolation:isolate;}.cls-2{fill:#a67c52;stroke:#42210b;stroke-width:6px;}.cls-2,.cls-3,.cls-4,.cls-6,.cls-7,.cls-9{stroke-linecap:round;stroke-linejoin:round;}.cls-3,.cls-4,.cls-6,.cls-7,.cls-9{fill:#8cc63f;stroke:#006837;}.cls-3{stroke-width:4.73px;}.cls-5{fill:#42210a;}.cls-6{stroke-width:3.34px;}.cls-7{stroke-width:0.71px;}.cls-8{fill:#c7b299;}.cls-9{stroke-width:0.85px;}.cls-10{fill:none;mix-blend-mode:multiply;opacity:0.4;}</style></defs><g class="cls-1"><g id="Layer_2" data-name="Layer 2"><g id="Variación_A" data-name="Variación A"><g id="AssetsE2"><g id="HornE2"><path class="cls-2" d="M290.85,235.83S230.5,121.62,227.5,109.62s46.69,16.68,63.35,28.84,47.76,50.86,47.76,50.86-20.11,6.3-28.11,15.3S290.85,235.83,290.85,235.83Z"/><path class="cls-2" d="M384.61,180.92s-7.11-73.3-10.11-89.3,3-28,8-24,60.4,116.23,60.4,116.23-6.93-4.66-25.16-6.45A84.7,84.7,0,0,0,384.61,180.92Z"/><path class="cls-3" d="M419.62,119s-10.2-18.67.88-30.52a35.37,35.37,0,0,1,25.63-11.1s7.77,22-4.27,31.68S419.62,119,419.62,119Z"/><path class="cls-4" d="M418.81,117.27s8.62-15.66,13.16-22.16a81.59,81.59,0,0,1,5.53-7.49"/><path class="cls-4" d="M429.5,89.62a24.6,24.6,0,0,0,0,9.26"/><path class="cls-4" d="M440.5,93.62A77.3,77.3,0,0,1,432,95.11"/><path class="cls-4" d="M424.85,106.61a27.06,27.06,0,0,1-2.35-10"/><path class="cls-4" d="M425.54,105.44a26.08,26.08,0,0,0,8.5,1.17"/><path class="cls-5" d="M255,163s-9.5,1.06-13.27,1.07,12.84,7.05,12.84,7.05Z"/><path class="cls-5" d="M374.66,74.54s-8.78-6.43-12.12-9.16,8.81,12.42,8.81,12.42Z"/><path class="cls-5" d="M415.73,130.54s2.92-10.49,4.3-14.58-8.51,12.63-8.51,12.63Z"/><path class="cls-6" d="M245.22,164.22s-10.65,11.59-21.78,8.39-14.22-12.19-14.22-12.19,13.64-11.12,23.45-6.69S245.22,164.22,245.22,164.22Z"/><path class="cls-7" d="M244.24,165.2s-13.22-.62-18.93-1.45a62.86,62.86,0,0,1-6.68-1.14"/><path class="cls-6" d="M383,118.41s-15.6,2.14-22.13-7.43-3.18-18.46-3.18-18.46,17.6.14,22.33,9.81S383,118.41,383,118.41Z"/><path class="cls-7" d="M381.62,118.54s-9.79-8.9-13.66-13.19a65.23,65.23,0,0,1-4.41-5.13"/><path class="cls-7" d="M363.47,105.65a22,22,0,0,0,6.77,2.08"/><path class="cls-7" d="M368.51,99.7a44.05,44.05,0,0,1-.55,5.65"/><path class="cls-7" d="M375,112.37a23.52,23.52,0,0,1-7.75-.79"/><path class="cls-7" d="M374.27,111.68a14.68,14.68,0,0,0,2.49-5"/><path class="cls-8" d="M264,139.12s19,12,32,27S312.65,192,312.65,192,293,167.12,280,158.12s-30-29-30-29Z"/><path class="cls-8" d="M276,174.12s4,8,7,12,15.31,20.58,15.31,20.58-4.66-8.16-9-17.36S276,174.12,276,174.12Z"/><path class="cls-8" d="M387.77,94s7.46,22.17,11.34,35.17,6.2,22.93,7.54,25,10.35,12,10.35,12-11.85-23.55-16.93-40.77A204.45,204.45,0,0,0,387.77,94Z"/><path class="cls-6" d="M364.51,69s-14-.37-20-6.37-7-25-7-25V34.19s10-.57,19,3.43,12.62,21.51,11.81,25.76A7.7,7.7,0,0,1,364.51,69Z"/><path class="cls-9" d="M365.27,68.23s-9.73-12.71-13.41-18.65a72,72,0,0,1-4.14-7.06"/><path class="cls-9" d="M346.45,49a26.76,26.76,0,0,0,7.6,3.94"/><path class="cls-9" d="M353.73,43a52.11,52.11,0,0,1-1.87,6.6"/><path class="cls-9" d="M358.71,59.46a28.48,28.48,0,0,1-9-2.61"/><path class="cls-9" d="M358,58.48A17.63,17.63,0,0,0,362.05,53"/></g></g></g><g id="PixelsASSETS"><g id="Cuerno"><rect class="cls-10" width="464" height="265"/></g></g></g></g></svg>