<svg xmlns="http://www.w3.org/2000/svg" viewBox="0 0 464 265"><defs><style>.cls-1{isolation:isolate;}.cls-2{fill:#a67c52;}.cls-3{fill:#42210b;}.cls-4{fill:#735639;}.cls-5{fill:none;mix-blend-mode:multiply;opacity:0.4;}</style></defs><g class="cls-1"><g id="Layer_2" data-name="Layer 2"><g id="Variación_C" data-name="Variación C"><g id="AssetsE2"><g id="HornE2"><g id="Capa_56" data-name="Capa 56"><path class="cls-2" d="M319.63,192.64a7.23,7.23,0,0,0-1.23,0c.16-.2.33-.38.49-.58a6.24,6.24,0,0,0,.26-8.23c0-.19-.06-.38-.1-.58a42.82,42.82,0,0,0-8.41-18.18,11.49,11.49,0,0,0-1.05-7.29,13,13,0,0,0-5.95-5.5c-1-4.73-4.46-8.16-8.69-10.52a169.94,169.94,0,0,0-15.86-7.93c-6.71-8.3-17.9-11.16-28.73-11.53a5.71,5.71,0,0,0-2.91-.93c-.64,0-1.28,0-1.92-.06h0c-.13,0-.25,0-.38,0a70.4,70.4,0,0,0-10.08.54c-1.45.16-2.89.35-4.32.58-17.16-4.24-33.07,8.56-42.37,22.69a7.71,7.71,0,0,0-1.23,3.2,74.41,74.41,0,0,0-5.09,6.84c-3.64,5.54-6.79,11.46-7.59,18.15-.95,8,1,15.89,3.77,23.32,4.25,11.51,9.57,30,24.39,30.86a8.58,8.58,0,0,0,1.91-.11,10,10,0,0,0,5,2,8.55,8.55,0,0,0,5.9,0A49.13,49.13,0,0,0,228.5,229c8.21-.17,16.28-1.46,23.45-5.73A63.35,63.35,0,0,0,266.88,211a18.74,18.74,0,0,0,7.61-8.15c.13,0,.26.08.4.1s0,.07,0,.1a29.22,29.22,0,0,0,4.1,14.83,6.44,6.44,0,0,0,1.43,1.79,6.61,6.61,0,0,0,.72,1.11,6.55,6.55,0,0,0,5.39,2.68,10.34,10.34,0,0,0-.22,4.41,1.51,1.51,0,0,0,2.42.92c2.72-2.17,3.88-5.82,5.82-8.69a65.49,65.49,0,0,1,8.74-10.56,93.87,93.87,0,0,1,9.77-8.14c2.84-2.09,6.28-3.82,7.41-7.33A1,1,0,0,0,319.63,192.64Z"/><path class="cls-2" d="M452.9,122a9.32,9.32,0,0,0-1.37-5.25q-1.11-1.85-2.25-3.66c-.12-.47-.24-.93-.34-1.36-.49-2.24-1.09-4.49-1.79-6.68a51.83,51.83,0,0,0-6.06-12.48,41.1,41.1,0,0,0-15.52-14c-.33-.41-.68-.81-1-1.2a16.41,16.41,0,0,0-7.87-7.6c-3.11-1.4-6.44-2.16-9.56-3.6a31.74,31.74,0,0,0-10.16-3.27c-.43,0-.86-.07-1.28-.09a9.28,9.28,0,0,0-1.85-.44,55.17,55.17,0,0,0-44.76,14,21.57,21.57,0,0,0-13,7.54,25.58,25.58,0,0,0-3.91,6.39c-1.14,1.66-2.15,3.31-3,4.82a42.49,42.49,0,0,0-5.6,19.9c-1.82,1.43-2.84,5.51-2.95,7.16-.23,3.38,1.06,6.53,2.31,9.62,1.72,4.25,3.7,8.9,6.85,12.29a37.55,37.55,0,0,0,3.53,5.82,20,20,0,0,0,9.61,6.9c4.11,3.66,8.63,6.8,14.14,8a20,20,0,0,0,3.89.5,7.66,7.66,0,0,0,4.64,1.42,9,9,0,0,0,7.36-4.14c.93-.44,1.84-.91,2.73-1.43l1.47-.88a8.24,8.24,0,0,0,2.65-.28,8.45,8.45,0,0,0,3.2-1.75,36.43,36.43,0,0,0,7.16,0,27.9,27.9,0,0,0,8.14-2.15c-2.14,3.75-4.12,7.61-6.17,11.42a5.13,5.13,0,0,0-.63,2.61,4.73,4.73,0,0,0-.83,2.25,7.42,7.42,0,0,0-4.15,3.33,1.44,1.44,0,0,0,.49,1.69c3.25,2.16,7,.59,10.61-.06a138.41,138.41,0,0,1,15.73-1.92c4.94-.3,9.9-.35,14.84-.18,3.81.14,7.84,1.52,10.58-1.61a1.44,1.44,0,0,0,.16-1.48,5.6,5.6,0,0,0-.66-.94,12.79,12.79,0,0,0,7-6.05c6.86-11.5,12.57-23.53,12.22-37.18A6.67,6.67,0,0,0,452.9,122Zm-45,14.8c-.16-.7-.33-1.4-.52-2.09l1.44-.94C408.5,134.79,408.19,135.8,407.88,136.81Z"/><path class="cls-3" d="M453.31,152.66c-5.41-1-12.69,0-17.89,1.72a2,2,0,0,0-.3,3.44c5.28,2.81,13.21,3.5,18.73.92,2.41-1.12,2.29-5.54-.54-6.08Z"/><path class="cls-3" d="M458.89,123.06c-3.66-.9-7.1.52-10.66,1.42-4.34,1.11-8.81,1.86-12.82,4a2,2,0,0,0,.68,3.8c4.33.49,8.52-.48,12.7-1.55,3.87-1,8.21-1.73,11-4.79a1.88,1.88,0,0,0-.86-2.84Z"/><path class="cls-3" d="M435.88,90.69c-2.63,5.38-6.94,9.66-9.6,15-.74,1.5,1.13,2.86,2.46,2.29,6.26-2.68,9.95-9.53,12.65-15.42,1.58-3.43-3.9-5.14-5.51-1.85Z"/><path class="cls-3" d="M402.37,63c-1.61,4.38-.71,9.71-1.22,14.35s-1.54,9.33-.82,14a2.27,2.27,0,0,0,4.05.86c4.91-6.89,8.57-23,2.55-30.11a2.71,2.71,0,0,0-4.56.9Z"/><path class="cls-3" d="M365,63.21c-1.86,3.9,1.9,9.26,2.77,13.28,1,4.81.94,10,2.77,14.57.65,1.65,2.79,1.18,3.45-.13,2.54-5,1.42-11.51,0-16.74-1.16-4.11-2.59-11.11-7.43-11.9a1.47,1.47,0,0,0-1.52.92Z"/><path class="cls-3" d="M329.47,93.56c2,2.86,6.79,3.67,9.89,5.2,4,2,7.55,5.83,12.06,6.54a2.06,2.06,0,0,0,2.17-2.4c-.6-5.26-6.49-8.45-10.82-10.44-3.5-1.61-9.7-3.76-13.08-1a1.53,1.53,0,0,0-.22,2.11Z"/><path class="cls-3" d="M331.49,146.73c3.11-2.54,5.28-5.81,8.19-8.56s6.47-4.61,9.14-7.42c1-1.06.77-3.26-1-3.31-8.5-.2-18.73,9.56-18.69,18a1.49,1.49,0,0,0,2.39,1.3Z"/><path class="cls-3" d="M367,162.53c3.26-.62,3.18-4.95,3.61-7.53.57-3.35,1.68-7,.85-10.4a1.9,1.9,0,0,0-3.05-1.11c-3.33,2.69-4.22,7.44-4.63,11.5-.21,2-.54,8.26,3.22,7.54Z"/><path class="cls-3" d="M405.18,148.58c-.75-3-3.09-4.74-5.07-6.91s-4-4.55-6.83-6c-1.27-.65-2.6.58-2.77,1.76-.52,3.65,1.56,7.05,4.09,9.49,2.36,2.28,5.5,4.8,9,3.9a2,2,0,0,0,1.56-2.25Z"/><path class="cls-3" d="M383,110.21a48.73,48.73,0,0,0-3,7.06,35.43,35.43,0,0,0-2.39,7.09,1.89,1.89,0,0,0,2.66,1.87c4.8-2.84,7.56-10,5.93-15.28-.4-1.29-2.34-2.22-3.2-.74Z"/><path class="cls-3" d="M317.2,169.46c-3.2.9-5.85,3.56-8.27,5.77s-5.38,4.59-6.76,7.63a2.26,2.26,0,0,0,1.94,3c3.52-.18,6.78-2.25,9.64-4.19,3-2,6.17-4.33,7.64-7.74,1.07-2.47-1.77-5.17-4.19-4.48Z"/><path class="cls-3" d="M295.49,142c-2,1.52-2.94,4.41-4.21,6.51-1.36,2.26-2,4.88-3.41,7.1a1.73,1.73,0,0,0,2.48,2.34c2.58-2,4.95-3.37,6.65-6.25,1.44-2.43,3.13-5.4,2.64-8.29a2.57,2.57,0,0,0-4.15-1.41Z"/><path class="cls-3" d="M255.22,120.4a75,75,0,0,1-.2,11.51c-.47,3.72-1.43,7.35-1.47,11.11a1.9,1.9,0,0,0,3.4,1.26c5.56-6,5.72-16.8,3.22-24.2-.81-2.38-5-2.78-5,.32Z"/><path class="cls-3" d="M221.07,123.39c3.29,6.85,5.18,15.72,10,21.6a1.7,1.7,0,0,0,2.88-.47c2.41-8.09-2.29-17.81-6.43-24.63a3.66,3.66,0,0,0-6.43,3.5Z"/><path class="cls-3" d="M189.76,141.23c2.11,2.93,5.62,3.25,8.6,4.88s5.4,4,8.42,5.5c1.52.77,2.9-.93,2.74-2.32-.93-8.09-11.32-12.27-18.45-11.83-1.9.12-2.19,2.55-1.31,3.77Z"/><path class="cls-3" d="M178,182.27c3.09,1,6.35-.79,9.46-1.34a51.07,51.07,0,0,0,9.92-2.32,1.76,1.76,0,0,0-.11-3.22,17.73,17.73,0,0,0-11.11-.35c-3.37.84-7.5,1.66-9.22,4.89a1.82,1.82,0,0,0,1.06,2.34Z"/><path class="cls-3" d="M203.92,226.8c-1.27-6.86,3.64-12.22,5.09-18.5.28-1.18-.51-2.86-2-2.43-5.05,1.43-7.26,6.29-8.36,11.13-.85,3.76-2.38,9.78,1.64,12.18a2.38,2.38,0,0,0,3.64-2.38Z"/><path class="cls-3" d="M249.27,226.28c1.81-2.6.68-5.31-.2-8.05-1.11-3.44-1.72-7.09-3.3-10.37a1.55,1.55,0,0,0-2.63-.27c-2.57,3.38-2.17,7.8-.87,11.61,1.07,3.13,2.38,7,6.14,7.44a.93.93,0,0,0,.86-.36Z"/><path class="cls-3" d="M277.07,183.19c-4.71,1.88-8.79,4.71-13.76,6.1-4.09,1.15-8.69,1-12.53,2.79-1.22.57-1.6,2.6-.3,3.33,8.59,4.86,24.32-1,30.25-8.11,2-2.41-1.34-5-3.66-4.11Z"/><path class="cls-3" d="M237.7,167.94c.92,6.74-.73,12.79-.82,19.46a1.92,1.92,0,0,0,3.45,1.28c5.16-6,6.91-15.73,3.46-23-1.69-3.55-6.56-1.22-6.09,2.26Z"/><path class="cls-4" d="M455.55,143.32c-1.72-.19-3.41.82-5.1,1.17a34.19,34.19,0,0,1-6.46.58.49.49,0,0,0-.1,1,17.08,17.08,0,0,0,6.53.17c1.76-.29,4.32-.71,5.41-2.24a.41.41,0,0,0-.28-.65Z"/><path class="cls-4" d="M455.48,135c-5.44.95-10.88,2.89-16.31,4.1-.54.13-.57,1,.05,1,5.5,0,12-.82,16.76-3.72a.76.76,0,0,0-.5-1.42Z"/><path class="cls-4" d="M452.74,113.72c-1.85-.71-3.9,0-5.78.34a38.87,38.87,0,0,0-7.25,2.12c-.64.27-.26,1.14.35,1.09,2.49-.23,4.95-.7,7.41-1.16,1.86-.36,3.89-.41,5.38-1.64a.45.45,0,0,0-.11-.75Z"/><path class="cls-4" d="M448.47,101.11c-3.82,1.78-7.22,4.73-10.88,6.88s-7.49,4.07-11.27,6c-.61.31-.32,1.4.4,1.19,7.79-2.3,17.5-6.59,22.71-13,.49-.61-.33-1.38-1-1.08Z"/><path class="cls-4" d="M432.14,82.09c-3.24,6.89-6,13.62-11.12,19.41-.45.51.4,1.28.88.81,5.42-5.34,10.37-12.21,11.17-20a.49.49,0,0,0-.93-.22Z"/><path class="cls-4" d="M415.41,68.46C414.82,81.92,409,93,402.86,104.65c-.33.63.52,1.29.92.66,7-11,14.12-23.42,13-36.94-.06-.78-1.34-.68-1.37.09Z"/><path class="cls-4" d="M423.7,72.73a76.36,76.36,0,0,1-4.91,11.2c-.28.52.34,1.28.84.77A18.32,18.32,0,0,0,424.85,73a.6.6,0,0,0-1.15-.25Z"/><path class="cls-4" d="M396.32,62.54a142.89,142.89,0,0,1-2.05,20c-.12.65.85.8,1.09.24a38.07,38.07,0,0,0,2.54-20.34.8.8,0,0,0-1.58.12Z"/><path class="cls-4" d="M375.1,62.81a57.54,57.54,0,0,1,.79,31.31.53.53,0,0,0,1,.37,41,41,0,0,0-.62-32.07c-.27-.63-1.37-.29-1.16.39Z"/><path class="cls-4" d="M384.91,61.74c.52,6.29.78,12.74,1.87,19a.6.6,0,0,0,1.19-.06c.69-6.33-.28-13-1.72-19.18a.68.68,0,0,0-1.34.27Z"/><path class="cls-4" d="M357.29,68.15c2.89,3.83,5,7.13,6.1,11.88a117.8,117.8,0,0,1,2.13,14,.5.5,0,0,0,1,0c.41-8-.19-22.49-8.67-26.58-.46-.22-.81.4-.54.75Z"/><path class="cls-4" d="M339,83c2.76,2,5.82,3.49,8.67,5.33s5.47,4,8.35,5.7c.64.39,1.43-.4.9-1a38.54,38.54,0,0,0-17.43-11c-.55-.15-1,.55-.49.92Z"/><path class="cls-4" d="M348.39,73.87c2,3.57,4.39,7.5,7.53,10.23.48.41,1.11-.25.88-.76-1.65-3.76-4.7-7.11-7.48-10.07-.41-.44-1.26,0-.93.6Z"/><path class="cls-4" d="M322.55,107.7c4.77.66,9.55.66,14.26,1.87.51.13.84-.61.31-.79-4.62-1.65-9.67-3-14.59-1.94a.44.44,0,0,0,0,.86Z"/><path class="cls-4" d="M321.42,128c3.68-2.15,6.71-5.27,10.44-7.42a75.37,75.37,0,0,1,11.67-5.15c.71-.26.29-1.33-.4-1.22-7.77,1.28-18.22,5.9-22.43,12.94-.26.45.18,1.16.72.85Z"/><path class="cls-4" d="M325.51,137.31c2.86-3.7,6.15-6.87,9.26-10.34.39-.43-.24-1.15-.73-.86-4.05,2.41-7.39,6.35-9.89,10.3a.82.82,0,0,0,1.36.9Z"/><path class="cls-4" d="M337.32,153.68c5.56-7,11-13,18.31-18.25.4-.28,0-.93-.44-.72-7.77,3.81-15.05,10.58-18.41,18.66a.32.32,0,0,0,.54.31Z"/><path class="cls-4" d="M346.58,160c1.35-2,2-4.42,3.12-6.57a62.34,62.34,0,0,1,4-6.13.48.48,0,0,0-.69-.65c-3.76,2.66-7.65,8.47-6.78,13.27a.18.18,0,0,0,.31.08Z"/><path class="cls-4" d="M357.57,160c1-2.38.87-5.13,1.56-7.62a39.25,39.25,0,0,1,3.3-8.22c.23-.41-.42-.72-.69-.38-3.13,3.9-6.81,11.16-4.49,16.22a.18.18,0,0,0,.32,0Z"/><path class="cls-4" d="M379.86,162.33c.24-2.93-.6-5.86-1-8.76-.43-3.35-.7-6.72-1.12-10.07-.08-.66-1-.56-1.12.05-.77,5.56-.93,14,2,19a.64.64,0,0,0,1.21-.22Z"/><path class="cls-4" d="M388.64,156.33c-4-2.37-5-6.2-5.53-10.47-.06-.52-.74-.5-.93-.09-2.22,4.59,1.72,9.94,6,11.44.52.18,1-.58.47-.88Z"/><path class="cls-4" d="M395.24,154.7c-3.52-3.9-5.77-8.79-9.09-12.87a.59.59,0,0,0-1,.64,65.86,65.86,0,0,0,4.94,9.17c1.2,1.87,2.49,3.4,4.78,3.71a.4.4,0,0,0,.35-.65Z"/><path class="cls-4" d="M406.61,126.23a31,31,0,0,1-7.91,6.22c-.48.29-.31,1.18.33,1a17.41,17.41,0,0,0,8.86-5.86c.78-.91-.49-2.3-1.28-1.38Z"/><path class="cls-4" d="M401.65,119.88c-1.63.49-2.75,2.37-4,3.46a42.55,42.55,0,0,1-5.35,3.57.63.63,0,0,0,.39,1.17,13.77,13.77,0,0,0,5.95-2.88c1.34-1.06,3.67-2.89,3.61-4.79,0-.28-.23-.64-.58-.53Z"/><path class="cls-4" d="M392.8,114.1c-2.18,3.1-4.15,6.52-6,9.82a.59.59,0,0,0,.86.78,15.17,15.17,0,0,0,5.85-10.33.38.38,0,0,0-.68-.27Z"/><path class="cls-4" d="M372.58,110c-1,1.82-1.07,4.09-1.61,6.1a78.4,78.4,0,0,1-2.6,7.61c-.27.68.64,1.06,1.07.56,2.77-3.26,5.94-9.93,3.88-14.2a.43.43,0,0,0-.74-.07Z"/><path class="cls-4" d="M445.29,164.52a49.28,49.28,0,0,0-7.19,0c-2.37,0-4.73-.12-7.11-.15-.55,0-.83.83-.23,1,4.38,1.29,10.23,2.25,14.67.87a.86.86,0,0,0-.14-1.69Z"/><path class="cls-4" d="M437.34,171.55c-1.59-.22-3.21.07-4.81,0a36.92,36.92,0,0,1-5.23-.81c-.59-.12-.77.71-.37,1,2.65,2.13,7.72,3.35,10.73,1.35a.83.83,0,0,0-.32-1.55Z"/><path class="cls-4" d="M263.63,125.53A26.73,26.73,0,0,1,265,135c-.21,3-1,5.89-1.21,8.87a.56.56,0,0,0,1.07.24c2.57-5.53,3.55-13.89-.37-19-.27-.35-1-.08-.83.38Z"/><path class="cls-4" d="M275.69,129.56a77.35,77.35,0,0,1-6.36,18.8c-.28.62.62,1,1,.53a31.9,31.9,0,0,0,6.7-19.23.68.68,0,0,0-1.35-.1Z"/><path class="cls-4" d="M284,133.23a53.35,53.35,0,0,1-7,22.92c-.36.63.39,1.45,1,.9A25.41,25.41,0,0,0,285,133.18a.52.52,0,0,0-1,0Z"/><path class="cls-4" d="M302.17,149.31c-2.11,2.5-3.44,5.61-5.11,8.4s-3.53,5.48-5.25,8.24c-.33.54.35,1.27.86.78,4.47-4.28,9.45-10.85,10.23-17.13a.41.41,0,0,0-.73-.29Z"/><path class="cls-4" d="M306.89,156.47a233.26,233.26,0,0,1-16.27,19.1.58.58,0,0,0,.75.89,50.52,50.52,0,0,0,16.89-19.09.82.82,0,0,0-1.37-.9Z"/><path class="cls-4" d="M310.37,166A128.52,128.52,0,0,0,300,176.77c-.26.29.19.73.48.47a130.89,130.89,0,0,0,10.69-10.51c.43-.49-.37-1.2-.84-.77Z"/><path class="cls-4" d="M319.54,183.71c-4.41,2.54-8.62,5.42-13.11,7.83a.38.38,0,0,0,.3.69A39.4,39.4,0,0,0,320,184.39c.3-.29,0-.92-.42-.68Z"/><path class="cls-4" d="M318.4,190a67.67,67.67,0,0,1-11,6.88c-.49.23-.26,1.06.29.92,4.61-1.12,8.76-3.15,11.8-6.83.58-.7-.47-1.42-1.1-1Z"/><path class="cls-4" d="M249.24,119.74c1.5,9.31.48,17-1.77,26-.12.51.58,1,.9.48,4.47-7.8,4.87-18.3,2.13-26.75a.64.64,0,0,0-1.26.25Z"/><path class="cls-4" d="M241.31,119.77c.22,2.69,1,5.31,1.35,8s.21,5.3.52,7.93a.53.53,0,0,0,1,.1c1.56-4.89.74-12.09-2.27-16.3-.21-.29-.63,0-.6.27Z"/><path class="cls-4" d="M233.78,119.73c.86,3.6,2.38,7,3.16,10.63a76.85,76.85,0,0,1,1.25,14.21.53.53,0,0,0,1.06.09c1.69-8,.38-18.68-4.86-25.2-.2-.26-.7-.08-.61.27Z"/><path class="cls-4" d="M213.5,124c4.7,6.13,8,11.63,9.42,19.36.1.55,1,.56,1,0-.24-7.36-3.62-15.63-9.79-20a.48.48,0,0,0-.65.7Z"/><path class="cls-4" d="M206.81,129.57c5.88,3.16,8.86,8.33,10.81,14.48.18.56,1.08.64,1.12-.06.4-7-5.21-13.21-11.63-15.18a.41.41,0,0,0-.3.76Z"/><path class="cls-4" d="M184.75,150.09c6.67,3.16,14.6,4.13,20.94,7.87a.51.51,0,0,0,.59-.82c-2.6-2.35-6-3.16-9.25-4.24a106.69,106.69,0,0,0-12.09-3.58c-.47-.1-.57.58-.19.77Z"/><path class="cls-4" d="M178.66,169.83c10.85-7.59,22.49-5.85,34.88-4.28.53.07.76-.79.22-.94-11.56-3.1-26.91-5.56-35.95,4.44-.47.52.35,1.13.85.78Z"/><path class="cls-4" d="M176.69,175.59c3.06-1.81,5.68-3.92,9.16-5a32.39,32.39,0,0,1,10.38-.94c.52,0,.78-.77.22-.94-6.62-2.05-16.25.16-20.34,6.14-.24.36.15,1,.58.7Z"/><path class="cls-4" d="M180.53,198.75c5.07-9.26,15.07-12.35,23.87-16.89.45-.23.26-1-.28-.89a47.65,47.65,0,0,0-16.19,7.29c-3.13,2.22-8.32,6.11-8.07,10.41,0,.38.52.34.67.08Z"/><path class="cls-4" d="M188.3,208.73c4.51-12.14,15.79-17.32,26.1-23.62a.41.41,0,0,0-.33-.74c-11.46,4.37-23.33,11.57-26.48,24.19-.1.4.56.55.71.17Z"/><path class="cls-4" d="M191.82,217.39a5.46,5.46,0,0,0,1.54-2.56,27.35,27.35,0,0,1,2.72-5.09,37.35,37.35,0,0,1,7.16-7.43.48.48,0,0,0-.5-.8,20.51,20.51,0,0,0-8,6.84c-1.53,2.18-4.27,6.19-3.31,8.94a.23.23,0,0,0,.36.1Z"/><path class="cls-4" d="M182,205.08a112.41,112.41,0,0,0,10-11.54c.39-.49-.3-1-.76-.7-4.11,2.88-8,7.17-9.65,11.93-.09.23.2.51.41.31Z"/><path class="cls-4" d="M217.1,230.13c-1.34-10.88,2.7-21.67,6.57-31.6a.74.74,0,0,0-1.31-.65,44.47,44.47,0,0,0-7.08,17.82c-.8,4.33-2.45,11.2,0,15.13a1,1,0,0,0,1.82-.7Z"/><path class="cls-4" d="M225.57,228.32c.81-5.9,1.55-11.79,2.68-17.64.13-.68-.86-.8-1.11-.25a31.51,31.51,0,0,0-2.66,17.94.55.55,0,0,0,1.09-.05Z"/><path class="cls-4" d="M238.29,227.34c-.17-2.12-.68-4.18-.73-6.31a27.59,27.59,0,0,1,1-7.17c.12-.47-.54-1-.84-.45-2.34,4.07-3,10.22,0,14.16a.31.31,0,0,0,.54-.23Z"/><path class="cls-4" d="M211,227.87c-.32-.15.42-5,.46-5.55a57.09,57.09,0,0,0,.06-6.67c0-.59-1-1-1.15-.25-.81,3.68-1.77,7.89-1.54,11.66.07,1.15,1.36,2.95,2.31,1.33a.35.35,0,0,0-.14-.52Z"/><path class="cls-4" d="M261.63,216.71c-3.34-.07-6.56-5.05-8.19-7.53s-3-5.48-4.55-8.2a.64.64,0,0,0-1.2.39c.55,5,3.33,9.51,6.58,13.19,1.64,1.86,5.38,6.15,7.74,3a.53.53,0,0,0-.38-.84Z"/><path class="cls-4" d="M268,208a30.57,30.57,0,0,1-5.61-1.09c-1.47-.43-2.88-1.09-4.39-1.39-.46-.09-.57.52-.3.77,2.57,2.38,6.84,3,10.2,3.13A.71.71,0,0,0,268,208Z"/><path class="cls-4" d="M272.46,197.37a29,29,0,0,0-6.53,3.84c-.4.32-.09,1.1.45.95a28.62,28.62,0,0,0,6.94-3.16.92.92,0,0,0-.86-1.63Z"/><path class="cls-4" d="M269.71,173.62c-1.66,1.13-2.37,3.17-3.52,4.76a46.58,46.58,0,0,1-5.36,6c-.52.51,0,1.46.72,1.1a17.34,17.34,0,0,0,6.12-5.1c1.36-1.8,3.19-4.15,2.71-6.54a.42.42,0,0,0-.67-.26Z"/><path class="cls-4" d="M259.12,169.75c-1.25,2.55-2.71,5-3.77,7.65-.23.59.58,1.19,1,.72a20.7,20.7,0,0,0,4.42-7.57c.37-1-1.21-1.76-1.69-.8Z"/><path class="cls-4" d="M249.85,166.56c.5,8.47-1.61,15.54-6,22.72-.29.47.3,1.14.76.7a24.86,24.86,0,0,0,6.62-23.5c-.17-.7-1.39-.71-1.35.08Z"/><path class="cls-4" d="M228.7,168.7c1.2,6.68.92,12.36-1.73,18.66-.29.68.68,1.11,1.1.57,4.23-5.42,5.25-13.52,1.8-19.61a.62.62,0,0,0-1.17.38Z"/></g><g id="Capa_55" data-name="Capa 55"><path class="cls-3" d="M325.34,196.82c3.55-16.85-3.37-32.91-14.2-45.63s-25.36-24.74-40.92-31.34c-29.37-12.45-64.48-6.46-84.64,19.27a61.29,61.29,0,0,0-12.72,44.19c1.51,16.24,7,32.95,19.94,43.68,13.9,11.53,30.44,10.29,47.19,7,15.75-3.09,29.8-10.63,37.8-25.07s9.83-35.76-8.43-42.63c-15-5.64-39.74-10.65-48.73,7-1.37,2.67,1.5,5.58,4.05,3.55,11.73-9.28,27.69-6.43,40.79-2.18,6.81,2.2,9.69,6.5,9.66,13.63a36.36,36.36,0,0,1-5.95,18.91c-7.48,11.86-19.67,16.73-32.94,19.14-14.36,2.61-28.46,3.55-39.75-7.17-10.57-10-15-25.36-15.7-39.56a52.36,52.36,0,0,1,10.78-35.19c16.2-20.92,44-26.72,68.57-18.94,15.1,4.79,27.9,14.86,39,25.9,11.36,11.29,20.83,26.44,18.26,43.14-.78,5.1,6.81,7.6,7.93,2.3Z"/><path class="cls-3" d="M269.42,205.76c-.65,2.79,1.12,4.65,2.51,6.94a62.57,62.57,0,0,1,5.24,11.84,83.36,83.36,0,0,1,3.32,10.33c.89,4.11.89,8.1,3.24,11.71.84,1.28,2.7.85,3.51-.13,5.69-6.94,2.29-17.4-1.18-24.6-1.76-3.66-4.38-7-6.73-10.28-2.22-3.11-4.44-7.25-8.64-7.14-.71,0-1.13.74-1.27,1.33Z"/><path class="cls-3" d="M435.42,182.44c12.89-9,23.14-23,25.43-38.78,2.43-16.7-1.55-34.42-9.59-49.13-15.92-29.13-50.88-46.19-83.33-36.46-29.95,9-54.72,37.81-51.08,70.35,1.7,15.21,10.56,29.43,24.66,36.06,15.79,7.42,36,2.35,51.71-2.91,7.37-2.46,15.47-5.72,19.42-12.9,4.18-7.61,2.55-17.53-1.27-25a32.79,32.79,0,0,0-19.28-16.09c-8.7-2.7-20.17-1.71-26.5,5.28-1.62,1.8-.52,5,2.2,4.44,6.84-1.3,13.37-3.07,20.32-1.29a25.61,25.61,0,0,1,15.71,12c3.8,6.47,5,15.09-1.54,20.19-5.5,4.33-13.37,6-20,7.72-13.08,3.35-28,6.88-40.22-.7-11.83-7.33-17.54-21-17.19-34.56.67-25.93,21-48.77,45.77-55,26.24-6.65,54.52,5.83,69.33,28,8.73,13.07,13.49,29.24,12.39,45-1.07,15.48-9.07,28.55-20.7,38.45-2.78,2.36.65,7.47,3.75,5.31Z"/><path class="cls-3" d="M389.71,157.19l3.65-2.63c-1.67-.2-3.11,1.19-3.65,2.63-1.6,4.27-2.79,8.67-4.56,12.9-1.43,3.39-3.69,6.83-2.61,10.6a1.92,1.92,0,0,0,2.21,1.54c4.49-1.15,6.21-5.46,7.93-9.39A53.12,53.12,0,0,0,397,158.37c.55-4.36-5.87-4.89-7.26-1.18Z"/></g></g></g></g><g id="PixelsASSETS"><g id="Cuerno"><rect class="cls-5" width="464" height="265"/></g></g></g></g></svg>