<svg xmlns="http://www.w3.org/2000/svg" viewBox="0 0 464 265"><defs><style>.cls-1{isolation:isolate;}.cls-2{fill:#a67c52;}.cls-3{fill:#42210b;}.cls-4{fill:#c9210b;}.cls-5{fill:none;mix-blend-mode:multiply;opacity:0.4;}</style></defs><g class="cls-1"><g id="Layer_2" data-name="Layer 2"><g id="Variación_B" data-name="Variación B"><g id="AssetsE2"><g id="HornE2"><path class="cls-2" d="M327.91,191.38l-.14,0,.46-.34a.62.62,0,0,0-.39-1.08,14.46,14.46,0,0,0-2.64.41,19.14,19.14,0,0,0-4.56-5.17,1.6,1.6,0,0,0-.8-2.57,36.17,36.17,0,0,1-6.15-2.9,44,44,0,0,1-7.81-6.84,6.29,6.29,0,0,0-3.14-2c.18-3.35-3.37-6.76-7.08-4.5a76.28,76.28,0,0,0-6.31-15.21,53.72,53.72,0,0,0-.37-8.15c-.54-5.06-2.08-14.29-8-16-1-.29-2.48.1-2.74,1.21-.66,2.8.41,4.86,1.23,7.56.07.23.12.47.19.7-4.11,4.19-1.07,15.27.11,19.75a58.43,58.43,0,0,0,3.55,10.45,5.66,5.66,0,0,0-3,1,5.75,5.75,0,0,0-4.52-.48,9,9,0,0,0-1.63.74,11.86,11.86,0,0,0-3.38-1.4,8.33,8.33,0,0,0-6.54.95,5.66,5.66,0,0,0-2.95.37,6.05,6.05,0,0,0-5.2-.84,5.36,5.36,0,0,0-1.78-.66,73.92,73.92,0,0,0-1.43-12.58,4,4,0,0,0-1.25-2.26c-.37-2.69-.81-5.39-1.32-8.07a4,4,0,0,0-1.18-2.26A57.56,57.56,0,0,0,244.59,131a3.4,3.4,0,0,0-.75-.92,89.73,89.73,0,0,0-6.75-10.73,3.94,3.94,0,0,0-2.65-1.56c-1.46-1.88-2.89-3.73-4.21-5.55a2.3,2.3,0,0,0-2.2-1l-.94-1.14c-2-2.32-6.2.34-4.61,3,3.78,6.28,7.85,12.37,11.56,18.7a61,61,0,0,0,3.75,6.74,15.77,15.77,0,0,0,2.47,4.26c.11.44.22.88.32,1.32a4.26,4.26,0,0,0-.12.82,39.84,39.84,0,0,0,1.34,11.59c0,.15.11.28.16.43,0,.42.06.84.08,1.26a29.39,29.39,0,0,0-.24,4.18,4.31,4.31,0,0,0-2.82,2.67c-.18.43-.33.85-.48,1.27h0a.68.68,0,0,1,0,.14,16.89,16.89,0,0,0-.27,10.91,4.7,4.7,0,0,0,4.9,3.53,6.59,6.59,0,0,0,5,2.91,103.22,103.22,0,0,0,20.5-.46c1.59,3.21,6.13,4.75,8.91,2.16a4.87,4.87,0,0,0,1.46,4.56,4.7,4.7,0,0,0,.8,2.18,10,10,0,0,0,.31,1.35,5.17,5.17,0,0,0,2.29,2.81l0,.09c-1.06,3.36,1.71,6.12,4.85,6.74a5.4,5.4,0,0,0,.77,2.65c0,.05-.05.09-.07.14-2.37,4.82,1.94,8.44,6.1,7.92,0,.59,0,1.18,0,1.77a1.35,1.35,0,0,0,1.36,1.23,18.61,18.61,0,0,0-.95,3c-.11.51.62.63.89.32l.09-.1a.59.59,0,0,0,.57.1c1-.39,1.5-2.18,1.91-3,.06-.12.11-.24.16-.36l.49-.64.08-.11a52.32,52.32,0,0,1,6.26-7.5c1.79-1.64,3.71-3.14,5.55-4.73.5-.37,1-.75,1.49-1.1,5.3-3.69,11.5-6.47,16.52-10.45A.56.56,0,0,0,327.91,191.38Z"/><path class="cls-2" d="M447.71,104.45c-.07-.35-.13-.7-.19-1.06,1.06-1.74,1.92-3.77.62-5.09a2.27,2.27,0,0,0-3.36.08c-1.11,1.08-1.11,2.67-.88,4.35a2.29,2.29,0,0,0-.09.31,9.41,9.41,0,0,0-2.12,2.66,1.79,1.79,0,0,0-.31.25q-3.3,3.48-6.34,7.14l-.15-.08a1.63,1.63,0,0,0-2.52.33c-1.23,2.08-2.38,4.19-3.48,6.32-1.71,2.67-3.37,5.36-4.93,8.1a1.94,1.94,0,0,0-2.46,1.2l-.09.43a1.59,1.59,0,0,0-1.81,1.2,1.73,1.73,0,0,0-1.73.21,1.64,1.64,0,0,0-.91.36c-.62-2.2-3.58-5.51-6.9-8.19a70.73,70.73,0,0,1-6.62-7.66,1.68,1.68,0,0,0-3,.59c-.77-.91-1.53-1.82-2.29-2.74.11-.29.2-.57.28-.85a30.1,30.1,0,0,0,7.49-7.23,1.56,1.56,0,0,0,.29-1.27,47.1,47.1,0,0,0,3.36-3.7c.07-.1.16-.2.24-.3a1.35,1.35,0,0,0,1.38-.87c.64-1.35,1.26-2.69,1.88-4,.4-.76.76-1.54,1.13-2.31a1.58,1.58,0,0,0,.84-1c.12-.46.25-.92.37-1.38A1.62,1.62,0,0,0,416.59,89c1.17-4,2.2-8.07,3.13-12.14a66.27,66.27,0,0,0,1.55-7.43,1.51,1.51,0,0,0-1-1.69c0-.22.09-.43.13-.65a1.51,1.51,0,0,0-.12-1,68.83,68.83,0,0,0,.39-7.19c.23-.78.45-1.56.67-2.34a1.24,1.24,0,0,0-.07-.83c.14-.47.28-.95.45-1.44.38-1.11-.94-1.92-1.95-1.72A1.62,1.62,0,0,0,417.38,54l-.12,3.49a34.46,34.46,0,0,0-3.91,11.37c-2.21,5.1-4.11,10.26-7,15.12-2.56,4.34-5.91,8.26-7.82,12.89a1.39,1.39,0,0,0-1.27,0l-.39.19h0a93.31,93.31,0,0,0-12.05,7.13,1.52,1.52,0,0,0-.73,1.1,1.11,1.11,0,0,0-.64.88l-.23,1.81v0l-.06.42a1.35,1.35,0,0,0-2.62.38c0,.46,0,.92,0,1.37a1.27,1.27,0,0,0,0,.7,9.12,9.12,0,0,0,.32,5,1.39,1.39,0,0,0,2.1.58,16.69,16.69,0,0,0,2,3.43,1.55,1.55,0,0,0,.24.69c3.94,6.17,8.49,11.75,14.49,16.08a20.37,20.37,0,0,0,1.67,1.68,99.18,99.18,0,0,0-4.44,18.35q-.54,2.76-.89,5.58c-.08.17-.16.33-.25.5l-2,.54c-1.77.48-1.45,2.92-.1,3.62l-1.24,2.45-.2.06a1.8,1.8,0,0,0-1.06,2.45l-1.95,3.87c-1.13,2.24,2.39,3.52,3.63,1.49.17-.28.33-.56.49-.84a1.52,1.52,0,0,0,.49.09.42.42,0,0,0,.2.76c6,1,12.73-.06,18.9.33,6,.37,13.19,2,19.06.63a.47.47,0,0,0,.35-.36c2.07-.2,2.51-3.33.23-3.5l-.29,0c0-3.31.44-6.72-.85-9.74,0-1.79-.1-3.58-.25-5.38a3,3,0,0,0-.09-.45,7,7,0,0,0-.19-.91c.31-6.58-1.25-13.55-2.16-19.93a1.5,1.5,0,0,0-.5-.91l.23-.34a1.55,1.55,0,0,0,.85-.52c3.29-3.74,5.43-8.33,7.86-12.6l6.06-10.66a9.94,9.94,0,0,0,1-.79,15.93,15.93,0,0,0,2.75-2.47,1.54,1.54,0,0,0,.44-.57,5.9,5.9,0,0,0,1.16-3.36A1.34,1.34,0,0,0,447.71,104.45Z"/><path class="cls-3" d="M285.72,188.2c-1.51-2.48-3-6-5.74-7.42-.43-.22-1.07.26-.65.67,5.42,5.26,8.26,13.15,12.55,19.26.18.26.59,0,.47-.27A88.86,88.86,0,0,0,285.72,188.2Z"/><path class="cls-3" d="M301.17,194.72c-2.79.45-1.69,3.72.47,4.13a.44.44,0,0,0,.31-.8c-.81-.63-1.16-1-1.1-1.23a.59.59,0,0,1,0-.49c.6-1.44,2.58-.68,3.42.09a4.17,4.17,0,0,1,.85,1.14,2.77,2.77,0,0,1,.39,1c.66,1.85.24,3.73-2.53,3.84-2.31.1-4.27-2-5.43-3.59-2.06-2.91-3.09-6.27-4.84-9.32-.2-.35-.84-.22-.75.22.87,4,3.44,9.48,6.79,12.15,2.07,1.64,6.8,2.89,7.73-.62C307.23,198.35,304.51,194.18,301.17,194.72Z"/><path class="cls-3" d="M312.78,187.66c-6-3.18-12.32-4.32-16.89-9.81s-6.21-13.76-8.93-20.37c-.18-.42-1-.2-.82.25,2.18,6.84,4.11,15.2,8.8,20.92,3.9,4.76,11.31,9.08,17.69,9.59A.3.3,0,0,0,312.78,187.66Z"/><path class="cls-3" d="M258,178.51a30.48,30.48,0,0,0-4.33-.88,11.59,11.59,0,0,1-3-.35l-.06-.06c-.95.2-2.33-1-2.82-1.49a4.08,4.08,0,0,1-1.08-2.86l0-.05c0-.53,0-1,.09-1.58.28-3.56,1.15-7.26.79-10.81a.23.23,0,0,0-.44-.05c-.89,2.86-.91,6-1.19,9-.17,1.86-.47,3.78.27,5.58,1.71,4.14,7.82,4,11.72,3.95A.2.2,0,0,0,258,178.51Z"/><path class="cls-3" d="M237,125.83a.39.39,0,0,0-.62.48,76.84,76.84,0,0,1,10.72,19.78c.07.18.39.1.34-.08A46.48,46.48,0,0,0,237,125.83Z"/><path class="cls-3" d="M402.44,131.76a.31.31,0,0,0-.53.3c3,6.56,4.43,12.72,3.22,19.88-1.15,6.8-4.4,13-6.91,19.4-.12.3.34.57.53.28C406.09,160.92,411.39,143.09,402.44,131.76Z"/><path class="cls-3" d="M423.05,162.1c-.27-4.06-.43-8.57-2.07-12.35-.15-.34-.61-.15-.6.17.14,4.94,1.78,9.63,1.52,14.66a19.62,19.62,0,0,1-.66,4.57l-1.1,2.6-.09,0a1.58,1.58,0,0,1-1.24,1.3,3.05,3.05,0,0,1-3.13,0,3.66,3.66,0,0,1-2.05-1.54,2.61,2.61,0,0,1-.55-1.65l0-.08a.39.39,0,0,1,.06-.26l-.14,0,.12-3.45a5,5,0,0,1,.35-1.56,1.43,1.43,0,0,1,1.4-1.37,1.66,1.66,0,0,1,1.46,1.15,5.54,5.54,0,0,1,.35,2.38A5.82,5.82,0,0,1,416,169c-.16.35.34.56.58.3,1.58-1.69,2.29-8.14-1.62-7.89-4.17.26-4,8-2.58,10.26,2.38,3.81,7.28,4.11,9.41.05C423.33,168.82,423.26,165.27,423.05,162.1Z"/><path class="cls-3" d="M426.74,133.09c1.76-4.49,5.08-8.36,6.44-13a.17.17,0,0,0-.29-.16,46,46,0,0,0-8.16,14.86c-1.35,4.8.84,10.63,1.95,15.32a.32.32,0,0,0,.63-.1C426.68,144.57,424.66,138.34,426.74,133.09Z"/><path class="cls-3" d="M397.15,118.86c-.32-.22-.75.19-.49.49,3.72,4.18,8.32,7.62,11.92,11.92,4.13,4.91,5,12.07,5.7,18.15a.31.31,0,0,0,.61,0C416.15,136.54,407.51,126.05,397.15,118.86Z"/><path class="cls-3" d="M416,74.26c-1.72,10.76-7.35,18.65-15,26.39-3.2,3.23-6.9,5.67-10.22,8.69-1.87,1.7-3.25,3.77-2.49,6.22.05.18.29.1.32,0,1.3-4.84,5.91-8.46,9.84-11.61a51.12,51.12,0,0,0,8.64-8.63c4.88-6.19,8.65-13.16,9.43-21A.25.25,0,0,0,416,74.26Z"/><path class="cls-3" d="M298.45,223.78a104.46,104.46,0,0,0-8.15-18.91c-3.26-5.84-6.56-12.39-11-17.47-4-4.62-9.52-4.65-15.21-5.26q-5.72-.62-11.43-1.26c-3.19-.37-9.21,0-11.55-2.21-4.84-4.46,1-16.16,1.9-21.56,1.08-6.18-.4-11.85-3.12-17.41-3.14-6.4-6.87-12.5-10-18.93-3.4-7-6.36-14.13-9.24-21.35-1.76-4.43-9.08-2.67-7.31,1.85,5.35,13.59,10.9,26.72,17.9,39.55,1.64,3,3.33,6.17,3.85,9.61.59,3.85-.65,7.47-1.69,11.12-1.77,6.26-3.24,13.75-.79,20.06s8.48,6.18,14.25,6.85c7.41.87,15.55,1,22.78,2.78,3.66.92,5.41,4.69,7.44,7.66s4,6,5.91,9q5.61,9,11.52,17.73c1.22,1.8,4.56.2,3.89-1.88Z"/><path class="cls-3" d="M215.06,99.54c8.77,9.81,19.11,18,26.69,28.92,7.81,11.22,12.25,24.35,10.32,38.06-.36,2.58,2.41,3.81,4.45,3.59a131.19,131.19,0,0,1,25.83-.67c5.06.44,5.27-8,.1-8a207.83,207.83,0,0,0-27.65,1.66l4.44,3.58c3.09-28.44-19.28-55.2-41.78-69.76-1.63-1-3.81,1-2.4,2.58Z"/><path class="cls-3" d="M271.23,121.71A32,32,0,0,0,281.32,129c2.05,1,4.14,1.16,4.41,3.86.17,1.65-.8,3.72-.9,5.42-.45,7.59,4.58,13.83,6.42,20.87.83,3.18.59,6,3.27,8.3,3,2.53,6.71,4.43,9.89,6.73a249.87,249.87,0,0,1,23.23,18.69c3,2.77,7.74-1.55,4.7-4.33a202.39,202.39,0,0,0-21.62-17.45c-3.39-2.33-7.49-4.16-10.68-6.74-2.41-1.94-2.64-3.47-3.42-6.35a44.72,44.72,0,0,0-1.79-5c-1.63-4-4-7.85-4.54-12.17-.43-3.22,1.11-6.41.5-9.56-.54-2.76-2.19-4.16-4.6-5.36-4.32-2.17-8.39-4.28-12.52-6.84-1.67-1-3.87,1-2.44,2.63Z"/><path class="cls-3" d="M270.27,122.06c1.83,3.78,3.84,7.69,4.47,11.88.57,3.87-.51,7.66.06,11.56A98.87,98.87,0,0,0,280.91,168c1.19,2.94,6,1.19,5.23-1.87-2.27-8.63-5.95-17.42-5.67-26.44.24-8-2.22-13.35-6.65-20-1.37-2-4.59.18-3.55,2.31Z"/><path class="cls-3" d="M388.53,182.32a102.37,102.37,0,0,0,8.72-20.65c1.88-6.15,5-13.64,4.65-20.15-.35-6.09-6.33-11.07-10-15.44q-3.6-4.29-7.16-8.6c-1-1.22-3.09-2.87-3.57-4.31-.73-2.16-.34-2.38,1.39-4.36,4.55-5.18,10.9-7.31,16.39-11.18,4.77-3.36,7.79-8,9.9-13.34,2.48-6.3,4.16-12.9,6.57-19.23,3-7.86,6.37-15.48,9.94-23.1,2-4.34-4.35-8.32-6.43-3.93a345.87,345.87,0,0,0-16.66,40.42c-2.45,7.45-6.08,11.62-12.9,15.36-5.45,3-10.43,6.2-14.26,11.2s-3.64,9.16.18,13.94c4.66,5.84,9.51,11.53,14.23,17.31,2.85,3.49,4.2,5,3.31,9.54-.71,3.67-1.54,7.32-2.44,10.95-2,8.06-4.21,16-5.92,24.13-.46,2.15,3,3.3,4.06,1.44Z"/><path class="cls-3" d="M421.36,38c-1.05,14,.38,28.06-3.25,41.85-3.08,11.73-9.41,22.68-19.34,29.9-2.26,1.64-2.49,4.46-.17,6.2a121.92,121.92,0,0,1,18.88,16.86c3.38,3.86,9.47-2.07,5.7-5.56-6.7-6.19-13.29-12.16-20.79-17.4l.58,5.66C425.52,98,430.09,64.33,424.89,37.89a1.79,1.79,0,0,0-3.53.15Z"/><path class="cls-3" d="M444.81,91.48a29.61,29.61,0,0,0,1.78,12c1,2.88,1.25,5-1.53,6.81a31.82,31.82,0,0,0-2.8,1.95c-5.3,4.47-6.87,11.47-10,17.37-1.42,2.71-4.35,5.15-4.83,8.23-.55,3.49,1.24,7.89,1.79,11.33a223.59,223.59,0,0,1,2.93,30.65c.09,4.1,6.5,4.38,6.39.27A188.25,188.25,0,0,0,436,152.55c-.78-4.38-4.1-11.55-1.94-15.57,1.54-2.86,3.39-5.39,4.7-8.43,1.44-3.33,2.61-6.89,4.78-9.83s5.53-4.16,7.72-6.9c1.68-2.09,1.81-4.18,1.08-6.69-1.35-4.66-2.93-9-4-13.8a1.82,1.82,0,0,0-3.58.15Z"/><path class="cls-3" d="M443.87,91c-1.5,3.95-3,8-5.6,11.41-2.11,2.72-5.14,4.32-7.41,6.88a88.38,88.38,0,0,0-13.44,21.44c-1.32,2.92,3.33,5.08,5,2.44,4.84-7.68,8.72-16.48,15.58-22.6,5.79-5.16,8.16-10.56,9.89-18.1.6-2.62-3-4.12-4-1.47Z"/><path class="cls-3" d="M309.35,172.32c1.13-1.24,1.15-2.88,1.78-4.4.88-2.15,2.47-3.94,3.42-6,2.22-4.92,2-10,.94-15.21-1.44-6.76-5.27-14.89-2.07-21.52,1.84-3.8,7.07-9.43,5.1-13.73a1.35,1.35,0,0,0-1.42-.77c-3.27.55-3.86,3.1-5.32,5.88a84.18,84.18,0,0,0-4,7.87c-2.62,6.68.45,14,1.58,20.65.56,3.37,1.88,6.6,2.42,10,.5,3.12-2.67,5.84-4.19,8.44s-3.49,7.76.34,9.28a1.23,1.23,0,0,0,1.41-.39Z"/><path class="cls-3" d="M239.24,148.22l.08-.84a2.39,2.39,0,0,0-1-2.15c-4.55-2.95-10.54-2.52-15.77-2.6-6.58-.11-12.91,0-19.35-1.63s-11.47-6-16.21-10.41c-4.44-4.15-9-9.33-14.93-11.2a1.1,1.1,0,0,0-1.4,1.44c2.87,7,10.39,12.54,16.1,17.32a37.37,37.37,0,0,0,17,8.17c7.12,1.43,14.6,1.29,21.82,1.7,1.95.11,3.91.22,5.85.48,1.68.23,3.65,1.17,5.33,1.11.81,0,2.37-.36,2.48-1.39Z"/><path class="cls-3" d="M196.49,142.9c-6.18.4-9.43,4.62-8.8,10.72.61,5.85,5.63,10.65,11.69,10a9.62,9.62,0,0,0,8.33-11c-.64-4.84-7.1-11.54-12.29-10a1.87,1.87,0,0,0-.74,3.31c2.16,1.91,5.18,1.89,7.35,3.76,3.77,3.26,1.14,8.34-3.41,8.52-3.82.15-5.87-3.47-5.85-6.87s2.25-4.56,4.68-6.33c1.08-.78.17-2.26-1-2.18Z"/><path class="cls-3" d="M317.36,124.66c.66-2.86-3.14-3.66-5.1-3-3.31,1.19-5,4.53-5,7.91,0,7.3,5.82,13.69,13.33,11.19,6.45-2.14,10-9.85,6-15.77-2.91-4.28-14.45-8.27-15.18-.31a2.11,2.11,0,0,0,2.46,2.22c.46,0,1.34.3,1.85.31s1.11-.07,1.69,0c1.23.15,2.86.57,3.58,1.66,1.53,2.31-.66,4.76-2.81,5.44-3.16,1-4.6-2.74-4.53-5.39s3.2-2.06,3.72-4.31Z"/><path class="cls-3" d="M400.93,89.6c1.53-7.12-8.09-12.06-11.89-16.92-3.51-4.52-5.21-8.37-4.43-14.11.57-4.21-.34-7.89-.84-12.06-.22-1.81-2.65-2.08-3.64-.79-2.64,3.46-.5,8.6-1.19,12.69-.75,4.46-.46,8.08,1.77,12.09a52.36,52.36,0,0,0,8.58,11.08c3.08,3.14,6,7,9.87,9.08.82.44,1.62-.34,1.77-1.06Z"/><path class="cls-3" d="M380.7,68.09c-2.77-4.67-9.64,1.15-11.13,4.31a8.26,8.26,0,0,0,7.06,11.71c5.7.23,8.68-5,8.66-10,0-4.66-3.9-12.27-9.19-7.77-1.23,1-.34,3.46,1.39,3,6.86-1.75,5.87,12.23-1.31,11.12a4.47,4.47,0,0,1-2.91-7c1.28-1.81,4.66-4.1,7-4.19.61,0,.72-.74.48-1.16Z"/><path class="cls-4" d="M204,149.3a7,7,0,0,0-4.72-3.68,6.15,6.15,0,0,0-2.86.08,5.41,5.41,0,0,0-2.76.4,6.47,6.47,0,0,0-3.65,6.17c.08,4.49,4.47,8,8.8,8a6.45,6.45,0,0,0,5.93-4.85A8.67,8.67,0,0,0,204,149.3Z"/><path class="cls-4" d="M321,124.18a6.74,6.74,0,0,0-6.73.21c-4.34,2.76-4.19,9.91.47,12.26a6.61,6.61,0,0,0,8.68-2.54,5.8,5.8,0,0,0,.73-2.79c0-.06,0-.12,0-.18A6.44,6.44,0,0,0,321,124.18Z"/><path class="cls-4" d="M382.41,71.41a4.81,4.81,0,0,0-7.71-.77l-.21.24a5.93,5.93,0,0,0-.72.69A4.46,4.46,0,0,0,373,73a3.73,3.73,0,0,0-.14.44,5.57,5.57,0,0,0-.08,4.25,5,5,0,0,0,7.1,2.53,5.57,5.57,0,0,0,2.54-3.65A5.21,5.21,0,0,0,382.41,71.41Z"/></g></g></g><g id="PixelsASSETS"><g id="Cuerno"><rect class="cls-5" width="464" height="265"/></g></g></g></g></svg>