<svg xmlns="http://www.w3.org/2000/svg" viewBox="0 0 160 195"><defs><style>.cls-1{isolation:isolate;}.cls-2{fill:#b8bfb8;stroke:#42210b;stroke-linecap:round;stroke-linejoin:round;stroke-width:6px;}.cls-3{fill:none;mix-blend-mode:multiply;opacity:0.4;}</style></defs><g class="cls-1"><g id="Layer_2" data-name="Layer 2"><g id="Variación_A" data-name="Variación A"><g id="AssetsE2"><g id="HamE2"><path class="cls-2" d="M132.38,66.38s-7.95-22-11.62-21.4-11,3.06-12.23,8.56-3.67,15.9,1.84,20.18,6.11,8,11.61,7.33,9.18-4.08,10.4-7.24S132.38,66.38,132.38,66.38Z"/><path class="cls-2" d="M118.11,130.83S124,121.17,113,119s-23.55-14-26.5-5.89-14,19.13-8.09,26.49S90.17,156.5,96.06,156.5s11.58-2.21,15-9.94S118.11,130.83,118.11,130.83Z"/><path class="cls-2" d="M90,68.42s5.43-12.26,0-16.21-12.12-8.46-15.76,0S61,69.74,70.45,72.57,90,68.42,90,68.42Z"/><path class="cls-2" d="M51.88,35.41c-1.11.07-11.35-.72-12.14,4s.79,23.63,3.94,24.42,9.46-4.73,11.82-11,9-3.3,10-8S51.88,35.41,51.88,35.41Z"/><path class="cls-2" d="M19,21.88s-4.82,9.64-4.82,12.67S19,50.73,19,50.73s3.52,10.58,5.1,8.7,5.69-5.75,5.69-5.75L31.11,40.6s3-7.26-1.21-11.5S19,21.88,19,21.88Z"/><path class="cls-2" d="M12.85,70.4S5.61,81.14,6.27,87.75s7.78,22,12.14,25.17a59.26,59.26,0,0,1,8.82,8.69s2.15-4.81,2.15-14,2.95-14.65-2.15-18.22a37.8,37.8,0,0,1-8.82-9.45Z"/><path class="cls-2" d="M38.38,74.78s-2.48-8-5.5-7.26-9.6,3.19-6.69,7.26,9.47,11.85,11.1,11.35S38.38,74.78,38.38,74.78Z"/><path class="cls-2" d="M95.41,70.88s-1.92-6.46-3.36-4.46S82.47,84.7,83.28,86.33s5.07,5.19,7.42,5S101.2,97.73,102,96.1s4.89-5.7,2.44-9.77S95.41,70.88,95.41,70.88Z"/><path class="cls-2" d="M60.17,79.92s-3.43-4.86-5.82-5.73-6.54-4.13-7.26.29S41.33,84,43.85,88.22a16.6,16.6,0,0,1,2.3,8.51s11.41-3.45,15.41-7.44,4.59-7.43,4.59-7.43Z"/><path class="cls-2" d="M82.65,96.82,79.4,86l-9.56,4.6-7.19,8.84s4.75,11.36,7.24,11.24,4.72,0,4.72,0Z"/><path class="cls-2" d="M41.51,107.19l-1.9,26.68s8.55,9.18,10.11,10,3,.17,6.47-1.23,9.42-7,9.42-7-8-4.52-5.91-10,3.9-9.36,3.9-9.36-4.5-2.67-6-4.64a69.61,69.61,0,0,1-4-7.22Z"/><path class="cls-2" d="M110.76,94.3l-2.82,3.42a5.38,5.38,0,0,0,4.27,5.57c4.6,1.07,7.72,5.76,8.5,1.07a27.17,27.17,0,0,0-.78-10.15Z"/><path class="cls-2" d="M142.69,93.06l-12.77,7.43s-.79,5.51-.17,6.74.17,14.15.17,14.15,3.91,5.61,6.18,5.59,8.44-2.48,9.06-8.64,2.24-17,2.35-18.38S142.69,93.06,142.69,93.06Z"/><path class="cls-2" d="M134.6,137.53s-5.75-12.11-10-9.07-10.36,17.44-8.32,18.24,6.27,20.67,11.16,17.24,10.33-1.41,11.11-9.92S134.6,137.53,134.6,137.53Z"/></g></g></g><g id="PixelsASSETS"><g id="Pierna"><rect class="cls-3" width="160" height="195"/></g></g></g></g></svg>