<svg xmlns="http://www.w3.org/2000/svg" viewBox="0 0 130 250"><defs><style>.cls-1{isolation:isolate;}.cls-2{fill:#39b54a;}.cls-3{fill:#8cc63f;}.cls-4{fill:#42210b;}.cls-5{fill:none;mix-blend-mode:multiply;opacity:0.4;}</style></defs><g class="cls-1"><g id="Layer_2" data-name="Layer 2"><g id="Variacion_A" data-name="Variacion A"><g id="AssetsW2"><g id="TailW2"><path class="cls-2" d="M114.18,182.26c2-1.16,7.08-4.07,5.53-6s-1.3-1.39-5.35.93-3,4.57-4.51,5.44-3.71-.36-4.46.78,0,1.42.81,3.1-.45,4.52-1.48,3.69-3.29-2.37-3.54.26-.45,6.3,1.63,9.38,1.6,4.77.59,5.35-3.87-2.76-4.35-1.06.61,5.74,1.39,7.94,3.36,3.56,2.36,5.55-5.66,1.24-5.66,1.24l-.34-11.3-2.22-4.06s3.19.66,3.94-.49,1-.58-.54-2.53-2.09-3.07-1.58-3.36,3.6-3.49,2.64-5.43-3.24-1.34-3.52-3.31,3.26-4,4-6.56,1.23-2.84.46-3.11-1.62-1.2-1.47-2a9.4,9.4,0,0,0-.18-7c-1.58-3.36-3.36-3.05-3.4-5.87s2.74-5.13-.07-5.65-4.07.91-4.37-2.47,3.18-9.65.09-12.14-6.1,2.08-7.94-1.84.39-8.76-1.91-9.57-5.52,2.75-6.85.88.64-7.27-.94-10.63-5.4-3.3-6.64-.46-1.19,5.67.65,9.59,5.21,8.38,3.19,9.55-5.39-.81-5.47,1.9.45,3.83,3,3.79,9.14-2.42,9.2,1.82-7.13,6.43-5.53,8.61,6.17,1,6.7,2.1,1,2.24-1,3.4-4.26,6-2.7,8,9.21,1.82,10.22,1.24,3.3-1.19,2.3.8-2,2.58-.2,3.68,4.57-1.21,5.63,1a7.69,7.69,0,0,1,.32,4.8s-.39,8.76-1.37,12.16-2.67,9.37-2.41,9.93a4.1,4.1,0,0,1,.24,1.27c-.16-.6-.73-1.45-2.55-2.08-3.07-1.08-5.36-.48-4.89-3.59s2.45-7.1.12-9.32-8.94-1.26-11.27-3.48-1.67-10.42-1.45-12.68-1.07-3.66-3.13-5.32S62,171,62,171a9.56,9.56,0,0,1-2.37,3.81c-1.78,1.73-4.31,3.18-3.26,5.43s5.73,2.85,5.85,5-2.48,5.46-2.48,5.46l-5.69-1.44s-1.69,1.55-3.1-1.45-5-6.6-7.06-6.85-2.59-2.78-3.38-4.46-.79-1.68-3.1-2.49-1.59-4.77-1.11-6.48.77-3.19-.55-5-3.59.24-3.89-3.14.6-3.55,0-5.16a23.8,23.8,0,0,0-2.42-4.12l-4.52-3.45a32.62,32.62,0,0,0,.67,5.44,9.59,9.59,0,0,1,1,5c-.23,2.26-3,2.15-2.5,3.07s4.31,5.24,2.83,6-3.72,4.22-2.67,6.46,7.2,4.39,6.45,5.54-4.27,4.59-1.94,6.81,8.19,2.4,9.71,1.53S45.18,191.32,46,193s7.18,3,9.47,2.38,11.92,5.51,14.92,5.43,9.4,1.22,10,3.75.87,3.22,0,5.43-2.14,3.64-1.09,5.88,3.92,7,3.92,7l6.51,9.77s-2.37-5-1.9-8.16a11.68,11.68,0,0,1,1.22-4.25s1.54.54,1.8,1.1-.75,1.14.3,3.38a10.78,10.78,0,0,0,2.54,3.91c1.1,1.11,2-2.55,1.43,1.82s-1.46,5-.57,6.93,1,5.7,1.76,6.7l.79-.82c.41-.68,1.12-1.74,1.59-2.46-.07-1.18,2.68-4.64,4-4.92a52.35,52.35,0,0,1,6.34-7.38c-.24,0-1.64-.1-2-.09-2.55,0-4.1-.82-3.09-1.95s7.84-5.76,10.35-8.62,2.73-5.13,1.44-6.52-4.56,2.62-5.12-1.33,1.74-3.13,3-4.57,3.26-4.72.34-3.75-2.65,3-3.7.7a5,5,0,0,1,1.7-6c1.52-.88,6.49-3.73,4.73-5.56s-2.54-2.1-5.07-.65-4.33.36-3.84-1.35S112.15,183.42,114.18,182.26Z"/><path class="cls-2" d="M51.61,214.38a4.59,4.59,0,0,0,2.84-1.28c1.17-1.2,2.11-3.67,4.22-4.62s3.08-4.12,4.87-2.2.26,4.43,2.9,5.74,6.67.86,7.09,2.71,1.34,2.51,1.06,5.17-1.73,8.76.07,8.63,5.71-1.21,7.63.66,8.31,9.2,8.31,9.2l2.34,1.41s-3,5-5.06,4.59-2.45-1.63-5.73-2.19-6.2.67-7.51-2.45-1.12-5.93-4.5-5.09-5.4.39-5.2-2.43,2.63-6.93-.3-7.85-5.73-.34-5.82-3,2.33-4.46,1.68-6.21-6.73,1.24-6.73,1.24l-2.58.22Z"/><path class="cls-3" d="M57.41,122.14s-4.35-.09-8.51-6.39-6.08-8.17-7-5.7,2.07,9,3.72,10.11a12.34,12.34,0,0,0,3.65,1.57s2.64,1.54-.73,4.41-5.79,4.66-4.71,7.58-1.47,2.71-1.66,5.52,1.09,6.33.56,6.56-3.34,6,2.11,5.73,7.88,1.36,8.53,3.11,0,6.8,2.89,6.2,5.81-2.62,6.36.54-2.2,5.76,1.62,6.09,10.45,1.64,10.45,1.64-3.41-4.26-2.67-7.26-.83-3.94-1.85-5a9.73,9.73,0,0,1-2.43-6.6c.2-2.82.38-4.86-4.48-5.1s-8.38-4.78-7.23-6.66,5.12-2.82,8.26-6,.88-7.64-1.13-8.1A39.15,39.15,0,0,1,57.41,122.14Z"/><path class="cls-3" d="M38.74,145.89s-.88-5.74-6.08-8.17-7.84-1.24-6.67.28,5,1.2,7.35,2.86A45.48,45.48,0,0,1,38.74,145.89Z"/><path class="cls-3" d="M40.25,190.19s1.35-4.26,2.4-6.65l1.05-2.4s3.61-1.63,5.36,1.33,3.09,9.05,6,7.45,4.08-6.89,6.83-6.08a5.5,5.5,0,0,1,3.59,2.94s-1.2,3.33,2.62,7.13a40.18,40.18,0,0,0,9.77,6.58,8.6,8.6,0,0,1,4,4.31l1.43,3.87-1.08,2.11s-5.31-4.42-7.11-4.29-11,6.07-12.07,1.91-.58-11.2-2.23-11.49-7,3.51-9.15,1.06-1.31-6.91-4.17-6.3-2.62,4.59-5,1.55Z"/><path class="cls-3" d="M34.91,200.57s-3-4.58-5.11-3.63-2.64,1.19-1.68,2.13a14.83,14.83,0,0,1,2.78,4.2c.43,1.17,1.81,3.27,3.4,2.55s3.59-3.66,4.67,1-.08,6.51,3.83,5.43.65,1.75,4.58,4.07,2.35,3,5.3,1,4.81-7.13,4.81-7.13-4.09,4.08-5.16,1.15.08-4.81-2.78-4.2-2.38,4.55-4.75.13-.15-6.78-4.07-5.7-2,2.94-3.91,1.08S34.91,200.57,34.91,200.57Z"/><path class="cls-3" d="M97.52,242.16s-7.65-.71-9-2.82,2.37-5.71-.22-8.36-6.12-7.19-5.49-8.83,6-5.43,6-5.43a21.79,21.79,0,0,0,.87,9.07,72.3,72.3,0,0,0,4.64,10.94C95.9,239.41,97.52,242.16,97.52,242.16Z"/><path class="cls-3" d="M97.47,240.34s1.17-3.52,0-5-4.11-3.67-3-5.17,5.93-2.91,5.7-3.86-3.5.53-4.68-2-.85-3.29.88-4.45,1-2.5,0-3.93-2.49-3.28-1-3.71,3.77-.6,4-1.81-.43-3-.33-4.38-.66-4.48-1.43-8.56-1.5-4.43-.56-6.9,3.68-5.07,3.88-7.88a15.55,15.55,0,0,0,0-3.74s-2.43,2.11-5.19,1.31-6.48-2.53-4.43,3,5.23,7.53,3.12,8.48-5.83-.78-5.28,2.38-.12,2.78,1.54,4.07,9.64,7.93,10.29,9.68-1.53,10.92.07,13.6a10.23,10.23,0,0,1,.68,8.56c-.94,2.46-3.16,6.82-2.3,9.16,0,0-1.83,2.23-1.85,2.18S97.47,240.34,97.47,240.34Z"/><path class="cls-4" d="M94.33,247S94,240,111,226C120,218.59,94.33,247,94.33,247Z"/></g></g></g><g id="Layer_94" data-name="Layer 94"><g id="Cola"><rect class="cls-5" width="130" height="250"/></g></g></g></g></svg>