<svg xmlns="http://www.w3.org/2000/svg" viewBox="0 0 130 250"><defs><style>.cls-1{isolation:isolate;}.cls-2{fill:#bab69a;}.cls-3{fill:#a19d86;}.cls-4{fill:#f2ecca;}.cls-5{fill:#7d3e15;}.cls-6{fill:#42210b;}.cls-7{fill:none;mix-blend-mode:multiply;opacity:0.4;}</style></defs><g class="cls-1"><g id="Layer_2" data-name="Layer 2"><g id="Variacion_B" data-name="Variacion B"><g id="AssetsW2"><g id="TailW2"><path class="cls-2" d="M122.18,193.19l.31-.14c1.81-4,1.09-9.27-2.9-11.62a13.86,13.86,0,0,0-2.81-4.76,61.72,61.72,0,0,0-6.36-6.47,15.12,15.12,0,0,0-9.61-4,8.2,8.2,0,0,0-2.49-1.33A7.93,7.93,0,0,0,90.1,166c-.19.12-.34.21-.46.3a26.36,26.36,0,0,0-1.35-3.66,16.23,16.23,0,0,0-6-7.15c-4.14-2.62-9.59-2.82-14.56-1.65q.81-1.34,1.56-2.76c2.08-3.92,3.75-8.19,3.41-12.79-.31-4.27-1.52-9.88-5.33-12.17-4.8-2.89-10.15-1.4-14.83,1.29.84-4-1.31-8.14-4.5-10.61a5.67,5.67,0,0,0-2.57-1.87,6.47,6.47,0,0,0-2.93-.42,10.5,10.5,0,0,0-1.37,0,4.63,4.63,0,0,0,.6-3.45s0-.09,0-.14a5,5,0,0,0,0-.78l0-.29a4.16,4.16,0,0,0-4.86-3.4,4.65,4.65,0,0,0-1,.42,4.55,4.55,0,0,0-1.91,1,4.41,4.41,0,0,0,0-.52,2.07,2.07,0,0,0,2.1-2.37,2.72,2.72,0,0,0,.16-.35,2.51,2.51,0,0,0-2.25-3.18,2.73,2.73,0,0,0-2.23,1h0a3.49,3.49,0,0,0-.71-.24,3.86,3.86,0,0,0-.84-.09.24.24,0,0,0,0-.32s.16-.31.18-.36a2.75,2.75,0,0,0,1-3.84.21.21,0,0,0,0-.06,5.4,5.4,0,0,0-1.05-2.1,2,2,0,0,0-2.46-.52A2.72,2.72,0,0,0,26.58,96,3,3,0,0,0,26,99.64a3.36,3.36,0,0,0,.61.85,3.09,3.09,0,0,0,1.59,2l.24.1a4,4,0,0,0-1.71,1.91,5.33,5.33,0,0,0-.52,1,5.09,5.09,0,0,0-.26,2.54l.1.29c-.45,1.75-.19,4.25,1.69,4.9a2.05,2.05,0,0,0,.8.12,4.74,4.74,0,0,0-.33,1.32,8.13,8.13,0,0,0,.12,2.36,4.27,4.27,0,0,0,2.54,3.13l.06,0,.12.05a3.06,3.06,0,0,0,.95.22,12,12,0,0,0-1.37,3.88,6.13,6.13,0,0,0-3.32,3,21.83,21.83,0,0,0-1.07,2.57A10.1,10.1,0,0,0,25.12,142a7.49,7.49,0,0,0,5.78,3.55,6.42,6.42,0,0,0,1,.24,22.5,22.5,0,0,0-2.41,4.19A23.3,23.3,0,0,0,28.18,152a24.06,24.06,0,0,0-2.35,6.41A10.85,10.85,0,0,0,24.62,162a14.39,14.39,0,0,0,2,9.46,9.84,9.84,0,0,0,1.16,2.83c4.12,6.87,13.82,5.1,16.35-1.69a8.91,8.91,0,0,0,1.26.1,77.74,77.74,0,0,0-8.11,13.15c-3.08,6.52-5.66,14-4.8,21.37.81,6.88,3.84,15,8,20.34,4.64,6,11.24,9,18.21,10.71a94.33,94.33,0,0,0,9.53,2c4.68.66,8.23.11,11.68-2.81,5.56-.69,11.71-.7,16.77-3.31a6.62,6.62,0,0,0,4.69-1.67l.51-.45a3.41,3.41,0,0,0,5.43-.24,68.58,68.58,0,0,0,4.46-7.09c.39-.29.78-.56,1.16-.86,2.16-1.69,4.25-3.43,6.33-5.22a3.7,3.7,0,0,0,1.15-1.94C124.15,210.78,124.64,200.39,122.18,193.19Z"/><path class="cls-3" d="M68.18,128.15c-.59-.45-1.33.26-1.18.93.55,2.53,1.81,4.79,2.37,7.35a22.93,22.93,0,0,1,.25,8.54,20.85,20.85,0,0,1-2.92,7.67c-1.45,2.28-3.39,4-4.48,6.52-.22.52.34,1,.78.89,5.33-.86,8.54-8.13,9.67-13.09C74,141.07,73.23,132,68.18,128.15Z"/><path class="cls-3" d="M85.63,161.78a.94.94,0,0,0-.49-1.16.8.8,0,0,0-1.3-.29c0,.07-.1.15-.16.22l-.1,0C78.21,164,75.23,171.66,73,177.53A94.11,94.11,0,0,0,67,199,73,73,0,0,0,67,218.74c0,.46,0,.91,0,1.37,0,4.92.9,9.09,3.3,12.82a17.93,17.93,0,0,0,3.1,5.19c.47.53,1.19,0,1.11-.61,0-.23-.07-.45-.11-.68a1.07,1.07,0,0,0,.72-1.41.69.69,0,0,1-.05-.13.69.69,0,0,0,.11-.56c-1.67-6.19-3.83-11.57-4.15-18.14a111.54,111.54,0,0,1,.22-13.67c.3-2.07.65-4.13,1.07-6.18a119.05,119.05,0,0,1,5-17.48c.53-1.37,1.11-2.72,1.76-4.08.55-1.15,1.2-2.35,1.86-3.57a37.57,37.57,0,0,0,4.63-9.51l0,0C85.57,162,85.61,161.87,85.63,161.78Z"/><path class="cls-3" d="M121.81,191.56c-.31-1.14-.66-2.26-1.06-3.38a1,1,0,0,0-.28-.31.93.93,0,0,0,.11-.19c-.2-.55-.4-1.1-.62-1.65a1.75,1.75,0,0,0-.24,0h0c-.34-.79-.69-1.54-1-2.23a17.59,17.59,0,0,0-2-3.78,28.33,28.33,0,0,0-14-12.52c-.31-.14-.61.23-.48.55.88,2.06,2.61,2.88,4.32,4.12a25.46,25.46,0,0,1,6.68,7.18,32.19,32.19,0,0,1,1.67,3c.42,1.65,1,3.27,1.36,5a62.59,62.59,0,0,1,1.4,12.36c.14,5.66-1.12,11.66-1.17,17.44a43.3,43.3,0,0,0-.62,4.59c.56-.45,1.13-.88,1.71-1.3a14.63,14.63,0,0,1,1.21-1.16c.42-.35.84-.68,1.27-1,1.46-5.48,1.51-11.87,1.27-17.42C121.61,198,122.16,194.49,121.81,191.56Z"/><path class="cls-3" d="M32.2,122.19c-6.32,4.55-10,17.7-2.9,23.27,1.92,1.5,3-1.92,1.53-2.5-6-5.36-.65-14.28,2.41-19.62C33.62,122.68,32.87,121.71,32.2,122.19Z"/><path class="cls-3" d="M40.84,109.17a3.49,3.49,0,0,0-1.76-2.72.74.74,0,0,0-1.09.83,7.25,7.25,0,0,1,.34,2.88,3.85,3.85,0,0,0-.07,1.51,1.13,1.13,0,0,0,1.85.45C40.87,111.5,41,110.08,40.84,109.17Z"/><path class="cls-3" d="M35.39,104.25c-.24-.35-.49-.7-.76-1a6.18,6.18,0,0,1-.37-.61.78.78,0,0,0-1.11-.36,2.14,2.14,0,0,0-.93-.53.94.94,0,0,0-.86.22c-.12.12-.38.73-.14.84s.37.5.51.65a5.89,5.89,0,0,1,.42.45,3.36,3.36,0,0,1,.46.93c.2.66.15,1.35.4,2a.69.69,0,0,0,1.11.2,2,2,0,0,0,.6-1.47.65.65,0,0,0,.44-.16A.89.89,0,0,0,35.39,104.25Z"/><path class="cls-3" d="M30.49,95.58a.76.76,0,0,0-1.3.53c0,.72.17,1.44.1,2.17a14.73,14.73,0,0,0-.41,2.28c0,.45.44,1,.94.79C31.78,100.57,32,97,30.49,95.58Z"/><path class="cls-3" d="M45.28,168.24c-3.16,2-5.88,3.93-9.67,4.33-4.54.49-6.33-1.37-9.19-4.46-.32-.35-.78-.14-.87.31-.86,4.7,5,7,8.47,7.11,3.66.16,11.91-1.49,13-6A1.21,1.21,0,0,0,45.28,168.24Z"/><path class="cls-3" d="M46.61,158.81c-1.35-3-3.29-5.62-4.76-8.55-1.68-3.35-2.32-6.72-3.2-10.33a.47.47,0,0,0-.93.06c-.87,6.81,3.61,15,8.35,19.3C46.35,159.54,46.76,159.14,46.61,158.81Z"/><path class="cls-3" d="M32.56,166.57c-.6-2.06-1.63-3.91-2.33-5.92s-.48-4.07-.83-6.17a.42.42,0,0,0-.79-.11C26,157.92,29.7,164.1,31.8,167A.44.44,0,0,0,32.56,166.57Z"/><path class="cls-3" d="M57.45,236.07c-1.37-1.53-3.21-2.13-4.87-3.31a25.83,25.83,0,0,1-5-4.61,36.84,36.84,0,0,1-6.37-11.94,71.56,71.56,0,0,1-3.06-15c-.56-5.05.21-9.61.58-14.58a.68.68,0,0,0-1.25-.41,13.49,13.49,0,0,0-2.18,6.18,25.1,25.1,0,0,0-1.47,7.8c-3,11.81,4.68,26.42,13.61,33.06a1.35,1.35,0,0,0,1,.29c2.44,2.29,5.51,4.44,8.4,4.06A.94.94,0,0,0,57.45,236.07Z"/><path class="cls-3" d="M92.83,237.17c-3.81-6.08-8.17-10.85-10.28-17.9a40.66,40.66,0,0,1-.94-4.62c-.85-5.78-.38-11.6-.58-17.41a14.12,14.12,0,0,0,.25-5.43.64.64,0,0,0-1.17-.22,29,29,0,0,0-3,11.94c-4.53,11.07-1.52,25.34,4.54,35.16a1.61,1.61,0,0,0,2.48.25c.15.25.31.49.47.73,1.25,1.84,4-.11,2.81-2-.34-.54-.66-1.09-1-1.63.48.37,1,.73,1.46,1.06a.49.49,0,0,0,.72-.6l-.06-.18a15,15,0,0,0,3.24,2C92.5,238.67,93.21,237.76,92.83,237.17Z"/><path class="cls-4" d="M42.79,115.17a.51.51,0,0,0-1-.07c-.06.15-.11.31-.16.47a.35.35,0,0,0-.5.06l-.08.12,0-.44a.8.8,0,0,0-1.56-.26c-.21.66-.41,1.32-.61,2a1.34,1.34,0,0,0-2.17.86,145.83,145.83,0,0,1-3.81,15c-1.11,3.52-3.29,7.31-3.2,11a.72.72,0,0,0,1.21.58,10.58,10.58,0,0,0,1.73-2.35,1.22,1.22,0,0,0,.85-.75c.42-.92.83-1.85,1.24-2.8,3.18-1.84,5-7.2,6.14-10.51C42.33,124.21,43.75,119.39,42.79,115.17Z"/><path class="cls-4" d="M36.7,108.36a.7.7,0,0,0-1.15-.37h0a.67.67,0,0,0-.12.16c-.93,1.19-1.2,2.86-1.7,4.29a25.76,25.76,0,0,1-2.06,4.72c-.21.35.07.93.51.81a4.94,4.94,0,0,0,3.3-3.41C36.17,112.77,37.21,110.29,36.7,108.36Z"/><path class="cls-4" d="M30.54,102.21a.44.44,0,0,0-.69-.16c-1.15,1.22-1.27,3.23-1.64,4.84a32.82,32.82,0,0,1-1.47,4.92.55.55,0,0,0,.45.72c1.76-.07,2.4-1.69,2.82-3.29C30.53,107.28,31.52,104.13,30.54,102.21Z"/><path class="cls-4" d="M28.45,95.34a.79.79,0,0,0-1.55.18c0,.83.05,1.67.06,2.51a4.53,4.53,0,0,0,.44,2.39.42.42,0,0,0,.59,0C29.17,99.36,28.91,96.76,28.45,95.34Z"/><path class="cls-4" d="M59.37,136.08c-.09-3.32.15-7-1.29-10a.42.42,0,0,0-.79,0,11,11,0,0,0-.5,2,5.28,5.28,0,0,0-.31-.78.41.41,0,0,0-.72-.06c-.13.2-.23.42-.34.63a7.51,7.51,0,0,0-.62-1.11.27.27,0,0,0-.47.08,7.33,7.33,0,0,0-.48,1.2,1.47,1.47,0,0,0-.76.08c-.18.05-.17.31-.05.42a.82.82,0,0,1,.23.34c-.49-.65-1.61-.71-1.78.32-1,6.11-1.17,12.4-1.81,18.57-.29,2.78-.57,5.58-1,8.35-.67,4.24-2.27,8.22-2.89,12.45a.5.5,0,0,0,.82.44,10.35,10.35,0,0,0,2.19-2.52c0,.52,0,1,0,1.53a1.18,1.18,0,0,0,2.23.52,16.87,16.87,0,0,0,1.51-4.28c1.91-1.14,2.48-3.5,3.32-5.73a55.11,55.11,0,0,0,3-10.1A61.66,61.66,0,0,0,59.37,136.08Z"/><path class="cls-4" d="M44.54,133.54a.36.36,0,0,0-.46,0c-1.52,1.06-1.2,5-1.32,6.53-.33,4-.58,8-1,12-.77,8.19-2.86,16.32-3.27,24.51,0,.56.75.91,1,.37,3.66-7,4.28-15.73,5-23.55q.48-5.74.7-11.53C45.29,139.89,46.28,135.05,44.54,133.54Z"/><path class="cls-4" d="M74.31,217.92c-2.64-2.82-7-3.95-10.09-6.48a36.81,36.81,0,0,1-8.36-9.94C50.38,192,49.48,180.93,50,170.16a.55.55,0,0,0-1-.36,12.64,12.64,0,0,0-1.79,5.12c-.09-.58-.2-1.15-.34-1.71-.07-.3-.51-.5-.68-.16a10.81,10.81,0,0,0-.94,2.51.43.43,0,0,0-.72,0,11.55,11.55,0,0,0-.78,1.84.56.56,0,0,0-.92.14c-2.58,5.16-1.7,11.76-.79,17.29.87,5.38,1.93,10.9,4.46,15.72,4.65,8.86,14.23,15.83,24.09,14.23a1.56,1.56,0,0,0,1.32-1.71,1.93,1.93,0,0,0-.8-1.31A3.7,3.7,0,0,0,72.23,220v-.24a6,6,0,0,0,1.4,0A1.1,1.1,0,0,0,74.31,217.92Zm-28.5-17.8A52.18,52.18,0,0,0,47.73,205a.5.5,0,0,0-.12.34c0,.17,0,.34,0,.51A39.49,39.49,0,0,1,45.81,200.12Z"/><path class="cls-4" d="M74.28,202.64c-2.46-2.18-5.15-3.71-7.24-6.39a31.57,31.57,0,0,1-4.91-9.72c-2.42-7.39-2.23-14.8-3.44-22.35-.14-.83-1.18-.69-1.43,0a9.76,9.76,0,0,0-.37,1.16l-.06-.37a.56.56,0,0,0-1.09-.07c-1.63,3.88-.87,8.64-.34,12.73a60.17,60.17,0,0,0,2.76,13C60.31,196.41,65,205,71,207.05c.91.3,1.68-.92,1.17-1.73a14.43,14.43,0,0,0-.85-1.2,11.32,11.32,0,0,0,1.92.77C74.4,205.25,75.2,203.46,74.28,202.64Z"/><path class="cls-4" d="M103.71,188.82c0-.38-.1-.78-.15-1.19-.48-7.18-2.06-15.14-6.07-20.14,0,0,0,0,0-.05a4.17,4.17,0,0,0-.25-1.42,1,1,0,0,0-.85-.73,1.07,1.07,0,0,0-.44-.16,1,1,0,0,0-1.81.05c-.06-.13-.13-.26-.19-.4a.79.79,0,0,0-1.15-.36.75.75,0,0,0-.9,1l0,.1a.78.78,0,0,0,0,.48l.45,1.38a.55.55,0,0,0-.1.22c-.58,3.52.81,7.3,1.4,10.77A109.91,109.91,0,0,1,95,189.92a77,77,0,0,1,0,9.73c-.32,2.1-.71,4.19-1.14,6.27-.57,5.81-2.48,11.71-3.77,17.17A97.1,97.1,0,0,1,87.3,233a20.49,20.49,0,0,0-.21,4.94c2-.87,4-1.45,6-2.19,1-.38,2-.79,3-1.26,4.74-10.88,5.78-23.84,7.77-35.47A53.72,53.72,0,0,0,103.71,188.82Z"/><path class="cls-4" d="M105.81,170.32a.61.61,0,0,0-.41-.38c-.06-.14-.13-.28-.2-.42a15.27,15.27,0,0,1-1.86-.79c.25,2,.5,3.94.73,5.89A112.33,112.33,0,0,1,105.25,186a177.71,177.71,0,0,1,0,18.32c-.36,8.71-1.28,17.94-3.9,26.5.41-.18.83-.36,1.24-.56,2.26-8.76,4.94-17.38,5.64-26.58a108.9,108.9,0,0,0-2.1-32.62Z"/><path class="cls-5" d="M70.87,232.27c-7.56-6.51-14.55-12.35-19.6-21.4a64.35,64.35,0,0,1-7.81-27.42.42.42,0,0,0-.83,0,59.34,59.34,0,0,0,7.51,28.79c4.61,8.36,11.64,17.14,20.34,20.79C71,233.27,71.24,232.58,70.87,232.27Z"/><path class="cls-5" d="M66.3,203.11c-3.1-2.85-6.78-4.86-9.71-7.94s-4.42-6.89-6.75-10.32a.24.24,0,0,0-.43.2A28.9,28.9,0,0,0,66,203.71C66.35,203.86,66.57,203.36,66.3,203.11Z"/><path class="cls-5" d="M72.07,188.12a28.7,28.7,0,0,0-5.52-10.64c-2.23-2.83-5.37-6.5-8.81-7.58a.26.26,0,0,0-.29.41c2.27,2.86,5.41,4.86,7.72,7.76a66.43,66.43,0,0,1,6.25,10.26C71.6,188.66,72.18,188.55,72.07,188.12Z"/><path class="cls-5" d="M76.25,167.31A79.49,79.49,0,0,0,69,161.16a.41.41,0,0,0-.53.62c3.67,3.88,8.22,6.89,11,11.61.14.25.54,0,.48-.23A11.47,11.47,0,0,0,76.25,167.31Z"/><path class="cls-5" d="M80.49,162.05c-1-2.52-2.37-5.31-5.19-5.73-.23,0-.31.32-.1.42,2.23,1.06,3.58,3.42,4.77,5.56A.29.29,0,0,0,80.49,162.05Z"/><path class="cls-5" d="M90.85,170.33a.16.16,0,0,0-.28.13c.28,2.93,1.45,5.72,1.9,8.65A46,46,0,0,1,92.74,190c-.64,7.2-3.15,13.78-4.59,20.79-.08.42.57.67.77.29a56.14,56.14,0,0,0,5.69-21.82C95,183.5,94.84,174.85,90.85,170.33Z"/><path class="cls-5" d="M103.17,188.14c-.81-5.12-3.73-10.32-6.45-14.56-.19-.3-.58,0-.48.31,1.61,4.67,4.57,8.9,5.56,13.8,1.11,5.56-.7,11.14-1.63,16.56a.34.34,0,0,0,.66.17C102.74,199.35,104,193.61,103.17,188.14Z"/><path class="cls-5" d="M114.35,196.93a.2.2,0,0,0,0,.13l.93-.59c1.82-3.83,1.33-8-.55-11.84-2-4-5.93-9.15-10-10.86-.37-.15-.64.39-.33.64C110.78,179.52,117.45,188,114.35,196.93Z"/><path class="cls-5" d="M45.75,171.5c-4.43-1.26-8.26-3.41-10.92-7.49s-3-8.57-3.38-13.43c0-.22-.3-.18-.34,0-2.24,9.6,4.89,21.21,14.48,21.62C46,172.22,46.14,171.61,45.75,171.5Z"/><path class="cls-5" d="M42.21,138.34a.47.47,0,0,0-.69.63c5.36,7.09,9.95,13.17,10.57,22.59,0,.38.53.31.59,0C54.29,152.57,47.78,144.26,42.21,138.34Z"/><path class="cls-5" d="M50.51,131.21c-.4-.38-.88.3-.6.7,4.76,6.89,15,14,11.23,23.72a.36.36,0,0,0,.62.36C67.81,147.49,55.79,136.23,50.51,131.21Z"/><path class="cls-5" d="M34,137.59c-.46-.5-.9-1-1.33-1.56A21.74,21.74,0,0,0,30.19,133a.3.3,0,0,0-.46.3,8.68,8.68,0,0,0,1.92,3.49c.6.77,1.63,2.42,2.66,2.39a.35.35,0,0,0,.36-.4C34.64,138.2,34.36,138,34,137.59Z"/><path class="cls-5" d="M31.76,143.15c-1.34-1.19-2.69-1.88-3.61-3.57a14.65,14.65,0,0,1-1.22-4.68.3.3,0,0,0-.57-.07c-1,3.22,1.93,8.51,5.21,8.84A.29.29,0,0,0,31.76,143.15Z"/><path class="cls-5" d="M44.6,116.37c-.34-.27-.78.23-.5.58,1.86,2.37,3.86,4.18,3.26,7.63,0,.29.38.47.52.21C49.63,121.64,47,118.17,44.6,116.37Z"/><path class="cls-5" d="M33.08,110.81c0-.45-.61-.66-.76-.19a5.25,5.25,0,0,0,.36,4.3.3.3,0,0,0,.57-.18A32.3,32.3,0,0,1,33.08,110.81Z"/><path class="cls-5" d="M29.1,103.29a3.85,3.85,0,0,0-1.83,3.1,9,9,0,0,0,.73,4.93.31.31,0,0,0,.59-.1c.13-2.69-.72-5.28.67-7.8C29.32,103.32,29.18,103.23,29.1,103.29Z"/><path class="cls-5" d="M31.31,105.73a5.23,5.23,0,0,1-.32-1.22,2.43,2.43,0,0,0-.25-1.1.29.29,0,0,0-.41,0c-.46.39-.4,1.1-.35,1.67a3.53,3.53,0,0,0,.84,2,.46.46,0,0,0,.45.16C32,107,31.47,106.18,31.31,105.73Z"/><path class="cls-5" d="M29,98.21c0-.27,0-.55-.05-.82s-.15-.55-.19-.83a.17.17,0,0,0-.31-.09,1.68,1.68,0,0,0-.55.85,2.87,2.87,0,0,0,0,1.13c.12.67.45,1.58,1.1,1.83a.37.37,0,0,0,.48-.42C29.4,99.29,29,98.79,29,98.21Z"/><path class="cls-5" d="M41.79,124.21a10.5,10.5,0,0,0-5.18-5.72c-.33-.17-.66.35-.42.62.8.9,1.75,1.6,2.62,2.41a18,18,0,0,1,2.54,3C41.54,124.76,41.87,124.49,41.79,124.21Z"/><path class="cls-5" d="M40.47,159.92a75.69,75.69,0,0,1-3.13-10c-.07-.26-.48-.3-.49,0A17,17,0,0,0,40,160.19C40.22,160.44,40.57,160.2,40.47,159.92Z"/><path class="cls-5" d="M37.08,171.74c-3.08-1.85-5.66-3.87-7-7.47-.15-.41-.77-.2-.69.23a10.52,10.52,0,0,0,7.5,7.65A.22.22,0,0,0,37.08,171.74Z"/><path class="cls-5" d="M69.51,133.56c-.12-.2-.45,0-.4.18a30.09,30.09,0,0,1,1,6.67A31.39,31.39,0,0,1,69,147.14a.24.24,0,0,0,.44.18A14.47,14.47,0,0,0,69.51,133.56Z"/><path class="cls-5" d="M40.91,189.05c-.06-1.08.17-2.19,0-3.24-.06-.43-.58-.33-.66,0a10.84,10.84,0,0,0,.06,3.06,17.53,17.53,0,0,0,.53,3.47c.06.23.38.11.36-.1C41.14,191.19,41,190.13,40.91,189.05Z"/><path class="cls-5" d="M63.82,232.33c-1.73-1.48-3.62-2.67-5.42-4a26.44,26.44,0,0,1-5-5.06c-.21-.27-.63,0-.5.33,1.88,4.47,6.49,7.59,10.73,9.11A.22.22,0,0,0,63.82,232.33Z"/><path class="cls-6" d="M91.85,163.35c-.69-6.86-6.7-11.93-13.48-12.27C70.94,150.7,64,154.82,58,158.7c-12.2,7.88-23,18.81-27.45,32.91-4.61,14.45-1.79,31.91,9.88,42.32,8.85,7.89,33.09,19.68,42.28,6.64,1.81-2.58-1.21-6.31-4.11-5.34s-5.22,2.68-8.32,3c-3.47.35-6.89-.6-10.12-1.77-5.43-2-11.55-4.59-15.89-8.49-9.93-8.92-11.9-23.41-8-35.71C39.69,181,48,172.06,57.46,165.35c4.6-3.27,10-7.11,15.56-8.43a12.3,12.3,0,0,1,9.35,1.4c2.64,1.71,4.07,4.77,6.57,6.7a1.94,1.94,0,0,0,2.91-1.67Z"/><path class="cls-6" d="M87,160.74c-7,13.56-13.09,27.77-15.34,43-1.94,13.08-3.81,26.49,5.1,37.48,3,3.71,8.24-1.57,5.25-5.25-7.71-9.51-4.51-24.59-2.26-35.56,2.59-12.66,7.74-24.49,13.66-35.9,2.2-4.24-4.21-8-6.41-3.75Z"/><path class="cls-6" d="M89.92,167.34c13.82-.69,29.66,8.93,31,23.67.41,4.73,7.84,4.77,7.42,0-1.63-18.7-20.19-32-38.37-31.1-4.75.24-4.78,7.67,0,7.43Z"/><path class="cls-6" d="M68.67,155.9c4.68.44,7.41-7.28,8.35-10.92,1.37-5.27,1.41-11.75-1.5-16.53a16.87,16.87,0,0,0-13.24-8c-6.52-.38-11.56,3.27-16.34,7.22-5.64,4.66-11.06,9.35-15.29,15.38-3.63,5.19-8.13,11.71-8.92,18.14-.67,5.49.1,12.72,4.4,16.66,4.07,3.74,10.41,4.17,15.41,2.37a2.75,2.75,0,0,0-1.46-5.29c-6.1,1-11.31,1.29-13.29-5.78-1.55-5.53-.3-10.22,2.52-15,5.13-8.65,11-15.85,19.27-21.62,3.63-2.52,7.54-5.86,12.17-6,4.83-.16,8.65,2.9,10.44,7.22A17.65,17.65,0,0,1,71,146.55c-1,2.88-3.87,5.54-3.26,8.66a1,1,0,0,0,.9.69Z"/><path class="cls-6" d="M30.06,145.58c-8.71-5.82-1.75-18.32,3.65-23.51,2.48-2.38,6.88-7.2,10.7-7,4.62.29,6.24,6.69,4.78,10.19-1.34,3.2,3.9,4.63,5.21,1.44,2.09-5.08-.14-12.54-4.94-15.38-5.8-3.45-11.8.87-16.2,4.59-5.83,4.93-10.27,10.82-11.75,18.42-1.13,5.76.83,12.92,7.18,14.46a1.79,1.79,0,0,0,1.37-3.25Z"/><path class="cls-6" d="M43.5,112.18c-.27-1.23.64-2.91.44-4.28a5.58,5.58,0,0,0-2.06-3.76c-2.94-2.27-6.18-.23-8.67,1.68-4.41,3.39-12.6,12.28-6.21,17.63,2.24,1.88,5.5-1.34,3.24-3.24C27.48,117.9,32,113,33.7,111.35c.93-.89,2.31-2.51,3.51-2.93a1.13,1.13,0,0,1,1.65,0c1-.13,1.47.27,1.42,1.21a3.53,3.53,0,0,1,.2,2.2c-1.5,2.65,3.71,3.51,3,.4Z"/><path class="cls-6" d="M38.69,105.25c0-2.58-.74-5.08-3.28-6.19a5.85,5.85,0,0,0-6.67,1.66c-1.87,2.08-4.26,4.09-4.8,7-.48,2.6-.58,6.39,1.71,8.21a1.85,1.85,0,0,0,2.55,0,1.71,1.71,0,0,0,.28-2.19c-.86-1.87-2.22-3.45-2-5.68a6.34,6.34,0,0,1,4.24-5.22c2.64-.94,4.23.1,4.68,2.88.31,1.91,3.36,1.43,3.33-.45Z"/><path class="cls-6" d="M28.16,102.87c-.86-1.56-2.39-5.17-1.45-6.83.83-1.49,2.87-.28,3.56.87a6.54,6.54,0,0,1,.92,3.45c0,2.44,4,2.32,3.71,0-.44-3.68-3.32-8.82-7.81-6.89-1.89.82-2.44,2.49-3,4.32a6.92,6.92,0,0,0,1.32,6.69,1.59,1.59,0,0,0,2.75-1.61Z"/><path class="cls-6" d="M119,177.28l.07.05a.33.33,0,0,0,.33,0l.07-.05a.3.3,0,0,0,.13-.12.21.21,0,0,0,.06-.1.3.3,0,0,0,0-.18v-.13l0-.11a.37.37,0,0,0-.12-.13.21.21,0,0,0-.1-.06.39.39,0,0,0-.18,0,.48.48,0,0,0-.24.06.3.3,0,0,0-.13.12.24.24,0,0,0-.06.11.27.27,0,0,0,0,.18V177l0,.11a.46.46,0,0,0,.17.17Z"/><path class="cls-6" d="M120.35,225.65c4.73-12.19,13-34.56,1.8-45.69-1.67-1.67-5,0-4.17,2.43,2.68,7.45,3.78,13.2,2.49,21.18-1.14,7.05-2.23,14.13-3.44,21.16a1.72,1.72,0,0,0,3.32.92Z"/><path class="cls-6" d="M75.28,238.77c3.5,6.13,15,5.4,20.72,3.79,6.52-1.83,16.77-7.17,18.36-14.4a2.1,2.1,0,0,0-1.45-2.55c-6.23-1.32-10.7,4.45-15.84,6.95a36.77,36.77,0,0,1-10,3.07,43.18,43.18,0,0,1-4.77.7c-1.89.1-3.6-.44-5.49-.26a1.82,1.82,0,0,0-1.55,2.7Z"/></g></g></g><g id="Layer_94" data-name="Layer 94"><g id="Cola"><rect class="cls-7" width="130" height="250"/></g></g></g></g></svg>