<svg xmlns="http://www.w3.org/2000/svg" viewBox="0 0 130 250"><defs><style>.cls-1{isolation:isolate;}.cls-2{fill:#b26a74;}.cls-3{fill:#f5919c;}.cls-4{fill:#c34e6f;}.cls-5{fill:none;mix-blend-mode:multiply;opacity:0.4;}</style></defs><g class="cls-1"><g id="Layer_2" data-name="Layer 2"><g id="Variacion_C" data-name="Variacion C"><g id="AssetsW2"><g id="TailW2"><path class="cls-2" d="M124.58,213.17a22.87,22.87,0,0,1-4.63,3.55.78.78,0,0,0-1,.12l0,0a.84.84,0,0,0-.46-.36,33.11,33.11,0,0,0-3.24-.71,12.27,12.27,0,0,1,1.49-3.77,1.58,1.58,0,0,0-.29-1.9c-5.09-5.4,2.1-12.33,3.85-17.24,1.52-4.29.64-7-1-11.1s-2.09-7.17-.18-11.41c1.26-2.79,3.79-4.85,5.08-7.53,1.63-3.38-1.58-5.37-.36-8.89a1.87,1.87,0,0,0-1-2.09c-.88-.38-1.76-.74-2.65-1.1,1.2-2.49,1.07-4.9-.07-7.86-1-2.51-1.59-1.68-2-5.6-.11-1.21.34-2.24,0-3.5-.44-1.78-1-2.24-2.52-3.12a.81.81,0,0,0-1.07,1.18c1.82,2.57.46,5.47,1.09,8.19.93,4,4.12,5.83.42,10.35a1.84,1.84,0,0,0,.53,2.86l.86.38a1.5,1.5,0,0,0-.31,1.54c2.26,6.94-4.25,12.29-4.77,18.93a21,21,0,0,0,.69,6.3c.22,2.41.61,4.81.91,7.21,0,.2,0,.38.06.57a12,12,0,0,1-.2,1.43c-1.06,5-3.88,9.33-4.66,14.38a26.31,26.31,0,0,0-.22,5.87c-.68-1.22-1.46-2.49-2.15-3.77,1.45-4.77,1.11-12.11-2.2-16,1.21-3.57,1.8-7.28,1.18-10.36-1.17-5.87-7-10.8-6-17,.69-4.34,3.71-7.94,4-12.43a14.86,14.86,0,0,0-1.57-7.6,15.62,15.62,0,0,0-3.1-4.27c-.52-.5-4.18-2.42-4.39-3-.38-1,.53-2,.63-2.87a10.61,10.61,0,0,0-.33-4.27,9.59,9.59,0,0,0-4.9-6.23c2.07-4-.73-8.42-5.06-10.36-.87-.39-1.37.76-.93,1.36,1.62,2.19,5.85,5.45,2.86,8.69a1.37,1.37,0,0,0,.62,2.29c8.35,2.18,0,10.35,4.48,14.33,3.65,3.25,7.36,4.29,7.86,10,.36,4.14-2.14,7.67-3.32,11.48-1.8,5.8.16,9.48,3,14.54s3.57,9,1.6,14.38c-.72,2-1.55,3.84-2.22,5.77a21.19,21.19,0,0,1-2.33-4.12,1.73,1.73,0,0,0-.48-.63c-.64-1.2-1.29-2.39-1.93-3.58a.64.64,0,0,0,0-.24c-.36-2.6-1.2-5.11-1.51-7.72-.27-2.23.24-4.56-.08-6.74-.4-2.66-3.42-4.55-6.14-6a14.29,14.29,0,0,0-1.78-2.89c-2.53-2.58-6-5-4.32-8.81.17-.35.34-.69.53-1a1.45,1.45,0,0,0,.16-.4,7.61,7.61,0,0,0,1.15-2.69.71.71,0,0,1,0-.14,8.47,8.47,0,0,0,.4-2.56,11.57,11.57,0,0,0-5.15-9.14c-3.26-2.29-11.21-3.93-16.06-2.17a1.77,1.77,0,0,0-1.4-.75c-.37-1.9-.3-3.89-1.3-5.7a21.71,21.71,0,0,0-3.42-4.41,50,50,0,0,1-.43-7.63c.13-2.77,1.48-6,1-8.83a8.56,8.56,0,0,0-1.86-3.81c-1-1.54-2.71-2.81-3.37-4.61-.23-.62-.59-3.56-.86-4.74a1.67,1.67,0,0,0-1.25-1.13L47.84,94c-.61-.13-1.47.21-1.41,1a18.78,18.78,0,0,0,3.64,10.59,11.64,11.64,0,0,1,2.61,6.67c.11,2-.47,4.09-.4,6.13a37.08,37.08,0,0,0,.36,3.79c-.37-.38-.74-.77-1.09-1.15-5.28-5.78-10.44-12.24-16.44-17.44a1.12,1.12,0,0,0-.39-1.39A21.2,21.2,0,0,0,30,99.42c-.85-.57-1.68-1.15-2.47-1.78-1.94-1.53-3.6-4-5.86-5a.57.57,0,0,0-.77.61,3.05,3.05,0,0,0,.13.32.41.41,0,0,0-.08.27,7,7,0,0,0,.6,2.62.88.88,0,0,0,.1.6,6.07,6.07,0,0,0,2,2.09A42.5,42.5,0,0,0,29,102.68c5.58,3.46,7.41,9.75,11.74,14.39,2.24,2.4,5.13,4.37,6.87,7.2,1.25,2,1.75,4.33,3.1,6.32,1.93,2.83,1.9-.94,2.77,4.75.15,1-.27,2.07-.1,3.14a9.23,9.23,0,0,0,2.77,5.06,1.77,1.77,0,0,0,1.76.38c5.69-2.58,17.77-6.09,20.54,1.84a5.39,5.39,0,0,1,.31,1.63c-.61,3.1-3.81,5.9-5,9.11a10.19,10.19,0,0,0-1.48,3,1.65,1.65,0,0,0,1,1.93c-.56,2.39.74,5.18,3.2,6.87.15.1.31.18.47.27-4.58-.19-9.57.34-11.2-4.38-.58-1.67-.59-3.94-1.45-5.49-1.16-2.1-3.33-1.74-5.39-2.39-.5-.15-1.22.19-1.18.78a2.24,2.24,0,0,0,1.05,2c.33.29.85.25,1.14.47,1.18.89.73.42,1.46,1.72,1.09,2,.67,4.51,2.14,6.24.75.89,1.93,1.07,2.79,1.75,1.46,1.16,1.16,2.06,2.93,2.45,1.33.3,3.46-.45,4.71-.63,2.42-.35,4.87-.38,7.28-.8,3.44,1.41,3.8,1.69,3.46,6.6-.2,2.95-.17,3.24,1.68,5.69,2,2.65,2,5.63,4.08,8.19a12,12,0,0,0,1.73,1.63,1.15,1.15,0,0,0,0,.18,14.26,14.26,0,0,0,.64,1.8,6.72,6.72,0,0,1-.14,3.64c-.17.88-.34,1.8-.44,2.72-.75.42-1.54.81-2.25,1.23a19.27,19.27,0,0,0-2.1,1.41,16.09,16.09,0,0,0-6.73-5.28c-5.07-2.35-12.7-1.83-16.21-6.45-1.74-2.29-2.27-5.21-4-7.51-1.53-2-3.88-3-5.52-4.86-2.5-2.79-2.1-6.08-3.53-9.2-2.06-4.52-5.28-8.94.95-12.32a1.49,1.49,0,0,0-.41-2.72,36.91,36.91,0,0,1-9.29-2.85c-2.16-1.14-3.89-3-6.13-4a10.43,10.43,0,0,0-8-.3c-1.29-4.76-2.74-10.14-6.06-13.73a1,1,0,0,0-1.67.84c.73,5.23,3.65,10.33,5.08,15.48a1.67,1.67,0,0,0,2.41.89,9,9,0,0,1,1.14-.48,18.36,18.36,0,0,0,4.12,2,53.22,53.22,0,0,1,6.16,3c1.41.86,2.22,2.18,3.52,3.08a4.47,4.47,0,0,0,.81.33,4.11,4.11,0,0,0-.41,2.69,1.06,1.06,0,0,0,1.52.73c.06.25.11.5.18.75a8.35,8.35,0,0,0,.5,3.19,6.92,6.92,0,0,0,.6,1.22c.28,1.17.54,2.34.72,3.52a33.77,33.77,0,0,1,.83,5.56c-.06,2.08-.69,1.25-2.57,0a1.13,1.13,0,0,0-1.52.34c-1.54,2.13-5.89-1.05-7.56-.6-.84.23-.6,1.55.26,1.32.26-.07,1.37,1.24,1.69,1.38.75.32.68-.28,1.62-.21,1.67.12,3.26.55,4.69,0,1.8,1.67,5.32,3.31,6.49,1.54a.7.7,0,0,0,.08.2c1.85,2.73,4.47,4.86,6.59,7.38,2.28,2.7,3.5,6,5.73,8.71a.6.6,0,0,0,.76.09,14.84,14.84,0,0,0,2.75,1.82A18.51,18.51,0,0,0,73.27,201c.56.55,1.24,1,1.86,1.54a27.81,27.81,0,0,1,3.08,3.68,22,22,0,0,0,5.09,5.15,3.88,3.88,0,0,0,.11.75,14.4,14.4,0,0,1-3.71-.79,23.29,23.29,0,0,0-6.93-.9c-3.91-.2-5.59-3.57-9.42-4.16a9,9,0,0,0-4.84.59,1.41,1.41,0,0,0-1.95-.7c-5.08,2-7.79-6.11-10.36-8.67-3.38-3.36-7.44-5.7-10.59-9.36-4.83-5.58-10.22-12.68-18.32-13.13-1.8-.1-2.4,2.41-1.19,3.43,5.73,4.81,10.33,10.63,15.12,16.31,4,4.8,16.29,15.2,12.05,22a1.93,1.93,0,0,0,1.35,2.75,105,105,0,0,0,22.5,2.17c6.21.06,13.56,4.84,19.58,2.31,2.61-1.09,4.36-3.64,7-4.71s7.3-2.23,7.07,2.88c0,.61-1.07,1.34-1,2,.49,4,2.13,6,5.91,7.45a15.82,15.82,0,0,0-2.18,4.22.45.45,0,0,0,.77.42c2.65-3.1,5-6.42,7.74-9.49.13-.15.28-.3.42-.45a8.48,8.48,0,0,0,3.58-3.26,30.54,30.54,0,0,0,3.18-3.53.81.81,0,0,0,.14-.3c2.17-1.79,4.74-3.21,6-5.74C125.51,213.13,124.87,212.85,124.58,213.17Z"/><path class="cls-3" d="M118.45,221.78a23.15,23.15,0,0,1-4.63,3.55.79.79,0,0,0-1,.12l0,0a.89.89,0,0,0-.46-.37,30.89,30.89,0,0,0-3.24-.7,12.07,12.07,0,0,1,1.49-3.78,1.57,1.57,0,0,0-.3-1.89c-5.09-5.4,2.1-12.33,3.85-17.25,1.53-4.28.64-7-1-11.09s-2.1-7.18-.19-11.41c1.26-2.79,3.79-4.86,5.09-7.54,1.62-3.37-1.59-5.36-.36-8.88a1.88,1.88,0,0,0-1-2.1l-2.64-1.1c1.2-2.48,1.06-4.89-.08-7.85-1-2.51-1.59-1.68-2-5.6-.12-1.21.34-2.24,0-3.51-.44-1.78-1-2.23-2.53-3.11a.81.81,0,0,0-1.07,1.18c1.82,2.57.46,5.46,1.09,8.18.94,4,4.13,5.84.43,10.36a1.83,1.83,0,0,0,.53,2.85l.85.39a1.48,1.48,0,0,0-.3,1.53c2.25,7-4.26,12.3-4.77,18.94a21,21,0,0,0,.69,6.29c.21,2.41.61,4.81.9,7.21,0,.21,0,.39.07.58a10.14,10.14,0,0,1-.21,1.42c-1,5-3.87,9.34-4.66,14.38a26.41,26.41,0,0,0-.21,5.88c-.68-1.23-1.46-2.49-2.16-3.77,1.46-4.77,1.12-12.11-2.19-16,1.21-3.58,1.8-7.29,1.18-10.36-1.18-5.87-7-10.8-6-17,.68-4.34,3.71-7.94,4-12.43a14.74,14.74,0,0,0-1.57-7.6A15.09,15.09,0,0,0,93,147.09c-.52-.5-4.18-2.42-4.4-3-.37-1,.54-2,.64-2.87a10.86,10.86,0,0,0-.33-4.28A9.56,9.56,0,0,0,84,130.75c2.08-4-.73-8.43-5-10.36-.87-.39-1.37.75-.93,1.35,1.61,2.2,5.85,5.46,2.86,8.7a1.37,1.37,0,0,0,.61,2.29c8.36,2.17,0,10.34,4.49,14.32,3.65,3.26,7.35,4.3,7.86,10,.36,4.14-2.14,7.67-3.32,11.48-1.8,5.8.16,9.48,3,14.54s3.57,9,1.6,14.38c-.72,1.94-1.56,3.83-2.23,5.76a20.78,20.78,0,0,1-2.32-4.11,1.77,1.77,0,0,0-.48-.64c-.65-1.19-1.29-2.38-1.93-3.57a1,1,0,0,0,0-.24c-.35-2.61-1.19-5.11-1.51-7.73-.26-2.23.25-4.56-.08-6.74-.4-2.65-3.42-4.54-6.13-6a14.86,14.86,0,0,0-1.78-2.9c-2.53-2.57-6-5-4.33-8.81.17-.34.34-.69.54-1a2.56,2.56,0,0,0,.16-.4,7.87,7.87,0,0,0,1.14-2.69c0-.05,0-.1,0-.14a8.85,8.85,0,0,0,.4-2.56,11.63,11.63,0,0,0-5.15-9.14c-3.27-2.29-11.21-3.93-16.07-2.17a1.72,1.72,0,0,0-1.39-.75c-.38-1.9-.3-3.89-1.3-5.71a22,22,0,0,0-3.42-4.4,51.32,51.32,0,0,1-.44-7.63c.14-2.77,1.49-6,1-8.83A8.64,8.64,0,0,0,48,113.22c-1-1.53-2.71-2.8-3.37-4.6-.23-.62-.59-3.57-.86-4.74a1.67,1.67,0,0,0-1.25-1.13l-.8-.17c-.6-.12-1.46.22-1.4,1a18.78,18.78,0,0,0,3.64,10.59,11.6,11.6,0,0,1,2.6,6.67c.12,2-.46,4.08-.39,6.13a34.46,34.46,0,0,0,.36,3.79c-.38-.39-.75-.77-1.1-1.15C40.13,123.8,35,117.33,29,112.14a1.13,1.13,0,0,0-.4-1.39A21.57,21.57,0,0,0,23.86,108c-.85-.56-1.68-1.14-2.48-1.77-1.94-1.54-3.6-4-5.86-5a.57.57,0,0,0-.76.62c0,.11.08.21.12.32a.48.48,0,0,0-.08.27,7.42,7.42,0,0,0,.6,2.62,1,1,0,0,0,.11.6,6,6,0,0,0,2,2.09,42.61,42.61,0,0,0,5.4,3.5c5.57,3.47,7.4,9.76,11.73,14.39,2.25,2.41,5.14,4.38,6.88,7.21,1.24,2,1.75,4.33,3.1,6.32,1.93,2.83,1.89-.94,2.76,4.75.16,1-.26,2.07-.09,3.14A9.17,9.17,0,0,0,50,152.15a1.75,1.75,0,0,0,1.76.37c5.68-2.57,17.77-6.09,20.54,1.84a5.84,5.84,0,0,1,.31,1.64c-.61,3.1-3.81,5.9-5,9.11a10,10,0,0,0-1.47,3,1.64,1.64,0,0,0,1,1.93c-.57,2.39.74,5.17,3.2,6.87.15.1.31.18.46.26-4.57-.19-9.56.35-11.2-4.38-.58-1.67-.58-3.94-1.44-5.49-1.17-2.09-3.33-1.73-5.4-2.38-.49-.16-1.22.19-1.18.77a2.27,2.27,0,0,0,1.05,2.05c.34.28.85.25,1.15.47,1.18.89.73.42,1.46,1.72,1.09,1.95.67,4.51,2.14,6.24.75.88,1.92,1.07,2.79,1.75,1.46,1.16,1.16,2.05,2.93,2.45,1.32.3,3.45-.45,4.7-.63,2.43-.35,4.88-.38,7.28-.8,3.45,1.41,3.8,1.68,3.47,6.6-.21,3-.17,3.24,1.68,5.69,2,2.65,2,5.63,4.07,8.19A12.48,12.48,0,0,0,86,201c0,.07,0,.12,0,.19a14.78,14.78,0,0,0,.63,1.8,6.81,6.81,0,0,1-.13,3.64c-.18.88-.35,1.8-.45,2.71-.75.43-1.54.82-2.25,1.23A22.53,22.53,0,0,0,81.73,212,16.32,16.32,0,0,0,75,206.71c-5.08-2.35-12.7-1.82-16.22-6.44-1.74-2.29-2.26-5.22-4-7.51-1.52-2-3.87-3-5.51-4.87-2.51-2.78-2.11-6.07-3.53-9.2-2.06-4.51-5.28-8.93.94-12.31a1.5,1.5,0,0,0-.4-2.73A36.48,36.48,0,0,1,37,160.81c-2.17-1.15-3.9-3-6.13-4a10.48,10.48,0,0,0-8-.31c-1.29-4.75-2.74-10.13-6.06-13.72a1,1,0,0,0-1.67.84c.72,5.23,3.65,10.33,5.07,15.47a1.67,1.67,0,0,0,2.41.9,9.89,9.89,0,0,1,1.15-.49,17.94,17.94,0,0,0,4.12,2,55.67,55.67,0,0,1,6.15,3c1.42.85,2.23,2.17,3.53,3.08a3.71,3.71,0,0,0,.81.32,4.06,4.06,0,0,0-.41,2.69,1.06,1.06,0,0,0,1.52.74c0,.25.11.5.17.75a8.59,8.59,0,0,0,.51,3.19,6.29,6.29,0,0,0,.6,1.22c.28,1.17.53,2.34.71,3.52a33.63,33.63,0,0,1,.84,5.56c-.07,2.08-.69,1.25-2.57,0a1.15,1.15,0,0,0-1.53.33c-1.53,2.14-5.89-1-7.55-.59-.84.23-.6,1.54.25,1.32.27-.07,1.37,1.24,1.69,1.37.75.33.68-.28,1.63-.21,1.66.13,3.25.56,4.68,0,1.81,1.67,5.33,3.31,6.5,1.54a.56.56,0,0,0,.08.2c1.84,2.73,4.46,4.86,6.59,7.38,2.28,2.7,3.49,6,5.72,8.7a.62.62,0,0,0,.77.1,14.52,14.52,0,0,0,2.75,1.82,19,19,0,0,0,5.83,2.08c.57.55,1.25,1,1.87,1.54a27,27,0,0,1,3.07,3.68A22.18,22.18,0,0,0,77.16,220a6.32,6.32,0,0,0,.11.76,14.33,14.33,0,0,1-3.7-.79,23.36,23.36,0,0,0-6.94-.9c-3.91-.2-5.58-3.57-9.41-4.16a8.86,8.86,0,0,0-4.84.59,1.43,1.43,0,0,0-2-.7c-5.07,2.05-7.79-6.11-10.35-8.67-3.38-3.37-7.44-5.7-10.6-9.36-4.82-5.58-10.22-12.68-18.32-13.13-1.8-.1-2.4,2.41-1.19,3.42,5.74,4.82,10.34,10.64,15.12,16.32,4.05,4.8,16.3,15.2,12.05,22a1.93,1.93,0,0,0,1.36,2.75A104.91,104.91,0,0,0,61,230.33c6.21,0,13.56,4.83,19.58,2.31,2.61-1.09,4.36-3.64,7-4.72s7.3-2.22,7.06,2.89c0,.6-1.07,1.34-1,2,.48,4,2.13,6,5.91,7.44a15.88,15.88,0,0,0-2.18,4.23.44.44,0,0,0,.76.41c2.66-3.1,5-6.41,7.75-9.48q.19-.22.42-.45a8.5,8.5,0,0,0,3.58-3.27,30.53,30.53,0,0,0,3.18-3.52.78.78,0,0,0,.13-.3c2.18-1.79,4.75-3.21,6-5.74C119.37,221.73,118.74,221.46,118.45,221.78Z"/><path class="cls-4" d="M70.86,220.33a1.18,1.18,0,0,0-1-.8,1.3,1.3,0,0,0-.7-.28.91.91,0,0,0-1.64.17.65.65,0,0,0,0,.13c-.06-.21-.13-.42-.19-.64a.9.9,0,0,0-1.75.09.63.63,0,0,0-.05.44c0,.11.08.22.11.33l0,.13-.06.1a3.86,3.86,0,0,0,.83,3.72l.11.09a1.58,1.58,0,0,0,1.44,2.26,1.46,1.46,0,0,0,1.51-1.5,1.14,1.14,0,0,0,.41-.48L71,221.22A.9.9,0,0,0,70.86,220.33Z"/><path class="cls-4" d="M38.66,205.8a.78.78,0,0,0,0-.14.91.91,0,0,0-.14-.53,3.58,3.58,0,0,0-.17-.49.68.68,0,0,0-1-.22,1.12,1.12,0,0,0-.48.06l0,0c-.08-.26-.14-.52-.23-.79a.69.69,0,0,0-1.35.26,8.54,8.54,0,0,0,.46,2.12.5.5,0,0,0,0,.12,4.74,4.74,0,0,1,0,.76s0,0,0,.08a11.8,11.8,0,0,1-.26,1.21.22.22,0,0,0,0,.08c0,.06,0,.12-.05.18h0a1,1,0,0,0,1.9.34c.07-.18.12-.37.18-.56h0a1.06,1.06,0,0,0,.71-.65A4.55,4.55,0,0,0,38.66,205.8Z"/><path class="cls-4" d="M22,194.68l-.14-.09a2.26,2.26,0,0,0-2-1.68,5.16,5.16,0,0,0-1.31,0,7.4,7.4,0,0,0-1-.13,1,1,0,0,0-.26,0,2.08,2.08,0,0,1-.32-.12.34.34,0,0,0-.45.27,1.46,1.46,0,0,0,.15.63.79.79,0,0,0,.55.81l.06,0a.63.63,0,0,0,.12.18l1.93,2a1.48,1.48,0,0,1,0,.21v.08h0c0,.08,0,.15,0,.23a.92.92,0,0,0,1.76,0,.72.72,0,0,0,.22-.7h0A.94.94,0,0,0,22,194.68Z"/><path class="cls-4" d="M81.74,180.46a4,4,0,0,0-1.57-.51,1,1,0,0,0-.65-.45,5.93,5.93,0,0,0-1.91-.32h0a.9.9,0,0,0-.4-.13.29.29,0,0,0-.27.14.52.52,0,0,0-.44.62c.22.73.43,1.47.65,2.2a5.79,5.79,0,0,0,.34,1,.87.87,0,0,0,1.36.91,6,6,0,0,0,1-.82.69.69,0,0,0,.9-.3,2.31,2.31,0,0,1,.9-1A.76.76,0,0,0,81.74,180.46Z"/><path class="cls-4" d="M81.16,211.62a9.66,9.66,0,0,0-1.73-2.44,1.08,1.08,0,0,0-.59-.32h0l-.23,0-.12-.12a1,1,0,0,0-1.74.76,25,25,0,0,0,.67,3.43,1.1,1.1,0,0,0,2,.24l.07.06a1,1,0,0,0,1.38-.24A1.1,1.1,0,0,0,81.16,211.62Z"/><path class="cls-4" d="M44.2,175.8c-.29-.84-.57-1.67-.85-2.52h0a1.06,1.06,0,0,0-.06-.19.65.65,0,0,0-.35-.36,11.91,11.91,0,0,0,.05-2.15.64.64,0,0,0-1.13-.24c-.75,1-.35,2.2-.22,3.3a6.42,6.42,0,0,0,1.3,3C43.5,177.36,44.45,176.52,44.2,175.8Z"/><path class="cls-4" d="M39.51,127.25a17.35,17.35,0,0,0-4-3.82.72.72,0,0,0-.8.08.86.86,0,0,0-.63.59c-.23,1,.32,1.53,1,2.17l.36.33a5.32,5.32,0,0,0,2.45,2.12.88.88,0,0,0,.36,0A1,1,0,0,0,39.51,127.25Z"/><path class="cls-4" d="M75.7,153.22c.37-.73-.61-1.14-1.16-.76l-.08,0a1.13,1.13,0,0,0-.44.63.76.76,0,0,0,1.35.67,2.54,2.54,0,0,0,.16-.28.67.67,0,0,0,.17-.29Z"/><path class="cls-4" d="M49.4,142.65h0a2.25,2.25,0,0,0,0-.22.83.83,0,0,0-.69-.87.89.89,0,0,0-1,.54,2.72,2.72,0,0,0-.13.37,1.94,1.94,0,0,0-.55,1.21.77.77,0,0,0,.72.85.73.73,0,0,0,1.08-.41l0-.07a.65.65,0,0,0,.18-.29,2.71,2.71,0,0,0,.1-.43,4.75,4.75,0,0,0,.2-.64S49.39,142.66,49.4,142.65Z"/><path class="cls-4" d="M101.2,206.38a7.18,7.18,0,0,0-.72-2,8.83,8.83,0,0,0-1.23-4.54.85.85,0,0,0-.88-.42c-.1,0-.29,0-.36.11-.66,1,.39,2.28.56,3.37a19.31,19.31,0,0,1-.35,6.06c-.14.89,1.19,1.23,1.65.54a5.79,5.79,0,0,0,.88-2.24.77.77,0,0,0,.41-.83Z"/><path class="cls-4" d="M97.53,156.86c-.14-1.52-.36-3.45-1.56-4.53a.5.5,0,0,0-.78.34c-.16,1.3.48,2.63.68,3.92.22,1.48-.11,3,.35,4.46a.48.48,0,0,0,.82.09C97.83,159.89,97.65,158.28,97.53,156.86Z"/><path class="cls-4" d="M108.33,179.84a8.39,8.39,0,0,0-2.39,2,.72.72,0,0,0,.25,1,9.56,9.56,0,0,0,.08,2.57c.12.88,1.51.62,1.4-.26a.13.13,0,0,1,0-.06l0,0s0,0,.07,0c.53-.48.55-1.17.75-1.82a12.83,12.83,0,0,1,.86-2.18C109.69,180.37,109.11,179.38,108.33,179.84Z"/><path class="cls-4" d="M23,156.46a14.14,14.14,0,0,0-.82-1.93l-.37-.93a1.77,1.77,0,0,0-.38-.6.64.64,0,0,0-1.22.34,9.25,9.25,0,0,0,.95,3,.72.72,0,0,0,.19.25,2.93,2.93,0,0,0,.39.48h0C22.2,157.55,23.2,157.19,23,156.46Z"/><path class="cls-4" d="M71.52,167.86l-.2,0a.77.77,0,0,0-.26,0,8.31,8.31,0,0,1-2.18-.14,4.62,4.62,0,0,1-1.38-.6,1,1,0,0,0,0-.16.3.3,0,0,0-.46-.12,4.1,4.1,0,0,0-.41-.22.61.61,0,0,0-.77.8c0,.08.11.13.16.2a.56.56,0,0,0,0,.4h0s0,.05,0,.07l0,0a4.92,4.92,0,0,0,0,2,7,7,0,0,0,1,3.08h0a.74.74,0,0,0,1.34-.11.69.69,0,0,0,.65-.48.62.62,0,0,0,.51-.31c.09-.12.35-.48.65-.92a.66.66,0,0,0,.31-.24c.21-.37.41-.74.63-1.1.15-.17.29-.35.44-.51a.47.47,0,0,0,.11-.19l.15,0A.73.73,0,0,0,71.52,167.86Z"/><path class="cls-4" d="M74.35,173.36c-.9.15-2.22,1-2,2.08a.57.57,0,0,0,.5.45c1.06.17,1.92-1.15,2.07-2A.47.47,0,0,0,74.35,173.36Z"/><path class="cls-4" d="M46.15,134c-1.09,1.24-1.32,3.4-1.2,5,0,.3.53.37.61.07.22-.77.41-1.53.57-2.31a11.66,11.66,0,0,0,.53-2.6C46.65,133.91,46.29,133.88,46.15,134Z"/><path class="cls-4" d="M30.86,118.49c-.08-.35-.15-.69-.26-1s-.36-.52-.51-.83a.39.39,0,0,0-.73.11,3.67,3.67,0,0,0-.17,1.1,8.27,8.27,0,0,0,.37,1.38c.13.41.58,1.64,1.27,1.09S31,119.07,30.86,118.49Z"/><path class="cls-4" d="M38.61,165c-1.06-.67-2.53-.66-3.71-1.1-.26-.09-2.16-1.2-2.23-.35S34.2,165,35,165.29c1.06.39,2.5.86,3.58.34A.36.36,0,0,0,38.61,165Z"/><path class="cls-4" d="M28.12,195.71a.47.47,0,0,0-.88.14,5,5,0,0,0,.63,3.05c.22.34.69.1.75-.21A4.9,4.9,0,0,0,28.12,195.71Z"/><path class="cls-4" d="M38.72,213a8.88,8.88,0,0,0-4.19.18.54.54,0,0,0-.1,1c1.32.5,3.31.56,4.4-.49A.42.42,0,0,0,38.72,213Z"/><path class="cls-4" d="M53.48,215.28a.34.34,0,0,0-.21-.26c-.83-.24-1.53.81-2,1.37A5.43,5.43,0,0,0,50,219.28a.33.33,0,0,0,.58.23c.55-.76,1.07-1.55,1.63-2.3C52.63,216.68,53.63,216,53.48,215.28Z"/><path class="cls-4" d="M25.8,157.71c-.64.39-1,1-1.73,1.27s-1.36.32-2,.51-.81,1.07-.1,1.24a3.16,3.16,0,0,0,2.76-.65c.61-.5,1.54-1.29,1.55-2.12A.28.28,0,0,0,25.8,157.71Z"/><path class="cls-4" d="M84.27,129.58a.28.28,0,0,0-.49-.12c-.14.18-.36.3-.5.49s-.34.55-.57.8c-.41.43-1,.64-1.34,1.16a.41.41,0,0,0,.18.63,2,2,0,0,0,2-.84,4.49,4.49,0,0,0,.65-.9A1.83,1.83,0,0,0,84.27,129.58Z"/><path class="cls-4" d="M115.11,162.74c-.38-.59-.93-.53-1.58-.68a7.36,7.36,0,0,1-2-.78.75.75,0,0,0-1.07.37v0a.18.18,0,0,0,0,.1.64.64,0,0,1,0,.07s0,.05,0,.08a.58.58,0,0,0,.31.56,9.25,9.25,0,0,0,2.18,1c.75.21,1.56.49,2.14-.12A.49.49,0,0,0,115.11,162.74Z"/><path class="cls-4" d="M112.81,194c-.52.64-1.06,1.27-1.64,1.86a6.83,6.83,0,0,0-1.36,1.68c-.18.37.26.64.58.54,1.52-.45,2.67-2.09,3.52-3.33A.67.67,0,0,0,112.81,194Z"/><path class="cls-4" d="M114.05,197.29a18.58,18.58,0,0,0-1.32,1.48,3.31,3.31,0,0,0-1,1.55c-.06.28.27.48.52.38a2.71,2.71,0,0,0,1.24-1.22,9.26,9.26,0,0,0,1-1.82C114.64,197.39,114.31,197.07,114.05,197.29Z"/><path class="cls-4" d="M80.75,222.09a11.23,11.23,0,0,0-2.38-2.69,28.84,28.84,0,0,0-2.54-2.64.65.65,0,0,0-1,.8,11.59,11.59,0,0,0,2.46,3,7.37,7.37,0,0,0,3,2.08C80.64,222.67,80.85,222.32,80.75,222.09Z"/><path class="cls-4" d="M87.53,209.54c.17-1.79.63-3.64.26-5.4a.23.23,0,0,0-.43-.06c-1.13,1.93-1.14,4.52-1.33,6.68-.16,1.84-.39,3.77.83,5.28a.45.45,0,0,0,.79-.34A33.39,33.39,0,0,1,87.53,209.54Z"/><path class="cls-4" d="M54.71,143.63a.5.5,0,0,0-.68.1,1.35,1.35,0,0,0-.2.92,3.26,3.26,0,0,1-.3,1.31c-.33.73-.94,1.26-1.29,2-.15.3.16.57.45.55a2.82,2.82,0,0,0,2.17-2C55.14,145.67,55.5,144.19,54.71,143.63Z"/><path class="cls-4" d="M63.29,178.39a7.14,7.14,0,0,1-1.7-.35,10.19,10.19,0,0,0-1.86-.63.3.3,0,0,0-.32.42,3.59,3.59,0,0,0,2.41,1.73c.71.21,2.5.71,2.88-.23S63.8,178.44,63.29,178.39Z"/><path class="cls-4" d="M94.2,213.76c-1.58,2.58-2.35,5.58-3.92,8.21-1.39,2.33-3.6,4.37-4.7,6.8-.09.2.14.47.36.35,2.53-1.37,4.27-4.43,5.67-6.82s3.13-5.39,3.27-8.27C94.9,213.69,94.41,213.42,94.2,213.76Z"/><path class="cls-4" d="M97,216.68a30.75,30.75,0,0,0-1.94,4.61,25.87,25.87,0,0,1-2.85,4.94.51.51,0,0,0,.5.79c1.7-.45,2.06-2.31,2.72-3.73.89-1.91,2.16-4.24,2.2-6.36C97.67,216.63,97.25,216.37,97,216.68Z"/><path class="cls-4" d="M99.21,223.59a.38.38,0,0,0-.63-.07,17.91,17.91,0,0,0-1.43,3.26c-.7,1.48-1.94,2.56-2.68,4-.24.46.37.93.8.73a7.72,7.72,0,0,0,2.9-3.41C98.89,226.75,99.67,225.09,99.21,223.59Z"/><path class="cls-4" d="M100.55,230.67c-.8,1.37-1.18,2.91-2,4.26-.58.9-2,1.93-1.93,3a.25.25,0,0,0,.21.21c1.3.17,2.49-2,3-2.87a7.92,7.92,0,0,0,1.5-4.43A.45.45,0,0,0,100.55,230.67Z"/><path class="cls-4" d="M44.5,225.17c-1,.34-1.8,1.31-2.83,1.76a7.26,7.26,0,0,1-1.72.51,12.89,12.89,0,0,1-2,.37.34.34,0,0,0-.08.67,5.88,5.88,0,0,0,2.18.4,8.78,8.78,0,0,0,2.14-.51c1.22-.47,2.81-1.32,3.11-2.66C45.39,225.27,44.85,225.05,44.5,225.17Z"/><path class="cls-4" d="M55.46,221.05c-1.29.87-2.08,2.46-3,3.65A49.73,49.73,0,0,1,48.14,229c-.15.14.06.37.23.3a15.54,15.54,0,0,0,4.9-3.52c1.16-1.15,2.64-2.76,2.72-4.44A.34.34,0,0,0,55.46,221.05Z"/><path class="cls-4" d="M64.24,204c-.92.06-1.77.63-2.7.78a11.57,11.57,0,0,1-3.11,0,.6.6,0,0,0-.11,1.2c1.76.28,5.06.07,6.24-1.46A.33.33,0,0,0,64.24,204Z"/><path class="cls-4" d="M80.1,173.2a.22.22,0,0,0-.43.06,5.26,5.26,0,0,1-.16,1.23,7.21,7.21,0,0,0-.36.74,2.86,2.86,0,0,0-.24,1.46.32.32,0,0,0,.45.24C80.84,176.33,80.41,174.38,80.1,173.2Z"/></g></g></g><g id="Layer_94" data-name="Layer 94"><g id="Cola"><rect class="cls-5" width="130" height="250"/></g></g></g></g></svg>