<svg xmlns="http://www.w3.org/2000/svg" xmlns:xlink="http://www.w3.org/1999/xlink" viewBox="0 0 464 265"><defs><style>.cls-1{isolation:isolate;}.cls-2{fill:url(#Degradado_sin_nombre_7);}.cls-3{fill:#42210b;}.cls-4{fill:#69a7cf;}.cls-5{fill:#fff;}.cls-6{fill:none;mix-blend-mode:multiply;opacity:0.4;}</style><radialGradient id="Degradado_sin_nombre_7" cx="367.73" cy="136.93" r="44.99" gradientTransform="translate(-182.08 -58.4) scale(1.45 1.32)" gradientUnits="userSpaceOnUse"><stop offset="0.05" stop-color="#e6e8ea"/><stop offset="0.13" stop-color="#dce4ea"/><stop offset="0.32" stop-color="#c9dde9"/><stop offset="0.53" stop-color="#bed8e9"/><stop offset="0.74" stop-color="#bad7e9"/><stop offset="1" stop-color="#afd3e8"/></radialGradient></defs><g class="cls-1"><g id="Layer_2" data-name="Layer 2"><g id="Variacion_B" data-name="Variacion B"><g id="AssetsW2"><g id="HornW6_2"><path class="cls-2" d="M405,153.78c-.36-4.7-3.82-8.93-8.75-11.06a32.41,32.41,0,0,0-4.76-1.59,11.64,11.64,0,0,0-3.41-1.24,33.76,33.76,0,0,0-20.91-7.37c-2.63,0-4.06-2-6.54-1.31-.81-4.42-5-5.59-8.92-7.81a45.94,45.94,0,0,0-3.68-6.92c.06-.23.12-.46.17-.69,5-13.16,2.23-33.18-9.9-42a19,19,0,0,0-5.55-2.72l-1.25-1.44c-3-3.42-6.82-7.17-10.87-6.41-2.2-2.48-5.18-2.84-6.88-4.54-4.88-4.9-12.23,1.91-8,6.92.65.77,1.88,2.25,3.34,4.12a5.25,5.25,0,0,0-.1,1.33,39.77,39.77,0,0,0,5.28,18,9,9,0,0,0-4.8,5.54,86.56,86.56,0,0,0-2.63,11.63,12.55,12.55,0,0,0-6.22,2.77c-5.59,4.75-7.36,10.92-6.65,17.37a27,27,0,0,0-.63,9.39c.41,5.16,5.59,8.41,10.71,7.89,0,.1,0,.2.07.3,1.42,5.31,7.43,6.54,12.23,4.9a17.09,17.09,0,0,0,7.86,5.1,15,15,0,0,0,3.72,2.59c.55,6.71,3.7,12.88,9.54,14.92l.16.14a7,7,0,0,0,1.07,7.71l2.58,2.94c.09.1.2.2.3.3a17.94,17.94,0,0,1,6-.9c9.49-1.21,19.82.12,27.66,3.69a1.25,1.25,0,0,1,.16-.17c7.28-5.67,14.21-10.6,22.87-14,2.76-1.08,5.58-2.07,8.44-3l.79-.69C411.76,163.53,409.66,156.69,405,153.78Z"/><path class="cls-3" d="M333.27,188.17c11.79-3.62,8.53-19.17,2.36-26.35-9.19-10.7-24.55-11.93-35.11-20.66-4.91-4.07-8.06-9.58-5.4-15.87,2.49-5.85,7.63-10.37,11.55-15.25,8.15-10.13,11.72-23.11,7-35.66A39.78,39.78,0,0,0,302.55,58.1C298,54.26,291,50.26,285,53a2.3,2.3,0,0,0-.74,3.54c2.38,2.6,5.81,3.65,8.83,5.33a23.9,23.9,0,0,1,7,5.88c4.88,6,7.69,13.71,6.75,21.46-1.82,15-17.72,22-21.18,36.22-3.62,14.8,10,24.85,21.81,30.19,12.7,5.75,31.91,12.79,23.86,30.2a1.79,1.79,0,0,0,2,2.39Z"/><path class="cls-3" d="M282.4,56.2C293.93,58.57,305.82,58.93,317,63c13.95,5.06,25,13.84,28.47,28.79,2.61,11.24-.29,24.75,7.28,34.41,8.23,10.51,21.75,7.2,32.84,11.45,9.82,3.76,24,16.67,21.11,28.52-1.34,5.52,7.37,7.85,8.43,2.37,2.23-11.62-4.73-22.89-13.17-30.35a42.76,42.76,0,0,0-15.9-9.25c-6.52-1.92-13.5-1.32-20-3.22-14.68-4.27-11.12-24.65-14-36.3-3.6-14.27-13.09-24-26.31-29.9a89.15,89.15,0,0,0-43.44-7.25c-2.43.25-1.84,3.55.18,4Z"/><path class="cls-4" d="M374.45,179.29c-.2-.16-.42-.31-.63-.46,0-12.19-10.45-23.68-21.23-27.86-8-3.1-16-5.91-23.84-9.41-7.25-3.23-14.88-6.22-20.58-11.87-.49-.48-1.54-.1-1.3.68a7.71,7.71,0,0,0,.69,1.55.3.3,0,0,0-.2.41c3.62,8,15.52,11.48,22.57,15.58,5,2.92,9.46,6.55,12.23,11.77S344.56,170,345,175.4a.8.8,0,0,0,.1,1.18c0,.16,0,.31.05.47a1.11,1.11,0,0,0,.13.84.76.76,0,0,0,1,.39c4.33-.28,8.51-.77,12.86-.33a71.66,71.66,0,0,1,13.2,3.06l.33.24C374,182.33,375.8,180.38,374.45,179.29Z"/><path class="cls-5" d="M339.25,84.5a36.91,36.91,0,0,0-8.43-10.11c-2.61-2.26-5.78-5.48-9.41-5.19a.39.39,0,0,0-.07.75c4.26,1.08,8.15,5.36,11.05,8.54a32.73,32.73,0,0,1,7.19,12.3c2.47,7.77,1.71,15.82,2.86,23.76.13.83,1.29.63,1.39-.11C345.26,104.75,344,93.18,339.25,84.5Z"/></g></g></g><g id="Layer_94" data-name="Layer 94"><g id="Cuerno"><rect class="cls-6" width="464" height="265"/></g></g></g></g></svg>