<svg xmlns="http://www.w3.org/2000/svg" xmlns:xlink="http://www.w3.org/1999/xlink" viewBox="0 0 464 265"><defs><style>.cls-1{isolation:isolate;}.cls-2{fill:url(#Degradado_sin_nombre_7);}.cls-3{fill:#42210b;}.cls-4{fill:#69a7cf;}.cls-5{fill:#fff;}.cls-6{fill:none;mix-blend-mode:multiply;opacity:0.4;}</style><radialGradient id="Degradado_sin_nombre_7" cx="358.2" cy="140.81" r="40.91" gradientTransform="translate(-3.73 -14.19) scale(1.02 1.08)" gradientUnits="userSpaceOnUse"><stop offset="0.05" stop-color="#e6e8ea"/><stop offset="0.13" stop-color="#dce4ea"/><stop offset="0.32" stop-color="#c9dde9"/><stop offset="0.53" stop-color="#bed8e9"/><stop offset="0.74" stop-color="#bad7e9"/><stop offset="1" stop-color="#afd3e8"/></radialGradient></defs><g class="cls-1"><g id="Layer_2" data-name="Layer 2"><g id="Variacion_C" data-name="Variacion C"><g id="AssetsW2"><g id="HornW2"><path class="cls-2" d="M394.92,172.48c-.87-1.18-2.5-3-2.75-3.47-6.25-3.14-10.15-10.17-13.53-16.81-.08-.16-.15-.33-.23-.5a12.86,12.86,0,0,0-3.69-.73q-1.65-9.21-3.31-18.42a90.53,90.53,0,0,1-.31-9.17c1.67-3.91,3.4-8.53,5.67-12.37a21.17,21.17,0,0,0,4.4-4.27,7,7,0,0,0,4.1-.33c.52-.2,1-.36,1.49-.52a84.33,84.33,0,0,1,9.1-7.5c.45-2.78-.35-5.67-2.72-7.14a5.67,5.67,0,0,0-6-2.57c-1.36.24-2.68.54-4,.9a92.1,92.1,0,0,0-10.31-.34l-.79-.07a1.75,1.75,0,0,1-.85.24c-8.81.27-17.13,1.36-25.27,5.58-6.67,3.47-14.57,9.27-17.77,17.48a28.9,28.9,0,0,0-.83,4.14c-3,6.46-3.44,14.79-3.25,22,2,8.31,3,17.15,5.37,25.33a146.35,146.35,0,0,0,8,21.4c7.47-3.09,16.83-5.62,24.52-5.15a37.53,37.53,0,0,1,13.23,2.85,23.16,23.16,0,0,1,7.38-4.9A42.12,42.12,0,0,1,394.92,172.48Z"/><path class="cls-3" d="M402.54,90.4c-12.91-7.64-30.64-5.71-44.59-2.22-11.72,2.93-21.68,8.88-28.3,19.16-7.08,11-11.69,26.53-10.09,39.61,1.78,14.45,8.29,27,16.24,38.91,2.87,4.31,10,.29,7-4-6.78-9.73-12.52-19.71-15.93-31.16-3.74-12.53-.11-27.88,6.52-38.93,6-10,16.19-15.53,27.25-18a91,91,0,0,1,19.86-2.34c7,0,13.84,1.39,20.77,2.31,1.75.23,2.84-2.4,1.25-3.34Z"/><path class="cls-3" d="M400.88,90.45c-7.92,0-15.1,7.28-19.73,13-5.76,7.09-10.57,15.52-11.39,24.76-1.59,18,6.89,40.12,25,46.94,4.63,1.74,7.19-5.18,3.32-7.68-6.34-4.12-11.48-8.18-15.25-14.93a43.54,43.54,0,0,1-5.59-24.13c.58-7.64,4.57-14.69,9.06-20.75A47.67,47.67,0,0,1,394,99.5c2.5-2.1,5.47-3.43,8-5.47,1.28-1,.67-3.58-1.13-3.58Z"/><path class="cls-4" d="M342,170.45c-3-7.9-6.92-15.32-8.54-23.69-1.77-9.11-1.26-19,2.84-27.41.35-.72-.68-1.35-1.09-.64-9.41,16.25-5.69,37.68,5.35,52.34C341.09,171.7,342.38,171.36,342,170.45Z"/><path class="cls-5" d="M381.12,96.57c-4.83.13-8.23,7.07-10.29,10.63-3.63,6.25-6.54,13.1-7.52,20.3a.81.81,0,0,0,1.56.43c3.88-11.21,7.85-22.27,16.54-30.64A.42.42,0,0,0,381.12,96.57Z"/><path class="cls-5" d="M375.63,171.92c-5.67-6.9-10.9-13.64-13.89-22.17-2.81-8-3.19-16.28-3.52-24.7a.12.12,0,0,0-.23,0c-4.94,16.11,3.22,38.21,16.9,47.86C375.49,173.3,376,172.42,375.63,171.92Z"/></g></g></g><g id="Layer_94" data-name="Layer 94"><g id="Cuerno"><rect class="cls-6" width="464" height="265"/></g></g></g></g></svg>