<svg xmlns="http://www.w3.org/2000/svg" viewBox="0 0 275 259.5"><defs><style>.cls-1{isolation:isolate;}.cls-2{fill:#c7b299;stroke:#42210b;stroke-linejoin:round;stroke-width:7px;}.cls-2,.cls-4,.cls-5{stroke-linecap:round;}.cls-3{fill:#a67c52;}.cls-4,.cls-7{fill:none;}.cls-4{stroke:#754c24;stroke-width:5.76px;}.cls-4,.cls-5{stroke-miterlimit:10;}.cls-5{fill:#f15a24;stroke:#c1272d;stroke-width:2.83px;}.cls-6{fill:#f7931e;}.cls-7{mix-blend-mode:multiply;opacity:0.4;}</style></defs><g class="cls-1"><g id="Layer_2" data-name="Layer 2"><g id="Variacion_A" data-name="Variacion A"><g id="AssetsW2"><g id="LoinW2"><path class="cls-2" d="M45,183.89c2.35,4.46,8.88,7.16,11.75,8.37,7,3,19.69,1.54,27.43,3.9,12.74,3.9,27.35,5.52,40.75,6.7s28,2.72,32.14,3.19,58.91,1.73,66.12-4.06,13.29-16.48,14.58-24.24A140.16,140.16,0,0,1,243.5,156c1-3,5.53-2.34,4-5,0-.05-28.6-24.92-44.14-27.92s-13.65-3-13.65-3-25.12-11.88-38.66-11.92-17.68,4.8-17.68,4.8-18.76-7.63-34.61-4.85S76.15,119.7,76.15,119.7s-19.21,4.87-25.7,10.93-7.19,16.92-7.19,16.92-4,5.91-4.14,8.74C38.23,175.48,42.42,179.07,45,183.89Z"/><path class="cls-3" d="M93.15,168s19.21,2.57,29.78,4.46a155,155,0,0,0,18.8,2.23s-.13-14.09.44-19.47,2-8.15,1.07-9.68-18.06-8.92-19.37-9.82-9-1.15-9.19-.15,13.46,6.55,14.88,10.21.69,13.87-8.91,17.15S96,164.42,96,164.42Z"/><path class="cls-3" d="M144.87,175.8s18.91,3.65,27.42,4.46A41.25,41.25,0,0,0,188,178.59s-6.57-22.9-6.32-25.05-25-7.26-25-7.26,18.73,8.08,19.63,10-2.44,13.42-5.8,14.73-25.78-4.54-25.78-4.54Z"/><path class="cls-3" d="M191.58,171.6l3.66,10s13.15,3,19.86-1.53,11.77-8.69,12.22-10.57-21.13-24.16-21.13-24.16l-15.81,5.55s9.05-.53,11.79.08,12.43,6.84,13.41,9.19-4.68,8.15-9,9.17-17.18-1.51-17.18-1.51Z"/><path class="cls-3" d="M211.1,130.06l-1,10.79s1.15-5,6-3.09,11,6.83,11.71,10.51-1.38,11.87-1.38,11.87l3.27,5.71,3-6.79,3.14-13.39s-7.1-5.12-12.18-9.77S211.1,130.06,211.1,130.06Z"/><path class="cls-3" d="M81.46,122.07s15.35,3.73,20.26,6.71l4.9,3s-11.44,28.32-12.34,27.68-2.06,8.35-14.45,6.88c-23.51-2.79-32.14-18.23-32.14-18.23S47.8,141,51,137.42s5-4.29,5-4.29S63,145,72.16,145.51s16.33,2.43,20.47-4.33S81.46,122.07,81.46,122.07Z"/><path class="cls-3" d="M109.85,130.75s.8-2.66,8.55-7.49a75.39,75.39,0,0,1,14.6-7.1l-7.7-1.7s-10.06,10.35-16.88,8.86-24.71-4.13-24.71-4.13,15.34,4.76,20.2,6.69S109.85,130.75,109.85,130.75Z"/><path class="cls-3" d="M117.31,132.39s8.1,1.4,16,3.53a49.85,49.85,0,0,1,14.13,6.48L145,118.79l-8.4-1.85s8.09,6.77,4.49,8.68-17.17,1.1-17.17,1.1Z"/><path class="cls-3" d="M150.18,119.19s8.81,3.14,15.18,3.34,9.16.37,9.16.37L181,149.77s-20.06-5-23.21-5.11a27.67,27.67,0,0,1-6.78-1.49l-.25-10s16.44,9.68,18.63,5.32.89-11.35-4.36-12.68-15.12-3.89-15.12-3.89Z"/><path class="cls-3" d="M178.11,123.69l8.63,24s11.21-2.77,13.12-5.26-3.71-10.35-6.18-11.77a30.51,30.51,0,0,0-4.05-2s4.67,10.14.76,8.81S178.11,123.69,178.11,123.69Z"/><path class="cls-3" d="M192.31,124.61l15.89,3.49-2.94,9s-.25-3.14-4.59-5.82A55.72,55.72,0,0,1,192.31,124.61Z"/><path class="cls-3" d="M150.46,116.71a75.69,75.69,0,0,0,12,1.34c7.48.33,9.82-.48,9.82-.48s-8.57-3.65-11.85-4.37a63.19,63.19,0,0,0-9.52-.78Z"/><path class="cls-4" d="M51.34,152.07s3.08,10.63,19.76,15.59c6.16,1.84,11,3.3,14.62,4.42a64.76,64.76,0,0,0,15.81,2.79,70.86,70.86,0,0,1,17.9,3.1A42.78,42.78,0,0,0,137,179.83,15.87,15.87,0,0,1,147.12,182c3.06,1.91,9,3.76,20.48,3.53l23-.48s19.37,2.5,27.85-2.38,9.51-8,9.51-8"/><path class="cls-3" d="M44.69,160c-1.62-.47-3.33.49-3.1,1.72.53,2.71,1.27,6.57,1.41,7.39.21,1.3,5.65,6.48,5.34,6.85s5.22-2.49,8.95-4.4c1.63-.83,1.61-2.56,0-3.37a48.47,48.47,0,0,1-6.47-3.69c-2.4-1.74-4.21-3.26-5-3.94a2.82,2.82,0,0,0-1.09-.56Z"/><path class="cls-3" d="M53.19,176.91s-3.42,1.88-3.14,2.24a38.72,38.72,0,0,0,6.06,5.2,14.91,14.91,0,0,0,9.65,3.25s7.71-11.87,6.25-11.7-4.44,4.44-10.07,3.17-4.84-4.39-4.84-4.39Z"/><path class="cls-3" d="M71.19,183.24l-.12,5.44A53,53,0,0,0,82,190.88c5,.3,11.61,2,12.74,1.53s-.58-10.91-.58-10.91A23.75,23.75,0,0,1,87,184.87c-3.64.88-6.78,1.63-9.22.47s-5.45-3.06-6-2.92S71.19,183.24,71.19,183.24Z"/><path class="cls-3" d="M100.84,187.8c-1.31.43-3.65.62-2.45,2.43s2.66,4.7,4.53,4.31,12.58.53,14.55.52,3-4.84,1.45-8.27-1.26-4.67-4.48-4.22-8.32.6-8.32.6,8.88,2.35,7.13,3.21S100.84,187.8,100.84,187.8Z"/><path class="cls-3" d="M124.77,187a39.24,39.24,0,0,0-1.61,5.63c-.2,1.72-2.84,2.29.65,2.7s10.65,1.63,15.36,2.18,10.77,4.61,10.85,2.39-2.7-14.48-3.17-14-7-2.89-7-2.89,1.47,7.4-2.07,6.88S124.77,187,124.77,187Z"/><path class="cls-3" d="M152,193.65s-.52,7.56,1,8.07,13.34.93,14.13,1.31,2.44-13.59,2.14-13.54-2.31,4.72-7.21,4.83A70.3,70.3,0,0,1,152,193.65Z"/><path class="cls-3" d="M172,195.92s-2.1,6-.71,6.16,10-2,15-.87,7.1-5,5.37-8.47-1.89-5.59-2.68-4.28-5.41,9.79-9,8.42-8.27-3.26-8.27-3.26Z"/><path class="cls-3" d="M195.41,193.58s-.62,6.46.48,6.7,7,.63,11.32.72,5.27,1.61,5.57-1-3.18-11.38-3.46-11.39-4.34,6.54-5.72,6S195.41,193.58,195.41,193.58Z"/><path class="cls-3" d="M214.57,194.26s1.68,5,1.66,5.08,1.79.52,4.72-3.68,5.93-11,6.15-12.74-5.43,3.2-6,3.73-2.25,5-2.9,5.76S214.57,194.26,214.57,194.26Z"/><path class="cls-5" d="M60.52,97.3c1.48-1.15,3-2.5,4.65-3.94,8-7.19,17.37-16.71,23.26-12,8.49,7.07-9.19,23.33-2.12,32.52,2.83,3.54,13.43.71,20.88.08,2.28,0,4.44,0,6.31.17a16.76,16.76,0,0,1,4.58.91c6.76,2.73,10.2,6.19-3.54,11.88s-27.9,10.19-27.9,10.19,6.47,42.71-1.7,40.32-24.79-28.75-29.73-30.32-30.42,13.06-35,5.3c-1.52-2.59-.37-5.87,1.84-9.11a37.83,37.83,0,0,1,3.9-4.72c18.65-9.85,6.63-24.7-.44-38.13a3.12,3.12,0,0,1,.71-3.54c10.61-3.53,18.38,12.73,28.55,5Z"/><path class="cls-6" d="M31.88,145.34a2.48,2.48,0,1,0-2.48,2.47A2.47,2.47,0,0,0,31.88,145.34Z"/><path class="cls-6" d="M84.31,87.77A3.3,3.3,0,0,0,80,85.6c-1.41.71-.71,3.54,1.69,4.33A2.39,2.39,0,0,0,84.31,87.77Z"/><path class="cls-6" d="M112.47,120.6a2.48,2.48,0,1,0-2.47,2.47A2.48,2.48,0,0,0,112.47,120.6Z"/><path class="cls-6" d="M84.19,165.84a2.48,2.48,0,1,0-2.47,2.48A2.48,2.48,0,0,0,84.19,165.84Z"/><path class="cls-6" d="M42.48,139a3.89,3.89,0,1,0-3.89,3.89A3.89,3.89,0,0,0,42.48,139Z"/><path class="cls-6" d="M42.11,106.73a2.92,2.92,0,0,0-3.37-3,4.16,4.16,0,0,0-3.59,3.75,2.93,2.93,0,0,0,3.34,3A4,4,0,0,0,42.11,106.73Z"/><path class="cls-6" d="M78.56,98.61c-.73-3.11-5.68-5.94-7.8-2.4-.71,2.82,0,5.65,3.56,5.87A4,4,0,0,0,78.56,98.61Z"/><path class="cls-6" d="M100.45,124.13A3.89,3.89,0,1,0,96.56,128,3.89,3.89,0,0,0,100.45,124.13Z"/><path class="cls-6" d="M80.66,155.24a3.89,3.89,0,1,0-3.89,3.89A3.89,3.89,0,0,0,80.66,155.24Z"/><path class="cls-6" d="M53.09,131.2a4.6,4.6,0,1,0-4.6,4.6A4.6,4.6,0,0,0,53.09,131.2Z"/><path class="cls-6" d="M51.72,113a3.87,3.87,0,0,0-4.25-4,4.89,4.89,0,0,0-4.34,4.51,3.91,3.91,0,0,0,4.17,4A4.56,4.56,0,0,0,51.72,113Z"/><path class="cls-6" d="M71.48,110.69a4.52,4.52,0,0,0-4.57-4.6,4.6,4.6,0,1,0,4.57,4.6Z"/><path class="cls-6" d="M76.42,142.51a4.6,4.6,0,1,0-4.6,4.6A4.59,4.59,0,0,0,76.42,142.51Z"/><path class="cls-6" d="M86.31,127a4.6,4.6,0,1,0-4.59,4.59A4.59,4.59,0,0,0,86.31,127Z"/></g></g></g><g id="Layer_94" data-name="Layer 94"><g id="Espalda"><rect class="cls-7" width="275" height="259.5"/></g></g></g></g></svg>